<?xml version="1.0" encoding="UTF-8" standalone="no"?>
<!DOCTYPE svg PUBLIC "-//W3C//DTD SVG 1.1//EN"
 "http://www.w3.org/Graphics/SVG/1.1/DTD/svg11.dtd">
<!-- Generated by graphviz version 12.2.1 (20241206.2353)
 -->
<!-- Title: Salesforce+ ERD Pages: 1 -->
<svg width="1130pt" height="770pt"
 viewBox="0.00 0.00 1130.25 769.50" xmlns="http://www.w3.org/2000/svg" xmlns:xlink="http://www.w3.org/1999/xlink">
<g id="graph0" class="graph" transform="scale(1 1) rotate(0) translate(4 765.5)">
<title>Salesforce+ ERD</title>
<polygon fill="#efeffd" stroke="none" points="-4,4 -4,-765.5 1126.25,-765.5 1126.25,4 -4,4"/>
<text text-anchor="middle" x="1074.88" y="-5.95" font-family="Courier,monospace" font-size="9.00">Salesforce ERD </text>
<!-- AssetActionSource -->
<g id="node1" class="node">
<title>AssetActionSource</title>
<g id="a_node1"><a xlink:href="#" xlink:title=" AssetActionSource ">
<polygon fill="#ffeeff" stroke="none" points="278,-18.5 278,-761.5 1122.25,-761.5 1122.25,-18.5 278,-18.5"/>
<polygon fill="lightblue" stroke="none" points="279,-741 279,-760.5 1121.25,-760.5 1121.25,-741 279,-741"/>
<polygon fill="none" stroke="#99ccff" points="279,-741 279,-760.5 1121.25,-760.5 1121.25,-741 279,-741"/>
<text text-anchor="start" x="642.75" y="-748.05" font-family="Courier,monospace" font-weight="bold" font-size="11.00">AssetActionSource</text>
<polygon fill="#99ccff" stroke="none" points="279,-721.5 279,-741 1020.75,-741 1020.75,-721.5 279,-721.5"/>
<polygon fill="none" stroke="#99ccff" points="279,-721.5 279,-741 1020.75,-741 1020.75,-721.5 279,-721.5"/>
<text text-anchor="start" x="282" y="-728.55" font-family="Courier,monospace" font-size="11.00"> &#160;&#160;&#160;&#160;&#160;&#160;&#160;&#160;&#160;&#160;&#160;&#160;&#160;&#160;&#160;&#160;&#160;&#160;&#160;&#160;&#160;&#160;&#160;&#160;&#160;&#160;&#160;&#160;&#160;&#160;&#160;&#160;&#160;&#160;&#160;&#160;&#160;&#160;&#160;&#160;&#160;&#160;</text>
<text text-anchor="start" x="572.25" y="-728.55" font-family="Courier,monospace" font-weight="bold" font-size="11.00">Id</text>
<text text-anchor="start" x="585.75" y="-728.55" font-family="Courier,monospace" font-size="11.00"> &#160;&#160;&#160;&#160;&#160;&#160;&#160;&#160;&#160;&#160;&#160;&#160;&#160;&#160;&#160;&#160;&#160;&#160;&#160;&#160;&#160;&#160;&#160;&#160;&#160;&#160;&#160;&#160;&#160;&#160;&#160;&#160;&#160;&#160;&#160;&#160;&#160;&#160;&#160;</text>
<polygon fill="none" stroke="#99ccff" points="1020.75,-721.5 1020.75,-741 1121.25,-741 1121.25,-721.5 1020.75,-721.5"/>
<text text-anchor="start" x="1050.75" y="-727.55" font-family="Courier,monospace" font-size="11.00">id(18)</text>
<polygon fill="none" stroke="#99ccff" points="279,-702 279,-721.5 1020.75,-721.5 1020.75,-702 279,-702"/>
<text text-anchor="start" x="282" y="-708.05" font-family="Courier,monospace" font-size="11.00"> &#160;&#160;&#160;&#160;&#160;&#160;&#160;&#160;&#160;&#160;&#160;&#160;&#160;&#160;&#160;&#160;&#160;&#160;&#160;&#160;&#160;&#160;&#160;&#160;&#160;&#160;&#160;&#160;&#160;&#160;&#160;&#160;&#160;&#160;&#160;&#160;&#160;&#160;&#160;&#160;IsDeleted &#160;&#160;&#160;&#160;&#160;&#160;&#160;&#160;&#160;&#160;&#160;&#160;&#160;&#160;&#160;&#160;&#160;&#160;&#160;&#160;&#160;&#160;&#160;&#160;&#160;&#160;&#160;&#160;&#160;&#160;&#160;&#160;&#160;&#160;&#160;&#160;&#160;&#160;</text>
<polygon fill="none" stroke="#99ccff" points="1020.75,-702 1020.75,-721.5 1121.25,-721.5 1121.25,-702 1020.75,-702"/>
<text text-anchor="start" x="1047.38" y="-708.05" font-family="Courier,monospace" font-size="11.00">boolean</text>
<polygon fill="none" stroke="#99ccff" points="279,-682.5 279,-702 1020.75,-702 1020.75,-682.5 279,-682.5"/>
<text text-anchor="start" x="282" y="-688.55" font-family="Courier,monospace" font-size="11.00"> &#160;&#160;&#160;&#160;&#160;&#160;&#160;&#160;&#160;&#160;&#160;&#160;&#160;&#160;&#160;&#160;&#160;&#160;&#160;&#160;&#160;&#160;&#160;&#160;&#160;&#160;&#160;&#160;&#160;&#160;&#160;&#160;&#160;&#160;&#160;&#160;&#160;&#160;&#160;&#160;AssetActionSourceNumber &#160;&#160;&#160;&#160;&#160;&#160;&#160;&#160;&#160;&#160;&#160;&#160;&#160;&#160;&#160;&#160;&#160;&#160;&#160;&#160;&#160;&#160;&#160;&#160;&#160;&#160;&#160;&#160;&#160;&#160;&#160;&#160;&#160;&#160;&#160;&#160;&#160;&#160;</text>
<polygon fill="none" stroke="#99ccff" points="1020.75,-682.5 1020.75,-702 1121.25,-702 1121.25,-682.5 1020.75,-682.5"/>
<text text-anchor="start" x="1033.88" y="-688.55" font-family="Courier,monospace" font-size="11.00">string(255)</text>
<polygon fill="none" stroke="#99ccff" points="279,-663 279,-682.5 1020.75,-682.5 1020.75,-663 279,-663"/>
<text text-anchor="start" x="282" y="-669.05" font-family="Courier,monospace" font-size="11.00"> &#160;&#160;&#160;&#160;&#160;&#160;&#160;&#160;&#160;&#160;&#160;&#160;&#160;&#160;&#160;&#160;&#160;&#160;&#160;&#160;&#160;&#160;&#160;&#160;&#160;&#160;&#160;&#160;&#160;&#160;&#160;&#160;&#160;&#160;&#160;&#160;&#160;&#160;&#160;&#160;LastModifiedById &#160;&#160;&#160;&#160;&#160;&#160;&#160;&#160;&#160;&#160;&#160;&#160;&#160;&#160;&#160;&#160;&#160;&#160;&#160;&#160;&#160;&#160;&#160;&#160;&#160;&#160;&#160;&#160;&#160;&#160;&#160;&#160;&#160;&#160;&#160;&#160;&#160;&#160;</text>
<polygon fill="none" stroke="#99ccff" points="1020.75,-663 1020.75,-682.5 1121.25,-682.5 1121.25,-663 1020.75,-663"/>
<text text-anchor="start" x="1027.12" y="-669.05" font-family="Courier,monospace" font-size="11.00">reference(18)</text>
<polygon fill="none" stroke="#99ccff" points="279,-643.5 279,-663 1020.75,-663 1020.75,-643.5 279,-643.5"/>
<text text-anchor="start" x="282" y="-649.55" font-family="Courier,monospace" font-size="11.00"> &#160;&#160;&#160;&#160;&#160;&#160;&#160;&#160;&#160;&#160;&#160;&#160;&#160;&#160;&#160;&#160;&#160;&#160;&#160;&#160;&#160;&#160;&#160;&#160;&#160;&#160;&#160;&#160;&#160;&#160;&#160;&#160;&#160;&#160;&#160;&#160;&#160;&#160;&#160;&#160;AssetActionId &#160;&#160;&#160;&#160;&#160;&#160;&#160;&#160;&#160;&#160;&#160;&#160;&#160;&#160;&#160;&#160;&#160;&#160;&#160;&#160;&#160;&#160;&#160;&#160;&#160;&#160;&#160;&#160;&#160;&#160;&#160;&#160;&#160;&#160;&#160;&#160;&#160;&#160;</text>
<polygon fill="none" stroke="#99ccff" points="1020.75,-643.5 1020.75,-663 1121.25,-663 1121.25,-643.5 1020.75,-643.5"/>
<text text-anchor="start" x="1027.12" y="-649.55" font-family="Courier,monospace" font-size="11.00">reference(18)</text>
<polygon fill="none" stroke="#99ccff" points="279,-624 279,-643.5 1020.75,-643.5 1020.75,-624 279,-624"/>
<text text-anchor="start" x="282" y="-630.05" font-family="Courier,monospace" font-size="11.00"> &#160;&#160;&#160;&#160;&#160;&#160;&#160;&#160;&#160;&#160;&#160;&#160;&#160;&#160;&#160;&#160;&#160;&#160;&#160;&#160;&#160;&#160;&#160;&#160;&#160;&#160;&#160;&#160;&#160;&#160;&#160;&#160;&#160;&#160;&#160;&#160;&#160;&#160;&#160;&#160;ReferenceEntityItemId &#160;&#160;&#160;&#160;&#160;&#160;&#160;&#160;&#160;&#160;&#160;&#160;&#160;&#160;&#160;&#160;&#160;&#160;&#160;&#160;&#160;&#160;&#160;&#160;&#160;&#160;&#160;&#160;&#160;&#160;&#160;&#160;&#160;&#160;&#160;&#160;&#160;&#160;</text>
<polygon fill="none" stroke="#99ccff" points="1020.75,-624 1020.75,-643.5 1121.25,-643.5 1121.25,-624 1020.75,-624"/>
<text text-anchor="start" x="1027.12" y="-630.05" font-family="Courier,monospace" font-size="11.00">reference(18)</text>
<polygon fill="none" stroke="#99ccff" points="279,-604.5 279,-624 1020.75,-624 1020.75,-604.5 279,-604.5"/>
<text text-anchor="start" x="282" y="-610.55" font-family="Courier,monospace" font-size="11.00"> &#160;&#160;&#160;&#160;&#160;&#160;&#160;&#160;&#160;&#160;&#160;&#160;&#160;&#160;&#160;&#160;&#160;&#160;&#160;&#160;&#160;&#160;&#160;&#160;&#160;&#160;&#160;&#160;&#160;&#160;&#160;&#160;&#160;&#160;&#160;&#160;&#160;&#160;&#160;&#160;ProductAmount &#160;&#160;&#160;&#160;&#160;&#160;&#160;&#160;&#160;&#160;&#160;&#160;&#160;&#160;&#160;&#160;&#160;&#160;&#160;&#160;&#160;&#160;&#160;&#160;&#160;&#160;&#160;&#160;&#160;&#160;&#160;&#160;&#160;&#160;&#160;&#160;&#160;&#160;</text>
<polygon fill="none" stroke="#99ccff" points="1020.75,-604.5 1020.75,-624 1121.25,-624 1121.25,-604.5 1020.75,-604.5"/>
<text text-anchor="start" x="1044" y="-610.55" font-family="Courier,monospace" font-size="11.00">currency</text>
<polygon fill="none" stroke="#99ccff" points="279,-585 279,-604.5 1020.75,-604.5 1020.75,-585 279,-585"/>
<text text-anchor="start" x="282" y="-591.05" font-family="Courier,monospace" font-size="11.00"> &#160;&#160;&#160;&#160;&#160;&#160;&#160;&#160;&#160;&#160;&#160;&#160;&#160;&#160;&#160;&#160;&#160;&#160;&#160;&#160;&#160;&#160;&#160;&#160;&#160;&#160;&#160;&#160;&#160;&#160;&#160;&#160;&#160;&#160;&#160;&#160;&#160;&#160;&#160;&#160;AdjustmentAmount &#160;&#160;&#160;&#160;&#160;&#160;&#160;&#160;&#160;&#160;&#160;&#160;&#160;&#160;&#160;&#160;&#160;&#160;&#160;&#160;&#160;&#160;&#160;&#160;&#160;&#160;&#160;&#160;&#160;&#160;&#160;&#160;&#160;&#160;&#160;&#160;&#160;&#160;</text>
<polygon fill="none" stroke="#99ccff" points="1020.75,-585 1020.75,-604.5 1121.25,-604.5 1121.25,-585 1020.75,-585"/>
<text text-anchor="start" x="1044" y="-591.05" font-family="Courier,monospace" font-size="11.00">currency</text>
<polygon fill="none" stroke="#99ccff" points="279,-565.5 279,-585 1020.75,-585 1020.75,-565.5 279,-565.5"/>
<text text-anchor="start" x="282" y="-571.55" font-family="Courier,monospace" font-size="11.00"> &#160;&#160;&#160;&#160;&#160;&#160;&#160;&#160;&#160;&#160;&#160;&#160;&#160;&#160;&#160;&#160;&#160;&#160;&#160;&#160;&#160;&#160;&#160;&#160;&#160;&#160;&#160;&#160;&#160;&#160;&#160;&#160;&#160;&#160;&#160;&#160;&#160;&#160;&#160;&#160;EstimatedTax &#160;&#160;&#160;&#160;&#160;&#160;&#160;&#160;&#160;&#160;&#160;&#160;&#160;&#160;&#160;&#160;&#160;&#160;&#160;&#160;&#160;&#160;&#160;&#160;&#160;&#160;&#160;&#160;&#160;&#160;&#160;&#160;&#160;&#160;&#160;&#160;&#160;&#160;</text>
<polygon fill="none" stroke="#99ccff" points="1020.75,-565.5 1020.75,-585 1121.25,-585 1121.25,-565.5 1020.75,-565.5"/>
<text text-anchor="start" x="1044" y="-571.55" font-family="Courier,monospace" font-size="11.00">currency</text>
<polygon fill="none" stroke="#99ccff" points="279,-546 279,-565.5 1020.75,-565.5 1020.75,-546 279,-546"/>
<text text-anchor="start" x="282" y="-552.05" font-family="Courier,monospace" font-size="11.00"> &#160;&#160;&#160;&#160;&#160;&#160;&#160;&#160;&#160;&#160;&#160;&#160;&#160;&#160;&#160;&#160;&#160;&#160;&#160;&#160;&#160;&#160;&#160;&#160;&#160;&#160;&#160;&#160;&#160;&#160;&#160;&#160;&#160;&#160;&#160;&#160;&#160;&#160;&#160;&#160;ActualTax &#160;&#160;&#160;&#160;&#160;&#160;&#160;&#160;&#160;&#160;&#160;&#160;&#160;&#160;&#160;&#160;&#160;&#160;&#160;&#160;&#160;&#160;&#160;&#160;&#160;&#160;&#160;&#160;&#160;&#160;&#160;&#160;&#160;&#160;&#160;&#160;&#160;&#160;</text>
<polygon fill="none" stroke="#99ccff" points="1020.75,-546 1020.75,-565.5 1121.25,-565.5 1121.25,-546 1020.75,-546"/>
<text text-anchor="start" x="1044" y="-552.05" font-family="Courier,monospace" font-size="11.00">currency</text>
<polygon fill="none" stroke="#99ccff" points="279,-526.5 279,-546 1020.75,-546 1020.75,-526.5 279,-526.5"/>
<text text-anchor="start" x="282" y="-532.55" font-family="Courier,monospace" font-size="11.00"> &#160;&#160;&#160;&#160;&#160;&#160;&#160;&#160;&#160;&#160;&#160;&#160;&#160;&#160;&#160;&#160;&#160;&#160;&#160;&#160;&#160;&#160;&#160;&#160;&#160;&#160;&#160;&#160;&#160;&#160;&#160;&#160;&#160;&#160;&#160;&#160;&#160;&#160;&#160;&#160;Subtotal &#160;&#160;&#160;&#160;&#160;&#160;&#160;&#160;&#160;&#160;&#160;&#160;&#160;&#160;&#160;&#160;&#160;&#160;&#160;&#160;&#160;&#160;&#160;&#160;&#160;&#160;&#160;&#160;&#160;&#160;&#160;&#160;&#160;&#160;&#160;&#160;&#160;&#160;</text>
<polygon fill="none" stroke="#99ccff" points="1020.75,-526.5 1020.75,-546 1121.25,-546 1121.25,-526.5 1020.75,-526.5"/>
<text text-anchor="start" x="1044" y="-532.55" font-family="Courier,monospace" font-size="11.00">currency</text>
<polygon fill="none" stroke="#99ccff" points="279,-507 279,-526.5 1020.75,-526.5 1020.75,-507 279,-507"/>
<text text-anchor="start" x="282" y="-513.05" font-family="Courier,monospace" font-size="11.00"> &#160;&#160;&#160;&#160;&#160;&#160;&#160;&#160;&#160;&#160;&#160;&#160;&#160;&#160;&#160;&#160;&#160;&#160;&#160;&#160;&#160;&#160;&#160;&#160;&#160;&#160;&#160;&#160;&#160;&#160;&#160;&#160;&#160;&#160;&#160;&#160;&#160;&#160;&#160;&#160;StartDate &#160;&#160;&#160;&#160;&#160;&#160;&#160;&#160;&#160;&#160;&#160;&#160;&#160;&#160;&#160;&#160;&#160;&#160;&#160;&#160;&#160;&#160;&#160;&#160;&#160;&#160;&#160;&#160;&#160;&#160;&#160;&#160;&#160;&#160;&#160;&#160;&#160;&#160;</text>
<polygon fill="none" stroke="#99ccff" points="1020.75,-507 1020.75,-526.5 1121.25,-526.5 1121.25,-507 1020.75,-507"/>
<text text-anchor="start" x="1044" y="-513.05" font-family="Courier,monospace" font-size="11.00">datetime</text>
<polygon fill="none" stroke="#99ccff" points="279,-487.5 279,-507 1020.75,-507 1020.75,-487.5 279,-487.5"/>
<text text-anchor="start" x="282" y="-493.55" font-family="Courier,monospace" font-size="11.00"> &#160;&#160;&#160;&#160;&#160;&#160;&#160;&#160;&#160;&#160;&#160;&#160;&#160;&#160;&#160;&#160;&#160;&#160;&#160;&#160;&#160;&#160;&#160;&#160;&#160;&#160;&#160;&#160;&#160;&#160;&#160;&#160;&#160;&#160;&#160;&#160;&#160;&#160;&#160;&#160;EndDate &#160;&#160;&#160;&#160;&#160;&#160;&#160;&#160;&#160;&#160;&#160;&#160;&#160;&#160;&#160;&#160;&#160;&#160;&#160;&#160;&#160;&#160;&#160;&#160;&#160;&#160;&#160;&#160;&#160;&#160;&#160;&#160;&#160;&#160;&#160;&#160;&#160;&#160;</text>
<polygon fill="none" stroke="#99ccff" points="1020.75,-487.5 1020.75,-507 1121.25,-507 1121.25,-487.5 1020.75,-487.5"/>
<text text-anchor="start" x="1044" y="-493.55" font-family="Courier,monospace" font-size="11.00">datetime</text>
<polygon fill="none" stroke="#99ccff" points="279,-468 279,-487.5 1020.75,-487.5 1020.75,-468 279,-468"/>
<text text-anchor="start" x="282" y="-474.05" font-family="Courier,monospace" font-size="11.00"> &#160;&#160;&#160;&#160;&#160;&#160;&#160;&#160;&#160;&#160;&#160;&#160;&#160;&#160;&#160;&#160;&#160;&#160;&#160;&#160;&#160;&#160;&#160;&#160;&#160;&#160;&#160;&#160;&#160;&#160;&#160;&#160;&#160;&#160;&#160;&#160;&#160;&#160;&#160;&#160;Quantity &#160;&#160;&#160;&#160;&#160;&#160;&#160;&#160;&#160;&#160;&#160;&#160;&#160;&#160;&#160;&#160;&#160;&#160;&#160;&#160;&#160;&#160;&#160;&#160;&#160;&#160;&#160;&#160;&#160;&#160;&#160;&#160;&#160;&#160;&#160;&#160;&#160;&#160;</text>
<polygon fill="none" stroke="#99ccff" points="1020.75,-468 1020.75,-487.5 1121.25,-487.5 1121.25,-468 1020.75,-468"/>
<text text-anchor="start" x="1050.75" y="-474.05" font-family="Courier,monospace" font-size="11.00">double</text>
<polygon fill="none" stroke="#99ccff" points="279,-448.5 279,-468 1020.75,-468 1020.75,-448.5 279,-448.5"/>
<text text-anchor="start" x="282" y="-454.55" font-family="Courier,monospace" font-size="11.00"> &#160;&#160;&#160;&#160;&#160;&#160;&#160;&#160;&#160;&#160;&#160;&#160;&#160;&#160;&#160;&#160;&#160;&#160;&#160;&#160;&#160;&#160;&#160;&#160;&#160;&#160;&#160;&#160;&#160;&#160;&#160;&#160;&#160;&#160;&#160;&#160;&#160;&#160;&#160;&#160;TransactionDate &#160;&#160;&#160;&#160;&#160;&#160;&#160;&#160;&#160;&#160;&#160;&#160;&#160;&#160;&#160;&#160;&#160;&#160;&#160;&#160;&#160;&#160;&#160;&#160;&#160;&#160;&#160;&#160;&#160;&#160;&#160;&#160;&#160;&#160;&#160;&#160;&#160;&#160;</text>
<polygon fill="none" stroke="#99ccff" points="1020.75,-448.5 1020.75,-468 1121.25,-468 1121.25,-448.5 1020.75,-448.5"/>
<text text-anchor="start" x="1044" y="-454.55" font-family="Courier,monospace" font-size="11.00">datetime</text>
<polygon fill="none" stroke="#99ccff" points="279,-429 279,-448.5 1020.75,-448.5 1020.75,-429 279,-429"/>
<text text-anchor="start" x="282" y="-435.05" font-family="Courier,monospace" font-size="11.00"> &#160;&#160;&#160;&#160;&#160;&#160;&#160;&#160;&#160;&#160;&#160;&#160;&#160;&#160;&#160;&#160;&#160;&#160;&#160;&#160;&#160;&#160;&#160;&#160;&#160;&#160;&#160;&#160;&#160;&#160;&#160;&#160;&#160;&#160;&#160;&#160;&#160;&#160;&#160;&#160;ExternalReference &#160;&#160;&#160;&#160;&#160;&#160;&#160;&#160;&#160;&#160;&#160;&#160;&#160;&#160;&#160;&#160;&#160;&#160;&#160;&#160;&#160;&#160;&#160;&#160;&#160;&#160;&#160;&#160;&#160;&#160;&#160;&#160;&#160;&#160;&#160;&#160;&#160;&#160;</text>
<polygon fill="none" stroke="#99ccff" points="1020.75,-429 1020.75,-448.5 1121.25,-448.5 1121.25,-429 1020.75,-429"/>
<text text-anchor="start" x="1033.88" y="-435.05" font-family="Courier,monospace" font-size="11.00">string(255)</text>
<polygon fill="none" stroke="#99ccff" points="279,-409.5 279,-429 1020.75,-429 1020.75,-409.5 279,-409.5"/>
<text text-anchor="start" x="282" y="-415.55" font-family="Courier,monospace" font-size="11.00"> &#160;&#160;&#160;&#160;&#160;&#160;&#160;&#160;&#160;&#160;&#160;&#160;&#160;&#160;&#160;&#160;&#160;&#160;&#160;&#160;&#160;&#160;&#160;&#160;&#160;&#160;&#160;&#160;&#160;&#160;&#160;&#160;&#160;&#160;&#160;&#160;&#160;&#160;&#160;&#160;ExternalReferenceDataSource &#160;&#160;&#160;&#160;&#160;&#160;&#160;&#160;&#160;&#160;&#160;&#160;&#160;&#160;&#160;&#160;&#160;&#160;&#160;&#160;&#160;&#160;&#160;&#160;&#160;&#160;&#160;&#160;&#160;&#160;&#160;&#160;&#160;&#160;&#160;&#160;&#160;&#160;</text>
<polygon fill="none" stroke="#99ccff" points="1020.75,-409.5 1020.75,-429 1121.25,-429 1121.25,-409.5 1020.75,-409.5"/>
<text text-anchor="start" x="1033.88" y="-415.55" font-family="Courier,monospace" font-size="11.00">string(255)</text>
<polygon fill="none" stroke="#99ccff" points="279,-390 279,-409.5 1020.75,-409.5 1020.75,-390 279,-390"/>
<text text-anchor="start" x="282" y="-396.05" font-family="Courier,monospace" font-size="11.00"> &#160;&#160;&#160;&#160;&#160;&#160;&#160;&#160;&#160;&#160;&#160;&#160;&#160;&#160;&#160;&#160;&#160;&#160;&#160;&#160;&#160;&#160;&#160;&#160;&#160;&#160;&#160;&#160;&#160;&#160;&#160;&#160;&#160;&#160;&#160;&#160;&#160;&#160;&#160;&#160;UnitPrice &#160;&#160;&#160;&#160;&#160;&#160;&#160;&#160;&#160;&#160;&#160;&#160;&#160;&#160;&#160;&#160;&#160;&#160;&#160;&#160;&#160;&#160;&#160;&#160;&#160;&#160;&#160;&#160;&#160;&#160;&#160;&#160;&#160;&#160;&#160;&#160;&#160;&#160;</text>
<polygon fill="none" stroke="#99ccff" points="1020.75,-390 1020.75,-409.5 1121.25,-409.5 1121.25,-390 1020.75,-390"/>
<text text-anchor="start" x="1044" y="-396.05" font-family="Courier,monospace" font-size="11.00">currency</text>
<polygon fill="none" stroke="#99ccff" points="279,-370.5 279,-390 1020.75,-390 1020.75,-370.5 279,-370.5"/>
<text text-anchor="start" x="282" y="-376.55" font-family="Courier,monospace" font-size="11.00"> &#160;&#160;&#160;&#160;&#160;&#160;&#160;&#160;&#160;&#160;&#160;&#160;&#160;&#160;&#160;&#160;&#160;&#160;&#160;&#160;&#160;&#160;&#160;&#160;&#160;&#160;&#160;&#160;&#160;&#160;&#160;&#160;&#160;&#160;&#160;&#160;&#160;&#160;&#160;&#160;ListPrice &#160;&#160;&#160;&#160;&#160;&#160;&#160;&#160;&#160;&#160;&#160;&#160;&#160;&#160;&#160;&#160;&#160;&#160;&#160;&#160;&#160;&#160;&#160;&#160;&#160;&#160;&#160;&#160;&#160;&#160;&#160;&#160;&#160;&#160;&#160;&#160;&#160;&#160;</text>
<polygon fill="none" stroke="#99ccff" points="1020.75,-370.5 1020.75,-390 1121.25,-390 1121.25,-370.5 1020.75,-370.5"/>
<text text-anchor="start" x="1044" y="-376.55" font-family="Courier,monospace" font-size="11.00">currency</text>
<polygon fill="none" stroke="#99ccff" points="279,-351 279,-370.5 1020.75,-370.5 1020.75,-351 279,-351"/>
<text text-anchor="start" x="282" y="-357.05" font-family="Courier,monospace" font-size="11.00"> &#160;&#160;&#160;&#160;&#160;&#160;&#160;&#160;&#160;&#160;&#160;&#160;&#160;&#160;&#160;&#160;&#160;&#160;&#160;&#160;&#160;&#160;&#160;&#160;&#160;&#160;&#160;&#160;&#160;&#160;&#160;&#160;&#160;&#160;&#160;&#160;&#160;&#160;&#160;&#160;NetUnitPrice &#160;&#160;&#160;&#160;&#160;&#160;&#160;&#160;&#160;&#160;&#160;&#160;&#160;&#160;&#160;&#160;&#160;&#160;&#160;&#160;&#160;&#160;&#160;&#160;&#160;&#160;&#160;&#160;&#160;&#160;&#160;&#160;&#160;&#160;&#160;&#160;&#160;&#160;</text>
<polygon fill="none" stroke="#99ccff" points="1020.75,-351 1020.75,-370.5 1121.25,-370.5 1121.25,-351 1020.75,-351"/>
<text text-anchor="start" x="1044" y="-357.05" font-family="Courier,monospace" font-size="11.00">currency</text>
<polygon fill="none" stroke="#99ccff" points="279,-331.5 279,-351 1020.75,-351 1020.75,-331.5 279,-331.5"/>
<text text-anchor="start" x="282" y="-337.55" font-family="Courier,monospace" font-size="11.00"> &#160;&#160;&#160;&#160;&#160;&#160;&#160;&#160;&#160;&#160;&#160;&#160;&#160;&#160;&#160;&#160;&#160;&#160;&#160;&#160;&#160;&#160;&#160;&#160;&#160;&#160;&#160;&#160;&#160;&#160;&#160;&#160;&#160;&#160;&#160;&#160;&#160;&#160;&#160;&#160;TotalLineAmount &#160;&#160;&#160;&#160;&#160;&#160;&#160;&#160;&#160;&#160;&#160;&#160;&#160;&#160;&#160;&#160;&#160;&#160;&#160;&#160;&#160;&#160;&#160;&#160;&#160;&#160;&#160;&#160;&#160;&#160;&#160;&#160;&#160;&#160;&#160;&#160;&#160;&#160;</text>
<polygon fill="none" stroke="#99ccff" points="1020.75,-331.5 1020.75,-351 1121.25,-351 1121.25,-331.5 1020.75,-331.5"/>
<text text-anchor="start" x="1044" y="-337.55" font-family="Courier,monospace" font-size="11.00">currency</text>
<polygon fill="none" stroke="#99ccff" points="279,-312 279,-331.5 1020.75,-331.5 1020.75,-312 279,-312"/>
<text text-anchor="start" x="282" y="-318.05" font-family="Courier,monospace" font-size="11.00"> &#160;&#160;&#160;&#160;&#160;&#160;&#160;&#160;&#160;&#160;&#160;&#160;&#160;&#160;&#160;&#160;&#160;&#160;&#160;&#160;&#160;&#160;&#160;&#160;&#160;&#160;&#160;&#160;&#160;&#160;&#160;&#160;&#160;&#160;&#160;&#160;&#160;&#160;&#160;&#160;ObligatedAmount &#160;&#160;&#160;&#160;&#160;&#160;&#160;&#160;&#160;&#160;&#160;&#160;&#160;&#160;&#160;&#160;&#160;&#160;&#160;&#160;&#160;&#160;&#160;&#160;&#160;&#160;&#160;&#160;&#160;&#160;&#160;&#160;&#160;&#160;&#160;&#160;&#160;&#160;</text>
<polygon fill="none" stroke="#99ccff" points="1020.75,-312 1020.75,-331.5 1121.25,-331.5 1121.25,-312 1020.75,-312"/>
<text text-anchor="start" x="1044" y="-318.05" font-family="Courier,monospace" font-size="11.00">currency</text>
<polygon fill="none" stroke="#99ccff" points="279,-292.5 279,-312 1020.75,-312 1020.75,-292.5 279,-292.5"/>
<text text-anchor="start" x="282" y="-298.55" font-family="Courier,monospace" font-size="11.00"> &#160;&#160;&#160;&#160;&#160;&#160;&#160;&#160;&#160;&#160;&#160;&#160;&#160;&#160;&#160;&#160;&#160;&#160;&#160;&#160;&#160;&#160;&#160;&#160;&#160;&#160;&#160;&#160;&#160;&#160;&#160;&#160;&#160;&#160;&#160;&#160;&#160;&#160;&#160;&#160;PricingTermCount &#160;&#160;&#160;&#160;&#160;&#160;&#160;&#160;&#160;&#160;&#160;&#160;&#160;&#160;&#160;&#160;&#160;&#160;&#160;&#160;&#160;&#160;&#160;&#160;&#160;&#160;&#160;&#160;&#160;&#160;&#160;&#160;&#160;&#160;&#160;&#160;&#160;&#160;</text>
<polygon fill="none" stroke="#99ccff" points="1020.75,-292.5 1020.75,-312 1121.25,-312 1121.25,-292.5 1020.75,-292.5"/>
<text text-anchor="start" x="1050.75" y="-298.55" font-family="Courier,monospace" font-size="11.00">double</text>
<polygon fill="none" stroke="#99ccff" points="279,-273 279,-292.5 1020.75,-292.5 1020.75,-273 279,-273"/>
<text text-anchor="start" x="282" y="-279.05" font-family="Courier,monospace" font-size="11.00"> &#160;&#160;&#160;&#160;&#160;&#160;&#160;&#160;&#160;&#160;&#160;&#160;&#160;&#160;&#160;&#160;&#160;&#160;&#160;&#160;&#160;&#160;&#160;&#160;&#160;&#160;&#160;&#160;&#160;&#160;&#160;&#160;&#160;&#160;&#160;&#160;&#160;&#160;&#160;&#160;PeriodBoundary &#160;&#160;&#160;&#160;&#160;&#160;&#160;&#160;&#160;&#160;&#160;&#160;&#160;&#160;&#160;&#160;&#160;&#160;&#160;&#160;&#160;&#160;&#160;&#160;&#160;&#160;&#160;&#160;&#160;&#160;&#160;&#160;&#160;&#160;&#160;&#160;&#160;&#160;</text>
<polygon fill="none" stroke="#99ccff" points="1020.75,-273 1020.75,-292.5 1121.25,-292.5 1121.25,-273 1020.75,-273"/>
<text text-anchor="start" x="1027.12" y="-279.05" font-family="Courier,monospace" font-size="11.00">picklist(255)</text>
<polygon fill="none" stroke="#99ccff" points="279,-253.5 279,-273 1020.75,-273 1020.75,-253.5 279,-253.5"/>
<text text-anchor="start" x="282" y="-259.55" font-family="Courier,monospace" font-size="11.00"> &#160;&#160;&#160;&#160;&#160;&#160;&#160;&#160;&#160;&#160;&#160;&#160;&#160;&#160;&#160;&#160;&#160;&#160;&#160;&#160;&#160;&#160;&#160;&#160;&#160;&#160;&#160;&#160;&#160;&#160;&#160;&#160;&#160;&#160;&#160;&#160;&#160;&#160;&#160;&#160;PeriodBoundaryDay &#160;&#160;&#160;&#160;&#160;&#160;&#160;&#160;&#160;&#160;&#160;&#160;&#160;&#160;&#160;&#160;&#160;&#160;&#160;&#160;&#160;&#160;&#160;&#160;&#160;&#160;&#160;&#160;&#160;&#160;&#160;&#160;&#160;&#160;&#160;&#160;&#160;&#160;</text>
<polygon fill="none" stroke="#99ccff" points="1020.75,-253.5 1020.75,-273 1121.25,-273 1121.25,-253.5 1020.75,-253.5"/>
<text text-anchor="start" x="1060.88" y="-259.55" font-family="Courier,monospace" font-size="11.00">int</text>
<polygon fill="none" stroke="#99ccff" points="279,-234 279,-253.5 1020.75,-253.5 1020.75,-234 279,-234"/>
<text text-anchor="start" x="282" y="-240.05" font-family="Courier,monospace" font-size="11.00"> &#160;&#160;&#160;&#160;&#160;&#160;&#160;&#160;&#160;&#160;&#160;&#160;&#160;&#160;&#160;&#160;&#160;&#160;&#160;&#160;&#160;&#160;&#160;&#160;&#160;&#160;&#160;&#160;&#160;&#160;&#160;&#160;&#160;&#160;&#160;&#160;&#160;&#160;&#160;&#160;PeriodBoundaryStartMonth &#160;&#160;&#160;&#160;&#160;&#160;&#160;&#160;&#160;&#160;&#160;&#160;&#160;&#160;&#160;&#160;&#160;&#160;&#160;&#160;&#160;&#160;&#160;&#160;&#160;&#160;&#160;&#160;&#160;&#160;&#160;&#160;&#160;&#160;&#160;&#160;&#160;&#160;</text>
<polygon fill="none" stroke="#99ccff" points="1020.75,-234 1020.75,-253.5 1121.25,-253.5 1121.25,-234 1020.75,-234"/>
<text text-anchor="start" x="1027.12" y="-240.05" font-family="Courier,monospace" font-size="11.00">picklist(255)</text>
<polygon fill="none" stroke="#99ccff" points="279,-214.5 279,-234 1020.75,-234 1020.75,-214.5 279,-214.5"/>
<text text-anchor="start" x="282" y="-220.55" font-family="Courier,monospace" font-size="11.00"> &#160;&#160;&#160;&#160;&#160;&#160;&#160;&#160;&#160;&#160;&#160;&#160;&#160;&#160;&#160;&#160;&#160;&#160;&#160;&#160;&#160;&#160;&#160;&#160;&#160;&#160;&#160;&#160;&#160;&#160;&#160;&#160;&#160;&#160;&#160;&#160;&#160;&#160;&#160;&#160;PricebookEntryId &#160;&#160;&#160;&#160;&#160;&#160;&#160;&#160;&#160;&#160;&#160;&#160;&#160;&#160;&#160;&#160;&#160;&#160;&#160;&#160;&#160;&#160;&#160;&#160;&#160;&#160;&#160;&#160;&#160;&#160;&#160;&#160;&#160;&#160;&#160;&#160;&#160;&#160;</text>
<polygon fill="none" stroke="#99ccff" points="1020.75,-214.5 1020.75,-234 1121.25,-234 1121.25,-214.5 1020.75,-214.5"/>
<text text-anchor="start" x="1027.12" y="-220.55" font-family="Courier,monospace" font-size="11.00">reference(18)</text>
<polygon fill="none" stroke="#99ccff" points="279,-195 279,-214.5 1020.75,-214.5 1020.75,-195 279,-195"/>
<text text-anchor="start" x="282" y="-201.05" font-family="Courier,monospace" font-size="11.00"> &#160;&#160;&#160;&#160;&#160;&#160;&#160;&#160;&#160;&#160;&#160;&#160;&#160;&#160;&#160;&#160;&#160;&#160;&#160;&#160;&#160;&#160;&#160;&#160;&#160;&#160;&#160;&#160;&#160;&#160;&#160;&#160;&#160;&#160;&#160;&#160;&#160;&#160;&#160;&#160;ProductSellingModelId &#160;&#160;&#160;&#160;&#160;&#160;&#160;&#160;&#160;&#160;&#160;&#160;&#160;&#160;&#160;&#160;&#160;&#160;&#160;&#160;&#160;&#160;&#160;&#160;&#160;&#160;&#160;&#160;&#160;&#160;&#160;&#160;&#160;&#160;&#160;&#160;&#160;&#160;</text>
<polygon fill="none" stroke="#99ccff" points="1020.75,-195 1020.75,-214.5 1121.25,-214.5 1121.25,-195 1020.75,-195"/>
<text text-anchor="start" x="1027.12" y="-201.05" font-family="Courier,monospace" font-size="11.00">reference(18)</text>
<polygon fill="none" stroke="#99ccff" points="279,-175.5 279,-195 1020.75,-195 1020.75,-175.5 279,-175.5"/>
<text text-anchor="start" x="282" y="-181.55" font-family="Courier,monospace" font-size="11.00"> &#160;&#160;&#160;&#160;&#160;&#160;&#160;&#160;&#160;&#160;&#160;&#160;&#160;&#160;&#160;&#160;&#160;&#160;&#160;&#160;&#160;&#160;&#160;&#160;&#160;&#160;&#160;&#160;&#160;&#160;&#160;&#160;&#160;&#160;&#160;&#160;&#160;&#160;&#160;&#160;ProrationPolicyId &#160;&#160;&#160;&#160;&#160;&#160;&#160;&#160;&#160;&#160;&#160;&#160;&#160;&#160;&#160;&#160;&#160;&#160;&#160;&#160;&#160;&#160;&#160;&#160;&#160;&#160;&#160;&#160;&#160;&#160;&#160;&#160;&#160;&#160;&#160;&#160;&#160;&#160;</text>
<polygon fill="none" stroke="#99ccff" points="1020.75,-175.5 1020.75,-195 1121.25,-195 1121.25,-175.5 1020.75,-175.5"/>
<text text-anchor="start" x="1027.12" y="-181.55" font-family="Courier,monospace" font-size="11.00">reference(18)</text>
<polygon fill="none" stroke="#99ccff" points="279,-156 279,-175.5 1020.75,-175.5 1020.75,-156 279,-156"/>
<text text-anchor="start" x="282" y="-162.05" font-family="Courier,monospace" font-size="11.00"> &#160;&#160;&#160;&#160;&#160;&#160;&#160;&#160;&#160;&#160;&#160;&#160;&#160;&#160;&#160;&#160;&#160;&#160;&#160;&#160;&#160;&#160;&#160;&#160;&#160;&#160;&#160;&#160;&#160;&#160;&#160;&#160;&#160;&#160;&#160;&#160;&#160;&#160;&#160;&#160;TotalPrice &#160;&#160;&#160;&#160;&#160;&#160;&#160;&#160;&#160;&#160;&#160;&#160;&#160;&#160;&#160;&#160;&#160;&#160;&#160;&#160;&#160;&#160;&#160;&#160;&#160;&#160;&#160;&#160;&#160;&#160;&#160;&#160;&#160;&#160;&#160;&#160;&#160;&#160;</text>
<polygon fill="none" stroke="#99ccff" points="1020.75,-156 1020.75,-175.5 1121.25,-175.5 1121.25,-156 1020.75,-156"/>
<text text-anchor="start" x="1044" y="-162.05" font-family="Courier,monospace" font-size="11.00">currency</text>
<polygon fill="none" stroke="#99ccff" points="279,-136.5 279,-156 1020.75,-156 1020.75,-136.5 279,-136.5"/>
<text text-anchor="start" x="282" y="-142.55" font-family="Courier,monospace" font-size="11.00"> &#160;&#160;&#160;&#160;&#160;&#160;&#160;&#160;&#160;&#160;&#160;&#160;&#160;&#160;&#160;&#160;&#160;&#160;&#160;&#160;&#160;&#160;&#160;&#160;&#160;&#160;&#160;&#160;&#160;&#160;&#160;&#160;&#160;&#160;&#160;&#160;&#160;&#160;&#160;&#160;BillingReference &#160;&#160;&#160;&#160;&#160;&#160;&#160;&#160;&#160;&#160;&#160;&#160;&#160;&#160;&#160;&#160;&#160;&#160;&#160;&#160;&#160;&#160;&#160;&#160;&#160;&#160;&#160;&#160;&#160;&#160;&#160;&#160;&#160;&#160;&#160;&#160;&#160;&#160;</text>
<polygon fill="none" stroke="#99ccff" points="1020.75,-136.5 1020.75,-156 1121.25,-156 1121.25,-136.5 1020.75,-136.5"/>
<text text-anchor="start" x="1037.25" y="-142.55" font-family="Courier,monospace" font-size="11.00">string(80)</text>
<polygon fill="none" stroke="#99ccff" points="279,-117 279,-136.5 1020.75,-136.5 1020.75,-117 279,-117"/>
<text text-anchor="start" x="282" y="-123.05" font-family="Courier,monospace" font-size="11.00"> &#160;&#160;&#160;&#160;&#160;&#160;&#160;&#160;&#160;&#160;&#160;&#160;&#160;&#160;&#160;&#160;&#160;&#160;&#160;&#160;&#160;&#160;&#160;&#160;&#160;&#160;&#160;&#160;&#160;&#160;&#160;&#160;&#160;&#160;&#160;&#160;&#160;&#160;&#160;&#160;DiscountAmount &#160;&#160;&#160;&#160;&#160;&#160;&#160;&#160;&#160;&#160;&#160;&#160;&#160;&#160;&#160;&#160;&#160;&#160;&#160;&#160;&#160;&#160;&#160;&#160;&#160;&#160;&#160;&#160;&#160;&#160;&#160;&#160;&#160;&#160;&#160;&#160;&#160;&#160;</text>
<polygon fill="none" stroke="#99ccff" points="1020.75,-117 1020.75,-136.5 1121.25,-136.5 1121.25,-117 1020.75,-117"/>
<text text-anchor="start" x="1044" y="-123.05" font-family="Courier,monospace" font-size="11.00">currency</text>
<polygon fill="none" stroke="#99ccff" points="279,-97.5 279,-117 1020.75,-117 1020.75,-97.5 279,-97.5"/>
<text text-anchor="start" x="282" y="-103.55" font-family="Courier,monospace" font-size="11.00"> &#160;&#160;&#160;&#160;&#160;&#160;&#160;&#160;&#160;&#160;&#160;&#160;&#160;&#160;&#160;&#160;&#160;&#160;&#160;&#160;&#160;&#160;&#160;&#160;&#160;&#160;&#160;&#160;&#160;&#160;&#160;&#160;&#160;&#160;&#160;&#160;&#160;&#160;&#160;&#160;Discount &#160;&#160;&#160;&#160;&#160;&#160;&#160;&#160;&#160;&#160;&#160;&#160;&#160;&#160;&#160;&#160;&#160;&#160;&#160;&#160;&#160;&#160;&#160;&#160;&#160;&#160;&#160;&#160;&#160;&#160;&#160;&#160;&#160;&#160;&#160;&#160;&#160;&#160;</text>
<polygon fill="none" stroke="#99ccff" points="1020.75,-97.5 1020.75,-117 1121.25,-117 1121.25,-97.5 1020.75,-97.5"/>
<text text-anchor="start" x="1047.38" y="-103.55" font-family="Courier,monospace" font-size="11.00">percent</text>
<polygon fill="none" stroke="#99ccff" points="279,-78 279,-97.5 1020.75,-97.5 1020.75,-78 279,-78"/>
<text text-anchor="start" x="282" y="-84.05" font-family="Courier,monospace" font-size="11.00"> &#160;&#160;&#160;&#160;&#160;&#160;&#160;&#160;&#160;&#160;&#160;&#160;&#160;&#160;&#160;&#160;&#160;&#160;&#160;&#160;&#160;&#160;&#160;&#160;&#160;&#160;&#160;&#160;&#160;&#160;&#160;&#160;&#160;&#160;&#160;&#160;&#160;&#160;&#160;&#160;LegalEntityId &#160;&#160;&#160;&#160;&#160;&#160;&#160;&#160;&#160;&#160;&#160;&#160;&#160;&#160;&#160;&#160;&#160;&#160;&#160;&#160;&#160;&#160;&#160;&#160;&#160;&#160;&#160;&#160;&#160;&#160;&#160;&#160;&#160;&#160;&#160;&#160;&#160;&#160;</text>
<polygon fill="none" stroke="#99ccff" points="1020.75,-78 1020.75,-97.5 1121.25,-97.5 1121.25,-78 1020.75,-78"/>
<text text-anchor="start" x="1027.12" y="-84.05" font-family="Courier,monospace" font-size="11.00">reference(18)</text>
<polygon fill="none" stroke="#99ccff" points="279,-58.5 279,-78 1020.75,-78 1020.75,-58.5 279,-58.5"/>
<text text-anchor="start" x="282" y="-64.55" font-family="Courier,monospace" font-size="11.00"> &#160;&#160;&#160;&#160;&#160;&#160;&#160;&#160;&#160;&#160;&#160;&#160;&#160;&#160;&#160;&#160;&#160;&#160;&#160;&#160;&#160;&#160;&#160;&#160;&#160;&#160;&#160;&#160;&#160;&#160;&#160;&#160;&#160;&#160;&#160;&#160;&#160;&#160;&#160;&#160;ServiceAccountId &#160;&#160;&#160;&#160;&#160;&#160;&#160;&#160;&#160;&#160;&#160;&#160;&#160;&#160;&#160;&#160;&#160;&#160;&#160;&#160;&#160;&#160;&#160;&#160;&#160;&#160;&#160;&#160;&#160;&#160;&#160;&#160;&#160;&#160;&#160;&#160;&#160;&#160;</text>
<polygon fill="none" stroke="#99ccff" points="1020.75,-58.5 1020.75,-78 1121.25,-78 1121.25,-58.5 1020.75,-58.5"/>
<text text-anchor="start" x="1027.12" y="-64.55" font-family="Courier,monospace" font-size="11.00">reference(18)</text>
<polygon fill="none" stroke="#99ccff" points="279,-39 279,-58.5 1020.75,-58.5 1020.75,-39 279,-39"/>
<text text-anchor="start" x="282" y="-45.05" font-family="Courier,monospace" font-size="11.00"> &#160;&#160;&#160;&#160;&#160;&#160;&#160;&#160;&#160;&#160;&#160;&#160;&#160;&#160;&#160;&#160;&#160;&#160;&#160;&#160;&#160;&#160;&#160;&#160;&#160;&#160;&#160;&#160;&#160;&#160;&#160;&#160;&#160;&#160;&#160;&#160;&#160;&#160;&#160;&#160;OriginalLineNumber &#160;&#160;&#160;&#160;&#160;&#160;&#160;&#160;&#160;&#160;&#160;&#160;&#160;&#160;&#160;&#160;&#160;&#160;&#160;&#160;&#160;&#160;&#160;&#160;&#160;&#160;&#160;&#160;&#160;&#160;&#160;&#160;&#160;&#160;&#160;&#160;&#160;&#160;</text>
<polygon fill="none" stroke="#99ccff" points="1020.75,-39 1020.75,-58.5 1121.25,-58.5 1121.25,-39 1020.75,-39"/>
<text text-anchor="start" x="1060.88" y="-45.05" font-family="Courier,monospace" font-size="11.00">int</text>
<polygon fill="none" stroke="#99ccff" points="279,-19.5 279,-39 1020.75,-39 1020.75,-19.5 279,-19.5"/>
<text text-anchor="start" x="282" y="-25.55" font-family="Courier,monospace" font-size="11.00"> &#160;&#160;&#160;&#160;&#160;&#160;&#160;&#160;&#160;&#160;&#160;&#160;&#160;&#160;&#160;&#160;&#160;&#160;&#160;&#160;&#160;&#160;&#160;&#160;&#160;&#160;&#160;&#160;&#160;&#160;&#160;&#160;&#160;&#160;&#160;&#160;&#160;&#160;&#160;&#160;ConstraintEngineNodeStatus__c &#160;&#160;&#160;&#160;&#160;&#160;&#160;&#160;&#160;&#160;&#160;&#160;&#160;&#160;&#160;&#160;&#160;&#160;&#160;&#160;&#160;&#160;&#160;&#160;&#160;&#160;&#160;&#160;&#160;&#160;&#160;&#160;&#160;&#160;&#160;&#160;&#160;&#160;</text>
<polygon fill="none" stroke="#99ccff" points="1020.75,-19.5 1020.75,-39 1121.25,-39 1121.25,-19.5 1020.75,-19.5"/>
<text text-anchor="start" x="1023.75" y="-25.55" font-family="Courier,monospace" font-size="11.00">textarea(5000)</text>
<polygon fill="none" stroke="#99ccff" points="278,-18.5 278,-761.5 1122.25,-761.5 1122.25,-18.5 278,-18.5"/>
</a>
</g>
</g>
<!-- User -->
<g id="node2" class="node">
<title>User</title>
<text text-anchor="middle" x="72.12" y="-727.3" font-family="Courier,monospace" font-size="11.00">User</text>
</g>
<!-- AssetActionSource&#45;&gt;User -->
<g id="edge1" class="edge">
<title>AssetActionSource:w&#45;&gt;User:e</title>
<path fill="none" stroke="#ff99cc" d="M262.98,-677.35C262.37,-677.57 261.71,-677.79 261,-678 203.31,-695.04 135.3,-713.93 99.01,-723.91"/>
<polygon fill="#ff99cc" stroke="#ff99cc" points="270.03,-675.19 278.74,-676.29 274.18,-673.92 277.36,-672.95 277.36,-672.95 277.36,-672.95 274.18,-673.92 276.63,-669.41 270.03,-675.19"/>
<ellipse fill="none" stroke="#ff99cc" cx="265.33" cy="-676.63" rx="3.2" ry="3.2"/>
<text text-anchor="middle" x="211.12" y="-708.61" font-family="Monaco" font-size="9.00">LastModifiedBy</text>
</g>
<!-- AssetAction -->
<g id="node3" class="node">
<title>AssetAction</title>
<text text-anchor="middle" x="72.12" y="-678.3" font-family="Courier,monospace" font-size="11.00">AssetAction</text>
</g>
<!-- AssetActionSource&#45;&gt;AssetAction -->
<g id="edge2" class="edge">
<title>AssetActionSource:w&#45;&gt;AssetAction:e</title>
<path fill="none" stroke="#ff99cc" d="M262.45,-653.51C210.66,-655.18 154.76,-664.62 117.24,-672.19"/>
<polygon fill="#ff99cc" stroke="#ff99cc" points="269.67,-653.39 277.73,-656.86 274,-653.32 277.33,-653.26 277.33,-653.26 277.33,-653.26 274,-653.32 277.61,-649.66 269.67,-653.39"/>
<ellipse fill="none" stroke="#ff99cc" cx="264.75" cy="-653.47" rx="3.2" ry="3.2"/>
<text text-anchor="middle" x="211.12" y="-666.07" font-family="Monaco" font-size="9.00">AssetAction</text>
</g>
<!-- OrderItem -->
<g id="node4" class="node">
<title>OrderItem</title>
<text text-anchor="middle" x="72.12" y="-629.3" font-family="Courier,monospace" font-size="11.00">OrderItem</text>
</g>
<!-- AssetActionSource&#45;&gt;OrderItem -->
<g id="edge3" class="edge">
<title>AssetActionSource:w&#45;&gt;OrderItem:e</title>
<path fill="none" stroke="#ff99cc" d="M262.33,-633.74C207.54,-633.7 147.56,-633.42 110.14,-633.22"/>
<polygon fill="#ff99cc" stroke="#ff99cc" points="269.67,-633.75 277.66,-637.35 274,-633.75 277.33,-633.75 277.33,-633.75 277.33,-633.75 274,-633.75 277.67,-630.15 269.67,-633.75"/>
<ellipse fill="none" stroke="#ff99cc" cx="264.75" cy="-633.74" rx="3.2" ry="3.2"/>
<text text-anchor="middle" x="211.12" y="-636.44" font-family="Monaco" font-size="9.00">ReferenceEntityItem</text>
</g>
<!-- OrderItemDetail -->
<g id="node5" class="node">
<title>OrderItemDetail</title>
<text text-anchor="middle" x="72.12" y="-580.3" font-family="Courier,monospace" font-size="11.00">OrderItemDetail</text>
</g>
<!-- AssetActionSource&#45;&gt;OrderItemDetail -->
<g id="edge4" class="edge">
<title>AssetActionSource:w&#45;&gt;OrderItemDetail:e</title>
<path fill="none" stroke="#ff99cc" d="M268.43,-621.27C267.61,-615.6 266.65,-609.37 261,-605.75 222.44,-581.02 170.12,-576.79 130.48,-578.05"/>
<polygon fill="#ff99cc" stroke="#ff99cc" points="272.93,-627.14 274.94,-635.68 275.57,-630.58 277.59,-633.22 277.59,-633.22 277.59,-633.22 275.57,-630.58 280.65,-631.29 272.93,-627.14"/>
<ellipse fill="none" stroke="#ff99cc" cx="269.93" cy="-623.23" rx="3.2" ry="3.2"/>
<text text-anchor="middle" x="211.12" y="-608.45" font-family="Monaco" font-size="9.00">ReferenceEntityItem</text>
</g>
<!-- WorkOrderLineItem -->
<g id="node6" class="node">
<title>WorkOrderLineItem</title>
<text text-anchor="middle" x="72.12" y="-531.3" font-family="Courier,monospace" font-size="11.00">WorkOrderLineItem</text>
</g>
<!-- AssetActionSource&#45;&gt;WorkOrderLineItem -->
<g id="edge5" class="edge">
<title>AssetActionSource:w&#45;&gt;WorkOrderLineItem:e</title>
<path fill="none" stroke="#ff99cc" d="M264.47,-626.01C259.76,-610.31 280.92,-574.73 261,-556.75 228.1,-527.05 177.65,-522.62 137.31,-525.08"/>
<polygon fill="#ff99cc" stroke="#ff99cc" points="270.77,-629.61 275.92,-636.71 274.53,-631.76 277.42,-633.42 277.42,-633.42 277.42,-633.42 274.53,-631.76 279.5,-630.46 270.77,-629.61"/>
<ellipse fill="none" stroke="#ff99cc" cx="266.5" cy="-627.17" rx="3.2" ry="3.2"/>
<text text-anchor="middle" x="211.12" y="-559.45" font-family="Monaco" font-size="9.00">ReferenceEntityItem</text>
</g>
<!-- PricebookEntry -->
<g id="node7" class="node">
<title>PricebookEntry</title>
<text text-anchor="middle" x="72.12" y="-250.3" font-family="Courier,monospace" font-size="11.00">PricebookEntry</text>
</g>
<!-- AssetActionSource&#45;&gt;PricebookEntry -->
<g id="edge6" class="edge">
<title>AssetActionSource:w&#45;&gt;PricebookEntry:e</title>
<path fill="none" stroke="#ff99cc" d="M262.42,-224.52C215.01,-226.1 164.2,-234.42 127.17,-241.81"/>
<polygon fill="#ff99cc" stroke="#ff99cc" points="269.67,-224.39 277.73,-227.86 274,-224.32 277.33,-224.26 277.33,-224.26 277.33,-224.26 274,-224.32 277.6,-220.66 269.67,-224.39"/>
<ellipse fill="none" stroke="#ff99cc" cx="264.75" cy="-224.48" rx="3.2" ry="3.2"/>
<text text-anchor="middle" x="211.12" y="-237.42" font-family="Monaco" font-size="9.00">PricebookEntry</text>
</g>
<!-- ProductSellingModel -->
<g id="node8" class="node">
<title>ProductSellingModel</title>
<text text-anchor="middle" x="72.12" y="-201.3" font-family="Courier,monospace" font-size="11.00">ProductSellingModel</text>
</g>
<!-- AssetActionSource&#45;&gt;ProductSellingModel -->
<g id="edge7" class="edge">
<title>AssetActionSource:w&#45;&gt;ProductSellingModel:e</title>
<path fill="none" stroke="#ff99cc" d="M262.17,-204.75C221.99,-204.76 179.03,-204.82 144.24,-204.87"/>
<polygon fill="#ff99cc" stroke="#ff99cc" points="269.67,-204.75 277.67,-208.35 274,-204.75 277.33,-204.75 277.33,-204.75 277.33,-204.75 274,-204.75 277.66,-201.15 269.67,-204.75"/>
<ellipse fill="none" stroke="#ff99cc" cx="264.75" cy="-204.75" rx="3.2" ry="3.2"/>
<text text-anchor="middle" x="211.12" y="-207.55" font-family="Monaco" font-size="9.00">ProductSellingModel</text>
</g>
<!-- ProrationPolicy -->
<g id="node9" class="node">
<title>ProrationPolicy</title>
<text text-anchor="middle" x="72.12" y="-152.3" font-family="Courier,monospace" font-size="11.00">ProrationPolicy</text>
</g>
<!-- AssetActionSource&#45;&gt;ProrationPolicy -->
<g id="edge8" class="edge">
<title>AssetActionSource:w&#45;&gt;ProrationPolicy:e</title>
<path fill="none" stroke="#ff99cc" d="M262.26,-184.98C216.38,-183.46 167.31,-175.75 130.65,-168.66"/>
<polygon fill="#ff99cc" stroke="#ff99cc" points="269.67,-185.11 277.6,-188.84 274,-185.18 277.33,-185.24 277.33,-185.24 277.33,-185.24 274,-185.18 277.73,-181.64 269.67,-185.11"/>
<ellipse fill="none" stroke="#ff99cc" cx="264.75" cy="-185.02" rx="3.2" ry="3.2"/>
<text text-anchor="middle" x="211.12" y="-187.42" font-family="Monaco" font-size="9.00">ProrationPolicy</text>
</g>
<!-- LegalEntity -->
<g id="node10" class="node">
<title>LegalEntity</title>
<text text-anchor="middle" x="72.12" y="-94.3" font-family="Courier,monospace" font-size="11.00">LegalEntity</text>
</g>
<!-- AssetActionSource&#45;&gt;LegalEntity -->
<g id="edge9" class="edge">
<title>AssetActionSource:w&#45;&gt;LegalEntity:e</title>
<path fill="none" stroke="#ff99cc" d="M262.18,-87.85C210.66,-88.46 154.63,-91.83 117.05,-94.53"/>
<polygon fill="#ff99cc" stroke="#ff99cc" points="269.67,-87.8 277.69,-91.35 274,-87.77 277.33,-87.75 277.33,-87.75 277.33,-87.75 274,-87.77 277.64,-84.15 269.67,-87.8"/>
<ellipse fill="none" stroke="#ff99cc" cx="264.75" cy="-87.83" rx="3.2" ry="3.2"/>
<text text-anchor="middle" x="211.12" y="-94.36" font-family="Monaco" font-size="9.00">LegalEntity</text>
</g>
<!-- Account -->
<g id="node11" class="node">
<title>Account</title>
<text text-anchor="middle" x="72.12" y="-45.3" font-family="Courier,monospace" font-size="11.00">Account</text>
</g>
<!-- AssetActionSource&#45;&gt;Account -->
<g id="edge10" class="edge">
<title>AssetActionSource:w&#45;&gt;Account:e</title>
<path fill="none" stroke="#ff99cc" d="M262.52,-68.08C204.19,-66.81 140.25,-58.89 103.59,-53.66"/>
<polygon fill="#ff99cc" stroke="#ff99cc" points="269.67,-68.16 277.63,-71.85 274,-68.21 277.33,-68.24 277.33,-68.24 277.33,-68.24 274,-68.21 277.71,-64.65 269.67,-68.16"/>
<ellipse fill="none" stroke="#ff99cc" cx="264.75" cy="-68.1" rx="3.2" ry="3.2"/>
<text text-anchor="middle" x="211.12" y="-70.6" font-family="Monaco" font-size="9.00">ServiceAccount</text>
</g>
</g>
</svg>
