<?xml version="1.0" encoding="UTF-8" standalone="no"?>
<!DOCTYPE svg PUBLIC "-//W3C//DTD SVG 1.1//EN"
 "http://www.w3.org/Graphics/SVG/1.1/DTD/svg11.dtd">
<!-- Generated by graphviz version 12.2.1 (20241206.2353)
 -->
<!-- Title: Salesforce+ ERD Pages: 1 -->
<svg width="1107pt" height="360pt"
 viewBox="0.00 0.00 1107.00 360.00" xmlns="http://www.w3.org/2000/svg" xmlns:xlink="http://www.w3.org/1999/xlink">
<g id="graph0" class="graph" transform="scale(1 1) rotate(0) translate(4 356)">
<title>Salesforce+ ERD</title>
<polygon fill="#efeffd" stroke="none" points="-4,4 -4,-356 1103,-356 1103,4 -4,4"/>
<text text-anchor="middle" x="1051.62" y="-5.95" font-family="Courier,monospace" font-size="9.00">Salesforce ERD </text>
<!-- AttributeAdjustmentCondition -->
<g id="node1" class="node">
<title>AttributeAdjustmentCondition</title>
<g id="a_node1"><a xlink:href="#" xlink:title=" AttributeAdjustmentCondition ">
<polygon fill="#ffeeff" stroke="none" points="302,-18.5 302,-352 1099,-352 1099,-18.5 302,-18.5"/>
<polygon fill="lightblue" stroke="none" points="303,-331.5 303,-351 1098,-351 1098,-331.5 303,-331.5"/>
<polygon fill="none" stroke="#99ccff" points="303,-331.5 303,-351 1098,-351 1098,-331.5 303,-331.5"/>
<text text-anchor="start" x="606" y="-338.55" font-family="Courier,monospace" font-weight="bold" font-size="11.00">AttributeAdjustmentCondition</text>
<polygon fill="#99ccff" stroke="none" points="303,-312 303,-331.5 1004.25,-331.5 1004.25,-312 303,-312"/>
<polygon fill="none" stroke="#99ccff" points="303,-312 303,-331.5 1004.25,-331.5 1004.25,-312 303,-312"/>
<text text-anchor="start" x="306" y="-319.05" font-family="Courier,monospace" font-size="11.00"> &#160;&#160;&#160;&#160;&#160;&#160;&#160;&#160;&#160;&#160;&#160;&#160;&#160;&#160;&#160;&#160;&#160;&#160;&#160;&#160;&#160;&#160;&#160;&#160;&#160;&#160;&#160;&#160;&#160;&#160;&#160;&#160;&#160;&#160;&#160;&#160;&#160;&#160;&#160;&#160;&#160;&#160;</text>
<text text-anchor="start" x="596.25" y="-319.05" font-family="Courier,monospace" font-weight="bold" font-size="11.00">Id</text>
<text text-anchor="start" x="609.75" y="-319.05" font-family="Courier,monospace" font-size="11.00"> &#160;&#160;&#160;&#160;&#160;&#160;&#160;&#160;&#160;&#160;&#160;&#160;&#160;&#160;&#160;&#160;&#160;&#160;&#160;&#160;&#160;&#160;&#160;&#160;&#160;&#160;&#160;&#160;&#160;&#160;&#160;&#160;&#160;&#160;&#160;&#160;&#160;&#160;&#160;</text>
<polygon fill="none" stroke="#99ccff" points="1004.25,-312 1004.25,-331.5 1098,-331.5 1098,-312 1004.25,-312"/>
<text text-anchor="start" x="1030.88" y="-318.05" font-family="Courier,monospace" font-size="11.00">id(18)</text>
<polygon fill="none" stroke="#99ccff" points="303,-292.5 303,-312 1004.25,-312 1004.25,-292.5 303,-292.5"/>
<text text-anchor="start" x="306" y="-298.55" font-family="Courier,monospace" font-size="11.00"> &#160;&#160;&#160;&#160;&#160;&#160;&#160;&#160;&#160;&#160;&#160;&#160;&#160;&#160;&#160;&#160;&#160;&#160;&#160;&#160;&#160;&#160;&#160;&#160;&#160;&#160;&#160;&#160;&#160;&#160;&#160;&#160;&#160;&#160;&#160;&#160;&#160;&#160;&#160;&#160;IsDeleted &#160;&#160;&#160;&#160;&#160;&#160;&#160;&#160;&#160;&#160;&#160;&#160;&#160;&#160;&#160;&#160;&#160;&#160;&#160;&#160;&#160;&#160;&#160;&#160;&#160;&#160;&#160;&#160;&#160;&#160;&#160;&#160;&#160;&#160;&#160;&#160;&#160;&#160;</text>
<polygon fill="none" stroke="#99ccff" points="1004.25,-292.5 1004.25,-312 1098,-312 1098,-292.5 1004.25,-292.5"/>
<text text-anchor="start" x="1027.5" y="-298.55" font-family="Courier,monospace" font-size="11.00">boolean</text>
<polygon fill="none" stroke="#99ccff" points="303,-273 303,-292.5 1004.25,-292.5 1004.25,-273 303,-273"/>
<text text-anchor="start" x="306" y="-279.05" font-family="Courier,monospace" font-size="11.00"> &#160;&#160;&#160;&#160;&#160;&#160;&#160;&#160;&#160;&#160;&#160;&#160;&#160;&#160;&#160;&#160;&#160;&#160;&#160;&#160;&#160;&#160;&#160;&#160;&#160;&#160;&#160;&#160;&#160;&#160;&#160;&#160;&#160;&#160;&#160;&#160;&#160;&#160;&#160;&#160;Name &#160;&#160;&#160;&#160;&#160;&#160;&#160;&#160;&#160;&#160;&#160;&#160;&#160;&#160;&#160;&#160;&#160;&#160;&#160;&#160;&#160;&#160;&#160;&#160;&#160;&#160;&#160;&#160;&#160;&#160;&#160;&#160;&#160;&#160;&#160;&#160;&#160;&#160;</text>
<polygon fill="none" stroke="#99ccff" points="1004.25,-273 1004.25,-292.5 1098,-292.5 1098,-273 1004.25,-273"/>
<text text-anchor="start" x="1014" y="-279.05" font-family="Courier,monospace" font-size="11.00">string(255)</text>
<polygon fill="none" stroke="#99ccff" points="303,-253.5 303,-273 1004.25,-273 1004.25,-253.5 303,-253.5"/>
<text text-anchor="start" x="306" y="-259.55" font-family="Courier,monospace" font-size="11.00"> &#160;&#160;&#160;&#160;&#160;&#160;&#160;&#160;&#160;&#160;&#160;&#160;&#160;&#160;&#160;&#160;&#160;&#160;&#160;&#160;&#160;&#160;&#160;&#160;&#160;&#160;&#160;&#160;&#160;&#160;&#160;&#160;&#160;&#160;&#160;&#160;&#160;&#160;&#160;&#160;LastModifiedById &#160;&#160;&#160;&#160;&#160;&#160;&#160;&#160;&#160;&#160;&#160;&#160;&#160;&#160;&#160;&#160;&#160;&#160;&#160;&#160;&#160;&#160;&#160;&#160;&#160;&#160;&#160;&#160;&#160;&#160;&#160;&#160;&#160;&#160;&#160;&#160;&#160;&#160;</text>
<polygon fill="none" stroke="#99ccff" points="1004.25,-253.5 1004.25,-273 1098,-273 1098,-253.5 1004.25,-253.5"/>
<text text-anchor="start" x="1007.25" y="-259.55" font-family="Courier,monospace" font-size="11.00">reference(18)</text>
<polygon fill="none" stroke="#99ccff" points="303,-234 303,-253.5 1004.25,-253.5 1004.25,-234 303,-234"/>
<text text-anchor="start" x="306" y="-240.05" font-family="Courier,monospace" font-size="11.00"> &#160;&#160;&#160;&#160;&#160;&#160;&#160;&#160;&#160;&#160;&#160;&#160;&#160;&#160;&#160;&#160;&#160;&#160;&#160;&#160;&#160;&#160;&#160;&#160;&#160;&#160;&#160;&#160;&#160;&#160;&#160;&#160;&#160;&#160;&#160;&#160;&#160;&#160;&#160;&#160;LastViewedDate &#160;&#160;&#160;&#160;&#160;&#160;&#160;&#160;&#160;&#160;&#160;&#160;&#160;&#160;&#160;&#160;&#160;&#160;&#160;&#160;&#160;&#160;&#160;&#160;&#160;&#160;&#160;&#160;&#160;&#160;&#160;&#160;&#160;&#160;&#160;&#160;&#160;&#160;</text>
<polygon fill="none" stroke="#99ccff" points="1004.25,-234 1004.25,-253.5 1098,-253.5 1098,-234 1004.25,-234"/>
<text text-anchor="start" x="1024.12" y="-240.05" font-family="Courier,monospace" font-size="11.00">datetime</text>
<polygon fill="none" stroke="#99ccff" points="303,-214.5 303,-234 1004.25,-234 1004.25,-214.5 303,-214.5"/>
<text text-anchor="start" x="306" y="-220.55" font-family="Courier,monospace" font-size="11.00"> &#160;&#160;&#160;&#160;&#160;&#160;&#160;&#160;&#160;&#160;&#160;&#160;&#160;&#160;&#160;&#160;&#160;&#160;&#160;&#160;&#160;&#160;&#160;&#160;&#160;&#160;&#160;&#160;&#160;&#160;&#160;&#160;&#160;&#160;&#160;&#160;&#160;&#160;&#160;&#160;LastReferencedDate &#160;&#160;&#160;&#160;&#160;&#160;&#160;&#160;&#160;&#160;&#160;&#160;&#160;&#160;&#160;&#160;&#160;&#160;&#160;&#160;&#160;&#160;&#160;&#160;&#160;&#160;&#160;&#160;&#160;&#160;&#160;&#160;&#160;&#160;&#160;&#160;&#160;&#160;</text>
<polygon fill="none" stroke="#99ccff" points="1004.25,-214.5 1004.25,-234 1098,-234 1098,-214.5 1004.25,-214.5"/>
<text text-anchor="start" x="1024.12" y="-220.55" font-family="Courier,monospace" font-size="11.00">datetime</text>
<polygon fill="none" stroke="#99ccff" points="303,-195 303,-214.5 1004.25,-214.5 1004.25,-195 303,-195"/>
<text text-anchor="start" x="306" y="-201.05" font-family="Courier,monospace" font-size="11.00"> &#160;&#160;&#160;&#160;&#160;&#160;&#160;&#160;&#160;&#160;&#160;&#160;&#160;&#160;&#160;&#160;&#160;&#160;&#160;&#160;&#160;&#160;&#160;&#160;&#160;&#160;&#160;&#160;&#160;&#160;&#160;&#160;&#160;&#160;&#160;&#160;&#160;&#160;&#160;&#160;AttributeBasedAdjRuleId &#160;&#160;&#160;&#160;&#160;&#160;&#160;&#160;&#160;&#160;&#160;&#160;&#160;&#160;&#160;&#160;&#160;&#160;&#160;&#160;&#160;&#160;&#160;&#160;&#160;&#160;&#160;&#160;&#160;&#160;&#160;&#160;&#160;&#160;&#160;&#160;&#160;&#160;</text>
<polygon fill="none" stroke="#99ccff" points="1004.25,-195 1004.25,-214.5 1098,-214.5 1098,-195 1004.25,-195"/>
<text text-anchor="start" x="1007.25" y="-201.05" font-family="Courier,monospace" font-size="11.00">reference(18)</text>
<polygon fill="none" stroke="#99ccff" points="303,-175.5 303,-195 1004.25,-195 1004.25,-175.5 303,-175.5"/>
<text text-anchor="start" x="306" y="-181.55" font-family="Courier,monospace" font-size="11.00"> &#160;&#160;&#160;&#160;&#160;&#160;&#160;&#160;&#160;&#160;&#160;&#160;&#160;&#160;&#160;&#160;&#160;&#160;&#160;&#160;&#160;&#160;&#160;&#160;&#160;&#160;&#160;&#160;&#160;&#160;&#160;&#160;&#160;&#160;&#160;&#160;&#160;&#160;&#160;&#160;AttributeDefinitionId &#160;&#160;&#160;&#160;&#160;&#160;&#160;&#160;&#160;&#160;&#160;&#160;&#160;&#160;&#160;&#160;&#160;&#160;&#160;&#160;&#160;&#160;&#160;&#160;&#160;&#160;&#160;&#160;&#160;&#160;&#160;&#160;&#160;&#160;&#160;&#160;&#160;&#160;</text>
<polygon fill="none" stroke="#99ccff" points="1004.25,-175.5 1004.25,-195 1098,-195 1098,-175.5 1004.25,-175.5"/>
<text text-anchor="start" x="1007.25" y="-181.55" font-family="Courier,monospace" font-size="11.00">reference(18)</text>
<polygon fill="none" stroke="#99ccff" points="303,-156 303,-175.5 1004.25,-175.5 1004.25,-156 303,-156"/>
<text text-anchor="start" x="306" y="-162.05" font-family="Courier,monospace" font-size="11.00"> &#160;&#160;&#160;&#160;&#160;&#160;&#160;&#160;&#160;&#160;&#160;&#160;&#160;&#160;&#160;&#160;&#160;&#160;&#160;&#160;&#160;&#160;&#160;&#160;&#160;&#160;&#160;&#160;&#160;&#160;&#160;&#160;&#160;&#160;&#160;&#160;&#160;&#160;&#160;&#160;ProductId &#160;&#160;&#160;&#160;&#160;&#160;&#160;&#160;&#160;&#160;&#160;&#160;&#160;&#160;&#160;&#160;&#160;&#160;&#160;&#160;&#160;&#160;&#160;&#160;&#160;&#160;&#160;&#160;&#160;&#160;&#160;&#160;&#160;&#160;&#160;&#160;&#160;&#160;</text>
<polygon fill="none" stroke="#99ccff" points="1004.25,-156 1004.25,-175.5 1098,-175.5 1098,-156 1004.25,-156"/>
<text text-anchor="start" x="1007.25" y="-162.05" font-family="Courier,monospace" font-size="11.00">reference(18)</text>
<polygon fill="none" stroke="#99ccff" points="303,-136.5 303,-156 1004.25,-156 1004.25,-136.5 303,-136.5"/>
<text text-anchor="start" x="306" y="-142.55" font-family="Courier,monospace" font-size="11.00"> &#160;&#160;&#160;&#160;&#160;&#160;&#160;&#160;&#160;&#160;&#160;&#160;&#160;&#160;&#160;&#160;&#160;&#160;&#160;&#160;&#160;&#160;&#160;&#160;&#160;&#160;&#160;&#160;&#160;&#160;&#160;&#160;&#160;&#160;&#160;&#160;&#160;&#160;&#160;&#160;Operator &#160;&#160;&#160;&#160;&#160;&#160;&#160;&#160;&#160;&#160;&#160;&#160;&#160;&#160;&#160;&#160;&#160;&#160;&#160;&#160;&#160;&#160;&#160;&#160;&#160;&#160;&#160;&#160;&#160;&#160;&#160;&#160;&#160;&#160;&#160;&#160;&#160;&#160;</text>
<polygon fill="none" stroke="#99ccff" points="1004.25,-136.5 1004.25,-156 1098,-156 1098,-136.5 1004.25,-136.5"/>
<text text-anchor="start" x="1007.25" y="-142.55" font-family="Courier,monospace" font-size="11.00">picklist(255)</text>
<polygon fill="none" stroke="#99ccff" points="303,-117 303,-136.5 1004.25,-136.5 1004.25,-117 303,-117"/>
<text text-anchor="start" x="306" y="-123.05" font-family="Courier,monospace" font-size="11.00"> &#160;&#160;&#160;&#160;&#160;&#160;&#160;&#160;&#160;&#160;&#160;&#160;&#160;&#160;&#160;&#160;&#160;&#160;&#160;&#160;&#160;&#160;&#160;&#160;&#160;&#160;&#160;&#160;&#160;&#160;&#160;&#160;&#160;&#160;&#160;&#160;&#160;&#160;&#160;&#160;DateTimeValue &#160;&#160;&#160;&#160;&#160;&#160;&#160;&#160;&#160;&#160;&#160;&#160;&#160;&#160;&#160;&#160;&#160;&#160;&#160;&#160;&#160;&#160;&#160;&#160;&#160;&#160;&#160;&#160;&#160;&#160;&#160;&#160;&#160;&#160;&#160;&#160;&#160;&#160;</text>
<polygon fill="none" stroke="#99ccff" points="1004.25,-117 1004.25,-136.5 1098,-136.5 1098,-117 1004.25,-117"/>
<text text-anchor="start" x="1024.12" y="-123.05" font-family="Courier,monospace" font-size="11.00">datetime</text>
<polygon fill="none" stroke="#99ccff" points="303,-97.5 303,-117 1004.25,-117 1004.25,-97.5 303,-97.5"/>
<text text-anchor="start" x="306" y="-103.55" font-family="Courier,monospace" font-size="11.00"> &#160;&#160;&#160;&#160;&#160;&#160;&#160;&#160;&#160;&#160;&#160;&#160;&#160;&#160;&#160;&#160;&#160;&#160;&#160;&#160;&#160;&#160;&#160;&#160;&#160;&#160;&#160;&#160;&#160;&#160;&#160;&#160;&#160;&#160;&#160;&#160;&#160;&#160;&#160;&#160;DateValue &#160;&#160;&#160;&#160;&#160;&#160;&#160;&#160;&#160;&#160;&#160;&#160;&#160;&#160;&#160;&#160;&#160;&#160;&#160;&#160;&#160;&#160;&#160;&#160;&#160;&#160;&#160;&#160;&#160;&#160;&#160;&#160;&#160;&#160;&#160;&#160;&#160;&#160;</text>
<polygon fill="none" stroke="#99ccff" points="1004.25,-97.5 1004.25,-117 1098,-117 1098,-97.5 1004.25,-97.5"/>
<text text-anchor="start" x="1037.62" y="-103.55" font-family="Courier,monospace" font-size="11.00">date</text>
<polygon fill="none" stroke="#99ccff" points="303,-78 303,-97.5 1004.25,-97.5 1004.25,-78 303,-78"/>
<text text-anchor="start" x="306" y="-84.05" font-family="Courier,monospace" font-size="11.00"> &#160;&#160;&#160;&#160;&#160;&#160;&#160;&#160;&#160;&#160;&#160;&#160;&#160;&#160;&#160;&#160;&#160;&#160;&#160;&#160;&#160;&#160;&#160;&#160;&#160;&#160;&#160;&#160;&#160;&#160;&#160;&#160;&#160;&#160;&#160;&#160;&#160;&#160;&#160;&#160;StringValue &#160;&#160;&#160;&#160;&#160;&#160;&#160;&#160;&#160;&#160;&#160;&#160;&#160;&#160;&#160;&#160;&#160;&#160;&#160;&#160;&#160;&#160;&#160;&#160;&#160;&#160;&#160;&#160;&#160;&#160;&#160;&#160;&#160;&#160;&#160;&#160;&#160;&#160;</text>
<polygon fill="none" stroke="#99ccff" points="1004.25,-78 1004.25,-97.5 1098,-97.5 1098,-78 1004.25,-78"/>
<text text-anchor="start" x="1014" y="-84.05" font-family="Courier,monospace" font-size="11.00">string(255)</text>
<polygon fill="none" stroke="#99ccff" points="303,-58.5 303,-78 1004.25,-78 1004.25,-58.5 303,-58.5"/>
<text text-anchor="start" x="306" y="-64.55" font-family="Courier,monospace" font-size="11.00"> &#160;&#160;&#160;&#160;&#160;&#160;&#160;&#160;&#160;&#160;&#160;&#160;&#160;&#160;&#160;&#160;&#160;&#160;&#160;&#160;&#160;&#160;&#160;&#160;&#160;&#160;&#160;&#160;&#160;&#160;&#160;&#160;&#160;&#160;&#160;&#160;&#160;&#160;&#160;&#160;BooleanValue &#160;&#160;&#160;&#160;&#160;&#160;&#160;&#160;&#160;&#160;&#160;&#160;&#160;&#160;&#160;&#160;&#160;&#160;&#160;&#160;&#160;&#160;&#160;&#160;&#160;&#160;&#160;&#160;&#160;&#160;&#160;&#160;&#160;&#160;&#160;&#160;&#160;&#160;</text>
<polygon fill="none" stroke="#99ccff" points="1004.25,-58.5 1004.25,-78 1098,-78 1098,-58.5 1004.25,-58.5"/>
<text text-anchor="start" x="1007.25" y="-64.55" font-family="Courier,monospace" font-size="11.00">picklist(255)</text>
<polygon fill="none" stroke="#99ccff" points="303,-39 303,-58.5 1004.25,-58.5 1004.25,-39 303,-39"/>
<text text-anchor="start" x="306" y="-45.05" font-family="Courier,monospace" font-size="11.00"> &#160;&#160;&#160;&#160;&#160;&#160;&#160;&#160;&#160;&#160;&#160;&#160;&#160;&#160;&#160;&#160;&#160;&#160;&#160;&#160;&#160;&#160;&#160;&#160;&#160;&#160;&#160;&#160;&#160;&#160;&#160;&#160;&#160;&#160;&#160;&#160;&#160;&#160;&#160;&#160;IntegerValue &#160;&#160;&#160;&#160;&#160;&#160;&#160;&#160;&#160;&#160;&#160;&#160;&#160;&#160;&#160;&#160;&#160;&#160;&#160;&#160;&#160;&#160;&#160;&#160;&#160;&#160;&#160;&#160;&#160;&#160;&#160;&#160;&#160;&#160;&#160;&#160;&#160;&#160;</text>
<polygon fill="none" stroke="#99ccff" points="1004.25,-39 1004.25,-58.5 1098,-58.5 1098,-39 1004.25,-39"/>
<text text-anchor="start" x="1041" y="-45.05" font-family="Courier,monospace" font-size="11.00">int</text>
<polygon fill="none" stroke="#99ccff" points="303,-19.5 303,-39 1004.25,-39 1004.25,-19.5 303,-19.5"/>
<text text-anchor="start" x="306" y="-25.55" font-family="Courier,monospace" font-size="11.00"> &#160;&#160;&#160;&#160;&#160;&#160;&#160;&#160;&#160;&#160;&#160;&#160;&#160;&#160;&#160;&#160;&#160;&#160;&#160;&#160;&#160;&#160;&#160;&#160;&#160;&#160;&#160;&#160;&#160;&#160;&#160;&#160;&#160;&#160;&#160;&#160;&#160;&#160;&#160;&#160;DoubleValue &#160;&#160;&#160;&#160;&#160;&#160;&#160;&#160;&#160;&#160;&#160;&#160;&#160;&#160;&#160;&#160;&#160;&#160;&#160;&#160;&#160;&#160;&#160;&#160;&#160;&#160;&#160;&#160;&#160;&#160;&#160;&#160;&#160;&#160;&#160;&#160;&#160;&#160;</text>
<polygon fill="none" stroke="#99ccff" points="1004.25,-19.5 1004.25,-39 1098,-39 1098,-19.5 1004.25,-19.5"/>
<text text-anchor="start" x="1030.88" y="-25.55" font-family="Courier,monospace" font-size="11.00">double</text>
<polygon fill="none" stroke="#99ccff" points="302,-18.5 302,-352 1099,-352 1099,-18.5 302,-18.5"/>
</a>
</g>
</g>
<!-- User -->
<g id="node2" class="node">
<title>User</title>
<text text-anchor="middle" x="78.88" y="-269.55" font-family="Courier,monospace" font-size="11.00">User</text>
</g>
<!-- AttributeAdjustmentCondition&#45;&gt;User -->
<g id="edge1" class="edge">
<title>AttributeAdjustmentCondition:w&#45;&gt;User:e</title>
<path fill="none" stroke="#ff99cc" d="M286.42,-263.33C219.1,-263.98 144.3,-268.63 105.85,-271.32"/>
<polygon fill="#ff99cc" stroke="#ff99cc" points="293.67,-263.29 301.68,-266.85 298,-263.27 301.33,-263.25 301.33,-263.25 301.33,-263.25 298,-263.27 301.65,-259.65 293.67,-263.29"/>
<ellipse fill="none" stroke="#ff99cc" cx="288.75" cy="-263.32" rx="3.2" ry="3.2"/>
<text text-anchor="middle" x="229.88" y="-269.76" font-family="Monaco" font-size="9.00">LastModifiedBy</text>
</g>
<!-- AttributeBasedAdjRule -->
<g id="node3" class="node">
<title>AttributeBasedAdjRule</title>
<text text-anchor="middle" x="78.88" y="-220.55" font-family="Courier,monospace" font-size="11.00">AttributeBasedAdjRule</text>
</g>
<!-- AttributeAdjustmentCondition&#45;&gt;AttributeBasedAdjRule -->
<g id="edge2" class="edge">
<title>AttributeAdjustmentCondition:w&#45;&gt;AttributeBasedAdjRule:e</title>
<path fill="none" stroke="#ff99cc" d="M286.33,-204.9C242.49,-205.74 195.59,-209.85 157.6,-214.07"/>
<polygon fill="#ff99cc" stroke="#ff99cc" points="293.67,-204.83 301.7,-208.35 298,-204.79 301.33,-204.76 301.33,-204.76 301.33,-204.76 298,-204.79 301.63,-201.15 293.67,-204.83"/>
<ellipse fill="none" stroke="#ff99cc" cx="288.75" cy="-204.88" rx="3.2" ry="3.2"/>
<text text-anchor="middle" x="229.88" y="-214.88" font-family="Monaco" font-size="9.00">AttributeBasedAdjRule</text>
</g>
<!-- AttributeDefinition -->
<g id="node4" class="node">
<title>AttributeDefinition</title>
<text text-anchor="middle" x="78.88" y="-171.55" font-family="Courier,monospace" font-size="11.00">AttributeDefinition</text>
</g>
<!-- AttributeAdjustmentCondition&#45;&gt;AttributeDefinition -->
<g id="edge3" class="edge">
<title>AttributeAdjustmentCondition:w&#45;&gt;AttributeDefinition:e</title>
<path fill="none" stroke="#ff99cc" d="M286.41,-185.17C239.99,-184.72 190.02,-182.37 150.86,-180.07"/>
<polygon fill="#ff99cc" stroke="#ff99cc" points="293.67,-185.21 301.65,-188.85 298,-185.23 301.33,-185.25 301.33,-185.25 301.33,-185.25 298,-185.23 301.68,-181.65 293.67,-185.21"/>
<ellipse fill="none" stroke="#ff99cc" cx="288.75" cy="-185.18" rx="3.2" ry="3.2"/>
<text text-anchor="middle" x="229.88" y="-187.85" font-family="Monaco" font-size="9.00">AttributeDefinition</text>
</g>
<!-- Product2 -->
<g id="node5" class="node">
<title>Product2</title>
<text text-anchor="middle" x="78.88" y="-122.55" font-family="Courier,monospace" font-size="11.00">Product2</text>
</g>
<!-- AttributeAdjustmentCondition&#45;&gt;Product2 -->
<g id="edge4" class="edge">
<title>AttributeAdjustmentCondition:w&#45;&gt;Product2:e</title>
<path fill="none" stroke="#ff99cc" d="M286.41,-165.45C222.85,-163.05 153.77,-146.92 113.79,-136.12"/>
<polygon fill="#ff99cc" stroke="#ff99cc" points="293.67,-165.59 301.6,-169.34 298,-165.67 301.33,-165.74 301.33,-165.74 301.33,-165.74 298,-165.67 301.74,-162.14 293.67,-165.59"/>
<ellipse fill="none" stroke="#ff99cc" cx="288.75" cy="-165.49" rx="3.2" ry="3.2"/>
<text text-anchor="middle" x="229.88" y="-168.04" font-family="Monaco" font-size="9.00">Product</text>
</g>
</g>
</svg>
