<?xml version="1.0" encoding="UTF-8" standalone="no"?>
<!DOCTYPE svg PUBLIC "-//W3C//DTD SVG 1.1//EN"
 "http://www.w3.org/Graphics/SVG/1.1/DTD/svg11.dtd">
<!-- Generated by graphviz version 12.2.1 (20241206.2353)
 -->
<!-- Title: Salesforce+ ERD Pages: 1 -->
<svg width="1151pt" height="438pt"
 viewBox="0.00 0.00 1151.25 438.00" xmlns="http://www.w3.org/2000/svg" xmlns:xlink="http://www.w3.org/1999/xlink">
<g id="graph0" class="graph" transform="scale(1 1) rotate(0) translate(4 434)">
<title>Salesforce+ ERD</title>
<polygon fill="#efeffd" stroke="none" points="-4,4 -4,-434 1147.25,-434 1147.25,4 -4,4"/>
<text text-anchor="middle" x="1095.88" y="-5.95" font-family="Courier,monospace" font-size="9.00">Salesforce ERD </text>
<!-- AttributeBasedAdjustment -->
<g id="node1" class="node">
<title>AttributeBasedAdjustment</title>
<g id="a_node1"><a xlink:href="#" xlink:title=" AttributeBasedAdjustment ">
<polygon fill="#ffeeff" stroke="none" points="326,-18.5 326,-430 1143.25,-430 1143.25,-18.5 326,-18.5"/>
<polygon fill="lightblue" stroke="none" points="327,-409.5 327,-429 1142.25,-429 1142.25,-409.5 327,-409.5"/>
<polygon fill="none" stroke="#99ccff" points="327,-409.5 327,-429 1142.25,-429 1142.25,-409.5 327,-409.5"/>
<text text-anchor="start" x="653.62" y="-416.55" font-family="Courier,monospace" font-weight="bold" font-size="11.00">AttributeBasedAdjustment</text>
<polygon fill="#99ccff" stroke="none" points="327,-390 327,-409.5 1048.5,-409.5 1048.5,-390 327,-390"/>
<polygon fill="none" stroke="#99ccff" points="327,-390 327,-409.5 1048.5,-409.5 1048.5,-390 327,-390"/>
<text text-anchor="start" x="330" y="-397.05" font-family="Courier,monospace" font-size="11.00"> &#160;&#160;&#160;&#160;&#160;&#160;&#160;&#160;&#160;&#160;&#160;&#160;&#160;&#160;&#160;&#160;&#160;&#160;&#160;&#160;&#160;&#160;&#160;&#160;&#160;&#160;&#160;&#160;&#160;&#160;&#160;&#160;&#160;&#160;&#160;&#160;&#160;&#160;&#160;&#160;&#160;&#160;</text>
<text text-anchor="start" x="620.25" y="-397.05" font-family="Courier,monospace" font-weight="bold" font-size="11.00">Id</text>
<text text-anchor="start" x="633.75" y="-397.05" font-family="Courier,monospace" font-size="11.00"> &#160;&#160;&#160;&#160;&#160;&#160;&#160;&#160;&#160;&#160;&#160;&#160;&#160;&#160;&#160;&#160;&#160;&#160;&#160;&#160;&#160;&#160;&#160;&#160;&#160;&#160;&#160;&#160;&#160;&#160;&#160;&#160;&#160;&#160;&#160;&#160;&#160;&#160;&#160;</text>
<polygon fill="none" stroke="#99ccff" points="1048.5,-390 1048.5,-409.5 1142.25,-409.5 1142.25,-390 1048.5,-390"/>
<text text-anchor="start" x="1075.12" y="-396.05" font-family="Courier,monospace" font-size="11.00">id(18)</text>
<polygon fill="none" stroke="#99ccff" points="327,-370.5 327,-390 1048.5,-390 1048.5,-370.5 327,-370.5"/>
<text text-anchor="start" x="330" y="-376.55" font-family="Courier,monospace" font-size="11.00"> &#160;&#160;&#160;&#160;&#160;&#160;&#160;&#160;&#160;&#160;&#160;&#160;&#160;&#160;&#160;&#160;&#160;&#160;&#160;&#160;&#160;&#160;&#160;&#160;&#160;&#160;&#160;&#160;&#160;&#160;&#160;&#160;&#160;&#160;&#160;&#160;&#160;&#160;&#160;&#160;IsDeleted &#160;&#160;&#160;&#160;&#160;&#160;&#160;&#160;&#160;&#160;&#160;&#160;&#160;&#160;&#160;&#160;&#160;&#160;&#160;&#160;&#160;&#160;&#160;&#160;&#160;&#160;&#160;&#160;&#160;&#160;&#160;&#160;&#160;&#160;&#160;&#160;&#160;&#160;</text>
<polygon fill="none" stroke="#99ccff" points="1048.5,-370.5 1048.5,-390 1142.25,-390 1142.25,-370.5 1048.5,-370.5"/>
<text text-anchor="start" x="1071.75" y="-376.55" font-family="Courier,monospace" font-size="11.00">boolean</text>
<polygon fill="none" stroke="#99ccff" points="327,-351 327,-370.5 1048.5,-370.5 1048.5,-351 327,-351"/>
<text text-anchor="start" x="330" y="-357.05" font-family="Courier,monospace" font-size="11.00"> &#160;&#160;&#160;&#160;&#160;&#160;&#160;&#160;&#160;&#160;&#160;&#160;&#160;&#160;&#160;&#160;&#160;&#160;&#160;&#160;&#160;&#160;&#160;&#160;&#160;&#160;&#160;&#160;&#160;&#160;&#160;&#160;&#160;&#160;&#160;&#160;&#160;&#160;&#160;&#160;Name &#160;&#160;&#160;&#160;&#160;&#160;&#160;&#160;&#160;&#160;&#160;&#160;&#160;&#160;&#160;&#160;&#160;&#160;&#160;&#160;&#160;&#160;&#160;&#160;&#160;&#160;&#160;&#160;&#160;&#160;&#160;&#160;&#160;&#160;&#160;&#160;&#160;&#160;</text>
<polygon fill="none" stroke="#99ccff" points="1048.5,-351 1048.5,-370.5 1142.25,-370.5 1142.25,-351 1048.5,-351"/>
<text text-anchor="start" x="1058.25" y="-357.05" font-family="Courier,monospace" font-size="11.00">string(255)</text>
<polygon fill="none" stroke="#99ccff" points="327,-331.5 327,-351 1048.5,-351 1048.5,-331.5 327,-331.5"/>
<text text-anchor="start" x="330" y="-337.55" font-family="Courier,monospace" font-size="11.00"> &#160;&#160;&#160;&#160;&#160;&#160;&#160;&#160;&#160;&#160;&#160;&#160;&#160;&#160;&#160;&#160;&#160;&#160;&#160;&#160;&#160;&#160;&#160;&#160;&#160;&#160;&#160;&#160;&#160;&#160;&#160;&#160;&#160;&#160;&#160;&#160;&#160;&#160;&#160;&#160;LastModifiedById &#160;&#160;&#160;&#160;&#160;&#160;&#160;&#160;&#160;&#160;&#160;&#160;&#160;&#160;&#160;&#160;&#160;&#160;&#160;&#160;&#160;&#160;&#160;&#160;&#160;&#160;&#160;&#160;&#160;&#160;&#160;&#160;&#160;&#160;&#160;&#160;&#160;&#160;</text>
<polygon fill="none" stroke="#99ccff" points="1048.5,-331.5 1048.5,-351 1142.25,-351 1142.25,-331.5 1048.5,-331.5"/>
<text text-anchor="start" x="1051.5" y="-337.55" font-family="Courier,monospace" font-size="11.00">reference(18)</text>
<polygon fill="none" stroke="#99ccff" points="327,-312 327,-331.5 1048.5,-331.5 1048.5,-312 327,-312"/>
<text text-anchor="start" x="330" y="-318.05" font-family="Courier,monospace" font-size="11.00"> &#160;&#160;&#160;&#160;&#160;&#160;&#160;&#160;&#160;&#160;&#160;&#160;&#160;&#160;&#160;&#160;&#160;&#160;&#160;&#160;&#160;&#160;&#160;&#160;&#160;&#160;&#160;&#160;&#160;&#160;&#160;&#160;&#160;&#160;&#160;&#160;&#160;&#160;&#160;&#160;LastViewedDate &#160;&#160;&#160;&#160;&#160;&#160;&#160;&#160;&#160;&#160;&#160;&#160;&#160;&#160;&#160;&#160;&#160;&#160;&#160;&#160;&#160;&#160;&#160;&#160;&#160;&#160;&#160;&#160;&#160;&#160;&#160;&#160;&#160;&#160;&#160;&#160;&#160;&#160;</text>
<polygon fill="none" stroke="#99ccff" points="1048.5,-312 1048.5,-331.5 1142.25,-331.5 1142.25,-312 1048.5,-312"/>
<text text-anchor="start" x="1068.38" y="-318.05" font-family="Courier,monospace" font-size="11.00">datetime</text>
<polygon fill="none" stroke="#99ccff" points="327,-292.5 327,-312 1048.5,-312 1048.5,-292.5 327,-292.5"/>
<text text-anchor="start" x="330" y="-298.55" font-family="Courier,monospace" font-size="11.00"> &#160;&#160;&#160;&#160;&#160;&#160;&#160;&#160;&#160;&#160;&#160;&#160;&#160;&#160;&#160;&#160;&#160;&#160;&#160;&#160;&#160;&#160;&#160;&#160;&#160;&#160;&#160;&#160;&#160;&#160;&#160;&#160;&#160;&#160;&#160;&#160;&#160;&#160;&#160;&#160;LastReferencedDate &#160;&#160;&#160;&#160;&#160;&#160;&#160;&#160;&#160;&#160;&#160;&#160;&#160;&#160;&#160;&#160;&#160;&#160;&#160;&#160;&#160;&#160;&#160;&#160;&#160;&#160;&#160;&#160;&#160;&#160;&#160;&#160;&#160;&#160;&#160;&#160;&#160;&#160;</text>
<polygon fill="none" stroke="#99ccff" points="1048.5,-292.5 1048.5,-312 1142.25,-312 1142.25,-292.5 1048.5,-292.5"/>
<text text-anchor="start" x="1068.38" y="-298.55" font-family="Courier,monospace" font-size="11.00">datetime</text>
<polygon fill="none" stroke="#99ccff" points="327,-273 327,-292.5 1048.5,-292.5 1048.5,-273 327,-273"/>
<text text-anchor="start" x="330" y="-279.05" font-family="Courier,monospace" font-size="11.00"> &#160;&#160;&#160;&#160;&#160;&#160;&#160;&#160;&#160;&#160;&#160;&#160;&#160;&#160;&#160;&#160;&#160;&#160;&#160;&#160;&#160;&#160;&#160;&#160;&#160;&#160;&#160;&#160;&#160;&#160;&#160;&#160;&#160;&#160;&#160;&#160;&#160;&#160;&#160;&#160;PriceAdjustmentScheduleId &#160;&#160;&#160;&#160;&#160;&#160;&#160;&#160;&#160;&#160;&#160;&#160;&#160;&#160;&#160;&#160;&#160;&#160;&#160;&#160;&#160;&#160;&#160;&#160;&#160;&#160;&#160;&#160;&#160;&#160;&#160;&#160;&#160;&#160;&#160;&#160;&#160;&#160;</text>
<polygon fill="none" stroke="#99ccff" points="1048.5,-273 1048.5,-292.5 1142.25,-292.5 1142.25,-273 1048.5,-273"/>
<text text-anchor="start" x="1051.5" y="-279.05" font-family="Courier,monospace" font-size="11.00">reference(18)</text>
<polygon fill="none" stroke="#99ccff" points="327,-253.5 327,-273 1048.5,-273 1048.5,-253.5 327,-253.5"/>
<text text-anchor="start" x="330" y="-259.55" font-family="Courier,monospace" font-size="11.00"> &#160;&#160;&#160;&#160;&#160;&#160;&#160;&#160;&#160;&#160;&#160;&#160;&#160;&#160;&#160;&#160;&#160;&#160;&#160;&#160;&#160;&#160;&#160;&#160;&#160;&#160;&#160;&#160;&#160;&#160;&#160;&#160;&#160;&#160;&#160;&#160;&#160;&#160;&#160;&#160;AdjustmentType &#160;&#160;&#160;&#160;&#160;&#160;&#160;&#160;&#160;&#160;&#160;&#160;&#160;&#160;&#160;&#160;&#160;&#160;&#160;&#160;&#160;&#160;&#160;&#160;&#160;&#160;&#160;&#160;&#160;&#160;&#160;&#160;&#160;&#160;&#160;&#160;&#160;&#160;</text>
<polygon fill="none" stroke="#99ccff" points="1048.5,-253.5 1048.5,-273 1142.25,-273 1142.25,-253.5 1048.5,-253.5"/>
<text text-anchor="start" x="1051.5" y="-259.55" font-family="Courier,monospace" font-size="11.00">picklist(255)</text>
<polygon fill="none" stroke="#99ccff" points="327,-234 327,-253.5 1048.5,-253.5 1048.5,-234 327,-234"/>
<text text-anchor="start" x="330" y="-240.05" font-family="Courier,monospace" font-size="11.00"> &#160;&#160;&#160;&#160;&#160;&#160;&#160;&#160;&#160;&#160;&#160;&#160;&#160;&#160;&#160;&#160;&#160;&#160;&#160;&#160;&#160;&#160;&#160;&#160;&#160;&#160;&#160;&#160;&#160;&#160;&#160;&#160;&#160;&#160;&#160;&#160;&#160;&#160;&#160;&#160;AdjustmentValue &#160;&#160;&#160;&#160;&#160;&#160;&#160;&#160;&#160;&#160;&#160;&#160;&#160;&#160;&#160;&#160;&#160;&#160;&#160;&#160;&#160;&#160;&#160;&#160;&#160;&#160;&#160;&#160;&#160;&#160;&#160;&#160;&#160;&#160;&#160;&#160;&#160;&#160;</text>
<polygon fill="none" stroke="#99ccff" points="1048.5,-234 1048.5,-253.5 1142.25,-253.5 1142.25,-234 1048.5,-234"/>
<text text-anchor="start" x="1075.12" y="-240.05" font-family="Courier,monospace" font-size="11.00">double</text>
<polygon fill="none" stroke="#99ccff" points="327,-214.5 327,-234 1048.5,-234 1048.5,-214.5 327,-214.5"/>
<text text-anchor="start" x="330" y="-220.55" font-family="Courier,monospace" font-size="11.00"> &#160;&#160;&#160;&#160;&#160;&#160;&#160;&#160;&#160;&#160;&#160;&#160;&#160;&#160;&#160;&#160;&#160;&#160;&#160;&#160;&#160;&#160;&#160;&#160;&#160;&#160;&#160;&#160;&#160;&#160;&#160;&#160;&#160;&#160;&#160;&#160;&#160;&#160;&#160;&#160;EffectiveFrom &#160;&#160;&#160;&#160;&#160;&#160;&#160;&#160;&#160;&#160;&#160;&#160;&#160;&#160;&#160;&#160;&#160;&#160;&#160;&#160;&#160;&#160;&#160;&#160;&#160;&#160;&#160;&#160;&#160;&#160;&#160;&#160;&#160;&#160;&#160;&#160;&#160;&#160;</text>
<polygon fill="none" stroke="#99ccff" points="1048.5,-214.5 1048.5,-234 1142.25,-234 1142.25,-214.5 1048.5,-214.5"/>
<text text-anchor="start" x="1068.38" y="-220.55" font-family="Courier,monospace" font-size="11.00">datetime</text>
<polygon fill="none" stroke="#99ccff" points="327,-195 327,-214.5 1048.5,-214.5 1048.5,-195 327,-195"/>
<text text-anchor="start" x="330" y="-201.05" font-family="Courier,monospace" font-size="11.00"> &#160;&#160;&#160;&#160;&#160;&#160;&#160;&#160;&#160;&#160;&#160;&#160;&#160;&#160;&#160;&#160;&#160;&#160;&#160;&#160;&#160;&#160;&#160;&#160;&#160;&#160;&#160;&#160;&#160;&#160;&#160;&#160;&#160;&#160;&#160;&#160;&#160;&#160;&#160;&#160;EffectiveTo &#160;&#160;&#160;&#160;&#160;&#160;&#160;&#160;&#160;&#160;&#160;&#160;&#160;&#160;&#160;&#160;&#160;&#160;&#160;&#160;&#160;&#160;&#160;&#160;&#160;&#160;&#160;&#160;&#160;&#160;&#160;&#160;&#160;&#160;&#160;&#160;&#160;&#160;</text>
<polygon fill="none" stroke="#99ccff" points="1048.5,-195 1048.5,-214.5 1142.25,-214.5 1142.25,-195 1048.5,-195"/>
<text text-anchor="start" x="1068.38" y="-201.05" font-family="Courier,monospace" font-size="11.00">datetime</text>
<polygon fill="none" stroke="#99ccff" points="327,-175.5 327,-195 1048.5,-195 1048.5,-175.5 327,-175.5"/>
<text text-anchor="start" x="330" y="-181.55" font-family="Courier,monospace" font-size="11.00"> &#160;&#160;&#160;&#160;&#160;&#160;&#160;&#160;&#160;&#160;&#160;&#160;&#160;&#160;&#160;&#160;&#160;&#160;&#160;&#160;&#160;&#160;&#160;&#160;&#160;&#160;&#160;&#160;&#160;&#160;&#160;&#160;&#160;&#160;&#160;&#160;&#160;&#160;&#160;&#160;ProductSellingModelId &#160;&#160;&#160;&#160;&#160;&#160;&#160;&#160;&#160;&#160;&#160;&#160;&#160;&#160;&#160;&#160;&#160;&#160;&#160;&#160;&#160;&#160;&#160;&#160;&#160;&#160;&#160;&#160;&#160;&#160;&#160;&#160;&#160;&#160;&#160;&#160;&#160;&#160;</text>
<polygon fill="none" stroke="#99ccff" points="1048.5,-175.5 1048.5,-195 1142.25,-195 1142.25,-175.5 1048.5,-175.5"/>
<text text-anchor="start" x="1051.5" y="-181.55" font-family="Courier,monospace" font-size="11.00">reference(18)</text>
<polygon fill="none" stroke="#99ccff" points="327,-156 327,-175.5 1048.5,-175.5 1048.5,-156 327,-156"/>
<text text-anchor="start" x="330" y="-162.05" font-family="Courier,monospace" font-size="11.00"> &#160;&#160;&#160;&#160;&#160;&#160;&#160;&#160;&#160;&#160;&#160;&#160;&#160;&#160;&#160;&#160;&#160;&#160;&#160;&#160;&#160;&#160;&#160;&#160;&#160;&#160;&#160;&#160;&#160;&#160;&#160;&#160;&#160;&#160;&#160;&#160;&#160;&#160;&#160;&#160;AttributeBasedAdjRuleId &#160;&#160;&#160;&#160;&#160;&#160;&#160;&#160;&#160;&#160;&#160;&#160;&#160;&#160;&#160;&#160;&#160;&#160;&#160;&#160;&#160;&#160;&#160;&#160;&#160;&#160;&#160;&#160;&#160;&#160;&#160;&#160;&#160;&#160;&#160;&#160;&#160;&#160;</text>
<polygon fill="none" stroke="#99ccff" points="1048.5,-156 1048.5,-175.5 1142.25,-175.5 1142.25,-156 1048.5,-156"/>
<text text-anchor="start" x="1051.5" y="-162.05" font-family="Courier,monospace" font-size="11.00">reference(18)</text>
<polygon fill="none" stroke="#99ccff" points="327,-136.5 327,-156 1048.5,-156 1048.5,-136.5 327,-136.5"/>
<text text-anchor="start" x="330" y="-142.55" font-family="Courier,monospace" font-size="11.00"> &#160;&#160;&#160;&#160;&#160;&#160;&#160;&#160;&#160;&#160;&#160;&#160;&#160;&#160;&#160;&#160;&#160;&#160;&#160;&#160;&#160;&#160;&#160;&#160;&#160;&#160;&#160;&#160;&#160;&#160;&#160;&#160;&#160;&#160;&#160;&#160;&#160;&#160;&#160;&#160;ProductId &#160;&#160;&#160;&#160;&#160;&#160;&#160;&#160;&#160;&#160;&#160;&#160;&#160;&#160;&#160;&#160;&#160;&#160;&#160;&#160;&#160;&#160;&#160;&#160;&#160;&#160;&#160;&#160;&#160;&#160;&#160;&#160;&#160;&#160;&#160;&#160;&#160;&#160;</text>
<polygon fill="none" stroke="#99ccff" points="1048.5,-136.5 1048.5,-156 1142.25,-156 1142.25,-136.5 1048.5,-136.5"/>
<text text-anchor="start" x="1051.5" y="-142.55" font-family="Courier,monospace" font-size="11.00">reference(18)</text>
<polygon fill="none" stroke="#99ccff" points="327,-117 327,-136.5 1048.5,-136.5 1048.5,-117 327,-117"/>
<text text-anchor="start" x="330" y="-123.05" font-family="Courier,monospace" font-size="11.00"> &#160;&#160;&#160;&#160;&#160;&#160;&#160;&#160;&#160;&#160;&#160;&#160;&#160;&#160;&#160;&#160;&#160;&#160;&#160;&#160;&#160;&#160;&#160;&#160;&#160;&#160;&#160;&#160;&#160;&#160;&#160;&#160;&#160;&#160;&#160;&#160;&#160;&#160;&#160;&#160;SellingModelType &#160;&#160;&#160;&#160;&#160;&#160;&#160;&#160;&#160;&#160;&#160;&#160;&#160;&#160;&#160;&#160;&#160;&#160;&#160;&#160;&#160;&#160;&#160;&#160;&#160;&#160;&#160;&#160;&#160;&#160;&#160;&#160;&#160;&#160;&#160;&#160;&#160;&#160;</text>
<polygon fill="none" stroke="#99ccff" points="1048.5,-117 1048.5,-136.5 1142.25,-136.5 1142.25,-117 1048.5,-117"/>
<text text-anchor="start" x="1051.5" y="-123.05" font-family="Courier,monospace" font-size="11.00">picklist(255)</text>
<polygon fill="none" stroke="#99ccff" points="327,-97.5 327,-117 1048.5,-117 1048.5,-97.5 327,-97.5"/>
<text text-anchor="start" x="330" y="-103.55" font-family="Courier,monospace" font-size="11.00"> &#160;&#160;&#160;&#160;&#160;&#160;&#160;&#160;&#160;&#160;&#160;&#160;&#160;&#160;&#160;&#160;&#160;&#160;&#160;&#160;&#160;&#160;&#160;&#160;&#160;&#160;&#160;&#160;&#160;&#160;&#160;&#160;&#160;&#160;&#160;&#160;&#160;&#160;&#160;&#160;PricingTerm &#160;&#160;&#160;&#160;&#160;&#160;&#160;&#160;&#160;&#160;&#160;&#160;&#160;&#160;&#160;&#160;&#160;&#160;&#160;&#160;&#160;&#160;&#160;&#160;&#160;&#160;&#160;&#160;&#160;&#160;&#160;&#160;&#160;&#160;&#160;&#160;&#160;&#160;</text>
<polygon fill="none" stroke="#99ccff" points="1048.5,-97.5 1048.5,-117 1142.25,-117 1142.25,-97.5 1048.5,-97.5"/>
<text text-anchor="start" x="1085.25" y="-103.55" font-family="Courier,monospace" font-size="11.00">int</text>
<polygon fill="none" stroke="#99ccff" points="327,-78 327,-97.5 1048.5,-97.5 1048.5,-78 327,-78"/>
<text text-anchor="start" x="330" y="-84.05" font-family="Courier,monospace" font-size="11.00"> &#160;&#160;&#160;&#160;&#160;&#160;&#160;&#160;&#160;&#160;&#160;&#160;&#160;&#160;&#160;&#160;&#160;&#160;&#160;&#160;&#160;&#160;&#160;&#160;&#160;&#160;&#160;&#160;&#160;&#160;&#160;&#160;&#160;&#160;&#160;&#160;&#160;&#160;&#160;&#160;PricingTermUnit &#160;&#160;&#160;&#160;&#160;&#160;&#160;&#160;&#160;&#160;&#160;&#160;&#160;&#160;&#160;&#160;&#160;&#160;&#160;&#160;&#160;&#160;&#160;&#160;&#160;&#160;&#160;&#160;&#160;&#160;&#160;&#160;&#160;&#160;&#160;&#160;&#160;&#160;</text>
<polygon fill="none" stroke="#99ccff" points="1048.5,-78 1048.5,-97.5 1142.25,-97.5 1142.25,-78 1048.5,-78"/>
<text text-anchor="start" x="1051.5" y="-84.05" font-family="Courier,monospace" font-size="11.00">picklist(255)</text>
<polygon fill="none" stroke="#99ccff" points="327,-58.5 327,-78 1048.5,-78 1048.5,-58.5 327,-58.5"/>
<text text-anchor="start" x="330" y="-64.55" font-family="Courier,monospace" font-size="11.00"> &#160;&#160;&#160;&#160;&#160;&#160;&#160;&#160;&#160;&#160;&#160;&#160;&#160;&#160;&#160;&#160;&#160;&#160;&#160;&#160;&#160;&#160;&#160;&#160;&#160;&#160;&#160;&#160;&#160;&#160;&#160;&#160;&#160;&#160;&#160;&#160;&#160;&#160;&#160;&#160;AttributeCount &#160;&#160;&#160;&#160;&#160;&#160;&#160;&#160;&#160;&#160;&#160;&#160;&#160;&#160;&#160;&#160;&#160;&#160;&#160;&#160;&#160;&#160;&#160;&#160;&#160;&#160;&#160;&#160;&#160;&#160;&#160;&#160;&#160;&#160;&#160;&#160;&#160;&#160;</text>
<polygon fill="none" stroke="#99ccff" points="1048.5,-58.5 1048.5,-78 1142.25,-78 1142.25,-58.5 1048.5,-58.5"/>
<text text-anchor="start" x="1085.25" y="-64.55" font-family="Courier,monospace" font-size="11.00">int</text>
<polygon fill="none" stroke="#99ccff" points="327,-39 327,-58.5 1048.5,-58.5 1048.5,-39 327,-39"/>
<text text-anchor="start" x="330" y="-45.05" font-family="Courier,monospace" font-size="11.00"> &#160;&#160;&#160;&#160;&#160;&#160;&#160;&#160;&#160;&#160;&#160;&#160;&#160;&#160;&#160;&#160;&#160;&#160;&#160;&#160;&#160;&#160;&#160;&#160;&#160;&#160;&#160;&#160;&#160;&#160;&#160;&#160;&#160;&#160;&#160;&#160;&#160;&#160;&#160;&#160;AttributeAdjConditionsHash &#160;&#160;&#160;&#160;&#160;&#160;&#160;&#160;&#160;&#160;&#160;&#160;&#160;&#160;&#160;&#160;&#160;&#160;&#160;&#160;&#160;&#160;&#160;&#160;&#160;&#160;&#160;&#160;&#160;&#160;&#160;&#160;&#160;&#160;&#160;&#160;&#160;&#160;</text>
<polygon fill="none" stroke="#99ccff" points="1048.5,-39 1048.5,-58.5 1142.25,-58.5 1142.25,-39 1048.5,-39"/>
<text text-anchor="start" x="1058.25" y="-45.05" font-family="Courier,monospace" font-size="11.00">string(255)</text>
<polygon fill="none" stroke="#99ccff" points="327,-19.5 327,-39 1048.5,-39 1048.5,-19.5 327,-19.5"/>
<text text-anchor="start" x="330" y="-25.55" font-family="Courier,monospace" font-size="11.00"> &#160;&#160;&#160;&#160;&#160;&#160;&#160;&#160;&#160;&#160;&#160;&#160;&#160;&#160;&#160;&#160;&#160;&#160;&#160;&#160;&#160;&#160;&#160;&#160;&#160;&#160;&#160;&#160;&#160;&#160;&#160;&#160;&#160;&#160;&#160;&#160;&#160;&#160;&#160;&#160;ScheduleType &#160;&#160;&#160;&#160;&#160;&#160;&#160;&#160;&#160;&#160;&#160;&#160;&#160;&#160;&#160;&#160;&#160;&#160;&#160;&#160;&#160;&#160;&#160;&#160;&#160;&#160;&#160;&#160;&#160;&#160;&#160;&#160;&#160;&#160;&#160;&#160;&#160;&#160;</text>
<polygon fill="none" stroke="#99ccff" points="1048.5,-19.5 1048.5,-39 1142.25,-39 1142.25,-19.5 1048.5,-19.5"/>
<text text-anchor="start" x="1051.5" y="-25.55" font-family="Courier,monospace" font-size="11.00">picklist(255)</text>
<polygon fill="none" stroke="#99ccff" points="326,-18.5 326,-430 1143.25,-430 1143.25,-18.5 326,-18.5"/>
</a>
</g>
</g>
<!-- User -->
<g id="node2" class="node">
<title>User</title>
<text text-anchor="middle" x="85.62" y="-337.55" font-family="Courier,monospace" font-size="11.00">User</text>
</g>
<!-- AttributeBasedAdjustment&#45;&gt;User -->
<g id="edge1" class="edge">
<title>AttributeBasedAdjustment:w&#45;&gt;User:e</title>
<path fill="none" stroke="#ff99cc" d="M310.35,-341.25C236.29,-341.25 153.47,-341.25 112.48,-341.25"/>
<polygon fill="#ff99cc" stroke="#ff99cc" points="317.67,-341.25 325.67,-344.85 322,-341.25 325.33,-341.25 325.33,-341.25 325.33,-341.25 322,-341.25 325.67,-337.65 317.67,-341.25"/>
<ellipse fill="none" stroke="#ff99cc" cx="312.75" cy="-341.25" rx="3.2" ry="3.2"/>
<text text-anchor="middle" x="248.62" y="-343.95" font-family="Monaco" font-size="9.00">LastModifiedBy</text>
</g>
<!-- PriceAdjustmentSchedule -->
<g id="node3" class="node">
<title>PriceAdjustmentSchedule</title>
<text text-anchor="middle" x="85.62" y="-278.55" font-family="Courier,monospace" font-size="11.00">PriceAdjustmentSchedule</text>
</g>
<!-- AttributeBasedAdjustment&#45;&gt;PriceAdjustmentSchedule -->
<g id="edge2" class="edge">
<title>AttributeBasedAdjustment:w&#45;&gt;PriceAdjustmentSchedule:e</title>
<path fill="none" stroke="#ff99cc" d="M310.46,-282.75C263.21,-282.73 212.36,-282.62 171.1,-282.51"/>
<polygon fill="#ff99cc" stroke="#ff99cc" points="317.67,-282.75 325.66,-286.35 322,-282.75 325.33,-282.75 325.33,-282.75 325.33,-282.75 322,-282.75 325.67,-279.15 317.67,-282.75"/>
<ellipse fill="none" stroke="#ff99cc" cx="312.75" cy="-282.75" rx="3.2" ry="3.2"/>
<text text-anchor="middle" x="248.62" y="-285.44" font-family="Monaco" font-size="9.00">PriceAdjustmentSchedule</text>
</g>
<!-- ProductSellingModel -->
<g id="node4" class="node">
<title>ProductSellingModel</title>
<text text-anchor="middle" x="85.62" y="-211.55" font-family="Courier,monospace" font-size="11.00">ProductSellingModel</text>
</g>
<!-- AttributeBasedAdjustment&#45;&gt;ProductSellingModel -->
<g id="edge3" class="edge">
<title>AttributeBasedAdjustment:w&#45;&gt;ProductSellingModel:e</title>
<path fill="none" stroke="#ff99cc" d="M310.49,-185.45C257.67,-186.77 200.77,-194.43 157.56,-201.65"/>
<polygon fill="#ff99cc" stroke="#ff99cc" points="317.67,-185.36 325.71,-188.85 322,-185.3 325.33,-185.26 325.33,-185.26 325.33,-185.26 322,-185.3 325.62,-181.65 317.67,-185.36"/>
<ellipse fill="none" stroke="#ff99cc" cx="312.75" cy="-185.42" rx="3.2" ry="3.2"/>
<text text-anchor="middle" x="248.62" y="-199.38" font-family="Monaco" font-size="9.00">ProductSellingModel</text>
</g>
<!-- AttributeBasedAdjRule -->
<g id="node5" class="node">
<title>AttributeBasedAdjRule</title>
<text text-anchor="middle" x="85.62" y="-162.55" font-family="Courier,monospace" font-size="11.00">AttributeBasedAdjRule</text>
</g>
<!-- AttributeBasedAdjustment&#45;&gt;AttributeBasedAdjRule -->
<g id="edge4" class="edge">
<title>AttributeBasedAdjustment:w&#45;&gt;AttributeBasedAdjRule:e</title>
<path fill="none" stroke="#ff99cc" d="M310.32,-165.75C260.45,-165.77 206.61,-165.89 164.24,-166.01"/>
<polygon fill="#ff99cc" stroke="#ff99cc" points="317.67,-165.75 325.67,-169.35 322,-165.75 325.33,-165.75 325.33,-165.75 325.33,-165.75 322,-165.75 325.66,-162.15 317.67,-165.75"/>
<ellipse fill="none" stroke="#ff99cc" cx="312.75" cy="-165.75" rx="3.2" ry="3.2"/>
<text text-anchor="middle" x="248.62" y="-168.64" font-family="Monaco" font-size="9.00">AttributeBasedAdjRule</text>
</g>
<!-- Product2 -->
<g id="node6" class="node">
<title>Product2</title>
<text text-anchor="middle" x="85.62" y="-113.55" font-family="Courier,monospace" font-size="11.00">Product2</text>
</g>
<!-- AttributeBasedAdjustment&#45;&gt;Product2 -->
<g id="edge5" class="edge">
<title>AttributeBasedAdjustment:w&#45;&gt;Product2:e</title>
<path fill="none" stroke="#ff99cc" d="M310.3,-146.05C240.49,-144.35 163.56,-131.94 120.56,-123.98"/>
<polygon fill="#ff99cc" stroke="#ff99cc" points="317.67,-146.15 325.62,-149.85 322,-146.2 325.33,-146.24 325.33,-146.24 325.33,-146.24 322,-146.2 325.71,-142.65 317.67,-146.15"/>
<ellipse fill="none" stroke="#ff99cc" cx="312.75" cy="-146.08" rx="3.2" ry="3.2"/>
<text text-anchor="middle" x="248.62" y="-148.65" font-family="Monaco" font-size="9.00">Product</text>
</g>
</g>
</svg>
