<?xml version="1.0" encoding="UTF-8" standalone="no"?>
<!DOCTYPE svg PUBLIC "-//W3C//DTD SVG 1.1//EN"
 "http://www.w3.org/Graphics/SVG/1.1/DTD/svg11.dtd">
<!-- Generated by graphviz version 12.2.1 (20241206.2353)
 -->
<!-- Title: Salesforce+ ERD Pages: 1 -->
<svg width="1169pt" height="458pt"
 viewBox="0.00 0.00 1168.50 457.50" xmlns="http://www.w3.org/2000/svg" xmlns:xlink="http://www.w3.org/1999/xlink">
<g id="graph0" class="graph" transform="scale(1 1) rotate(0) translate(4 453.5)">
<title>Salesforce+ ERD</title>
<polygon fill="#efeffd" stroke="none" points="-4,4 -4,-453.5 1164.5,-453.5 1164.5,4 -4,4"/>
<text text-anchor="middle" x="1113.12" y="-5.95" font-family="Courier,monospace" font-size="9.00">Salesforce ERD </text>
<!-- BundleBasedAdjustment -->
<g id="node1" class="node">
<title>BundleBasedAdjustment</title>
<g id="a_node1"><a xlink:href="#" xlink:title=" BundleBasedAdjustment ">
<polygon fill="#ffeeff" stroke="none" points="336.5,-18.5 336.5,-449.5 1160.5,-449.5 1160.5,-18.5 336.5,-18.5"/>
<polygon fill="lightblue" stroke="none" points="337.5,-429 337.5,-448.5 1159.5,-448.5 1159.5,-429 337.5,-429"/>
<polygon fill="none" stroke="#99ccff" points="337.5,-429 337.5,-448.5 1159.5,-448.5 1159.5,-429 337.5,-429"/>
<text text-anchor="start" x="677.62" y="-436.05" font-family="Courier,monospace" font-weight="bold" font-size="11.00">BundleBasedAdjustment</text>
<polygon fill="#99ccff" stroke="none" points="337.5,-409.5 337.5,-429 1065.75,-429 1065.75,-409.5 337.5,-409.5"/>
<polygon fill="none" stroke="#99ccff" points="337.5,-409.5 337.5,-429 1065.75,-429 1065.75,-409.5 337.5,-409.5"/>
<text text-anchor="start" x="340.5" y="-416.55" font-family="Courier,monospace" font-size="11.00"> &#160;&#160;&#160;&#160;&#160;&#160;&#160;&#160;&#160;&#160;&#160;&#160;&#160;&#160;&#160;&#160;&#160;&#160;&#160;&#160;&#160;&#160;&#160;&#160;&#160;&#160;&#160;&#160;&#160;&#160;&#160;&#160;&#160;&#160;&#160;&#160;&#160;&#160;&#160;&#160;&#160;&#160;</text>
<text text-anchor="start" x="630.75" y="-416.55" font-family="Courier,monospace" font-weight="bold" font-size="11.00">Id</text>
<text text-anchor="start" x="644.25" y="-416.55" font-family="Courier,monospace" font-size="11.00"> &#160;&#160;&#160;&#160;&#160;&#160;&#160;&#160;&#160;&#160;&#160;&#160;&#160;&#160;&#160;&#160;&#160;&#160;&#160;&#160;&#160;&#160;&#160;&#160;&#160;&#160;&#160;&#160;&#160;&#160;&#160;&#160;&#160;&#160;&#160;&#160;&#160;&#160;&#160;</text>
<polygon fill="none" stroke="#99ccff" points="1065.75,-409.5 1065.75,-429 1159.5,-429 1159.5,-409.5 1065.75,-409.5"/>
<text text-anchor="start" x="1092.38" y="-415.55" font-family="Courier,monospace" font-size="11.00">id(18)</text>
<polygon fill="none" stroke="#99ccff" points="337.5,-390 337.5,-409.5 1065.75,-409.5 1065.75,-390 337.5,-390"/>
<text text-anchor="start" x="340.5" y="-396.05" font-family="Courier,monospace" font-size="11.00"> &#160;&#160;&#160;&#160;&#160;&#160;&#160;&#160;&#160;&#160;&#160;&#160;&#160;&#160;&#160;&#160;&#160;&#160;&#160;&#160;&#160;&#160;&#160;&#160;&#160;&#160;&#160;&#160;&#160;&#160;&#160;&#160;&#160;&#160;&#160;&#160;&#160;&#160;&#160;&#160;IsDeleted &#160;&#160;&#160;&#160;&#160;&#160;&#160;&#160;&#160;&#160;&#160;&#160;&#160;&#160;&#160;&#160;&#160;&#160;&#160;&#160;&#160;&#160;&#160;&#160;&#160;&#160;&#160;&#160;&#160;&#160;&#160;&#160;&#160;&#160;&#160;&#160;&#160;&#160;</text>
<polygon fill="none" stroke="#99ccff" points="1065.75,-390 1065.75,-409.5 1159.5,-409.5 1159.5,-390 1065.75,-390"/>
<text text-anchor="start" x="1089" y="-396.05" font-family="Courier,monospace" font-size="11.00">boolean</text>
<polygon fill="none" stroke="#99ccff" points="337.5,-370.5 337.5,-390 1065.75,-390 1065.75,-370.5 337.5,-370.5"/>
<text text-anchor="start" x="340.5" y="-376.55" font-family="Courier,monospace" font-size="11.00"> &#160;&#160;&#160;&#160;&#160;&#160;&#160;&#160;&#160;&#160;&#160;&#160;&#160;&#160;&#160;&#160;&#160;&#160;&#160;&#160;&#160;&#160;&#160;&#160;&#160;&#160;&#160;&#160;&#160;&#160;&#160;&#160;&#160;&#160;&#160;&#160;&#160;&#160;&#160;&#160;Name &#160;&#160;&#160;&#160;&#160;&#160;&#160;&#160;&#160;&#160;&#160;&#160;&#160;&#160;&#160;&#160;&#160;&#160;&#160;&#160;&#160;&#160;&#160;&#160;&#160;&#160;&#160;&#160;&#160;&#160;&#160;&#160;&#160;&#160;&#160;&#160;&#160;&#160;</text>
<polygon fill="none" stroke="#99ccff" points="1065.75,-370.5 1065.75,-390 1159.5,-390 1159.5,-370.5 1065.75,-370.5"/>
<text text-anchor="start" x="1075.5" y="-376.55" font-family="Courier,monospace" font-size="11.00">string(255)</text>
<polygon fill="none" stroke="#99ccff" points="337.5,-351 337.5,-370.5 1065.75,-370.5 1065.75,-351 337.5,-351"/>
<text text-anchor="start" x="340.5" y="-357.05" font-family="Courier,monospace" font-size="11.00"> &#160;&#160;&#160;&#160;&#160;&#160;&#160;&#160;&#160;&#160;&#160;&#160;&#160;&#160;&#160;&#160;&#160;&#160;&#160;&#160;&#160;&#160;&#160;&#160;&#160;&#160;&#160;&#160;&#160;&#160;&#160;&#160;&#160;&#160;&#160;&#160;&#160;&#160;&#160;&#160;LastModifiedById &#160;&#160;&#160;&#160;&#160;&#160;&#160;&#160;&#160;&#160;&#160;&#160;&#160;&#160;&#160;&#160;&#160;&#160;&#160;&#160;&#160;&#160;&#160;&#160;&#160;&#160;&#160;&#160;&#160;&#160;&#160;&#160;&#160;&#160;&#160;&#160;&#160;&#160;</text>
<polygon fill="none" stroke="#99ccff" points="1065.75,-351 1065.75,-370.5 1159.5,-370.5 1159.5,-351 1065.75,-351"/>
<text text-anchor="start" x="1068.75" y="-357.05" font-family="Courier,monospace" font-size="11.00">reference(18)</text>
<polygon fill="none" stroke="#99ccff" points="337.5,-331.5 337.5,-351 1065.75,-351 1065.75,-331.5 337.5,-331.5"/>
<text text-anchor="start" x="340.5" y="-337.55" font-family="Courier,monospace" font-size="11.00"> &#160;&#160;&#160;&#160;&#160;&#160;&#160;&#160;&#160;&#160;&#160;&#160;&#160;&#160;&#160;&#160;&#160;&#160;&#160;&#160;&#160;&#160;&#160;&#160;&#160;&#160;&#160;&#160;&#160;&#160;&#160;&#160;&#160;&#160;&#160;&#160;&#160;&#160;&#160;&#160;LastViewedDate &#160;&#160;&#160;&#160;&#160;&#160;&#160;&#160;&#160;&#160;&#160;&#160;&#160;&#160;&#160;&#160;&#160;&#160;&#160;&#160;&#160;&#160;&#160;&#160;&#160;&#160;&#160;&#160;&#160;&#160;&#160;&#160;&#160;&#160;&#160;&#160;&#160;&#160;</text>
<polygon fill="none" stroke="#99ccff" points="1065.75,-331.5 1065.75,-351 1159.5,-351 1159.5,-331.5 1065.75,-331.5"/>
<text text-anchor="start" x="1085.62" y="-337.55" font-family="Courier,monospace" font-size="11.00">datetime</text>
<polygon fill="none" stroke="#99ccff" points="337.5,-312 337.5,-331.5 1065.75,-331.5 1065.75,-312 337.5,-312"/>
<text text-anchor="start" x="340.5" y="-318.05" font-family="Courier,monospace" font-size="11.00"> &#160;&#160;&#160;&#160;&#160;&#160;&#160;&#160;&#160;&#160;&#160;&#160;&#160;&#160;&#160;&#160;&#160;&#160;&#160;&#160;&#160;&#160;&#160;&#160;&#160;&#160;&#160;&#160;&#160;&#160;&#160;&#160;&#160;&#160;&#160;&#160;&#160;&#160;&#160;&#160;LastReferencedDate &#160;&#160;&#160;&#160;&#160;&#160;&#160;&#160;&#160;&#160;&#160;&#160;&#160;&#160;&#160;&#160;&#160;&#160;&#160;&#160;&#160;&#160;&#160;&#160;&#160;&#160;&#160;&#160;&#160;&#160;&#160;&#160;&#160;&#160;&#160;&#160;&#160;&#160;</text>
<polygon fill="none" stroke="#99ccff" points="1065.75,-312 1065.75,-331.5 1159.5,-331.5 1159.5,-312 1065.75,-312"/>
<text text-anchor="start" x="1085.62" y="-318.05" font-family="Courier,monospace" font-size="11.00">datetime</text>
<polygon fill="none" stroke="#99ccff" points="337.5,-292.5 337.5,-312 1065.75,-312 1065.75,-292.5 337.5,-292.5"/>
<text text-anchor="start" x="340.5" y="-298.55" font-family="Courier,monospace" font-size="11.00"> &#160;&#160;&#160;&#160;&#160;&#160;&#160;&#160;&#160;&#160;&#160;&#160;&#160;&#160;&#160;&#160;&#160;&#160;&#160;&#160;&#160;&#160;&#160;&#160;&#160;&#160;&#160;&#160;&#160;&#160;&#160;&#160;&#160;&#160;&#160;&#160;&#160;&#160;&#160;&#160;PriceAdjustmentScheduleId &#160;&#160;&#160;&#160;&#160;&#160;&#160;&#160;&#160;&#160;&#160;&#160;&#160;&#160;&#160;&#160;&#160;&#160;&#160;&#160;&#160;&#160;&#160;&#160;&#160;&#160;&#160;&#160;&#160;&#160;&#160;&#160;&#160;&#160;&#160;&#160;&#160;&#160;</text>
<polygon fill="none" stroke="#99ccff" points="1065.75,-292.5 1065.75,-312 1159.5,-312 1159.5,-292.5 1065.75,-292.5"/>
<text text-anchor="start" x="1068.75" y="-298.55" font-family="Courier,monospace" font-size="11.00">reference(18)</text>
<polygon fill="none" stroke="#99ccff" points="337.5,-273 337.5,-292.5 1065.75,-292.5 1065.75,-273 337.5,-273"/>
<text text-anchor="start" x="340.5" y="-279.05" font-family="Courier,monospace" font-size="11.00"> &#160;&#160;&#160;&#160;&#160;&#160;&#160;&#160;&#160;&#160;&#160;&#160;&#160;&#160;&#160;&#160;&#160;&#160;&#160;&#160;&#160;&#160;&#160;&#160;&#160;&#160;&#160;&#160;&#160;&#160;&#160;&#160;&#160;&#160;&#160;&#160;&#160;&#160;&#160;&#160;ProductId &#160;&#160;&#160;&#160;&#160;&#160;&#160;&#160;&#160;&#160;&#160;&#160;&#160;&#160;&#160;&#160;&#160;&#160;&#160;&#160;&#160;&#160;&#160;&#160;&#160;&#160;&#160;&#160;&#160;&#160;&#160;&#160;&#160;&#160;&#160;&#160;&#160;&#160;</text>
<polygon fill="none" stroke="#99ccff" points="1065.75,-273 1065.75,-292.5 1159.5,-292.5 1159.5,-273 1065.75,-273"/>
<text text-anchor="start" x="1068.75" y="-279.05" font-family="Courier,monospace" font-size="11.00">reference(18)</text>
<polygon fill="none" stroke="#99ccff" points="337.5,-253.5 337.5,-273 1065.75,-273 1065.75,-253.5 337.5,-253.5"/>
<text text-anchor="start" x="340.5" y="-259.55" font-family="Courier,monospace" font-size="11.00"> &#160;&#160;&#160;&#160;&#160;&#160;&#160;&#160;&#160;&#160;&#160;&#160;&#160;&#160;&#160;&#160;&#160;&#160;&#160;&#160;&#160;&#160;&#160;&#160;&#160;&#160;&#160;&#160;&#160;&#160;&#160;&#160;&#160;&#160;&#160;&#160;&#160;&#160;&#160;&#160;ProductSellingModelId &#160;&#160;&#160;&#160;&#160;&#160;&#160;&#160;&#160;&#160;&#160;&#160;&#160;&#160;&#160;&#160;&#160;&#160;&#160;&#160;&#160;&#160;&#160;&#160;&#160;&#160;&#160;&#160;&#160;&#160;&#160;&#160;&#160;&#160;&#160;&#160;&#160;&#160;</text>
<polygon fill="none" stroke="#99ccff" points="1065.75,-253.5 1065.75,-273 1159.5,-273 1159.5,-253.5 1065.75,-253.5"/>
<text text-anchor="start" x="1068.75" y="-259.55" font-family="Courier,monospace" font-size="11.00">reference(18)</text>
<polygon fill="none" stroke="#99ccff" points="337.5,-234 337.5,-253.5 1065.75,-253.5 1065.75,-234 337.5,-234"/>
<text text-anchor="start" x="340.5" y="-240.05" font-family="Courier,monospace" font-size="11.00"> &#160;&#160;&#160;&#160;&#160;&#160;&#160;&#160;&#160;&#160;&#160;&#160;&#160;&#160;&#160;&#160;&#160;&#160;&#160;&#160;&#160;&#160;&#160;&#160;&#160;&#160;&#160;&#160;&#160;&#160;&#160;&#160;&#160;&#160;&#160;&#160;&#160;&#160;&#160;&#160;ParentProductSellingModelId &#160;&#160;&#160;&#160;&#160;&#160;&#160;&#160;&#160;&#160;&#160;&#160;&#160;&#160;&#160;&#160;&#160;&#160;&#160;&#160;&#160;&#160;&#160;&#160;&#160;&#160;&#160;&#160;&#160;&#160;&#160;&#160;&#160;&#160;&#160;&#160;&#160;&#160;</text>
<polygon fill="none" stroke="#99ccff" points="1065.75,-234 1065.75,-253.5 1159.5,-253.5 1159.5,-234 1065.75,-234"/>
<text text-anchor="start" x="1068.75" y="-240.05" font-family="Courier,monospace" font-size="11.00">reference(18)</text>
<polygon fill="none" stroke="#99ccff" points="337.5,-214.5 337.5,-234 1065.75,-234 1065.75,-214.5 337.5,-214.5"/>
<text text-anchor="start" x="340.5" y="-220.55" font-family="Courier,monospace" font-size="11.00"> &#160;&#160;&#160;&#160;&#160;&#160;&#160;&#160;&#160;&#160;&#160;&#160;&#160;&#160;&#160;&#160;&#160;&#160;&#160;&#160;&#160;&#160;&#160;&#160;&#160;&#160;&#160;&#160;&#160;&#160;&#160;&#160;&#160;&#160;&#160;&#160;&#160;&#160;&#160;&#160;RootProductSellingModelId &#160;&#160;&#160;&#160;&#160;&#160;&#160;&#160;&#160;&#160;&#160;&#160;&#160;&#160;&#160;&#160;&#160;&#160;&#160;&#160;&#160;&#160;&#160;&#160;&#160;&#160;&#160;&#160;&#160;&#160;&#160;&#160;&#160;&#160;&#160;&#160;&#160;&#160;</text>
<polygon fill="none" stroke="#99ccff" points="1065.75,-214.5 1065.75,-234 1159.5,-234 1159.5,-214.5 1065.75,-214.5"/>
<text text-anchor="start" x="1068.75" y="-220.55" font-family="Courier,monospace" font-size="11.00">reference(18)</text>
<polygon fill="none" stroke="#99ccff" points="337.5,-195 337.5,-214.5 1065.75,-214.5 1065.75,-195 337.5,-195"/>
<text text-anchor="start" x="340.5" y="-201.05" font-family="Courier,monospace" font-size="11.00"> &#160;&#160;&#160;&#160;&#160;&#160;&#160;&#160;&#160;&#160;&#160;&#160;&#160;&#160;&#160;&#160;&#160;&#160;&#160;&#160;&#160;&#160;&#160;&#160;&#160;&#160;&#160;&#160;&#160;&#160;&#160;&#160;&#160;&#160;&#160;&#160;&#160;&#160;&#160;&#160;SellingModelType &#160;&#160;&#160;&#160;&#160;&#160;&#160;&#160;&#160;&#160;&#160;&#160;&#160;&#160;&#160;&#160;&#160;&#160;&#160;&#160;&#160;&#160;&#160;&#160;&#160;&#160;&#160;&#160;&#160;&#160;&#160;&#160;&#160;&#160;&#160;&#160;&#160;&#160;</text>
<polygon fill="none" stroke="#99ccff" points="1065.75,-195 1065.75,-214.5 1159.5,-214.5 1159.5,-195 1065.75,-195"/>
<text text-anchor="start" x="1068.75" y="-201.05" font-family="Courier,monospace" font-size="11.00">picklist(255)</text>
<polygon fill="none" stroke="#99ccff" points="337.5,-175.5 337.5,-195 1065.75,-195 1065.75,-175.5 337.5,-175.5"/>
<text text-anchor="start" x="340.5" y="-181.55" font-family="Courier,monospace" font-size="11.00"> &#160;&#160;&#160;&#160;&#160;&#160;&#160;&#160;&#160;&#160;&#160;&#160;&#160;&#160;&#160;&#160;&#160;&#160;&#160;&#160;&#160;&#160;&#160;&#160;&#160;&#160;&#160;&#160;&#160;&#160;&#160;&#160;&#160;&#160;&#160;&#160;&#160;&#160;&#160;&#160;EffectiveFrom &#160;&#160;&#160;&#160;&#160;&#160;&#160;&#160;&#160;&#160;&#160;&#160;&#160;&#160;&#160;&#160;&#160;&#160;&#160;&#160;&#160;&#160;&#160;&#160;&#160;&#160;&#160;&#160;&#160;&#160;&#160;&#160;&#160;&#160;&#160;&#160;&#160;&#160;</text>
<polygon fill="none" stroke="#99ccff" points="1065.75,-175.5 1065.75,-195 1159.5,-195 1159.5,-175.5 1065.75,-175.5"/>
<text text-anchor="start" x="1085.62" y="-181.55" font-family="Courier,monospace" font-size="11.00">datetime</text>
<polygon fill="none" stroke="#99ccff" points="337.5,-156 337.5,-175.5 1065.75,-175.5 1065.75,-156 337.5,-156"/>
<text text-anchor="start" x="340.5" y="-162.05" font-family="Courier,monospace" font-size="11.00"> &#160;&#160;&#160;&#160;&#160;&#160;&#160;&#160;&#160;&#160;&#160;&#160;&#160;&#160;&#160;&#160;&#160;&#160;&#160;&#160;&#160;&#160;&#160;&#160;&#160;&#160;&#160;&#160;&#160;&#160;&#160;&#160;&#160;&#160;&#160;&#160;&#160;&#160;&#160;&#160;EffectiveTo &#160;&#160;&#160;&#160;&#160;&#160;&#160;&#160;&#160;&#160;&#160;&#160;&#160;&#160;&#160;&#160;&#160;&#160;&#160;&#160;&#160;&#160;&#160;&#160;&#160;&#160;&#160;&#160;&#160;&#160;&#160;&#160;&#160;&#160;&#160;&#160;&#160;&#160;</text>
<polygon fill="none" stroke="#99ccff" points="1065.75,-156 1065.75,-175.5 1159.5,-175.5 1159.5,-156 1065.75,-156"/>
<text text-anchor="start" x="1085.62" y="-162.05" font-family="Courier,monospace" font-size="11.00">datetime</text>
<polygon fill="none" stroke="#99ccff" points="337.5,-136.5 337.5,-156 1065.75,-156 1065.75,-136.5 337.5,-136.5"/>
<text text-anchor="start" x="340.5" y="-142.55" font-family="Courier,monospace" font-size="11.00"> &#160;&#160;&#160;&#160;&#160;&#160;&#160;&#160;&#160;&#160;&#160;&#160;&#160;&#160;&#160;&#160;&#160;&#160;&#160;&#160;&#160;&#160;&#160;&#160;&#160;&#160;&#160;&#160;&#160;&#160;&#160;&#160;&#160;&#160;&#160;&#160;&#160;&#160;&#160;&#160;AdjustmentType &#160;&#160;&#160;&#160;&#160;&#160;&#160;&#160;&#160;&#160;&#160;&#160;&#160;&#160;&#160;&#160;&#160;&#160;&#160;&#160;&#160;&#160;&#160;&#160;&#160;&#160;&#160;&#160;&#160;&#160;&#160;&#160;&#160;&#160;&#160;&#160;&#160;&#160;</text>
<polygon fill="none" stroke="#99ccff" points="1065.75,-136.5 1065.75,-156 1159.5,-156 1159.5,-136.5 1065.75,-136.5"/>
<text text-anchor="start" x="1068.75" y="-142.55" font-family="Courier,monospace" font-size="11.00">picklist(255)</text>
<polygon fill="none" stroke="#99ccff" points="337.5,-117 337.5,-136.5 1065.75,-136.5 1065.75,-117 337.5,-117"/>
<text text-anchor="start" x="340.5" y="-123.05" font-family="Courier,monospace" font-size="11.00"> &#160;&#160;&#160;&#160;&#160;&#160;&#160;&#160;&#160;&#160;&#160;&#160;&#160;&#160;&#160;&#160;&#160;&#160;&#160;&#160;&#160;&#160;&#160;&#160;&#160;&#160;&#160;&#160;&#160;&#160;&#160;&#160;&#160;&#160;&#160;&#160;&#160;&#160;&#160;&#160;AdjustmentValue &#160;&#160;&#160;&#160;&#160;&#160;&#160;&#160;&#160;&#160;&#160;&#160;&#160;&#160;&#160;&#160;&#160;&#160;&#160;&#160;&#160;&#160;&#160;&#160;&#160;&#160;&#160;&#160;&#160;&#160;&#160;&#160;&#160;&#160;&#160;&#160;&#160;&#160;</text>
<polygon fill="none" stroke="#99ccff" points="1065.75,-117 1065.75,-136.5 1159.5,-136.5 1159.5,-117 1065.75,-117"/>
<text text-anchor="start" x="1092.38" y="-123.05" font-family="Courier,monospace" font-size="11.00">double</text>
<polygon fill="none" stroke="#99ccff" points="337.5,-97.5 337.5,-117 1065.75,-117 1065.75,-97.5 337.5,-97.5"/>
<text text-anchor="start" x="340.5" y="-103.55" font-family="Courier,monospace" font-size="11.00"> &#160;&#160;&#160;&#160;&#160;&#160;&#160;&#160;&#160;&#160;&#160;&#160;&#160;&#160;&#160;&#160;&#160;&#160;&#160;&#160;&#160;&#160;&#160;&#160;&#160;&#160;&#160;&#160;&#160;&#160;&#160;&#160;&#160;&#160;&#160;&#160;&#160;&#160;&#160;&#160;PricingTermUnit &#160;&#160;&#160;&#160;&#160;&#160;&#160;&#160;&#160;&#160;&#160;&#160;&#160;&#160;&#160;&#160;&#160;&#160;&#160;&#160;&#160;&#160;&#160;&#160;&#160;&#160;&#160;&#160;&#160;&#160;&#160;&#160;&#160;&#160;&#160;&#160;&#160;&#160;</text>
<polygon fill="none" stroke="#99ccff" points="1065.75,-97.5 1065.75,-117 1159.5,-117 1159.5,-97.5 1065.75,-97.5"/>
<text text-anchor="start" x="1068.75" y="-103.55" font-family="Courier,monospace" font-size="11.00">picklist(255)</text>
<polygon fill="none" stroke="#99ccff" points="337.5,-78 337.5,-97.5 1065.75,-97.5 1065.75,-78 337.5,-78"/>
<text text-anchor="start" x="340.5" y="-84.05" font-family="Courier,monospace" font-size="11.00"> &#160;&#160;&#160;&#160;&#160;&#160;&#160;&#160;&#160;&#160;&#160;&#160;&#160;&#160;&#160;&#160;&#160;&#160;&#160;&#160;&#160;&#160;&#160;&#160;&#160;&#160;&#160;&#160;&#160;&#160;&#160;&#160;&#160;&#160;&#160;&#160;&#160;&#160;&#160;&#160;PricingTerm &#160;&#160;&#160;&#160;&#160;&#160;&#160;&#160;&#160;&#160;&#160;&#160;&#160;&#160;&#160;&#160;&#160;&#160;&#160;&#160;&#160;&#160;&#160;&#160;&#160;&#160;&#160;&#160;&#160;&#160;&#160;&#160;&#160;&#160;&#160;&#160;&#160;&#160;</text>
<polygon fill="none" stroke="#99ccff" points="1065.75,-78 1065.75,-97.5 1159.5,-97.5 1159.5,-78 1065.75,-78"/>
<text text-anchor="start" x="1102.5" y="-84.05" font-family="Courier,monospace" font-size="11.00">int</text>
<polygon fill="none" stroke="#99ccff" points="337.5,-58.5 337.5,-78 1065.75,-78 1065.75,-58.5 337.5,-58.5"/>
<text text-anchor="start" x="340.5" y="-64.55" font-family="Courier,monospace" font-size="11.00"> &#160;&#160;&#160;&#160;&#160;&#160;&#160;&#160;&#160;&#160;&#160;&#160;&#160;&#160;&#160;&#160;&#160;&#160;&#160;&#160;&#160;&#160;&#160;&#160;&#160;&#160;&#160;&#160;&#160;&#160;&#160;&#160;&#160;&#160;&#160;&#160;&#160;&#160;&#160;&#160;ParentProductId &#160;&#160;&#160;&#160;&#160;&#160;&#160;&#160;&#160;&#160;&#160;&#160;&#160;&#160;&#160;&#160;&#160;&#160;&#160;&#160;&#160;&#160;&#160;&#160;&#160;&#160;&#160;&#160;&#160;&#160;&#160;&#160;&#160;&#160;&#160;&#160;&#160;&#160;</text>
<polygon fill="none" stroke="#99ccff" points="1065.75,-58.5 1065.75,-78 1159.5,-78 1159.5,-58.5 1065.75,-58.5"/>
<text text-anchor="start" x="1068.75" y="-64.55" font-family="Courier,monospace" font-size="11.00">reference(18)</text>
<polygon fill="none" stroke="#99ccff" points="337.5,-39 337.5,-58.5 1065.75,-58.5 1065.75,-39 337.5,-39"/>
<text text-anchor="start" x="340.5" y="-45.05" font-family="Courier,monospace" font-size="11.00"> &#160;&#160;&#160;&#160;&#160;&#160;&#160;&#160;&#160;&#160;&#160;&#160;&#160;&#160;&#160;&#160;&#160;&#160;&#160;&#160;&#160;&#160;&#160;&#160;&#160;&#160;&#160;&#160;&#160;&#160;&#160;&#160;&#160;&#160;&#160;&#160;&#160;&#160;&#160;&#160;RootBundleId &#160;&#160;&#160;&#160;&#160;&#160;&#160;&#160;&#160;&#160;&#160;&#160;&#160;&#160;&#160;&#160;&#160;&#160;&#160;&#160;&#160;&#160;&#160;&#160;&#160;&#160;&#160;&#160;&#160;&#160;&#160;&#160;&#160;&#160;&#160;&#160;&#160;&#160;</text>
<polygon fill="none" stroke="#99ccff" points="1065.75,-39 1065.75,-58.5 1159.5,-58.5 1159.5,-39 1065.75,-39"/>
<text text-anchor="start" x="1068.75" y="-45.05" font-family="Courier,monospace" font-size="11.00">reference(18)</text>
<polygon fill="none" stroke="#99ccff" points="337.5,-19.5 337.5,-39 1065.75,-39 1065.75,-19.5 337.5,-19.5"/>
<text text-anchor="start" x="340.5" y="-25.55" font-family="Courier,monospace" font-size="11.00"> &#160;&#160;&#160;&#160;&#160;&#160;&#160;&#160;&#160;&#160;&#160;&#160;&#160;&#160;&#160;&#160;&#160;&#160;&#160;&#160;&#160;&#160;&#160;&#160;&#160;&#160;&#160;&#160;&#160;&#160;&#160;&#160;&#160;&#160;&#160;&#160;&#160;&#160;&#160;&#160;ScheduleType &#160;&#160;&#160;&#160;&#160;&#160;&#160;&#160;&#160;&#160;&#160;&#160;&#160;&#160;&#160;&#160;&#160;&#160;&#160;&#160;&#160;&#160;&#160;&#160;&#160;&#160;&#160;&#160;&#160;&#160;&#160;&#160;&#160;&#160;&#160;&#160;&#160;&#160;</text>
<polygon fill="none" stroke="#99ccff" points="1065.75,-19.5 1065.75,-39 1159.5,-39 1159.5,-19.5 1065.75,-19.5"/>
<text text-anchor="start" x="1068.75" y="-25.55" font-family="Courier,monospace" font-size="11.00">picklist(255)</text>
<polygon fill="none" stroke="#99ccff" points="336.5,-18.5 336.5,-449.5 1160.5,-449.5 1160.5,-18.5 336.5,-18.5"/>
</a>
</g>
</g>
<!-- User -->
<g id="node2" class="node">
<title>User</title>
<text text-anchor="middle" x="85.62" y="-356.3" font-family="Courier,monospace" font-size="11.00">User</text>
</g>
<!-- BundleBasedAdjustment&#45;&gt;User -->
<g id="edge1" class="edge">
<title>BundleBasedAdjustment:w&#45;&gt;User:e</title>
<path fill="none" stroke="#ff99cc" d="M321.01,-360.75C242.82,-360.7 155.06,-360.33 112.52,-360.13"/>
<polygon fill="#ff99cc" stroke="#ff99cc" points="328.17,-360.75 336.16,-364.35 332.5,-360.75 335.83,-360.75 335.83,-360.75 335.83,-360.75 332.5,-360.75 336.17,-357.15 328.17,-360.75"/>
<ellipse fill="none" stroke="#ff99cc" cx="323.25" cy="-360.75" rx="3.2" ry="3.2"/>
<text text-anchor="middle" x="253.88" y="-363.44" font-family="Monaco" font-size="9.00">LastModifiedBy</text>
</g>
<!-- PriceAdjustmentSchedule -->
<g id="node3" class="node">
<title>PriceAdjustmentSchedule</title>
<text text-anchor="middle" x="85.62" y="-307.3" font-family="Courier,monospace" font-size="11.00">PriceAdjustmentSchedule</text>
</g>
<!-- BundleBasedAdjustment&#45;&gt;PriceAdjustmentSchedule -->
<g id="edge2" class="edge">
<title>BundleBasedAdjustment:w&#45;&gt;PriceAdjustmentSchedule:e</title>
<path fill="none" stroke="#ff99cc" d="M320.83,-302.31C269.88,-302.65 214.91,-304.61 171.03,-306.57"/>
<polygon fill="#ff99cc" stroke="#ff99cc" points="328.17,-302.28 336.18,-305.85 332.5,-302.26 335.83,-302.25 335.83,-302.25 335.83,-302.25 332.5,-302.26 336.15,-298.65 328.17,-302.28"/>
<ellipse fill="none" stroke="#ff99cc" cx="323.25" cy="-302.3" rx="3.2" ry="3.2"/>
<text text-anchor="middle" x="253.88" y="-308.28" font-family="Monaco" font-size="9.00">PriceAdjustmentSchedule</text>
</g>
<!-- Product2 -->
<g id="node4" class="node">
<title>Product2</title>
<text text-anchor="middle" x="85.62" y="-74.3" font-family="Courier,monospace" font-size="11.00">Product2</text>
</g>
<!-- BundleBasedAdjustment&#45;&gt;Product2 -->
<g id="edge3" class="edge">
<title>BundleBasedAdjustment:w&#45;&gt;Product2:e</title>
<path fill="none" stroke="#ff99cc" d="M320.83,-282.89C280.86,-283.37 209.99,-283.95 188.25,-265 165.74,-245.38 183.73,-227.13 171.25,-200 152.72,-159.72 120.89,-118.49 101.99,-95.78"/>
<polygon fill="#ff99cc" stroke="#ff99cc" points="328.17,-282.83 336.2,-286.35 332.5,-282.79 335.83,-282.76 335.83,-282.76 335.83,-282.76 332.5,-282.79 336.13,-279.15 328.17,-282.83"/>
<ellipse fill="none" stroke="#ff99cc" cx="323.25" cy="-282.87" rx="3.2" ry="3.2"/>
<text text-anchor="middle" x="253.88" y="-285.75" font-family="Monaco" font-size="9.00">Product</text>
</g>
<!-- BundleBasedAdjustment&#45;&gt;Product2 -->
<g id="edge7" class="edge">
<title>BundleBasedAdjustment:w&#45;&gt;Product2:e</title>
<path fill="none" stroke="#ff99cc" d="M320.94,-68.31C247.38,-68.87 165.41,-73.15 120.56,-75.84"/>
<polygon fill="#ff99cc" stroke="#ff99cc" points="328.17,-68.28 336.18,-71.85 332.5,-68.27 335.83,-68.25 335.83,-68.25 335.83,-68.25 332.5,-68.27 336.15,-64.65 328.17,-68.28"/>
<ellipse fill="none" stroke="#ff99cc" cx="323.25" cy="-68.3" rx="3.2" ry="3.2"/>
<text text-anchor="middle" x="253.88" y="-74.66" font-family="Monaco" font-size="9.00">ParentProduct</text>
</g>
<!-- BundleBasedAdjustment&#45;&gt;Product2 -->
<g id="edge8" class="edge">
<title>BundleBasedAdjustment:w&#45;&gt;Product2:e</title>
<path fill="none" stroke="#ff99cc" d="M320.87,-48.68C267.38,-48.2 248.1,-45.68 188.25,-53.75 165.24,-56.85 139.83,-62.91 120.18,-68.2"/>
<polygon fill="#ff99cc" stroke="#ff99cc" points="328.17,-48.71 336.15,-52.35 332.5,-48.73 335.83,-48.75 335.83,-48.75 335.83,-48.75 332.5,-48.73 336.18,-45.15 328.17,-48.71"/>
<ellipse fill="none" stroke="#ff99cc" cx="323.25" cy="-48.69" rx="3.2" ry="3.2"/>
<text text-anchor="middle" x="253.88" y="-56.45" font-family="Monaco" font-size="9.00">RootBundle</text>
</g>
<!-- ProductSellingModel -->
<g id="node5" class="node">
<title>ProductSellingModel</title>
<text text-anchor="middle" x="85.62" y="-220.3" font-family="Courier,monospace" font-size="11.00">ProductSellingModel</text>
</g>
<!-- BundleBasedAdjustment&#45;&gt;ProductSellingModel -->
<g id="edge4" class="edge">
<title>BundleBasedAdjustment:w&#45;&gt;ProductSellingModel:e</title>
<path fill="none" stroke="#ff99cc" d="M322.5,-255.98C321.62,-255.52 320.64,-255.1 319.5,-254.75 311.73,-252.37 223.24,-241.02 157.63,-232.8"/>
<polygon fill="#ff99cc" stroke="#ff99cc" points="329.1,-259.41 334.54,-266.29 332.95,-261.41 335.91,-262.94 335.91,-262.94 335.91,-262.94 332.95,-261.41 337.86,-259.9 329.1,-259.41"/>
<ellipse fill="none" stroke="#ff99cc" cx="324.74" cy="-257.14" rx="3.2" ry="3.2"/>
<text text-anchor="middle" x="253.88" y="-257.45" font-family="Monaco" font-size="9.00">ProductSellingModel</text>
</g>
<!-- BundleBasedAdjustment&#45;&gt;ProductSellingModel -->
<g id="edge5" class="edge">
<title>BundleBasedAdjustment:w&#45;&gt;ProductSellingModel:e</title>
<path fill="none" stroke="#ff99cc" d="M326.48,-231.67C325.28,-228.13 323.56,-224.69 319.5,-222.75 266.85,-197.63 246.58,-222.39 188.25,-222.75 178.37,-222.81 167.95,-222.9 157.7,-223.01"/>
<polygon fill="#ff99cc" stroke="#ff99cc" points="331.18,-237.34 333.52,-245.79 333.95,-240.67 336.07,-243.24 336.07,-243.24 336.07,-243.24 333.95,-240.67 339.06,-241.19 331.18,-237.34"/>
<ellipse fill="none" stroke="#ff99cc" cx="328.04" cy="-233.55" rx="3.2" ry="3.2"/>
<text text-anchor="middle" x="253.88" y="-225.45" font-family="Monaco" font-size="9.00">ParentProductSellingModel</text>
</g>
<!-- BundleBasedAdjustment&#45;&gt;ProductSellingModel -->
<g id="edge6" class="edge">
<title>BundleBasedAdjustment:w&#45;&gt;ProductSellingModel:e</title>
<path fill="none" stroke="#ff99cc" d="M327.04,-211.59C326.16,-206.32 324.97,-200.74 319.5,-197.75 268.31,-169.77 246.12,-190.4 188.25,-197.75 174.33,-199.52 159.59,-202.6 145.78,-206.04"/>
<polygon fill="#ff99cc" stroke="#ff99cc" points="331.51,-217.57 333.42,-226.14 334.11,-221.05 336.1,-223.71 336.1,-223.71 336.1,-223.71 334.11,-221.05 339.18,-221.83 331.51,-217.57"/>
<ellipse fill="none" stroke="#ff99cc" cx="328.57" cy="-213.63" rx="3.2" ry="3.2"/>
<text text-anchor="middle" x="253.88" y="-200.45" font-family="Monaco" font-size="9.00">RootProductSellingModel</text>
</g>
</g>
</svg>
