<?xml version="1.0" encoding="UTF-8" standalone="no"?>
<!DOCTYPE svg PUBLIC "-//W3C//DTD SVG 1.1//EN"
 "http://www.w3.org/Graphics/SVG/1.1/DTD/svg11.dtd">
<!-- Generated by graphviz version 12.2.1 (20241206.2353)
 -->
<!-- Title: Salesforce+ ERD Pages: 1 -->
<svg width="1046pt" height="302pt"
 viewBox="0.00 0.00 1045.50 301.50" xmlns="http://www.w3.org/2000/svg" xmlns:xlink="http://www.w3.org/1999/xlink">
<g id="graph0" class="graph" transform="scale(1 1) rotate(0) translate(4 297.5)">
<title>Salesforce+ ERD</title>
<polygon fill="#efeffd" stroke="none" points="-4,4 -4,-297.5 1041.5,-297.5 1041.5,4 -4,4"/>
<text text-anchor="middle" x="990.12" y="-5.95" font-family="Courier,monospace" font-size="9.00">Salesforce ERD </text>
<!-- CalculationMatrixColumn -->
<g id="node1" class="node">
<title>CalculationMatrixColumn</title>
<g id="a_node1"><a xlink:href="#" xlink:title=" CalculationMatrixColumn ">
<polygon fill="#ffeeff" stroke="none" points="254,-18.5 254,-293.5 1037.5,-293.5 1037.5,-18.5 254,-18.5"/>
<polygon fill="lightblue" stroke="none" points="255,-273 255,-292.5 1036.5,-292.5 1036.5,-273 255,-273"/>
<polygon fill="none" stroke="#99ccff" points="255,-273 255,-292.5 1036.5,-292.5 1036.5,-273 255,-273"/>
<text text-anchor="start" x="568.12" y="-280.05" font-family="Courier,monospace" font-weight="bold" font-size="11.00">CalculationMatrixColumn</text>
<polygon fill="#99ccff" stroke="none" points="255,-253.5 255,-273 929.25,-273 929.25,-253.5 255,-253.5"/>
<polygon fill="none" stroke="#99ccff" points="255,-253.5 255,-273 929.25,-273 929.25,-253.5 255,-253.5"/>
<text text-anchor="start" x="258" y="-260.55" font-family="Courier,monospace" font-size="11.00"> &#160;&#160;&#160;&#160;&#160;&#160;&#160;&#160;&#160;&#160;&#160;&#160;&#160;&#160;&#160;&#160;&#160;&#160;&#160;&#160;&#160;&#160;&#160;&#160;&#160;&#160;&#160;&#160;&#160;&#160;&#160;&#160;&#160;&#160;&#160;&#160;&#160;&#160;&#160;&#160;&#160;&#160;</text>
<text text-anchor="start" x="548.25" y="-260.55" font-family="Courier,monospace" font-weight="bold" font-size="11.00">Id</text>
<text text-anchor="start" x="561.75" y="-260.55" font-family="Courier,monospace" font-size="11.00"> &#160;&#160;&#160;&#160;&#160;&#160;&#160;&#160;&#160;&#160;&#160;&#160;&#160;&#160;&#160;&#160;&#160;&#160;&#160;&#160;&#160;&#160;&#160;&#160;&#160;&#160;&#160;&#160;&#160;&#160;&#160;&#160;&#160;&#160;&#160;&#160;&#160;&#160;&#160;</text>
<polygon fill="none" stroke="#99ccff" points="929.25,-253.5 929.25,-273 1036.5,-273 1036.5,-253.5 929.25,-253.5"/>
<text text-anchor="start" x="962.62" y="-259.55" font-family="Courier,monospace" font-size="11.00">id(18)</text>
<polygon fill="none" stroke="#99ccff" points="255,-234 255,-253.5 929.25,-253.5 929.25,-234 255,-234"/>
<text text-anchor="start" x="258" y="-240.05" font-family="Courier,monospace" font-size="11.00"> &#160;&#160;&#160;&#160;&#160;&#160;&#160;&#160;&#160;&#160;&#160;&#160;&#160;&#160;&#160;&#160;&#160;&#160;&#160;&#160;&#160;&#160;&#160;&#160;&#160;&#160;&#160;&#160;&#160;&#160;&#160;&#160;&#160;&#160;&#160;&#160;&#160;&#160;&#160;&#160;IsDeleted &#160;&#160;&#160;&#160;&#160;&#160;&#160;&#160;&#160;&#160;&#160;&#160;&#160;&#160;&#160;&#160;&#160;&#160;&#160;&#160;&#160;&#160;&#160;&#160;&#160;&#160;&#160;&#160;&#160;&#160;&#160;&#160;&#160;&#160;&#160;&#160;&#160;&#160;</text>
<polygon fill="none" stroke="#99ccff" points="929.25,-234 929.25,-253.5 1036.5,-253.5 1036.5,-234 929.25,-234"/>
<text text-anchor="start" x="959.25" y="-240.05" font-family="Courier,monospace" font-size="11.00">boolean</text>
<polygon fill="none" stroke="#99ccff" points="255,-214.5 255,-234 929.25,-234 929.25,-214.5 255,-214.5"/>
<text text-anchor="start" x="258" y="-220.55" font-family="Courier,monospace" font-size="11.00"> &#160;&#160;&#160;&#160;&#160;&#160;&#160;&#160;&#160;&#160;&#160;&#160;&#160;&#160;&#160;&#160;&#160;&#160;&#160;&#160;&#160;&#160;&#160;&#160;&#160;&#160;&#160;&#160;&#160;&#160;&#160;&#160;&#160;&#160;&#160;&#160;&#160;&#160;&#160;&#160;Name &#160;&#160;&#160;&#160;&#160;&#160;&#160;&#160;&#160;&#160;&#160;&#160;&#160;&#160;&#160;&#160;&#160;&#160;&#160;&#160;&#160;&#160;&#160;&#160;&#160;&#160;&#160;&#160;&#160;&#160;&#160;&#160;&#160;&#160;&#160;&#160;&#160;&#160;</text>
<polygon fill="none" stroke="#99ccff" points="929.25,-214.5 929.25,-234 1036.5,-234 1036.5,-214.5 929.25,-214.5"/>
<text text-anchor="start" x="945.75" y="-220.55" font-family="Courier,monospace" font-size="11.00">string(255)</text>
<polygon fill="none" stroke="#99ccff" points="255,-195 255,-214.5 929.25,-214.5 929.25,-195 255,-195"/>
<text text-anchor="start" x="258" y="-201.05" font-family="Courier,monospace" font-size="11.00"> &#160;&#160;&#160;&#160;&#160;&#160;&#160;&#160;&#160;&#160;&#160;&#160;&#160;&#160;&#160;&#160;&#160;&#160;&#160;&#160;&#160;&#160;&#160;&#160;&#160;&#160;&#160;&#160;&#160;&#160;&#160;&#160;&#160;&#160;&#160;&#160;&#160;&#160;&#160;&#160;LastModifiedById &#160;&#160;&#160;&#160;&#160;&#160;&#160;&#160;&#160;&#160;&#160;&#160;&#160;&#160;&#160;&#160;&#160;&#160;&#160;&#160;&#160;&#160;&#160;&#160;&#160;&#160;&#160;&#160;&#160;&#160;&#160;&#160;&#160;&#160;&#160;&#160;&#160;&#160;</text>
<polygon fill="none" stroke="#99ccff" points="929.25,-195 929.25,-214.5 1036.5,-214.5 1036.5,-195 929.25,-195"/>
<text text-anchor="start" x="939" y="-201.05" font-family="Courier,monospace" font-size="11.00">reference(18)</text>
<polygon fill="none" stroke="#99ccff" points="255,-175.5 255,-195 929.25,-195 929.25,-175.5 255,-175.5"/>
<text text-anchor="start" x="258" y="-181.55" font-family="Courier,monospace" font-size="11.00"> &#160;&#160;&#160;&#160;&#160;&#160;&#160;&#160;&#160;&#160;&#160;&#160;&#160;&#160;&#160;&#160;&#160;&#160;&#160;&#160;&#160;&#160;&#160;&#160;&#160;&#160;&#160;&#160;&#160;&#160;&#160;&#160;&#160;&#160;&#160;&#160;&#160;&#160;&#160;&#160;CalculationMatrixId &#160;&#160;&#160;&#160;&#160;&#160;&#160;&#160;&#160;&#160;&#160;&#160;&#160;&#160;&#160;&#160;&#160;&#160;&#160;&#160;&#160;&#160;&#160;&#160;&#160;&#160;&#160;&#160;&#160;&#160;&#160;&#160;&#160;&#160;&#160;&#160;&#160;&#160;</text>
<polygon fill="none" stroke="#99ccff" points="929.25,-175.5 929.25,-195 1036.5,-195 1036.5,-175.5 929.25,-175.5"/>
<text text-anchor="start" x="939" y="-181.55" font-family="Courier,monospace" font-size="11.00">reference(18)</text>
<polygon fill="none" stroke="#99ccff" points="255,-156 255,-175.5 929.25,-175.5 929.25,-156 255,-156"/>
<text text-anchor="start" x="258" y="-162.05" font-family="Courier,monospace" font-size="11.00"> &#160;&#160;&#160;&#160;&#160;&#160;&#160;&#160;&#160;&#160;&#160;&#160;&#160;&#160;&#160;&#160;&#160;&#160;&#160;&#160;&#160;&#160;&#160;&#160;&#160;&#160;&#160;&#160;&#160;&#160;&#160;&#160;&#160;&#160;&#160;&#160;&#160;&#160;&#160;&#160;ApiName &#160;&#160;&#160;&#160;&#160;&#160;&#160;&#160;&#160;&#160;&#160;&#160;&#160;&#160;&#160;&#160;&#160;&#160;&#160;&#160;&#160;&#160;&#160;&#160;&#160;&#160;&#160;&#160;&#160;&#160;&#160;&#160;&#160;&#160;&#160;&#160;&#160;&#160;</text>
<polygon fill="none" stroke="#99ccff" points="929.25,-156 929.25,-175.5 1036.5,-175.5 1036.5,-156 929.25,-156"/>
<text text-anchor="start" x="949.12" y="-162.05" font-family="Courier,monospace" font-size="11.00">string(80)</text>
<polygon fill="none" stroke="#99ccff" points="255,-136.5 255,-156 929.25,-156 929.25,-136.5 255,-136.5"/>
<text text-anchor="start" x="258" y="-142.55" font-family="Courier,monospace" font-size="11.00"> &#160;&#160;&#160;&#160;&#160;&#160;&#160;&#160;&#160;&#160;&#160;&#160;&#160;&#160;&#160;&#160;&#160;&#160;&#160;&#160;&#160;&#160;&#160;&#160;&#160;&#160;&#160;&#160;&#160;&#160;&#160;&#160;&#160;&#160;&#160;&#160;&#160;&#160;&#160;&#160;ColumnType &#160;&#160;&#160;&#160;&#160;&#160;&#160;&#160;&#160;&#160;&#160;&#160;&#160;&#160;&#160;&#160;&#160;&#160;&#160;&#160;&#160;&#160;&#160;&#160;&#160;&#160;&#160;&#160;&#160;&#160;&#160;&#160;&#160;&#160;&#160;&#160;&#160;&#160;</text>
<polygon fill="none" stroke="#99ccff" points="929.25,-136.5 929.25,-156 1036.5,-156 1036.5,-136.5 929.25,-136.5"/>
<text text-anchor="start" x="939" y="-142.55" font-family="Courier,monospace" font-size="11.00">picklist(255)</text>
<polygon fill="none" stroke="#99ccff" points="255,-117 255,-136.5 929.25,-136.5 929.25,-117 255,-117"/>
<text text-anchor="start" x="258" y="-123.05" font-family="Courier,monospace" font-size="11.00"> &#160;&#160;&#160;&#160;&#160;&#160;&#160;&#160;&#160;&#160;&#160;&#160;&#160;&#160;&#160;&#160;&#160;&#160;&#160;&#160;&#160;&#160;&#160;&#160;&#160;&#160;&#160;&#160;&#160;&#160;&#160;&#160;&#160;&#160;&#160;&#160;&#160;&#160;&#160;&#160;DataType &#160;&#160;&#160;&#160;&#160;&#160;&#160;&#160;&#160;&#160;&#160;&#160;&#160;&#160;&#160;&#160;&#160;&#160;&#160;&#160;&#160;&#160;&#160;&#160;&#160;&#160;&#160;&#160;&#160;&#160;&#160;&#160;&#160;&#160;&#160;&#160;&#160;&#160;</text>
<polygon fill="none" stroke="#99ccff" points="929.25,-117 929.25,-136.5 1036.5,-136.5 1036.5,-117 929.25,-117"/>
<text text-anchor="start" x="939" y="-123.05" font-family="Courier,monospace" font-size="11.00">picklist(255)</text>
<polygon fill="none" stroke="#99ccff" points="255,-97.5 255,-117 929.25,-117 929.25,-97.5 255,-97.5"/>
<text text-anchor="start" x="258" y="-103.55" font-family="Courier,monospace" font-size="11.00"> &#160;&#160;&#160;&#160;&#160;&#160;&#160;&#160;&#160;&#160;&#160;&#160;&#160;&#160;&#160;&#160;&#160;&#160;&#160;&#160;&#160;&#160;&#160;&#160;&#160;&#160;&#160;&#160;&#160;&#160;&#160;&#160;&#160;&#160;&#160;&#160;&#160;&#160;&#160;&#160;DisplaySequence &#160;&#160;&#160;&#160;&#160;&#160;&#160;&#160;&#160;&#160;&#160;&#160;&#160;&#160;&#160;&#160;&#160;&#160;&#160;&#160;&#160;&#160;&#160;&#160;&#160;&#160;&#160;&#160;&#160;&#160;&#160;&#160;&#160;&#160;&#160;&#160;&#160;&#160;</text>
<polygon fill="none" stroke="#99ccff" points="929.25,-97.5 929.25,-117 1036.5,-117 1036.5,-97.5 929.25,-97.5"/>
<text text-anchor="start" x="972.75" y="-103.55" font-family="Courier,monospace" font-size="11.00">int</text>
<polygon fill="none" stroke="#99ccff" points="255,-78 255,-97.5 929.25,-97.5 929.25,-78 255,-78"/>
<text text-anchor="start" x="258" y="-84.05" font-family="Courier,monospace" font-size="11.00"> &#160;&#160;&#160;&#160;&#160;&#160;&#160;&#160;&#160;&#160;&#160;&#160;&#160;&#160;&#160;&#160;&#160;&#160;&#160;&#160;&#160;&#160;&#160;&#160;&#160;&#160;&#160;&#160;&#160;&#160;&#160;&#160;&#160;&#160;&#160;&#160;&#160;&#160;&#160;&#160;RangeValues &#160;&#160;&#160;&#160;&#160;&#160;&#160;&#160;&#160;&#160;&#160;&#160;&#160;&#160;&#160;&#160;&#160;&#160;&#160;&#160;&#160;&#160;&#160;&#160;&#160;&#160;&#160;&#160;&#160;&#160;&#160;&#160;&#160;&#160;&#160;&#160;&#160;&#160;</text>
<polygon fill="none" stroke="#99ccff" points="929.25,-78 929.25,-97.5 1036.5,-97.5 1036.5,-78 929.25,-78"/>
<text text-anchor="start" x="932.25" y="-84.05" font-family="Courier,monospace" font-size="11.00">textarea(32768)</text>
<polygon fill="none" stroke="#99ccff" points="255,-58.5 255,-78 929.25,-78 929.25,-58.5 255,-58.5"/>
<text text-anchor="start" x="258" y="-64.55" font-family="Courier,monospace" font-size="11.00"> &#160;&#160;&#160;&#160;&#160;&#160;&#160;&#160;&#160;&#160;&#160;&#160;&#160;&#160;&#160;&#160;&#160;&#160;&#160;&#160;&#160;&#160;&#160;&#160;&#160;&#160;&#160;&#160;&#160;&#160;&#160;&#160;&#160;&#160;&#160;&#160;&#160;&#160;&#160;&#160;IsWildcardColumn &#160;&#160;&#160;&#160;&#160;&#160;&#160;&#160;&#160;&#160;&#160;&#160;&#160;&#160;&#160;&#160;&#160;&#160;&#160;&#160;&#160;&#160;&#160;&#160;&#160;&#160;&#160;&#160;&#160;&#160;&#160;&#160;&#160;&#160;&#160;&#160;&#160;&#160;</text>
<polygon fill="none" stroke="#99ccff" points="929.25,-58.5 929.25,-78 1036.5,-78 1036.5,-58.5 929.25,-58.5"/>
<text text-anchor="start" x="959.25" y="-64.55" font-family="Courier,monospace" font-size="11.00">boolean</text>
<polygon fill="none" stroke="#99ccff" points="255,-39 255,-58.5 929.25,-58.5 929.25,-39 255,-39"/>
<text text-anchor="start" x="258" y="-45.05" font-family="Courier,monospace" font-size="11.00"> &#160;&#160;&#160;&#160;&#160;&#160;&#160;&#160;&#160;&#160;&#160;&#160;&#160;&#160;&#160;&#160;&#160;&#160;&#160;&#160;&#160;&#160;&#160;&#160;&#160;&#160;&#160;&#160;&#160;&#160;&#160;&#160;&#160;&#160;&#160;&#160;&#160;&#160;&#160;&#160;WildcardColumnValue &#160;&#160;&#160;&#160;&#160;&#160;&#160;&#160;&#160;&#160;&#160;&#160;&#160;&#160;&#160;&#160;&#160;&#160;&#160;&#160;&#160;&#160;&#160;&#160;&#160;&#160;&#160;&#160;&#160;&#160;&#160;&#160;&#160;&#160;&#160;&#160;&#160;&#160;</text>
<polygon fill="none" stroke="#99ccff" points="929.25,-39 929.25,-58.5 1036.5,-58.5 1036.5,-39 929.25,-39"/>
<text text-anchor="start" x="945.75" y="-45.05" font-family="Courier,monospace" font-size="11.00">string(255)</text>
<polygon fill="none" stroke="#99ccff" points="255,-19.5 255,-39 929.25,-39 929.25,-19.5 255,-19.5"/>
<text text-anchor="start" x="258" y="-25.55" font-family="Courier,monospace" font-size="11.00"> &#160;&#160;&#160;&#160;&#160;&#160;&#160;&#160;&#160;&#160;&#160;&#160;&#160;&#160;&#160;&#160;&#160;&#160;&#160;&#160;&#160;&#160;&#160;&#160;&#160;&#160;&#160;&#160;&#160;&#160;&#160;&#160;&#160;&#160;&#160;&#160;&#160;&#160;&#160;&#160;Namespace &#160;&#160;&#160;&#160;&#160;&#160;&#160;&#160;&#160;&#160;&#160;&#160;&#160;&#160;&#160;&#160;&#160;&#160;&#160;&#160;&#160;&#160;&#160;&#160;&#160;&#160;&#160;&#160;&#160;&#160;&#160;&#160;&#160;&#160;&#160;&#160;&#160;&#160;</text>
<polygon fill="none" stroke="#99ccff" points="929.25,-19.5 929.25,-39 1036.5,-39 1036.5,-19.5 929.25,-19.5"/>
<text text-anchor="start" x="945.75" y="-25.55" font-family="Courier,monospace" font-size="11.00">string(255)</text>
<polygon fill="none" stroke="#99ccff" points="254,-18.5 254,-293.5 1037.5,-293.5 1037.5,-18.5 254,-18.5"/>
</a>
</g>
</g>
<!-- User -->
<g id="node2" class="node">
<title>User</title>
<text text-anchor="middle" x="65.38" y="-215.3" font-family="Courier,monospace" font-size="11.00">User</text>
</g>
<!-- CalculationMatrixColumn&#45;&gt;User -->
<g id="edge1" class="edge">
<title>CalculationMatrixColumn:w&#45;&gt;User:e</title>
<path fill="none" stroke="#ff99cc" d="M238.16,-204.91C184.09,-205.96 124.99,-211.98 92.12,-215.8"/>
<polygon fill="#ff99cc" stroke="#ff99cc" points="245.67,-204.83 253.7,-208.35 250,-204.79 253.33,-204.76 253.33,-204.76 253.33,-204.76 250,-204.79 253.63,-201.15 245.67,-204.83"/>
<ellipse fill="none" stroke="#ff99cc" cx="240.75" cy="-204.88" rx="3.2" ry="3.2"/>
<text text-anchor="middle" x="192.38" y="-212.47" font-family="Monaco" font-size="9.00">LastModifiedBy</text>
</g>
<!-- CalculationMatrix -->
<g id="node3" class="node">
<title>CalculationMatrix</title>
<text text-anchor="middle" x="65.38" y="-166.3" font-family="Courier,monospace" font-size="11.00">CalculationMatrix</text>
</g>
<!-- CalculationMatrixColumn&#45;&gt;CalculationMatrix -->
<g id="edge2" class="edge">
<title>CalculationMatrixColumn:w&#45;&gt;CalculationMatrix:e</title>
<path fill="none" stroke="#ff99cc" d="M238.36,-185.08C201.45,-184.33 162.2,-181.09 130.53,-177.8"/>
<polygon fill="#ff99cc" stroke="#ff99cc" points="245.67,-185.16 253.63,-188.85 250,-185.21 253.33,-185.24 253.33,-185.24 253.33,-185.24 250,-185.21 253.7,-181.65 245.67,-185.16"/>
<ellipse fill="none" stroke="#ff99cc" cx="240.75" cy="-185.11" rx="3.2" ry="3.2"/>
<text text-anchor="middle" x="192.38" y="-187.67" font-family="Monaco" font-size="9.00">CalculationMatrix</text>
</g>
</g>
</svg>
