<?xml version="1.0" encoding="UTF-8" standalone="no"?>
<!DOCTYPE svg PUBLIC "-//W3C//DTD SVG 1.1//EN"
 "http://www.w3.org/Graphics/SVG/1.1/DTD/svg11.dtd">
<!-- Generated by graphviz version 12.2.1 (20241206.2353)
 -->
<!-- Title: Salesforce+ ERD Pages: 1 -->
<svg width="1247pt" height="438pt"
 viewBox="0.00 0.00 1246.50 438.00" xmlns="http://www.w3.org/2000/svg" xmlns:xlink="http://www.w3.org/1999/xlink">
<g id="graph0" class="graph" transform="scale(1 1) rotate(0) translate(4 434)">
<title>Salesforce+ ERD</title>
<polygon fill="#efeffd" stroke="none" points="-4,4 -4,-434 1242.5,-434 1242.5,4 -4,4"/>
<text text-anchor="middle" x="1191.12" y="-5.95" font-family="Courier,monospace" font-size="9.00">Salesforce ERD </text>
<!-- CalculationMatrixVersion -->
<g id="node1" class="node">
<title>CalculationMatrixVersion</title>
<g id="a_node1"><a xlink:href="#" xlink:title=" CalculationMatrixVersion ">
<polygon fill="#ffeeff" stroke="none" points="401,-18.5 401,-430 1238.5,-430 1238.5,-18.5 401,-18.5"/>
<polygon fill="lightblue" stroke="none" points="402,-409.5 402,-429 1237.5,-429 1237.5,-409.5 402,-409.5"/>
<polygon fill="none" stroke="#99ccff" points="402,-409.5 402,-429 1237.5,-429 1237.5,-409.5 402,-409.5"/>
<text text-anchor="start" x="738.75" y="-416.55" font-family="Courier,monospace" font-weight="bold" font-size="11.00">CalculationMatrixVersion</text>
<polygon fill="#99ccff" stroke="none" points="402,-390 402,-409.5 1143.75,-409.5 1143.75,-390 402,-390"/>
<polygon fill="none" stroke="#99ccff" points="402,-390 402,-409.5 1143.75,-409.5 1143.75,-390 402,-390"/>
<text text-anchor="start" x="405" y="-397.05" font-family="Courier,monospace" font-size="11.00"> &#160;&#160;&#160;&#160;&#160;&#160;&#160;&#160;&#160;&#160;&#160;&#160;&#160;&#160;&#160;&#160;&#160;&#160;&#160;&#160;&#160;&#160;&#160;&#160;&#160;&#160;&#160;&#160;&#160;&#160;&#160;&#160;&#160;&#160;&#160;&#160;&#160;&#160;&#160;&#160;&#160;&#160;</text>
<text text-anchor="start" x="695.25" y="-397.05" font-family="Courier,monospace" font-weight="bold" font-size="11.00">Id</text>
<text text-anchor="start" x="708.75" y="-397.05" font-family="Courier,monospace" font-size="11.00"> &#160;&#160;&#160;&#160;&#160;&#160;&#160;&#160;&#160;&#160;&#160;&#160;&#160;&#160;&#160;&#160;&#160;&#160;&#160;&#160;&#160;&#160;&#160;&#160;&#160;&#160;&#160;&#160;&#160;&#160;&#160;&#160;&#160;&#160;&#160;&#160;&#160;&#160;&#160;</text>
<polygon fill="none" stroke="#99ccff" points="1143.75,-390 1143.75,-409.5 1237.5,-409.5 1237.5,-390 1143.75,-390"/>
<text text-anchor="start" x="1170.38" y="-396.05" font-family="Courier,monospace" font-size="11.00">id(18)</text>
<polygon fill="none" stroke="#99ccff" points="402,-370.5 402,-390 1143.75,-390 1143.75,-370.5 402,-370.5"/>
<text text-anchor="start" x="405" y="-376.55" font-family="Courier,monospace" font-size="11.00"> &#160;&#160;&#160;&#160;&#160;&#160;&#160;&#160;&#160;&#160;&#160;&#160;&#160;&#160;&#160;&#160;&#160;&#160;&#160;&#160;&#160;&#160;&#160;&#160;&#160;&#160;&#160;&#160;&#160;&#160;&#160;&#160;&#160;&#160;&#160;&#160;&#160;&#160;&#160;&#160;IsDeleted &#160;&#160;&#160;&#160;&#160;&#160;&#160;&#160;&#160;&#160;&#160;&#160;&#160;&#160;&#160;&#160;&#160;&#160;&#160;&#160;&#160;&#160;&#160;&#160;&#160;&#160;&#160;&#160;&#160;&#160;&#160;&#160;&#160;&#160;&#160;&#160;&#160;&#160;</text>
<polygon fill="none" stroke="#99ccff" points="1143.75,-370.5 1143.75,-390 1237.5,-390 1237.5,-370.5 1143.75,-370.5"/>
<text text-anchor="start" x="1167" y="-376.55" font-family="Courier,monospace" font-size="11.00">boolean</text>
<polygon fill="none" stroke="#99ccff" points="402,-351 402,-370.5 1143.75,-370.5 1143.75,-351 402,-351"/>
<text text-anchor="start" x="405" y="-357.05" font-family="Courier,monospace" font-size="11.00"> &#160;&#160;&#160;&#160;&#160;&#160;&#160;&#160;&#160;&#160;&#160;&#160;&#160;&#160;&#160;&#160;&#160;&#160;&#160;&#160;&#160;&#160;&#160;&#160;&#160;&#160;&#160;&#160;&#160;&#160;&#160;&#160;&#160;&#160;&#160;&#160;&#160;&#160;&#160;&#160;Name &#160;&#160;&#160;&#160;&#160;&#160;&#160;&#160;&#160;&#160;&#160;&#160;&#160;&#160;&#160;&#160;&#160;&#160;&#160;&#160;&#160;&#160;&#160;&#160;&#160;&#160;&#160;&#160;&#160;&#160;&#160;&#160;&#160;&#160;&#160;&#160;&#160;&#160;</text>
<polygon fill="none" stroke="#99ccff" points="1143.75,-351 1143.75,-370.5 1237.5,-370.5 1237.5,-351 1143.75,-351"/>
<text text-anchor="start" x="1153.5" y="-357.05" font-family="Courier,monospace" font-size="11.00">string(255)</text>
<polygon fill="none" stroke="#99ccff" points="402,-331.5 402,-351 1143.75,-351 1143.75,-331.5 402,-331.5"/>
<text text-anchor="start" x="405" y="-337.55" font-family="Courier,monospace" font-size="11.00"> &#160;&#160;&#160;&#160;&#160;&#160;&#160;&#160;&#160;&#160;&#160;&#160;&#160;&#160;&#160;&#160;&#160;&#160;&#160;&#160;&#160;&#160;&#160;&#160;&#160;&#160;&#160;&#160;&#160;&#160;&#160;&#160;&#160;&#160;&#160;&#160;&#160;&#160;&#160;&#160;LastModifiedById &#160;&#160;&#160;&#160;&#160;&#160;&#160;&#160;&#160;&#160;&#160;&#160;&#160;&#160;&#160;&#160;&#160;&#160;&#160;&#160;&#160;&#160;&#160;&#160;&#160;&#160;&#160;&#160;&#160;&#160;&#160;&#160;&#160;&#160;&#160;&#160;&#160;&#160;</text>
<polygon fill="none" stroke="#99ccff" points="1143.75,-331.5 1143.75,-351 1237.5,-351 1237.5,-331.5 1143.75,-331.5"/>
<text text-anchor="start" x="1146.75" y="-337.55" font-family="Courier,monospace" font-size="11.00">reference(18)</text>
<polygon fill="none" stroke="#99ccff" points="402,-312 402,-331.5 1143.75,-331.5 1143.75,-312 402,-312"/>
<text text-anchor="start" x="405" y="-318.05" font-family="Courier,monospace" font-size="11.00"> &#160;&#160;&#160;&#160;&#160;&#160;&#160;&#160;&#160;&#160;&#160;&#160;&#160;&#160;&#160;&#160;&#160;&#160;&#160;&#160;&#160;&#160;&#160;&#160;&#160;&#160;&#160;&#160;&#160;&#160;&#160;&#160;&#160;&#160;&#160;&#160;&#160;&#160;&#160;&#160;CalculationMatrixId &#160;&#160;&#160;&#160;&#160;&#160;&#160;&#160;&#160;&#160;&#160;&#160;&#160;&#160;&#160;&#160;&#160;&#160;&#160;&#160;&#160;&#160;&#160;&#160;&#160;&#160;&#160;&#160;&#160;&#160;&#160;&#160;&#160;&#160;&#160;&#160;&#160;&#160;</text>
<polygon fill="none" stroke="#99ccff" points="1143.75,-312 1143.75,-331.5 1237.5,-331.5 1237.5,-312 1143.75,-312"/>
<text text-anchor="start" x="1146.75" y="-318.05" font-family="Courier,monospace" font-size="11.00">reference(18)</text>
<polygon fill="none" stroke="#99ccff" points="402,-292.5 402,-312 1143.75,-312 1143.75,-292.5 402,-292.5"/>
<text text-anchor="start" x="405" y="-298.55" font-family="Courier,monospace" font-size="11.00"> &#160;&#160;&#160;&#160;&#160;&#160;&#160;&#160;&#160;&#160;&#160;&#160;&#160;&#160;&#160;&#160;&#160;&#160;&#160;&#160;&#160;&#160;&#160;&#160;&#160;&#160;&#160;&#160;&#160;&#160;&#160;&#160;&#160;&#160;&#160;&#160;&#160;&#160;&#160;&#160;EndDateTime &#160;&#160;&#160;&#160;&#160;&#160;&#160;&#160;&#160;&#160;&#160;&#160;&#160;&#160;&#160;&#160;&#160;&#160;&#160;&#160;&#160;&#160;&#160;&#160;&#160;&#160;&#160;&#160;&#160;&#160;&#160;&#160;&#160;&#160;&#160;&#160;&#160;&#160;</text>
<polygon fill="none" stroke="#99ccff" points="1143.75,-292.5 1143.75,-312 1237.5,-312 1237.5,-292.5 1143.75,-292.5"/>
<text text-anchor="start" x="1163.62" y="-298.55" font-family="Courier,monospace" font-size="11.00">datetime</text>
<polygon fill="none" stroke="#99ccff" points="402,-273 402,-292.5 1143.75,-292.5 1143.75,-273 402,-273"/>
<text text-anchor="start" x="405" y="-279.05" font-family="Courier,monospace" font-size="11.00"> &#160;&#160;&#160;&#160;&#160;&#160;&#160;&#160;&#160;&#160;&#160;&#160;&#160;&#160;&#160;&#160;&#160;&#160;&#160;&#160;&#160;&#160;&#160;&#160;&#160;&#160;&#160;&#160;&#160;&#160;&#160;&#160;&#160;&#160;&#160;&#160;&#160;&#160;&#160;&#160;GroupKey &#160;&#160;&#160;&#160;&#160;&#160;&#160;&#160;&#160;&#160;&#160;&#160;&#160;&#160;&#160;&#160;&#160;&#160;&#160;&#160;&#160;&#160;&#160;&#160;&#160;&#160;&#160;&#160;&#160;&#160;&#160;&#160;&#160;&#160;&#160;&#160;&#160;&#160;</text>
<polygon fill="none" stroke="#99ccff" points="1143.75,-273 1143.75,-292.5 1237.5,-292.5 1237.5,-273 1143.75,-273"/>
<text text-anchor="start" x="1153.5" y="-279.05" font-family="Courier,monospace" font-size="11.00">string(255)</text>
<polygon fill="none" stroke="#99ccff" points="402,-253.5 402,-273 1143.75,-273 1143.75,-253.5 402,-253.5"/>
<text text-anchor="start" x="405" y="-259.55" font-family="Courier,monospace" font-size="11.00"> &#160;&#160;&#160;&#160;&#160;&#160;&#160;&#160;&#160;&#160;&#160;&#160;&#160;&#160;&#160;&#160;&#160;&#160;&#160;&#160;&#160;&#160;&#160;&#160;&#160;&#160;&#160;&#160;&#160;&#160;&#160;&#160;&#160;&#160;&#160;&#160;&#160;&#160;&#160;&#160;GroupKeyValue &#160;&#160;&#160;&#160;&#160;&#160;&#160;&#160;&#160;&#160;&#160;&#160;&#160;&#160;&#160;&#160;&#160;&#160;&#160;&#160;&#160;&#160;&#160;&#160;&#160;&#160;&#160;&#160;&#160;&#160;&#160;&#160;&#160;&#160;&#160;&#160;&#160;&#160;</text>
<polygon fill="none" stroke="#99ccff" points="1143.75,-253.5 1143.75,-273 1237.5,-273 1237.5,-253.5 1143.75,-253.5"/>
<text text-anchor="start" x="1153.5" y="-259.55" font-family="Courier,monospace" font-size="11.00">string(255)</text>
<polygon fill="none" stroke="#99ccff" points="402,-234 402,-253.5 1143.75,-253.5 1143.75,-234 402,-234"/>
<text text-anchor="start" x="405" y="-240.05" font-family="Courier,monospace" font-size="11.00"> &#160;&#160;&#160;&#160;&#160;&#160;&#160;&#160;&#160;&#160;&#160;&#160;&#160;&#160;&#160;&#160;&#160;&#160;&#160;&#160;&#160;&#160;&#160;&#160;&#160;&#160;&#160;&#160;&#160;&#160;&#160;&#160;&#160;&#160;&#160;&#160;&#160;&#160;&#160;&#160;IsEnabled &#160;&#160;&#160;&#160;&#160;&#160;&#160;&#160;&#160;&#160;&#160;&#160;&#160;&#160;&#160;&#160;&#160;&#160;&#160;&#160;&#160;&#160;&#160;&#160;&#160;&#160;&#160;&#160;&#160;&#160;&#160;&#160;&#160;&#160;&#160;&#160;&#160;&#160;</text>
<polygon fill="none" stroke="#99ccff" points="1143.75,-234 1143.75,-253.5 1237.5,-253.5 1237.5,-234 1143.75,-234"/>
<text text-anchor="start" x="1167" y="-240.05" font-family="Courier,monospace" font-size="11.00">boolean</text>
<polygon fill="none" stroke="#99ccff" points="402,-214.5 402,-234 1143.75,-234 1143.75,-214.5 402,-214.5"/>
<text text-anchor="start" x="405" y="-220.55" font-family="Courier,monospace" font-size="11.00"> &#160;&#160;&#160;&#160;&#160;&#160;&#160;&#160;&#160;&#160;&#160;&#160;&#160;&#160;&#160;&#160;&#160;&#160;&#160;&#160;&#160;&#160;&#160;&#160;&#160;&#160;&#160;&#160;&#160;&#160;&#160;&#160;&#160;&#160;&#160;&#160;&#160;&#160;&#160;&#160;MatrixType &#160;&#160;&#160;&#160;&#160;&#160;&#160;&#160;&#160;&#160;&#160;&#160;&#160;&#160;&#160;&#160;&#160;&#160;&#160;&#160;&#160;&#160;&#160;&#160;&#160;&#160;&#160;&#160;&#160;&#160;&#160;&#160;&#160;&#160;&#160;&#160;&#160;&#160;</text>
<polygon fill="none" stroke="#99ccff" points="1143.75,-214.5 1143.75,-234 1237.5,-234 1237.5,-214.5 1143.75,-214.5"/>
<text text-anchor="start" x="1153.5" y="-220.55" font-family="Courier,monospace" font-size="11.00">string(255)</text>
<polygon fill="none" stroke="#99ccff" points="402,-195 402,-214.5 1143.75,-214.5 1143.75,-195 402,-195"/>
<text text-anchor="start" x="405" y="-201.05" font-family="Courier,monospace" font-size="11.00"> &#160;&#160;&#160;&#160;&#160;&#160;&#160;&#160;&#160;&#160;&#160;&#160;&#160;&#160;&#160;&#160;&#160;&#160;&#160;&#160;&#160;&#160;&#160;&#160;&#160;&#160;&#160;&#160;&#160;&#160;&#160;&#160;&#160;&#160;&#160;&#160;&#160;&#160;&#160;&#160;Rank &#160;&#160;&#160;&#160;&#160;&#160;&#160;&#160;&#160;&#160;&#160;&#160;&#160;&#160;&#160;&#160;&#160;&#160;&#160;&#160;&#160;&#160;&#160;&#160;&#160;&#160;&#160;&#160;&#160;&#160;&#160;&#160;&#160;&#160;&#160;&#160;&#160;&#160;</text>
<polygon fill="none" stroke="#99ccff" points="1143.75,-195 1143.75,-214.5 1237.5,-214.5 1237.5,-195 1143.75,-195"/>
<text text-anchor="start" x="1180.5" y="-201.05" font-family="Courier,monospace" font-size="11.00">int</text>
<polygon fill="none" stroke="#99ccff" points="402,-175.5 402,-195 1143.75,-195 1143.75,-175.5 402,-175.5"/>
<text text-anchor="start" x="405" y="-181.55" font-family="Courier,monospace" font-size="11.00"> &#160;&#160;&#160;&#160;&#160;&#160;&#160;&#160;&#160;&#160;&#160;&#160;&#160;&#160;&#160;&#160;&#160;&#160;&#160;&#160;&#160;&#160;&#160;&#160;&#160;&#160;&#160;&#160;&#160;&#160;&#160;&#160;&#160;&#160;&#160;&#160;&#160;&#160;&#160;&#160;StartDateTime &#160;&#160;&#160;&#160;&#160;&#160;&#160;&#160;&#160;&#160;&#160;&#160;&#160;&#160;&#160;&#160;&#160;&#160;&#160;&#160;&#160;&#160;&#160;&#160;&#160;&#160;&#160;&#160;&#160;&#160;&#160;&#160;&#160;&#160;&#160;&#160;&#160;&#160;</text>
<polygon fill="none" stroke="#99ccff" points="1143.75,-175.5 1143.75,-195 1237.5,-195 1237.5,-175.5 1143.75,-175.5"/>
<text text-anchor="start" x="1163.62" y="-181.55" font-family="Courier,monospace" font-size="11.00">datetime</text>
<polygon fill="none" stroke="#99ccff" points="402,-156 402,-175.5 1143.75,-175.5 1143.75,-156 402,-156"/>
<text text-anchor="start" x="405" y="-162.05" font-family="Courier,monospace" font-size="11.00"> &#160;&#160;&#160;&#160;&#160;&#160;&#160;&#160;&#160;&#160;&#160;&#160;&#160;&#160;&#160;&#160;&#160;&#160;&#160;&#160;&#160;&#160;&#160;&#160;&#160;&#160;&#160;&#160;&#160;&#160;&#160;&#160;&#160;&#160;&#160;&#160;&#160;&#160;&#160;&#160;SubGroupKey &#160;&#160;&#160;&#160;&#160;&#160;&#160;&#160;&#160;&#160;&#160;&#160;&#160;&#160;&#160;&#160;&#160;&#160;&#160;&#160;&#160;&#160;&#160;&#160;&#160;&#160;&#160;&#160;&#160;&#160;&#160;&#160;&#160;&#160;&#160;&#160;&#160;&#160;</text>
<polygon fill="none" stroke="#99ccff" points="1143.75,-156 1143.75,-175.5 1237.5,-175.5 1237.5,-156 1143.75,-156"/>
<text text-anchor="start" x="1153.5" y="-162.05" font-family="Courier,monospace" font-size="11.00">string(255)</text>
<polygon fill="none" stroke="#99ccff" points="402,-136.5 402,-156 1143.75,-156 1143.75,-136.5 402,-136.5"/>
<text text-anchor="start" x="405" y="-142.55" font-family="Courier,monospace" font-size="11.00"> &#160;&#160;&#160;&#160;&#160;&#160;&#160;&#160;&#160;&#160;&#160;&#160;&#160;&#160;&#160;&#160;&#160;&#160;&#160;&#160;&#160;&#160;&#160;&#160;&#160;&#160;&#160;&#160;&#160;&#160;&#160;&#160;&#160;&#160;&#160;&#160;&#160;&#160;&#160;&#160;SubGroupKeyValue &#160;&#160;&#160;&#160;&#160;&#160;&#160;&#160;&#160;&#160;&#160;&#160;&#160;&#160;&#160;&#160;&#160;&#160;&#160;&#160;&#160;&#160;&#160;&#160;&#160;&#160;&#160;&#160;&#160;&#160;&#160;&#160;&#160;&#160;&#160;&#160;&#160;&#160;</text>
<polygon fill="none" stroke="#99ccff" points="1143.75,-136.5 1143.75,-156 1237.5,-156 1237.5,-136.5 1143.75,-136.5"/>
<text text-anchor="start" x="1153.5" y="-142.55" font-family="Courier,monospace" font-size="11.00">string(255)</text>
<polygon fill="none" stroke="#99ccff" points="402,-117 402,-136.5 1143.75,-136.5 1143.75,-117 402,-117"/>
<text text-anchor="start" x="405" y="-123.05" font-family="Courier,monospace" font-size="11.00"> &#160;&#160;&#160;&#160;&#160;&#160;&#160;&#160;&#160;&#160;&#160;&#160;&#160;&#160;&#160;&#160;&#160;&#160;&#160;&#160;&#160;&#160;&#160;&#160;&#160;&#160;&#160;&#160;&#160;&#160;&#160;&#160;&#160;&#160;&#160;&#160;&#160;&#160;&#160;&#160;VersionNumber &#160;&#160;&#160;&#160;&#160;&#160;&#160;&#160;&#160;&#160;&#160;&#160;&#160;&#160;&#160;&#160;&#160;&#160;&#160;&#160;&#160;&#160;&#160;&#160;&#160;&#160;&#160;&#160;&#160;&#160;&#160;&#160;&#160;&#160;&#160;&#160;&#160;&#160;</text>
<polygon fill="none" stroke="#99ccff" points="1143.75,-117 1143.75,-136.5 1237.5,-136.5 1237.5,-117 1143.75,-117"/>
<text text-anchor="start" x="1180.5" y="-123.05" font-family="Courier,monospace" font-size="11.00">int</text>
<polygon fill="none" stroke="#99ccff" points="402,-97.5 402,-117 1143.75,-117 1143.75,-97.5 402,-97.5"/>
<text text-anchor="start" x="405" y="-103.55" font-family="Courier,monospace" font-size="11.00"> &#160;&#160;&#160;&#160;&#160;&#160;&#160;&#160;&#160;&#160;&#160;&#160;&#160;&#160;&#160;&#160;&#160;&#160;&#160;&#160;&#160;&#160;&#160;&#160;&#160;&#160;&#160;&#160;&#160;&#160;&#160;&#160;&#160;&#160;&#160;&#160;&#160;&#160;&#160;&#160;LoadProcessStatus &#160;&#160;&#160;&#160;&#160;&#160;&#160;&#160;&#160;&#160;&#160;&#160;&#160;&#160;&#160;&#160;&#160;&#160;&#160;&#160;&#160;&#160;&#160;&#160;&#160;&#160;&#160;&#160;&#160;&#160;&#160;&#160;&#160;&#160;&#160;&#160;&#160;&#160;</text>
<polygon fill="none" stroke="#99ccff" points="1143.75,-97.5 1143.75,-117 1237.5,-117 1237.5,-97.5 1143.75,-97.5"/>
<text text-anchor="start" x="1146.75" y="-103.55" font-family="Courier,monospace" font-size="11.00">picklist(255)</text>
<polygon fill="none" stroke="#99ccff" points="402,-78 402,-97.5 1143.75,-97.5 1143.75,-78 402,-78"/>
<text text-anchor="start" x="405" y="-84.05" font-family="Courier,monospace" font-size="11.00"> &#160;&#160;&#160;&#160;&#160;&#160;&#160;&#160;&#160;&#160;&#160;&#160;&#160;&#160;&#160;&#160;&#160;&#160;&#160;&#160;&#160;&#160;&#160;&#160;&#160;&#160;&#160;&#160;&#160;&#160;&#160;&#160;&#160;&#160;&#160;&#160;&#160;&#160;&#160;&#160;Namespace &#160;&#160;&#160;&#160;&#160;&#160;&#160;&#160;&#160;&#160;&#160;&#160;&#160;&#160;&#160;&#160;&#160;&#160;&#160;&#160;&#160;&#160;&#160;&#160;&#160;&#160;&#160;&#160;&#160;&#160;&#160;&#160;&#160;&#160;&#160;&#160;&#160;&#160;</text>
<polygon fill="none" stroke="#99ccff" points="1143.75,-78 1143.75,-97.5 1237.5,-97.5 1237.5,-78 1143.75,-78"/>
<text text-anchor="start" x="1153.5" y="-84.05" font-family="Courier,monospace" font-size="11.00">string(255)</text>
<polygon fill="none" stroke="#99ccff" points="402,-58.5 402,-78 1143.75,-78 1143.75,-58.5 402,-58.5"/>
<text text-anchor="start" x="405" y="-64.55" font-family="Courier,monospace" font-size="11.00"> &#160;&#160;&#160;&#160;&#160;&#160;&#160;&#160;&#160;&#160;&#160;&#160;&#160;&#160;&#160;&#160;&#160;&#160;&#160;&#160;&#160;&#160;&#160;&#160;&#160;&#160;&#160;&#160;&#160;&#160;&#160;&#160;&#160;&#160;&#160;&#160;&#160;&#160;&#160;&#160;DecisionMatrixDefinitionVerId &#160;&#160;&#160;&#160;&#160;&#160;&#160;&#160;&#160;&#160;&#160;&#160;&#160;&#160;&#160;&#160;&#160;&#160;&#160;&#160;&#160;&#160;&#160;&#160;&#160;&#160;&#160;&#160;&#160;&#160;&#160;&#160;&#160;&#160;&#160;&#160;&#160;&#160;</text>
<polygon fill="none" stroke="#99ccff" points="1143.75,-58.5 1143.75,-78 1237.5,-78 1237.5,-58.5 1143.75,-58.5"/>
<text text-anchor="start" x="1146.75" y="-64.55" font-family="Courier,monospace" font-size="11.00">reference(18)</text>
<polygon fill="none" stroke="#99ccff" points="402,-39 402,-58.5 1143.75,-58.5 1143.75,-39 402,-39"/>
<text text-anchor="start" x="405" y="-45.05" font-family="Courier,monospace" font-size="11.00"> &#160;&#160;&#160;&#160;&#160;&#160;&#160;&#160;&#160;&#160;&#160;&#160;&#160;&#160;&#160;&#160;&#160;&#160;&#160;&#160;&#160;&#160;&#160;&#160;&#160;&#160;&#160;&#160;&#160;&#160;&#160;&#160;&#160;&#160;&#160;&#160;&#160;&#160;&#160;&#160;ApiName &#160;&#160;&#160;&#160;&#160;&#160;&#160;&#160;&#160;&#160;&#160;&#160;&#160;&#160;&#160;&#160;&#160;&#160;&#160;&#160;&#160;&#160;&#160;&#160;&#160;&#160;&#160;&#160;&#160;&#160;&#160;&#160;&#160;&#160;&#160;&#160;&#160;&#160;</text>
<polygon fill="none" stroke="#99ccff" points="1143.75,-39 1143.75,-58.5 1237.5,-58.5 1237.5,-39 1143.75,-39"/>
<text text-anchor="start" x="1156.88" y="-45.05" font-family="Courier,monospace" font-size="11.00">string(80)</text>
<polygon fill="none" stroke="#99ccff" points="402,-19.5 402,-39 1143.75,-39 1143.75,-19.5 402,-19.5"/>
<text text-anchor="start" x="405" y="-25.55" font-family="Courier,monospace" font-size="11.00"> &#160;&#160;&#160;&#160;&#160;&#160;&#160;&#160;&#160;&#160;&#160;&#160;&#160;&#160;&#160;&#160;&#160;&#160;&#160;&#160;&#160;&#160;&#160;&#160;&#160;&#160;&#160;&#160;&#160;&#160;&#160;&#160;&#160;&#160;&#160;&#160;&#160;&#160;&#160;&#160;DscnModelNoteExportStatus &#160;&#160;&#160;&#160;&#160;&#160;&#160;&#160;&#160;&#160;&#160;&#160;&#160;&#160;&#160;&#160;&#160;&#160;&#160;&#160;&#160;&#160;&#160;&#160;&#160;&#160;&#160;&#160;&#160;&#160;&#160;&#160;&#160;&#160;&#160;&#160;&#160;&#160;</text>
<polygon fill="none" stroke="#99ccff" points="1143.75,-19.5 1143.75,-39 1237.5,-39 1237.5,-19.5 1143.75,-19.5"/>
<text text-anchor="start" x="1146.75" y="-25.55" font-family="Courier,monospace" font-size="11.00">picklist(255)</text>
<polygon fill="none" stroke="#99ccff" points="401,-18.5 401,-430 1238.5,-430 1238.5,-18.5 401,-18.5"/>
</a>
</g>
</g>
<!-- User -->
<g id="node2" class="node">
<title>User</title>
<text text-anchor="middle" x="112.62" y="-351.55" font-family="Courier,monospace" font-size="11.00">User</text>
</g>
<!-- CalculationMatrixVersion&#45;&gt;User -->
<g id="edge1" class="edge">
<title>CalculationMatrixVersion:w&#45;&gt;User:e</title>
<path fill="none" stroke="#ff99cc" d="M385.28,-341.32C292.21,-342.1 186.92,-349.46 139.36,-353.15"/>
<polygon fill="#ff99cc" stroke="#ff99cc" points="392.67,-341.29 400.68,-344.85 397,-341.27 400.33,-341.25 400.33,-341.25 400.33,-341.25 397,-341.27 400.65,-337.65 392.67,-341.29"/>
<ellipse fill="none" stroke="#ff99cc" cx="387.75" cy="-341.31" rx="3.2" ry="3.2"/>
<text text-anchor="middle" x="313.12" y="-348.88" font-family="Monaco" font-size="9.00">LastModifiedBy</text>
</g>
<!-- CalculationMatrix -->
<g id="node3" class="node">
<title>CalculationMatrix</title>
<text text-anchor="middle" x="112.62" y="-302.55" font-family="Courier,monospace" font-size="11.00">CalculationMatrix</text>
</g>
<!-- CalculationMatrixVersion&#45;&gt;CalculationMatrix -->
<g id="edge2" class="edge">
<title>CalculationMatrixVersion:w&#45;&gt;CalculationMatrix:e</title>
<path fill="none" stroke="#ff99cc" d="M385.56,-321.68C312.6,-321.01 232.11,-315.86 177.77,-311.69"/>
<polygon fill="#ff99cc" stroke="#ff99cc" points="392.67,-321.71 400.65,-325.35 397,-321.73 400.33,-321.75 400.33,-321.75 400.33,-321.75 397,-321.73 400.68,-318.15 392.67,-321.71"/>
<ellipse fill="none" stroke="#ff99cc" cx="387.75" cy="-321.69" rx="3.2" ry="3.2"/>
<text text-anchor="middle" x="313.12" y="-324.29" font-family="Monaco" font-size="9.00">CalculationMatrix</text>
</g>
<!-- DecisionMatrixDefinitionVersion -->
<g id="node4" class="node">
<title>DecisionMatrixDefinitionVersion</title>
<text text-anchor="middle" x="112.62" y="-64.55" font-family="Courier,monospace" font-size="11.00">DecisionMatrixDefinitionVersion</text>
</g>
<!-- CalculationMatrixVersion&#45;&gt;DecisionMatrixDefinitionVersion -->
<g id="edge3" class="edge">
<title>CalculationMatrixVersion:w&#45;&gt;DecisionMatrixDefinitionVersion:e</title>
<path fill="none" stroke="#ff99cc" d="M385.22,-68.25C331.49,-68.25 273.64,-68.25 225.19,-68.25"/>
<polygon fill="#ff99cc" stroke="#ff99cc" points="392.67,-68.25 400.67,-71.85 397,-68.25 400.33,-68.25 400.33,-68.25 400.33,-68.25 397,-68.25 400.67,-64.65 392.67,-68.25"/>
<ellipse fill="none" stroke="#ff99cc" cx="387.75" cy="-68.25" rx="3.2" ry="3.2"/>
<text text-anchor="middle" x="313.12" y="-70.95" font-family="Monaco" font-size="9.00">DecisionMatrixDefinitionVer</text>
</g>
</g>
</svg>
