<?xml version="1.0" encoding="UTF-8" standalone="no"?>
<!DOCTYPE svg PUBLIC "-//W3C//DTD SVG 1.1//EN"
 "http://www.w3.org/Graphics/SVG/1.1/DTD/svg11.dtd">
<!-- Generated by graphviz version 12.2.1 (20241206.2353)
 -->
<!-- Title: Salesforce+ ERD Pages: 1 -->
<svg width="1177pt" height="380pt"
 viewBox="0.00 0.00 1176.75 379.50" xmlns="http://www.w3.org/2000/svg" xmlns:xlink="http://www.w3.org/1999/xlink">
<g id="graph0" class="graph" transform="scale(1 1) rotate(0) translate(4 375.5)">
<title>Salesforce+ ERD</title>
<polygon fill="#efeffd" stroke="none" points="-4,4 -4,-375.5 1172.75,-375.5 1172.75,4 -4,4"/>
<text text-anchor="middle" x="1121.38" y="-5.95" font-family="Courier,monospace" font-size="9.00">Salesforce ERD </text>
<!-- CalculationMatrix -->
<g id="node1" class="node">
<title>CalculationMatrix</title>
<g id="a_node1"><a xlink:href="#" xlink:title=" CalculationMatrix ">
<polygon fill="#ffeeff" stroke="none" points="338,-18.5 338,-371.5 1168.75,-371.5 1168.75,-18.5 338,-18.5"/>
<polygon fill="lightblue" stroke="none" points="339,-351 339,-370.5 1167.75,-370.5 1167.75,-351 339,-351"/>
<polygon fill="none" stroke="#99ccff" points="339,-351 339,-370.5 1167.75,-370.5 1167.75,-351 339,-351"/>
<text text-anchor="start" x="696" y="-358.05" font-family="Courier,monospace" font-weight="bold" font-size="11.00">CalculationMatrix</text>
<polygon fill="#99ccff" stroke="none" points="339,-331.5 339,-351 1060.5,-351 1060.5,-331.5 339,-331.5"/>
<polygon fill="none" stroke="#99ccff" points="339,-331.5 339,-351 1060.5,-351 1060.5,-331.5 339,-331.5"/>
<text text-anchor="start" x="342" y="-338.55" font-family="Courier,monospace" font-size="11.00"> &#160;&#160;&#160;&#160;&#160;&#160;&#160;&#160;&#160;&#160;&#160;&#160;&#160;&#160;&#160;&#160;&#160;&#160;&#160;&#160;&#160;&#160;&#160;&#160;&#160;&#160;&#160;&#160;&#160;&#160;&#160;&#160;&#160;&#160;&#160;&#160;&#160;&#160;&#160;&#160;&#160;&#160;</text>
<text text-anchor="start" x="632.25" y="-338.55" font-family="Courier,monospace" font-weight="bold" font-size="11.00">Id</text>
<text text-anchor="start" x="645.75" y="-338.55" font-family="Courier,monospace" font-size="11.00"> &#160;&#160;&#160;&#160;&#160;&#160;&#160;&#160;&#160;&#160;&#160;&#160;&#160;&#160;&#160;&#160;&#160;&#160;&#160;&#160;&#160;&#160;&#160;&#160;&#160;&#160;&#160;&#160;&#160;&#160;&#160;&#160;&#160;&#160;&#160;&#160;&#160;&#160;&#160;</text>
<polygon fill="none" stroke="#99ccff" points="1060.5,-331.5 1060.5,-351 1167.75,-351 1167.75,-331.5 1060.5,-331.5"/>
<text text-anchor="start" x="1093.88" y="-337.55" font-family="Courier,monospace" font-size="11.00">id(18)</text>
<polygon fill="none" stroke="#99ccff" points="339,-312 339,-331.5 1060.5,-331.5 1060.5,-312 339,-312"/>
<text text-anchor="start" x="342" y="-318.05" font-family="Courier,monospace" font-size="11.00"> &#160;&#160;&#160;&#160;&#160;&#160;&#160;&#160;&#160;&#160;&#160;&#160;&#160;&#160;&#160;&#160;&#160;&#160;&#160;&#160;&#160;&#160;&#160;&#160;&#160;&#160;&#160;&#160;&#160;&#160;&#160;&#160;&#160;&#160;&#160;&#160;&#160;&#160;&#160;&#160;OwnerId &#160;&#160;&#160;&#160;&#160;&#160;&#160;&#160;&#160;&#160;&#160;&#160;&#160;&#160;&#160;&#160;&#160;&#160;&#160;&#160;&#160;&#160;&#160;&#160;&#160;&#160;&#160;&#160;&#160;&#160;&#160;&#160;&#160;&#160;&#160;&#160;&#160;&#160;</text>
<polygon fill="none" stroke="#99ccff" points="1060.5,-312 1060.5,-331.5 1167.75,-331.5 1167.75,-312 1060.5,-312"/>
<text text-anchor="start" x="1070.25" y="-318.05" font-family="Courier,monospace" font-size="11.00">reference(18)</text>
<polygon fill="none" stroke="#99ccff" points="339,-292.5 339,-312 1060.5,-312 1060.5,-292.5 339,-292.5"/>
<text text-anchor="start" x="342" y="-298.55" font-family="Courier,monospace" font-size="11.00"> &#160;&#160;&#160;&#160;&#160;&#160;&#160;&#160;&#160;&#160;&#160;&#160;&#160;&#160;&#160;&#160;&#160;&#160;&#160;&#160;&#160;&#160;&#160;&#160;&#160;&#160;&#160;&#160;&#160;&#160;&#160;&#160;&#160;&#160;&#160;&#160;&#160;&#160;&#160;&#160;IsDeleted &#160;&#160;&#160;&#160;&#160;&#160;&#160;&#160;&#160;&#160;&#160;&#160;&#160;&#160;&#160;&#160;&#160;&#160;&#160;&#160;&#160;&#160;&#160;&#160;&#160;&#160;&#160;&#160;&#160;&#160;&#160;&#160;&#160;&#160;&#160;&#160;&#160;&#160;</text>
<polygon fill="none" stroke="#99ccff" points="1060.5,-292.5 1060.5,-312 1167.75,-312 1167.75,-292.5 1060.5,-292.5"/>
<text text-anchor="start" x="1090.5" y="-298.55" font-family="Courier,monospace" font-size="11.00">boolean</text>
<polygon fill="none" stroke="#99ccff" points="339,-273 339,-292.5 1060.5,-292.5 1060.5,-273 339,-273"/>
<text text-anchor="start" x="342" y="-279.05" font-family="Courier,monospace" font-size="11.00"> &#160;&#160;&#160;&#160;&#160;&#160;&#160;&#160;&#160;&#160;&#160;&#160;&#160;&#160;&#160;&#160;&#160;&#160;&#160;&#160;&#160;&#160;&#160;&#160;&#160;&#160;&#160;&#160;&#160;&#160;&#160;&#160;&#160;&#160;&#160;&#160;&#160;&#160;&#160;&#160;Name &#160;&#160;&#160;&#160;&#160;&#160;&#160;&#160;&#160;&#160;&#160;&#160;&#160;&#160;&#160;&#160;&#160;&#160;&#160;&#160;&#160;&#160;&#160;&#160;&#160;&#160;&#160;&#160;&#160;&#160;&#160;&#160;&#160;&#160;&#160;&#160;&#160;&#160;</text>
<polygon fill="none" stroke="#99ccff" points="1060.5,-273 1060.5,-292.5 1167.75,-292.5 1167.75,-273 1060.5,-273"/>
<text text-anchor="start" x="1077" y="-279.05" font-family="Courier,monospace" font-size="11.00">string(255)</text>
<polygon fill="none" stroke="#99ccff" points="339,-253.5 339,-273 1060.5,-273 1060.5,-253.5 339,-253.5"/>
<text text-anchor="start" x="342" y="-259.55" font-family="Courier,monospace" font-size="11.00"> &#160;&#160;&#160;&#160;&#160;&#160;&#160;&#160;&#160;&#160;&#160;&#160;&#160;&#160;&#160;&#160;&#160;&#160;&#160;&#160;&#160;&#160;&#160;&#160;&#160;&#160;&#160;&#160;&#160;&#160;&#160;&#160;&#160;&#160;&#160;&#160;&#160;&#160;&#160;&#160;LastModifiedById &#160;&#160;&#160;&#160;&#160;&#160;&#160;&#160;&#160;&#160;&#160;&#160;&#160;&#160;&#160;&#160;&#160;&#160;&#160;&#160;&#160;&#160;&#160;&#160;&#160;&#160;&#160;&#160;&#160;&#160;&#160;&#160;&#160;&#160;&#160;&#160;&#160;&#160;</text>
<polygon fill="none" stroke="#99ccff" points="1060.5,-253.5 1060.5,-273 1167.75,-273 1167.75,-253.5 1060.5,-253.5"/>
<text text-anchor="start" x="1070.25" y="-259.55" font-family="Courier,monospace" font-size="11.00">reference(18)</text>
<polygon fill="none" stroke="#99ccff" points="339,-234 339,-253.5 1060.5,-253.5 1060.5,-234 339,-234"/>
<text text-anchor="start" x="342" y="-240.05" font-family="Courier,monospace" font-size="11.00"> &#160;&#160;&#160;&#160;&#160;&#160;&#160;&#160;&#160;&#160;&#160;&#160;&#160;&#160;&#160;&#160;&#160;&#160;&#160;&#160;&#160;&#160;&#160;&#160;&#160;&#160;&#160;&#160;&#160;&#160;&#160;&#160;&#160;&#160;&#160;&#160;&#160;&#160;&#160;&#160;LastViewedDate &#160;&#160;&#160;&#160;&#160;&#160;&#160;&#160;&#160;&#160;&#160;&#160;&#160;&#160;&#160;&#160;&#160;&#160;&#160;&#160;&#160;&#160;&#160;&#160;&#160;&#160;&#160;&#160;&#160;&#160;&#160;&#160;&#160;&#160;&#160;&#160;&#160;&#160;</text>
<polygon fill="none" stroke="#99ccff" points="1060.5,-234 1060.5,-253.5 1167.75,-253.5 1167.75,-234 1060.5,-234"/>
<text text-anchor="start" x="1087.12" y="-240.05" font-family="Courier,monospace" font-size="11.00">datetime</text>
<polygon fill="none" stroke="#99ccff" points="339,-214.5 339,-234 1060.5,-234 1060.5,-214.5 339,-214.5"/>
<text text-anchor="start" x="342" y="-220.55" font-family="Courier,monospace" font-size="11.00"> &#160;&#160;&#160;&#160;&#160;&#160;&#160;&#160;&#160;&#160;&#160;&#160;&#160;&#160;&#160;&#160;&#160;&#160;&#160;&#160;&#160;&#160;&#160;&#160;&#160;&#160;&#160;&#160;&#160;&#160;&#160;&#160;&#160;&#160;&#160;&#160;&#160;&#160;&#160;&#160;LastReferencedDate &#160;&#160;&#160;&#160;&#160;&#160;&#160;&#160;&#160;&#160;&#160;&#160;&#160;&#160;&#160;&#160;&#160;&#160;&#160;&#160;&#160;&#160;&#160;&#160;&#160;&#160;&#160;&#160;&#160;&#160;&#160;&#160;&#160;&#160;&#160;&#160;&#160;&#160;</text>
<polygon fill="none" stroke="#99ccff" points="1060.5,-214.5 1060.5,-234 1167.75,-234 1167.75,-214.5 1060.5,-214.5"/>
<text text-anchor="start" x="1087.12" y="-220.55" font-family="Courier,monospace" font-size="11.00">datetime</text>
<polygon fill="none" stroke="#99ccff" points="339,-195 339,-214.5 1060.5,-214.5 1060.5,-195 339,-195"/>
<text text-anchor="start" x="342" y="-201.05" font-family="Courier,monospace" font-size="11.00"> &#160;&#160;&#160;&#160;&#160;&#160;&#160;&#160;&#160;&#160;&#160;&#160;&#160;&#160;&#160;&#160;&#160;&#160;&#160;&#160;&#160;&#160;&#160;&#160;&#160;&#160;&#160;&#160;&#160;&#160;&#160;&#160;&#160;&#160;&#160;&#160;&#160;&#160;&#160;&#160;Description &#160;&#160;&#160;&#160;&#160;&#160;&#160;&#160;&#160;&#160;&#160;&#160;&#160;&#160;&#160;&#160;&#160;&#160;&#160;&#160;&#160;&#160;&#160;&#160;&#160;&#160;&#160;&#160;&#160;&#160;&#160;&#160;&#160;&#160;&#160;&#160;&#160;&#160;</text>
<polygon fill="none" stroke="#99ccff" points="1060.5,-195 1060.5,-214.5 1167.75,-214.5 1167.75,-195 1060.5,-195"/>
<text text-anchor="start" x="1063.5" y="-201.05" font-family="Courier,monospace" font-size="11.00">textarea(32768)</text>
<polygon fill="none" stroke="#99ccff" points="339,-175.5 339,-195 1060.5,-195 1060.5,-175.5 339,-175.5"/>
<text text-anchor="start" x="342" y="-181.55" font-family="Courier,monospace" font-size="11.00"> &#160;&#160;&#160;&#160;&#160;&#160;&#160;&#160;&#160;&#160;&#160;&#160;&#160;&#160;&#160;&#160;&#160;&#160;&#160;&#160;&#160;&#160;&#160;&#160;&#160;&#160;&#160;&#160;&#160;&#160;&#160;&#160;&#160;&#160;&#160;&#160;&#160;&#160;&#160;&#160;GroupKey &#160;&#160;&#160;&#160;&#160;&#160;&#160;&#160;&#160;&#160;&#160;&#160;&#160;&#160;&#160;&#160;&#160;&#160;&#160;&#160;&#160;&#160;&#160;&#160;&#160;&#160;&#160;&#160;&#160;&#160;&#160;&#160;&#160;&#160;&#160;&#160;&#160;&#160;</text>
<polygon fill="none" stroke="#99ccff" points="1060.5,-175.5 1060.5,-195 1167.75,-195 1167.75,-175.5 1060.5,-175.5"/>
<text text-anchor="start" x="1077" y="-181.55" font-family="Courier,monospace" font-size="11.00">string(255)</text>
<polygon fill="none" stroke="#99ccff" points="339,-156 339,-175.5 1060.5,-175.5 1060.5,-156 339,-156"/>
<text text-anchor="start" x="342" y="-162.05" font-family="Courier,monospace" font-size="11.00"> &#160;&#160;&#160;&#160;&#160;&#160;&#160;&#160;&#160;&#160;&#160;&#160;&#160;&#160;&#160;&#160;&#160;&#160;&#160;&#160;&#160;&#160;&#160;&#160;&#160;&#160;&#160;&#160;&#160;&#160;&#160;&#160;&#160;&#160;&#160;&#160;&#160;&#160;&#160;&#160;SubGroupKey &#160;&#160;&#160;&#160;&#160;&#160;&#160;&#160;&#160;&#160;&#160;&#160;&#160;&#160;&#160;&#160;&#160;&#160;&#160;&#160;&#160;&#160;&#160;&#160;&#160;&#160;&#160;&#160;&#160;&#160;&#160;&#160;&#160;&#160;&#160;&#160;&#160;&#160;</text>
<polygon fill="none" stroke="#99ccff" points="1060.5,-156 1060.5,-175.5 1167.75,-175.5 1167.75,-156 1060.5,-156"/>
<text text-anchor="start" x="1077" y="-162.05" font-family="Courier,monospace" font-size="11.00">string(255)</text>
<polygon fill="none" stroke="#99ccff" points="339,-136.5 339,-156 1060.5,-156 1060.5,-136.5 339,-136.5"/>
<text text-anchor="start" x="342" y="-142.55" font-family="Courier,monospace" font-size="11.00"> &#160;&#160;&#160;&#160;&#160;&#160;&#160;&#160;&#160;&#160;&#160;&#160;&#160;&#160;&#160;&#160;&#160;&#160;&#160;&#160;&#160;&#160;&#160;&#160;&#160;&#160;&#160;&#160;&#160;&#160;&#160;&#160;&#160;&#160;&#160;&#160;&#160;&#160;&#160;&#160;Type &#160;&#160;&#160;&#160;&#160;&#160;&#160;&#160;&#160;&#160;&#160;&#160;&#160;&#160;&#160;&#160;&#160;&#160;&#160;&#160;&#160;&#160;&#160;&#160;&#160;&#160;&#160;&#160;&#160;&#160;&#160;&#160;&#160;&#160;&#160;&#160;&#160;&#160;</text>
<polygon fill="none" stroke="#99ccff" points="1060.5,-136.5 1060.5,-156 1167.75,-156 1167.75,-136.5 1060.5,-136.5"/>
<text text-anchor="start" x="1070.25" y="-142.55" font-family="Courier,monospace" font-size="11.00">picklist(255)</text>
<polygon fill="none" stroke="#99ccff" points="339,-117 339,-136.5 1060.5,-136.5 1060.5,-117 339,-117"/>
<text text-anchor="start" x="342" y="-123.05" font-family="Courier,monospace" font-size="11.00"> &#160;&#160;&#160;&#160;&#160;&#160;&#160;&#160;&#160;&#160;&#160;&#160;&#160;&#160;&#160;&#160;&#160;&#160;&#160;&#160;&#160;&#160;&#160;&#160;&#160;&#160;&#160;&#160;&#160;&#160;&#160;&#160;&#160;&#160;&#160;&#160;&#160;&#160;&#160;&#160;UniqueName &#160;&#160;&#160;&#160;&#160;&#160;&#160;&#160;&#160;&#160;&#160;&#160;&#160;&#160;&#160;&#160;&#160;&#160;&#160;&#160;&#160;&#160;&#160;&#160;&#160;&#160;&#160;&#160;&#160;&#160;&#160;&#160;&#160;&#160;&#160;&#160;&#160;&#160;</text>
<polygon fill="none" stroke="#99ccff" points="1060.5,-117 1060.5,-136.5 1167.75,-136.5 1167.75,-117 1060.5,-117"/>
<text text-anchor="start" x="1080.38" y="-123.05" font-family="Courier,monospace" font-size="11.00">string(80)</text>
<polygon fill="none" stroke="#99ccff" points="339,-97.5 339,-117 1060.5,-117 1060.5,-97.5 339,-97.5"/>
<text text-anchor="start" x="342" y="-103.55" font-family="Courier,monospace" font-size="11.00"> &#160;&#160;&#160;&#160;&#160;&#160;&#160;&#160;&#160;&#160;&#160;&#160;&#160;&#160;&#160;&#160;&#160;&#160;&#160;&#160;&#160;&#160;&#160;&#160;&#160;&#160;&#160;&#160;&#160;&#160;&#160;&#160;&#160;&#160;&#160;&#160;&#160;&#160;&#160;&#160;Namespace &#160;&#160;&#160;&#160;&#160;&#160;&#160;&#160;&#160;&#160;&#160;&#160;&#160;&#160;&#160;&#160;&#160;&#160;&#160;&#160;&#160;&#160;&#160;&#160;&#160;&#160;&#160;&#160;&#160;&#160;&#160;&#160;&#160;&#160;&#160;&#160;&#160;&#160;</text>
<polygon fill="none" stroke="#99ccff" points="1060.5,-97.5 1060.5,-117 1167.75,-117 1167.75,-97.5 1060.5,-97.5"/>
<text text-anchor="start" x="1077" y="-103.55" font-family="Courier,monospace" font-size="11.00">string(255)</text>
<polygon fill="none" stroke="#99ccff" points="339,-78 339,-97.5 1060.5,-97.5 1060.5,-78 339,-78"/>
<text text-anchor="start" x="342" y="-84.05" font-family="Courier,monospace" font-size="11.00"> &#160;&#160;&#160;&#160;&#160;&#160;&#160;&#160;&#160;&#160;&#160;&#160;&#160;&#160;&#160;&#160;&#160;&#160;&#160;&#160;&#160;&#160;&#160;&#160;&#160;&#160;&#160;&#160;&#160;&#160;&#160;&#160;&#160;&#160;&#160;&#160;&#160;&#160;&#160;&#160;DecisionMatrixDefinitionId &#160;&#160;&#160;&#160;&#160;&#160;&#160;&#160;&#160;&#160;&#160;&#160;&#160;&#160;&#160;&#160;&#160;&#160;&#160;&#160;&#160;&#160;&#160;&#160;&#160;&#160;&#160;&#160;&#160;&#160;&#160;&#160;&#160;&#160;&#160;&#160;&#160;&#160;</text>
<polygon fill="none" stroke="#99ccff" points="1060.5,-78 1060.5,-97.5 1167.75,-97.5 1167.75,-78 1060.5,-78"/>
<text text-anchor="start" x="1070.25" y="-84.05" font-family="Courier,monospace" font-size="11.00">reference(18)</text>
<polygon fill="none" stroke="#99ccff" points="339,-58.5 339,-78 1060.5,-78 1060.5,-58.5 339,-58.5"/>
<text text-anchor="start" x="342" y="-64.55" font-family="Courier,monospace" font-size="11.00"> &#160;&#160;&#160;&#160;&#160;&#160;&#160;&#160;&#160;&#160;&#160;&#160;&#160;&#160;&#160;&#160;&#160;&#160;&#160;&#160;&#160;&#160;&#160;&#160;&#160;&#160;&#160;&#160;&#160;&#160;&#160;&#160;&#160;&#160;&#160;&#160;&#160;&#160;&#160;&#160;DecisionMatrixType &#160;&#160;&#160;&#160;&#160;&#160;&#160;&#160;&#160;&#160;&#160;&#160;&#160;&#160;&#160;&#160;&#160;&#160;&#160;&#160;&#160;&#160;&#160;&#160;&#160;&#160;&#160;&#160;&#160;&#160;&#160;&#160;&#160;&#160;&#160;&#160;&#160;&#160;</text>
<polygon fill="none" stroke="#99ccff" points="1060.5,-58.5 1060.5,-78 1167.75,-78 1167.75,-58.5 1060.5,-58.5"/>
<text text-anchor="start" x="1070.25" y="-64.55" font-family="Courier,monospace" font-size="11.00">picklist(255)</text>
<polygon fill="none" stroke="#99ccff" points="339,-39 339,-58.5 1060.5,-58.5 1060.5,-39 339,-39"/>
<text text-anchor="start" x="342" y="-45.05" font-family="Courier,monospace" font-size="11.00"> &#160;&#160;&#160;&#160;&#160;&#160;&#160;&#160;&#160;&#160;&#160;&#160;&#160;&#160;&#160;&#160;&#160;&#160;&#160;&#160;&#160;&#160;&#160;&#160;&#160;&#160;&#160;&#160;&#160;&#160;&#160;&#160;&#160;&#160;&#160;&#160;&#160;&#160;&#160;&#160;MigrationStatus &#160;&#160;&#160;&#160;&#160;&#160;&#160;&#160;&#160;&#160;&#160;&#160;&#160;&#160;&#160;&#160;&#160;&#160;&#160;&#160;&#160;&#160;&#160;&#160;&#160;&#160;&#160;&#160;&#160;&#160;&#160;&#160;&#160;&#160;&#160;&#160;&#160;&#160;</text>
<polygon fill="none" stroke="#99ccff" points="1060.5,-39 1060.5,-58.5 1167.75,-58.5 1167.75,-39 1060.5,-39"/>
<text text-anchor="start" x="1063.5" y="-45.05" font-family="Courier,monospace" font-size="11.00">textarea(32000)</text>
<polygon fill="none" stroke="#99ccff" points="339,-19.5 339,-39 1060.5,-39 1060.5,-19.5 339,-19.5"/>
<text text-anchor="start" x="342" y="-25.55" font-family="Courier,monospace" font-size="11.00"> &#160;&#160;&#160;&#160;&#160;&#160;&#160;&#160;&#160;&#160;&#160;&#160;&#160;&#160;&#160;&#160;&#160;&#160;&#160;&#160;&#160;&#160;&#160;&#160;&#160;&#160;&#160;&#160;&#160;&#160;&#160;&#160;&#160;&#160;&#160;&#160;&#160;&#160;&#160;&#160;UsageType &#160;&#160;&#160;&#160;&#160;&#160;&#160;&#160;&#160;&#160;&#160;&#160;&#160;&#160;&#160;&#160;&#160;&#160;&#160;&#160;&#160;&#160;&#160;&#160;&#160;&#160;&#160;&#160;&#160;&#160;&#160;&#160;&#160;&#160;&#160;&#160;&#160;&#160;</text>
<polygon fill="none" stroke="#99ccff" points="1060.5,-19.5 1060.5,-39 1167.75,-39 1167.75,-19.5 1060.5,-19.5"/>
<text text-anchor="start" x="1070.25" y="-25.55" font-family="Courier,monospace" font-size="11.00">picklist(255)</text>
<polygon fill="none" stroke="#99ccff" points="338,-18.5 338,-371.5 1168.75,-371.5 1168.75,-18.5 338,-18.5"/>
</a>
</g>
</g>
<!-- Group -->
<g id="node2" class="node">
<title>Group</title>
<text text-anchor="middle" x="89" y="-317.3" font-family="Courier,monospace" font-size="11.00">Group</text>
</g>
<!-- CalculationMatrix&#45;&gt;Group -->
<g id="edge1" class="edge">
<title>CalculationMatrix:w&#45;&gt;Group:e</title>
<path fill="none" stroke="#ff99cc" d="M322.62,-321.75C245.03,-321.7 157.93,-321.33 115.71,-321.13"/>
<polygon fill="#ff99cc" stroke="#ff99cc" points="329.67,-321.75 337.66,-325.35 334,-321.75 337.33,-321.75 337.33,-321.75 337.33,-321.75 334,-321.75 337.67,-318.15 329.67,-321.75"/>
<ellipse fill="none" stroke="#ff99cc" cx="324.75" cy="-321.75" rx="3.2" ry="3.2"/>
<text text-anchor="middle" x="258" y="-324.44" font-family="Monaco" font-size="9.00">Owner</text>
</g>
<!-- User -->
<g id="node3" class="node">
<title>User</title>
<text text-anchor="middle" x="89" y="-264.3" font-family="Courier,monospace" font-size="11.00">User</text>
</g>
<!-- CalculationMatrix&#45;&gt;User -->
<g id="edge2" class="edge">
<title>CalculationMatrix:w&#45;&gt;User:e</title>
<path fill="none" stroke="#ff99cc" d="M328.43,-309.26C327.62,-303.59 326.66,-297.36 321,-293.75 303.99,-282.89 172.57,-273.28 115.88,-269.6"/>
<polygon fill="#ff99cc" stroke="#ff99cc" points="332.93,-315.13 334.94,-323.67 335.57,-318.57 337.59,-321.22 337.59,-321.22 337.59,-321.22 335.57,-318.57 340.65,-319.3 332.93,-315.13"/>
<ellipse fill="none" stroke="#ff99cc" cx="329.94" cy="-311.23" rx="3.2" ry="3.2"/>
<text text-anchor="middle" x="258" y="-296.45" font-family="Monaco" font-size="9.00">Owner</text>
</g>
<!-- CalculationMatrix&#45;&gt;User -->
<g id="edge3" class="edge">
<title>CalculationMatrix:w&#45;&gt;User:e</title>
<path fill="none" stroke="#ff99cc" d="M322.36,-261.82C321.92,-261.79 321.47,-261.77 321,-261.75 265.05,-259.29 250.98,-260.09 195,-261.75 167.99,-262.55 137.11,-264.52 115.87,-266.03"/>
<polygon fill="#ff99cc" stroke="#ff99cc" points="329.7,-262.49 337.34,-266.8 334.02,-262.89 337.33,-263.19 337.33,-263.19 337.33,-263.19 334.02,-262.89 337.99,-259.63 329.7,-262.49"/>
<ellipse fill="none" stroke="#ff99cc" cx="324.8" cy="-262.05" rx="3.2" ry="3.2"/>
<text text-anchor="middle" x="258" y="-264.45" font-family="Monaco" font-size="9.00">LastModifiedBy</text>
</g>
<!-- DecisionMatrixDefinition -->
<g id="node4" class="node">
<title>DecisionMatrixDefinition</title>
<text text-anchor="middle" x="89" y="-109.3" font-family="Courier,monospace" font-size="11.00">DecisionMatrixDefinition</text>
</g>
<!-- CalculationMatrix&#45;&gt;DecisionMatrixDefinition -->
<g id="edge4" class="edge">
<title>CalculationMatrix:w&#45;&gt;DecisionMatrixDefinition:e</title>
<path fill="none" stroke="#ff99cc" d="M322.21,-87.91C273.16,-88.9 220.57,-94.2 177.87,-99.67"/>
<polygon fill="#ff99cc" stroke="#ff99cc" points="329.67,-87.84 337.7,-91.35 334,-87.79 337.33,-87.76 337.33,-87.76 337.33,-87.76 334,-87.79 337.63,-84.15 329.67,-87.84"/>
<ellipse fill="none" stroke="#ff99cc" cx="324.75" cy="-87.89" rx="3.2" ry="3.2"/>
<text text-anchor="middle" x="258" y="-100.07" font-family="Monaco" font-size="9.00">DecisionMatrixDefinition</text>
</g>
<!-- DecisionTable -->
<g id="node5" class="node">
<title>DecisionTable</title>
<text text-anchor="middle" x="89" y="-60.3" font-family="Courier,monospace" font-size="11.00">DecisionTable</text>
</g>
<!-- CalculationMatrix&#45;&gt;DecisionTable -->
<g id="edge5" class="edge">
<title>CalculationMatrix:w&#45;&gt;DecisionTable:e</title>
<path fill="none" stroke="#ff99cc" d="M326.14,-77.41C324.88,-75.94 323.29,-74.62 321,-73.75 262.14,-51.22 188.6,-52.66 140.51,-57.14"/>
<polygon fill="#ff99cc" stroke="#ff99cc" points="331.72,-82.28 335.38,-90.24 334.98,-85.12 337.5,-87.31 337.5,-87.31 337.5,-87.31 334.98,-85.12 340.11,-84.82 331.72,-82.28"/>
<ellipse fill="none" stroke="#ff99cc" cx="328.01" cy="-79.04" rx="3.2" ry="3.2"/>
<text text-anchor="middle" x="258" y="-76.45" font-family="Monaco" font-size="9.00">DecisionMatrixDefinition</text>
</g>
</g>
</svg>
