<?xml version="1.0" encoding="UTF-8" standalone="no"?>
<!DOCTYPE svg PUBLIC "-//W3C//DTD SVG 1.1//EN"
 "http://www.w3.org/Graphics/SVG/1.1/DTD/svg11.dtd">
<!-- Generated by graphviz version 12.2.1 (20241206.2353)
 -->
<!-- Title: Salesforce+ ERD Pages: 1 -->
<svg width="987pt" height="302pt"
 viewBox="0.00 0.00 986.75 301.50" xmlns="http://www.w3.org/2000/svg" xmlns:xlink="http://www.w3.org/1999/xlink">
<g id="graph0" class="graph" transform="scale(1 1) rotate(0) translate(4 297.5)">
<title>Salesforce+ ERD</title>
<polygon fill="#efeffd" stroke="none" points="-4,4 -4,-297.5 982.75,-297.5 982.75,4 -4,4"/>
<text text-anchor="middle" x="931.38" y="-5.95" font-family="Courier,monospace" font-size="9.00">Salesforce ERD </text>
<!-- CalculationProcedure -->
<g id="node1" class="node">
<title>CalculationProcedure</title>
<g id="a_node1"><a xlink:href="#" xlink:title=" CalculationProcedure ">
<polygon fill="#ffeeff" stroke="none" points="161.5,-18.5 161.5,-293.5 978.75,-293.5 978.75,-18.5 161.5,-18.5"/>
<polygon fill="lightblue" stroke="none" points="162.5,-273 162.5,-292.5 977.75,-292.5 977.75,-273 162.5,-273"/>
<polygon fill="none" stroke="#99ccff" points="162.5,-273 162.5,-292.5 977.75,-292.5 977.75,-273 162.5,-273"/>
<text text-anchor="start" x="502.62" y="-280.05" font-family="Courier,monospace" font-weight="bold" font-size="11.00">CalculationProcedure</text>
<polygon fill="#99ccff" stroke="none" points="162.5,-253.5 162.5,-273 863.75,-273 863.75,-253.5 162.5,-253.5"/>
<polygon fill="none" stroke="#99ccff" points="162.5,-253.5 162.5,-273 863.75,-273 863.75,-253.5 162.5,-253.5"/>
<text text-anchor="start" x="165.5" y="-260.55" font-family="Courier,monospace" font-size="11.00"> &#160;&#160;&#160;&#160;&#160;&#160;&#160;&#160;&#160;&#160;&#160;&#160;&#160;&#160;&#160;&#160;&#160;&#160;&#160;&#160;&#160;&#160;&#160;&#160;&#160;&#160;&#160;&#160;&#160;&#160;&#160;&#160;&#160;&#160;&#160;&#160;&#160;&#160;&#160;&#160;&#160;&#160;</text>
<text text-anchor="start" x="455.75" y="-260.55" font-family="Courier,monospace" font-weight="bold" font-size="11.00">Id</text>
<text text-anchor="start" x="469.25" y="-260.55" font-family="Courier,monospace" font-size="11.00"> &#160;&#160;&#160;&#160;&#160;&#160;&#160;&#160;&#160;&#160;&#160;&#160;&#160;&#160;&#160;&#160;&#160;&#160;&#160;&#160;&#160;&#160;&#160;&#160;&#160;&#160;&#160;&#160;&#160;&#160;&#160;&#160;&#160;&#160;&#160;&#160;&#160;&#160;&#160;</text>
<polygon fill="none" stroke="#99ccff" points="863.75,-253.5 863.75,-273 977.75,-273 977.75,-253.5 863.75,-253.5"/>
<text text-anchor="start" x="900.5" y="-259.55" font-family="Courier,monospace" font-size="11.00">id(18)</text>
<polygon fill="none" stroke="#99ccff" points="162.5,-234 162.5,-253.5 863.75,-253.5 863.75,-234 162.5,-234"/>
<text text-anchor="start" x="165.5" y="-240.05" font-family="Courier,monospace" font-size="11.00"> &#160;&#160;&#160;&#160;&#160;&#160;&#160;&#160;&#160;&#160;&#160;&#160;&#160;&#160;&#160;&#160;&#160;&#160;&#160;&#160;&#160;&#160;&#160;&#160;&#160;&#160;&#160;&#160;&#160;&#160;&#160;&#160;&#160;&#160;&#160;&#160;&#160;&#160;&#160;&#160;OwnerId &#160;&#160;&#160;&#160;&#160;&#160;&#160;&#160;&#160;&#160;&#160;&#160;&#160;&#160;&#160;&#160;&#160;&#160;&#160;&#160;&#160;&#160;&#160;&#160;&#160;&#160;&#160;&#160;&#160;&#160;&#160;&#160;&#160;&#160;&#160;&#160;&#160;&#160;</text>
<polygon fill="none" stroke="#99ccff" points="863.75,-234 863.75,-253.5 977.75,-253.5 977.75,-234 863.75,-234"/>
<text text-anchor="start" x="876.88" y="-240.05" font-family="Courier,monospace" font-size="11.00">reference(18)</text>
<polygon fill="none" stroke="#99ccff" points="162.5,-214.5 162.5,-234 863.75,-234 863.75,-214.5 162.5,-214.5"/>
<text text-anchor="start" x="165.5" y="-220.55" font-family="Courier,monospace" font-size="11.00"> &#160;&#160;&#160;&#160;&#160;&#160;&#160;&#160;&#160;&#160;&#160;&#160;&#160;&#160;&#160;&#160;&#160;&#160;&#160;&#160;&#160;&#160;&#160;&#160;&#160;&#160;&#160;&#160;&#160;&#160;&#160;&#160;&#160;&#160;&#160;&#160;&#160;&#160;&#160;&#160;IsDeleted &#160;&#160;&#160;&#160;&#160;&#160;&#160;&#160;&#160;&#160;&#160;&#160;&#160;&#160;&#160;&#160;&#160;&#160;&#160;&#160;&#160;&#160;&#160;&#160;&#160;&#160;&#160;&#160;&#160;&#160;&#160;&#160;&#160;&#160;&#160;&#160;&#160;&#160;</text>
<polygon fill="none" stroke="#99ccff" points="863.75,-214.5 863.75,-234 977.75,-234 977.75,-214.5 863.75,-214.5"/>
<text text-anchor="start" x="897.12" y="-220.55" font-family="Courier,monospace" font-size="11.00">boolean</text>
<polygon fill="none" stroke="#99ccff" points="162.5,-195 162.5,-214.5 863.75,-214.5 863.75,-195 162.5,-195"/>
<text text-anchor="start" x="165.5" y="-201.05" font-family="Courier,monospace" font-size="11.00"> &#160;&#160;&#160;&#160;&#160;&#160;&#160;&#160;&#160;&#160;&#160;&#160;&#160;&#160;&#160;&#160;&#160;&#160;&#160;&#160;&#160;&#160;&#160;&#160;&#160;&#160;&#160;&#160;&#160;&#160;&#160;&#160;&#160;&#160;&#160;&#160;&#160;&#160;&#160;&#160;Name &#160;&#160;&#160;&#160;&#160;&#160;&#160;&#160;&#160;&#160;&#160;&#160;&#160;&#160;&#160;&#160;&#160;&#160;&#160;&#160;&#160;&#160;&#160;&#160;&#160;&#160;&#160;&#160;&#160;&#160;&#160;&#160;&#160;&#160;&#160;&#160;&#160;&#160;</text>
<polygon fill="none" stroke="#99ccff" points="863.75,-195 863.75,-214.5 977.75,-214.5 977.75,-195 863.75,-195"/>
<text text-anchor="start" x="883.62" y="-201.05" font-family="Courier,monospace" font-size="11.00">string(255)</text>
<polygon fill="none" stroke="#99ccff" points="162.5,-175.5 162.5,-195 863.75,-195 863.75,-175.5 162.5,-175.5"/>
<text text-anchor="start" x="165.5" y="-181.55" font-family="Courier,monospace" font-size="11.00"> &#160;&#160;&#160;&#160;&#160;&#160;&#160;&#160;&#160;&#160;&#160;&#160;&#160;&#160;&#160;&#160;&#160;&#160;&#160;&#160;&#160;&#160;&#160;&#160;&#160;&#160;&#160;&#160;&#160;&#160;&#160;&#160;&#160;&#160;&#160;&#160;&#160;&#160;&#160;&#160;LastModifiedById &#160;&#160;&#160;&#160;&#160;&#160;&#160;&#160;&#160;&#160;&#160;&#160;&#160;&#160;&#160;&#160;&#160;&#160;&#160;&#160;&#160;&#160;&#160;&#160;&#160;&#160;&#160;&#160;&#160;&#160;&#160;&#160;&#160;&#160;&#160;&#160;&#160;&#160;</text>
<polygon fill="none" stroke="#99ccff" points="863.75,-175.5 863.75,-195 977.75,-195 977.75,-175.5 863.75,-175.5"/>
<text text-anchor="start" x="876.88" y="-181.55" font-family="Courier,monospace" font-size="11.00">reference(18)</text>
<polygon fill="none" stroke="#99ccff" points="162.5,-156 162.5,-175.5 863.75,-175.5 863.75,-156 162.5,-156"/>
<text text-anchor="start" x="165.5" y="-162.05" font-family="Courier,monospace" font-size="11.00"> &#160;&#160;&#160;&#160;&#160;&#160;&#160;&#160;&#160;&#160;&#160;&#160;&#160;&#160;&#160;&#160;&#160;&#160;&#160;&#160;&#160;&#160;&#160;&#160;&#160;&#160;&#160;&#160;&#160;&#160;&#160;&#160;&#160;&#160;&#160;&#160;&#160;&#160;&#160;&#160;LastViewedDate &#160;&#160;&#160;&#160;&#160;&#160;&#160;&#160;&#160;&#160;&#160;&#160;&#160;&#160;&#160;&#160;&#160;&#160;&#160;&#160;&#160;&#160;&#160;&#160;&#160;&#160;&#160;&#160;&#160;&#160;&#160;&#160;&#160;&#160;&#160;&#160;&#160;&#160;</text>
<polygon fill="none" stroke="#99ccff" points="863.75,-156 863.75,-175.5 977.75,-175.5 977.75,-156 863.75,-156"/>
<text text-anchor="start" x="893.75" y="-162.05" font-family="Courier,monospace" font-size="11.00">datetime</text>
<polygon fill="none" stroke="#99ccff" points="162.5,-136.5 162.5,-156 863.75,-156 863.75,-136.5 162.5,-136.5"/>
<text text-anchor="start" x="165.5" y="-142.55" font-family="Courier,monospace" font-size="11.00"> &#160;&#160;&#160;&#160;&#160;&#160;&#160;&#160;&#160;&#160;&#160;&#160;&#160;&#160;&#160;&#160;&#160;&#160;&#160;&#160;&#160;&#160;&#160;&#160;&#160;&#160;&#160;&#160;&#160;&#160;&#160;&#160;&#160;&#160;&#160;&#160;&#160;&#160;&#160;&#160;LastReferencedDate &#160;&#160;&#160;&#160;&#160;&#160;&#160;&#160;&#160;&#160;&#160;&#160;&#160;&#160;&#160;&#160;&#160;&#160;&#160;&#160;&#160;&#160;&#160;&#160;&#160;&#160;&#160;&#160;&#160;&#160;&#160;&#160;&#160;&#160;&#160;&#160;&#160;&#160;</text>
<polygon fill="none" stroke="#99ccff" points="863.75,-136.5 863.75,-156 977.75,-156 977.75,-136.5 863.75,-136.5"/>
<text text-anchor="start" x="893.75" y="-142.55" font-family="Courier,monospace" font-size="11.00">datetime</text>
<polygon fill="none" stroke="#99ccff" points="162.5,-117 162.5,-136.5 863.75,-136.5 863.75,-117 162.5,-117"/>
<text text-anchor="start" x="165.5" y="-123.05" font-family="Courier,monospace" font-size="11.00"> &#160;&#160;&#160;&#160;&#160;&#160;&#160;&#160;&#160;&#160;&#160;&#160;&#160;&#160;&#160;&#160;&#160;&#160;&#160;&#160;&#160;&#160;&#160;&#160;&#160;&#160;&#160;&#160;&#160;&#160;&#160;&#160;&#160;&#160;&#160;&#160;&#160;&#160;&#160;&#160;Description &#160;&#160;&#160;&#160;&#160;&#160;&#160;&#160;&#160;&#160;&#160;&#160;&#160;&#160;&#160;&#160;&#160;&#160;&#160;&#160;&#160;&#160;&#160;&#160;&#160;&#160;&#160;&#160;&#160;&#160;&#160;&#160;&#160;&#160;&#160;&#160;&#160;&#160;</text>
<polygon fill="none" stroke="#99ccff" points="863.75,-117 863.75,-136.5 977.75,-136.5 977.75,-117 863.75,-117"/>
<text text-anchor="start" x="883.62" y="-123.05" font-family="Courier,monospace" font-size="11.00">string(255)</text>
<polygon fill="none" stroke="#99ccff" points="162.5,-97.5 162.5,-117 863.75,-117 863.75,-97.5 162.5,-97.5"/>
<text text-anchor="start" x="165.5" y="-103.55" font-family="Courier,monospace" font-size="11.00"> &#160;&#160;&#160;&#160;&#160;&#160;&#160;&#160;&#160;&#160;&#160;&#160;&#160;&#160;&#160;&#160;&#160;&#160;&#160;&#160;&#160;&#160;&#160;&#160;&#160;&#160;&#160;&#160;&#160;&#160;&#160;&#160;&#160;&#160;&#160;&#160;&#160;&#160;&#160;&#160;InputVariablesMetadata &#160;&#160;&#160;&#160;&#160;&#160;&#160;&#160;&#160;&#160;&#160;&#160;&#160;&#160;&#160;&#160;&#160;&#160;&#160;&#160;&#160;&#160;&#160;&#160;&#160;&#160;&#160;&#160;&#160;&#160;&#160;&#160;&#160;&#160;&#160;&#160;&#160;&#160;</text>
<polygon fill="none" stroke="#99ccff" points="863.75,-97.5 863.75,-117 977.75,-117 977.75,-97.5 863.75,-97.5"/>
<text text-anchor="start" x="866.75" y="-103.55" font-family="Courier,monospace" font-size="11.00">textarea(131072)</text>
<polygon fill="none" stroke="#99ccff" points="162.5,-78 162.5,-97.5 863.75,-97.5 863.75,-78 162.5,-78"/>
<text text-anchor="start" x="165.5" y="-84.05" font-family="Courier,monospace" font-size="11.00"> &#160;&#160;&#160;&#160;&#160;&#160;&#160;&#160;&#160;&#160;&#160;&#160;&#160;&#160;&#160;&#160;&#160;&#160;&#160;&#160;&#160;&#160;&#160;&#160;&#160;&#160;&#160;&#160;&#160;&#160;&#160;&#160;&#160;&#160;&#160;&#160;&#160;&#160;&#160;&#160;OutputVariablesMetadata &#160;&#160;&#160;&#160;&#160;&#160;&#160;&#160;&#160;&#160;&#160;&#160;&#160;&#160;&#160;&#160;&#160;&#160;&#160;&#160;&#160;&#160;&#160;&#160;&#160;&#160;&#160;&#160;&#160;&#160;&#160;&#160;&#160;&#160;&#160;&#160;&#160;&#160;</text>
<polygon fill="none" stroke="#99ccff" points="863.75,-78 863.75,-97.5 977.75,-97.5 977.75,-78 863.75,-78"/>
<text text-anchor="start" x="866.75" y="-84.05" font-family="Courier,monospace" font-size="11.00">textarea(131072)</text>
<polygon fill="none" stroke="#99ccff" points="162.5,-58.5 162.5,-78 863.75,-78 863.75,-58.5 162.5,-58.5"/>
<text text-anchor="start" x="165.5" y="-64.55" font-family="Courier,monospace" font-size="11.00"> &#160;&#160;&#160;&#160;&#160;&#160;&#160;&#160;&#160;&#160;&#160;&#160;&#160;&#160;&#160;&#160;&#160;&#160;&#160;&#160;&#160;&#160;&#160;&#160;&#160;&#160;&#160;&#160;&#160;&#160;&#160;&#160;&#160;&#160;&#160;&#160;&#160;&#160;&#160;&#160;UniqueName &#160;&#160;&#160;&#160;&#160;&#160;&#160;&#160;&#160;&#160;&#160;&#160;&#160;&#160;&#160;&#160;&#160;&#160;&#160;&#160;&#160;&#160;&#160;&#160;&#160;&#160;&#160;&#160;&#160;&#160;&#160;&#160;&#160;&#160;&#160;&#160;&#160;&#160;</text>
<polygon fill="none" stroke="#99ccff" points="863.75,-58.5 863.75,-78 977.75,-78 977.75,-58.5 863.75,-58.5"/>
<text text-anchor="start" x="887" y="-64.55" font-family="Courier,monospace" font-size="11.00">string(80)</text>
<polygon fill="none" stroke="#99ccff" points="162.5,-39 162.5,-58.5 863.75,-58.5 863.75,-39 162.5,-39"/>
<text text-anchor="start" x="165.5" y="-45.05" font-family="Courier,monospace" font-size="11.00"> &#160;&#160;&#160;&#160;&#160;&#160;&#160;&#160;&#160;&#160;&#160;&#160;&#160;&#160;&#160;&#160;&#160;&#160;&#160;&#160;&#160;&#160;&#160;&#160;&#160;&#160;&#160;&#160;&#160;&#160;&#160;&#160;&#160;&#160;&#160;&#160;&#160;&#160;&#160;&#160;Namespace &#160;&#160;&#160;&#160;&#160;&#160;&#160;&#160;&#160;&#160;&#160;&#160;&#160;&#160;&#160;&#160;&#160;&#160;&#160;&#160;&#160;&#160;&#160;&#160;&#160;&#160;&#160;&#160;&#160;&#160;&#160;&#160;&#160;&#160;&#160;&#160;&#160;&#160;</text>
<polygon fill="none" stroke="#99ccff" points="863.75,-39 863.75,-58.5 977.75,-58.5 977.75,-39 863.75,-39"/>
<text text-anchor="start" x="883.62" y="-45.05" font-family="Courier,monospace" font-size="11.00">string(255)</text>
<polygon fill="none" stroke="#99ccff" points="162.5,-19.5 162.5,-39 863.75,-39 863.75,-19.5 162.5,-19.5"/>
<text text-anchor="start" x="165.5" y="-25.55" font-family="Courier,monospace" font-size="11.00"> &#160;&#160;&#160;&#160;&#160;&#160;&#160;&#160;&#160;&#160;&#160;&#160;&#160;&#160;&#160;&#160;&#160;&#160;&#160;&#160;&#160;&#160;&#160;&#160;&#160;&#160;&#160;&#160;&#160;&#160;&#160;&#160;&#160;&#160;&#160;&#160;&#160;&#160;&#160;&#160;MigrationStatus &#160;&#160;&#160;&#160;&#160;&#160;&#160;&#160;&#160;&#160;&#160;&#160;&#160;&#160;&#160;&#160;&#160;&#160;&#160;&#160;&#160;&#160;&#160;&#160;&#160;&#160;&#160;&#160;&#160;&#160;&#160;&#160;&#160;&#160;&#160;&#160;&#160;&#160;</text>
<polygon fill="none" stroke="#99ccff" points="863.75,-19.5 863.75,-39 977.75,-39 977.75,-19.5 863.75,-19.5"/>
<text text-anchor="start" x="870.12" y="-25.55" font-family="Courier,monospace" font-size="11.00">textarea(32000)</text>
<polygon fill="none" stroke="#99ccff" points="161.5,-18.5 161.5,-293.5 978.75,-293.5 978.75,-18.5 161.5,-18.5"/>
</a>
</g>
</g>
<!-- Group -->
<g id="node2" class="node">
<title>Group</title>
<text text-anchor="middle" x="27" y="-239.3" font-family="Courier,monospace" font-size="11.00">Group</text>
</g>
<!-- CalculationProcedure&#45;&gt;Group -->
<g id="edge1" class="edge">
<title>CalculationProcedure:w&#45;&gt;Group:e</title>
<path fill="none" stroke="#ff99cc" d="M145.82,-243.73C112.37,-243.67 76.79,-243.42 53.59,-243.23"/>
<polygon fill="#ff99cc" stroke="#ff99cc" points="153.17,-243.74 161.16,-247.35 157.5,-243.75 160.83,-243.75 160.83,-243.75 160.83,-243.75 157.5,-243.75 161.17,-240.15 153.17,-243.74"/>
<ellipse fill="none" stroke="#ff99cc" cx="148.25" cy="-243.74" rx="3.2" ry="3.2"/>
<text text-anchor="middle" x="107.75" y="-246.43" font-family="Monaco" font-size="9.00">Owner</text>
</g>
<!-- User -->
<g id="node3" class="node">
<title>User</title>
<text text-anchor="middle" x="27" y="-186.3" font-family="Courier,monospace" font-size="11.00">User</text>
</g>
<!-- CalculationProcedure&#45;&gt;User -->
<g id="edge2" class="edge">
<title>CalculationProcedure:w&#45;&gt;User:e</title>
<path fill="none" stroke="#ff99cc" d="M151.76,-231.52C150.9,-225.91 149.96,-219.66 144.5,-215.75 137.17,-210.5 85.99,-200.49 53.95,-194.62"/>
<polygon fill="#ff99cc" stroke="#ff99cc" points="156.31,-237.23 158.48,-245.73 159.01,-240.62 161.08,-243.23 161.08,-243.23 161.08,-243.23 159.01,-240.62 164.11,-241.25 156.31,-237.23"/>
<ellipse fill="none" stroke="#ff99cc" cx="153.24" cy="-233.38" rx="3.2" ry="3.2"/>
<text text-anchor="middle" x="107.75" y="-218.45" font-family="Monaco" font-size="9.00">Owner</text>
</g>
<!-- CalculationProcedure&#45;&gt;User -->
<g id="edge3" class="edge">
<title>CalculationProcedure:w&#45;&gt;User:e</title>
<path fill="none" stroke="#ff99cc" d="M145.86,-183.82C145.42,-183.79 144.97,-183.77 144.5,-183.75 111.86,-182.31 103.58,-181.39 71,-183.75 65.43,-184.15 59.49,-184.84 53.86,-185.63"/>
<polygon fill="#ff99cc" stroke="#ff99cc" points="153.2,-184.49 160.84,-188.8 157.52,-184.89 160.83,-185.19 160.83,-185.19 160.83,-185.19 157.52,-184.89 161.49,-181.63 153.2,-184.49"/>
<ellipse fill="none" stroke="#ff99cc" cx="148.3" cy="-184.05" rx="3.2" ry="3.2"/>
<text text-anchor="middle" x="107.75" y="-186.45" font-family="Monaco" font-size="9.00">LastModifiedBy</text>
</g>
</g>
</svg>
