<?xml version="1.0" encoding="UTF-8" standalone="no"?>
<!DOCTYPE svg PUBLIC "-//W3C//DTD SVG 1.1//EN"
 "http://www.w3.org/Graphics/SVG/1.1/DTD/svg11.dtd">
<!-- Generated by graphviz version 12.2.1 (20241206.2353)
 -->
<!-- Title: Salesforce+ ERD Pages: 1 -->
<svg width="1163pt" height="204pt"
 viewBox="0.00 0.00 1163.25 204.00" xmlns="http://www.w3.org/2000/svg" xmlns:xlink="http://www.w3.org/1999/xlink">
<g id="graph0" class="graph" transform="scale(1 1) rotate(0) translate(4 200)">
<title>Salesforce+ ERD</title>
<polygon fill="#efeffd" stroke="none" points="-4,4 -4,-200 1159.25,-200 1159.25,4 -4,4"/>
<text text-anchor="middle" x="1107.88" y="-5.95" font-family="Courier,monospace" font-size="9.00">Salesforce ERD </text>
<!-- CalcMatrixColumnRange -->
<g id="node1" class="node">
<title>CalcMatrixColumnRange</title>
<g id="a_node1"><a xlink:href="#" xlink:title=" CalcMatrixColumnRange ">
<polygon fill="#ffeeff" stroke="none" points="338,-18.5 338,-196 1155.25,-196 1155.25,-18.5 338,-18.5"/>
<polygon fill="lightblue" stroke="none" points="339,-175.5 339,-195 1154.25,-195 1154.25,-175.5 339,-175.5"/>
<polygon fill="none" stroke="#99ccff" points="339,-175.5 339,-195 1154.25,-195 1154.25,-175.5 339,-175.5"/>
<text text-anchor="start" x="675.75" y="-182.55" font-family="Courier,monospace" font-weight="bold" font-size="11.00">CalcMatrixColumnRange</text>
<polygon fill="#99ccff" stroke="none" points="339,-156 339,-175.5 1060.5,-175.5 1060.5,-156 339,-156"/>
<polygon fill="none" stroke="#99ccff" points="339,-156 339,-175.5 1060.5,-175.5 1060.5,-156 339,-156"/>
<text text-anchor="start" x="342" y="-163.05" font-family="Courier,monospace" font-size="11.00"> &#160;&#160;&#160;&#160;&#160;&#160;&#160;&#160;&#160;&#160;&#160;&#160;&#160;&#160;&#160;&#160;&#160;&#160;&#160;&#160;&#160;&#160;&#160;&#160;&#160;&#160;&#160;&#160;&#160;&#160;&#160;&#160;&#160;&#160;&#160;&#160;&#160;&#160;&#160;&#160;&#160;&#160;</text>
<text text-anchor="start" x="632.25" y="-163.05" font-family="Courier,monospace" font-weight="bold" font-size="11.00">Id</text>
<text text-anchor="start" x="645.75" y="-163.05" font-family="Courier,monospace" font-size="11.00"> &#160;&#160;&#160;&#160;&#160;&#160;&#160;&#160;&#160;&#160;&#160;&#160;&#160;&#160;&#160;&#160;&#160;&#160;&#160;&#160;&#160;&#160;&#160;&#160;&#160;&#160;&#160;&#160;&#160;&#160;&#160;&#160;&#160;&#160;&#160;&#160;&#160;&#160;&#160;</text>
<polygon fill="none" stroke="#99ccff" points="1060.5,-156 1060.5,-175.5 1154.25,-175.5 1154.25,-156 1060.5,-156"/>
<text text-anchor="start" x="1087.12" y="-162.05" font-family="Courier,monospace" font-size="11.00">id(18)</text>
<polygon fill="none" stroke="#99ccff" points="339,-136.5 339,-156 1060.5,-156 1060.5,-136.5 339,-136.5"/>
<text text-anchor="start" x="342" y="-142.55" font-family="Courier,monospace" font-size="11.00"> &#160;&#160;&#160;&#160;&#160;&#160;&#160;&#160;&#160;&#160;&#160;&#160;&#160;&#160;&#160;&#160;&#160;&#160;&#160;&#160;&#160;&#160;&#160;&#160;&#160;&#160;&#160;&#160;&#160;&#160;&#160;&#160;&#160;&#160;&#160;&#160;&#160;&#160;&#160;&#160;IsDeleted &#160;&#160;&#160;&#160;&#160;&#160;&#160;&#160;&#160;&#160;&#160;&#160;&#160;&#160;&#160;&#160;&#160;&#160;&#160;&#160;&#160;&#160;&#160;&#160;&#160;&#160;&#160;&#160;&#160;&#160;&#160;&#160;&#160;&#160;&#160;&#160;&#160;&#160;</text>
<polygon fill="none" stroke="#99ccff" points="1060.5,-136.5 1060.5,-156 1154.25,-156 1154.25,-136.5 1060.5,-136.5"/>
<text text-anchor="start" x="1083.75" y="-142.55" font-family="Courier,monospace" font-size="11.00">boolean</text>
<polygon fill="none" stroke="#99ccff" points="339,-117 339,-136.5 1060.5,-136.5 1060.5,-117 339,-117"/>
<text text-anchor="start" x="342" y="-123.05" font-family="Courier,monospace" font-size="11.00"> &#160;&#160;&#160;&#160;&#160;&#160;&#160;&#160;&#160;&#160;&#160;&#160;&#160;&#160;&#160;&#160;&#160;&#160;&#160;&#160;&#160;&#160;&#160;&#160;&#160;&#160;&#160;&#160;&#160;&#160;&#160;&#160;&#160;&#160;&#160;&#160;&#160;&#160;&#160;&#160;Name &#160;&#160;&#160;&#160;&#160;&#160;&#160;&#160;&#160;&#160;&#160;&#160;&#160;&#160;&#160;&#160;&#160;&#160;&#160;&#160;&#160;&#160;&#160;&#160;&#160;&#160;&#160;&#160;&#160;&#160;&#160;&#160;&#160;&#160;&#160;&#160;&#160;&#160;</text>
<polygon fill="none" stroke="#99ccff" points="1060.5,-117 1060.5,-136.5 1154.25,-136.5 1154.25,-117 1060.5,-117"/>
<text text-anchor="start" x="1070.25" y="-123.05" font-family="Courier,monospace" font-size="11.00">string(255)</text>
<polygon fill="none" stroke="#99ccff" points="339,-97.5 339,-117 1060.5,-117 1060.5,-97.5 339,-97.5"/>
<text text-anchor="start" x="342" y="-103.55" font-family="Courier,monospace" font-size="11.00"> &#160;&#160;&#160;&#160;&#160;&#160;&#160;&#160;&#160;&#160;&#160;&#160;&#160;&#160;&#160;&#160;&#160;&#160;&#160;&#160;&#160;&#160;&#160;&#160;&#160;&#160;&#160;&#160;&#160;&#160;&#160;&#160;&#160;&#160;&#160;&#160;&#160;&#160;&#160;&#160;LastModifiedById &#160;&#160;&#160;&#160;&#160;&#160;&#160;&#160;&#160;&#160;&#160;&#160;&#160;&#160;&#160;&#160;&#160;&#160;&#160;&#160;&#160;&#160;&#160;&#160;&#160;&#160;&#160;&#160;&#160;&#160;&#160;&#160;&#160;&#160;&#160;&#160;&#160;&#160;</text>
<polygon fill="none" stroke="#99ccff" points="1060.5,-97.5 1060.5,-117 1154.25,-117 1154.25,-97.5 1060.5,-97.5"/>
<text text-anchor="start" x="1063.5" y="-103.55" font-family="Courier,monospace" font-size="11.00">reference(18)</text>
<polygon fill="none" stroke="#99ccff" points="339,-78 339,-97.5 1060.5,-97.5 1060.5,-78 339,-78"/>
<text text-anchor="start" x="342" y="-84.05" font-family="Courier,monospace" font-size="11.00"> &#160;&#160;&#160;&#160;&#160;&#160;&#160;&#160;&#160;&#160;&#160;&#160;&#160;&#160;&#160;&#160;&#160;&#160;&#160;&#160;&#160;&#160;&#160;&#160;&#160;&#160;&#160;&#160;&#160;&#160;&#160;&#160;&#160;&#160;&#160;&#160;&#160;&#160;&#160;&#160;CalculationMatrixColumnId &#160;&#160;&#160;&#160;&#160;&#160;&#160;&#160;&#160;&#160;&#160;&#160;&#160;&#160;&#160;&#160;&#160;&#160;&#160;&#160;&#160;&#160;&#160;&#160;&#160;&#160;&#160;&#160;&#160;&#160;&#160;&#160;&#160;&#160;&#160;&#160;&#160;&#160;</text>
<polygon fill="none" stroke="#99ccff" points="1060.5,-78 1060.5,-97.5 1154.25,-97.5 1154.25,-78 1060.5,-78"/>
<text text-anchor="start" x="1063.5" y="-84.05" font-family="Courier,monospace" font-size="11.00">reference(18)</text>
<polygon fill="none" stroke="#99ccff" points="339,-58.5 339,-78 1060.5,-78 1060.5,-58.5 339,-58.5"/>
<text text-anchor="start" x="342" y="-64.55" font-family="Courier,monospace" font-size="11.00"> &#160;&#160;&#160;&#160;&#160;&#160;&#160;&#160;&#160;&#160;&#160;&#160;&#160;&#160;&#160;&#160;&#160;&#160;&#160;&#160;&#160;&#160;&#160;&#160;&#160;&#160;&#160;&#160;&#160;&#160;&#160;&#160;&#160;&#160;&#160;&#160;&#160;&#160;&#160;&#160;CalculationMatrixVersionId &#160;&#160;&#160;&#160;&#160;&#160;&#160;&#160;&#160;&#160;&#160;&#160;&#160;&#160;&#160;&#160;&#160;&#160;&#160;&#160;&#160;&#160;&#160;&#160;&#160;&#160;&#160;&#160;&#160;&#160;&#160;&#160;&#160;&#160;&#160;&#160;&#160;&#160;</text>
<polygon fill="none" stroke="#99ccff" points="1060.5,-58.5 1060.5,-78 1154.25,-78 1154.25,-58.5 1060.5,-58.5"/>
<text text-anchor="start" x="1063.5" y="-64.55" font-family="Courier,monospace" font-size="11.00">reference(18)</text>
<polygon fill="none" stroke="#99ccff" points="339,-39 339,-58.5 1060.5,-58.5 1060.5,-39 339,-39"/>
<text text-anchor="start" x="342" y="-45.05" font-family="Courier,monospace" font-size="11.00"> &#160;&#160;&#160;&#160;&#160;&#160;&#160;&#160;&#160;&#160;&#160;&#160;&#160;&#160;&#160;&#160;&#160;&#160;&#160;&#160;&#160;&#160;&#160;&#160;&#160;&#160;&#160;&#160;&#160;&#160;&#160;&#160;&#160;&#160;&#160;&#160;&#160;&#160;&#160;&#160;RangeStartValue &#160;&#160;&#160;&#160;&#160;&#160;&#160;&#160;&#160;&#160;&#160;&#160;&#160;&#160;&#160;&#160;&#160;&#160;&#160;&#160;&#160;&#160;&#160;&#160;&#160;&#160;&#160;&#160;&#160;&#160;&#160;&#160;&#160;&#160;&#160;&#160;&#160;&#160;</text>
<polygon fill="none" stroke="#99ccff" points="1060.5,-39 1060.5,-58.5 1154.25,-58.5 1154.25,-39 1060.5,-39"/>
<text text-anchor="start" x="1070.25" y="-45.05" font-family="Courier,monospace" font-size="11.00">string(255)</text>
<polygon fill="none" stroke="#99ccff" points="339,-19.5 339,-39 1060.5,-39 1060.5,-19.5 339,-19.5"/>
<text text-anchor="start" x="342" y="-25.55" font-family="Courier,monospace" font-size="11.00"> &#160;&#160;&#160;&#160;&#160;&#160;&#160;&#160;&#160;&#160;&#160;&#160;&#160;&#160;&#160;&#160;&#160;&#160;&#160;&#160;&#160;&#160;&#160;&#160;&#160;&#160;&#160;&#160;&#160;&#160;&#160;&#160;&#160;&#160;&#160;&#160;&#160;&#160;&#160;&#160;Occurrence &#160;&#160;&#160;&#160;&#160;&#160;&#160;&#160;&#160;&#160;&#160;&#160;&#160;&#160;&#160;&#160;&#160;&#160;&#160;&#160;&#160;&#160;&#160;&#160;&#160;&#160;&#160;&#160;&#160;&#160;&#160;&#160;&#160;&#160;&#160;&#160;&#160;&#160;</text>
<polygon fill="none" stroke="#99ccff" points="1060.5,-19.5 1060.5,-39 1154.25,-39 1154.25,-19.5 1060.5,-19.5"/>
<text text-anchor="start" x="1097.25" y="-25.55" font-family="Courier,monospace" font-size="11.00">int</text>
<polygon fill="none" stroke="#99ccff" points="338,-18.5 338,-196 1155.25,-196 1155.25,-18.5 338,-18.5"/>
</a>
</g>
</g>
<!-- User -->
<g id="node2" class="node">
<title>User</title>
<text text-anchor="middle" x="89" y="-133.55" font-family="Courier,monospace" font-size="11.00">User</text>
</g>
<!-- CalcMatrixColumnRange&#45;&gt;User -->
<g id="edge1" class="edge">
<title>CalcMatrixColumnRange:w&#45;&gt;User:e</title>
<path fill="none" stroke="#ff99cc" d="M322.56,-107.43C244.72,-109.24 158.12,-123.97 115.94,-132.02"/>
<polygon fill="#ff99cc" stroke="#ff99cc" points="329.67,-107.35 337.71,-110.85 334,-107.3 337.33,-107.26 337.33,-107.26 337.33,-107.26 334,-107.3 337.62,-103.65 329.67,-107.35"/>
<ellipse fill="none" stroke="#ff99cc" cx="324.75" cy="-107.41" rx="3.2" ry="3.2"/>
<text text-anchor="middle" x="258" y="-121.38" font-family="Monaco" font-size="9.00">LastModifiedBy</text>
</g>
<!-- CalculationMatrixColumn -->
<g id="node3" class="node">
<title>CalculationMatrixColumn</title>
<text text-anchor="middle" x="89" y="-84.55" font-family="Courier,monospace" font-size="11.00">CalculationMatrixColumn</text>
</g>
<!-- CalcMatrixColumnRange&#45;&gt;CalculationMatrixColumn -->
<g id="edge2" class="edge">
<title>CalcMatrixColumnRange:w&#45;&gt;CalculationMatrixColumn:e</title>
<path fill="none" stroke="#ff99cc" d="M322.2,-87.75C271.94,-87.77 217.75,-87.88 174.37,-88"/>
<polygon fill="#ff99cc" stroke="#ff99cc" points="329.67,-87.75 337.67,-91.35 334,-87.75 337.33,-87.75 337.33,-87.75 337.33,-87.75 334,-87.75 337.66,-84.15 329.67,-87.75"/>
<ellipse fill="none" stroke="#ff99cc" cx="324.75" cy="-87.75" rx="3.2" ry="3.2"/>
<text text-anchor="middle" x="258" y="-90.64" font-family="Monaco" font-size="9.00">CalculationMatrixColumn</text>
</g>
<!-- CalculationMatrixVersion -->
<g id="node4" class="node">
<title>CalculationMatrixVersion</title>
<text text-anchor="middle" x="89" y="-35.55" font-family="Courier,monospace" font-size="11.00">CalculationMatrixVersion</text>
</g>
<!-- CalcMatrixColumnRange&#45;&gt;CalculationMatrixVersion -->
<g id="edge3" class="edge">
<title>CalcMatrixColumnRange:w&#45;&gt;CalculationMatrixVersion:e</title>
<path fill="none" stroke="#ff99cc" d="M322.19,-68.06C273.07,-66.93 220.49,-60.85 177.8,-54.56"/>
<polygon fill="#ff99cc" stroke="#ff99cc" points="329.67,-68.15 337.62,-71.85 334,-68.2 337.33,-68.24 337.33,-68.24 337.33,-68.24 334,-68.2 337.71,-64.65 329.67,-68.15"/>
<ellipse fill="none" stroke="#ff99cc" cx="324.75" cy="-68.09" rx="3.2" ry="3.2"/>
<text text-anchor="middle" x="258" y="-70.65" font-family="Monaco" font-size="9.00">CalculationMatrixVersion</text>
</g>
</g>
</svg>
