<?xml version="1.0" encoding="UTF-8" standalone="no"?>
<!DOCTYPE svg PUBLIC "-//W3C//DTD SVG 1.1//EN"
 "http://www.w3.org/Graphics/SVG/1.1/DTD/svg11.dtd">
<!-- Generated by graphviz version 12.2.1 (20241206.2353)
 -->
<!-- Title: Salesforce+ ERD Pages: 1 -->
<svg width="1240pt" height="582pt"
 viewBox="0.00 0.00 1239.75 581.50" xmlns="http://www.w3.org/2000/svg" xmlns:xlink="http://www.w3.org/1999/xlink">
<g id="graph0" class="graph" transform="scale(1 1) rotate(0) translate(4 577.5)">
<title>Salesforce+ ERD</title>
<polygon fill="#efeffd" stroke="none" points="-4,4 -4,-577.5 1235.75,-577.5 1235.75,4 -4,4"/>
<text text-anchor="middle" x="1184.38" y="-5.95" font-family="Courier,monospace" font-size="9.00">Salesforce ERD </text>
<!-- CalculationProcedureStep -->
<g id="node1" class="node">
<title>CalculationProcedureStep</title>
<g id="a_node1"><a xlink:href="#" xlink:title=" CalculationProcedureStep ">
<polygon fill="#ffeeff" stroke="none" points="374,-25.5 374,-573.5 1231.75,-573.5 1231.75,-25.5 374,-25.5"/>
<polygon fill="lightblue" stroke="none" points="375,-553 375,-572.5 1230.75,-572.5 1230.75,-553 375,-553"/>
<polygon fill="none" stroke="#99ccff" points="375,-553 375,-572.5 1230.75,-572.5 1230.75,-553 375,-553"/>
<text text-anchor="start" x="721.88" y="-560.05" font-family="Courier,monospace" font-weight="bold" font-size="11.00">CalculationProcedureStep</text>
<polygon fill="#99ccff" stroke="none" points="375,-533.5 375,-553 1116.75,-553 1116.75,-533.5 375,-533.5"/>
<polygon fill="none" stroke="#99ccff" points="375,-533.5 375,-553 1116.75,-553 1116.75,-533.5 375,-533.5"/>
<text text-anchor="start" x="378" y="-540.55" font-family="Courier,monospace" font-size="11.00"> &#160;&#160;&#160;&#160;&#160;&#160;&#160;&#160;&#160;&#160;&#160;&#160;&#160;&#160;&#160;&#160;&#160;&#160;&#160;&#160;&#160;&#160;&#160;&#160;&#160;&#160;&#160;&#160;&#160;&#160;&#160;&#160;&#160;&#160;&#160;&#160;&#160;&#160;&#160;&#160;&#160;&#160;</text>
<text text-anchor="start" x="668.25" y="-540.55" font-family="Courier,monospace" font-weight="bold" font-size="11.00">Id</text>
<text text-anchor="start" x="681.75" y="-540.55" font-family="Courier,monospace" font-size="11.00"> &#160;&#160;&#160;&#160;&#160;&#160;&#160;&#160;&#160;&#160;&#160;&#160;&#160;&#160;&#160;&#160;&#160;&#160;&#160;&#160;&#160;&#160;&#160;&#160;&#160;&#160;&#160;&#160;&#160;&#160;&#160;&#160;&#160;&#160;&#160;&#160;&#160;&#160;&#160;</text>
<polygon fill="none" stroke="#99ccff" points="1116.75,-533.5 1116.75,-553 1230.75,-553 1230.75,-533.5 1116.75,-533.5"/>
<text text-anchor="start" x="1153.5" y="-539.55" font-family="Courier,monospace" font-size="11.00">id(18)</text>
<polygon fill="none" stroke="#99ccff" points="375,-514 375,-533.5 1116.75,-533.5 1116.75,-514 375,-514"/>
<text text-anchor="start" x="378" y="-520.05" font-family="Courier,monospace" font-size="11.00"> &#160;&#160;&#160;&#160;&#160;&#160;&#160;&#160;&#160;&#160;&#160;&#160;&#160;&#160;&#160;&#160;&#160;&#160;&#160;&#160;&#160;&#160;&#160;&#160;&#160;&#160;&#160;&#160;&#160;&#160;&#160;&#160;&#160;&#160;&#160;&#160;&#160;&#160;&#160;&#160;IsDeleted &#160;&#160;&#160;&#160;&#160;&#160;&#160;&#160;&#160;&#160;&#160;&#160;&#160;&#160;&#160;&#160;&#160;&#160;&#160;&#160;&#160;&#160;&#160;&#160;&#160;&#160;&#160;&#160;&#160;&#160;&#160;&#160;&#160;&#160;&#160;&#160;&#160;&#160;</text>
<polygon fill="none" stroke="#99ccff" points="1116.75,-514 1116.75,-533.5 1230.75,-533.5 1230.75,-514 1116.75,-514"/>
<text text-anchor="start" x="1150.12" y="-520.05" font-family="Courier,monospace" font-size="11.00">boolean</text>
<polygon fill="none" stroke="#99ccff" points="375,-494.5 375,-514 1116.75,-514 1116.75,-494.5 375,-494.5"/>
<text text-anchor="start" x="378" y="-500.55" font-family="Courier,monospace" font-size="11.00"> &#160;&#160;&#160;&#160;&#160;&#160;&#160;&#160;&#160;&#160;&#160;&#160;&#160;&#160;&#160;&#160;&#160;&#160;&#160;&#160;&#160;&#160;&#160;&#160;&#160;&#160;&#160;&#160;&#160;&#160;&#160;&#160;&#160;&#160;&#160;&#160;&#160;&#160;&#160;&#160;Name &#160;&#160;&#160;&#160;&#160;&#160;&#160;&#160;&#160;&#160;&#160;&#160;&#160;&#160;&#160;&#160;&#160;&#160;&#160;&#160;&#160;&#160;&#160;&#160;&#160;&#160;&#160;&#160;&#160;&#160;&#160;&#160;&#160;&#160;&#160;&#160;&#160;&#160;</text>
<polygon fill="none" stroke="#99ccff" points="1116.75,-494.5 1116.75,-514 1230.75,-514 1230.75,-494.5 1116.75,-494.5"/>
<text text-anchor="start" x="1136.62" y="-500.55" font-family="Courier,monospace" font-size="11.00">string(255)</text>
<polygon fill="none" stroke="#99ccff" points="375,-475 375,-494.5 1116.75,-494.5 1116.75,-475 375,-475"/>
<text text-anchor="start" x="378" y="-481.05" font-family="Courier,monospace" font-size="11.00"> &#160;&#160;&#160;&#160;&#160;&#160;&#160;&#160;&#160;&#160;&#160;&#160;&#160;&#160;&#160;&#160;&#160;&#160;&#160;&#160;&#160;&#160;&#160;&#160;&#160;&#160;&#160;&#160;&#160;&#160;&#160;&#160;&#160;&#160;&#160;&#160;&#160;&#160;&#160;&#160;LastModifiedById &#160;&#160;&#160;&#160;&#160;&#160;&#160;&#160;&#160;&#160;&#160;&#160;&#160;&#160;&#160;&#160;&#160;&#160;&#160;&#160;&#160;&#160;&#160;&#160;&#160;&#160;&#160;&#160;&#160;&#160;&#160;&#160;&#160;&#160;&#160;&#160;&#160;&#160;</text>
<polygon fill="none" stroke="#99ccff" points="1116.75,-475 1116.75,-494.5 1230.75,-494.5 1230.75,-475 1116.75,-475"/>
<text text-anchor="start" x="1129.88" y="-481.05" font-family="Courier,monospace" font-size="11.00">reference(18)</text>
<polygon fill="none" stroke="#99ccff" points="375,-455.5 375,-475 1116.75,-475 1116.75,-455.5 375,-455.5"/>
<text text-anchor="start" x="378" y="-461.55" font-family="Courier,monospace" font-size="11.00"> &#160;&#160;&#160;&#160;&#160;&#160;&#160;&#160;&#160;&#160;&#160;&#160;&#160;&#160;&#160;&#160;&#160;&#160;&#160;&#160;&#160;&#160;&#160;&#160;&#160;&#160;&#160;&#160;&#160;&#160;&#160;&#160;&#160;&#160;&#160;&#160;&#160;&#160;&#160;&#160;CalculationProcedureVersionId &#160;&#160;&#160;&#160;&#160;&#160;&#160;&#160;&#160;&#160;&#160;&#160;&#160;&#160;&#160;&#160;&#160;&#160;&#160;&#160;&#160;&#160;&#160;&#160;&#160;&#160;&#160;&#160;&#160;&#160;&#160;&#160;&#160;&#160;&#160;&#160;&#160;&#160;</text>
<polygon fill="none" stroke="#99ccff" points="1116.75,-455.5 1116.75,-475 1230.75,-475 1230.75,-455.5 1116.75,-455.5"/>
<text text-anchor="start" x="1129.88" y="-461.55" font-family="Courier,monospace" font-size="11.00">reference(18)</text>
<polygon fill="none" stroke="#99ccff" points="375,-436 375,-455.5 1116.75,-455.5 1116.75,-436 375,-436"/>
<text text-anchor="start" x="378" y="-442.05" font-family="Courier,monospace" font-size="11.00"> &#160;&#160;&#160;&#160;&#160;&#160;&#160;&#160;&#160;&#160;&#160;&#160;&#160;&#160;&#160;&#160;&#160;&#160;&#160;&#160;&#160;&#160;&#160;&#160;&#160;&#160;&#160;&#160;&#160;&#160;&#160;&#160;&#160;&#160;&#160;&#160;&#160;&#160;&#160;&#160;FormulaConvertedText &#160;&#160;&#160;&#160;&#160;&#160;&#160;&#160;&#160;&#160;&#160;&#160;&#160;&#160;&#160;&#160;&#160;&#160;&#160;&#160;&#160;&#160;&#160;&#160;&#160;&#160;&#160;&#160;&#160;&#160;&#160;&#160;&#160;&#160;&#160;&#160;&#160;&#160;</text>
<polygon fill="none" stroke="#99ccff" points="1116.75,-436 1116.75,-455.5 1230.75,-455.5 1230.75,-436 1116.75,-436"/>
<text text-anchor="start" x="1119.75" y="-442.05" font-family="Courier,monospace" font-size="11.00">textarea(131072)</text>
<polygon fill="none" stroke="#99ccff" points="375,-416.5 375,-436 1116.75,-436 1116.75,-416.5 375,-416.5"/>
<text text-anchor="start" x="378" y="-422.55" font-family="Courier,monospace" font-size="11.00"> &#160;&#160;&#160;&#160;&#160;&#160;&#160;&#160;&#160;&#160;&#160;&#160;&#160;&#160;&#160;&#160;&#160;&#160;&#160;&#160;&#160;&#160;&#160;&#160;&#160;&#160;&#160;&#160;&#160;&#160;&#160;&#160;&#160;&#160;&#160;&#160;&#160;&#160;&#160;&#160;FormulaExpressionText &#160;&#160;&#160;&#160;&#160;&#160;&#160;&#160;&#160;&#160;&#160;&#160;&#160;&#160;&#160;&#160;&#160;&#160;&#160;&#160;&#160;&#160;&#160;&#160;&#160;&#160;&#160;&#160;&#160;&#160;&#160;&#160;&#160;&#160;&#160;&#160;&#160;&#160;</text>
<polygon fill="none" stroke="#99ccff" points="1116.75,-416.5 1116.75,-436 1230.75,-436 1230.75,-416.5 1116.75,-416.5"/>
<text text-anchor="start" x="1119.75" y="-422.55" font-family="Courier,monospace" font-size="11.00">textarea(131072)</text>
<polygon fill="none" stroke="#99ccff" points="375,-397 375,-416.5 1116.75,-416.5 1116.75,-397 375,-397"/>
<text text-anchor="start" x="378" y="-403.05" font-family="Courier,monospace" font-size="11.00"> &#160;&#160;&#160;&#160;&#160;&#160;&#160;&#160;&#160;&#160;&#160;&#160;&#160;&#160;&#160;&#160;&#160;&#160;&#160;&#160;&#160;&#160;&#160;&#160;&#160;&#160;&#160;&#160;&#160;&#160;&#160;&#160;&#160;&#160;&#160;&#160;&#160;&#160;&#160;&#160;FormulaUiFormattedText &#160;&#160;&#160;&#160;&#160;&#160;&#160;&#160;&#160;&#160;&#160;&#160;&#160;&#160;&#160;&#160;&#160;&#160;&#160;&#160;&#160;&#160;&#160;&#160;&#160;&#160;&#160;&#160;&#160;&#160;&#160;&#160;&#160;&#160;&#160;&#160;&#160;&#160;</text>
<polygon fill="none" stroke="#99ccff" points="1116.75,-397 1116.75,-416.5 1230.75,-416.5 1230.75,-397 1116.75,-397"/>
<text text-anchor="start" x="1119.75" y="-403.05" font-family="Courier,monospace" font-size="11.00">textarea(131072)</text>
<polygon fill="none" stroke="#99ccff" points="375,-377.5 375,-397 1116.75,-397 1116.75,-377.5 375,-377.5"/>
<text text-anchor="start" x="378" y="-383.55" font-family="Courier,monospace" font-size="11.00"> &#160;&#160;&#160;&#160;&#160;&#160;&#160;&#160;&#160;&#160;&#160;&#160;&#160;&#160;&#160;&#160;&#160;&#160;&#160;&#160;&#160;&#160;&#160;&#160;&#160;&#160;&#160;&#160;&#160;&#160;&#160;&#160;&#160;&#160;&#160;&#160;&#160;&#160;&#160;&#160;CalculationMatrixId &#160;&#160;&#160;&#160;&#160;&#160;&#160;&#160;&#160;&#160;&#160;&#160;&#160;&#160;&#160;&#160;&#160;&#160;&#160;&#160;&#160;&#160;&#160;&#160;&#160;&#160;&#160;&#160;&#160;&#160;&#160;&#160;&#160;&#160;&#160;&#160;&#160;&#160;</text>
<polygon fill="none" stroke="#99ccff" points="1116.75,-377.5 1116.75,-397 1230.75,-397 1230.75,-377.5 1116.75,-377.5"/>
<text text-anchor="start" x="1129.88" y="-383.55" font-family="Courier,monospace" font-size="11.00">reference(18)</text>
<polygon fill="none" stroke="#99ccff" points="375,-358 375,-377.5 1116.75,-377.5 1116.75,-358 375,-358"/>
<text text-anchor="start" x="378" y="-364.05" font-family="Courier,monospace" font-size="11.00"> &#160;&#160;&#160;&#160;&#160;&#160;&#160;&#160;&#160;&#160;&#160;&#160;&#160;&#160;&#160;&#160;&#160;&#160;&#160;&#160;&#160;&#160;&#160;&#160;&#160;&#160;&#160;&#160;&#160;&#160;&#160;&#160;&#160;&#160;&#160;&#160;&#160;&#160;&#160;&#160;CalculationProcedure &#160;&#160;&#160;&#160;&#160;&#160;&#160;&#160;&#160;&#160;&#160;&#160;&#160;&#160;&#160;&#160;&#160;&#160;&#160;&#160;&#160;&#160;&#160;&#160;&#160;&#160;&#160;&#160;&#160;&#160;&#160;&#160;&#160;&#160;&#160;&#160;&#160;&#160;</text>
<polygon fill="none" stroke="#99ccff" points="1116.75,-358 1116.75,-377.5 1230.75,-377.5 1230.75,-358 1116.75,-358"/>
<text text-anchor="start" x="1136.62" y="-364.05" font-family="Courier,monospace" font-size="11.00">string(255)</text>
<polygon fill="none" stroke="#99ccff" points="375,-338.5 375,-358 1116.75,-358 1116.75,-338.5 375,-338.5"/>
<text text-anchor="start" x="378" y="-344.55" font-family="Courier,monospace" font-size="11.00"> &#160;&#160;&#160;&#160;&#160;&#160;&#160;&#160;&#160;&#160;&#160;&#160;&#160;&#160;&#160;&#160;&#160;&#160;&#160;&#160;&#160;&#160;&#160;&#160;&#160;&#160;&#160;&#160;&#160;&#160;&#160;&#160;&#160;&#160;&#160;&#160;&#160;&#160;&#160;&#160;IsConditionalStep &#160;&#160;&#160;&#160;&#160;&#160;&#160;&#160;&#160;&#160;&#160;&#160;&#160;&#160;&#160;&#160;&#160;&#160;&#160;&#160;&#160;&#160;&#160;&#160;&#160;&#160;&#160;&#160;&#160;&#160;&#160;&#160;&#160;&#160;&#160;&#160;&#160;&#160;</text>
<polygon fill="none" stroke="#99ccff" points="1116.75,-338.5 1116.75,-358 1230.75,-358 1230.75,-338.5 1116.75,-338.5"/>
<text text-anchor="start" x="1150.12" y="-344.55" font-family="Courier,monospace" font-size="11.00">boolean</text>
<polygon fill="none" stroke="#99ccff" points="375,-319 375,-338.5 1116.75,-338.5 1116.75,-319 375,-319"/>
<text text-anchor="start" x="378" y="-325.05" font-family="Courier,monospace" font-size="11.00"> &#160;&#160;&#160;&#160;&#160;&#160;&#160;&#160;&#160;&#160;&#160;&#160;&#160;&#160;&#160;&#160;&#160;&#160;&#160;&#160;&#160;&#160;&#160;&#160;&#160;&#160;&#160;&#160;&#160;&#160;&#160;&#160;&#160;&#160;&#160;&#160;&#160;&#160;&#160;&#160;ConditionsConvertedText &#160;&#160;&#160;&#160;&#160;&#160;&#160;&#160;&#160;&#160;&#160;&#160;&#160;&#160;&#160;&#160;&#160;&#160;&#160;&#160;&#160;&#160;&#160;&#160;&#160;&#160;&#160;&#160;&#160;&#160;&#160;&#160;&#160;&#160;&#160;&#160;&#160;&#160;</text>
<polygon fill="none" stroke="#99ccff" points="1116.75,-319 1116.75,-338.5 1230.75,-338.5 1230.75,-319 1116.75,-319"/>
<text text-anchor="start" x="1119.75" y="-325.05" font-family="Courier,monospace" font-size="11.00">textarea(131072)</text>
<polygon fill="none" stroke="#99ccff" points="375,-299.5 375,-319 1116.75,-319 1116.75,-299.5 375,-299.5"/>
<text text-anchor="start" x="378" y="-305.55" font-family="Courier,monospace" font-size="11.00"> &#160;&#160;&#160;&#160;&#160;&#160;&#160;&#160;&#160;&#160;&#160;&#160;&#160;&#160;&#160;&#160;&#160;&#160;&#160;&#160;&#160;&#160;&#160;&#160;&#160;&#160;&#160;&#160;&#160;&#160;&#160;&#160;&#160;&#160;&#160;&#160;&#160;&#160;&#160;&#160;ConditionsExpressionText &#160;&#160;&#160;&#160;&#160;&#160;&#160;&#160;&#160;&#160;&#160;&#160;&#160;&#160;&#160;&#160;&#160;&#160;&#160;&#160;&#160;&#160;&#160;&#160;&#160;&#160;&#160;&#160;&#160;&#160;&#160;&#160;&#160;&#160;&#160;&#160;&#160;&#160;</text>
<polygon fill="none" stroke="#99ccff" points="1116.75,-299.5 1116.75,-319 1230.75,-319 1230.75,-299.5 1116.75,-299.5"/>
<text text-anchor="start" x="1119.75" y="-305.55" font-family="Courier,monospace" font-size="11.00">textarea(131072)</text>
<polygon fill="none" stroke="#99ccff" points="375,-280 375,-299.5 1116.75,-299.5 1116.75,-280 375,-280"/>
<text text-anchor="start" x="378" y="-286.05" font-family="Courier,monospace" font-size="11.00"> &#160;&#160;&#160;&#160;&#160;&#160;&#160;&#160;&#160;&#160;&#160;&#160;&#160;&#160;&#160;&#160;&#160;&#160;&#160;&#160;&#160;&#160;&#160;&#160;&#160;&#160;&#160;&#160;&#160;&#160;&#160;&#160;&#160;&#160;&#160;&#160;&#160;&#160;&#160;&#160;ConditionsUiFormattedText &#160;&#160;&#160;&#160;&#160;&#160;&#160;&#160;&#160;&#160;&#160;&#160;&#160;&#160;&#160;&#160;&#160;&#160;&#160;&#160;&#160;&#160;&#160;&#160;&#160;&#160;&#160;&#160;&#160;&#160;&#160;&#160;&#160;&#160;&#160;&#160;&#160;&#160;</text>
<polygon fill="none" stroke="#99ccff" points="1116.75,-280 1116.75,-299.5 1230.75,-299.5 1230.75,-280 1116.75,-280"/>
<text text-anchor="start" x="1119.75" y="-286.05" font-family="Courier,monospace" font-size="11.00">textarea(131072)</text>
<polygon fill="none" stroke="#99ccff" points="375,-260.5 375,-280 1116.75,-280 1116.75,-260.5 375,-260.5"/>
<text text-anchor="start" x="378" y="-266.55" font-family="Courier,monospace" font-size="11.00"> &#160;&#160;&#160;&#160;&#160;&#160;&#160;&#160;&#160;&#160;&#160;&#160;&#160;&#160;&#160;&#160;&#160;&#160;&#160;&#160;&#160;&#160;&#160;&#160;&#160;&#160;&#160;&#160;&#160;&#160;&#160;&#160;&#160;&#160;&#160;&#160;&#160;&#160;&#160;&#160;StepType &#160;&#160;&#160;&#160;&#160;&#160;&#160;&#160;&#160;&#160;&#160;&#160;&#160;&#160;&#160;&#160;&#160;&#160;&#160;&#160;&#160;&#160;&#160;&#160;&#160;&#160;&#160;&#160;&#160;&#160;&#160;&#160;&#160;&#160;&#160;&#160;&#160;&#160;</text>
<polygon fill="none" stroke="#99ccff" points="1116.75,-260.5 1116.75,-280 1230.75,-280 1230.75,-260.5 1116.75,-260.5"/>
<text text-anchor="start" x="1129.88" y="-266.55" font-family="Courier,monospace" font-size="11.00">picklist(255)</text>
<polygon fill="none" stroke="#99ccff" points="375,-241 375,-260.5 1116.75,-260.5 1116.75,-241 375,-241"/>
<text text-anchor="start" x="378" y="-247.05" font-family="Courier,monospace" font-size="11.00"> &#160;&#160;&#160;&#160;&#160;&#160;&#160;&#160;&#160;&#160;&#160;&#160;&#160;&#160;&#160;&#160;&#160;&#160;&#160;&#160;&#160;&#160;&#160;&#160;&#160;&#160;&#160;&#160;&#160;&#160;&#160;&#160;&#160;&#160;&#160;&#160;&#160;&#160;&#160;&#160;InputVariablesFormatText &#160;&#160;&#160;&#160;&#160;&#160;&#160;&#160;&#160;&#160;&#160;&#160;&#160;&#160;&#160;&#160;&#160;&#160;&#160;&#160;&#160;&#160;&#160;&#160;&#160;&#160;&#160;&#160;&#160;&#160;&#160;&#160;&#160;&#160;&#160;&#160;&#160;&#160;</text>
<polygon fill="none" stroke="#99ccff" points="1116.75,-241 1116.75,-260.5 1230.75,-260.5 1230.75,-241 1116.75,-241"/>
<text text-anchor="start" x="1119.75" y="-247.05" font-family="Courier,monospace" font-size="11.00">textarea(131072)</text>
<polygon fill="none" stroke="#99ccff" points="375,-221.5 375,-241 1116.75,-241 1116.75,-221.5 375,-221.5"/>
<text text-anchor="start" x="378" y="-227.55" font-family="Courier,monospace" font-size="11.00"> &#160;&#160;&#160;&#160;&#160;&#160;&#160;&#160;&#160;&#160;&#160;&#160;&#160;&#160;&#160;&#160;&#160;&#160;&#160;&#160;&#160;&#160;&#160;&#160;&#160;&#160;&#160;&#160;&#160;&#160;&#160;&#160;&#160;&#160;&#160;&#160;&#160;&#160;&#160;&#160;IsResultIncluded &#160;&#160;&#160;&#160;&#160;&#160;&#160;&#160;&#160;&#160;&#160;&#160;&#160;&#160;&#160;&#160;&#160;&#160;&#160;&#160;&#160;&#160;&#160;&#160;&#160;&#160;&#160;&#160;&#160;&#160;&#160;&#160;&#160;&#160;&#160;&#160;&#160;&#160;</text>
<polygon fill="none" stroke="#99ccff" points="1116.75,-221.5 1116.75,-241 1230.75,-241 1230.75,-221.5 1116.75,-221.5"/>
<text text-anchor="start" x="1150.12" y="-227.55" font-family="Courier,monospace" font-size="11.00">boolean</text>
<polygon fill="none" stroke="#99ccff" points="375,-202 375,-221.5 1116.75,-221.5 1116.75,-202 375,-202"/>
<text text-anchor="start" x="378" y="-208.05" font-family="Courier,monospace" font-size="11.00"> &#160;&#160;&#160;&#160;&#160;&#160;&#160;&#160;&#160;&#160;&#160;&#160;&#160;&#160;&#160;&#160;&#160;&#160;&#160;&#160;&#160;&#160;&#160;&#160;&#160;&#160;&#160;&#160;&#160;&#160;&#160;&#160;&#160;&#160;&#160;&#160;&#160;&#160;&#160;&#160;CalculationMatrixType &#160;&#160;&#160;&#160;&#160;&#160;&#160;&#160;&#160;&#160;&#160;&#160;&#160;&#160;&#160;&#160;&#160;&#160;&#160;&#160;&#160;&#160;&#160;&#160;&#160;&#160;&#160;&#160;&#160;&#160;&#160;&#160;&#160;&#160;&#160;&#160;&#160;&#160;</text>
<polygon fill="none" stroke="#99ccff" points="1116.75,-202 1116.75,-221.5 1230.75,-221.5 1230.75,-202 1116.75,-202"/>
<text text-anchor="start" x="1136.62" y="-208.05" font-family="Courier,monospace" font-size="11.00">string(255)</text>
<polygon fill="none" stroke="#99ccff" points="375,-182.5 375,-202 1116.75,-202 1116.75,-182.5 375,-182.5"/>
<text text-anchor="start" x="378" y="-188.55" font-family="Courier,monospace" font-size="11.00"> &#160;&#160;&#160;&#160;&#160;&#160;&#160;&#160;&#160;&#160;&#160;&#160;&#160;&#160;&#160;&#160;&#160;&#160;&#160;&#160;&#160;&#160;&#160;&#160;&#160;&#160;&#160;&#160;&#160;&#160;&#160;&#160;&#160;&#160;&#160;&#160;&#160;&#160;&#160;&#160;OutputVariablesFormatText &#160;&#160;&#160;&#160;&#160;&#160;&#160;&#160;&#160;&#160;&#160;&#160;&#160;&#160;&#160;&#160;&#160;&#160;&#160;&#160;&#160;&#160;&#160;&#160;&#160;&#160;&#160;&#160;&#160;&#160;&#160;&#160;&#160;&#160;&#160;&#160;&#160;&#160;</text>
<polygon fill="none" stroke="#99ccff" points="1116.75,-182.5 1116.75,-202 1230.75,-202 1230.75,-182.5 1116.75,-182.5"/>
<text text-anchor="start" x="1119.75" y="-188.55" font-family="Courier,monospace" font-size="11.00">textarea(131072)</text>
<polygon fill="none" stroke="#99ccff" points="375,-163 375,-182.5 1116.75,-182.5 1116.75,-163 375,-163"/>
<text text-anchor="start" x="378" y="-169.05" font-family="Courier,monospace" font-size="11.00"> &#160;&#160;&#160;&#160;&#160;&#160;&#160;&#160;&#160;&#160;&#160;&#160;&#160;&#160;&#160;&#160;&#160;&#160;&#160;&#160;&#160;&#160;&#160;&#160;&#160;&#160;&#160;&#160;&#160;&#160;&#160;&#160;&#160;&#160;&#160;&#160;&#160;&#160;&#160;&#160;OutputVariablesMappingText &#160;&#160;&#160;&#160;&#160;&#160;&#160;&#160;&#160;&#160;&#160;&#160;&#160;&#160;&#160;&#160;&#160;&#160;&#160;&#160;&#160;&#160;&#160;&#160;&#160;&#160;&#160;&#160;&#160;&#160;&#160;&#160;&#160;&#160;&#160;&#160;&#160;&#160;</text>
<polygon fill="none" stroke="#99ccff" points="1116.75,-163 1116.75,-182.5 1230.75,-182.5 1230.75,-163 1116.75,-163"/>
<text text-anchor="start" x="1119.75" y="-169.05" font-family="Courier,monospace" font-size="11.00">textarea(131072)</text>
<polygon fill="none" stroke="#99ccff" points="375,-143.5 375,-163 1116.75,-163 1116.75,-143.5 375,-143.5"/>
<text text-anchor="start" x="378" y="-149.55" font-family="Courier,monospace" font-size="11.00"> &#160;&#160;&#160;&#160;&#160;&#160;&#160;&#160;&#160;&#160;&#160;&#160;&#160;&#160;&#160;&#160;&#160;&#160;&#160;&#160;&#160;&#160;&#160;&#160;&#160;&#160;&#160;&#160;&#160;&#160;&#160;&#160;&#160;&#160;&#160;&#160;&#160;&#160;&#160;&#160;StageStepSequence &#160;&#160;&#160;&#160;&#160;&#160;&#160;&#160;&#160;&#160;&#160;&#160;&#160;&#160;&#160;&#160;&#160;&#160;&#160;&#160;&#160;&#160;&#160;&#160;&#160;&#160;&#160;&#160;&#160;&#160;&#160;&#160;&#160;&#160;&#160;&#160;&#160;&#160;</text>
<polygon fill="none" stroke="#99ccff" points="1116.75,-143.5 1116.75,-163 1230.75,-163 1230.75,-143.5 1116.75,-143.5"/>
<text text-anchor="start" x="1163.62" y="-149.55" font-family="Courier,monospace" font-size="11.00">int</text>
<polygon fill="none" stroke="#99ccff" points="375,-124 375,-143.5 1116.75,-143.5 1116.75,-124 375,-124"/>
<text text-anchor="start" x="378" y="-130.05" font-family="Courier,monospace" font-size="11.00"> &#160;&#160;&#160;&#160;&#160;&#160;&#160;&#160;&#160;&#160;&#160;&#160;&#160;&#160;&#160;&#160;&#160;&#160;&#160;&#160;&#160;&#160;&#160;&#160;&#160;&#160;&#160;&#160;&#160;&#160;&#160;&#160;&#160;&#160;&#160;&#160;&#160;&#160;&#160;&#160;Stage &#160;&#160;&#160;&#160;&#160;&#160;&#160;&#160;&#160;&#160;&#160;&#160;&#160;&#160;&#160;&#160;&#160;&#160;&#160;&#160;&#160;&#160;&#160;&#160;&#160;&#160;&#160;&#160;&#160;&#160;&#160;&#160;&#160;&#160;&#160;&#160;&#160;&#160;</text>
<polygon fill="none" stroke="#99ccff" points="1116.75,-124 1116.75,-143.5 1230.75,-143.5 1230.75,-124 1116.75,-124"/>
<text text-anchor="start" x="1129.88" y="-130.05" font-family="Courier,monospace" font-size="11.00">picklist(255)</text>
<polygon fill="none" stroke="#99ccff" points="375,-104.5 375,-124 1116.75,-124 1116.75,-104.5 375,-104.5"/>
<text text-anchor="start" x="378" y="-110.55" font-family="Courier,monospace" font-size="11.00"> &#160;&#160;&#160;&#160;&#160;&#160;&#160;&#160;&#160;&#160;&#160;&#160;&#160;&#160;&#160;&#160;&#160;&#160;&#160;&#160;&#160;&#160;&#160;&#160;&#160;&#160;&#160;&#160;&#160;&#160;&#160;&#160;&#160;&#160;&#160;&#160;&#160;&#160;&#160;&#160;ReferenceProcedureId &#160;&#160;&#160;&#160;&#160;&#160;&#160;&#160;&#160;&#160;&#160;&#160;&#160;&#160;&#160;&#160;&#160;&#160;&#160;&#160;&#160;&#160;&#160;&#160;&#160;&#160;&#160;&#160;&#160;&#160;&#160;&#160;&#160;&#160;&#160;&#160;&#160;&#160;</text>
<polygon fill="none" stroke="#99ccff" points="1116.75,-104.5 1116.75,-124 1230.75,-124 1230.75,-104.5 1116.75,-104.5"/>
<text text-anchor="start" x="1129.88" y="-110.55" font-family="Courier,monospace" font-size="11.00">reference(18)</text>
<polygon fill="none" stroke="#99ccff" points="375,-85 375,-104.5 1116.75,-104.5 1116.75,-85 375,-85"/>
<text text-anchor="start" x="378" y="-91.05" font-family="Courier,monospace" font-size="11.00"> &#160;&#160;&#160;&#160;&#160;&#160;&#160;&#160;&#160;&#160;&#160;&#160;&#160;&#160;&#160;&#160;&#160;&#160;&#160;&#160;&#160;&#160;&#160;&#160;&#160;&#160;&#160;&#160;&#160;&#160;&#160;&#160;&#160;&#160;&#160;&#160;&#160;&#160;&#160;&#160;Description &#160;&#160;&#160;&#160;&#160;&#160;&#160;&#160;&#160;&#160;&#160;&#160;&#160;&#160;&#160;&#160;&#160;&#160;&#160;&#160;&#160;&#160;&#160;&#160;&#160;&#160;&#160;&#160;&#160;&#160;&#160;&#160;&#160;&#160;&#160;&#160;&#160;&#160;</text>
<polygon fill="none" stroke="#99ccff" points="1116.75,-85 1116.75,-104.5 1230.75,-104.5 1230.75,-85 1116.75,-85"/>
<text text-anchor="start" x="1136.62" y="-91.05" font-family="Courier,monospace" font-size="11.00">string(255)</text>
<polygon fill="none" stroke="#99ccff" points="375,-65.5 375,-85 1116.75,-85 1116.75,-65.5 375,-65.5"/>
<text text-anchor="start" x="378" y="-71.55" font-family="Courier,monospace" font-size="11.00"> &#160;&#160;&#160;&#160;&#160;&#160;&#160;&#160;&#160;&#160;&#160;&#160;&#160;&#160;&#160;&#160;&#160;&#160;&#160;&#160;&#160;&#160;&#160;&#160;&#160;&#160;&#160;&#160;&#160;&#160;&#160;&#160;&#160;&#160;&#160;&#160;&#160;&#160;&#160;&#160;ReturnMessageValueSet &#160;&#160;&#160;&#160;&#160;&#160;&#160;&#160;&#160;&#160;&#160;&#160;&#160;&#160;&#160;&#160;&#160;&#160;&#160;&#160;&#160;&#160;&#160;&#160;&#160;&#160;&#160;&#160;&#160;&#160;&#160;&#160;&#160;&#160;&#160;&#160;&#160;&#160;</text>
<polygon fill="none" stroke="#99ccff" points="1116.75,-65.5 1116.75,-85 1230.75,-85 1230.75,-65.5 1116.75,-65.5"/>
<text text-anchor="start" x="1119.75" y="-71.55" font-family="Courier,monospace" font-size="11.00">textarea(131072)</text>
<polygon fill="none" stroke="#99ccff" points="375,-46 375,-65.5 1116.75,-65.5 1116.75,-46 375,-46"/>
<text text-anchor="start" x="378" y="-52.05" font-family="Courier,monospace" font-size="11.00"> &#160;&#160;&#160;&#160;&#160;&#160;&#160;&#160;&#160;&#160;&#160;&#160;&#160;&#160;&#160;&#160;&#160;&#160;&#160;&#160;&#160;&#160;&#160;&#160;&#160;&#160;&#160;&#160;&#160;&#160;&#160;&#160;&#160;&#160;&#160;&#160;&#160;&#160;&#160;&#160;Namespace &#160;&#160;&#160;&#160;&#160;&#160;&#160;&#160;&#160;&#160;&#160;&#160;&#160;&#160;&#160;&#160;&#160;&#160;&#160;&#160;&#160;&#160;&#160;&#160;&#160;&#160;&#160;&#160;&#160;&#160;&#160;&#160;&#160;&#160;&#160;&#160;&#160;&#160;</text>
<polygon fill="none" stroke="#99ccff" points="1116.75,-46 1116.75,-65.5 1230.75,-65.5 1230.75,-46 1116.75,-46"/>
<text text-anchor="start" x="1136.62" y="-52.05" font-family="Courier,monospace" font-size="11.00">string(255)</text>
<polygon fill="none" stroke="#99ccff" points="375,-26.5 375,-46 1116.75,-46 1116.75,-26.5 375,-26.5"/>
<text text-anchor="start" x="378" y="-32.55" font-family="Courier,monospace" font-size="11.00"> &#160;&#160;&#160;&#160;&#160;&#160;&#160;&#160;&#160;&#160;&#160;&#160;&#160;&#160;&#160;&#160;&#160;&#160;&#160;&#160;&#160;&#160;&#160;&#160;&#160;&#160;&#160;&#160;&#160;&#160;&#160;&#160;&#160;&#160;&#160;&#160;&#160;&#160;&#160;&#160;DecisionTableId &#160;&#160;&#160;&#160;&#160;&#160;&#160;&#160;&#160;&#160;&#160;&#160;&#160;&#160;&#160;&#160;&#160;&#160;&#160;&#160;&#160;&#160;&#160;&#160;&#160;&#160;&#160;&#160;&#160;&#160;&#160;&#160;&#160;&#160;&#160;&#160;&#160;&#160;</text>
<polygon fill="none" stroke="#99ccff" points="1116.75,-26.5 1116.75,-46 1230.75,-46 1230.75,-26.5 1116.75,-26.5"/>
<text text-anchor="start" x="1129.88" y="-32.55" font-family="Courier,monospace" font-size="11.00">reference(18)</text>
<polygon fill="none" stroke="#99ccff" points="374,-25.5 374,-573.5 1231.75,-573.5 1231.75,-25.5 374,-25.5"/>
</a>
</g>
</g>
<!-- User -->
<g id="node2" class="node">
<title>User</title>
<text text-anchor="middle" x="99.12" y="-494.8" font-family="Courier,monospace" font-size="11.00">User</text>
</g>
<!-- CalculationProcedureStep&#45;&gt;User -->
<g id="edge1" class="edge">
<title>CalculationProcedureStep:w&#45;&gt;User:e</title>
<path fill="none" stroke="#ff99cc" d="M358.32,-484.82C270.51,-485.61 171.5,-492.7 125.78,-496.35"/>
<polygon fill="#ff99cc" stroke="#ff99cc" points="365.67,-484.79 373.68,-488.35 370,-484.77 373.33,-484.75 373.33,-484.75 373.33,-484.75 370,-484.77 373.65,-481.15 365.67,-484.79"/>
<ellipse fill="none" stroke="#ff99cc" cx="360.75" cy="-484.81" rx="3.2" ry="3.2"/>
<text text-anchor="middle" x="286.12" y="-492.69" font-family="Monaco" font-size="9.00">LastModifiedBy</text>
</g>
<!-- CalculationProcedureVersion -->
<g id="node3" class="node">
<title>CalculationProcedureVersion</title>
<text text-anchor="middle" x="99.12" y="-445.8" font-family="Courier,monospace" font-size="11.00">CalculationProcedureVersion</text>
</g>
<!-- CalculationProcedureStep&#45;&gt;CalculationProcedureVersion -->
<g id="edge2" class="edge">
<title>CalculationProcedureStep:w&#45;&gt;CalculationProcedureVersion:e</title>
<path fill="none" stroke="#ff99cc" d="M358.44,-465.17C304.15,-464.61 245.58,-461.3 197.97,-457.86"/>
<polygon fill="#ff99cc" stroke="#ff99cc" points="365.67,-465.21 373.65,-468.85 370,-465.23 373.33,-465.25 373.33,-465.25 373.33,-465.25 370,-465.23 373.68,-461.65 365.67,-465.21"/>
<ellipse fill="none" stroke="#ff99cc" cx="360.75" cy="-465.18" rx="3.2" ry="3.2"/>
<text text-anchor="middle" x="286.12" y="-467.79" font-family="Monaco" font-size="9.00">CalculationProcedureVersion</text>
</g>
<!-- CalculationMatrix -->
<g id="node4" class="node">
<title>CalculationMatrix</title>
<text text-anchor="middle" x="99.12" y="-382.8" font-family="Courier,monospace" font-size="11.00">CalculationMatrix</text>
</g>
<!-- CalculationProcedureStep&#45;&gt;CalculationMatrix -->
<g id="edge3" class="edge">
<title>CalculationProcedureStep:w&#45;&gt;CalculationMatrix:e</title>
<path fill="none" stroke="#ff99cc" d="M358.28,-387.25C290.44,-387.21 215.81,-386.97 164.32,-386.78"/>
<polygon fill="#ff99cc" stroke="#ff99cc" points="365.67,-387.25 373.66,-390.85 370,-387.25 373.33,-387.25 373.33,-387.25 373.33,-387.25 370,-387.25 373.67,-383.65 365.67,-387.25"/>
<ellipse fill="none" stroke="#ff99cc" cx="360.75" cy="-387.25" rx="3.2" ry="3.2"/>
<text text-anchor="middle" x="286.12" y="-389.94" font-family="Monaco" font-size="9.00">CalculationMatrix</text>
</g>
<!-- CalculationProcedure -->
<g id="node5" class="node">
<title>CalculationProcedure</title>
<text text-anchor="middle" x="99.12" y="-110.8" font-family="Courier,monospace" font-size="11.00">CalculationProcedure</text>
</g>
<!-- CalculationProcedureStep&#45;&gt;CalculationProcedure -->
<g id="edge4" class="edge">
<title>CalculationProcedureStep:w&#45;&gt;CalculationProcedure:e</title>
<path fill="none" stroke="#ff99cc" d="M358.42,-114.25C294.9,-114.26 225.41,-114.33 174.52,-114.4"/>
<polygon fill="#ff99cc" stroke="#ff99cc" points="365.67,-114.25 373.67,-117.85 370,-114.25 373.33,-114.25 373.33,-114.25 373.33,-114.25 370,-114.25 373.67,-110.65 365.67,-114.25"/>
<ellipse fill="none" stroke="#ff99cc" cx="360.75" cy="-114.25" rx="3.2" ry="3.2"/>
<text text-anchor="middle" x="286.12" y="-117.05" font-family="Monaco" font-size="9.00">ReferenceProcedure</text>
</g>
<!-- DecisionTable -->
<g id="node6" class="node">
<title>DecisionTable</title>
<text text-anchor="middle" x="99.12" y="-32.8" font-family="Courier,monospace" font-size="11.00">DecisionTable</text>
</g>
<!-- CalculationProcedureStep&#45;&gt;DecisionTable -->
<g id="edge5" class="edge">
<title>CalculationProcedureStep:w&#45;&gt;DecisionTable:e</title>
<path fill="none" stroke="#ff99cc" d="M358.34,-36.25C284.3,-36.26 202.18,-36.36 150.85,-36.43"/>
<polygon fill="#ff99cc" stroke="#ff99cc" points="365.67,-36.25 373.67,-39.85 370,-36.25 373.33,-36.25 373.33,-36.25 373.33,-36.25 370,-36.25 373.67,-32.65 365.67,-36.25"/>
<ellipse fill="none" stroke="#ff99cc" cx="360.75" cy="-36.25" rx="3.2" ry="3.2"/>
<text text-anchor="middle" x="286.12" y="-39.05" font-family="Monaco" font-size="9.00">DecisionTable</text>
</g>
</g>
</svg>
