<?xml version="1.0" encoding="UTF-8" standalone="no"?>
<!DOCTYPE svg PUBLIC "-//W3C//DTD SVG 1.1//EN"
 "http://www.w3.org/Graphics/SVG/1.1/DTD/svg11.dtd">
<!-- Generated by graphviz version 12.2.1 (20241206.2353)
 -->
<!-- Title: Salesforce+ ERD Pages: 1 -->
<svg width="1184pt" height="263pt"
 viewBox="0.00 0.00 1183.50 262.50" xmlns="http://www.w3.org/2000/svg" xmlns:xlink="http://www.w3.org/1999/xlink">
<g id="graph0" class="graph" transform="scale(1 1) rotate(0) translate(4 258.5)">
<title>Salesforce+ ERD</title>
<polygon fill="#efeffd" stroke="none" points="-4,4 -4,-258.5 1179.5,-258.5 1179.5,4 -4,4"/>
<text text-anchor="middle" x="1128.12" y="-5.95" font-family="Courier,monospace" font-size="9.00">Salesforce ERD </text>
<!-- CalculationMatrixRow -->
<g id="node1" class="node">
<title>CalculationMatrixRow</title>
<g id="a_node1"><a xlink:href="#" xlink:title=" CalculationMatrixRow ">
<polygon fill="#ffeeff" stroke="none" points="338,-18.5 338,-254.5 1175.5,-254.5 1175.5,-18.5 338,-18.5"/>
<polygon fill="lightblue" stroke="none" points="339,-234 339,-253.5 1174.5,-253.5 1174.5,-234 339,-234"/>
<polygon fill="none" stroke="#99ccff" points="339,-234 339,-253.5 1174.5,-253.5 1174.5,-234 339,-234"/>
<text text-anchor="start" x="689.25" y="-241.05" font-family="Courier,monospace" font-weight="bold" font-size="11.00">CalculationMatrixRow</text>
<polygon fill="#99ccff" stroke="none" points="339,-214.5 339,-234 1060.5,-234 1060.5,-214.5 339,-214.5"/>
<polygon fill="none" stroke="#99ccff" points="339,-214.5 339,-234 1060.5,-234 1060.5,-214.5 339,-214.5"/>
<text text-anchor="start" x="342" y="-221.55" font-family="Courier,monospace" font-size="11.00"> &#160;&#160;&#160;&#160;&#160;&#160;&#160;&#160;&#160;&#160;&#160;&#160;&#160;&#160;&#160;&#160;&#160;&#160;&#160;&#160;&#160;&#160;&#160;&#160;&#160;&#160;&#160;&#160;&#160;&#160;&#160;&#160;&#160;&#160;&#160;&#160;&#160;&#160;&#160;&#160;&#160;&#160;</text>
<text text-anchor="start" x="632.25" y="-221.55" font-family="Courier,monospace" font-weight="bold" font-size="11.00">Id</text>
<text text-anchor="start" x="645.75" y="-221.55" font-family="Courier,monospace" font-size="11.00"> &#160;&#160;&#160;&#160;&#160;&#160;&#160;&#160;&#160;&#160;&#160;&#160;&#160;&#160;&#160;&#160;&#160;&#160;&#160;&#160;&#160;&#160;&#160;&#160;&#160;&#160;&#160;&#160;&#160;&#160;&#160;&#160;&#160;&#160;&#160;&#160;&#160;&#160;&#160;</text>
<polygon fill="none" stroke="#99ccff" points="1060.5,-214.5 1060.5,-234 1174.5,-234 1174.5,-214.5 1060.5,-214.5"/>
<text text-anchor="start" x="1097.25" y="-220.55" font-family="Courier,monospace" font-size="11.00">id(18)</text>
<polygon fill="none" stroke="#99ccff" points="339,-195 339,-214.5 1060.5,-214.5 1060.5,-195 339,-195"/>
<text text-anchor="start" x="342" y="-201.05" font-family="Courier,monospace" font-size="11.00"> &#160;&#160;&#160;&#160;&#160;&#160;&#160;&#160;&#160;&#160;&#160;&#160;&#160;&#160;&#160;&#160;&#160;&#160;&#160;&#160;&#160;&#160;&#160;&#160;&#160;&#160;&#160;&#160;&#160;&#160;&#160;&#160;&#160;&#160;&#160;&#160;&#160;&#160;&#160;&#160;IsDeleted &#160;&#160;&#160;&#160;&#160;&#160;&#160;&#160;&#160;&#160;&#160;&#160;&#160;&#160;&#160;&#160;&#160;&#160;&#160;&#160;&#160;&#160;&#160;&#160;&#160;&#160;&#160;&#160;&#160;&#160;&#160;&#160;&#160;&#160;&#160;&#160;&#160;&#160;</text>
<polygon fill="none" stroke="#99ccff" points="1060.5,-195 1060.5,-214.5 1174.5,-214.5 1174.5,-195 1060.5,-195"/>
<text text-anchor="start" x="1093.88" y="-201.05" font-family="Courier,monospace" font-size="11.00">boolean</text>
<polygon fill="none" stroke="#99ccff" points="339,-175.5 339,-195 1060.5,-195 1060.5,-175.5 339,-175.5"/>
<text text-anchor="start" x="342" y="-181.55" font-family="Courier,monospace" font-size="11.00"> &#160;&#160;&#160;&#160;&#160;&#160;&#160;&#160;&#160;&#160;&#160;&#160;&#160;&#160;&#160;&#160;&#160;&#160;&#160;&#160;&#160;&#160;&#160;&#160;&#160;&#160;&#160;&#160;&#160;&#160;&#160;&#160;&#160;&#160;&#160;&#160;&#160;&#160;&#160;&#160;Name &#160;&#160;&#160;&#160;&#160;&#160;&#160;&#160;&#160;&#160;&#160;&#160;&#160;&#160;&#160;&#160;&#160;&#160;&#160;&#160;&#160;&#160;&#160;&#160;&#160;&#160;&#160;&#160;&#160;&#160;&#160;&#160;&#160;&#160;&#160;&#160;&#160;&#160;</text>
<polygon fill="none" stroke="#99ccff" points="1060.5,-175.5 1060.5,-195 1174.5,-195 1174.5,-175.5 1060.5,-175.5"/>
<text text-anchor="start" x="1080.38" y="-181.55" font-family="Courier,monospace" font-size="11.00">string(255)</text>
<polygon fill="none" stroke="#99ccff" points="339,-156 339,-175.5 1060.5,-175.5 1060.5,-156 339,-156"/>
<text text-anchor="start" x="342" y="-162.05" font-family="Courier,monospace" font-size="11.00"> &#160;&#160;&#160;&#160;&#160;&#160;&#160;&#160;&#160;&#160;&#160;&#160;&#160;&#160;&#160;&#160;&#160;&#160;&#160;&#160;&#160;&#160;&#160;&#160;&#160;&#160;&#160;&#160;&#160;&#160;&#160;&#160;&#160;&#160;&#160;&#160;&#160;&#160;&#160;&#160;LastModifiedById &#160;&#160;&#160;&#160;&#160;&#160;&#160;&#160;&#160;&#160;&#160;&#160;&#160;&#160;&#160;&#160;&#160;&#160;&#160;&#160;&#160;&#160;&#160;&#160;&#160;&#160;&#160;&#160;&#160;&#160;&#160;&#160;&#160;&#160;&#160;&#160;&#160;&#160;</text>
<polygon fill="none" stroke="#99ccff" points="1060.5,-156 1060.5,-175.5 1174.5,-175.5 1174.5,-156 1060.5,-156"/>
<text text-anchor="start" x="1073.62" y="-162.05" font-family="Courier,monospace" font-size="11.00">reference(18)</text>
<polygon fill="none" stroke="#99ccff" points="339,-136.5 339,-156 1060.5,-156 1060.5,-136.5 339,-136.5"/>
<text text-anchor="start" x="342" y="-142.55" font-family="Courier,monospace" font-size="11.00"> &#160;&#160;&#160;&#160;&#160;&#160;&#160;&#160;&#160;&#160;&#160;&#160;&#160;&#160;&#160;&#160;&#160;&#160;&#160;&#160;&#160;&#160;&#160;&#160;&#160;&#160;&#160;&#160;&#160;&#160;&#160;&#160;&#160;&#160;&#160;&#160;&#160;&#160;&#160;&#160;CalculationMatrixVersionId &#160;&#160;&#160;&#160;&#160;&#160;&#160;&#160;&#160;&#160;&#160;&#160;&#160;&#160;&#160;&#160;&#160;&#160;&#160;&#160;&#160;&#160;&#160;&#160;&#160;&#160;&#160;&#160;&#160;&#160;&#160;&#160;&#160;&#160;&#160;&#160;&#160;&#160;</text>
<polygon fill="none" stroke="#99ccff" points="1060.5,-136.5 1060.5,-156 1174.5,-156 1174.5,-136.5 1060.5,-136.5"/>
<text text-anchor="start" x="1073.62" y="-142.55" font-family="Courier,monospace" font-size="11.00">reference(18)</text>
<polygon fill="none" stroke="#99ccff" points="339,-117 339,-136.5 1060.5,-136.5 1060.5,-117 339,-117"/>
<text text-anchor="start" x="342" y="-123.05" font-family="Courier,monospace" font-size="11.00"> &#160;&#160;&#160;&#160;&#160;&#160;&#160;&#160;&#160;&#160;&#160;&#160;&#160;&#160;&#160;&#160;&#160;&#160;&#160;&#160;&#160;&#160;&#160;&#160;&#160;&#160;&#160;&#160;&#160;&#160;&#160;&#160;&#160;&#160;&#160;&#160;&#160;&#160;&#160;&#160;IsVersionEnabled &#160;&#160;&#160;&#160;&#160;&#160;&#160;&#160;&#160;&#160;&#160;&#160;&#160;&#160;&#160;&#160;&#160;&#160;&#160;&#160;&#160;&#160;&#160;&#160;&#160;&#160;&#160;&#160;&#160;&#160;&#160;&#160;&#160;&#160;&#160;&#160;&#160;&#160;</text>
<polygon fill="none" stroke="#99ccff" points="1060.5,-117 1060.5,-136.5 1174.5,-136.5 1174.5,-117 1060.5,-117"/>
<text text-anchor="start" x="1093.88" y="-123.05" font-family="Courier,monospace" font-size="11.00">boolean</text>
<polygon fill="none" stroke="#99ccff" points="339,-97.5 339,-117 1060.5,-117 1060.5,-97.5 339,-97.5"/>
<text text-anchor="start" x="342" y="-103.55" font-family="Courier,monospace" font-size="11.00"> &#160;&#160;&#160;&#160;&#160;&#160;&#160;&#160;&#160;&#160;&#160;&#160;&#160;&#160;&#160;&#160;&#160;&#160;&#160;&#160;&#160;&#160;&#160;&#160;&#160;&#160;&#160;&#160;&#160;&#160;&#160;&#160;&#160;&#160;&#160;&#160;&#160;&#160;&#160;&#160;StartDateTime &#160;&#160;&#160;&#160;&#160;&#160;&#160;&#160;&#160;&#160;&#160;&#160;&#160;&#160;&#160;&#160;&#160;&#160;&#160;&#160;&#160;&#160;&#160;&#160;&#160;&#160;&#160;&#160;&#160;&#160;&#160;&#160;&#160;&#160;&#160;&#160;&#160;&#160;</text>
<polygon fill="none" stroke="#99ccff" points="1060.5,-97.5 1060.5,-117 1174.5,-117 1174.5,-97.5 1060.5,-97.5"/>
<text text-anchor="start" x="1090.5" y="-103.55" font-family="Courier,monospace" font-size="11.00">datetime</text>
<polygon fill="none" stroke="#99ccff" points="339,-78 339,-97.5 1060.5,-97.5 1060.5,-78 339,-78"/>
<text text-anchor="start" x="342" y="-84.05" font-family="Courier,monospace" font-size="11.00"> &#160;&#160;&#160;&#160;&#160;&#160;&#160;&#160;&#160;&#160;&#160;&#160;&#160;&#160;&#160;&#160;&#160;&#160;&#160;&#160;&#160;&#160;&#160;&#160;&#160;&#160;&#160;&#160;&#160;&#160;&#160;&#160;&#160;&#160;&#160;&#160;&#160;&#160;&#160;&#160;EndDateTime &#160;&#160;&#160;&#160;&#160;&#160;&#160;&#160;&#160;&#160;&#160;&#160;&#160;&#160;&#160;&#160;&#160;&#160;&#160;&#160;&#160;&#160;&#160;&#160;&#160;&#160;&#160;&#160;&#160;&#160;&#160;&#160;&#160;&#160;&#160;&#160;&#160;&#160;</text>
<polygon fill="none" stroke="#99ccff" points="1060.5,-78 1060.5,-97.5 1174.5,-97.5 1174.5,-78 1060.5,-78"/>
<text text-anchor="start" x="1090.5" y="-84.05" font-family="Courier,monospace" font-size="11.00">datetime</text>
<polygon fill="none" stroke="#99ccff" points="339,-58.5 339,-78 1060.5,-78 1060.5,-58.5 339,-58.5"/>
<text text-anchor="start" x="342" y="-64.55" font-family="Courier,monospace" font-size="11.00"> &#160;&#160;&#160;&#160;&#160;&#160;&#160;&#160;&#160;&#160;&#160;&#160;&#160;&#160;&#160;&#160;&#160;&#160;&#160;&#160;&#160;&#160;&#160;&#160;&#160;&#160;&#160;&#160;&#160;&#160;&#160;&#160;&#160;&#160;&#160;&#160;&#160;&#160;&#160;&#160;InputData &#160;&#160;&#160;&#160;&#160;&#160;&#160;&#160;&#160;&#160;&#160;&#160;&#160;&#160;&#160;&#160;&#160;&#160;&#160;&#160;&#160;&#160;&#160;&#160;&#160;&#160;&#160;&#160;&#160;&#160;&#160;&#160;&#160;&#160;&#160;&#160;&#160;&#160;</text>
<polygon fill="none" stroke="#99ccff" points="1060.5,-58.5 1060.5,-78 1174.5,-78 1174.5,-58.5 1060.5,-58.5"/>
<text text-anchor="start" x="1063.5" y="-64.55" font-family="Courier,monospace" font-size="11.00">textarea(131072)</text>
<polygon fill="none" stroke="#99ccff" points="339,-39 339,-58.5 1060.5,-58.5 1060.5,-39 339,-39"/>
<text text-anchor="start" x="342" y="-45.05" font-family="Courier,monospace" font-size="11.00"> &#160;&#160;&#160;&#160;&#160;&#160;&#160;&#160;&#160;&#160;&#160;&#160;&#160;&#160;&#160;&#160;&#160;&#160;&#160;&#160;&#160;&#160;&#160;&#160;&#160;&#160;&#160;&#160;&#160;&#160;&#160;&#160;&#160;&#160;&#160;&#160;&#160;&#160;&#160;&#160;OutputData &#160;&#160;&#160;&#160;&#160;&#160;&#160;&#160;&#160;&#160;&#160;&#160;&#160;&#160;&#160;&#160;&#160;&#160;&#160;&#160;&#160;&#160;&#160;&#160;&#160;&#160;&#160;&#160;&#160;&#160;&#160;&#160;&#160;&#160;&#160;&#160;&#160;&#160;</text>
<polygon fill="none" stroke="#99ccff" points="1060.5,-39 1060.5,-58.5 1174.5,-58.5 1174.5,-39 1060.5,-39"/>
<text text-anchor="start" x="1063.5" y="-45.05" font-family="Courier,monospace" font-size="11.00">textarea(131072)</text>
<polygon fill="none" stroke="#99ccff" points="339,-19.5 339,-39 1060.5,-39 1060.5,-19.5 339,-19.5"/>
<text text-anchor="start" x="342" y="-25.55" font-family="Courier,monospace" font-size="11.00"> &#160;&#160;&#160;&#160;&#160;&#160;&#160;&#160;&#160;&#160;&#160;&#160;&#160;&#160;&#160;&#160;&#160;&#160;&#160;&#160;&#160;&#160;&#160;&#160;&#160;&#160;&#160;&#160;&#160;&#160;&#160;&#160;&#160;&#160;&#160;&#160;&#160;&#160;&#160;&#160;Namespace &#160;&#160;&#160;&#160;&#160;&#160;&#160;&#160;&#160;&#160;&#160;&#160;&#160;&#160;&#160;&#160;&#160;&#160;&#160;&#160;&#160;&#160;&#160;&#160;&#160;&#160;&#160;&#160;&#160;&#160;&#160;&#160;&#160;&#160;&#160;&#160;&#160;&#160;</text>
<polygon fill="none" stroke="#99ccff" points="1060.5,-19.5 1060.5,-39 1174.5,-39 1174.5,-19.5 1060.5,-19.5"/>
<text text-anchor="start" x="1080.38" y="-25.55" font-family="Courier,monospace" font-size="11.00">string(255)</text>
<polygon fill="none" stroke="#99ccff" points="338,-18.5 338,-254.5 1175.5,-254.5 1175.5,-18.5 338,-18.5"/>
</a>
</g>
</g>
<!-- User -->
<g id="node2" class="node">
<title>User</title>
<text text-anchor="middle" x="89" y="-175.8" font-family="Courier,monospace" font-size="11.00">User</text>
</g>
<!-- CalculationMatrixRow&#45;&gt;User -->
<g id="edge1" class="edge">
<title>CalculationMatrixRow:w&#45;&gt;User:e</title>
<path fill="none" stroke="#ff99cc" d="M322.6,-165.83C244.91,-166.67 157.86,-173.45 115.68,-177.14"/>
<polygon fill="#ff99cc" stroke="#ff99cc" points="329.67,-165.8 337.69,-169.35 334,-165.77 337.33,-165.75 337.33,-165.75 337.33,-165.75 334,-165.77 337.65,-162.15 329.67,-165.8"/>
<ellipse fill="none" stroke="#ff99cc" cx="324.75" cy="-165.82" rx="3.2" ry="3.2"/>
<text text-anchor="middle" x="258" y="-173.69" font-family="Monaco" font-size="9.00">LastModifiedBy</text>
</g>
<!-- CalculationMatrixVersion -->
<g id="node3" class="node">
<title>CalculationMatrixVersion</title>
<text text-anchor="middle" x="89" y="-126.8" font-family="Courier,monospace" font-size="11.00">CalculationMatrixVersion</text>
</g>
<!-- CalculationMatrixRow&#45;&gt;CalculationMatrixVersion -->
<g id="edge2" class="edge">
<title>CalculationMatrixRow:w&#45;&gt;CalculationMatrixVersion:e</title>
<path fill="none" stroke="#ff99cc" d="M322.23,-146.15C273.2,-145.53 220.5,-142.21 177.72,-138.79"/>
<polygon fill="#ff99cc" stroke="#ff99cc" points="329.67,-146.2 337.64,-149.85 334,-146.22 337.33,-146.25 337.33,-146.25 337.33,-146.25 334,-146.22 337.69,-142.65 329.67,-146.2"/>
<ellipse fill="none" stroke="#ff99cc" cx="324.75" cy="-146.16" rx="3.2" ry="3.2"/>
<text text-anchor="middle" x="258" y="-148.79" font-family="Monaco" font-size="9.00">CalculationMatrixVersion</text>
</g>
</g>
</svg>
