<?xml version="1.0" encoding="UTF-8" standalone="no"?>
<!DOCTYPE svg PUBLIC "-//W3C//DTD SVG 1.1//EN"
 "http://www.w3.org/Graphics/SVG/1.1/DTD/svg11.dtd">
<!-- Generated by graphviz version 12.2.1 (20241206.2353)
 -->
<!-- Title: Salesforce+ ERD Pages: 1 -->
<svg width="949pt" height="282pt"
 viewBox="0.00 0.00 948.75 282.00" xmlns="http://www.w3.org/2000/svg" xmlns:xlink="http://www.w3.org/1999/xlink">
<g id="graph0" class="graph" transform="scale(1 1) rotate(0) translate(4 278)">
<title>Salesforce+ ERD</title>
<polygon fill="#efeffd" stroke="none" points="-4,4 -4,-278 944.75,-278 944.75,4 -4,4"/>
<text text-anchor="middle" x="893.38" y="-5.95" font-family="Courier,monospace" font-size="9.00">Salesforce ERD </text>
<!-- CostbookEntry -->
<g id="node1" class="node">
<title>CostbookEntry</title>
<g id="a_node1"><a xlink:href="#" xlink:title=" CostbookEntry ">
<polygon fill="#ffeeff" stroke="none" points="177.5,-18.5 177.5,-274 940.75,-274 940.75,-18.5 177.5,-18.5"/>
<polygon fill="lightblue" stroke="none" points="178.5,-253.5 178.5,-273 939.75,-273 939.75,-253.5 178.5,-253.5"/>
<polygon fill="none" stroke="#99ccff" points="178.5,-253.5 178.5,-273 939.75,-273 939.75,-253.5 178.5,-253.5"/>
<text text-anchor="start" x="515.25" y="-260.55" font-family="Courier,monospace" font-weight="bold" font-size="11.00">CostbookEntry</text>
<polygon fill="#99ccff" stroke="none" points="178.5,-234 178.5,-253.5 846,-253.5 846,-234 178.5,-234"/>
<polygon fill="none" stroke="#99ccff" points="178.5,-234 178.5,-253.5 846,-253.5 846,-234 178.5,-234"/>
<text text-anchor="start" x="181.5" y="-241.05" font-family="Courier,monospace" font-size="11.00"> &#160;&#160;&#160;&#160;&#160;&#160;&#160;&#160;&#160;&#160;&#160;&#160;&#160;&#160;&#160;&#160;&#160;&#160;&#160;&#160;&#160;&#160;&#160;&#160;&#160;&#160;&#160;&#160;&#160;&#160;&#160;&#160;&#160;&#160;&#160;&#160;&#160;&#160;&#160;&#160;&#160;&#160;</text>
<text text-anchor="start" x="471.75" y="-241.05" font-family="Courier,monospace" font-weight="bold" font-size="11.00">Id</text>
<text text-anchor="start" x="485.25" y="-241.05" font-family="Courier,monospace" font-size="11.00"> &#160;&#160;&#160;&#160;&#160;&#160;&#160;&#160;&#160;&#160;&#160;&#160;&#160;&#160;&#160;&#160;&#160;&#160;&#160;&#160;&#160;&#160;&#160;&#160;&#160;&#160;&#160;&#160;&#160;&#160;&#160;&#160;&#160;&#160;&#160;&#160;&#160;&#160;&#160;</text>
<polygon fill="none" stroke="#99ccff" points="846,-234 846,-253.5 939.75,-253.5 939.75,-234 846,-234"/>
<text text-anchor="start" x="872.62" y="-240.05" font-family="Courier,monospace" font-size="11.00">id(18)</text>
<polygon fill="none" stroke="#99ccff" points="178.5,-214.5 178.5,-234 846,-234 846,-214.5 178.5,-214.5"/>
<text text-anchor="start" x="181.5" y="-220.55" font-family="Courier,monospace" font-size="11.00"> &#160;&#160;&#160;&#160;&#160;&#160;&#160;&#160;&#160;&#160;&#160;&#160;&#160;&#160;&#160;&#160;&#160;&#160;&#160;&#160;&#160;&#160;&#160;&#160;&#160;&#160;&#160;&#160;&#160;&#160;&#160;&#160;&#160;&#160;&#160;&#160;&#160;&#160;&#160;&#160;IsDeleted &#160;&#160;&#160;&#160;&#160;&#160;&#160;&#160;&#160;&#160;&#160;&#160;&#160;&#160;&#160;&#160;&#160;&#160;&#160;&#160;&#160;&#160;&#160;&#160;&#160;&#160;&#160;&#160;&#160;&#160;&#160;&#160;&#160;&#160;&#160;&#160;&#160;&#160;</text>
<polygon fill="none" stroke="#99ccff" points="846,-214.5 846,-234 939.75,-234 939.75,-214.5 846,-214.5"/>
<text text-anchor="start" x="869.25" y="-220.55" font-family="Courier,monospace" font-size="11.00">boolean</text>
<polygon fill="none" stroke="#99ccff" points="178.5,-195 178.5,-214.5 846,-214.5 846,-195 178.5,-195"/>
<text text-anchor="start" x="181.5" y="-201.05" font-family="Courier,monospace" font-size="11.00"> &#160;&#160;&#160;&#160;&#160;&#160;&#160;&#160;&#160;&#160;&#160;&#160;&#160;&#160;&#160;&#160;&#160;&#160;&#160;&#160;&#160;&#160;&#160;&#160;&#160;&#160;&#160;&#160;&#160;&#160;&#160;&#160;&#160;&#160;&#160;&#160;&#160;&#160;&#160;&#160;Name &#160;&#160;&#160;&#160;&#160;&#160;&#160;&#160;&#160;&#160;&#160;&#160;&#160;&#160;&#160;&#160;&#160;&#160;&#160;&#160;&#160;&#160;&#160;&#160;&#160;&#160;&#160;&#160;&#160;&#160;&#160;&#160;&#160;&#160;&#160;&#160;&#160;&#160;</text>
<polygon fill="none" stroke="#99ccff" points="846,-195 846,-214.5 939.75,-214.5 939.75,-195 846,-195"/>
<text text-anchor="start" x="855.75" y="-201.05" font-family="Courier,monospace" font-size="11.00">string(255)</text>
<polygon fill="none" stroke="#99ccff" points="178.5,-175.5 178.5,-195 846,-195 846,-175.5 178.5,-175.5"/>
<text text-anchor="start" x="181.5" y="-181.55" font-family="Courier,monospace" font-size="11.00"> &#160;&#160;&#160;&#160;&#160;&#160;&#160;&#160;&#160;&#160;&#160;&#160;&#160;&#160;&#160;&#160;&#160;&#160;&#160;&#160;&#160;&#160;&#160;&#160;&#160;&#160;&#160;&#160;&#160;&#160;&#160;&#160;&#160;&#160;&#160;&#160;&#160;&#160;&#160;&#160;LastModifiedById &#160;&#160;&#160;&#160;&#160;&#160;&#160;&#160;&#160;&#160;&#160;&#160;&#160;&#160;&#160;&#160;&#160;&#160;&#160;&#160;&#160;&#160;&#160;&#160;&#160;&#160;&#160;&#160;&#160;&#160;&#160;&#160;&#160;&#160;&#160;&#160;&#160;&#160;</text>
<polygon fill="none" stroke="#99ccff" points="846,-175.5 846,-195 939.75,-195 939.75,-175.5 846,-175.5"/>
<text text-anchor="start" x="849" y="-181.55" font-family="Courier,monospace" font-size="11.00">reference(18)</text>
<polygon fill="none" stroke="#99ccff" points="178.5,-156 178.5,-175.5 846,-175.5 846,-156 178.5,-156"/>
<text text-anchor="start" x="181.5" y="-162.05" font-family="Courier,monospace" font-size="11.00"> &#160;&#160;&#160;&#160;&#160;&#160;&#160;&#160;&#160;&#160;&#160;&#160;&#160;&#160;&#160;&#160;&#160;&#160;&#160;&#160;&#160;&#160;&#160;&#160;&#160;&#160;&#160;&#160;&#160;&#160;&#160;&#160;&#160;&#160;&#160;&#160;&#160;&#160;&#160;&#160;LastViewedDate &#160;&#160;&#160;&#160;&#160;&#160;&#160;&#160;&#160;&#160;&#160;&#160;&#160;&#160;&#160;&#160;&#160;&#160;&#160;&#160;&#160;&#160;&#160;&#160;&#160;&#160;&#160;&#160;&#160;&#160;&#160;&#160;&#160;&#160;&#160;&#160;&#160;&#160;</text>
<polygon fill="none" stroke="#99ccff" points="846,-156 846,-175.5 939.75,-175.5 939.75,-156 846,-156"/>
<text text-anchor="start" x="865.88" y="-162.05" font-family="Courier,monospace" font-size="11.00">datetime</text>
<polygon fill="none" stroke="#99ccff" points="178.5,-136.5 178.5,-156 846,-156 846,-136.5 178.5,-136.5"/>
<text text-anchor="start" x="181.5" y="-142.55" font-family="Courier,monospace" font-size="11.00"> &#160;&#160;&#160;&#160;&#160;&#160;&#160;&#160;&#160;&#160;&#160;&#160;&#160;&#160;&#160;&#160;&#160;&#160;&#160;&#160;&#160;&#160;&#160;&#160;&#160;&#160;&#160;&#160;&#160;&#160;&#160;&#160;&#160;&#160;&#160;&#160;&#160;&#160;&#160;&#160;LastReferencedDate &#160;&#160;&#160;&#160;&#160;&#160;&#160;&#160;&#160;&#160;&#160;&#160;&#160;&#160;&#160;&#160;&#160;&#160;&#160;&#160;&#160;&#160;&#160;&#160;&#160;&#160;&#160;&#160;&#160;&#160;&#160;&#160;&#160;&#160;&#160;&#160;&#160;&#160;</text>
<polygon fill="none" stroke="#99ccff" points="846,-136.5 846,-156 939.75,-156 939.75,-136.5 846,-136.5"/>
<text text-anchor="start" x="865.88" y="-142.55" font-family="Courier,monospace" font-size="11.00">datetime</text>
<polygon fill="none" stroke="#99ccff" points="178.5,-117 178.5,-136.5 846,-136.5 846,-117 178.5,-117"/>
<text text-anchor="start" x="181.5" y="-123.05" font-family="Courier,monospace" font-size="11.00"> &#160;&#160;&#160;&#160;&#160;&#160;&#160;&#160;&#160;&#160;&#160;&#160;&#160;&#160;&#160;&#160;&#160;&#160;&#160;&#160;&#160;&#160;&#160;&#160;&#160;&#160;&#160;&#160;&#160;&#160;&#160;&#160;&#160;&#160;&#160;&#160;&#160;&#160;&#160;&#160;CostBookId &#160;&#160;&#160;&#160;&#160;&#160;&#160;&#160;&#160;&#160;&#160;&#160;&#160;&#160;&#160;&#160;&#160;&#160;&#160;&#160;&#160;&#160;&#160;&#160;&#160;&#160;&#160;&#160;&#160;&#160;&#160;&#160;&#160;&#160;&#160;&#160;&#160;&#160;</text>
<polygon fill="none" stroke="#99ccff" points="846,-117 846,-136.5 939.75,-136.5 939.75,-117 846,-117"/>
<text text-anchor="start" x="849" y="-123.05" font-family="Courier,monospace" font-size="11.00">reference(18)</text>
<polygon fill="none" stroke="#99ccff" points="178.5,-97.5 178.5,-117 846,-117 846,-97.5 178.5,-97.5"/>
<text text-anchor="start" x="181.5" y="-103.55" font-family="Courier,monospace" font-size="11.00"> &#160;&#160;&#160;&#160;&#160;&#160;&#160;&#160;&#160;&#160;&#160;&#160;&#160;&#160;&#160;&#160;&#160;&#160;&#160;&#160;&#160;&#160;&#160;&#160;&#160;&#160;&#160;&#160;&#160;&#160;&#160;&#160;&#160;&#160;&#160;&#160;&#160;&#160;&#160;&#160;ProductId &#160;&#160;&#160;&#160;&#160;&#160;&#160;&#160;&#160;&#160;&#160;&#160;&#160;&#160;&#160;&#160;&#160;&#160;&#160;&#160;&#160;&#160;&#160;&#160;&#160;&#160;&#160;&#160;&#160;&#160;&#160;&#160;&#160;&#160;&#160;&#160;&#160;&#160;</text>
<polygon fill="none" stroke="#99ccff" points="846,-97.5 846,-117 939.75,-117 939.75,-97.5 846,-97.5"/>
<text text-anchor="start" x="849" y="-103.55" font-family="Courier,monospace" font-size="11.00">reference(18)</text>
<polygon fill="none" stroke="#99ccff" points="178.5,-78 178.5,-97.5 846,-97.5 846,-78 178.5,-78"/>
<text text-anchor="start" x="181.5" y="-84.05" font-family="Courier,monospace" font-size="11.00"> &#160;&#160;&#160;&#160;&#160;&#160;&#160;&#160;&#160;&#160;&#160;&#160;&#160;&#160;&#160;&#160;&#160;&#160;&#160;&#160;&#160;&#160;&#160;&#160;&#160;&#160;&#160;&#160;&#160;&#160;&#160;&#160;&#160;&#160;&#160;&#160;&#160;&#160;&#160;&#160;Description &#160;&#160;&#160;&#160;&#160;&#160;&#160;&#160;&#160;&#160;&#160;&#160;&#160;&#160;&#160;&#160;&#160;&#160;&#160;&#160;&#160;&#160;&#160;&#160;&#160;&#160;&#160;&#160;&#160;&#160;&#160;&#160;&#160;&#160;&#160;&#160;&#160;&#160;</text>
<polygon fill="none" stroke="#99ccff" points="846,-78 846,-97.5 939.75,-97.5 939.75,-78 846,-78"/>
<text text-anchor="start" x="849" y="-84.05" font-family="Courier,monospace" font-size="11.00">textarea(255)</text>
<polygon fill="none" stroke="#99ccff" points="178.5,-58.5 178.5,-78 846,-78 846,-58.5 178.5,-58.5"/>
<text text-anchor="start" x="181.5" y="-64.55" font-family="Courier,monospace" font-size="11.00"> &#160;&#160;&#160;&#160;&#160;&#160;&#160;&#160;&#160;&#160;&#160;&#160;&#160;&#160;&#160;&#160;&#160;&#160;&#160;&#160;&#160;&#160;&#160;&#160;&#160;&#160;&#160;&#160;&#160;&#160;&#160;&#160;&#160;&#160;&#160;&#160;&#160;&#160;&#160;&#160;Cost &#160;&#160;&#160;&#160;&#160;&#160;&#160;&#160;&#160;&#160;&#160;&#160;&#160;&#160;&#160;&#160;&#160;&#160;&#160;&#160;&#160;&#160;&#160;&#160;&#160;&#160;&#160;&#160;&#160;&#160;&#160;&#160;&#160;&#160;&#160;&#160;&#160;&#160;</text>
<polygon fill="none" stroke="#99ccff" points="846,-58.5 846,-78 939.75,-78 939.75,-58.5 846,-58.5"/>
<text text-anchor="start" x="865.88" y="-64.55" font-family="Courier,monospace" font-size="11.00">currency</text>
<polygon fill="none" stroke="#99ccff" points="178.5,-39 178.5,-58.5 846,-58.5 846,-39 178.5,-39"/>
<text text-anchor="start" x="181.5" y="-45.05" font-family="Courier,monospace" font-size="11.00"> &#160;&#160;&#160;&#160;&#160;&#160;&#160;&#160;&#160;&#160;&#160;&#160;&#160;&#160;&#160;&#160;&#160;&#160;&#160;&#160;&#160;&#160;&#160;&#160;&#160;&#160;&#160;&#160;&#160;&#160;&#160;&#160;&#160;&#160;&#160;&#160;&#160;&#160;&#160;&#160;EffectiveFrom &#160;&#160;&#160;&#160;&#160;&#160;&#160;&#160;&#160;&#160;&#160;&#160;&#160;&#160;&#160;&#160;&#160;&#160;&#160;&#160;&#160;&#160;&#160;&#160;&#160;&#160;&#160;&#160;&#160;&#160;&#160;&#160;&#160;&#160;&#160;&#160;&#160;&#160;</text>
<polygon fill="none" stroke="#99ccff" points="846,-39 846,-58.5 939.75,-58.5 939.75,-39 846,-39"/>
<text text-anchor="start" x="865.88" y="-45.05" font-family="Courier,monospace" font-size="11.00">datetime</text>
<polygon fill="none" stroke="#99ccff" points="178.5,-19.5 178.5,-39 846,-39 846,-19.5 178.5,-19.5"/>
<text text-anchor="start" x="181.5" y="-25.55" font-family="Courier,monospace" font-size="11.00"> &#160;&#160;&#160;&#160;&#160;&#160;&#160;&#160;&#160;&#160;&#160;&#160;&#160;&#160;&#160;&#160;&#160;&#160;&#160;&#160;&#160;&#160;&#160;&#160;&#160;&#160;&#160;&#160;&#160;&#160;&#160;&#160;&#160;&#160;&#160;&#160;&#160;&#160;&#160;&#160;EffectiveTo &#160;&#160;&#160;&#160;&#160;&#160;&#160;&#160;&#160;&#160;&#160;&#160;&#160;&#160;&#160;&#160;&#160;&#160;&#160;&#160;&#160;&#160;&#160;&#160;&#160;&#160;&#160;&#160;&#160;&#160;&#160;&#160;&#160;&#160;&#160;&#160;&#160;&#160;</text>
<polygon fill="none" stroke="#99ccff" points="846,-19.5 846,-39 939.75,-39 939.75,-19.5 846,-19.5"/>
<text text-anchor="start" x="865.88" y="-25.55" font-family="Courier,monospace" font-size="11.00">datetime</text>
<polygon fill="none" stroke="#99ccff" points="177.5,-18.5 177.5,-274 940.75,-274 940.75,-18.5 177.5,-18.5"/>
</a>
</g>
</g>
<!-- User -->
<g id="node2" class="node">
<title>User</title>
<text text-anchor="middle" x="35" y="-181.55" font-family="Courier,monospace" font-size="11.00">User</text>
</g>
<!-- CostbookEntry&#45;&gt;User -->
<g id="edge1" class="edge">
<title>CostbookEntry:w&#45;&gt;User:e</title>
<path fill="none" stroke="#ff99cc" d="M162.09,-185.25C125.65,-185.25 86.64,-185.25 61.82,-185.25"/>
<polygon fill="#ff99cc" stroke="#ff99cc" points="169.17,-185.25 177.17,-188.85 173.5,-185.25 176.83,-185.25 176.83,-185.25 176.83,-185.25 173.5,-185.25 177.17,-181.65 169.17,-185.25"/>
<ellipse fill="none" stroke="#ff99cc" cx="164.25" cy="-185.25" rx="3.2" ry="3.2"/>
<text text-anchor="middle" x="123.75" y="-187.95" font-family="Monaco" font-size="9.00">LastModifiedBy</text>
</g>
<!-- CostBook -->
<g id="node3" class="node">
<title>CostBook</title>
<text text-anchor="middle" x="35" y="-128.55" font-family="Courier,monospace" font-size="11.00">CostBook</text>
</g>
<!-- CostbookEntry&#45;&gt;CostBook -->
<g id="edge2" class="edge">
<title>CostbookEntry:w&#45;&gt;CostBook:e</title>
<path fill="none" stroke="#ff99cc" d="M161.68,-126.86C129.01,-127.27 94.35,-128.86 69.72,-130.2"/>
<polygon fill="#ff99cc" stroke="#ff99cc" points="169.17,-126.81 177.19,-130.35 173.5,-126.78 176.83,-126.75 176.83,-126.75 176.83,-126.75 173.5,-126.78 177.14,-123.15 169.17,-126.81"/>
<ellipse fill="none" stroke="#ff99cc" cx="164.25" cy="-126.84" rx="3.2" ry="3.2"/>
<text text-anchor="middle" x="123.75" y="-131.87" font-family="Monaco" font-size="9.00">CostBook</text>
</g>
<!-- Product2 -->
<g id="node4" class="node">
<title>Product2</title>
<text text-anchor="middle" x="35" y="-79.55" font-family="Courier,monospace" font-size="11.00">Product2</text>
</g>
<!-- CostbookEntry&#45;&gt;Product2 -->
<g id="edge3" class="edge">
<title>CostbookEntry:w&#45;&gt;Product2:e</title>
<path fill="none" stroke="#ff99cc" d="M162,-106.82C129.02,-105.04 94.35,-98.13 69.75,-92.25"/>
<polygon fill="#ff99cc" stroke="#ff99cc" points="169.17,-107.02 177.06,-110.84 173.5,-107.14 176.83,-107.23 176.83,-107.23 176.83,-107.23 173.5,-107.14 177.27,-103.64 169.17,-107.02"/>
<ellipse fill="none" stroke="#ff99cc" cx="164.25" cy="-106.88" rx="3.2" ry="3.2"/>
<text text-anchor="middle" x="123.75" y="-109.28" font-family="Monaco" font-size="9.00">Product</text>
</g>
</g>
</svg>
