<?xml version="1.0" encoding="UTF-8" standalone="no"?>
<!DOCTYPE svg PUBLIC "-//W3C//DTD SVG 1.1//EN"
 "http://www.w3.org/Graphics/SVG/1.1/DTD/svg11.dtd">
<!-- Generated by graphviz version 12.2.1 (20241206.2353)
 -->
<!-- Title: Salesforce+ ERD Pages: 1 -->
<svg width="933pt" height="243pt"
 viewBox="0.00 0.00 932.75 243.00" xmlns="http://www.w3.org/2000/svg" xmlns:xlink="http://www.w3.org/1999/xlink">
<g id="graph0" class="graph" transform="scale(1 1) rotate(0) translate(4 239)">
<title>Salesforce+ ERD</title>
<polygon fill="#efeffd" stroke="none" points="-4,4 -4,-239 928.75,-239 928.75,4 -4,4"/>
<text text-anchor="middle" x="877.38" y="-5.95" font-family="Courier,monospace" font-size="9.00">Salesforce ERD </text>
<!-- Costbook -->
<g id="node1" class="node">
<title>Costbook</title>
<g id="a_node1"><a xlink:href="#" xlink:title=" Costbook ">
<polygon fill="#ffeeff" stroke="none" points="161.5,-18.5 161.5,-235 924.75,-235 924.75,-18.5 161.5,-18.5"/>
<polygon fill="lightblue" stroke="none" points="162.5,-214.5 162.5,-234 923.75,-234 923.75,-214.5 162.5,-214.5"/>
<polygon fill="none" stroke="#99ccff" points="162.5,-214.5 162.5,-234 923.75,-234 923.75,-214.5 162.5,-214.5"/>
<text text-anchor="start" x="516.12" y="-221.55" font-family="Courier,monospace" font-weight="bold" font-size="11.00">Costbook</text>
<polygon fill="#99ccff" stroke="none" points="162.5,-195 162.5,-214.5 830,-214.5 830,-195 162.5,-195"/>
<polygon fill="none" stroke="#99ccff" points="162.5,-195 162.5,-214.5 830,-214.5 830,-195 162.5,-195"/>
<text text-anchor="start" x="165.5" y="-202.05" font-family="Courier,monospace" font-size="11.00"> &#160;&#160;&#160;&#160;&#160;&#160;&#160;&#160;&#160;&#160;&#160;&#160;&#160;&#160;&#160;&#160;&#160;&#160;&#160;&#160;&#160;&#160;&#160;&#160;&#160;&#160;&#160;&#160;&#160;&#160;&#160;&#160;&#160;&#160;&#160;&#160;&#160;&#160;&#160;&#160;&#160;&#160;</text>
<text text-anchor="start" x="455.75" y="-202.05" font-family="Courier,monospace" font-weight="bold" font-size="11.00">Id</text>
<text text-anchor="start" x="469.25" y="-202.05" font-family="Courier,monospace" font-size="11.00"> &#160;&#160;&#160;&#160;&#160;&#160;&#160;&#160;&#160;&#160;&#160;&#160;&#160;&#160;&#160;&#160;&#160;&#160;&#160;&#160;&#160;&#160;&#160;&#160;&#160;&#160;&#160;&#160;&#160;&#160;&#160;&#160;&#160;&#160;&#160;&#160;&#160;&#160;&#160;</text>
<polygon fill="none" stroke="#99ccff" points="830,-195 830,-214.5 923.75,-214.5 923.75,-195 830,-195"/>
<text text-anchor="start" x="856.62" y="-201.05" font-family="Courier,monospace" font-size="11.00">id(18)</text>
<polygon fill="none" stroke="#99ccff" points="162.5,-175.5 162.5,-195 830,-195 830,-175.5 162.5,-175.5"/>
<text text-anchor="start" x="165.5" y="-181.55" font-family="Courier,monospace" font-size="11.00"> &#160;&#160;&#160;&#160;&#160;&#160;&#160;&#160;&#160;&#160;&#160;&#160;&#160;&#160;&#160;&#160;&#160;&#160;&#160;&#160;&#160;&#160;&#160;&#160;&#160;&#160;&#160;&#160;&#160;&#160;&#160;&#160;&#160;&#160;&#160;&#160;&#160;&#160;&#160;&#160;OwnerId &#160;&#160;&#160;&#160;&#160;&#160;&#160;&#160;&#160;&#160;&#160;&#160;&#160;&#160;&#160;&#160;&#160;&#160;&#160;&#160;&#160;&#160;&#160;&#160;&#160;&#160;&#160;&#160;&#160;&#160;&#160;&#160;&#160;&#160;&#160;&#160;&#160;&#160;</text>
<polygon fill="none" stroke="#99ccff" points="830,-175.5 830,-195 923.75,-195 923.75,-175.5 830,-175.5"/>
<text text-anchor="start" x="833" y="-181.55" font-family="Courier,monospace" font-size="11.00">reference(18)</text>
<polygon fill="none" stroke="#99ccff" points="162.5,-156 162.5,-175.5 830,-175.5 830,-156 162.5,-156"/>
<text text-anchor="start" x="165.5" y="-162.05" font-family="Courier,monospace" font-size="11.00"> &#160;&#160;&#160;&#160;&#160;&#160;&#160;&#160;&#160;&#160;&#160;&#160;&#160;&#160;&#160;&#160;&#160;&#160;&#160;&#160;&#160;&#160;&#160;&#160;&#160;&#160;&#160;&#160;&#160;&#160;&#160;&#160;&#160;&#160;&#160;&#160;&#160;&#160;&#160;&#160;IsDeleted &#160;&#160;&#160;&#160;&#160;&#160;&#160;&#160;&#160;&#160;&#160;&#160;&#160;&#160;&#160;&#160;&#160;&#160;&#160;&#160;&#160;&#160;&#160;&#160;&#160;&#160;&#160;&#160;&#160;&#160;&#160;&#160;&#160;&#160;&#160;&#160;&#160;&#160;</text>
<polygon fill="none" stroke="#99ccff" points="830,-156 830,-175.5 923.75,-175.5 923.75,-156 830,-156"/>
<text text-anchor="start" x="853.25" y="-162.05" font-family="Courier,monospace" font-size="11.00">boolean</text>
<polygon fill="none" stroke="#99ccff" points="162.5,-136.5 162.5,-156 830,-156 830,-136.5 162.5,-136.5"/>
<text text-anchor="start" x="165.5" y="-142.55" font-family="Courier,monospace" font-size="11.00"> &#160;&#160;&#160;&#160;&#160;&#160;&#160;&#160;&#160;&#160;&#160;&#160;&#160;&#160;&#160;&#160;&#160;&#160;&#160;&#160;&#160;&#160;&#160;&#160;&#160;&#160;&#160;&#160;&#160;&#160;&#160;&#160;&#160;&#160;&#160;&#160;&#160;&#160;&#160;&#160;Name &#160;&#160;&#160;&#160;&#160;&#160;&#160;&#160;&#160;&#160;&#160;&#160;&#160;&#160;&#160;&#160;&#160;&#160;&#160;&#160;&#160;&#160;&#160;&#160;&#160;&#160;&#160;&#160;&#160;&#160;&#160;&#160;&#160;&#160;&#160;&#160;&#160;&#160;</text>
<polygon fill="none" stroke="#99ccff" points="830,-136.5 830,-156 923.75,-156 923.75,-136.5 830,-136.5"/>
<text text-anchor="start" x="839.75" y="-142.55" font-family="Courier,monospace" font-size="11.00">string(255)</text>
<polygon fill="none" stroke="#99ccff" points="162.5,-117 162.5,-136.5 830,-136.5 830,-117 162.5,-117"/>
<text text-anchor="start" x="165.5" y="-123.05" font-family="Courier,monospace" font-size="11.00"> &#160;&#160;&#160;&#160;&#160;&#160;&#160;&#160;&#160;&#160;&#160;&#160;&#160;&#160;&#160;&#160;&#160;&#160;&#160;&#160;&#160;&#160;&#160;&#160;&#160;&#160;&#160;&#160;&#160;&#160;&#160;&#160;&#160;&#160;&#160;&#160;&#160;&#160;&#160;&#160;LastModifiedById &#160;&#160;&#160;&#160;&#160;&#160;&#160;&#160;&#160;&#160;&#160;&#160;&#160;&#160;&#160;&#160;&#160;&#160;&#160;&#160;&#160;&#160;&#160;&#160;&#160;&#160;&#160;&#160;&#160;&#160;&#160;&#160;&#160;&#160;&#160;&#160;&#160;&#160;</text>
<polygon fill="none" stroke="#99ccff" points="830,-117 830,-136.5 923.75,-136.5 923.75,-117 830,-117"/>
<text text-anchor="start" x="833" y="-123.05" font-family="Courier,monospace" font-size="11.00">reference(18)</text>
<polygon fill="none" stroke="#99ccff" points="162.5,-97.5 162.5,-117 830,-117 830,-97.5 162.5,-97.5"/>
<text text-anchor="start" x="165.5" y="-103.55" font-family="Courier,monospace" font-size="11.00"> &#160;&#160;&#160;&#160;&#160;&#160;&#160;&#160;&#160;&#160;&#160;&#160;&#160;&#160;&#160;&#160;&#160;&#160;&#160;&#160;&#160;&#160;&#160;&#160;&#160;&#160;&#160;&#160;&#160;&#160;&#160;&#160;&#160;&#160;&#160;&#160;&#160;&#160;&#160;&#160;LastViewedDate &#160;&#160;&#160;&#160;&#160;&#160;&#160;&#160;&#160;&#160;&#160;&#160;&#160;&#160;&#160;&#160;&#160;&#160;&#160;&#160;&#160;&#160;&#160;&#160;&#160;&#160;&#160;&#160;&#160;&#160;&#160;&#160;&#160;&#160;&#160;&#160;&#160;&#160;</text>
<polygon fill="none" stroke="#99ccff" points="830,-97.5 830,-117 923.75,-117 923.75,-97.5 830,-97.5"/>
<text text-anchor="start" x="849.88" y="-103.55" font-family="Courier,monospace" font-size="11.00">datetime</text>
<polygon fill="none" stroke="#99ccff" points="162.5,-78 162.5,-97.5 830,-97.5 830,-78 162.5,-78"/>
<text text-anchor="start" x="165.5" y="-84.05" font-family="Courier,monospace" font-size="11.00"> &#160;&#160;&#160;&#160;&#160;&#160;&#160;&#160;&#160;&#160;&#160;&#160;&#160;&#160;&#160;&#160;&#160;&#160;&#160;&#160;&#160;&#160;&#160;&#160;&#160;&#160;&#160;&#160;&#160;&#160;&#160;&#160;&#160;&#160;&#160;&#160;&#160;&#160;&#160;&#160;LastReferencedDate &#160;&#160;&#160;&#160;&#160;&#160;&#160;&#160;&#160;&#160;&#160;&#160;&#160;&#160;&#160;&#160;&#160;&#160;&#160;&#160;&#160;&#160;&#160;&#160;&#160;&#160;&#160;&#160;&#160;&#160;&#160;&#160;&#160;&#160;&#160;&#160;&#160;&#160;</text>
<polygon fill="none" stroke="#99ccff" points="830,-78 830,-97.5 923.75,-97.5 923.75,-78 830,-78"/>
<text text-anchor="start" x="849.88" y="-84.05" font-family="Courier,monospace" font-size="11.00">datetime</text>
<polygon fill="none" stroke="#99ccff" points="162.5,-58.5 162.5,-78 830,-78 830,-58.5 162.5,-58.5"/>
<text text-anchor="start" x="165.5" y="-64.55" font-family="Courier,monospace" font-size="11.00"> &#160;&#160;&#160;&#160;&#160;&#160;&#160;&#160;&#160;&#160;&#160;&#160;&#160;&#160;&#160;&#160;&#160;&#160;&#160;&#160;&#160;&#160;&#160;&#160;&#160;&#160;&#160;&#160;&#160;&#160;&#160;&#160;&#160;&#160;&#160;&#160;&#160;&#160;&#160;&#160;EffectiveFrom &#160;&#160;&#160;&#160;&#160;&#160;&#160;&#160;&#160;&#160;&#160;&#160;&#160;&#160;&#160;&#160;&#160;&#160;&#160;&#160;&#160;&#160;&#160;&#160;&#160;&#160;&#160;&#160;&#160;&#160;&#160;&#160;&#160;&#160;&#160;&#160;&#160;&#160;</text>
<polygon fill="none" stroke="#99ccff" points="830,-58.5 830,-78 923.75,-78 923.75,-58.5 830,-58.5"/>
<text text-anchor="start" x="849.88" y="-64.55" font-family="Courier,monospace" font-size="11.00">datetime</text>
<polygon fill="none" stroke="#99ccff" points="162.5,-39 162.5,-58.5 830,-58.5 830,-39 162.5,-39"/>
<text text-anchor="start" x="165.5" y="-45.05" font-family="Courier,monospace" font-size="11.00"> &#160;&#160;&#160;&#160;&#160;&#160;&#160;&#160;&#160;&#160;&#160;&#160;&#160;&#160;&#160;&#160;&#160;&#160;&#160;&#160;&#160;&#160;&#160;&#160;&#160;&#160;&#160;&#160;&#160;&#160;&#160;&#160;&#160;&#160;&#160;&#160;&#160;&#160;&#160;&#160;EffectiveTo &#160;&#160;&#160;&#160;&#160;&#160;&#160;&#160;&#160;&#160;&#160;&#160;&#160;&#160;&#160;&#160;&#160;&#160;&#160;&#160;&#160;&#160;&#160;&#160;&#160;&#160;&#160;&#160;&#160;&#160;&#160;&#160;&#160;&#160;&#160;&#160;&#160;&#160;</text>
<polygon fill="none" stroke="#99ccff" points="830,-39 830,-58.5 923.75,-58.5 923.75,-39 830,-39"/>
<text text-anchor="start" x="849.88" y="-45.05" font-family="Courier,monospace" font-size="11.00">datetime</text>
<polygon fill="none" stroke="#99ccff" points="162.5,-19.5 162.5,-39 830,-39 830,-19.5 162.5,-19.5"/>
<text text-anchor="start" x="165.5" y="-25.55" font-family="Courier,monospace" font-size="11.00"> &#160;&#160;&#160;&#160;&#160;&#160;&#160;&#160;&#160;&#160;&#160;&#160;&#160;&#160;&#160;&#160;&#160;&#160;&#160;&#160;&#160;&#160;&#160;&#160;&#160;&#160;&#160;&#160;&#160;&#160;&#160;&#160;&#160;&#160;&#160;&#160;&#160;&#160;&#160;&#160;IsDefault &#160;&#160;&#160;&#160;&#160;&#160;&#160;&#160;&#160;&#160;&#160;&#160;&#160;&#160;&#160;&#160;&#160;&#160;&#160;&#160;&#160;&#160;&#160;&#160;&#160;&#160;&#160;&#160;&#160;&#160;&#160;&#160;&#160;&#160;&#160;&#160;&#160;&#160;</text>
<polygon fill="none" stroke="#99ccff" points="830,-19.5 830,-39 923.75,-39 923.75,-19.5 830,-19.5"/>
<text text-anchor="start" x="853.25" y="-25.55" font-family="Courier,monospace" font-size="11.00">boolean</text>
<polygon fill="none" stroke="#99ccff" points="161.5,-18.5 161.5,-235 924.75,-235 924.75,-18.5 161.5,-18.5"/>
</a>
</g>
</g>
<!-- Group -->
<g id="node2" class="node">
<title>Group</title>
<text text-anchor="middle" x="27" y="-181.05" font-family="Courier,monospace" font-size="11.00">Group</text>
</g>
<!-- Costbook&#45;&gt;Group -->
<g id="edge1" class="edge">
<title>Costbook:w&#45;&gt;Group:e</title>
<path fill="none" stroke="#ff99cc" d="M145.82,-185.24C112.37,-185.2 76.79,-185.03 53.59,-184.9"/>
<polygon fill="#ff99cc" stroke="#ff99cc" points="153.17,-185.24 161.16,-188.85 157.5,-185.25 160.83,-185.25 160.83,-185.25 160.83,-185.25 157.5,-185.25 161.17,-181.65 153.17,-185.24"/>
<ellipse fill="none" stroke="#ff99cc" cx="148.25" cy="-185.24" rx="3.2" ry="3.2"/>
<text text-anchor="middle" x="107.75" y="-187.94" font-family="Monaco" font-size="9.00">Owner</text>
</g>
<!-- User -->
<g id="node3" class="node">
<title>User</title>
<text text-anchor="middle" x="27" y="-128.05" font-family="Courier,monospace" font-size="11.00">User</text>
</g>
<!-- Costbook&#45;&gt;User -->
<g id="edge2" class="edge">
<title>Costbook:w&#45;&gt;User:e</title>
<path fill="none" stroke="#ff99cc" d="M151.72,-172.84C150.86,-167.36 149.84,-161.3 144.5,-157.5 137.16,-152.27 85.98,-142.25 53.94,-136.37"/>
<polygon fill="#ff99cc" stroke="#ff99cc" points="156.34,-178.7 158.47,-187.22 159.02,-182.11 161.09,-184.72 161.09,-184.72 161.09,-184.72 159.02,-182.11 164.12,-182.76 156.34,-178.7"/>
<ellipse fill="none" stroke="#ff99cc" cx="153.3" cy="-174.84" rx="3.2" ry="3.2"/>
<text text-anchor="middle" x="107.75" y="-160.2" font-family="Monaco" font-size="9.00">Owner</text>
</g>
<!-- Costbook&#45;&gt;User -->
<g id="edge3" class="edge">
<title>Costbook:w&#45;&gt;User:e</title>
<path fill="none" stroke="#ff99cc" d="M145.86,-125.56C145.42,-125.54 144.97,-125.52 144.5,-125.5 111.86,-124.3 103.58,-123.14 71,-125.5 65.43,-125.9 59.49,-126.59 53.86,-127.38"/>
<polygon fill="#ff99cc" stroke="#ff99cc" points="153.19,-126.12 160.89,-130.31 157.51,-126.45 160.83,-126.7 160.83,-126.7 160.83,-126.7 157.51,-126.45 161.44,-123.13 153.19,-126.12"/>
<ellipse fill="none" stroke="#ff99cc" cx="148.29" cy="-125.74" rx="3.2" ry="3.2"/>
<text text-anchor="middle" x="107.75" y="-128.2" font-family="Monaco" font-size="9.00">LastModifiedBy</text>
</g>
</g>
</svg>
