<?xml version="1.0" encoding="UTF-8" standalone="no"?>
<!DOCTYPE svg PUBLIC "-//W3C//DTD SVG 1.1//EN"
 "http://www.w3.org/Graphics/SVG/1.1/DTD/svg11.dtd">
<!-- Generated by graphviz version 12.2.1 (20241206.2353)
 -->
<!-- Title: Salesforce+ ERD Pages: 1 -->
<svg width="1151pt" height="321pt"
 viewBox="0.00 0.00 1151.25 321.00" xmlns="http://www.w3.org/2000/svg" xmlns:xlink="http://www.w3.org/1999/xlink">
<g id="graph0" class="graph" transform="scale(1 1) rotate(0) translate(4 317)">
<title>Salesforce+ ERD</title>
<polygon fill="#efeffd" stroke="none" points="-4,4 -4,-317 1147.25,-317 1147.25,4 -4,4"/>
<text text-anchor="middle" x="1095.88" y="-5.95" font-family="Courier,monospace" font-size="9.00">Salesforce ERD </text>
<!-- ExpressionSet -->
<g id="node1" class="node">
<title>ExpressionSet</title>
<g id="a_node1"><a xlink:href="#" xlink:title=" ExpressionSet ">
<polygon fill="#ffeeff" stroke="none" points="326,-18.5 326,-313 1143.25,-313 1143.25,-18.5 326,-18.5"/>
<polygon fill="lightblue" stroke="none" points="327,-292.5 327,-312 1142.25,-312 1142.25,-292.5 327,-292.5"/>
<polygon fill="none" stroke="#99ccff" points="327,-292.5 327,-312 1142.25,-312 1142.25,-292.5 327,-292.5"/>
<text text-anchor="start" x="690.75" y="-299.55" font-family="Courier,monospace" font-weight="bold" font-size="11.00">ExpressionSet</text>
<polygon fill="#99ccff" stroke="none" points="327,-273 327,-292.5 1048.5,-292.5 1048.5,-273 327,-273"/>
<polygon fill="none" stroke="#99ccff" points="327,-273 327,-292.5 1048.5,-292.5 1048.5,-273 327,-273"/>
<text text-anchor="start" x="330" y="-280.05" font-family="Courier,monospace" font-size="11.00"> &#160;&#160;&#160;&#160;&#160;&#160;&#160;&#160;&#160;&#160;&#160;&#160;&#160;&#160;&#160;&#160;&#160;&#160;&#160;&#160;&#160;&#160;&#160;&#160;&#160;&#160;&#160;&#160;&#160;&#160;&#160;&#160;&#160;&#160;&#160;&#160;&#160;&#160;&#160;&#160;&#160;&#160;</text>
<text text-anchor="start" x="620.25" y="-280.05" font-family="Courier,monospace" font-weight="bold" font-size="11.00">Id</text>
<text text-anchor="start" x="633.75" y="-280.05" font-family="Courier,monospace" font-size="11.00"> &#160;&#160;&#160;&#160;&#160;&#160;&#160;&#160;&#160;&#160;&#160;&#160;&#160;&#160;&#160;&#160;&#160;&#160;&#160;&#160;&#160;&#160;&#160;&#160;&#160;&#160;&#160;&#160;&#160;&#160;&#160;&#160;&#160;&#160;&#160;&#160;&#160;&#160;&#160;</text>
<polygon fill="none" stroke="#99ccff" points="1048.5,-273 1048.5,-292.5 1142.25,-292.5 1142.25,-273 1048.5,-273"/>
<text text-anchor="start" x="1075.12" y="-279.05" font-family="Courier,monospace" font-size="11.00">id(18)</text>
<polygon fill="none" stroke="#99ccff" points="327,-253.5 327,-273 1048.5,-273 1048.5,-253.5 327,-253.5"/>
<text text-anchor="start" x="330" y="-259.55" font-family="Courier,monospace" font-size="11.00"> &#160;&#160;&#160;&#160;&#160;&#160;&#160;&#160;&#160;&#160;&#160;&#160;&#160;&#160;&#160;&#160;&#160;&#160;&#160;&#160;&#160;&#160;&#160;&#160;&#160;&#160;&#160;&#160;&#160;&#160;&#160;&#160;&#160;&#160;&#160;&#160;&#160;&#160;&#160;&#160;OwnerId &#160;&#160;&#160;&#160;&#160;&#160;&#160;&#160;&#160;&#160;&#160;&#160;&#160;&#160;&#160;&#160;&#160;&#160;&#160;&#160;&#160;&#160;&#160;&#160;&#160;&#160;&#160;&#160;&#160;&#160;&#160;&#160;&#160;&#160;&#160;&#160;&#160;&#160;</text>
<polygon fill="none" stroke="#99ccff" points="1048.5,-253.5 1048.5,-273 1142.25,-273 1142.25,-253.5 1048.5,-253.5"/>
<text text-anchor="start" x="1051.5" y="-259.55" font-family="Courier,monospace" font-size="11.00">reference(18)</text>
<polygon fill="none" stroke="#99ccff" points="327,-234 327,-253.5 1048.5,-253.5 1048.5,-234 327,-234"/>
<text text-anchor="start" x="330" y="-240.05" font-family="Courier,monospace" font-size="11.00"> &#160;&#160;&#160;&#160;&#160;&#160;&#160;&#160;&#160;&#160;&#160;&#160;&#160;&#160;&#160;&#160;&#160;&#160;&#160;&#160;&#160;&#160;&#160;&#160;&#160;&#160;&#160;&#160;&#160;&#160;&#160;&#160;&#160;&#160;&#160;&#160;&#160;&#160;&#160;&#160;IsDeleted &#160;&#160;&#160;&#160;&#160;&#160;&#160;&#160;&#160;&#160;&#160;&#160;&#160;&#160;&#160;&#160;&#160;&#160;&#160;&#160;&#160;&#160;&#160;&#160;&#160;&#160;&#160;&#160;&#160;&#160;&#160;&#160;&#160;&#160;&#160;&#160;&#160;&#160;</text>
<polygon fill="none" stroke="#99ccff" points="1048.5,-234 1048.5,-253.5 1142.25,-253.5 1142.25,-234 1048.5,-234"/>
<text text-anchor="start" x="1071.75" y="-240.05" font-family="Courier,monospace" font-size="11.00">boolean</text>
<polygon fill="none" stroke="#99ccff" points="327,-214.5 327,-234 1048.5,-234 1048.5,-214.5 327,-214.5"/>
<text text-anchor="start" x="330" y="-220.55" font-family="Courier,monospace" font-size="11.00"> &#160;&#160;&#160;&#160;&#160;&#160;&#160;&#160;&#160;&#160;&#160;&#160;&#160;&#160;&#160;&#160;&#160;&#160;&#160;&#160;&#160;&#160;&#160;&#160;&#160;&#160;&#160;&#160;&#160;&#160;&#160;&#160;&#160;&#160;&#160;&#160;&#160;&#160;&#160;&#160;Name &#160;&#160;&#160;&#160;&#160;&#160;&#160;&#160;&#160;&#160;&#160;&#160;&#160;&#160;&#160;&#160;&#160;&#160;&#160;&#160;&#160;&#160;&#160;&#160;&#160;&#160;&#160;&#160;&#160;&#160;&#160;&#160;&#160;&#160;&#160;&#160;&#160;&#160;</text>
<polygon fill="none" stroke="#99ccff" points="1048.5,-214.5 1048.5,-234 1142.25,-234 1142.25,-214.5 1048.5,-214.5"/>
<text text-anchor="start" x="1058.25" y="-220.55" font-family="Courier,monospace" font-size="11.00">string(255)</text>
<polygon fill="none" stroke="#99ccff" points="327,-195 327,-214.5 1048.5,-214.5 1048.5,-195 327,-195"/>
<text text-anchor="start" x="330" y="-201.05" font-family="Courier,monospace" font-size="11.00"> &#160;&#160;&#160;&#160;&#160;&#160;&#160;&#160;&#160;&#160;&#160;&#160;&#160;&#160;&#160;&#160;&#160;&#160;&#160;&#160;&#160;&#160;&#160;&#160;&#160;&#160;&#160;&#160;&#160;&#160;&#160;&#160;&#160;&#160;&#160;&#160;&#160;&#160;&#160;&#160;LastModifiedById &#160;&#160;&#160;&#160;&#160;&#160;&#160;&#160;&#160;&#160;&#160;&#160;&#160;&#160;&#160;&#160;&#160;&#160;&#160;&#160;&#160;&#160;&#160;&#160;&#160;&#160;&#160;&#160;&#160;&#160;&#160;&#160;&#160;&#160;&#160;&#160;&#160;&#160;</text>
<polygon fill="none" stroke="#99ccff" points="1048.5,-195 1048.5,-214.5 1142.25,-214.5 1142.25,-195 1048.5,-195"/>
<text text-anchor="start" x="1051.5" y="-201.05" font-family="Courier,monospace" font-size="11.00">reference(18)</text>
<polygon fill="none" stroke="#99ccff" points="327,-175.5 327,-195 1048.5,-195 1048.5,-175.5 327,-175.5"/>
<text text-anchor="start" x="330" y="-181.55" font-family="Courier,monospace" font-size="11.00"> &#160;&#160;&#160;&#160;&#160;&#160;&#160;&#160;&#160;&#160;&#160;&#160;&#160;&#160;&#160;&#160;&#160;&#160;&#160;&#160;&#160;&#160;&#160;&#160;&#160;&#160;&#160;&#160;&#160;&#160;&#160;&#160;&#160;&#160;&#160;&#160;&#160;&#160;&#160;&#160;LastViewedDate &#160;&#160;&#160;&#160;&#160;&#160;&#160;&#160;&#160;&#160;&#160;&#160;&#160;&#160;&#160;&#160;&#160;&#160;&#160;&#160;&#160;&#160;&#160;&#160;&#160;&#160;&#160;&#160;&#160;&#160;&#160;&#160;&#160;&#160;&#160;&#160;&#160;&#160;</text>
<polygon fill="none" stroke="#99ccff" points="1048.5,-175.5 1048.5,-195 1142.25,-195 1142.25,-175.5 1048.5,-175.5"/>
<text text-anchor="start" x="1068.38" y="-181.55" font-family="Courier,monospace" font-size="11.00">datetime</text>
<polygon fill="none" stroke="#99ccff" points="327,-156 327,-175.5 1048.5,-175.5 1048.5,-156 327,-156"/>
<text text-anchor="start" x="330" y="-162.05" font-family="Courier,monospace" font-size="11.00"> &#160;&#160;&#160;&#160;&#160;&#160;&#160;&#160;&#160;&#160;&#160;&#160;&#160;&#160;&#160;&#160;&#160;&#160;&#160;&#160;&#160;&#160;&#160;&#160;&#160;&#160;&#160;&#160;&#160;&#160;&#160;&#160;&#160;&#160;&#160;&#160;&#160;&#160;&#160;&#160;LastReferencedDate &#160;&#160;&#160;&#160;&#160;&#160;&#160;&#160;&#160;&#160;&#160;&#160;&#160;&#160;&#160;&#160;&#160;&#160;&#160;&#160;&#160;&#160;&#160;&#160;&#160;&#160;&#160;&#160;&#160;&#160;&#160;&#160;&#160;&#160;&#160;&#160;&#160;&#160;</text>
<polygon fill="none" stroke="#99ccff" points="1048.5,-156 1048.5,-175.5 1142.25,-175.5 1142.25,-156 1048.5,-156"/>
<text text-anchor="start" x="1068.38" y="-162.05" font-family="Courier,monospace" font-size="11.00">datetime</text>
<polygon fill="none" stroke="#99ccff" points="327,-136.5 327,-156 1048.5,-156 1048.5,-136.5 327,-136.5"/>
<text text-anchor="start" x="330" y="-142.55" font-family="Courier,monospace" font-size="11.00"> &#160;&#160;&#160;&#160;&#160;&#160;&#160;&#160;&#160;&#160;&#160;&#160;&#160;&#160;&#160;&#160;&#160;&#160;&#160;&#160;&#160;&#160;&#160;&#160;&#160;&#160;&#160;&#160;&#160;&#160;&#160;&#160;&#160;&#160;&#160;&#160;&#160;&#160;&#160;&#160;Description &#160;&#160;&#160;&#160;&#160;&#160;&#160;&#160;&#160;&#160;&#160;&#160;&#160;&#160;&#160;&#160;&#160;&#160;&#160;&#160;&#160;&#160;&#160;&#160;&#160;&#160;&#160;&#160;&#160;&#160;&#160;&#160;&#160;&#160;&#160;&#160;&#160;&#160;</text>
<polygon fill="none" stroke="#99ccff" points="1048.5,-136.5 1048.5,-156 1142.25,-156 1142.25,-136.5 1048.5,-136.5"/>
<text text-anchor="start" x="1058.25" y="-142.55" font-family="Courier,monospace" font-size="11.00">string(255)</text>
<polygon fill="none" stroke="#99ccff" points="327,-117 327,-136.5 1048.5,-136.5 1048.5,-117 327,-117"/>
<text text-anchor="start" x="330" y="-123.05" font-family="Courier,monospace" font-size="11.00"> &#160;&#160;&#160;&#160;&#160;&#160;&#160;&#160;&#160;&#160;&#160;&#160;&#160;&#160;&#160;&#160;&#160;&#160;&#160;&#160;&#160;&#160;&#160;&#160;&#160;&#160;&#160;&#160;&#160;&#160;&#160;&#160;&#160;&#160;&#160;&#160;&#160;&#160;&#160;&#160;ApiName &#160;&#160;&#160;&#160;&#160;&#160;&#160;&#160;&#160;&#160;&#160;&#160;&#160;&#160;&#160;&#160;&#160;&#160;&#160;&#160;&#160;&#160;&#160;&#160;&#160;&#160;&#160;&#160;&#160;&#160;&#160;&#160;&#160;&#160;&#160;&#160;&#160;&#160;</text>
<polygon fill="none" stroke="#99ccff" points="1048.5,-117 1048.5,-136.5 1142.25,-136.5 1142.25,-117 1048.5,-117"/>
<text text-anchor="start" x="1061.62" y="-123.05" font-family="Courier,monospace" font-size="11.00">string(80)</text>
<polygon fill="none" stroke="#99ccff" points="327,-97.5 327,-117 1048.5,-117 1048.5,-97.5 327,-97.5"/>
<text text-anchor="start" x="330" y="-103.55" font-family="Courier,monospace" font-size="11.00"> &#160;&#160;&#160;&#160;&#160;&#160;&#160;&#160;&#160;&#160;&#160;&#160;&#160;&#160;&#160;&#160;&#160;&#160;&#160;&#160;&#160;&#160;&#160;&#160;&#160;&#160;&#160;&#160;&#160;&#160;&#160;&#160;&#160;&#160;&#160;&#160;&#160;&#160;&#160;&#160;ExpressionSetDefinitionId &#160;&#160;&#160;&#160;&#160;&#160;&#160;&#160;&#160;&#160;&#160;&#160;&#160;&#160;&#160;&#160;&#160;&#160;&#160;&#160;&#160;&#160;&#160;&#160;&#160;&#160;&#160;&#160;&#160;&#160;&#160;&#160;&#160;&#160;&#160;&#160;&#160;&#160;</text>
<polygon fill="none" stroke="#99ccff" points="1048.5,-97.5 1048.5,-117 1142.25,-117 1142.25,-97.5 1048.5,-97.5"/>
<text text-anchor="start" x="1051.5" y="-103.55" font-family="Courier,monospace" font-size="11.00">reference(18)</text>
<polygon fill="none" stroke="#99ccff" points="327,-78 327,-97.5 1048.5,-97.5 1048.5,-78 327,-78"/>
<text text-anchor="start" x="330" y="-84.05" font-family="Courier,monospace" font-size="11.00"> &#160;&#160;&#160;&#160;&#160;&#160;&#160;&#160;&#160;&#160;&#160;&#160;&#160;&#160;&#160;&#160;&#160;&#160;&#160;&#160;&#160;&#160;&#160;&#160;&#160;&#160;&#160;&#160;&#160;&#160;&#160;&#160;&#160;&#160;&#160;&#160;&#160;&#160;&#160;&#160;UsageType &#160;&#160;&#160;&#160;&#160;&#160;&#160;&#160;&#160;&#160;&#160;&#160;&#160;&#160;&#160;&#160;&#160;&#160;&#160;&#160;&#160;&#160;&#160;&#160;&#160;&#160;&#160;&#160;&#160;&#160;&#160;&#160;&#160;&#160;&#160;&#160;&#160;&#160;</text>
<polygon fill="none" stroke="#99ccff" points="1048.5,-78 1048.5,-97.5 1142.25,-97.5 1142.25,-78 1048.5,-78"/>
<text text-anchor="start" x="1051.5" y="-84.05" font-family="Courier,monospace" font-size="11.00">picklist(255)</text>
<polygon fill="none" stroke="#99ccff" points="327,-58.5 327,-78 1048.5,-78 1048.5,-58.5 327,-58.5"/>
<text text-anchor="start" x="330" y="-64.55" font-family="Courier,monospace" font-size="11.00"> &#160;&#160;&#160;&#160;&#160;&#160;&#160;&#160;&#160;&#160;&#160;&#160;&#160;&#160;&#160;&#160;&#160;&#160;&#160;&#160;&#160;&#160;&#160;&#160;&#160;&#160;&#160;&#160;&#160;&#160;&#160;&#160;&#160;&#160;&#160;&#160;&#160;&#160;&#160;&#160;InterfaceSourceType &#160;&#160;&#160;&#160;&#160;&#160;&#160;&#160;&#160;&#160;&#160;&#160;&#160;&#160;&#160;&#160;&#160;&#160;&#160;&#160;&#160;&#160;&#160;&#160;&#160;&#160;&#160;&#160;&#160;&#160;&#160;&#160;&#160;&#160;&#160;&#160;&#160;&#160;</text>
<polygon fill="none" stroke="#99ccff" points="1048.5,-58.5 1048.5,-78 1142.25,-78 1142.25,-58.5 1048.5,-58.5"/>
<text text-anchor="start" x="1051.5" y="-64.55" font-family="Courier,monospace" font-size="11.00">picklist(255)</text>
<polygon fill="none" stroke="#99ccff" points="327,-39 327,-58.5 1048.5,-58.5 1048.5,-39 327,-39"/>
<text text-anchor="start" x="330" y="-45.05" font-family="Courier,monospace" font-size="11.00"> &#160;&#160;&#160;&#160;&#160;&#160;&#160;&#160;&#160;&#160;&#160;&#160;&#160;&#160;&#160;&#160;&#160;&#160;&#160;&#160;&#160;&#160;&#160;&#160;&#160;&#160;&#160;&#160;&#160;&#160;&#160;&#160;&#160;&#160;&#160;&#160;&#160;&#160;&#160;&#160;ExecutionScale &#160;&#160;&#160;&#160;&#160;&#160;&#160;&#160;&#160;&#160;&#160;&#160;&#160;&#160;&#160;&#160;&#160;&#160;&#160;&#160;&#160;&#160;&#160;&#160;&#160;&#160;&#160;&#160;&#160;&#160;&#160;&#160;&#160;&#160;&#160;&#160;&#160;&#160;</text>
<polygon fill="none" stroke="#99ccff" points="1048.5,-39 1048.5,-58.5 1142.25,-58.5 1142.25,-39 1048.5,-39"/>
<text text-anchor="start" x="1051.5" y="-45.05" font-family="Courier,monospace" font-size="11.00">picklist(255)</text>
<polygon fill="none" stroke="#99ccff" points="327,-19.5 327,-39 1048.5,-39 1048.5,-19.5 327,-19.5"/>
<text text-anchor="start" x="330" y="-25.55" font-family="Courier,monospace" font-size="11.00"> &#160;&#160;&#160;&#160;&#160;&#160;&#160;&#160;&#160;&#160;&#160;&#160;&#160;&#160;&#160;&#160;&#160;&#160;&#160;&#160;&#160;&#160;&#160;&#160;&#160;&#160;&#160;&#160;&#160;&#160;&#160;&#160;&#160;&#160;&#160;&#160;&#160;&#160;&#160;&#160;ResourceInitializationType &#160;&#160;&#160;&#160;&#160;&#160;&#160;&#160;&#160;&#160;&#160;&#160;&#160;&#160;&#160;&#160;&#160;&#160;&#160;&#160;&#160;&#160;&#160;&#160;&#160;&#160;&#160;&#160;&#160;&#160;&#160;&#160;&#160;&#160;&#160;&#160;&#160;&#160;</text>
<polygon fill="none" stroke="#99ccff" points="1048.5,-19.5 1048.5,-39 1142.25,-39 1142.25,-19.5 1048.5,-19.5"/>
<text text-anchor="start" x="1051.5" y="-25.55" font-family="Courier,monospace" font-size="11.00">picklist(255)</text>
<polygon fill="none" stroke="#99ccff" points="326,-18.5 326,-313 1143.25,-313 1143.25,-18.5 326,-18.5"/>
</a>
</g>
</g>
<!-- Group -->
<g id="node2" class="node">
<title>Group</title>
<text text-anchor="middle" x="85.62" y="-259.05" font-family="Courier,monospace" font-size="11.00">Group</text>
</g>
<!-- ExpressionSet&#45;&gt;Group -->
<g id="edge1" class="edge">
<title>ExpressionSet:w&#45;&gt;Group:e</title>
<path fill="none" stroke="#ff99cc" d="M310.35,-263.25C236.29,-263.22 153.47,-262.97 112.48,-262.84"/>
<polygon fill="#ff99cc" stroke="#ff99cc" points="317.67,-263.25 325.66,-266.85 322,-263.25 325.33,-263.25 325.33,-263.25 325.33,-263.25 322,-263.25 325.67,-259.65 317.67,-263.25"/>
<ellipse fill="none" stroke="#ff99cc" cx="312.75" cy="-263.25" rx="3.2" ry="3.2"/>
<text text-anchor="middle" x="248.62" y="-265.94" font-family="Monaco" font-size="9.00">Owner</text>
</g>
<!-- User -->
<g id="node3" class="node">
<title>User</title>
<text text-anchor="middle" x="85.62" y="-206.05" font-family="Courier,monospace" font-size="11.00">User</text>
</g>
<!-- ExpressionSet&#45;&gt;User -->
<g id="edge2" class="edge">
<title>ExpressionSet:w&#45;&gt;User:e</title>
<path fill="none" stroke="#ff99cc" d="M316.43,-250.88C315.6,-245.26 314.62,-239.09 309,-235.5 292.7,-225.1 167.37,-215.31 112.37,-211.46"/>
<polygon fill="#ff99cc" stroke="#ff99cc" points="320.9,-256.66 322.95,-265.19 323.55,-260.09 325.59,-262.72 325.59,-262.72 325.59,-262.72 323.55,-260.09 328.64,-260.78 320.9,-256.66"/>
<ellipse fill="none" stroke="#ff99cc" cx="317.89" cy="-252.77" rx="3.2" ry="3.2"/>
<text text-anchor="middle" x="248.62" y="-238.2" font-family="Monaco" font-size="9.00">Owner</text>
</g>
<!-- ExpressionSet&#45;&gt;User -->
<g id="edge3" class="edge">
<title>ExpressionSet:w&#45;&gt;User:e</title>
<path fill="none" stroke="#ff99cc" d="M310.36,-203.56C309.92,-203.54 309.47,-203.52 309,-203.5 255.37,-201.53 241.89,-201.85 188.25,-203.5 162.45,-204.29 133.03,-206.21 112.5,-207.72"/>
<polygon fill="#ff99cc" stroke="#ff99cc" points="317.69,-204.12 325.39,-208.31 322.01,-204.45 325.33,-204.7 325.33,-204.7 325.33,-204.7 322.01,-204.45 325.94,-201.13 317.69,-204.12"/>
<ellipse fill="none" stroke="#ff99cc" cx="312.79" cy="-203.74" rx="3.2" ry="3.2"/>
<text text-anchor="middle" x="248.62" y="-206.2" font-family="Monaco" font-size="9.00">LastModifiedBy</text>
</g>
<!-- ExpressionSetDefinition -->
<g id="node4" class="node">
<title>ExpressionSetDefinition</title>
<text text-anchor="middle" x="85.62" y="-104.05" font-family="Courier,monospace" font-size="11.00">ExpressionSetDefinition</text>
</g>
<!-- ExpressionSet&#45;&gt;ExpressionSetDefinition -->
<g id="edge4" class="edge">
<title>ExpressionSet:w&#45;&gt;ExpressionSetDefinition:e</title>
<path fill="none" stroke="#ff99cc" d="M310.46,-107.25C263.21,-107.27 212.36,-107.38 171.1,-107.49"/>
<polygon fill="#ff99cc" stroke="#ff99cc" points="317.67,-107.25 325.67,-110.85 322,-107.25 325.33,-107.25 325.33,-107.25 325.33,-107.25 322,-107.25 325.66,-103.65 317.67,-107.25"/>
<ellipse fill="none" stroke="#ff99cc" cx="312.75" cy="-107.25" rx="3.2" ry="3.2"/>
<text text-anchor="middle" x="248.62" y="-110.14" font-family="Monaco" font-size="9.00">ExpressionSetDefinition</text>
</g>
</g>
</svg>
