<?xml version="1.0" encoding="UTF-8" standalone="no"?>
<!DOCTYPE svg PUBLIC "-//W3C//DTD SVG 1.1//EN"
 "http://www.w3.org/Graphics/SVG/1.1/DTD/svg11.dtd">
<!-- Generated by graphviz version 12.2.1 (20241206.2353)
 -->
<!-- Title: Salesforce+ ERD Pages: 1 -->
<svg width="933pt" height="282pt"
 viewBox="0.00 0.00 932.75 282.00" xmlns="http://www.w3.org/2000/svg" xmlns:xlink="http://www.w3.org/1999/xlink">
<g id="graph0" class="graph" transform="scale(1 1) rotate(0) translate(4 278)">
<title>Salesforce+ ERD</title>
<polygon fill="#efeffd" stroke="none" points="-4,4 -4,-278 928.75,-278 928.75,4 -4,4"/>
<text text-anchor="middle" x="877.38" y="-5.95" font-family="Courier,monospace" font-size="9.00">Salesforce ERD </text>
<!-- PricingApiExecution -->
<g id="node1" class="node">
<title>PricingApiExecution</title>
<g id="a_node1"><a xlink:href="#" xlink:title=" PricingApiExecution ">
<polygon fill="#ffeeff" stroke="none" points="161.5,-18.5 161.5,-274 924.75,-274 924.75,-18.5 161.5,-18.5"/>
<polygon fill="lightblue" stroke="none" points="162.5,-253.5 162.5,-273 923.75,-273 923.75,-253.5 162.5,-253.5"/>
<polygon fill="none" stroke="#99ccff" points="162.5,-253.5 162.5,-273 923.75,-273 923.75,-253.5 162.5,-253.5"/>
<text text-anchor="start" x="479" y="-260.55" font-family="Courier,monospace" font-weight="bold" font-size="11.00">PricingApiExecution</text>
<polygon fill="#99ccff" stroke="none" points="162.5,-234 162.5,-253.5 830,-253.5 830,-234 162.5,-234"/>
<polygon fill="none" stroke="#99ccff" points="162.5,-234 162.5,-253.5 830,-253.5 830,-234 162.5,-234"/>
<text text-anchor="start" x="165.5" y="-241.05" font-family="Courier,monospace" font-size="11.00"> &#160;&#160;&#160;&#160;&#160;&#160;&#160;&#160;&#160;&#160;&#160;&#160;&#160;&#160;&#160;&#160;&#160;&#160;&#160;&#160;&#160;&#160;&#160;&#160;&#160;&#160;&#160;&#160;&#160;&#160;&#160;&#160;&#160;&#160;&#160;&#160;&#160;&#160;&#160;&#160;&#160;&#160;</text>
<text text-anchor="start" x="455.75" y="-241.05" font-family="Courier,monospace" font-weight="bold" font-size="11.00">Id</text>
<text text-anchor="start" x="469.25" y="-241.05" font-family="Courier,monospace" font-size="11.00"> &#160;&#160;&#160;&#160;&#160;&#160;&#160;&#160;&#160;&#160;&#160;&#160;&#160;&#160;&#160;&#160;&#160;&#160;&#160;&#160;&#160;&#160;&#160;&#160;&#160;&#160;&#160;&#160;&#160;&#160;&#160;&#160;&#160;&#160;&#160;&#160;&#160;&#160;&#160;</text>
<polygon fill="none" stroke="#99ccff" points="830,-234 830,-253.5 923.75,-253.5 923.75,-234 830,-234"/>
<text text-anchor="start" x="856.62" y="-240.05" font-family="Courier,monospace" font-size="11.00">id(18)</text>
<polygon fill="none" stroke="#99ccff" points="162.5,-214.5 162.5,-234 830,-234 830,-214.5 162.5,-214.5"/>
<text text-anchor="start" x="165.5" y="-220.55" font-family="Courier,monospace" font-size="11.00"> &#160;&#160;&#160;&#160;&#160;&#160;&#160;&#160;&#160;&#160;&#160;&#160;&#160;&#160;&#160;&#160;&#160;&#160;&#160;&#160;&#160;&#160;&#160;&#160;&#160;&#160;&#160;&#160;&#160;&#160;&#160;&#160;&#160;&#160;&#160;&#160;&#160;&#160;&#160;&#160;OwnerId &#160;&#160;&#160;&#160;&#160;&#160;&#160;&#160;&#160;&#160;&#160;&#160;&#160;&#160;&#160;&#160;&#160;&#160;&#160;&#160;&#160;&#160;&#160;&#160;&#160;&#160;&#160;&#160;&#160;&#160;&#160;&#160;&#160;&#160;&#160;&#160;&#160;&#160;</text>
<polygon fill="none" stroke="#99ccff" points="830,-214.5 830,-234 923.75,-234 923.75,-214.5 830,-214.5"/>
<text text-anchor="start" x="833" y="-220.55" font-family="Courier,monospace" font-size="11.00">reference(18)</text>
<polygon fill="none" stroke="#99ccff" points="162.5,-195 162.5,-214.5 830,-214.5 830,-195 162.5,-195"/>
<text text-anchor="start" x="165.5" y="-201.05" font-family="Courier,monospace" font-size="11.00"> &#160;&#160;&#160;&#160;&#160;&#160;&#160;&#160;&#160;&#160;&#160;&#160;&#160;&#160;&#160;&#160;&#160;&#160;&#160;&#160;&#160;&#160;&#160;&#160;&#160;&#160;&#160;&#160;&#160;&#160;&#160;&#160;&#160;&#160;&#160;&#160;&#160;&#160;&#160;&#160;IsDeleted &#160;&#160;&#160;&#160;&#160;&#160;&#160;&#160;&#160;&#160;&#160;&#160;&#160;&#160;&#160;&#160;&#160;&#160;&#160;&#160;&#160;&#160;&#160;&#160;&#160;&#160;&#160;&#160;&#160;&#160;&#160;&#160;&#160;&#160;&#160;&#160;&#160;&#160;</text>
<polygon fill="none" stroke="#99ccff" points="830,-195 830,-214.5 923.75,-214.5 923.75,-195 830,-195"/>
<text text-anchor="start" x="853.25" y="-201.05" font-family="Courier,monospace" font-size="11.00">boolean</text>
<polygon fill="none" stroke="#99ccff" points="162.5,-175.5 162.5,-195 830,-195 830,-175.5 162.5,-175.5"/>
<text text-anchor="start" x="165.5" y="-181.55" font-family="Courier,monospace" font-size="11.00"> &#160;&#160;&#160;&#160;&#160;&#160;&#160;&#160;&#160;&#160;&#160;&#160;&#160;&#160;&#160;&#160;&#160;&#160;&#160;&#160;&#160;&#160;&#160;&#160;&#160;&#160;&#160;&#160;&#160;&#160;&#160;&#160;&#160;&#160;&#160;&#160;&#160;&#160;&#160;&#160;Name &#160;&#160;&#160;&#160;&#160;&#160;&#160;&#160;&#160;&#160;&#160;&#160;&#160;&#160;&#160;&#160;&#160;&#160;&#160;&#160;&#160;&#160;&#160;&#160;&#160;&#160;&#160;&#160;&#160;&#160;&#160;&#160;&#160;&#160;&#160;&#160;&#160;&#160;</text>
<polygon fill="none" stroke="#99ccff" points="830,-175.5 830,-195 923.75,-195 923.75,-175.5 830,-175.5"/>
<text text-anchor="start" x="839.75" y="-181.55" font-family="Courier,monospace" font-size="11.00">string(255)</text>
<polygon fill="none" stroke="#99ccff" points="162.5,-156 162.5,-175.5 830,-175.5 830,-156 162.5,-156"/>
<text text-anchor="start" x="165.5" y="-162.05" font-family="Courier,monospace" font-size="11.00"> &#160;&#160;&#160;&#160;&#160;&#160;&#160;&#160;&#160;&#160;&#160;&#160;&#160;&#160;&#160;&#160;&#160;&#160;&#160;&#160;&#160;&#160;&#160;&#160;&#160;&#160;&#160;&#160;&#160;&#160;&#160;&#160;&#160;&#160;&#160;&#160;&#160;&#160;&#160;&#160;LastModifiedById &#160;&#160;&#160;&#160;&#160;&#160;&#160;&#160;&#160;&#160;&#160;&#160;&#160;&#160;&#160;&#160;&#160;&#160;&#160;&#160;&#160;&#160;&#160;&#160;&#160;&#160;&#160;&#160;&#160;&#160;&#160;&#160;&#160;&#160;&#160;&#160;&#160;&#160;</text>
<polygon fill="none" stroke="#99ccff" points="830,-156 830,-175.5 923.75,-175.5 923.75,-156 830,-156"/>
<text text-anchor="start" x="833" y="-162.05" font-family="Courier,monospace" font-size="11.00">reference(18)</text>
<polygon fill="none" stroke="#99ccff" points="162.5,-136.5 162.5,-156 830,-156 830,-136.5 162.5,-136.5"/>
<text text-anchor="start" x="165.5" y="-142.55" font-family="Courier,monospace" font-size="11.00"> &#160;&#160;&#160;&#160;&#160;&#160;&#160;&#160;&#160;&#160;&#160;&#160;&#160;&#160;&#160;&#160;&#160;&#160;&#160;&#160;&#160;&#160;&#160;&#160;&#160;&#160;&#160;&#160;&#160;&#160;&#160;&#160;&#160;&#160;&#160;&#160;&#160;&#160;&#160;&#160;LastViewedDate &#160;&#160;&#160;&#160;&#160;&#160;&#160;&#160;&#160;&#160;&#160;&#160;&#160;&#160;&#160;&#160;&#160;&#160;&#160;&#160;&#160;&#160;&#160;&#160;&#160;&#160;&#160;&#160;&#160;&#160;&#160;&#160;&#160;&#160;&#160;&#160;&#160;&#160;</text>
<polygon fill="none" stroke="#99ccff" points="830,-136.5 830,-156 923.75,-156 923.75,-136.5 830,-136.5"/>
<text text-anchor="start" x="849.88" y="-142.55" font-family="Courier,monospace" font-size="11.00">datetime</text>
<polygon fill="none" stroke="#99ccff" points="162.5,-117 162.5,-136.5 830,-136.5 830,-117 162.5,-117"/>
<text text-anchor="start" x="165.5" y="-123.05" font-family="Courier,monospace" font-size="11.00"> &#160;&#160;&#160;&#160;&#160;&#160;&#160;&#160;&#160;&#160;&#160;&#160;&#160;&#160;&#160;&#160;&#160;&#160;&#160;&#160;&#160;&#160;&#160;&#160;&#160;&#160;&#160;&#160;&#160;&#160;&#160;&#160;&#160;&#160;&#160;&#160;&#160;&#160;&#160;&#160;LastReferencedDate &#160;&#160;&#160;&#160;&#160;&#160;&#160;&#160;&#160;&#160;&#160;&#160;&#160;&#160;&#160;&#160;&#160;&#160;&#160;&#160;&#160;&#160;&#160;&#160;&#160;&#160;&#160;&#160;&#160;&#160;&#160;&#160;&#160;&#160;&#160;&#160;&#160;&#160;</text>
<polygon fill="none" stroke="#99ccff" points="830,-117 830,-136.5 923.75,-136.5 923.75,-117 830,-117"/>
<text text-anchor="start" x="849.88" y="-123.05" font-family="Courier,monospace" font-size="11.00">datetime</text>
<polygon fill="none" stroke="#99ccff" points="162.5,-97.5 162.5,-117 830,-117 830,-97.5 162.5,-97.5"/>
<text text-anchor="start" x="165.5" y="-103.55" font-family="Courier,monospace" font-size="11.00"> &#160;&#160;&#160;&#160;&#160;&#160;&#160;&#160;&#160;&#160;&#160;&#160;&#160;&#160;&#160;&#160;&#160;&#160;&#160;&#160;&#160;&#160;&#160;&#160;&#160;&#160;&#160;&#160;&#160;&#160;&#160;&#160;&#160;&#160;&#160;&#160;&#160;&#160;&#160;&#160;ExecutionKey &#160;&#160;&#160;&#160;&#160;&#160;&#160;&#160;&#160;&#160;&#160;&#160;&#160;&#160;&#160;&#160;&#160;&#160;&#160;&#160;&#160;&#160;&#160;&#160;&#160;&#160;&#160;&#160;&#160;&#160;&#160;&#160;&#160;&#160;&#160;&#160;&#160;&#160;</text>
<polygon fill="none" stroke="#99ccff" points="830,-97.5 830,-117 923.75,-117 923.75,-97.5 830,-97.5"/>
<text text-anchor="start" x="839.75" y="-103.55" font-family="Courier,monospace" font-size="11.00">string(100)</text>
<polygon fill="none" stroke="#99ccff" points="162.5,-78 162.5,-97.5 830,-97.5 830,-78 162.5,-78"/>
<text text-anchor="start" x="165.5" y="-84.05" font-family="Courier,monospace" font-size="11.00"> &#160;&#160;&#160;&#160;&#160;&#160;&#160;&#160;&#160;&#160;&#160;&#160;&#160;&#160;&#160;&#160;&#160;&#160;&#160;&#160;&#160;&#160;&#160;&#160;&#160;&#160;&#160;&#160;&#160;&#160;&#160;&#160;&#160;&#160;&#160;&#160;&#160;&#160;&#160;&#160;Status &#160;&#160;&#160;&#160;&#160;&#160;&#160;&#160;&#160;&#160;&#160;&#160;&#160;&#160;&#160;&#160;&#160;&#160;&#160;&#160;&#160;&#160;&#160;&#160;&#160;&#160;&#160;&#160;&#160;&#160;&#160;&#160;&#160;&#160;&#160;&#160;&#160;&#160;</text>
<polygon fill="none" stroke="#99ccff" points="830,-78 830,-97.5 923.75,-97.5 923.75,-78 830,-78"/>
<text text-anchor="start" x="836.38" y="-84.05" font-family="Courier,monospace" font-size="11.00">picklist(20)</text>
<polygon fill="none" stroke="#99ccff" points="162.5,-58.5 162.5,-78 830,-78 830,-58.5 162.5,-58.5"/>
<text text-anchor="start" x="165.5" y="-64.55" font-family="Courier,monospace" font-size="11.00"> &#160;&#160;&#160;&#160;&#160;&#160;&#160;&#160;&#160;&#160;&#160;&#160;&#160;&#160;&#160;&#160;&#160;&#160;&#160;&#160;&#160;&#160;&#160;&#160;&#160;&#160;&#160;&#160;&#160;&#160;&#160;&#160;&#160;&#160;&#160;&#160;&#160;&#160;&#160;&#160;ReferenceKey &#160;&#160;&#160;&#160;&#160;&#160;&#160;&#160;&#160;&#160;&#160;&#160;&#160;&#160;&#160;&#160;&#160;&#160;&#160;&#160;&#160;&#160;&#160;&#160;&#160;&#160;&#160;&#160;&#160;&#160;&#160;&#160;&#160;&#160;&#160;&#160;&#160;&#160;</text>
<polygon fill="none" stroke="#99ccff" points="830,-58.5 830,-78 923.75,-78 923.75,-58.5 830,-58.5"/>
<text text-anchor="start" x="839.75" y="-64.55" font-family="Courier,monospace" font-size="11.00">string(255)</text>
<polygon fill="none" stroke="#99ccff" points="162.5,-39 162.5,-58.5 830,-58.5 830,-39 162.5,-39"/>
<text text-anchor="start" x="165.5" y="-45.05" font-family="Courier,monospace" font-size="11.00"> &#160;&#160;&#160;&#160;&#160;&#160;&#160;&#160;&#160;&#160;&#160;&#160;&#160;&#160;&#160;&#160;&#160;&#160;&#160;&#160;&#160;&#160;&#160;&#160;&#160;&#160;&#160;&#160;&#160;&#160;&#160;&#160;&#160;&#160;&#160;&#160;&#160;&#160;&#160;&#160;ApiEndpoint &#160;&#160;&#160;&#160;&#160;&#160;&#160;&#160;&#160;&#160;&#160;&#160;&#160;&#160;&#160;&#160;&#160;&#160;&#160;&#160;&#160;&#160;&#160;&#160;&#160;&#160;&#160;&#160;&#160;&#160;&#160;&#160;&#160;&#160;&#160;&#160;&#160;&#160;</text>
<polygon fill="none" stroke="#99ccff" points="830,-39 830,-58.5 923.75,-58.5 923.75,-39 830,-39"/>
<text text-anchor="start" x="839.75" y="-45.05" font-family="Courier,monospace" font-size="11.00">string(255)</text>
<polygon fill="none" stroke="#99ccff" points="162.5,-19.5 162.5,-39 830,-39 830,-19.5 162.5,-19.5"/>
<text text-anchor="start" x="165.5" y="-25.55" font-family="Courier,monospace" font-size="11.00"> &#160;&#160;&#160;&#160;&#160;&#160;&#160;&#160;&#160;&#160;&#160;&#160;&#160;&#160;&#160;&#160;&#160;&#160;&#160;&#160;&#160;&#160;&#160;&#160;&#160;&#160;&#160;&#160;&#160;&#160;&#160;&#160;&#160;&#160;&#160;&#160;&#160;&#160;&#160;&#160;ApiType &#160;&#160;&#160;&#160;&#160;&#160;&#160;&#160;&#160;&#160;&#160;&#160;&#160;&#160;&#160;&#160;&#160;&#160;&#160;&#160;&#160;&#160;&#160;&#160;&#160;&#160;&#160;&#160;&#160;&#160;&#160;&#160;&#160;&#160;&#160;&#160;&#160;&#160;</text>
<polygon fill="none" stroke="#99ccff" points="830,-19.5 830,-39 923.75,-39 923.75,-19.5 830,-19.5"/>
<text text-anchor="start" x="836.38" y="-25.55" font-family="Courier,monospace" font-size="11.00">picklist(20)</text>
<polygon fill="none" stroke="#99ccff" points="161.5,-18.5 161.5,-274 924.75,-274 924.75,-18.5 161.5,-18.5"/>
</a>
</g>
</g>
<!-- Group -->
<g id="node2" class="node">
<title>Group</title>
<text text-anchor="middle" x="27" y="-220.55" font-family="Courier,monospace" font-size="11.00">Group</text>
</g>
<!-- PricingApiExecution&#45;&gt;Group -->
<g id="edge1" class="edge">
<title>PricingApiExecution:w&#45;&gt;Group:e</title>
<path fill="none" stroke="#ff99cc" d="M145.82,-224.25C112.37,-224.25 76.79,-224.25 53.59,-224.25"/>
<polygon fill="#ff99cc" stroke="#ff99cc" points="153.17,-224.25 161.17,-227.85 157.5,-224.25 160.83,-224.25 160.83,-224.25 160.83,-224.25 157.5,-224.25 161.17,-220.65 153.17,-224.25"/>
<ellipse fill="none" stroke="#ff99cc" cx="148.25" cy="-224.25" rx="3.2" ry="3.2"/>
<text text-anchor="middle" x="107.75" y="-226.95" font-family="Monaco" font-size="9.00">Owner</text>
</g>
<!-- User -->
<g id="node3" class="node">
<title>User</title>
<text text-anchor="middle" x="27" y="-167.55" font-family="Courier,monospace" font-size="11.00">User</text>
</g>
<!-- PricingApiExecution&#45;&gt;User -->
<g id="edge2" class="edge">
<title>PricingApiExecution:w&#45;&gt;User:e</title>
<path fill="none" stroke="#ff99cc" d="M151.74,-212.06C150.84,-206.68 149.78,-200.73 144.5,-197 137.14,-191.8 85.97,-181.77 53.94,-175.88"/>
<polygon fill="#ff99cc" stroke="#ff99cc" points="156.29,-217.75 158.48,-226.24 159,-221.13 161.08,-223.73 161.08,-223.73 161.08,-223.73 159,-221.13 164.1,-221.74 156.29,-217.75"/>
<ellipse fill="none" stroke="#ff99cc" cx="153.21" cy="-213.91" rx="3.2" ry="3.2"/>
<text text-anchor="middle" x="107.75" y="-199.7" font-family="Monaco" font-size="9.00">Owner</text>
</g>
<!-- PricingApiExecution&#45;&gt;User -->
<g id="edge3" class="edge">
<title>PricingApiExecution:w&#45;&gt;User:e</title>
<path fill="none" stroke="#ff99cc" d="M145.85,-165.04C145.42,-165.02 144.97,-165.01 144.5,-165 111.84,-164.28 103.58,-162.64 71,-165 65.43,-165.4 59.49,-166.09 53.86,-166.88"/>
<polygon fill="#ff99cc" stroke="#ff99cc" points="153.17,-165.37 161,-169.33 157.5,-165.57 160.83,-165.72 160.83,-165.72 160.83,-165.72 157.5,-165.57 161.33,-162.14 153.17,-165.37"/>
<ellipse fill="none" stroke="#ff99cc" cx="148.26" cy="-165.15" rx="3.2" ry="3.2"/>
<text text-anchor="middle" x="107.75" y="-167.7" font-family="Monaco" font-size="9.00">LastModifiedBy</text>
</g>
</g>
</svg>
