<?xml version="1.0" encoding="UTF-8" standalone="no"?>
<!DOCTYPE svg PUBLIC "-//W3C//DTD SVG 1.1//EN"
 "http://www.w3.org/Graphics/SVG/1.1/DTD/svg11.dtd">
<!-- Generated by graphviz version 12.2.1 (20241206.2353)
 -->
<!-- Title: Salesforce+ ERD Pages: 1 -->
<svg width="1145pt" height="438pt"
 viewBox="0.00 0.00 1144.50 438.00" xmlns="http://www.w3.org/2000/svg" xmlns:xlink="http://www.w3.org/1999/xlink">
<g id="graph0" class="graph" transform="scale(1 1) rotate(0) translate(4 434)">
<title>Salesforce+ ERD</title>
<polygon fill="#efeffd" stroke="none" points="-4,4 -4,-434 1140.5,-434 1140.5,4 -4,4"/>
<text text-anchor="middle" x="1089.12" y="-5.95" font-family="Courier,monospace" font-size="9.00">Salesforce ERD </text>
<!-- PriceAdjustmentTier -->
<g id="node1" class="node">
<title>PriceAdjustmentTier</title>
<g id="a_node1"><a xlink:href="#" xlink:title=" PriceAdjustmentTier ">
<polygon fill="#ffeeff" stroke="none" points="326,-18.5 326,-430 1136.5,-430 1136.5,-18.5 326,-18.5"/>
<polygon fill="lightblue" stroke="none" points="327,-409.5 327,-429 1135.5,-429 1135.5,-409.5 327,-409.5"/>
<polygon fill="none" stroke="#99ccff" points="327,-409.5 327,-429 1135.5,-429 1135.5,-409.5 327,-409.5"/>
<text text-anchor="start" x="667.12" y="-416.55" font-family="Courier,monospace" font-weight="bold" font-size="11.00">PriceAdjustmentTier</text>
<polygon fill="#99ccff" stroke="none" points="327,-390 327,-409.5 1041.75,-409.5 1041.75,-390 327,-390"/>
<polygon fill="none" stroke="#99ccff" points="327,-390 327,-409.5 1041.75,-409.5 1041.75,-390 327,-390"/>
<text text-anchor="start" x="330" y="-397.05" font-family="Courier,monospace" font-size="11.00"> &#160;&#160;&#160;&#160;&#160;&#160;&#160;&#160;&#160;&#160;&#160;&#160;&#160;&#160;&#160;&#160;&#160;&#160;&#160;&#160;&#160;&#160;&#160;&#160;&#160;&#160;&#160;&#160;&#160;&#160;&#160;&#160;&#160;&#160;&#160;&#160;&#160;&#160;&#160;&#160;&#160;&#160;</text>
<text text-anchor="start" x="620.25" y="-397.05" font-family="Courier,monospace" font-weight="bold" font-size="11.00">Id</text>
<text text-anchor="start" x="633.75" y="-397.05" font-family="Courier,monospace" font-size="11.00"> &#160;&#160;&#160;&#160;&#160;&#160;&#160;&#160;&#160;&#160;&#160;&#160;&#160;&#160;&#160;&#160;&#160;&#160;&#160;&#160;&#160;&#160;&#160;&#160;&#160;&#160;&#160;&#160;&#160;&#160;&#160;&#160;&#160;&#160;&#160;&#160;&#160;&#160;&#160;</text>
<polygon fill="none" stroke="#99ccff" points="1041.75,-390 1041.75,-409.5 1135.5,-409.5 1135.5,-390 1041.75,-390"/>
<text text-anchor="start" x="1068.38" y="-396.05" font-family="Courier,monospace" font-size="11.00">id(18)</text>
<polygon fill="none" stroke="#99ccff" points="327,-370.5 327,-390 1041.75,-390 1041.75,-370.5 327,-370.5"/>
<text text-anchor="start" x="330" y="-376.55" font-family="Courier,monospace" font-size="11.00"> &#160;&#160;&#160;&#160;&#160;&#160;&#160;&#160;&#160;&#160;&#160;&#160;&#160;&#160;&#160;&#160;&#160;&#160;&#160;&#160;&#160;&#160;&#160;&#160;&#160;&#160;&#160;&#160;&#160;&#160;&#160;&#160;&#160;&#160;&#160;&#160;&#160;&#160;&#160;&#160;IsDeleted &#160;&#160;&#160;&#160;&#160;&#160;&#160;&#160;&#160;&#160;&#160;&#160;&#160;&#160;&#160;&#160;&#160;&#160;&#160;&#160;&#160;&#160;&#160;&#160;&#160;&#160;&#160;&#160;&#160;&#160;&#160;&#160;&#160;&#160;&#160;&#160;&#160;&#160;</text>
<polygon fill="none" stroke="#99ccff" points="1041.75,-370.5 1041.75,-390 1135.5,-390 1135.5,-370.5 1041.75,-370.5"/>
<text text-anchor="start" x="1065" y="-376.55" font-family="Courier,monospace" font-size="11.00">boolean</text>
<polygon fill="none" stroke="#99ccff" points="327,-351 327,-370.5 1041.75,-370.5 1041.75,-351 327,-351"/>
<text text-anchor="start" x="330" y="-357.05" font-family="Courier,monospace" font-size="11.00"> &#160;&#160;&#160;&#160;&#160;&#160;&#160;&#160;&#160;&#160;&#160;&#160;&#160;&#160;&#160;&#160;&#160;&#160;&#160;&#160;&#160;&#160;&#160;&#160;&#160;&#160;&#160;&#160;&#160;&#160;&#160;&#160;&#160;&#160;&#160;&#160;&#160;&#160;&#160;&#160;Name &#160;&#160;&#160;&#160;&#160;&#160;&#160;&#160;&#160;&#160;&#160;&#160;&#160;&#160;&#160;&#160;&#160;&#160;&#160;&#160;&#160;&#160;&#160;&#160;&#160;&#160;&#160;&#160;&#160;&#160;&#160;&#160;&#160;&#160;&#160;&#160;&#160;&#160;</text>
<polygon fill="none" stroke="#99ccff" points="1041.75,-351 1041.75,-370.5 1135.5,-370.5 1135.5,-351 1041.75,-351"/>
<text text-anchor="start" x="1051.5" y="-357.05" font-family="Courier,monospace" font-size="11.00">string(255)</text>
<polygon fill="none" stroke="#99ccff" points="327,-331.5 327,-351 1041.75,-351 1041.75,-331.5 327,-331.5"/>
<text text-anchor="start" x="330" y="-337.55" font-family="Courier,monospace" font-size="11.00"> &#160;&#160;&#160;&#160;&#160;&#160;&#160;&#160;&#160;&#160;&#160;&#160;&#160;&#160;&#160;&#160;&#160;&#160;&#160;&#160;&#160;&#160;&#160;&#160;&#160;&#160;&#160;&#160;&#160;&#160;&#160;&#160;&#160;&#160;&#160;&#160;&#160;&#160;&#160;&#160;LastModifiedById &#160;&#160;&#160;&#160;&#160;&#160;&#160;&#160;&#160;&#160;&#160;&#160;&#160;&#160;&#160;&#160;&#160;&#160;&#160;&#160;&#160;&#160;&#160;&#160;&#160;&#160;&#160;&#160;&#160;&#160;&#160;&#160;&#160;&#160;&#160;&#160;&#160;&#160;</text>
<polygon fill="none" stroke="#99ccff" points="1041.75,-331.5 1041.75,-351 1135.5,-351 1135.5,-331.5 1041.75,-331.5"/>
<text text-anchor="start" x="1044.75" y="-337.55" font-family="Courier,monospace" font-size="11.00">reference(18)</text>
<polygon fill="none" stroke="#99ccff" points="327,-312 327,-331.5 1041.75,-331.5 1041.75,-312 327,-312"/>
<text text-anchor="start" x="330" y="-318.05" font-family="Courier,monospace" font-size="11.00"> &#160;&#160;&#160;&#160;&#160;&#160;&#160;&#160;&#160;&#160;&#160;&#160;&#160;&#160;&#160;&#160;&#160;&#160;&#160;&#160;&#160;&#160;&#160;&#160;&#160;&#160;&#160;&#160;&#160;&#160;&#160;&#160;&#160;&#160;&#160;&#160;&#160;&#160;&#160;&#160;LastViewedDate &#160;&#160;&#160;&#160;&#160;&#160;&#160;&#160;&#160;&#160;&#160;&#160;&#160;&#160;&#160;&#160;&#160;&#160;&#160;&#160;&#160;&#160;&#160;&#160;&#160;&#160;&#160;&#160;&#160;&#160;&#160;&#160;&#160;&#160;&#160;&#160;&#160;&#160;</text>
<polygon fill="none" stroke="#99ccff" points="1041.75,-312 1041.75,-331.5 1135.5,-331.5 1135.5,-312 1041.75,-312"/>
<text text-anchor="start" x="1061.62" y="-318.05" font-family="Courier,monospace" font-size="11.00">datetime</text>
<polygon fill="none" stroke="#99ccff" points="327,-292.5 327,-312 1041.75,-312 1041.75,-292.5 327,-292.5"/>
<text text-anchor="start" x="330" y="-298.55" font-family="Courier,monospace" font-size="11.00"> &#160;&#160;&#160;&#160;&#160;&#160;&#160;&#160;&#160;&#160;&#160;&#160;&#160;&#160;&#160;&#160;&#160;&#160;&#160;&#160;&#160;&#160;&#160;&#160;&#160;&#160;&#160;&#160;&#160;&#160;&#160;&#160;&#160;&#160;&#160;&#160;&#160;&#160;&#160;&#160;LastReferencedDate &#160;&#160;&#160;&#160;&#160;&#160;&#160;&#160;&#160;&#160;&#160;&#160;&#160;&#160;&#160;&#160;&#160;&#160;&#160;&#160;&#160;&#160;&#160;&#160;&#160;&#160;&#160;&#160;&#160;&#160;&#160;&#160;&#160;&#160;&#160;&#160;&#160;&#160;</text>
<polygon fill="none" stroke="#99ccff" points="1041.75,-292.5 1041.75,-312 1135.5,-312 1135.5,-292.5 1041.75,-292.5"/>
<text text-anchor="start" x="1061.62" y="-298.55" font-family="Courier,monospace" font-size="11.00">datetime</text>
<polygon fill="none" stroke="#99ccff" points="327,-273 327,-292.5 1041.75,-292.5 1041.75,-273 327,-273"/>
<text text-anchor="start" x="330" y="-279.05" font-family="Courier,monospace" font-size="11.00"> &#160;&#160;&#160;&#160;&#160;&#160;&#160;&#160;&#160;&#160;&#160;&#160;&#160;&#160;&#160;&#160;&#160;&#160;&#160;&#160;&#160;&#160;&#160;&#160;&#160;&#160;&#160;&#160;&#160;&#160;&#160;&#160;&#160;&#160;&#160;&#160;&#160;&#160;&#160;&#160;PriceAdjustmentScheduleId &#160;&#160;&#160;&#160;&#160;&#160;&#160;&#160;&#160;&#160;&#160;&#160;&#160;&#160;&#160;&#160;&#160;&#160;&#160;&#160;&#160;&#160;&#160;&#160;&#160;&#160;&#160;&#160;&#160;&#160;&#160;&#160;&#160;&#160;&#160;&#160;&#160;&#160;</text>
<polygon fill="none" stroke="#99ccff" points="1041.75,-273 1041.75,-292.5 1135.5,-292.5 1135.5,-273 1041.75,-273"/>
<text text-anchor="start" x="1044.75" y="-279.05" font-family="Courier,monospace" font-size="11.00">reference(18)</text>
<polygon fill="none" stroke="#99ccff" points="327,-253.5 327,-273 1041.75,-273 1041.75,-253.5 327,-253.5"/>
<text text-anchor="start" x="330" y="-259.55" font-family="Courier,monospace" font-size="11.00"> &#160;&#160;&#160;&#160;&#160;&#160;&#160;&#160;&#160;&#160;&#160;&#160;&#160;&#160;&#160;&#160;&#160;&#160;&#160;&#160;&#160;&#160;&#160;&#160;&#160;&#160;&#160;&#160;&#160;&#160;&#160;&#160;&#160;&#160;&#160;&#160;&#160;&#160;&#160;&#160;LowerBound &#160;&#160;&#160;&#160;&#160;&#160;&#160;&#160;&#160;&#160;&#160;&#160;&#160;&#160;&#160;&#160;&#160;&#160;&#160;&#160;&#160;&#160;&#160;&#160;&#160;&#160;&#160;&#160;&#160;&#160;&#160;&#160;&#160;&#160;&#160;&#160;&#160;&#160;</text>
<polygon fill="none" stroke="#99ccff" points="1041.75,-253.5 1041.75,-273 1135.5,-273 1135.5,-253.5 1041.75,-253.5"/>
<text text-anchor="start" x="1068.38" y="-259.55" font-family="Courier,monospace" font-size="11.00">double</text>
<polygon fill="none" stroke="#99ccff" points="327,-234 327,-253.5 1041.75,-253.5 1041.75,-234 327,-234"/>
<text text-anchor="start" x="330" y="-240.05" font-family="Courier,monospace" font-size="11.00"> &#160;&#160;&#160;&#160;&#160;&#160;&#160;&#160;&#160;&#160;&#160;&#160;&#160;&#160;&#160;&#160;&#160;&#160;&#160;&#160;&#160;&#160;&#160;&#160;&#160;&#160;&#160;&#160;&#160;&#160;&#160;&#160;&#160;&#160;&#160;&#160;&#160;&#160;&#160;&#160;UpperBound &#160;&#160;&#160;&#160;&#160;&#160;&#160;&#160;&#160;&#160;&#160;&#160;&#160;&#160;&#160;&#160;&#160;&#160;&#160;&#160;&#160;&#160;&#160;&#160;&#160;&#160;&#160;&#160;&#160;&#160;&#160;&#160;&#160;&#160;&#160;&#160;&#160;&#160;</text>
<polygon fill="none" stroke="#99ccff" points="1041.75,-234 1041.75,-253.5 1135.5,-253.5 1135.5,-234 1041.75,-234"/>
<text text-anchor="start" x="1068.38" y="-240.05" font-family="Courier,monospace" font-size="11.00">double</text>
<polygon fill="none" stroke="#99ccff" points="327,-214.5 327,-234 1041.75,-234 1041.75,-214.5 327,-214.5"/>
<text text-anchor="start" x="330" y="-220.55" font-family="Courier,monospace" font-size="11.00"> &#160;&#160;&#160;&#160;&#160;&#160;&#160;&#160;&#160;&#160;&#160;&#160;&#160;&#160;&#160;&#160;&#160;&#160;&#160;&#160;&#160;&#160;&#160;&#160;&#160;&#160;&#160;&#160;&#160;&#160;&#160;&#160;&#160;&#160;&#160;&#160;&#160;&#160;&#160;&#160;TierType &#160;&#160;&#160;&#160;&#160;&#160;&#160;&#160;&#160;&#160;&#160;&#160;&#160;&#160;&#160;&#160;&#160;&#160;&#160;&#160;&#160;&#160;&#160;&#160;&#160;&#160;&#160;&#160;&#160;&#160;&#160;&#160;&#160;&#160;&#160;&#160;&#160;&#160;</text>
<polygon fill="none" stroke="#99ccff" points="1041.75,-214.5 1041.75,-234 1135.5,-234 1135.5,-214.5 1041.75,-214.5"/>
<text text-anchor="start" x="1044.75" y="-220.55" font-family="Courier,monospace" font-size="11.00">picklist(255)</text>
<polygon fill="none" stroke="#99ccff" points="327,-195 327,-214.5 1041.75,-214.5 1041.75,-195 327,-195"/>
<text text-anchor="start" x="330" y="-201.05" font-family="Courier,monospace" font-size="11.00"> &#160;&#160;&#160;&#160;&#160;&#160;&#160;&#160;&#160;&#160;&#160;&#160;&#160;&#160;&#160;&#160;&#160;&#160;&#160;&#160;&#160;&#160;&#160;&#160;&#160;&#160;&#160;&#160;&#160;&#160;&#160;&#160;&#160;&#160;&#160;&#160;&#160;&#160;&#160;&#160;TierValue &#160;&#160;&#160;&#160;&#160;&#160;&#160;&#160;&#160;&#160;&#160;&#160;&#160;&#160;&#160;&#160;&#160;&#160;&#160;&#160;&#160;&#160;&#160;&#160;&#160;&#160;&#160;&#160;&#160;&#160;&#160;&#160;&#160;&#160;&#160;&#160;&#160;&#160;</text>
<polygon fill="none" stroke="#99ccff" points="1041.75,-195 1041.75,-214.5 1135.5,-214.5 1135.5,-195 1041.75,-195"/>
<text text-anchor="start" x="1068.38" y="-201.05" font-family="Courier,monospace" font-size="11.00">double</text>
<polygon fill="none" stroke="#99ccff" points="327,-175.5 327,-195 1041.75,-195 1041.75,-175.5 327,-175.5"/>
<text text-anchor="start" x="330" y="-181.55" font-family="Courier,monospace" font-size="11.00"> &#160;&#160;&#160;&#160;&#160;&#160;&#160;&#160;&#160;&#160;&#160;&#160;&#160;&#160;&#160;&#160;&#160;&#160;&#160;&#160;&#160;&#160;&#160;&#160;&#160;&#160;&#160;&#160;&#160;&#160;&#160;&#160;&#160;&#160;&#160;&#160;&#160;&#160;&#160;&#160;EffectiveFrom &#160;&#160;&#160;&#160;&#160;&#160;&#160;&#160;&#160;&#160;&#160;&#160;&#160;&#160;&#160;&#160;&#160;&#160;&#160;&#160;&#160;&#160;&#160;&#160;&#160;&#160;&#160;&#160;&#160;&#160;&#160;&#160;&#160;&#160;&#160;&#160;&#160;&#160;</text>
<polygon fill="none" stroke="#99ccff" points="1041.75,-175.5 1041.75,-195 1135.5,-195 1135.5,-175.5 1041.75,-175.5"/>
<text text-anchor="start" x="1061.62" y="-181.55" font-family="Courier,monospace" font-size="11.00">datetime</text>
<polygon fill="none" stroke="#99ccff" points="327,-156 327,-175.5 1041.75,-175.5 1041.75,-156 327,-156"/>
<text text-anchor="start" x="330" y="-162.05" font-family="Courier,monospace" font-size="11.00"> &#160;&#160;&#160;&#160;&#160;&#160;&#160;&#160;&#160;&#160;&#160;&#160;&#160;&#160;&#160;&#160;&#160;&#160;&#160;&#160;&#160;&#160;&#160;&#160;&#160;&#160;&#160;&#160;&#160;&#160;&#160;&#160;&#160;&#160;&#160;&#160;&#160;&#160;&#160;&#160;EffectiveTo &#160;&#160;&#160;&#160;&#160;&#160;&#160;&#160;&#160;&#160;&#160;&#160;&#160;&#160;&#160;&#160;&#160;&#160;&#160;&#160;&#160;&#160;&#160;&#160;&#160;&#160;&#160;&#160;&#160;&#160;&#160;&#160;&#160;&#160;&#160;&#160;&#160;&#160;</text>
<polygon fill="none" stroke="#99ccff" points="1041.75,-156 1041.75,-175.5 1135.5,-175.5 1135.5,-156 1041.75,-156"/>
<text text-anchor="start" x="1061.62" y="-162.05" font-family="Courier,monospace" font-size="11.00">datetime</text>
<polygon fill="none" stroke="#99ccff" points="327,-136.5 327,-156 1041.75,-156 1041.75,-136.5 327,-136.5"/>
<text text-anchor="start" x="330" y="-142.55" font-family="Courier,monospace" font-size="11.00"> &#160;&#160;&#160;&#160;&#160;&#160;&#160;&#160;&#160;&#160;&#160;&#160;&#160;&#160;&#160;&#160;&#160;&#160;&#160;&#160;&#160;&#160;&#160;&#160;&#160;&#160;&#160;&#160;&#160;&#160;&#160;&#160;&#160;&#160;&#160;&#160;&#160;&#160;&#160;&#160;Product2Id &#160;&#160;&#160;&#160;&#160;&#160;&#160;&#160;&#160;&#160;&#160;&#160;&#160;&#160;&#160;&#160;&#160;&#160;&#160;&#160;&#160;&#160;&#160;&#160;&#160;&#160;&#160;&#160;&#160;&#160;&#160;&#160;&#160;&#160;&#160;&#160;&#160;&#160;</text>
<polygon fill="none" stroke="#99ccff" points="1041.75,-136.5 1041.75,-156 1135.5,-156 1135.5,-136.5 1041.75,-136.5"/>
<text text-anchor="start" x="1044.75" y="-142.55" font-family="Courier,monospace" font-size="11.00">reference(18)</text>
<polygon fill="none" stroke="#99ccff" points="327,-117 327,-136.5 1041.75,-136.5 1041.75,-117 327,-117"/>
<text text-anchor="start" x="330" y="-123.05" font-family="Courier,monospace" font-size="11.00"> &#160;&#160;&#160;&#160;&#160;&#160;&#160;&#160;&#160;&#160;&#160;&#160;&#160;&#160;&#160;&#160;&#160;&#160;&#160;&#160;&#160;&#160;&#160;&#160;&#160;&#160;&#160;&#160;&#160;&#160;&#160;&#160;&#160;&#160;&#160;&#160;&#160;&#160;&#160;&#160;ProductSellingModelId &#160;&#160;&#160;&#160;&#160;&#160;&#160;&#160;&#160;&#160;&#160;&#160;&#160;&#160;&#160;&#160;&#160;&#160;&#160;&#160;&#160;&#160;&#160;&#160;&#160;&#160;&#160;&#160;&#160;&#160;&#160;&#160;&#160;&#160;&#160;&#160;&#160;&#160;</text>
<polygon fill="none" stroke="#99ccff" points="1041.75,-117 1041.75,-136.5 1135.5,-136.5 1135.5,-117 1041.75,-117"/>
<text text-anchor="start" x="1044.75" y="-123.05" font-family="Courier,monospace" font-size="11.00">reference(18)</text>
<polygon fill="none" stroke="#99ccff" points="327,-97.5 327,-117 1041.75,-117 1041.75,-97.5 327,-97.5"/>
<text text-anchor="start" x="330" y="-103.55" font-family="Courier,monospace" font-size="11.00"> &#160;&#160;&#160;&#160;&#160;&#160;&#160;&#160;&#160;&#160;&#160;&#160;&#160;&#160;&#160;&#160;&#160;&#160;&#160;&#160;&#160;&#160;&#160;&#160;&#160;&#160;&#160;&#160;&#160;&#160;&#160;&#160;&#160;&#160;&#160;&#160;&#160;&#160;&#160;&#160;SellingModelType &#160;&#160;&#160;&#160;&#160;&#160;&#160;&#160;&#160;&#160;&#160;&#160;&#160;&#160;&#160;&#160;&#160;&#160;&#160;&#160;&#160;&#160;&#160;&#160;&#160;&#160;&#160;&#160;&#160;&#160;&#160;&#160;&#160;&#160;&#160;&#160;&#160;&#160;</text>
<polygon fill="none" stroke="#99ccff" points="1041.75,-97.5 1041.75,-117 1135.5,-117 1135.5,-97.5 1041.75,-97.5"/>
<text text-anchor="start" x="1044.75" y="-103.55" font-family="Courier,monospace" font-size="11.00">picklist(255)</text>
<polygon fill="none" stroke="#99ccff" points="327,-78 327,-97.5 1041.75,-97.5 1041.75,-78 327,-78"/>
<text text-anchor="start" x="330" y="-84.05" font-family="Courier,monospace" font-size="11.00"> &#160;&#160;&#160;&#160;&#160;&#160;&#160;&#160;&#160;&#160;&#160;&#160;&#160;&#160;&#160;&#160;&#160;&#160;&#160;&#160;&#160;&#160;&#160;&#160;&#160;&#160;&#160;&#160;&#160;&#160;&#160;&#160;&#160;&#160;&#160;&#160;&#160;&#160;&#160;&#160;PricingTerm &#160;&#160;&#160;&#160;&#160;&#160;&#160;&#160;&#160;&#160;&#160;&#160;&#160;&#160;&#160;&#160;&#160;&#160;&#160;&#160;&#160;&#160;&#160;&#160;&#160;&#160;&#160;&#160;&#160;&#160;&#160;&#160;&#160;&#160;&#160;&#160;&#160;&#160;</text>
<polygon fill="none" stroke="#99ccff" points="1041.75,-78 1041.75,-97.5 1135.5,-97.5 1135.5,-78 1041.75,-78"/>
<text text-anchor="start" x="1078.5" y="-84.05" font-family="Courier,monospace" font-size="11.00">int</text>
<polygon fill="none" stroke="#99ccff" points="327,-58.5 327,-78 1041.75,-78 1041.75,-58.5 327,-58.5"/>
<text text-anchor="start" x="330" y="-64.55" font-family="Courier,monospace" font-size="11.00"> &#160;&#160;&#160;&#160;&#160;&#160;&#160;&#160;&#160;&#160;&#160;&#160;&#160;&#160;&#160;&#160;&#160;&#160;&#160;&#160;&#160;&#160;&#160;&#160;&#160;&#160;&#160;&#160;&#160;&#160;&#160;&#160;&#160;&#160;&#160;&#160;&#160;&#160;&#160;&#160;PricingTermUnit &#160;&#160;&#160;&#160;&#160;&#160;&#160;&#160;&#160;&#160;&#160;&#160;&#160;&#160;&#160;&#160;&#160;&#160;&#160;&#160;&#160;&#160;&#160;&#160;&#160;&#160;&#160;&#160;&#160;&#160;&#160;&#160;&#160;&#160;&#160;&#160;&#160;&#160;</text>
<polygon fill="none" stroke="#99ccff" points="1041.75,-58.5 1041.75,-78 1135.5,-78 1135.5,-58.5 1041.75,-58.5"/>
<text text-anchor="start" x="1044.75" y="-64.55" font-family="Courier,monospace" font-size="11.00">picklist(255)</text>
<polygon fill="none" stroke="#99ccff" points="327,-39 327,-58.5 1041.75,-58.5 1041.75,-39 327,-39"/>
<text text-anchor="start" x="330" y="-45.05" font-family="Courier,monospace" font-size="11.00"> &#160;&#160;&#160;&#160;&#160;&#160;&#160;&#160;&#160;&#160;&#160;&#160;&#160;&#160;&#160;&#160;&#160;&#160;&#160;&#160;&#160;&#160;&#160;&#160;&#160;&#160;&#160;&#160;&#160;&#160;&#160;&#160;&#160;&#160;&#160;&#160;&#160;&#160;&#160;&#160;ScheduleType &#160;&#160;&#160;&#160;&#160;&#160;&#160;&#160;&#160;&#160;&#160;&#160;&#160;&#160;&#160;&#160;&#160;&#160;&#160;&#160;&#160;&#160;&#160;&#160;&#160;&#160;&#160;&#160;&#160;&#160;&#160;&#160;&#160;&#160;&#160;&#160;&#160;&#160;</text>
<polygon fill="none" stroke="#99ccff" points="1041.75,-39 1041.75,-58.5 1135.5,-58.5 1135.5,-39 1041.75,-39"/>
<text text-anchor="start" x="1044.75" y="-45.05" font-family="Courier,monospace" font-size="11.00">picklist(255)</text>
<polygon fill="none" stroke="#99ccff" points="327,-19.5 327,-39 1041.75,-39 1041.75,-19.5 327,-19.5"/>
<text text-anchor="start" x="330" y="-25.55" font-family="Courier,monospace" font-size="11.00"> &#160;&#160;&#160;&#160;&#160;&#160;&#160;&#160;&#160;&#160;&#160;&#160;&#160;&#160;&#160;&#160;&#160;&#160;&#160;&#160;&#160;&#160;&#160;&#160;&#160;&#160;&#160;&#160;&#160;&#160;&#160;&#160;&#160;&#160;&#160;&#160;&#160;&#160;&#160;&#160;AdjustmentType &#160;&#160;&#160;&#160;&#160;&#160;&#160;&#160;&#160;&#160;&#160;&#160;&#160;&#160;&#160;&#160;&#160;&#160;&#160;&#160;&#160;&#160;&#160;&#160;&#160;&#160;&#160;&#160;&#160;&#160;&#160;&#160;&#160;&#160;&#160;&#160;&#160;&#160;</text>
<polygon fill="none" stroke="#99ccff" points="1041.75,-19.5 1041.75,-39 1135.5,-39 1135.5,-19.5 1041.75,-19.5"/>
<text text-anchor="start" x="1044.75" y="-25.55" font-family="Courier,monospace" font-size="11.00">picklist(255)</text>
<polygon fill="none" stroke="#99ccff" points="326,-18.5 326,-430 1136.5,-430 1136.5,-18.5 326,-18.5"/>
</a>
</g>
</g>
<!-- User -->
<g id="node2" class="node">
<title>User</title>
<text text-anchor="middle" x="85.62" y="-337.55" font-family="Courier,monospace" font-size="11.00">User</text>
</g>
<!-- PriceAdjustmentTier&#45;&gt;User -->
<g id="edge1" class="edge">
<title>PriceAdjustmentTier:w&#45;&gt;User:e</title>
<path fill="none" stroke="#ff99cc" d="M310.35,-341.25C236.29,-341.25 153.47,-341.25 112.48,-341.25"/>
<polygon fill="#ff99cc" stroke="#ff99cc" points="317.67,-341.25 325.67,-344.85 322,-341.25 325.33,-341.25 325.33,-341.25 325.33,-341.25 322,-341.25 325.67,-337.65 317.67,-341.25"/>
<ellipse fill="none" stroke="#ff99cc" cx="312.75" cy="-341.25" rx="3.2" ry="3.2"/>
<text text-anchor="middle" x="248.62" y="-343.95" font-family="Monaco" font-size="9.00">LastModifiedBy</text>
</g>
<!-- PriceAdjustmentSchedule -->
<g id="node3" class="node">
<title>PriceAdjustmentSchedule</title>
<text text-anchor="middle" x="85.62" y="-278.55" font-family="Courier,monospace" font-size="11.00">PriceAdjustmentSchedule</text>
</g>
<!-- PriceAdjustmentTier&#45;&gt;PriceAdjustmentSchedule -->
<g id="edge2" class="edge">
<title>PriceAdjustmentTier:w&#45;&gt;PriceAdjustmentSchedule:e</title>
<path fill="none" stroke="#ff99cc" d="M310.46,-282.75C263.21,-282.73 212.36,-282.62 171.1,-282.51"/>
<polygon fill="#ff99cc" stroke="#ff99cc" points="317.67,-282.75 325.66,-286.35 322,-282.75 325.33,-282.75 325.33,-282.75 325.33,-282.75 322,-282.75 325.67,-279.15 317.67,-282.75"/>
<ellipse fill="none" stroke="#ff99cc" cx="312.75" cy="-282.75" rx="3.2" ry="3.2"/>
<text text-anchor="middle" x="248.62" y="-285.44" font-family="Monaco" font-size="9.00">PriceAdjustmentSchedule</text>
</g>
<!-- Product2 -->
<g id="node4" class="node">
<title>Product2</title>
<text text-anchor="middle" x="85.62" y="-157.55" font-family="Courier,monospace" font-size="11.00">Product2</text>
</g>
<!-- PriceAdjustmentTier&#45;&gt;Product2 -->
<g id="edge3" class="edge">
<title>PriceAdjustmentTier:w&#45;&gt;Product2:e</title>
<path fill="none" stroke="#ff99cc" d="M310.33,-146.35C240.62,-147.24 163.31,-153.69 120.28,-157.81"/>
<polygon fill="#ff99cc" stroke="#ff99cc" points="317.67,-146.3 325.69,-149.85 322,-146.28 325.33,-146.25 325.33,-146.25 325.33,-146.25 322,-146.28 325.64,-142.65 317.67,-146.3"/>
<ellipse fill="none" stroke="#ff99cc" cx="312.75" cy="-146.34" rx="3.2" ry="3.2"/>
<text text-anchor="middle" x="248.62" y="-154.67" font-family="Monaco" font-size="9.00">Product2</text>
</g>
<!-- ProductSellingModel -->
<g id="node5" class="node">
<title>ProductSellingModel</title>
<text text-anchor="middle" x="85.62" y="-108.55" font-family="Courier,monospace" font-size="11.00">ProductSellingModel</text>
</g>
<!-- PriceAdjustmentTier&#45;&gt;ProductSellingModel -->
<g id="edge4" class="edge">
<title>PriceAdjustmentTier:w&#45;&gt;ProductSellingModel:e</title>
<path fill="none" stroke="#ff99cc" d="M310.21,-126.65C257.64,-126 200.75,-122.29 157.52,-118.8"/>
<polygon fill="#ff99cc" stroke="#ff99cc" points="317.67,-126.7 325.64,-130.35 322,-126.72 325.33,-126.75 325.33,-126.75 325.33,-126.75 322,-126.72 325.69,-123.15 317.67,-126.7"/>
<ellipse fill="none" stroke="#ff99cc" cx="312.75" cy="-126.67" rx="3.2" ry="3.2"/>
<text text-anchor="middle" x="248.62" y="-129.3" font-family="Monaco" font-size="9.00">ProductSellingModel</text>
</g>
</g>
</svg>
