<?xml version="1.0" encoding="UTF-8" standalone="no"?>
<!DOCTYPE svg PUBLIC "-//W3C//DTD SVG 1.1//EN"
 "http://www.w3.org/Graphics/SVG/1.1/DTD/svg11.dtd">
<!-- Generated by graphviz version 12.2.1 (20241206.2353)
 -->
<!-- Title: Salesforce+ ERD Pages: 1 -->
<svg width="1058pt" height="302pt"
 viewBox="0.00 0.00 1057.50 301.50" xmlns="http://www.w3.org/2000/svg" xmlns:xlink="http://www.w3.org/1999/xlink">
<g id="graph0" class="graph" transform="scale(1 1) rotate(0) translate(4 297.5)">
<title>Salesforce+ ERD</title>
<polygon fill="#efeffd" stroke="none" points="-4,4 -4,-297.5 1053.5,-297.5 1053.5,4 -4,4"/>
<text text-anchor="middle" x="1002.12" y="-5.95" font-family="Courier,monospace" font-size="9.00">Salesforce ERD </text>
<!-- PricingAdjBatchJobLog -->
<g id="node1" class="node">
<title>PricingAdjBatchJobLog</title>
<g id="a_node1"><a xlink:href="#" xlink:title=" PricingAdjBatchJobLog ">
<polygon fill="#ffeeff" stroke="none" points="266,-18.5 266,-293.5 1049.5,-293.5 1049.5,-18.5 266,-18.5"/>
<polygon fill="lightblue" stroke="none" points="267,-273 267,-292.5 1048.5,-292.5 1048.5,-273 267,-273"/>
<polygon fill="none" stroke="#99ccff" points="267,-273 267,-292.5 1048.5,-292.5 1048.5,-273 267,-273"/>
<text text-anchor="start" x="586.88" y="-280.05" font-family="Courier,monospace" font-weight="bold" font-size="11.00">PricingAdjBatchJobLog</text>
<polygon fill="#99ccff" stroke="none" points="267,-253.5 267,-273 948,-273 948,-253.5 267,-253.5"/>
<polygon fill="none" stroke="#99ccff" points="267,-253.5 267,-273 948,-273 948,-253.5 267,-253.5"/>
<text text-anchor="start" x="270" y="-260.55" font-family="Courier,monospace" font-size="11.00"> &#160;&#160;&#160;&#160;&#160;&#160;&#160;&#160;&#160;&#160;&#160;&#160;&#160;&#160;&#160;&#160;&#160;&#160;&#160;&#160;&#160;&#160;&#160;&#160;&#160;&#160;&#160;&#160;&#160;&#160;&#160;&#160;&#160;&#160;&#160;&#160;&#160;&#160;&#160;&#160;&#160;&#160;</text>
<text text-anchor="start" x="560.25" y="-260.55" font-family="Courier,monospace" font-weight="bold" font-size="11.00">Id</text>
<text text-anchor="start" x="573.75" y="-260.55" font-family="Courier,monospace" font-size="11.00"> &#160;&#160;&#160;&#160;&#160;&#160;&#160;&#160;&#160;&#160;&#160;&#160;&#160;&#160;&#160;&#160;&#160;&#160;&#160;&#160;&#160;&#160;&#160;&#160;&#160;&#160;&#160;&#160;&#160;&#160;&#160;&#160;&#160;&#160;&#160;&#160;&#160;&#160;&#160;</text>
<polygon fill="none" stroke="#99ccff" points="948,-253.5 948,-273 1048.5,-273 1048.5,-253.5 948,-253.5"/>
<text text-anchor="start" x="978" y="-259.55" font-family="Courier,monospace" font-size="11.00">id(18)</text>
<polygon fill="none" stroke="#99ccff" points="267,-234 267,-253.5 948,-253.5 948,-234 267,-234"/>
<text text-anchor="start" x="270" y="-240.05" font-family="Courier,monospace" font-size="11.00"> &#160;&#160;&#160;&#160;&#160;&#160;&#160;&#160;&#160;&#160;&#160;&#160;&#160;&#160;&#160;&#160;&#160;&#160;&#160;&#160;&#160;&#160;&#160;&#160;&#160;&#160;&#160;&#160;&#160;&#160;&#160;&#160;&#160;&#160;&#160;&#160;&#160;&#160;&#160;&#160;IsDeleted &#160;&#160;&#160;&#160;&#160;&#160;&#160;&#160;&#160;&#160;&#160;&#160;&#160;&#160;&#160;&#160;&#160;&#160;&#160;&#160;&#160;&#160;&#160;&#160;&#160;&#160;&#160;&#160;&#160;&#160;&#160;&#160;&#160;&#160;&#160;&#160;&#160;&#160;</text>
<polygon fill="none" stroke="#99ccff" points="948,-234 948,-253.5 1048.5,-253.5 1048.5,-234 948,-234"/>
<text text-anchor="start" x="974.62" y="-240.05" font-family="Courier,monospace" font-size="11.00">boolean</text>
<polygon fill="none" stroke="#99ccff" points="267,-214.5 267,-234 948,-234 948,-214.5 267,-214.5"/>
<text text-anchor="start" x="270" y="-220.55" font-family="Courier,monospace" font-size="11.00"> &#160;&#160;&#160;&#160;&#160;&#160;&#160;&#160;&#160;&#160;&#160;&#160;&#160;&#160;&#160;&#160;&#160;&#160;&#160;&#160;&#160;&#160;&#160;&#160;&#160;&#160;&#160;&#160;&#160;&#160;&#160;&#160;&#160;&#160;&#160;&#160;&#160;&#160;&#160;&#160;Name &#160;&#160;&#160;&#160;&#160;&#160;&#160;&#160;&#160;&#160;&#160;&#160;&#160;&#160;&#160;&#160;&#160;&#160;&#160;&#160;&#160;&#160;&#160;&#160;&#160;&#160;&#160;&#160;&#160;&#160;&#160;&#160;&#160;&#160;&#160;&#160;&#160;&#160;</text>
<polygon fill="none" stroke="#99ccff" points="948,-214.5 948,-234 1048.5,-234 1048.5,-214.5 948,-214.5"/>
<text text-anchor="start" x="961.12" y="-220.55" font-family="Courier,monospace" font-size="11.00">string(255)</text>
<polygon fill="none" stroke="#99ccff" points="267,-195 267,-214.5 948,-214.5 948,-195 267,-195"/>
<text text-anchor="start" x="270" y="-201.05" font-family="Courier,monospace" font-size="11.00"> &#160;&#160;&#160;&#160;&#160;&#160;&#160;&#160;&#160;&#160;&#160;&#160;&#160;&#160;&#160;&#160;&#160;&#160;&#160;&#160;&#160;&#160;&#160;&#160;&#160;&#160;&#160;&#160;&#160;&#160;&#160;&#160;&#160;&#160;&#160;&#160;&#160;&#160;&#160;&#160;LastModifiedById &#160;&#160;&#160;&#160;&#160;&#160;&#160;&#160;&#160;&#160;&#160;&#160;&#160;&#160;&#160;&#160;&#160;&#160;&#160;&#160;&#160;&#160;&#160;&#160;&#160;&#160;&#160;&#160;&#160;&#160;&#160;&#160;&#160;&#160;&#160;&#160;&#160;&#160;</text>
<polygon fill="none" stroke="#99ccff" points="948,-195 948,-214.5 1048.5,-214.5 1048.5,-195 948,-195"/>
<text text-anchor="start" x="954.38" y="-201.05" font-family="Courier,monospace" font-size="11.00">reference(18)</text>
<polygon fill="none" stroke="#99ccff" points="267,-175.5 267,-195 948,-195 948,-175.5 267,-175.5"/>
<text text-anchor="start" x="270" y="-181.55" font-family="Courier,monospace" font-size="11.00"> &#160;&#160;&#160;&#160;&#160;&#160;&#160;&#160;&#160;&#160;&#160;&#160;&#160;&#160;&#160;&#160;&#160;&#160;&#160;&#160;&#160;&#160;&#160;&#160;&#160;&#160;&#160;&#160;&#160;&#160;&#160;&#160;&#160;&#160;&#160;&#160;&#160;&#160;&#160;&#160;LastViewedDate &#160;&#160;&#160;&#160;&#160;&#160;&#160;&#160;&#160;&#160;&#160;&#160;&#160;&#160;&#160;&#160;&#160;&#160;&#160;&#160;&#160;&#160;&#160;&#160;&#160;&#160;&#160;&#160;&#160;&#160;&#160;&#160;&#160;&#160;&#160;&#160;&#160;&#160;</text>
<polygon fill="none" stroke="#99ccff" points="948,-175.5 948,-195 1048.5,-195 1048.5,-175.5 948,-175.5"/>
<text text-anchor="start" x="971.25" y="-181.55" font-family="Courier,monospace" font-size="11.00">datetime</text>
<polygon fill="none" stroke="#99ccff" points="267,-156 267,-175.5 948,-175.5 948,-156 267,-156"/>
<text text-anchor="start" x="270" y="-162.05" font-family="Courier,monospace" font-size="11.00"> &#160;&#160;&#160;&#160;&#160;&#160;&#160;&#160;&#160;&#160;&#160;&#160;&#160;&#160;&#160;&#160;&#160;&#160;&#160;&#160;&#160;&#160;&#160;&#160;&#160;&#160;&#160;&#160;&#160;&#160;&#160;&#160;&#160;&#160;&#160;&#160;&#160;&#160;&#160;&#160;LastReferencedDate &#160;&#160;&#160;&#160;&#160;&#160;&#160;&#160;&#160;&#160;&#160;&#160;&#160;&#160;&#160;&#160;&#160;&#160;&#160;&#160;&#160;&#160;&#160;&#160;&#160;&#160;&#160;&#160;&#160;&#160;&#160;&#160;&#160;&#160;&#160;&#160;&#160;&#160;</text>
<polygon fill="none" stroke="#99ccff" points="948,-156 948,-175.5 1048.5,-175.5 1048.5,-156 948,-156"/>
<text text-anchor="start" x="971.25" y="-162.05" font-family="Courier,monospace" font-size="11.00">datetime</text>
<polygon fill="none" stroke="#99ccff" points="267,-136.5 267,-156 948,-156 948,-136.5 267,-136.5"/>
<text text-anchor="start" x="270" y="-142.55" font-family="Courier,monospace" font-size="11.00"> &#160;&#160;&#160;&#160;&#160;&#160;&#160;&#160;&#160;&#160;&#160;&#160;&#160;&#160;&#160;&#160;&#160;&#160;&#160;&#160;&#160;&#160;&#160;&#160;&#160;&#160;&#160;&#160;&#160;&#160;&#160;&#160;&#160;&#160;&#160;&#160;&#160;&#160;&#160;&#160;PricingAdjBatchJobId &#160;&#160;&#160;&#160;&#160;&#160;&#160;&#160;&#160;&#160;&#160;&#160;&#160;&#160;&#160;&#160;&#160;&#160;&#160;&#160;&#160;&#160;&#160;&#160;&#160;&#160;&#160;&#160;&#160;&#160;&#160;&#160;&#160;&#160;&#160;&#160;&#160;&#160;</text>
<polygon fill="none" stroke="#99ccff" points="948,-136.5 948,-156 1048.5,-156 1048.5,-136.5 948,-136.5"/>
<text text-anchor="start" x="954.38" y="-142.55" font-family="Courier,monospace" font-size="11.00">reference(18)</text>
<polygon fill="none" stroke="#99ccff" points="267,-117 267,-136.5 948,-136.5 948,-117 267,-117"/>
<text text-anchor="start" x="270" y="-123.05" font-family="Courier,monospace" font-size="11.00"> &#160;&#160;&#160;&#160;&#160;&#160;&#160;&#160;&#160;&#160;&#160;&#160;&#160;&#160;&#160;&#160;&#160;&#160;&#160;&#160;&#160;&#160;&#160;&#160;&#160;&#160;&#160;&#160;&#160;&#160;&#160;&#160;&#160;&#160;&#160;&#160;&#160;&#160;&#160;&#160;TargetRecord &#160;&#160;&#160;&#160;&#160;&#160;&#160;&#160;&#160;&#160;&#160;&#160;&#160;&#160;&#160;&#160;&#160;&#160;&#160;&#160;&#160;&#160;&#160;&#160;&#160;&#160;&#160;&#160;&#160;&#160;&#160;&#160;&#160;&#160;&#160;&#160;&#160;&#160;</text>
<polygon fill="none" stroke="#99ccff" points="948,-117 948,-136.5 1048.5,-136.5 1048.5,-117 948,-117"/>
<text text-anchor="start" x="964.5" y="-123.05" font-family="Courier,monospace" font-size="11.00">string(25)</text>
<polygon fill="none" stroke="#99ccff" points="267,-97.5 267,-117 948,-117 948,-97.5 267,-97.5"/>
<text text-anchor="start" x="270" y="-103.55" font-family="Courier,monospace" font-size="11.00"> &#160;&#160;&#160;&#160;&#160;&#160;&#160;&#160;&#160;&#160;&#160;&#160;&#160;&#160;&#160;&#160;&#160;&#160;&#160;&#160;&#160;&#160;&#160;&#160;&#160;&#160;&#160;&#160;&#160;&#160;&#160;&#160;&#160;&#160;&#160;&#160;&#160;&#160;&#160;&#160;ErrorCode &#160;&#160;&#160;&#160;&#160;&#160;&#160;&#160;&#160;&#160;&#160;&#160;&#160;&#160;&#160;&#160;&#160;&#160;&#160;&#160;&#160;&#160;&#160;&#160;&#160;&#160;&#160;&#160;&#160;&#160;&#160;&#160;&#160;&#160;&#160;&#160;&#160;&#160;</text>
<polygon fill="none" stroke="#99ccff" points="948,-97.5 948,-117 1048.5,-117 1048.5,-97.5 948,-97.5"/>
<text text-anchor="start" x="961.12" y="-103.55" font-family="Courier,monospace" font-size="11.00">string(255)</text>
<polygon fill="none" stroke="#99ccff" points="267,-78 267,-97.5 948,-97.5 948,-78 267,-78"/>
<text text-anchor="start" x="270" y="-84.05" font-family="Courier,monospace" font-size="11.00"> &#160;&#160;&#160;&#160;&#160;&#160;&#160;&#160;&#160;&#160;&#160;&#160;&#160;&#160;&#160;&#160;&#160;&#160;&#160;&#160;&#160;&#160;&#160;&#160;&#160;&#160;&#160;&#160;&#160;&#160;&#160;&#160;&#160;&#160;&#160;&#160;&#160;&#160;&#160;&#160;ErrorMessage &#160;&#160;&#160;&#160;&#160;&#160;&#160;&#160;&#160;&#160;&#160;&#160;&#160;&#160;&#160;&#160;&#160;&#160;&#160;&#160;&#160;&#160;&#160;&#160;&#160;&#160;&#160;&#160;&#160;&#160;&#160;&#160;&#160;&#160;&#160;&#160;&#160;&#160;</text>
<polygon fill="none" stroke="#99ccff" points="948,-78 948,-97.5 1048.5,-97.5 1048.5,-78 948,-78"/>
<text text-anchor="start" x="951" y="-84.05" font-family="Courier,monospace" font-size="11.00">textarea(1000)</text>
<polygon fill="none" stroke="#99ccff" points="267,-58.5 267,-78 948,-78 948,-58.5 267,-58.5"/>
<text text-anchor="start" x="270" y="-64.55" font-family="Courier,monospace" font-size="11.00"> &#160;&#160;&#160;&#160;&#160;&#160;&#160;&#160;&#160;&#160;&#160;&#160;&#160;&#160;&#160;&#160;&#160;&#160;&#160;&#160;&#160;&#160;&#160;&#160;&#160;&#160;&#160;&#160;&#160;&#160;&#160;&#160;&#160;&#160;&#160;&#160;&#160;&#160;&#160;&#160;EffectiveFrom &#160;&#160;&#160;&#160;&#160;&#160;&#160;&#160;&#160;&#160;&#160;&#160;&#160;&#160;&#160;&#160;&#160;&#160;&#160;&#160;&#160;&#160;&#160;&#160;&#160;&#160;&#160;&#160;&#160;&#160;&#160;&#160;&#160;&#160;&#160;&#160;&#160;&#160;</text>
<polygon fill="none" stroke="#99ccff" points="948,-58.5 948,-78 1048.5,-78 1048.5,-58.5 948,-58.5"/>
<text text-anchor="start" x="971.25" y="-64.55" font-family="Courier,monospace" font-size="11.00">datetime</text>
<polygon fill="none" stroke="#99ccff" points="267,-39 267,-58.5 948,-58.5 948,-39 267,-39"/>
<text text-anchor="start" x="270" y="-45.05" font-family="Courier,monospace" font-size="11.00"> &#160;&#160;&#160;&#160;&#160;&#160;&#160;&#160;&#160;&#160;&#160;&#160;&#160;&#160;&#160;&#160;&#160;&#160;&#160;&#160;&#160;&#160;&#160;&#160;&#160;&#160;&#160;&#160;&#160;&#160;&#160;&#160;&#160;&#160;&#160;&#160;&#160;&#160;&#160;&#160;EffectiveTo &#160;&#160;&#160;&#160;&#160;&#160;&#160;&#160;&#160;&#160;&#160;&#160;&#160;&#160;&#160;&#160;&#160;&#160;&#160;&#160;&#160;&#160;&#160;&#160;&#160;&#160;&#160;&#160;&#160;&#160;&#160;&#160;&#160;&#160;&#160;&#160;&#160;&#160;</text>
<polygon fill="none" stroke="#99ccff" points="948,-39 948,-58.5 1048.5,-58.5 1048.5,-39 948,-39"/>
<text text-anchor="start" x="971.25" y="-45.05" font-family="Courier,monospace" font-size="11.00">datetime</text>
<polygon fill="none" stroke="#99ccff" points="267,-19.5 267,-39 948,-39 948,-19.5 267,-19.5"/>
<text text-anchor="start" x="270" y="-25.55" font-family="Courier,monospace" font-size="11.00"> &#160;&#160;&#160;&#160;&#160;&#160;&#160;&#160;&#160;&#160;&#160;&#160;&#160;&#160;&#160;&#160;&#160;&#160;&#160;&#160;&#160;&#160;&#160;&#160;&#160;&#160;&#160;&#160;&#160;&#160;&#160;&#160;&#160;&#160;&#160;&#160;&#160;&#160;&#160;&#160;AdjustedValue &#160;&#160;&#160;&#160;&#160;&#160;&#160;&#160;&#160;&#160;&#160;&#160;&#160;&#160;&#160;&#160;&#160;&#160;&#160;&#160;&#160;&#160;&#160;&#160;&#160;&#160;&#160;&#160;&#160;&#160;&#160;&#160;&#160;&#160;&#160;&#160;&#160;&#160;</text>
<polygon fill="none" stroke="#99ccff" points="948,-19.5 948,-39 1048.5,-39 1048.5,-19.5 948,-19.5"/>
<text text-anchor="start" x="978" y="-25.55" font-family="Courier,monospace" font-size="11.00">double</text>
<polygon fill="none" stroke="#99ccff" points="266,-18.5 266,-293.5 1049.5,-293.5 1049.5,-18.5 266,-18.5"/>
</a>
</g>
</g>
<!-- User -->
<g id="node2" class="node">
<title>User</title>
<text text-anchor="middle" x="68.75" y="-200.3" font-family="Courier,monospace" font-size="11.00">User</text>
</g>
<!-- PricingAdjBatchJobLog&#45;&gt;User -->
<g id="edge1" class="edge">
<title>PricingAdjBatchJobLog:w&#45;&gt;User:e</title>
<path fill="none" stroke="#ff99cc" d="M250.39,-204.74C193.01,-204.69 129.81,-204.36 95.47,-204.16"/>
<polygon fill="#ff99cc" stroke="#ff99cc" points="257.67,-204.75 265.66,-208.35 262,-204.75 265.33,-204.75 265.33,-204.75 265.33,-204.75 262,-204.75 265.67,-201.15 257.67,-204.75"/>
<ellipse fill="none" stroke="#ff99cc" cx="252.75" cy="-204.74" rx="3.2" ry="3.2"/>
<text text-anchor="middle" x="201.75" y="-207.44" font-family="Monaco" font-size="9.00">LastModifiedBy</text>
</g>
<!-- PricingAdjBatchJob -->
<g id="node3" class="node">
<title>PricingAdjBatchJob</title>
<text text-anchor="middle" x="68.75" y="-143.3" font-family="Courier,monospace" font-size="11.00">PricingAdjBatchJob</text>
</g>
<!-- PricingAdjBatchJobLog&#45;&gt;PricingAdjBatchJob -->
<g id="edge2" class="edge">
<title>PricingAdjBatchJobLog:w&#45;&gt;PricingAdjBatchJob:e</title>
<path fill="none" stroke="#ff99cc" d="M250.26,-146.26C211.76,-146.29 170.66,-146.45 137.41,-146.61"/>
<polygon fill="#ff99cc" stroke="#ff99cc" points="257.67,-146.25 265.67,-149.85 262,-146.25 265.33,-146.25 265.33,-146.25 265.33,-146.25 262,-146.25 265.66,-142.65 257.67,-146.25"/>
<ellipse fill="none" stroke="#ff99cc" cx="252.75" cy="-146.26" rx="3.2" ry="3.2"/>
<text text-anchor="middle" x="201.75" y="-149.21" font-family="Monaco" font-size="9.00">PricingAdjBatchJob</text>
</g>
</g>
</svg>
