<?xml version="1.0" encoding="UTF-8" standalone="no"?>
<!DOCTYPE svg PUBLIC "-//W3C//DTD SVG 1.1//EN"
 "http://www.w3.org/Graphics/SVG/1.1/DTD/svg11.dtd">
<!-- Generated by graphviz version 12.2.1 (20241206.2353)
 -->
<!-- Title: Salesforce+ ERD Pages: 1 -->
<svg width="1070pt" height="302pt"
 viewBox="0.00 0.00 1069.50 301.50" xmlns="http://www.w3.org/2000/svg" xmlns:xlink="http://www.w3.org/1999/xlink">
<g id="graph0" class="graph" transform="scale(1 1) rotate(0) translate(4 297.5)">
<title>Salesforce+ ERD</title>
<polygon fill="#efeffd" stroke="none" points="-4,4 -4,-297.5 1065.5,-297.5 1065.5,4 -4,4"/>
<text text-anchor="middle" x="1014.12" y="-5.95" font-family="Courier,monospace" font-size="9.00">Salesforce ERD </text>
<!-- PricebookEntry -->
<g id="node1" class="node">
<title>PricebookEntry</title>
<g id="a_node1"><a xlink:href="#" xlink:title=" PricebookEntry ">
<polygon fill="#ffeeff" stroke="none" points="278,-18.5 278,-293.5 1061.5,-293.5 1061.5,-18.5 278,-18.5"/>
<polygon fill="lightblue" stroke="none" points="279,-273 279,-292.5 1060.5,-292.5 1060.5,-273 279,-273"/>
<polygon fill="none" stroke="#99ccff" points="279,-273 279,-292.5 1060.5,-292.5 1060.5,-273 279,-273"/>
<text text-anchor="start" x="622.5" y="-280.05" font-family="Courier,monospace" font-weight="bold" font-size="11.00">PricebookEntry</text>
<polygon fill="#99ccff" stroke="none" points="279,-253.5 279,-273 966.75,-273 966.75,-253.5 279,-253.5"/>
<polygon fill="none" stroke="#99ccff" points="279,-253.5 279,-273 966.75,-273 966.75,-253.5 279,-253.5"/>
<text text-anchor="start" x="282" y="-260.55" font-family="Courier,monospace" font-size="11.00"> &#160;&#160;&#160;&#160;&#160;&#160;&#160;&#160;&#160;&#160;&#160;&#160;&#160;&#160;&#160;&#160;&#160;&#160;&#160;&#160;&#160;&#160;&#160;&#160;&#160;&#160;&#160;&#160;&#160;&#160;&#160;&#160;&#160;&#160;&#160;&#160;&#160;&#160;&#160;&#160;&#160;&#160;</text>
<text text-anchor="start" x="572.25" y="-260.55" font-family="Courier,monospace" font-weight="bold" font-size="11.00">Id</text>
<text text-anchor="start" x="585.75" y="-260.55" font-family="Courier,monospace" font-size="11.00"> &#160;&#160;&#160;&#160;&#160;&#160;&#160;&#160;&#160;&#160;&#160;&#160;&#160;&#160;&#160;&#160;&#160;&#160;&#160;&#160;&#160;&#160;&#160;&#160;&#160;&#160;&#160;&#160;&#160;&#160;&#160;&#160;&#160;&#160;&#160;&#160;&#160;&#160;&#160;</text>
<polygon fill="none" stroke="#99ccff" points="966.75,-253.5 966.75,-273 1060.5,-273 1060.5,-253.5 966.75,-253.5"/>
<text text-anchor="start" x="993.38" y="-259.55" font-family="Courier,monospace" font-size="11.00">id(18)</text>
<polygon fill="none" stroke="#99ccff" points="279,-234 279,-253.5 966.75,-253.5 966.75,-234 279,-234"/>
<text text-anchor="start" x="282" y="-240.05" font-family="Courier,monospace" font-size="11.00"> &#160;&#160;&#160;&#160;&#160;&#160;&#160;&#160;&#160;&#160;&#160;&#160;&#160;&#160;&#160;&#160;&#160;&#160;&#160;&#160;&#160;&#160;&#160;&#160;&#160;&#160;&#160;&#160;&#160;&#160;&#160;&#160;&#160;&#160;&#160;&#160;&#160;&#160;&#160;&#160;Name &#160;&#160;&#160;&#160;&#160;&#160;&#160;&#160;&#160;&#160;&#160;&#160;&#160;&#160;&#160;&#160;&#160;&#160;&#160;&#160;&#160;&#160;&#160;&#160;&#160;&#160;&#160;&#160;&#160;&#160;&#160;&#160;&#160;&#160;&#160;&#160;&#160;&#160;</text>
<polygon fill="none" stroke="#99ccff" points="966.75,-234 966.75,-253.5 1060.5,-253.5 1060.5,-234 966.75,-234"/>
<text text-anchor="start" x="976.5" y="-240.05" font-family="Courier,monospace" font-size="11.00">string(255)</text>
<polygon fill="none" stroke="#99ccff" points="279,-214.5 279,-234 966.75,-234 966.75,-214.5 279,-214.5"/>
<text text-anchor="start" x="282" y="-220.55" font-family="Courier,monospace" font-size="11.00"> &#160;&#160;&#160;&#160;&#160;&#160;&#160;&#160;&#160;&#160;&#160;&#160;&#160;&#160;&#160;&#160;&#160;&#160;&#160;&#160;&#160;&#160;&#160;&#160;&#160;&#160;&#160;&#160;&#160;&#160;&#160;&#160;&#160;&#160;&#160;&#160;&#160;&#160;&#160;&#160;Pricebook2Id &#160;&#160;&#160;&#160;&#160;&#160;&#160;&#160;&#160;&#160;&#160;&#160;&#160;&#160;&#160;&#160;&#160;&#160;&#160;&#160;&#160;&#160;&#160;&#160;&#160;&#160;&#160;&#160;&#160;&#160;&#160;&#160;&#160;&#160;&#160;&#160;&#160;&#160;</text>
<polygon fill="none" stroke="#99ccff" points="966.75,-214.5 966.75,-234 1060.5,-234 1060.5,-214.5 966.75,-214.5"/>
<text text-anchor="start" x="969.75" y="-220.55" font-family="Courier,monospace" font-size="11.00">reference(18)</text>
<polygon fill="none" stroke="#99ccff" points="279,-195 279,-214.5 966.75,-214.5 966.75,-195 279,-195"/>
<text text-anchor="start" x="282" y="-201.05" font-family="Courier,monospace" font-size="11.00"> &#160;&#160;&#160;&#160;&#160;&#160;&#160;&#160;&#160;&#160;&#160;&#160;&#160;&#160;&#160;&#160;&#160;&#160;&#160;&#160;&#160;&#160;&#160;&#160;&#160;&#160;&#160;&#160;&#160;&#160;&#160;&#160;&#160;&#160;&#160;&#160;&#160;&#160;&#160;&#160;Product2Id &#160;&#160;&#160;&#160;&#160;&#160;&#160;&#160;&#160;&#160;&#160;&#160;&#160;&#160;&#160;&#160;&#160;&#160;&#160;&#160;&#160;&#160;&#160;&#160;&#160;&#160;&#160;&#160;&#160;&#160;&#160;&#160;&#160;&#160;&#160;&#160;&#160;&#160;</text>
<polygon fill="none" stroke="#99ccff" points="966.75,-195 966.75,-214.5 1060.5,-214.5 1060.5,-195 966.75,-195"/>
<text text-anchor="start" x="969.75" y="-201.05" font-family="Courier,monospace" font-size="11.00">reference(18)</text>
<polygon fill="none" stroke="#99ccff" points="279,-175.5 279,-195 966.75,-195 966.75,-175.5 279,-175.5"/>
<text text-anchor="start" x="282" y="-181.55" font-family="Courier,monospace" font-size="11.00"> &#160;&#160;&#160;&#160;&#160;&#160;&#160;&#160;&#160;&#160;&#160;&#160;&#160;&#160;&#160;&#160;&#160;&#160;&#160;&#160;&#160;&#160;&#160;&#160;&#160;&#160;&#160;&#160;&#160;&#160;&#160;&#160;&#160;&#160;&#160;&#160;&#160;&#160;&#160;&#160;UnitPrice &#160;&#160;&#160;&#160;&#160;&#160;&#160;&#160;&#160;&#160;&#160;&#160;&#160;&#160;&#160;&#160;&#160;&#160;&#160;&#160;&#160;&#160;&#160;&#160;&#160;&#160;&#160;&#160;&#160;&#160;&#160;&#160;&#160;&#160;&#160;&#160;&#160;&#160;</text>
<polygon fill="none" stroke="#99ccff" points="966.75,-175.5 966.75,-195 1060.5,-195 1060.5,-175.5 966.75,-175.5"/>
<text text-anchor="start" x="986.62" y="-181.55" font-family="Courier,monospace" font-size="11.00">currency</text>
<polygon fill="none" stroke="#99ccff" points="279,-156 279,-175.5 966.75,-175.5 966.75,-156 279,-156"/>
<text text-anchor="start" x="282" y="-162.05" font-family="Courier,monospace" font-size="11.00"> &#160;&#160;&#160;&#160;&#160;&#160;&#160;&#160;&#160;&#160;&#160;&#160;&#160;&#160;&#160;&#160;&#160;&#160;&#160;&#160;&#160;&#160;&#160;&#160;&#160;&#160;&#160;&#160;&#160;&#160;&#160;&#160;&#160;&#160;&#160;&#160;&#160;&#160;&#160;&#160;IsActive &#160;&#160;&#160;&#160;&#160;&#160;&#160;&#160;&#160;&#160;&#160;&#160;&#160;&#160;&#160;&#160;&#160;&#160;&#160;&#160;&#160;&#160;&#160;&#160;&#160;&#160;&#160;&#160;&#160;&#160;&#160;&#160;&#160;&#160;&#160;&#160;&#160;&#160;</text>
<polygon fill="none" stroke="#99ccff" points="966.75,-156 966.75,-175.5 1060.5,-175.5 1060.5,-156 966.75,-156"/>
<text text-anchor="start" x="990" y="-162.05" font-family="Courier,monospace" font-size="11.00">boolean</text>
<polygon fill="none" stroke="#99ccff" points="279,-136.5 279,-156 966.75,-156 966.75,-136.5 279,-136.5"/>
<text text-anchor="start" x="282" y="-142.55" font-family="Courier,monospace" font-size="11.00"> &#160;&#160;&#160;&#160;&#160;&#160;&#160;&#160;&#160;&#160;&#160;&#160;&#160;&#160;&#160;&#160;&#160;&#160;&#160;&#160;&#160;&#160;&#160;&#160;&#160;&#160;&#160;&#160;&#160;&#160;&#160;&#160;&#160;&#160;&#160;&#160;&#160;&#160;&#160;&#160;UseStandardPrice &#160;&#160;&#160;&#160;&#160;&#160;&#160;&#160;&#160;&#160;&#160;&#160;&#160;&#160;&#160;&#160;&#160;&#160;&#160;&#160;&#160;&#160;&#160;&#160;&#160;&#160;&#160;&#160;&#160;&#160;&#160;&#160;&#160;&#160;&#160;&#160;&#160;&#160;</text>
<polygon fill="none" stroke="#99ccff" points="966.75,-136.5 966.75,-156 1060.5,-156 1060.5,-136.5 966.75,-136.5"/>
<text text-anchor="start" x="990" y="-142.55" font-family="Courier,monospace" font-size="11.00">boolean</text>
<polygon fill="none" stroke="#99ccff" points="279,-117 279,-136.5 966.75,-136.5 966.75,-117 279,-117"/>
<text text-anchor="start" x="282" y="-123.05" font-family="Courier,monospace" font-size="11.00"> &#160;&#160;&#160;&#160;&#160;&#160;&#160;&#160;&#160;&#160;&#160;&#160;&#160;&#160;&#160;&#160;&#160;&#160;&#160;&#160;&#160;&#160;&#160;&#160;&#160;&#160;&#160;&#160;&#160;&#160;&#160;&#160;&#160;&#160;&#160;&#160;&#160;&#160;&#160;&#160;LastModifiedById &#160;&#160;&#160;&#160;&#160;&#160;&#160;&#160;&#160;&#160;&#160;&#160;&#160;&#160;&#160;&#160;&#160;&#160;&#160;&#160;&#160;&#160;&#160;&#160;&#160;&#160;&#160;&#160;&#160;&#160;&#160;&#160;&#160;&#160;&#160;&#160;&#160;&#160;</text>
<polygon fill="none" stroke="#99ccff" points="966.75,-117 966.75,-136.5 1060.5,-136.5 1060.5,-117 966.75,-117"/>
<text text-anchor="start" x="969.75" y="-123.05" font-family="Courier,monospace" font-size="11.00">reference(18)</text>
<polygon fill="none" stroke="#99ccff" points="279,-97.5 279,-117 966.75,-117 966.75,-97.5 279,-97.5"/>
<text text-anchor="start" x="282" y="-103.55" font-family="Courier,monospace" font-size="11.00"> &#160;&#160;&#160;&#160;&#160;&#160;&#160;&#160;&#160;&#160;&#160;&#160;&#160;&#160;&#160;&#160;&#160;&#160;&#160;&#160;&#160;&#160;&#160;&#160;&#160;&#160;&#160;&#160;&#160;&#160;&#160;&#160;&#160;&#160;&#160;&#160;&#160;&#160;&#160;&#160;ProductCode &#160;&#160;&#160;&#160;&#160;&#160;&#160;&#160;&#160;&#160;&#160;&#160;&#160;&#160;&#160;&#160;&#160;&#160;&#160;&#160;&#160;&#160;&#160;&#160;&#160;&#160;&#160;&#160;&#160;&#160;&#160;&#160;&#160;&#160;&#160;&#160;&#160;&#160;</text>
<polygon fill="none" stroke="#99ccff" points="966.75,-97.5 966.75,-117 1060.5,-117 1060.5,-97.5 966.75,-97.5"/>
<text text-anchor="start" x="976.5" y="-103.55" font-family="Courier,monospace" font-size="11.00">string(255)</text>
<polygon fill="none" stroke="#99ccff" points="279,-78 279,-97.5 966.75,-97.5 966.75,-78 279,-78"/>
<text text-anchor="start" x="282" y="-84.05" font-family="Courier,monospace" font-size="11.00"> &#160;&#160;&#160;&#160;&#160;&#160;&#160;&#160;&#160;&#160;&#160;&#160;&#160;&#160;&#160;&#160;&#160;&#160;&#160;&#160;&#160;&#160;&#160;&#160;&#160;&#160;&#160;&#160;&#160;&#160;&#160;&#160;&#160;&#160;&#160;&#160;&#160;&#160;&#160;&#160;IsDeleted &#160;&#160;&#160;&#160;&#160;&#160;&#160;&#160;&#160;&#160;&#160;&#160;&#160;&#160;&#160;&#160;&#160;&#160;&#160;&#160;&#160;&#160;&#160;&#160;&#160;&#160;&#160;&#160;&#160;&#160;&#160;&#160;&#160;&#160;&#160;&#160;&#160;&#160;</text>
<polygon fill="none" stroke="#99ccff" points="966.75,-78 966.75,-97.5 1060.5,-97.5 1060.5,-78 966.75,-78"/>
<text text-anchor="start" x="990" y="-84.05" font-family="Courier,monospace" font-size="11.00">boolean</text>
<polygon fill="none" stroke="#99ccff" points="279,-58.5 279,-78 966.75,-78 966.75,-58.5 279,-58.5"/>
<text text-anchor="start" x="282" y="-64.55" font-family="Courier,monospace" font-size="11.00"> &#160;&#160;&#160;&#160;&#160;&#160;&#160;&#160;&#160;&#160;&#160;&#160;&#160;&#160;&#160;&#160;&#160;&#160;&#160;&#160;&#160;&#160;&#160;&#160;&#160;&#160;&#160;&#160;&#160;&#160;&#160;&#160;&#160;&#160;&#160;&#160;&#160;&#160;&#160;&#160;IsArchived &#160;&#160;&#160;&#160;&#160;&#160;&#160;&#160;&#160;&#160;&#160;&#160;&#160;&#160;&#160;&#160;&#160;&#160;&#160;&#160;&#160;&#160;&#160;&#160;&#160;&#160;&#160;&#160;&#160;&#160;&#160;&#160;&#160;&#160;&#160;&#160;&#160;&#160;</text>
<polygon fill="none" stroke="#99ccff" points="966.75,-58.5 966.75,-78 1060.5,-78 1060.5,-58.5 966.75,-58.5"/>
<text text-anchor="start" x="990" y="-64.55" font-family="Courier,monospace" font-size="11.00">boolean</text>
<polygon fill="none" stroke="#99ccff" points="279,-39 279,-58.5 966.75,-58.5 966.75,-39 279,-39"/>
<text text-anchor="start" x="282" y="-45.05" font-family="Courier,monospace" font-size="11.00"> &#160;&#160;&#160;&#160;&#160;&#160;&#160;&#160;&#160;&#160;&#160;&#160;&#160;&#160;&#160;&#160;&#160;&#160;&#160;&#160;&#160;&#160;&#160;&#160;&#160;&#160;&#160;&#160;&#160;&#160;&#160;&#160;&#160;&#160;&#160;&#160;&#160;&#160;&#160;&#160;ProductSellingModelId &#160;&#160;&#160;&#160;&#160;&#160;&#160;&#160;&#160;&#160;&#160;&#160;&#160;&#160;&#160;&#160;&#160;&#160;&#160;&#160;&#160;&#160;&#160;&#160;&#160;&#160;&#160;&#160;&#160;&#160;&#160;&#160;&#160;&#160;&#160;&#160;&#160;&#160;</text>
<polygon fill="none" stroke="#99ccff" points="966.75,-39 966.75,-58.5 1060.5,-58.5 1060.5,-39 966.75,-39"/>
<text text-anchor="start" x="969.75" y="-45.05" font-family="Courier,monospace" font-size="11.00">reference(18)</text>
<polygon fill="none" stroke="#99ccff" points="279,-19.5 279,-39 966.75,-39 966.75,-19.5 279,-19.5"/>
<text text-anchor="start" x="282" y="-25.55" font-family="Courier,monospace" font-size="11.00"> &#160;&#160;&#160;&#160;&#160;&#160;&#160;&#160;&#160;&#160;&#160;&#160;&#160;&#160;&#160;&#160;&#160;&#160;&#160;&#160;&#160;&#160;&#160;&#160;&#160;&#160;&#160;&#160;&#160;&#160;&#160;&#160;&#160;&#160;&#160;&#160;&#160;&#160;&#160;&#160;IsDerived &#160;&#160;&#160;&#160;&#160;&#160;&#160;&#160;&#160;&#160;&#160;&#160;&#160;&#160;&#160;&#160;&#160;&#160;&#160;&#160;&#160;&#160;&#160;&#160;&#160;&#160;&#160;&#160;&#160;&#160;&#160;&#160;&#160;&#160;&#160;&#160;&#160;&#160;</text>
<polygon fill="none" stroke="#99ccff" points="966.75,-19.5 966.75,-39 1060.5,-39 1060.5,-19.5 966.75,-19.5"/>
<text text-anchor="start" x="990" y="-25.55" font-family="Courier,monospace" font-size="11.00">boolean</text>
<polygon fill="none" stroke="#99ccff" points="278,-18.5 278,-293.5 1061.5,-293.5 1061.5,-18.5 278,-18.5"/>
</a>
</g>
</g>
<!-- Pricebook2 -->
<g id="node2" class="node">
<title>Pricebook2</title>
<text text-anchor="middle" x="72.12" y="-235.3" font-family="Courier,monospace" font-size="11.00">Pricebook2</text>
</g>
<!-- PricebookEntry&#45;&gt;Pricebook2 -->
<g id="edge1" class="edge">
<title>PricebookEntry:w&#45;&gt;Pricebook2:e</title>
<path fill="none" stroke="#ff99cc" d="M262.39,-224.39C209.11,-225.28 151.06,-230.44 113.49,-234.37"/>
<polygon fill="#ff99cc" stroke="#ff99cc" points="269.67,-224.32 277.7,-227.85 274,-224.28 277.33,-224.26 277.33,-224.26 277.33,-224.26 274,-224.28 277.63,-220.65 269.67,-224.32"/>
<ellipse fill="none" stroke="#ff99cc" cx="264.75" cy="-224.36" rx="3.2" ry="3.2"/>
<text text-anchor="middle" x="211.12" y="-232.14" font-family="Monaco" font-size="9.00">Pricebook2</text>
</g>
<!-- Product2 -->
<g id="node3" class="node">
<title>Product2</title>
<text text-anchor="middle" x="72.12" y="-186.3" font-family="Courier,monospace" font-size="11.00">Product2</text>
</g>
<!-- PricebookEntry&#45;&gt;Product2 -->
<g id="edge2" class="edge">
<title>PricebookEntry:w&#45;&gt;Product2:e</title>
<path fill="none" stroke="#ff99cc" d="M262.23,-204.61C205.71,-203.65 143.85,-197.91 106.79,-193.91"/>
<polygon fill="#ff99cc" stroke="#ff99cc" points="269.67,-204.68 277.63,-208.35 274,-204.72 277.33,-204.74 277.33,-204.74 277.33,-204.74 274,-204.72 277.7,-201.15 269.67,-204.68"/>
<ellipse fill="none" stroke="#ff99cc" cx="264.75" cy="-204.63" rx="3.2" ry="3.2"/>
<text text-anchor="middle" x="211.12" y="-207.18" font-family="Monaco" font-size="9.00">Product2</text>
</g>
<!-- User -->
<g id="node4" class="node">
<title>User</title>
<text text-anchor="middle" x="72.12" y="-123.3" font-family="Courier,monospace" font-size="11.00">User</text>
</g>
<!-- PricebookEntry&#45;&gt;User -->
<g id="edge3" class="edge">
<title>PricebookEntry:w&#45;&gt;User:e</title>
<path fill="none" stroke="#ff99cc" d="M262.34,-126.75C201.72,-126.77 134.75,-126.88 99,-126.95"/>
<polygon fill="#ff99cc" stroke="#ff99cc" points="269.67,-126.75 277.67,-130.35 274,-126.75 277.33,-126.75 277.33,-126.75 277.33,-126.75 274,-126.75 277.66,-123.15 269.67,-126.75"/>
<ellipse fill="none" stroke="#ff99cc" cx="264.75" cy="-126.75" rx="3.2" ry="3.2"/>
<text text-anchor="middle" x="211.12" y="-129.55" font-family="Monaco" font-size="9.00">LastModifiedBy</text>
</g>
<!-- ProductSellingModel -->
<g id="node5" class="node">
<title>ProductSellingModel</title>
<text text-anchor="middle" x="72.12" y="-45.3" font-family="Courier,monospace" font-size="11.00">ProductSellingModel</text>
</g>
<!-- PricebookEntry&#45;&gt;ProductSellingModel -->
<g id="edge4" class="edge">
<title>PricebookEntry:w&#45;&gt;ProductSellingModel:e</title>
<path fill="none" stroke="#ff99cc" d="M262.17,-48.75C221.99,-48.76 179.03,-48.82 144.24,-48.87"/>
<polygon fill="#ff99cc" stroke="#ff99cc" points="269.67,-48.75 277.67,-52.35 274,-48.75 277.33,-48.75 277.33,-48.75 277.33,-48.75 274,-48.75 277.66,-45.15 269.67,-48.75"/>
<ellipse fill="none" stroke="#ff99cc" cx="264.75" cy="-48.75" rx="3.2" ry="3.2"/>
<text text-anchor="middle" x="211.12" y="-51.55" font-family="Monaco" font-size="9.00">ProductSellingModel</text>
</g>
</g>
</svg>
