<?xml version="1.0" encoding="UTF-8" standalone="no"?>
<!DOCTYPE svg PUBLIC "-//W3C//DTD SVG 1.1//EN"
 "http://www.w3.org/Graphics/SVG/1.1/DTD/svg11.dtd">
<!-- Generated by graphviz version 12.2.1 (20241206.2353)
 -->
<!-- Title: Salesforce+ ERD Pages: 1 -->
<svg width="1070pt" height="397pt"
 viewBox="0.00 0.00 1069.50 397.00" xmlns="http://www.w3.org/2000/svg" xmlns:xlink="http://www.w3.org/1999/xlink">
<g id="graph0" class="graph" transform="scale(1 1) rotate(0) translate(4 393)">
<title>Salesforce+ ERD</title>
<polygon fill="#efeffd" stroke="none" points="-4,4 -4,-393 1065.5,-393 1065.5,4 -4,4"/>
<text text-anchor="middle" x="1014.12" y="-5.95" font-family="Courier,monospace" font-size="9.00">Salesforce ERD </text>
<!-- PriceBookEntryDerivedPrice -->
<g id="node1" class="node">
<title>PriceBookEntryDerivedPrice</title>
<g id="a_node1"><a xlink:href="#" xlink:title=" PriceBookEntryDerivedPrice ">
<polygon fill="#ffeeff" stroke="none" points="278,-36 278,-389 1061.5,-389 1061.5,-36 278,-36"/>
<polygon fill="lightblue" stroke="none" points="279,-368.5 279,-388 1060.5,-388 1060.5,-368.5 279,-368.5"/>
<polygon fill="none" stroke="#99ccff" points="279,-368.5 279,-388 1060.5,-388 1060.5,-368.5 279,-368.5"/>
<text text-anchor="start" x="582" y="-375.55" font-family="Courier,monospace" font-weight="bold" font-size="11.00">PriceBookEntryDerivedPrice</text>
<polygon fill="#99ccff" stroke="none" points="279,-349 279,-368.5 966.75,-368.5 966.75,-349 279,-349"/>
<polygon fill="none" stroke="#99ccff" points="279,-349 279,-368.5 966.75,-368.5 966.75,-349 279,-349"/>
<text text-anchor="start" x="282" y="-356.05" font-family="Courier,monospace" font-size="11.00"> &#160;&#160;&#160;&#160;&#160;&#160;&#160;&#160;&#160;&#160;&#160;&#160;&#160;&#160;&#160;&#160;&#160;&#160;&#160;&#160;&#160;&#160;&#160;&#160;&#160;&#160;&#160;&#160;&#160;&#160;&#160;&#160;&#160;&#160;&#160;&#160;&#160;&#160;&#160;&#160;&#160;&#160;</text>
<text text-anchor="start" x="572.25" y="-356.05" font-family="Courier,monospace" font-weight="bold" font-size="11.00">Id</text>
<text text-anchor="start" x="585.75" y="-356.05" font-family="Courier,monospace" font-size="11.00"> &#160;&#160;&#160;&#160;&#160;&#160;&#160;&#160;&#160;&#160;&#160;&#160;&#160;&#160;&#160;&#160;&#160;&#160;&#160;&#160;&#160;&#160;&#160;&#160;&#160;&#160;&#160;&#160;&#160;&#160;&#160;&#160;&#160;&#160;&#160;&#160;&#160;&#160;&#160;</text>
<polygon fill="none" stroke="#99ccff" points="966.75,-349 966.75,-368.5 1060.5,-368.5 1060.5,-349 966.75,-349"/>
<text text-anchor="start" x="993.38" y="-355.05" font-family="Courier,monospace" font-size="11.00">id(18)</text>
<polygon fill="none" stroke="#99ccff" points="279,-329.5 279,-349 966.75,-349 966.75,-329.5 279,-329.5"/>
<text text-anchor="start" x="282" y="-335.55" font-family="Courier,monospace" font-size="11.00"> &#160;&#160;&#160;&#160;&#160;&#160;&#160;&#160;&#160;&#160;&#160;&#160;&#160;&#160;&#160;&#160;&#160;&#160;&#160;&#160;&#160;&#160;&#160;&#160;&#160;&#160;&#160;&#160;&#160;&#160;&#160;&#160;&#160;&#160;&#160;&#160;&#160;&#160;&#160;&#160;OwnerId &#160;&#160;&#160;&#160;&#160;&#160;&#160;&#160;&#160;&#160;&#160;&#160;&#160;&#160;&#160;&#160;&#160;&#160;&#160;&#160;&#160;&#160;&#160;&#160;&#160;&#160;&#160;&#160;&#160;&#160;&#160;&#160;&#160;&#160;&#160;&#160;&#160;&#160;</text>
<polygon fill="none" stroke="#99ccff" points="966.75,-329.5 966.75,-349 1060.5,-349 1060.5,-329.5 966.75,-329.5"/>
<text text-anchor="start" x="969.75" y="-335.55" font-family="Courier,monospace" font-size="11.00">reference(18)</text>
<polygon fill="none" stroke="#99ccff" points="279,-310 279,-329.5 966.75,-329.5 966.75,-310 279,-310"/>
<text text-anchor="start" x="282" y="-316.05" font-family="Courier,monospace" font-size="11.00"> &#160;&#160;&#160;&#160;&#160;&#160;&#160;&#160;&#160;&#160;&#160;&#160;&#160;&#160;&#160;&#160;&#160;&#160;&#160;&#160;&#160;&#160;&#160;&#160;&#160;&#160;&#160;&#160;&#160;&#160;&#160;&#160;&#160;&#160;&#160;&#160;&#160;&#160;&#160;&#160;IsDeleted &#160;&#160;&#160;&#160;&#160;&#160;&#160;&#160;&#160;&#160;&#160;&#160;&#160;&#160;&#160;&#160;&#160;&#160;&#160;&#160;&#160;&#160;&#160;&#160;&#160;&#160;&#160;&#160;&#160;&#160;&#160;&#160;&#160;&#160;&#160;&#160;&#160;&#160;</text>
<polygon fill="none" stroke="#99ccff" points="966.75,-310 966.75,-329.5 1060.5,-329.5 1060.5,-310 966.75,-310"/>
<text text-anchor="start" x="990" y="-316.05" font-family="Courier,monospace" font-size="11.00">boolean</text>
<polygon fill="none" stroke="#99ccff" points="279,-290.5 279,-310 966.75,-310 966.75,-290.5 279,-290.5"/>
<text text-anchor="start" x="282" y="-296.55" font-family="Courier,monospace" font-size="11.00"> &#160;&#160;&#160;&#160;&#160;&#160;&#160;&#160;&#160;&#160;&#160;&#160;&#160;&#160;&#160;&#160;&#160;&#160;&#160;&#160;&#160;&#160;&#160;&#160;&#160;&#160;&#160;&#160;&#160;&#160;&#160;&#160;&#160;&#160;&#160;&#160;&#160;&#160;&#160;&#160;Name &#160;&#160;&#160;&#160;&#160;&#160;&#160;&#160;&#160;&#160;&#160;&#160;&#160;&#160;&#160;&#160;&#160;&#160;&#160;&#160;&#160;&#160;&#160;&#160;&#160;&#160;&#160;&#160;&#160;&#160;&#160;&#160;&#160;&#160;&#160;&#160;&#160;&#160;</text>
<polygon fill="none" stroke="#99ccff" points="966.75,-290.5 966.75,-310 1060.5,-310 1060.5,-290.5 966.75,-290.5"/>
<text text-anchor="start" x="976.5" y="-296.55" font-family="Courier,monospace" font-size="11.00">string(255)</text>
<polygon fill="none" stroke="#99ccff" points="279,-271 279,-290.5 966.75,-290.5 966.75,-271 279,-271"/>
<text text-anchor="start" x="282" y="-277.05" font-family="Courier,monospace" font-size="11.00"> &#160;&#160;&#160;&#160;&#160;&#160;&#160;&#160;&#160;&#160;&#160;&#160;&#160;&#160;&#160;&#160;&#160;&#160;&#160;&#160;&#160;&#160;&#160;&#160;&#160;&#160;&#160;&#160;&#160;&#160;&#160;&#160;&#160;&#160;&#160;&#160;&#160;&#160;&#160;&#160;LastModifiedById &#160;&#160;&#160;&#160;&#160;&#160;&#160;&#160;&#160;&#160;&#160;&#160;&#160;&#160;&#160;&#160;&#160;&#160;&#160;&#160;&#160;&#160;&#160;&#160;&#160;&#160;&#160;&#160;&#160;&#160;&#160;&#160;&#160;&#160;&#160;&#160;&#160;&#160;</text>
<polygon fill="none" stroke="#99ccff" points="966.75,-271 966.75,-290.5 1060.5,-290.5 1060.5,-271 966.75,-271"/>
<text text-anchor="start" x="969.75" y="-277.05" font-family="Courier,monospace" font-size="11.00">reference(18)</text>
<polygon fill="none" stroke="#99ccff" points="279,-251.5 279,-271 966.75,-271 966.75,-251.5 279,-251.5"/>
<text text-anchor="start" x="282" y="-257.55" font-family="Courier,monospace" font-size="11.00"> &#160;&#160;&#160;&#160;&#160;&#160;&#160;&#160;&#160;&#160;&#160;&#160;&#160;&#160;&#160;&#160;&#160;&#160;&#160;&#160;&#160;&#160;&#160;&#160;&#160;&#160;&#160;&#160;&#160;&#160;&#160;&#160;&#160;&#160;&#160;&#160;&#160;&#160;&#160;&#160;LastViewedDate &#160;&#160;&#160;&#160;&#160;&#160;&#160;&#160;&#160;&#160;&#160;&#160;&#160;&#160;&#160;&#160;&#160;&#160;&#160;&#160;&#160;&#160;&#160;&#160;&#160;&#160;&#160;&#160;&#160;&#160;&#160;&#160;&#160;&#160;&#160;&#160;&#160;&#160;</text>
<polygon fill="none" stroke="#99ccff" points="966.75,-251.5 966.75,-271 1060.5,-271 1060.5,-251.5 966.75,-251.5"/>
<text text-anchor="start" x="986.62" y="-257.55" font-family="Courier,monospace" font-size="11.00">datetime</text>
<polygon fill="none" stroke="#99ccff" points="279,-232 279,-251.5 966.75,-251.5 966.75,-232 279,-232"/>
<text text-anchor="start" x="282" y="-238.05" font-family="Courier,monospace" font-size="11.00"> &#160;&#160;&#160;&#160;&#160;&#160;&#160;&#160;&#160;&#160;&#160;&#160;&#160;&#160;&#160;&#160;&#160;&#160;&#160;&#160;&#160;&#160;&#160;&#160;&#160;&#160;&#160;&#160;&#160;&#160;&#160;&#160;&#160;&#160;&#160;&#160;&#160;&#160;&#160;&#160;LastReferencedDate &#160;&#160;&#160;&#160;&#160;&#160;&#160;&#160;&#160;&#160;&#160;&#160;&#160;&#160;&#160;&#160;&#160;&#160;&#160;&#160;&#160;&#160;&#160;&#160;&#160;&#160;&#160;&#160;&#160;&#160;&#160;&#160;&#160;&#160;&#160;&#160;&#160;&#160;</text>
<polygon fill="none" stroke="#99ccff" points="966.75,-232 966.75,-251.5 1060.5,-251.5 1060.5,-232 966.75,-232"/>
<text text-anchor="start" x="986.62" y="-238.05" font-family="Courier,monospace" font-size="11.00">datetime</text>
<polygon fill="none" stroke="#99ccff" points="279,-212.5 279,-232 966.75,-232 966.75,-212.5 279,-212.5"/>
<text text-anchor="start" x="282" y="-218.55" font-family="Courier,monospace" font-size="11.00"> &#160;&#160;&#160;&#160;&#160;&#160;&#160;&#160;&#160;&#160;&#160;&#160;&#160;&#160;&#160;&#160;&#160;&#160;&#160;&#160;&#160;&#160;&#160;&#160;&#160;&#160;&#160;&#160;&#160;&#160;&#160;&#160;&#160;&#160;&#160;&#160;&#160;&#160;&#160;&#160;ContributingProductId &#160;&#160;&#160;&#160;&#160;&#160;&#160;&#160;&#160;&#160;&#160;&#160;&#160;&#160;&#160;&#160;&#160;&#160;&#160;&#160;&#160;&#160;&#160;&#160;&#160;&#160;&#160;&#160;&#160;&#160;&#160;&#160;&#160;&#160;&#160;&#160;&#160;&#160;</text>
<polygon fill="none" stroke="#99ccff" points="966.75,-212.5 966.75,-232 1060.5,-232 1060.5,-212.5 966.75,-212.5"/>
<text text-anchor="start" x="969.75" y="-218.55" font-family="Courier,monospace" font-size="11.00">reference(18)</text>
<polygon fill="none" stroke="#99ccff" points="279,-193 279,-212.5 966.75,-212.5 966.75,-193 279,-193"/>
<text text-anchor="start" x="282" y="-199.05" font-family="Courier,monospace" font-size="11.00"> &#160;&#160;&#160;&#160;&#160;&#160;&#160;&#160;&#160;&#160;&#160;&#160;&#160;&#160;&#160;&#160;&#160;&#160;&#160;&#160;&#160;&#160;&#160;&#160;&#160;&#160;&#160;&#160;&#160;&#160;&#160;&#160;&#160;&#160;&#160;&#160;&#160;&#160;&#160;&#160;PricebookEntryId &#160;&#160;&#160;&#160;&#160;&#160;&#160;&#160;&#160;&#160;&#160;&#160;&#160;&#160;&#160;&#160;&#160;&#160;&#160;&#160;&#160;&#160;&#160;&#160;&#160;&#160;&#160;&#160;&#160;&#160;&#160;&#160;&#160;&#160;&#160;&#160;&#160;&#160;</text>
<polygon fill="none" stroke="#99ccff" points="966.75,-193 966.75,-212.5 1060.5,-212.5 1060.5,-193 966.75,-193"/>
<text text-anchor="start" x="969.75" y="-199.05" font-family="Courier,monospace" font-size="11.00">reference(18)</text>
<polygon fill="none" stroke="#99ccff" points="279,-173.5 279,-193 966.75,-193 966.75,-173.5 279,-173.5"/>
<text text-anchor="start" x="282" y="-179.55" font-family="Courier,monospace" font-size="11.00"> &#160;&#160;&#160;&#160;&#160;&#160;&#160;&#160;&#160;&#160;&#160;&#160;&#160;&#160;&#160;&#160;&#160;&#160;&#160;&#160;&#160;&#160;&#160;&#160;&#160;&#160;&#160;&#160;&#160;&#160;&#160;&#160;&#160;&#160;&#160;&#160;&#160;&#160;&#160;&#160;DerivedPricingScope &#160;&#160;&#160;&#160;&#160;&#160;&#160;&#160;&#160;&#160;&#160;&#160;&#160;&#160;&#160;&#160;&#160;&#160;&#160;&#160;&#160;&#160;&#160;&#160;&#160;&#160;&#160;&#160;&#160;&#160;&#160;&#160;&#160;&#160;&#160;&#160;&#160;&#160;</text>
<polygon fill="none" stroke="#99ccff" points="966.75,-173.5 966.75,-193 1060.5,-193 1060.5,-173.5 966.75,-173.5"/>
<text text-anchor="start" x="969.75" y="-179.55" font-family="Courier,monospace" font-size="11.00">picklist(255)</text>
<polygon fill="none" stroke="#99ccff" points="279,-154 279,-173.5 966.75,-173.5 966.75,-154 279,-154"/>
<text text-anchor="start" x="282" y="-160.05" font-family="Courier,monospace" font-size="11.00"> &#160;&#160;&#160;&#160;&#160;&#160;&#160;&#160;&#160;&#160;&#160;&#160;&#160;&#160;&#160;&#160;&#160;&#160;&#160;&#160;&#160;&#160;&#160;&#160;&#160;&#160;&#160;&#160;&#160;&#160;&#160;&#160;&#160;&#160;&#160;&#160;&#160;&#160;&#160;&#160;EffectiveFrom &#160;&#160;&#160;&#160;&#160;&#160;&#160;&#160;&#160;&#160;&#160;&#160;&#160;&#160;&#160;&#160;&#160;&#160;&#160;&#160;&#160;&#160;&#160;&#160;&#160;&#160;&#160;&#160;&#160;&#160;&#160;&#160;&#160;&#160;&#160;&#160;&#160;&#160;</text>
<polygon fill="none" stroke="#99ccff" points="966.75,-154 966.75,-173.5 1060.5,-173.5 1060.5,-154 966.75,-154"/>
<text text-anchor="start" x="986.62" y="-160.05" font-family="Courier,monospace" font-size="11.00">datetime</text>
<polygon fill="none" stroke="#99ccff" points="279,-134.5 279,-154 966.75,-154 966.75,-134.5 279,-134.5"/>
<text text-anchor="start" x="282" y="-140.55" font-family="Courier,monospace" font-size="11.00"> &#160;&#160;&#160;&#160;&#160;&#160;&#160;&#160;&#160;&#160;&#160;&#160;&#160;&#160;&#160;&#160;&#160;&#160;&#160;&#160;&#160;&#160;&#160;&#160;&#160;&#160;&#160;&#160;&#160;&#160;&#160;&#160;&#160;&#160;&#160;&#160;&#160;&#160;&#160;&#160;EffectiveTo &#160;&#160;&#160;&#160;&#160;&#160;&#160;&#160;&#160;&#160;&#160;&#160;&#160;&#160;&#160;&#160;&#160;&#160;&#160;&#160;&#160;&#160;&#160;&#160;&#160;&#160;&#160;&#160;&#160;&#160;&#160;&#160;&#160;&#160;&#160;&#160;&#160;&#160;</text>
<polygon fill="none" stroke="#99ccff" points="966.75,-134.5 966.75,-154 1060.5,-154 1060.5,-134.5 966.75,-134.5"/>
<text text-anchor="start" x="986.62" y="-140.55" font-family="Courier,monospace" font-size="11.00">datetime</text>
<polygon fill="none" stroke="#99ccff" points="279,-115 279,-134.5 966.75,-134.5 966.75,-115 279,-115"/>
<text text-anchor="start" x="282" y="-121.05" font-family="Courier,monospace" font-size="11.00"> &#160;&#160;&#160;&#160;&#160;&#160;&#160;&#160;&#160;&#160;&#160;&#160;&#160;&#160;&#160;&#160;&#160;&#160;&#160;&#160;&#160;&#160;&#160;&#160;&#160;&#160;&#160;&#160;&#160;&#160;&#160;&#160;&#160;&#160;&#160;&#160;&#160;&#160;&#160;&#160;Formula &#160;&#160;&#160;&#160;&#160;&#160;&#160;&#160;&#160;&#160;&#160;&#160;&#160;&#160;&#160;&#160;&#160;&#160;&#160;&#160;&#160;&#160;&#160;&#160;&#160;&#160;&#160;&#160;&#160;&#160;&#160;&#160;&#160;&#160;&#160;&#160;&#160;&#160;</text>
<polygon fill="none" stroke="#99ccff" points="966.75,-115 966.75,-134.5 1060.5,-134.5 1060.5,-115 966.75,-115"/>
<text text-anchor="start" x="976.5" y="-121.05" font-family="Courier,monospace" font-size="11.00">string(256)</text>
<polygon fill="none" stroke="#99ccff" points="279,-95.5 279,-115 966.75,-115 966.75,-95.5 279,-95.5"/>
<text text-anchor="start" x="282" y="-101.55" font-family="Courier,monospace" font-size="11.00"> &#160;&#160;&#160;&#160;&#160;&#160;&#160;&#160;&#160;&#160;&#160;&#160;&#160;&#160;&#160;&#160;&#160;&#160;&#160;&#160;&#160;&#160;&#160;&#160;&#160;&#160;&#160;&#160;&#160;&#160;&#160;&#160;&#160;&#160;&#160;&#160;&#160;&#160;&#160;&#160;PricingSource &#160;&#160;&#160;&#160;&#160;&#160;&#160;&#160;&#160;&#160;&#160;&#160;&#160;&#160;&#160;&#160;&#160;&#160;&#160;&#160;&#160;&#160;&#160;&#160;&#160;&#160;&#160;&#160;&#160;&#160;&#160;&#160;&#160;&#160;&#160;&#160;&#160;&#160;</text>
<polygon fill="none" stroke="#99ccff" points="966.75,-95.5 966.75,-115 1060.5,-115 1060.5,-95.5 966.75,-95.5"/>
<text text-anchor="start" x="969.75" y="-101.55" font-family="Courier,monospace" font-size="11.00">picklist(255)</text>
<polygon fill="none" stroke="#99ccff" points="279,-76 279,-95.5 966.75,-95.5 966.75,-76 279,-76"/>
<text text-anchor="start" x="282" y="-82.05" font-family="Courier,monospace" font-size="11.00"> &#160;&#160;&#160;&#160;&#160;&#160;&#160;&#160;&#160;&#160;&#160;&#160;&#160;&#160;&#160;&#160;&#160;&#160;&#160;&#160;&#160;&#160;&#160;&#160;&#160;&#160;&#160;&#160;&#160;&#160;&#160;&#160;&#160;&#160;&#160;&#160;&#160;&#160;&#160;&#160;PricebookId &#160;&#160;&#160;&#160;&#160;&#160;&#160;&#160;&#160;&#160;&#160;&#160;&#160;&#160;&#160;&#160;&#160;&#160;&#160;&#160;&#160;&#160;&#160;&#160;&#160;&#160;&#160;&#160;&#160;&#160;&#160;&#160;&#160;&#160;&#160;&#160;&#160;&#160;</text>
<polygon fill="none" stroke="#99ccff" points="966.75,-76 966.75,-95.5 1060.5,-95.5 1060.5,-76 966.75,-76"/>
<text text-anchor="start" x="969.75" y="-82.05" font-family="Courier,monospace" font-size="11.00">reference(18)</text>
<polygon fill="none" stroke="#99ccff" points="279,-56.5 279,-76 966.75,-76 966.75,-56.5 279,-56.5"/>
<text text-anchor="start" x="282" y="-62.55" font-family="Courier,monospace" font-size="11.00"> &#160;&#160;&#160;&#160;&#160;&#160;&#160;&#160;&#160;&#160;&#160;&#160;&#160;&#160;&#160;&#160;&#160;&#160;&#160;&#160;&#160;&#160;&#160;&#160;&#160;&#160;&#160;&#160;&#160;&#160;&#160;&#160;&#160;&#160;&#160;&#160;&#160;&#160;&#160;&#160;ProductId &#160;&#160;&#160;&#160;&#160;&#160;&#160;&#160;&#160;&#160;&#160;&#160;&#160;&#160;&#160;&#160;&#160;&#160;&#160;&#160;&#160;&#160;&#160;&#160;&#160;&#160;&#160;&#160;&#160;&#160;&#160;&#160;&#160;&#160;&#160;&#160;&#160;&#160;</text>
<polygon fill="none" stroke="#99ccff" points="966.75,-56.5 966.75,-76 1060.5,-76 1060.5,-56.5 966.75,-56.5"/>
<text text-anchor="start" x="969.75" y="-62.55" font-family="Courier,monospace" font-size="11.00">reference(18)</text>
<polygon fill="none" stroke="#99ccff" points="279,-37 279,-56.5 966.75,-56.5 966.75,-37 279,-37"/>
<text text-anchor="start" x="282" y="-43.05" font-family="Courier,monospace" font-size="11.00"> &#160;&#160;&#160;&#160;&#160;&#160;&#160;&#160;&#160;&#160;&#160;&#160;&#160;&#160;&#160;&#160;&#160;&#160;&#160;&#160;&#160;&#160;&#160;&#160;&#160;&#160;&#160;&#160;&#160;&#160;&#160;&#160;&#160;&#160;&#160;&#160;&#160;&#160;&#160;&#160;ProductSellingModelId &#160;&#160;&#160;&#160;&#160;&#160;&#160;&#160;&#160;&#160;&#160;&#160;&#160;&#160;&#160;&#160;&#160;&#160;&#160;&#160;&#160;&#160;&#160;&#160;&#160;&#160;&#160;&#160;&#160;&#160;&#160;&#160;&#160;&#160;&#160;&#160;&#160;&#160;</text>
<polygon fill="none" stroke="#99ccff" points="966.75,-37 966.75,-56.5 1060.5,-56.5 1060.5,-37 966.75,-37"/>
<text text-anchor="start" x="969.75" y="-43.05" font-family="Courier,monospace" font-size="11.00">reference(18)</text>
<polygon fill="none" stroke="#99ccff" points="278,-36 278,-389 1061.5,-389 1061.5,-36 278,-36"/>
</a>
</g>
</g>
<!-- Group -->
<g id="node2" class="node">
<title>Group</title>
<text text-anchor="middle" x="72.12" y="-334.8" font-family="Courier,monospace" font-size="11.00">Group</text>
</g>
<!-- PriceBookEntryDerivedPrice&#45;&gt;Group -->
<g id="edge1" class="edge">
<title>PriceBookEntryDerivedPrice:w&#45;&gt;Group:e</title>
<path fill="none" stroke="#ff99cc" d="M262.34,-339.24C201.72,-339.19 134.75,-338.86 99,-338.66"/>
<polygon fill="#ff99cc" stroke="#ff99cc" points="269.67,-339.25 277.66,-342.85 274,-339.25 277.33,-339.25 277.33,-339.25 277.33,-339.25 274,-339.25 277.67,-335.65 269.67,-339.25"/>
<ellipse fill="none" stroke="#ff99cc" cx="264.75" cy="-339.24" rx="3.2" ry="3.2"/>
<text text-anchor="middle" x="211.12" y="-341.94" font-family="Monaco" font-size="9.00">Owner</text>
</g>
<!-- User -->
<g id="node3" class="node">
<title>User</title>
<text text-anchor="middle" x="72.12" y="-281.8" font-family="Courier,monospace" font-size="11.00">User</text>
</g>
<!-- PriceBookEntryDerivedPrice&#45;&gt;User -->
<g id="edge2" class="edge">
<title>PriceBookEntryDerivedPrice:w&#45;&gt;User:e</title>
<path fill="none" stroke="#ff99cc" d="M268.39,-326.82C267.57,-321.17 266.61,-314.93 261,-311.25 247.68,-302.51 147.16,-292.27 98.87,-287.79"/>
<polygon fill="#ff99cc" stroke="#ff99cc" points="272.9,-332.66 274.95,-341.19 275.55,-336.09 277.59,-338.72 277.59,-338.72 277.59,-338.72 275.55,-336.09 280.64,-336.78 272.9,-332.66"/>
<ellipse fill="none" stroke="#ff99cc" cx="269.9" cy="-328.76" rx="3.2" ry="3.2"/>
<text text-anchor="middle" x="211.12" y="-313.95" font-family="Monaco" font-size="9.00">Owner</text>
</g>
<!-- PriceBookEntryDerivedPrice&#45;&gt;User -->
<g id="edge3" class="edge">
<title>PriceBookEntryDerivedPrice:w&#45;&gt;User:e</title>
<path fill="none" stroke="#ff99cc" d="M262.35,-280.27C261.92,-280.26 261.47,-280.26 261,-280.25 216.67,-279.6 205.56,-278.93 161.25,-280.25 140.26,-280.87 116.5,-282.33 98.94,-283.56"/>
<polygon fill="#ff99cc" stroke="#ff99cc" points="269.67,-280.5 277.56,-284.34 274,-280.63 277.33,-280.73 277.33,-280.73 277.33,-280.73 274,-280.63 277.78,-277.14 269.67,-280.5"/>
<ellipse fill="none" stroke="#ff99cc" cx="264.75" cy="-280.35" rx="3.2" ry="3.2"/>
<text text-anchor="middle" x="211.12" y="-282.95" font-family="Monaco" font-size="9.00">LastModifiedBy</text>
</g>
<!-- Product2 -->
<g id="node4" class="node">
<title>Product2</title>
<text text-anchor="middle" x="72.12" y="-81.8" font-family="Courier,monospace" font-size="11.00">Product2</text>
</g>
<!-- PriceBookEntryDerivedPrice&#45;&gt;Product2 -->
<g id="edge4" class="edge">
<title>PriceBookEntryDerivedPrice:w&#45;&gt;Product2:e</title>
<path fill="none" stroke="#ff99cc" d="M262.21,-222.79C219.77,-225.61 194.91,-237.23 161.25,-204.5 130.81,-174.9 171.79,-142.81 144.25,-110.5 134.91,-99.54 120.47,-93.39 107.03,-89.93"/>
<polygon fill="#ff99cc" stroke="#ff99cc" points="269.67,-222.54 277.79,-225.86 274,-222.39 277.33,-222.27 277.33,-222.27 277.33,-222.27 274,-222.39 277.54,-218.66 269.67,-222.54"/>
<ellipse fill="none" stroke="#ff99cc" cx="264.75" cy="-222.7" rx="3.2" ry="3.2"/>
<text text-anchor="middle" x="211.12" y="-229.8" font-family="Monaco" font-size="9.00">ContributingProduct</text>
</g>
<!-- PriceBookEntryDerivedPrice&#45;&gt;Product2 -->
<g id="edge7" class="edge">
<title>PriceBookEntryDerivedPrice:w&#45;&gt;Product2:e</title>
<path fill="none" stroke="#ff99cc" d="M262.25,-66.43C205.82,-67.67 144.19,-75.13 107.11,-80.34"/>
<polygon fill="#ff99cc" stroke="#ff99cc" points="269.67,-66.34 277.71,-69.85 274,-66.3 277.33,-66.26 277.33,-66.26 277.33,-66.26 274,-66.3 277.62,-62.65 269.67,-66.34"/>
<ellipse fill="none" stroke="#ff99cc" cx="264.75" cy="-66.4" rx="3.2" ry="3.2"/>
<text text-anchor="middle" x="211.12" y="-75.73" font-family="Monaco" font-size="9.00">Product</text>
</g>
<!-- PricebookEntry -->
<g id="node5" class="node">
<title>PricebookEntry</title>
<text text-anchor="middle" x="72.12" y="-188.8" font-family="Courier,monospace" font-size="11.00">PricebookEntry</text>
</g>
<!-- PriceBookEntryDerivedPrice&#45;&gt;PricebookEntry -->
<g id="edge5" class="edge">
<title>PriceBookEntryDerivedPrice:w&#45;&gt;PricebookEntry:e</title>
<path fill="none" stroke="#ff99cc" d="M264.04,-195.32C263.15,-194.9 262.15,-194.53 261,-194.25 216.92,-183.63 165.32,-184.02 127.36,-186.61"/>
<polygon fill="#ff99cc" stroke="#ff99cc" points="270.64,-198.84 276.01,-205.77 274.47,-200.87 277.41,-202.44 277.41,-202.44 277.41,-202.44 274.47,-200.87 279.4,-199.41 270.64,-198.84"/>
<ellipse fill="none" stroke="#ff99cc" cx="266.3" cy="-196.52" rx="3.2" ry="3.2"/>
<text text-anchor="middle" x="211.12" y="-196.95" font-family="Monaco" font-size="9.00">PricebookEntry</text>
</g>
<!-- Pricebook2 -->
<g id="node6" class="node">
<title>Pricebook2</title>
<text text-anchor="middle" x="72.12" y="-130.8" font-family="Courier,monospace" font-size="11.00">Pricebook2</text>
</g>
<!-- PriceBookEntryDerivedPrice&#45;&gt;Pricebook2 -->
<g id="edge6" class="edge">
<title>PriceBookEntryDerivedPrice:w&#45;&gt;Pricebook2:e</title>
<path fill="none" stroke="#ff99cc" d="M262.7,-89.15C231.4,-96.43 159.29,-113.75 113.58,-124.75"/>
<polygon fill="#ff99cc" stroke="#ff99cc" points="269.86,-87.56 278.46,-89.34 274.1,-86.62 277.35,-85.9 277.35,-85.9 277.35,-85.9 274.1,-86.62 276.89,-82.31 269.86,-87.56"/>
<ellipse fill="none" stroke="#ff99cc" cx="265.06" cy="-88.63" rx="3.2" ry="3.2"/>
<text text-anchor="middle" x="211.12" y="-115.74" font-family="Monaco" font-size="9.00">Pricebook</text>
</g>
<!-- ProductSellingModel -->
<g id="node7" class="node">
<title>ProductSellingModel</title>
<text text-anchor="middle" x="72.12" y="-32.8" font-family="Courier,monospace" font-size="11.00">ProductSellingModel</text>
</g>
<!-- PriceBookEntryDerivedPrice&#45;&gt;ProductSellingModel -->
<g id="edge8" class="edge">
<title>PriceBookEntryDerivedPrice:w&#45;&gt;ProductSellingModel:e</title>
<path fill="none" stroke="#ff99cc" d="M262.42,-46.66C222.12,-46.19 179.05,-44.02 144.19,-41.81"/>
<polygon fill="#ff99cc" stroke="#ff99cc" points="269.67,-46.7 277.64,-50.35 274,-46.73 277.33,-46.75 277.33,-46.75 277.33,-46.75 274,-46.73 277.69,-43.15 269.67,-46.7"/>
<ellipse fill="none" stroke="#ff99cc" cx="264.75" cy="-46.67" rx="3.2" ry="3.2"/>
<text text-anchor="middle" x="211.12" y="-49.26" font-family="Monaco" font-size="9.00">ProductSellingModel</text>
</g>
</g>
</svg>
