<?xml version="1.0" encoding="UTF-8" standalone="no"?>
<!DOCTYPE svg PUBLIC "-//W3C//DTD SVG 1.1//EN"
 "http://www.w3.org/Graphics/SVG/1.1/DTD/svg11.dtd">
<!-- Generated by graphviz version 12.2.1 (20241206.2353)
 -->
<!-- Title: Salesforce+ ERD Pages: 1 -->
<svg width="973pt" height="399pt"
 viewBox="0.00 0.00 973.25 399.00" xmlns="http://www.w3.org/2000/svg" xmlns:xlink="http://www.w3.org/1999/xlink">
<g id="graph0" class="graph" transform="scale(1 1) rotate(0) translate(4 395)">
<title>Salesforce+ ERD</title>
<polygon fill="#efeffd" stroke="none" points="-4,4 -4,-395 969.25,-395 969.25,4 -4,4"/>
<text text-anchor="middle" x="917.88" y="-5.95" font-family="Courier,monospace" font-size="9.00">Salesforce ERD </text>
<!-- PricingAdjBatchJob -->
<g id="node1" class="node">
<title>PricingAdjBatchJob</title>
<g id="a_node1"><a xlink:href="#" xlink:title=" PricingAdjBatchJob ">
<polygon fill="#ffeeff" stroke="none" points="161.5,-18.5 161.5,-391 965.25,-391 965.25,-18.5 161.5,-18.5"/>
<polygon fill="lightblue" stroke="none" points="162.5,-370.5 162.5,-390 964.25,-390 964.25,-370.5 162.5,-370.5"/>
<polygon fill="none" stroke="#99ccff" points="162.5,-370.5 162.5,-390 964.25,-390 964.25,-370.5 162.5,-370.5"/>
<text text-anchor="start" x="502.62" y="-377.55" font-family="Courier,monospace" font-weight="bold" font-size="11.00">PricingAdjBatchJob</text>
<polygon fill="#99ccff" stroke="none" points="162.5,-351 162.5,-370.5 850.25,-370.5 850.25,-351 162.5,-351"/>
<polygon fill="none" stroke="#99ccff" points="162.5,-351 162.5,-370.5 850.25,-370.5 850.25,-351 162.5,-351"/>
<text text-anchor="start" x="165.5" y="-358.05" font-family="Courier,monospace" font-size="11.00"> &#160;&#160;&#160;&#160;&#160;&#160;&#160;&#160;&#160;&#160;&#160;&#160;&#160;&#160;&#160;&#160;&#160;&#160;&#160;&#160;&#160;&#160;&#160;&#160;&#160;&#160;&#160;&#160;&#160;&#160;&#160;&#160;&#160;&#160;&#160;&#160;&#160;&#160;&#160;&#160;&#160;&#160;</text>
<text text-anchor="start" x="455.75" y="-358.05" font-family="Courier,monospace" font-weight="bold" font-size="11.00">Id</text>
<text text-anchor="start" x="469.25" y="-358.05" font-family="Courier,monospace" font-size="11.00"> &#160;&#160;&#160;&#160;&#160;&#160;&#160;&#160;&#160;&#160;&#160;&#160;&#160;&#160;&#160;&#160;&#160;&#160;&#160;&#160;&#160;&#160;&#160;&#160;&#160;&#160;&#160;&#160;&#160;&#160;&#160;&#160;&#160;&#160;&#160;&#160;&#160;&#160;&#160;</text>
<polygon fill="none" stroke="#99ccff" points="850.25,-351 850.25,-370.5 964.25,-370.5 964.25,-351 850.25,-351"/>
<text text-anchor="start" x="887" y="-357.05" font-family="Courier,monospace" font-size="11.00">id(18)</text>
<polygon fill="none" stroke="#99ccff" points="162.5,-331.5 162.5,-351 850.25,-351 850.25,-331.5 162.5,-331.5"/>
<text text-anchor="start" x="165.5" y="-337.55" font-family="Courier,monospace" font-size="11.00"> &#160;&#160;&#160;&#160;&#160;&#160;&#160;&#160;&#160;&#160;&#160;&#160;&#160;&#160;&#160;&#160;&#160;&#160;&#160;&#160;&#160;&#160;&#160;&#160;&#160;&#160;&#160;&#160;&#160;&#160;&#160;&#160;&#160;&#160;&#160;&#160;&#160;&#160;&#160;&#160;OwnerId &#160;&#160;&#160;&#160;&#160;&#160;&#160;&#160;&#160;&#160;&#160;&#160;&#160;&#160;&#160;&#160;&#160;&#160;&#160;&#160;&#160;&#160;&#160;&#160;&#160;&#160;&#160;&#160;&#160;&#160;&#160;&#160;&#160;&#160;&#160;&#160;&#160;&#160;</text>
<polygon fill="none" stroke="#99ccff" points="850.25,-331.5 850.25,-351 964.25,-351 964.25,-331.5 850.25,-331.5"/>
<text text-anchor="start" x="863.38" y="-337.55" font-family="Courier,monospace" font-size="11.00">reference(18)</text>
<polygon fill="none" stroke="#99ccff" points="162.5,-312 162.5,-331.5 850.25,-331.5 850.25,-312 162.5,-312"/>
<text text-anchor="start" x="165.5" y="-318.05" font-family="Courier,monospace" font-size="11.00"> &#160;&#160;&#160;&#160;&#160;&#160;&#160;&#160;&#160;&#160;&#160;&#160;&#160;&#160;&#160;&#160;&#160;&#160;&#160;&#160;&#160;&#160;&#160;&#160;&#160;&#160;&#160;&#160;&#160;&#160;&#160;&#160;&#160;&#160;&#160;&#160;&#160;&#160;&#160;&#160;IsDeleted &#160;&#160;&#160;&#160;&#160;&#160;&#160;&#160;&#160;&#160;&#160;&#160;&#160;&#160;&#160;&#160;&#160;&#160;&#160;&#160;&#160;&#160;&#160;&#160;&#160;&#160;&#160;&#160;&#160;&#160;&#160;&#160;&#160;&#160;&#160;&#160;&#160;&#160;</text>
<polygon fill="none" stroke="#99ccff" points="850.25,-312 850.25,-331.5 964.25,-331.5 964.25,-312 850.25,-312"/>
<text text-anchor="start" x="883.62" y="-318.05" font-family="Courier,monospace" font-size="11.00">boolean</text>
<polygon fill="none" stroke="#99ccff" points="162.5,-292.5 162.5,-312 850.25,-312 850.25,-292.5 162.5,-292.5"/>
<text text-anchor="start" x="165.5" y="-298.55" font-family="Courier,monospace" font-size="11.00"> &#160;&#160;&#160;&#160;&#160;&#160;&#160;&#160;&#160;&#160;&#160;&#160;&#160;&#160;&#160;&#160;&#160;&#160;&#160;&#160;&#160;&#160;&#160;&#160;&#160;&#160;&#160;&#160;&#160;&#160;&#160;&#160;&#160;&#160;&#160;&#160;&#160;&#160;&#160;&#160;Name &#160;&#160;&#160;&#160;&#160;&#160;&#160;&#160;&#160;&#160;&#160;&#160;&#160;&#160;&#160;&#160;&#160;&#160;&#160;&#160;&#160;&#160;&#160;&#160;&#160;&#160;&#160;&#160;&#160;&#160;&#160;&#160;&#160;&#160;&#160;&#160;&#160;&#160;</text>
<polygon fill="none" stroke="#99ccff" points="850.25,-292.5 850.25,-312 964.25,-312 964.25,-292.5 850.25,-292.5"/>
<text text-anchor="start" x="870.12" y="-298.55" font-family="Courier,monospace" font-size="11.00">string(255)</text>
<polygon fill="none" stroke="#99ccff" points="162.5,-273 162.5,-292.5 850.25,-292.5 850.25,-273 162.5,-273"/>
<text text-anchor="start" x="165.5" y="-279.05" font-family="Courier,monospace" font-size="11.00"> &#160;&#160;&#160;&#160;&#160;&#160;&#160;&#160;&#160;&#160;&#160;&#160;&#160;&#160;&#160;&#160;&#160;&#160;&#160;&#160;&#160;&#160;&#160;&#160;&#160;&#160;&#160;&#160;&#160;&#160;&#160;&#160;&#160;&#160;&#160;&#160;&#160;&#160;&#160;&#160;LastModifiedById &#160;&#160;&#160;&#160;&#160;&#160;&#160;&#160;&#160;&#160;&#160;&#160;&#160;&#160;&#160;&#160;&#160;&#160;&#160;&#160;&#160;&#160;&#160;&#160;&#160;&#160;&#160;&#160;&#160;&#160;&#160;&#160;&#160;&#160;&#160;&#160;&#160;&#160;</text>
<polygon fill="none" stroke="#99ccff" points="850.25,-273 850.25,-292.5 964.25,-292.5 964.25,-273 850.25,-273"/>
<text text-anchor="start" x="863.38" y="-279.05" font-family="Courier,monospace" font-size="11.00">reference(18)</text>
<polygon fill="none" stroke="#99ccff" points="162.5,-253.5 162.5,-273 850.25,-273 850.25,-253.5 162.5,-253.5"/>
<text text-anchor="start" x="165.5" y="-259.55" font-family="Courier,monospace" font-size="11.00"> &#160;&#160;&#160;&#160;&#160;&#160;&#160;&#160;&#160;&#160;&#160;&#160;&#160;&#160;&#160;&#160;&#160;&#160;&#160;&#160;&#160;&#160;&#160;&#160;&#160;&#160;&#160;&#160;&#160;&#160;&#160;&#160;&#160;&#160;&#160;&#160;&#160;&#160;&#160;&#160;LastViewedDate &#160;&#160;&#160;&#160;&#160;&#160;&#160;&#160;&#160;&#160;&#160;&#160;&#160;&#160;&#160;&#160;&#160;&#160;&#160;&#160;&#160;&#160;&#160;&#160;&#160;&#160;&#160;&#160;&#160;&#160;&#160;&#160;&#160;&#160;&#160;&#160;&#160;&#160;</text>
<polygon fill="none" stroke="#99ccff" points="850.25,-253.5 850.25,-273 964.25,-273 964.25,-253.5 850.25,-253.5"/>
<text text-anchor="start" x="880.25" y="-259.55" font-family="Courier,monospace" font-size="11.00">datetime</text>
<polygon fill="none" stroke="#99ccff" points="162.5,-234 162.5,-253.5 850.25,-253.5 850.25,-234 162.5,-234"/>
<text text-anchor="start" x="165.5" y="-240.05" font-family="Courier,monospace" font-size="11.00"> &#160;&#160;&#160;&#160;&#160;&#160;&#160;&#160;&#160;&#160;&#160;&#160;&#160;&#160;&#160;&#160;&#160;&#160;&#160;&#160;&#160;&#160;&#160;&#160;&#160;&#160;&#160;&#160;&#160;&#160;&#160;&#160;&#160;&#160;&#160;&#160;&#160;&#160;&#160;&#160;LastReferencedDate &#160;&#160;&#160;&#160;&#160;&#160;&#160;&#160;&#160;&#160;&#160;&#160;&#160;&#160;&#160;&#160;&#160;&#160;&#160;&#160;&#160;&#160;&#160;&#160;&#160;&#160;&#160;&#160;&#160;&#160;&#160;&#160;&#160;&#160;&#160;&#160;&#160;&#160;</text>
<polygon fill="none" stroke="#99ccff" points="850.25,-234 850.25,-253.5 964.25,-253.5 964.25,-234 850.25,-234"/>
<text text-anchor="start" x="880.25" y="-240.05" font-family="Courier,monospace" font-size="11.00">datetime</text>
<polygon fill="none" stroke="#99ccff" points="162.5,-214.5 162.5,-234 850.25,-234 850.25,-214.5 162.5,-214.5"/>
<text text-anchor="start" x="165.5" y="-220.55" font-family="Courier,monospace" font-size="11.00"> &#160;&#160;&#160;&#160;&#160;&#160;&#160;&#160;&#160;&#160;&#160;&#160;&#160;&#160;&#160;&#160;&#160;&#160;&#160;&#160;&#160;&#160;&#160;&#160;&#160;&#160;&#160;&#160;&#160;&#160;&#160;&#160;&#160;&#160;&#160;&#160;&#160;&#160;&#160;&#160;TargetObject &#160;&#160;&#160;&#160;&#160;&#160;&#160;&#160;&#160;&#160;&#160;&#160;&#160;&#160;&#160;&#160;&#160;&#160;&#160;&#160;&#160;&#160;&#160;&#160;&#160;&#160;&#160;&#160;&#160;&#160;&#160;&#160;&#160;&#160;&#160;&#160;&#160;&#160;</text>
<polygon fill="none" stroke="#99ccff" points="850.25,-214.5 850.25,-234 964.25,-234 964.25,-214.5 850.25,-214.5"/>
<text text-anchor="start" x="863.38" y="-220.55" font-family="Courier,monospace" font-size="11.00">picklist(255)</text>
<polygon fill="none" stroke="#99ccff" points="162.5,-195 162.5,-214.5 850.25,-214.5 850.25,-195 162.5,-195"/>
<text text-anchor="start" x="165.5" y="-201.05" font-family="Courier,monospace" font-size="11.00"> &#160;&#160;&#160;&#160;&#160;&#160;&#160;&#160;&#160;&#160;&#160;&#160;&#160;&#160;&#160;&#160;&#160;&#160;&#160;&#160;&#160;&#160;&#160;&#160;&#160;&#160;&#160;&#160;&#160;&#160;&#160;&#160;&#160;&#160;&#160;&#160;&#160;&#160;&#160;&#160;UpdateType &#160;&#160;&#160;&#160;&#160;&#160;&#160;&#160;&#160;&#160;&#160;&#160;&#160;&#160;&#160;&#160;&#160;&#160;&#160;&#160;&#160;&#160;&#160;&#160;&#160;&#160;&#160;&#160;&#160;&#160;&#160;&#160;&#160;&#160;&#160;&#160;&#160;&#160;</text>
<polygon fill="none" stroke="#99ccff" points="850.25,-195 850.25,-214.5 964.25,-214.5 964.25,-195 850.25,-195"/>
<text text-anchor="start" x="863.38" y="-201.05" font-family="Courier,monospace" font-size="11.00">picklist(255)</text>
<polygon fill="none" stroke="#99ccff" points="162.5,-175.5 162.5,-195 850.25,-195 850.25,-175.5 162.5,-175.5"/>
<text text-anchor="start" x="165.5" y="-181.55" font-family="Courier,monospace" font-size="11.00"> &#160;&#160;&#160;&#160;&#160;&#160;&#160;&#160;&#160;&#160;&#160;&#160;&#160;&#160;&#160;&#160;&#160;&#160;&#160;&#160;&#160;&#160;&#160;&#160;&#160;&#160;&#160;&#160;&#160;&#160;&#160;&#160;&#160;&#160;&#160;&#160;&#160;&#160;&#160;&#160;UpdateValue &#160;&#160;&#160;&#160;&#160;&#160;&#160;&#160;&#160;&#160;&#160;&#160;&#160;&#160;&#160;&#160;&#160;&#160;&#160;&#160;&#160;&#160;&#160;&#160;&#160;&#160;&#160;&#160;&#160;&#160;&#160;&#160;&#160;&#160;&#160;&#160;&#160;&#160;</text>
<polygon fill="none" stroke="#99ccff" points="850.25,-175.5 850.25,-195 964.25,-195 964.25,-175.5 850.25,-175.5"/>
<text text-anchor="start" x="887" y="-181.55" font-family="Courier,monospace" font-size="11.00">double</text>
<polygon fill="none" stroke="#99ccff" points="162.5,-156 162.5,-175.5 850.25,-175.5 850.25,-156 162.5,-156"/>
<text text-anchor="start" x="165.5" y="-162.05" font-family="Courier,monospace" font-size="11.00"> &#160;&#160;&#160;&#160;&#160;&#160;&#160;&#160;&#160;&#160;&#160;&#160;&#160;&#160;&#160;&#160;&#160;&#160;&#160;&#160;&#160;&#160;&#160;&#160;&#160;&#160;&#160;&#160;&#160;&#160;&#160;&#160;&#160;&#160;&#160;&#160;&#160;&#160;&#160;&#160;Status &#160;&#160;&#160;&#160;&#160;&#160;&#160;&#160;&#160;&#160;&#160;&#160;&#160;&#160;&#160;&#160;&#160;&#160;&#160;&#160;&#160;&#160;&#160;&#160;&#160;&#160;&#160;&#160;&#160;&#160;&#160;&#160;&#160;&#160;&#160;&#160;&#160;&#160;</text>
<polygon fill="none" stroke="#99ccff" points="850.25,-156 850.25,-175.5 964.25,-175.5 964.25,-156 850.25,-156"/>
<text text-anchor="start" x="863.38" y="-162.05" font-family="Courier,monospace" font-size="11.00">picklist(255)</text>
<polygon fill="none" stroke="#99ccff" points="162.5,-136.5 162.5,-156 850.25,-156 850.25,-136.5 162.5,-136.5"/>
<text text-anchor="start" x="165.5" y="-142.55" font-family="Courier,monospace" font-size="11.00"> &#160;&#160;&#160;&#160;&#160;&#160;&#160;&#160;&#160;&#160;&#160;&#160;&#160;&#160;&#160;&#160;&#160;&#160;&#160;&#160;&#160;&#160;&#160;&#160;&#160;&#160;&#160;&#160;&#160;&#160;&#160;&#160;&#160;&#160;&#160;&#160;&#160;&#160;&#160;&#160;EffectiveFrom &#160;&#160;&#160;&#160;&#160;&#160;&#160;&#160;&#160;&#160;&#160;&#160;&#160;&#160;&#160;&#160;&#160;&#160;&#160;&#160;&#160;&#160;&#160;&#160;&#160;&#160;&#160;&#160;&#160;&#160;&#160;&#160;&#160;&#160;&#160;&#160;&#160;&#160;</text>
<polygon fill="none" stroke="#99ccff" points="850.25,-136.5 850.25,-156 964.25,-156 964.25,-136.5 850.25,-136.5"/>
<text text-anchor="start" x="880.25" y="-142.55" font-family="Courier,monospace" font-size="11.00">datetime</text>
<polygon fill="none" stroke="#99ccff" points="162.5,-117 162.5,-136.5 850.25,-136.5 850.25,-117 162.5,-117"/>
<text text-anchor="start" x="165.5" y="-123.05" font-family="Courier,monospace" font-size="11.00"> &#160;&#160;&#160;&#160;&#160;&#160;&#160;&#160;&#160;&#160;&#160;&#160;&#160;&#160;&#160;&#160;&#160;&#160;&#160;&#160;&#160;&#160;&#160;&#160;&#160;&#160;&#160;&#160;&#160;&#160;&#160;&#160;&#160;&#160;&#160;&#160;&#160;&#160;&#160;&#160;EffectiveTo &#160;&#160;&#160;&#160;&#160;&#160;&#160;&#160;&#160;&#160;&#160;&#160;&#160;&#160;&#160;&#160;&#160;&#160;&#160;&#160;&#160;&#160;&#160;&#160;&#160;&#160;&#160;&#160;&#160;&#160;&#160;&#160;&#160;&#160;&#160;&#160;&#160;&#160;</text>
<polygon fill="none" stroke="#99ccff" points="850.25,-117 850.25,-136.5 964.25,-136.5 964.25,-117 850.25,-117"/>
<text text-anchor="start" x="880.25" y="-123.05" font-family="Courier,monospace" font-size="11.00">datetime</text>
<polygon fill="none" stroke="#99ccff" points="162.5,-97.5 162.5,-117 850.25,-117 850.25,-97.5 162.5,-97.5"/>
<text text-anchor="start" x="165.5" y="-103.55" font-family="Courier,monospace" font-size="11.00"> &#160;&#160;&#160;&#160;&#160;&#160;&#160;&#160;&#160;&#160;&#160;&#160;&#160;&#160;&#160;&#160;&#160;&#160;&#160;&#160;&#160;&#160;&#160;&#160;&#160;&#160;&#160;&#160;&#160;&#160;&#160;&#160;&#160;&#160;&#160;&#160;&#160;&#160;&#160;&#160;LastTriggeredDate &#160;&#160;&#160;&#160;&#160;&#160;&#160;&#160;&#160;&#160;&#160;&#160;&#160;&#160;&#160;&#160;&#160;&#160;&#160;&#160;&#160;&#160;&#160;&#160;&#160;&#160;&#160;&#160;&#160;&#160;&#160;&#160;&#160;&#160;&#160;&#160;&#160;&#160;</text>
<polygon fill="none" stroke="#99ccff" points="850.25,-97.5 850.25,-117 964.25,-117 964.25,-97.5 850.25,-97.5"/>
<text text-anchor="start" x="880.25" y="-103.55" font-family="Courier,monospace" font-size="11.00">datetime</text>
<polygon fill="none" stroke="#99ccff" points="162.5,-78 162.5,-97.5 850.25,-97.5 850.25,-78 162.5,-78"/>
<text text-anchor="start" x="165.5" y="-84.05" font-family="Courier,monospace" font-size="11.00"> &#160;&#160;&#160;&#160;&#160;&#160;&#160;&#160;&#160;&#160;&#160;&#160;&#160;&#160;&#160;&#160;&#160;&#160;&#160;&#160;&#160;&#160;&#160;&#160;&#160;&#160;&#160;&#160;&#160;&#160;&#160;&#160;&#160;&#160;&#160;&#160;&#160;&#160;&#160;&#160;RecordList &#160;&#160;&#160;&#160;&#160;&#160;&#160;&#160;&#160;&#160;&#160;&#160;&#160;&#160;&#160;&#160;&#160;&#160;&#160;&#160;&#160;&#160;&#160;&#160;&#160;&#160;&#160;&#160;&#160;&#160;&#160;&#160;&#160;&#160;&#160;&#160;&#160;&#160;</text>
<polygon fill="none" stroke="#99ccff" points="850.25,-78 850.25,-97.5 964.25,-97.5 964.25,-78 850.25,-78"/>
<text text-anchor="start" x="853.25" y="-84.05" font-family="Courier,monospace" font-size="11.00">textarea(131072)</text>
<polygon fill="none" stroke="#99ccff" points="162.5,-58.5 162.5,-78 850.25,-78 850.25,-58.5 162.5,-58.5"/>
<text text-anchor="start" x="165.5" y="-64.55" font-family="Courier,monospace" font-size="11.00"> &#160;&#160;&#160;&#160;&#160;&#160;&#160;&#160;&#160;&#160;&#160;&#160;&#160;&#160;&#160;&#160;&#160;&#160;&#160;&#160;&#160;&#160;&#160;&#160;&#160;&#160;&#160;&#160;&#160;&#160;&#160;&#160;&#160;&#160;&#160;&#160;&#160;&#160;&#160;&#160;RecordCount &#160;&#160;&#160;&#160;&#160;&#160;&#160;&#160;&#160;&#160;&#160;&#160;&#160;&#160;&#160;&#160;&#160;&#160;&#160;&#160;&#160;&#160;&#160;&#160;&#160;&#160;&#160;&#160;&#160;&#160;&#160;&#160;&#160;&#160;&#160;&#160;&#160;&#160;</text>
<polygon fill="none" stroke="#99ccff" points="850.25,-58.5 850.25,-78 964.25,-78 964.25,-58.5 850.25,-58.5"/>
<text text-anchor="start" x="893.75" y="-64.55" font-family="Courier,monospace" font-size="11.00">long</text>
<polygon fill="none" stroke="#99ccff" points="162.5,-39 162.5,-58.5 850.25,-58.5 850.25,-39 162.5,-39"/>
<text text-anchor="start" x="165.5" y="-45.05" font-family="Courier,monospace" font-size="11.00"> &#160;&#160;&#160;&#160;&#160;&#160;&#160;&#160;&#160;&#160;&#160;&#160;&#160;&#160;&#160;&#160;&#160;&#160;&#160;&#160;&#160;&#160;&#160;&#160;&#160;&#160;&#160;&#160;&#160;&#160;&#160;&#160;&#160;&#160;&#160;&#160;&#160;&#160;&#160;&#160;ProcessedRecordsCount &#160;&#160;&#160;&#160;&#160;&#160;&#160;&#160;&#160;&#160;&#160;&#160;&#160;&#160;&#160;&#160;&#160;&#160;&#160;&#160;&#160;&#160;&#160;&#160;&#160;&#160;&#160;&#160;&#160;&#160;&#160;&#160;&#160;&#160;&#160;&#160;&#160;&#160;</text>
<polygon fill="none" stroke="#99ccff" points="850.25,-39 850.25,-58.5 964.25,-58.5 964.25,-39 850.25,-39"/>
<text text-anchor="start" x="893.75" y="-45.05" font-family="Courier,monospace" font-size="11.00">long</text>
<polygon fill="none" stroke="#99ccff" points="162.5,-19.5 162.5,-39 850.25,-39 850.25,-19.5 162.5,-19.5"/>
<text text-anchor="start" x="165.5" y="-25.55" font-family="Courier,monospace" font-size="11.00"> &#160;&#160;&#160;&#160;&#160;&#160;&#160;&#160;&#160;&#160;&#160;&#160;&#160;&#160;&#160;&#160;&#160;&#160;&#160;&#160;&#160;&#160;&#160;&#160;&#160;&#160;&#160;&#160;&#160;&#160;&#160;&#160;&#160;&#160;&#160;&#160;&#160;&#160;&#160;&#160;ShouldSkipBulkRetry &#160;&#160;&#160;&#160;&#160;&#160;&#160;&#160;&#160;&#160;&#160;&#160;&#160;&#160;&#160;&#160;&#160;&#160;&#160;&#160;&#160;&#160;&#160;&#160;&#160;&#160;&#160;&#160;&#160;&#160;&#160;&#160;&#160;&#160;&#160;&#160;&#160;&#160;</text>
<polygon fill="none" stroke="#99ccff" points="850.25,-19.5 850.25,-39 964.25,-39 964.25,-19.5 850.25,-19.5"/>
<text text-anchor="start" x="873.5" y="-25.55" font-family="Courier,monospace" font-size="11.00">string(40)</text>
<polygon fill="none" stroke="#99ccff" points="161.5,-18.5 161.5,-391 965.25,-391 965.25,-18.5 161.5,-18.5"/>
</a>
</g>
</g>
<!-- Group -->
<g id="node2" class="node">
<title>Group</title>
<text text-anchor="middle" x="27" y="-337.05" font-family="Courier,monospace" font-size="11.00">Group</text>
</g>
<!-- PricingAdjBatchJob&#45;&gt;Group -->
<g id="edge1" class="edge">
<title>PricingAdjBatchJob:w&#45;&gt;Group:e</title>
<path fill="none" stroke="#ff99cc" d="M145.82,-341.24C112.37,-341.2 76.79,-341.03 53.59,-340.9"/>
<polygon fill="#ff99cc" stroke="#ff99cc" points="153.17,-341.24 161.16,-344.85 157.5,-341.25 160.83,-341.25 160.83,-341.25 160.83,-341.25 157.5,-341.25 161.17,-337.65 153.17,-341.24"/>
<ellipse fill="none" stroke="#ff99cc" cx="148.25" cy="-341.24" rx="3.2" ry="3.2"/>
<text text-anchor="middle" x="107.75" y="-343.94" font-family="Monaco" font-size="9.00">Owner</text>
</g>
<!-- User -->
<g id="node3" class="node">
<title>User</title>
<text text-anchor="middle" x="27" y="-284.05" font-family="Courier,monospace" font-size="11.00">User</text>
</g>
<!-- PricingAdjBatchJob&#45;&gt;User -->
<g id="edge2" class="edge">
<title>PricingAdjBatchJob:w&#45;&gt;User:e</title>
<path fill="none" stroke="#ff99cc" d="M151.72,-328.84C150.86,-323.36 149.84,-317.3 144.5,-313.5 137.16,-308.27 85.98,-298.25 53.94,-292.37"/>
<polygon fill="#ff99cc" stroke="#ff99cc" points="156.34,-334.7 158.47,-343.22 159.02,-338.11 161.09,-340.72 161.09,-340.72 161.09,-340.72 159.02,-338.11 164.12,-338.76 156.34,-334.7"/>
<ellipse fill="none" stroke="#ff99cc" cx="153.3" cy="-330.84" rx="3.2" ry="3.2"/>
<text text-anchor="middle" x="107.75" y="-316.2" font-family="Monaco" font-size="9.00">Owner</text>
</g>
<!-- PricingAdjBatchJob&#45;&gt;User -->
<g id="edge3" class="edge">
<title>PricingAdjBatchJob:w&#45;&gt;User:e</title>
<path fill="none" stroke="#ff99cc" d="M145.86,-281.56C145.42,-281.54 144.97,-281.52 144.5,-281.5 111.86,-280.3 103.58,-279.14 71,-281.5 65.43,-281.9 59.49,-282.59 53.86,-283.38"/>
<polygon fill="#ff99cc" stroke="#ff99cc" points="153.19,-282.12 160.89,-286.31 157.51,-282.45 160.83,-282.7 160.83,-282.7 160.83,-282.7 157.51,-282.45 161.44,-279.13 153.19,-282.12"/>
<ellipse fill="none" stroke="#ff99cc" cx="148.29" cy="-281.74" rx="3.2" ry="3.2"/>
<text text-anchor="middle" x="107.75" y="-284.2" font-family="Monaco" font-size="9.00">LastModifiedBy</text>
</g>
</g>
</svg>
