<?xml version="1.0" encoding="UTF-8" standalone="no"?>
<!DOCTYPE svg PUBLIC "-//W3C//DTD SVG 1.1//EN"
 "http://www.w3.org/Graphics/SVG/1.1/DTD/svg11.dtd">
<!-- Generated by graphviz version 12.2.1 (20241206.2353)
 -->
<!-- Title: Salesforce+ ERD Pages: 1 -->
<svg width="962pt" height="362pt"
 viewBox="0.00 0.00 962.25 361.50" xmlns="http://www.w3.org/2000/svg" xmlns:xlink="http://www.w3.org/1999/xlink">
<g id="graph0" class="graph" transform="scale(1 1) rotate(0) translate(4 357.5)">
<title>Salesforce+ ERD</title>
<polygon fill="#efeffd" stroke="none" points="-4,4 -4,-357.5 958.25,-357.5 958.25,4 -4,4"/>
<text text-anchor="middle" x="906.88" y="-5.95" font-family="Courier,monospace" font-size="9.00">Salesforce ERD </text>
<!-- PriceAdjustmentSchedule -->
<g id="node1" class="node">
<title>PriceAdjustmentSchedule</title>
<g id="a_node1"><a xlink:href="#" xlink:title=" PriceAdjustmentSchedule ">
<polygon fill="#ffeeff" stroke="none" points="191,-39.5 191,-353.5 954.25,-353.5 954.25,-39.5 191,-39.5"/>
<polygon fill="lightblue" stroke="none" points="192,-333 192,-352.5 953.25,-352.5 953.25,-333 192,-333"/>
<polygon fill="none" stroke="#99ccff" points="192,-333 192,-352.5 953.25,-352.5 953.25,-333 192,-333"/>
<text text-anchor="start" x="495" y="-340.05" font-family="Courier,monospace" font-weight="bold" font-size="11.00">PriceAdjustmentSchedule</text>
<polygon fill="#99ccff" stroke="none" points="192,-313.5 192,-333 859.5,-333 859.5,-313.5 192,-313.5"/>
<polygon fill="none" stroke="#99ccff" points="192,-313.5 192,-333 859.5,-333 859.5,-313.5 192,-313.5"/>
<text text-anchor="start" x="195" y="-320.55" font-family="Courier,monospace" font-size="11.00"> &#160;&#160;&#160;&#160;&#160;&#160;&#160;&#160;&#160;&#160;&#160;&#160;&#160;&#160;&#160;&#160;&#160;&#160;&#160;&#160;&#160;&#160;&#160;&#160;&#160;&#160;&#160;&#160;&#160;&#160;&#160;&#160;&#160;&#160;&#160;&#160;&#160;&#160;&#160;&#160;&#160;&#160;</text>
<text text-anchor="start" x="485.25" y="-320.55" font-family="Courier,monospace" font-weight="bold" font-size="11.00">Id</text>
<text text-anchor="start" x="498.75" y="-320.55" font-family="Courier,monospace" font-size="11.00"> &#160;&#160;&#160;&#160;&#160;&#160;&#160;&#160;&#160;&#160;&#160;&#160;&#160;&#160;&#160;&#160;&#160;&#160;&#160;&#160;&#160;&#160;&#160;&#160;&#160;&#160;&#160;&#160;&#160;&#160;&#160;&#160;&#160;&#160;&#160;&#160;&#160;&#160;&#160;</text>
<polygon fill="none" stroke="#99ccff" points="859.5,-313.5 859.5,-333 953.25,-333 953.25,-313.5 859.5,-313.5"/>
<text text-anchor="start" x="886.12" y="-319.55" font-family="Courier,monospace" font-size="11.00">id(18)</text>
<polygon fill="none" stroke="#99ccff" points="192,-294 192,-313.5 859.5,-313.5 859.5,-294 192,-294"/>
<text text-anchor="start" x="195" y="-300.05" font-family="Courier,monospace" font-size="11.00"> &#160;&#160;&#160;&#160;&#160;&#160;&#160;&#160;&#160;&#160;&#160;&#160;&#160;&#160;&#160;&#160;&#160;&#160;&#160;&#160;&#160;&#160;&#160;&#160;&#160;&#160;&#160;&#160;&#160;&#160;&#160;&#160;&#160;&#160;&#160;&#160;&#160;&#160;&#160;&#160;OwnerId &#160;&#160;&#160;&#160;&#160;&#160;&#160;&#160;&#160;&#160;&#160;&#160;&#160;&#160;&#160;&#160;&#160;&#160;&#160;&#160;&#160;&#160;&#160;&#160;&#160;&#160;&#160;&#160;&#160;&#160;&#160;&#160;&#160;&#160;&#160;&#160;&#160;&#160;</text>
<polygon fill="none" stroke="#99ccff" points="859.5,-294 859.5,-313.5 953.25,-313.5 953.25,-294 859.5,-294"/>
<text text-anchor="start" x="862.5" y="-300.05" font-family="Courier,monospace" font-size="11.00">reference(18)</text>
<polygon fill="none" stroke="#99ccff" points="192,-274.5 192,-294 859.5,-294 859.5,-274.5 192,-274.5"/>
<text text-anchor="start" x="195" y="-280.55" font-family="Courier,monospace" font-size="11.00"> &#160;&#160;&#160;&#160;&#160;&#160;&#160;&#160;&#160;&#160;&#160;&#160;&#160;&#160;&#160;&#160;&#160;&#160;&#160;&#160;&#160;&#160;&#160;&#160;&#160;&#160;&#160;&#160;&#160;&#160;&#160;&#160;&#160;&#160;&#160;&#160;&#160;&#160;&#160;&#160;IsDeleted &#160;&#160;&#160;&#160;&#160;&#160;&#160;&#160;&#160;&#160;&#160;&#160;&#160;&#160;&#160;&#160;&#160;&#160;&#160;&#160;&#160;&#160;&#160;&#160;&#160;&#160;&#160;&#160;&#160;&#160;&#160;&#160;&#160;&#160;&#160;&#160;&#160;&#160;</text>
<polygon fill="none" stroke="#99ccff" points="859.5,-274.5 859.5,-294 953.25,-294 953.25,-274.5 859.5,-274.5"/>
<text text-anchor="start" x="882.75" y="-280.55" font-family="Courier,monospace" font-size="11.00">boolean</text>
<polygon fill="none" stroke="#99ccff" points="192,-255 192,-274.5 859.5,-274.5 859.5,-255 192,-255"/>
<text text-anchor="start" x="195" y="-261.05" font-family="Courier,monospace" font-size="11.00"> &#160;&#160;&#160;&#160;&#160;&#160;&#160;&#160;&#160;&#160;&#160;&#160;&#160;&#160;&#160;&#160;&#160;&#160;&#160;&#160;&#160;&#160;&#160;&#160;&#160;&#160;&#160;&#160;&#160;&#160;&#160;&#160;&#160;&#160;&#160;&#160;&#160;&#160;&#160;&#160;Name &#160;&#160;&#160;&#160;&#160;&#160;&#160;&#160;&#160;&#160;&#160;&#160;&#160;&#160;&#160;&#160;&#160;&#160;&#160;&#160;&#160;&#160;&#160;&#160;&#160;&#160;&#160;&#160;&#160;&#160;&#160;&#160;&#160;&#160;&#160;&#160;&#160;&#160;</text>
<polygon fill="none" stroke="#99ccff" points="859.5,-255 859.5,-274.5 953.25,-274.5 953.25,-255 859.5,-255"/>
<text text-anchor="start" x="869.25" y="-261.05" font-family="Courier,monospace" font-size="11.00">string(255)</text>
<polygon fill="none" stroke="#99ccff" points="192,-235.5 192,-255 859.5,-255 859.5,-235.5 192,-235.5"/>
<text text-anchor="start" x="195" y="-241.55" font-family="Courier,monospace" font-size="11.00"> &#160;&#160;&#160;&#160;&#160;&#160;&#160;&#160;&#160;&#160;&#160;&#160;&#160;&#160;&#160;&#160;&#160;&#160;&#160;&#160;&#160;&#160;&#160;&#160;&#160;&#160;&#160;&#160;&#160;&#160;&#160;&#160;&#160;&#160;&#160;&#160;&#160;&#160;&#160;&#160;LastModifiedById &#160;&#160;&#160;&#160;&#160;&#160;&#160;&#160;&#160;&#160;&#160;&#160;&#160;&#160;&#160;&#160;&#160;&#160;&#160;&#160;&#160;&#160;&#160;&#160;&#160;&#160;&#160;&#160;&#160;&#160;&#160;&#160;&#160;&#160;&#160;&#160;&#160;&#160;</text>
<polygon fill="none" stroke="#99ccff" points="859.5,-235.5 859.5,-255 953.25,-255 953.25,-235.5 859.5,-235.5"/>
<text text-anchor="start" x="862.5" y="-241.55" font-family="Courier,monospace" font-size="11.00">reference(18)</text>
<polygon fill="none" stroke="#99ccff" points="192,-216 192,-235.5 859.5,-235.5 859.5,-216 192,-216"/>
<text text-anchor="start" x="195" y="-222.05" font-family="Courier,monospace" font-size="11.00"> &#160;&#160;&#160;&#160;&#160;&#160;&#160;&#160;&#160;&#160;&#160;&#160;&#160;&#160;&#160;&#160;&#160;&#160;&#160;&#160;&#160;&#160;&#160;&#160;&#160;&#160;&#160;&#160;&#160;&#160;&#160;&#160;&#160;&#160;&#160;&#160;&#160;&#160;&#160;&#160;LastViewedDate &#160;&#160;&#160;&#160;&#160;&#160;&#160;&#160;&#160;&#160;&#160;&#160;&#160;&#160;&#160;&#160;&#160;&#160;&#160;&#160;&#160;&#160;&#160;&#160;&#160;&#160;&#160;&#160;&#160;&#160;&#160;&#160;&#160;&#160;&#160;&#160;&#160;&#160;</text>
<polygon fill="none" stroke="#99ccff" points="859.5,-216 859.5,-235.5 953.25,-235.5 953.25,-216 859.5,-216"/>
<text text-anchor="start" x="879.38" y="-222.05" font-family="Courier,monospace" font-size="11.00">datetime</text>
<polygon fill="none" stroke="#99ccff" points="192,-196.5 192,-216 859.5,-216 859.5,-196.5 192,-196.5"/>
<text text-anchor="start" x="195" y="-202.55" font-family="Courier,monospace" font-size="11.00"> &#160;&#160;&#160;&#160;&#160;&#160;&#160;&#160;&#160;&#160;&#160;&#160;&#160;&#160;&#160;&#160;&#160;&#160;&#160;&#160;&#160;&#160;&#160;&#160;&#160;&#160;&#160;&#160;&#160;&#160;&#160;&#160;&#160;&#160;&#160;&#160;&#160;&#160;&#160;&#160;LastReferencedDate &#160;&#160;&#160;&#160;&#160;&#160;&#160;&#160;&#160;&#160;&#160;&#160;&#160;&#160;&#160;&#160;&#160;&#160;&#160;&#160;&#160;&#160;&#160;&#160;&#160;&#160;&#160;&#160;&#160;&#160;&#160;&#160;&#160;&#160;&#160;&#160;&#160;&#160;</text>
<polygon fill="none" stroke="#99ccff" points="859.5,-196.5 859.5,-216 953.25,-216 953.25,-196.5 859.5,-196.5"/>
<text text-anchor="start" x="879.38" y="-202.55" font-family="Courier,monospace" font-size="11.00">datetime</text>
<polygon fill="none" stroke="#99ccff" points="192,-177 192,-196.5 859.5,-196.5 859.5,-177 192,-177"/>
<text text-anchor="start" x="195" y="-183.05" font-family="Courier,monospace" font-size="11.00"> &#160;&#160;&#160;&#160;&#160;&#160;&#160;&#160;&#160;&#160;&#160;&#160;&#160;&#160;&#160;&#160;&#160;&#160;&#160;&#160;&#160;&#160;&#160;&#160;&#160;&#160;&#160;&#160;&#160;&#160;&#160;&#160;&#160;&#160;&#160;&#160;&#160;&#160;&#160;&#160;Description &#160;&#160;&#160;&#160;&#160;&#160;&#160;&#160;&#160;&#160;&#160;&#160;&#160;&#160;&#160;&#160;&#160;&#160;&#160;&#160;&#160;&#160;&#160;&#160;&#160;&#160;&#160;&#160;&#160;&#160;&#160;&#160;&#160;&#160;&#160;&#160;&#160;&#160;</text>
<polygon fill="none" stroke="#99ccff" points="859.5,-177 859.5,-196.5 953.25,-196.5 953.25,-177 859.5,-177"/>
<text text-anchor="start" x="862.5" y="-183.05" font-family="Courier,monospace" font-size="11.00">textarea(255)</text>
<polygon fill="none" stroke="#99ccff" points="192,-157.5 192,-177 859.5,-177 859.5,-157.5 192,-157.5"/>
<text text-anchor="start" x="195" y="-163.55" font-family="Courier,monospace" font-size="11.00"> &#160;&#160;&#160;&#160;&#160;&#160;&#160;&#160;&#160;&#160;&#160;&#160;&#160;&#160;&#160;&#160;&#160;&#160;&#160;&#160;&#160;&#160;&#160;&#160;&#160;&#160;&#160;&#160;&#160;&#160;&#160;&#160;&#160;&#160;&#160;&#160;&#160;&#160;&#160;&#160;IsActive &#160;&#160;&#160;&#160;&#160;&#160;&#160;&#160;&#160;&#160;&#160;&#160;&#160;&#160;&#160;&#160;&#160;&#160;&#160;&#160;&#160;&#160;&#160;&#160;&#160;&#160;&#160;&#160;&#160;&#160;&#160;&#160;&#160;&#160;&#160;&#160;&#160;&#160;</text>
<polygon fill="none" stroke="#99ccff" points="859.5,-157.5 859.5,-177 953.25,-177 953.25,-157.5 859.5,-157.5"/>
<text text-anchor="start" x="882.75" y="-163.55" font-family="Courier,monospace" font-size="11.00">boolean</text>
<polygon fill="none" stroke="#99ccff" points="192,-138 192,-157.5 859.5,-157.5 859.5,-138 192,-138"/>
<text text-anchor="start" x="195" y="-144.05" font-family="Courier,monospace" font-size="11.00"> &#160;&#160;&#160;&#160;&#160;&#160;&#160;&#160;&#160;&#160;&#160;&#160;&#160;&#160;&#160;&#160;&#160;&#160;&#160;&#160;&#160;&#160;&#160;&#160;&#160;&#160;&#160;&#160;&#160;&#160;&#160;&#160;&#160;&#160;&#160;&#160;&#160;&#160;&#160;&#160;ScheduleType &#160;&#160;&#160;&#160;&#160;&#160;&#160;&#160;&#160;&#160;&#160;&#160;&#160;&#160;&#160;&#160;&#160;&#160;&#160;&#160;&#160;&#160;&#160;&#160;&#160;&#160;&#160;&#160;&#160;&#160;&#160;&#160;&#160;&#160;&#160;&#160;&#160;&#160;</text>
<polygon fill="none" stroke="#99ccff" points="859.5,-138 859.5,-157.5 953.25,-157.5 953.25,-138 859.5,-138"/>
<text text-anchor="start" x="862.5" y="-144.05" font-family="Courier,monospace" font-size="11.00">picklist(255)</text>
<polygon fill="none" stroke="#99ccff" points="192,-118.5 192,-138 859.5,-138 859.5,-118.5 192,-118.5"/>
<text text-anchor="start" x="195" y="-124.55" font-family="Courier,monospace" font-size="11.00"> &#160;&#160;&#160;&#160;&#160;&#160;&#160;&#160;&#160;&#160;&#160;&#160;&#160;&#160;&#160;&#160;&#160;&#160;&#160;&#160;&#160;&#160;&#160;&#160;&#160;&#160;&#160;&#160;&#160;&#160;&#160;&#160;&#160;&#160;&#160;&#160;&#160;&#160;&#160;&#160;AdjustmentMethod &#160;&#160;&#160;&#160;&#160;&#160;&#160;&#160;&#160;&#160;&#160;&#160;&#160;&#160;&#160;&#160;&#160;&#160;&#160;&#160;&#160;&#160;&#160;&#160;&#160;&#160;&#160;&#160;&#160;&#160;&#160;&#160;&#160;&#160;&#160;&#160;&#160;&#160;</text>
<polygon fill="none" stroke="#99ccff" points="859.5,-118.5 859.5,-138 953.25,-138 953.25,-118.5 859.5,-118.5"/>
<text text-anchor="start" x="862.5" y="-124.55" font-family="Courier,monospace" font-size="11.00">picklist(255)</text>
<polygon fill="none" stroke="#99ccff" points="192,-99 192,-118.5 859.5,-118.5 859.5,-99 192,-99"/>
<text text-anchor="start" x="195" y="-105.05" font-family="Courier,monospace" font-size="11.00"> &#160;&#160;&#160;&#160;&#160;&#160;&#160;&#160;&#160;&#160;&#160;&#160;&#160;&#160;&#160;&#160;&#160;&#160;&#160;&#160;&#160;&#160;&#160;&#160;&#160;&#160;&#160;&#160;&#160;&#160;&#160;&#160;&#160;&#160;&#160;&#160;&#160;&#160;&#160;&#160;EffectiveFrom &#160;&#160;&#160;&#160;&#160;&#160;&#160;&#160;&#160;&#160;&#160;&#160;&#160;&#160;&#160;&#160;&#160;&#160;&#160;&#160;&#160;&#160;&#160;&#160;&#160;&#160;&#160;&#160;&#160;&#160;&#160;&#160;&#160;&#160;&#160;&#160;&#160;&#160;</text>
<polygon fill="none" stroke="#99ccff" points="859.5,-99 859.5,-118.5 953.25,-118.5 953.25,-99 859.5,-99"/>
<text text-anchor="start" x="879.38" y="-105.05" font-family="Courier,monospace" font-size="11.00">datetime</text>
<polygon fill="none" stroke="#99ccff" points="192,-79.5 192,-99 859.5,-99 859.5,-79.5 192,-79.5"/>
<text text-anchor="start" x="195" y="-85.55" font-family="Courier,monospace" font-size="11.00"> &#160;&#160;&#160;&#160;&#160;&#160;&#160;&#160;&#160;&#160;&#160;&#160;&#160;&#160;&#160;&#160;&#160;&#160;&#160;&#160;&#160;&#160;&#160;&#160;&#160;&#160;&#160;&#160;&#160;&#160;&#160;&#160;&#160;&#160;&#160;&#160;&#160;&#160;&#160;&#160;EffectiveTo &#160;&#160;&#160;&#160;&#160;&#160;&#160;&#160;&#160;&#160;&#160;&#160;&#160;&#160;&#160;&#160;&#160;&#160;&#160;&#160;&#160;&#160;&#160;&#160;&#160;&#160;&#160;&#160;&#160;&#160;&#160;&#160;&#160;&#160;&#160;&#160;&#160;&#160;</text>
<polygon fill="none" stroke="#99ccff" points="859.5,-79.5 859.5,-99 953.25,-99 953.25,-79.5 859.5,-79.5"/>
<text text-anchor="start" x="879.38" y="-85.55" font-family="Courier,monospace" font-size="11.00">datetime</text>
<polygon fill="none" stroke="#99ccff" points="192,-60 192,-79.5 859.5,-79.5 859.5,-60 192,-60"/>
<text text-anchor="start" x="195" y="-66.05" font-family="Courier,monospace" font-size="11.00"> &#160;&#160;&#160;&#160;&#160;&#160;&#160;&#160;&#160;&#160;&#160;&#160;&#160;&#160;&#160;&#160;&#160;&#160;&#160;&#160;&#160;&#160;&#160;&#160;&#160;&#160;&#160;&#160;&#160;&#160;&#160;&#160;&#160;&#160;&#160;&#160;&#160;&#160;&#160;&#160;Pricebook2Id &#160;&#160;&#160;&#160;&#160;&#160;&#160;&#160;&#160;&#160;&#160;&#160;&#160;&#160;&#160;&#160;&#160;&#160;&#160;&#160;&#160;&#160;&#160;&#160;&#160;&#160;&#160;&#160;&#160;&#160;&#160;&#160;&#160;&#160;&#160;&#160;&#160;&#160;</text>
<polygon fill="none" stroke="#99ccff" points="859.5,-60 859.5,-79.5 953.25,-79.5 953.25,-60 859.5,-60"/>
<text text-anchor="start" x="862.5" y="-66.05" font-family="Courier,monospace" font-size="11.00">reference(18)</text>
<polygon fill="none" stroke="#99ccff" points="192,-40.5 192,-60 859.5,-60 859.5,-40.5 192,-40.5"/>
<text text-anchor="start" x="195" y="-46.55" font-family="Courier,monospace" font-size="11.00"> &#160;&#160;&#160;&#160;&#160;&#160;&#160;&#160;&#160;&#160;&#160;&#160;&#160;&#160;&#160;&#160;&#160;&#160;&#160;&#160;&#160;&#160;&#160;&#160;&#160;&#160;&#160;&#160;&#160;&#160;&#160;&#160;&#160;&#160;&#160;&#160;&#160;&#160;&#160;&#160;ContractId &#160;&#160;&#160;&#160;&#160;&#160;&#160;&#160;&#160;&#160;&#160;&#160;&#160;&#160;&#160;&#160;&#160;&#160;&#160;&#160;&#160;&#160;&#160;&#160;&#160;&#160;&#160;&#160;&#160;&#160;&#160;&#160;&#160;&#160;&#160;&#160;&#160;&#160;</text>
<polygon fill="none" stroke="#99ccff" points="859.5,-40.5 859.5,-60 953.25,-60 953.25,-40.5 859.5,-40.5"/>
<text text-anchor="start" x="862.5" y="-46.55" font-family="Courier,monospace" font-size="11.00">reference(18)</text>
<polygon fill="none" stroke="#99ccff" points="191,-39.5 191,-353.5 954.25,-353.5 954.25,-39.5 191,-39.5"/>
</a>
</g>
</g>
<!-- Group -->
<g id="node2" class="node">
<title>Group</title>
<text text-anchor="middle" x="41.75" y="-299.8" font-family="Courier,monospace" font-size="11.00">Group</text>
</g>
<!-- PriceAdjustmentSchedule&#45;&gt;Group -->
<g id="edge1" class="edge">
<title>PriceAdjustmentSchedule:w&#45;&gt;Group:e</title>
<path fill="none" stroke="#ff99cc" d="M175.17,-303.75C136.38,-303.72 94.74,-303.64 68.73,-303.57"/>
<polygon fill="#ff99cc" stroke="#ff99cc" points="182.67,-303.75 190.66,-307.35 187,-303.75 190.33,-303.75 190.33,-303.75 190.33,-303.75 187,-303.75 190.67,-300.15 182.67,-303.75"/>
<ellipse fill="none" stroke="#ff99cc" cx="177.75" cy="-303.75" rx="3.2" ry="3.2"/>
<text text-anchor="middle" x="137.25" y="-306.44" font-family="Monaco" font-size="9.00">Owner</text>
</g>
<!-- User -->
<g id="node3" class="node">
<title>User</title>
<text text-anchor="middle" x="41.75" y="-246.8" font-family="Courier,monospace" font-size="11.00">User</text>
</g>
<!-- PriceAdjustmentSchedule&#45;&gt;User -->
<g id="edge2" class="edge">
<title>PriceAdjustmentSchedule:w&#45;&gt;User:e</title>
<path fill="none" stroke="#ff99cc" d="M181.27,-291.4C180.4,-285.95 179.35,-279.96 174,-276.25 165.43,-270.32 104.35,-260.05 68.61,-254.44"/>
<polygon fill="#ff99cc" stroke="#ff99cc" points="185.84,-297.2 187.96,-305.71 188.53,-300.61 190.59,-303.22 190.59,-303.22 190.59,-303.22 188.53,-300.61 193.62,-301.26 185.84,-297.2"/>
<ellipse fill="none" stroke="#ff99cc" cx="182.8" cy="-293.34" rx="3.2" ry="3.2"/>
<text text-anchor="middle" x="137.25" y="-278.95" font-family="Monaco" font-size="9.00">Owner</text>
</g>
<!-- PriceAdjustmentSchedule&#45;&gt;User -->
<g id="edge3" class="edge">
<title>PriceAdjustmentSchedule:w&#45;&gt;User:e</title>
<path fill="none" stroke="#ff99cc" d="M175.27,-245.22C147.23,-245.1 134.88,-244.8 100.5,-246.25 90.05,-246.69 78.56,-247.48 68.6,-248.25"/>
<polygon fill="#ff99cc" stroke="#ff99cc" points="182.67,-245.23 190.66,-248.85 187,-245.24 190.33,-245.25 190.33,-245.25 190.33,-245.25 187,-245.24 190.67,-241.65 182.67,-245.23"/>
<ellipse fill="none" stroke="#ff99cc" cx="177.75" cy="-245.22" rx="3.2" ry="3.2"/>
<text text-anchor="middle" x="137.25" y="-248.95" font-family="Monaco" font-size="9.00">LastModifiedBy</text>
</g>
<!-- Pricebook2 -->
<g id="node4" class="node">
<title>Pricebook2</title>
<text text-anchor="middle" x="41.75" y="-81.8" font-family="Courier,monospace" font-size="11.00">Pricebook2</text>
</g>
<!-- PriceAdjustmentSchedule&#45;&gt;Pricebook2 -->
<g id="edge4" class="edge">
<title>PriceAdjustmentSchedule:w&#45;&gt;Pricebook2:e</title>
<path fill="none" stroke="#ff99cc" d="M175.31,-70.02C142.96,-71.09 108.76,-75.17 83.21,-78.87"/>
<polygon fill="#ff99cc" stroke="#ff99cc" points="182.67,-69.89 190.73,-73.36 187,-69.82 190.33,-69.76 190.33,-69.76 190.33,-69.76 187,-69.82 190.6,-66.16 182.67,-69.89"/>
<ellipse fill="none" stroke="#ff99cc" cx="177.75" cy="-69.98" rx="3.2" ry="3.2"/>
<text text-anchor="middle" x="137.25" y="-78.91" font-family="Monaco" font-size="9.00">Pricebook2</text>
</g>
<!-- Contract -->
<g id="node5" class="node">
<title>Contract</title>
<text text-anchor="middle" x="41.75" y="-32.8" font-family="Courier,monospace" font-size="11.00">Contract</text>
</g>
<!-- PriceAdjustmentSchedule&#45;&gt;Contract -->
<g id="edge5" class="edge">
<title>PriceAdjustmentSchedule:w&#45;&gt;Contract:e</title>
<path fill="none" stroke="#ff99cc" d="M175.52,-50.02C140.21,-49.01 102.65,-44.86 76.52,-41.43"/>
<polygon fill="#ff99cc" stroke="#ff99cc" points="182.67,-50.13 190.61,-53.84 187,-50.19 190.33,-50.24 190.33,-50.24 190.33,-50.24 187,-50.19 190.72,-46.65 182.67,-50.13"/>
<ellipse fill="none" stroke="#ff99cc" cx="177.75" cy="-50.05" rx="3.2" ry="3.2"/>
<text text-anchor="middle" x="137.25" y="-52.57" font-family="Monaco" font-size="9.00">Contract</text>
</g>
</g>
</svg>
