<?xml version="1.0" encoding="UTF-8" standalone="no"?>
<!DOCTYPE svg PUBLIC "-//W3C//DTD SVG 1.1//EN"
 "http://www.w3.org/Graphics/SVG/1.1/DTD/svg11.dtd">
<!-- Generated by graphviz version 12.2.1 (20241206.2353)
 -->
<!-- Title: Salesforce+ ERD Pages: 1 -->
<svg width="1091pt" height="750pt"
 viewBox="0.00 0.00 1090.50 750.00" xmlns="http://www.w3.org/2000/svg" xmlns:xlink="http://www.w3.org/1999/xlink">
<g id="graph0" class="graph" transform="scale(1 1) rotate(0) translate(4 746)">
<title>Salesforce+ ERD</title>
<polygon fill="#efeffd" stroke="none" points="-4,4 -4,-746 1086.5,-746 1086.5,4 -4,4"/>
<text text-anchor="middle" x="1035.12" y="-5.95" font-family="Courier,monospace" font-size="9.00">Salesforce ERD </text>
<!-- Product2 -->
<g id="node1" class="node">
<title>Product2</title>
<g id="a_node1"><a xlink:href="#" xlink:title=" Product2 ">
<polygon fill="#ffeeff" stroke="none" points="265.25,-18.5 265.25,-742 1082.5,-742 1082.5,-18.5 265.25,-18.5"/>
<polygon fill="lightblue" stroke="none" points="266.25,-721.5 266.25,-741 1081.5,-741 1081.5,-721.5 266.25,-721.5"/>
<polygon fill="none" stroke="#99ccff" points="266.25,-721.5 266.25,-741 1081.5,-741 1081.5,-721.5 266.25,-721.5"/>
<text text-anchor="start" x="646.88" y="-728.55" font-family="Courier,monospace" font-weight="bold" font-size="11.00">Product2</text>
<polygon fill="#99ccff" stroke="none" points="266.25,-702 266.25,-721.5 974.25,-721.5 974.25,-702 266.25,-702"/>
<polygon fill="none" stroke="#99ccff" points="266.25,-702 266.25,-721.5 974.25,-721.5 974.25,-702 266.25,-702"/>
<text text-anchor="start" x="269.25" y="-709.05" font-family="Courier,monospace" font-size="11.00"> &#160;&#160;&#160;&#160;&#160;&#160;&#160;&#160;&#160;&#160;&#160;&#160;&#160;&#160;&#160;&#160;&#160;&#160;&#160;&#160;&#160;&#160;&#160;&#160;&#160;&#160;&#160;&#160;&#160;&#160;&#160;&#160;&#160;&#160;&#160;&#160;&#160;&#160;&#160;&#160;&#160;&#160;</text>
<text text-anchor="start" x="559.5" y="-709.05" font-family="Courier,monospace" font-weight="bold" font-size="11.00">Id</text>
<text text-anchor="start" x="573" y="-709.05" font-family="Courier,monospace" font-size="11.00"> &#160;&#160;&#160;&#160;&#160;&#160;&#160;&#160;&#160;&#160;&#160;&#160;&#160;&#160;&#160;&#160;&#160;&#160;&#160;&#160;&#160;&#160;&#160;&#160;&#160;&#160;&#160;&#160;&#160;&#160;&#160;&#160;&#160;&#160;&#160;&#160;&#160;&#160;&#160;</text>
<polygon fill="none" stroke="#99ccff" points="974.25,-702 974.25,-721.5 1081.5,-721.5 1081.5,-702 974.25,-702"/>
<text text-anchor="start" x="1007.62" y="-708.05" font-family="Courier,monospace" font-size="11.00">id(18)</text>
<polygon fill="none" stroke="#99ccff" points="266.25,-682.5 266.25,-702 974.25,-702 974.25,-682.5 266.25,-682.5"/>
<text text-anchor="start" x="269.25" y="-688.55" font-family="Courier,monospace" font-size="11.00"> &#160;&#160;&#160;&#160;&#160;&#160;&#160;&#160;&#160;&#160;&#160;&#160;&#160;&#160;&#160;&#160;&#160;&#160;&#160;&#160;&#160;&#160;&#160;&#160;&#160;&#160;&#160;&#160;&#160;&#160;&#160;&#160;&#160;&#160;&#160;&#160;&#160;&#160;&#160;&#160;Name &#160;&#160;&#160;&#160;&#160;&#160;&#160;&#160;&#160;&#160;&#160;&#160;&#160;&#160;&#160;&#160;&#160;&#160;&#160;&#160;&#160;&#160;&#160;&#160;&#160;&#160;&#160;&#160;&#160;&#160;&#160;&#160;&#160;&#160;&#160;&#160;&#160;&#160;</text>
<polygon fill="none" stroke="#99ccff" points="974.25,-682.5 974.25,-702 1081.5,-702 1081.5,-682.5 974.25,-682.5"/>
<text text-anchor="start" x="990.75" y="-688.55" font-family="Courier,monospace" font-size="11.00">string(255)</text>
<polygon fill="none" stroke="#99ccff" points="266.25,-663 266.25,-682.5 974.25,-682.5 974.25,-663 266.25,-663"/>
<text text-anchor="start" x="269.25" y="-669.05" font-family="Courier,monospace" font-size="11.00"> &#160;&#160;&#160;&#160;&#160;&#160;&#160;&#160;&#160;&#160;&#160;&#160;&#160;&#160;&#160;&#160;&#160;&#160;&#160;&#160;&#160;&#160;&#160;&#160;&#160;&#160;&#160;&#160;&#160;&#160;&#160;&#160;&#160;&#160;&#160;&#160;&#160;&#160;&#160;&#160;ProductCode &#160;&#160;&#160;&#160;&#160;&#160;&#160;&#160;&#160;&#160;&#160;&#160;&#160;&#160;&#160;&#160;&#160;&#160;&#160;&#160;&#160;&#160;&#160;&#160;&#160;&#160;&#160;&#160;&#160;&#160;&#160;&#160;&#160;&#160;&#160;&#160;&#160;&#160;</text>
<polygon fill="none" stroke="#99ccff" points="974.25,-663 974.25,-682.5 1081.5,-682.5 1081.5,-663 974.25,-663"/>
<text text-anchor="start" x="990.75" y="-669.05" font-family="Courier,monospace" font-size="11.00">string(255)</text>
<polygon fill="none" stroke="#99ccff" points="266.25,-643.5 266.25,-663 974.25,-663 974.25,-643.5 266.25,-643.5"/>
<text text-anchor="start" x="269.25" y="-649.55" font-family="Courier,monospace" font-size="11.00"> &#160;&#160;&#160;&#160;&#160;&#160;&#160;&#160;&#160;&#160;&#160;&#160;&#160;&#160;&#160;&#160;&#160;&#160;&#160;&#160;&#160;&#160;&#160;&#160;&#160;&#160;&#160;&#160;&#160;&#160;&#160;&#160;&#160;&#160;&#160;&#160;&#160;&#160;&#160;&#160;Description &#160;&#160;&#160;&#160;&#160;&#160;&#160;&#160;&#160;&#160;&#160;&#160;&#160;&#160;&#160;&#160;&#160;&#160;&#160;&#160;&#160;&#160;&#160;&#160;&#160;&#160;&#160;&#160;&#160;&#160;&#160;&#160;&#160;&#160;&#160;&#160;&#160;&#160;</text>
<polygon fill="none" stroke="#99ccff" points="974.25,-643.5 974.25,-663 1081.5,-663 1081.5,-643.5 974.25,-643.5"/>
<text text-anchor="start" x="980.62" y="-649.55" font-family="Courier,monospace" font-size="11.00">textarea(4000)</text>
<polygon fill="none" stroke="#99ccff" points="266.25,-624 266.25,-643.5 974.25,-643.5 974.25,-624 266.25,-624"/>
<text text-anchor="start" x="269.25" y="-630.05" font-family="Courier,monospace" font-size="11.00"> &#160;&#160;&#160;&#160;&#160;&#160;&#160;&#160;&#160;&#160;&#160;&#160;&#160;&#160;&#160;&#160;&#160;&#160;&#160;&#160;&#160;&#160;&#160;&#160;&#160;&#160;&#160;&#160;&#160;&#160;&#160;&#160;&#160;&#160;&#160;&#160;&#160;&#160;&#160;&#160;IsActive &#160;&#160;&#160;&#160;&#160;&#160;&#160;&#160;&#160;&#160;&#160;&#160;&#160;&#160;&#160;&#160;&#160;&#160;&#160;&#160;&#160;&#160;&#160;&#160;&#160;&#160;&#160;&#160;&#160;&#160;&#160;&#160;&#160;&#160;&#160;&#160;&#160;&#160;</text>
<polygon fill="none" stroke="#99ccff" points="974.25,-624 974.25,-643.5 1081.5,-643.5 1081.5,-624 974.25,-624"/>
<text text-anchor="start" x="1004.25" y="-630.05" font-family="Courier,monospace" font-size="11.00">boolean</text>
<polygon fill="none" stroke="#99ccff" points="266.25,-604.5 266.25,-624 974.25,-624 974.25,-604.5 266.25,-604.5"/>
<text text-anchor="start" x="269.25" y="-610.55" font-family="Courier,monospace" font-size="11.00"> &#160;&#160;&#160;&#160;&#160;&#160;&#160;&#160;&#160;&#160;&#160;&#160;&#160;&#160;&#160;&#160;&#160;&#160;&#160;&#160;&#160;&#160;&#160;&#160;&#160;&#160;&#160;&#160;&#160;&#160;&#160;&#160;&#160;&#160;&#160;&#160;&#160;&#160;&#160;&#160;LastModifiedById &#160;&#160;&#160;&#160;&#160;&#160;&#160;&#160;&#160;&#160;&#160;&#160;&#160;&#160;&#160;&#160;&#160;&#160;&#160;&#160;&#160;&#160;&#160;&#160;&#160;&#160;&#160;&#160;&#160;&#160;&#160;&#160;&#160;&#160;&#160;&#160;&#160;&#160;</text>
<polygon fill="none" stroke="#99ccff" points="974.25,-604.5 974.25,-624 1081.5,-624 1081.5,-604.5 974.25,-604.5"/>
<text text-anchor="start" x="984" y="-610.55" font-family="Courier,monospace" font-size="11.00">reference(18)</text>
<polygon fill="none" stroke="#99ccff" points="266.25,-585 266.25,-604.5 974.25,-604.5 974.25,-585 266.25,-585"/>
<text text-anchor="start" x="269.25" y="-591.05" font-family="Courier,monospace" font-size="11.00"> &#160;&#160;&#160;&#160;&#160;&#160;&#160;&#160;&#160;&#160;&#160;&#160;&#160;&#160;&#160;&#160;&#160;&#160;&#160;&#160;&#160;&#160;&#160;&#160;&#160;&#160;&#160;&#160;&#160;&#160;&#160;&#160;&#160;&#160;&#160;&#160;&#160;&#160;&#160;&#160;Family &#160;&#160;&#160;&#160;&#160;&#160;&#160;&#160;&#160;&#160;&#160;&#160;&#160;&#160;&#160;&#160;&#160;&#160;&#160;&#160;&#160;&#160;&#160;&#160;&#160;&#160;&#160;&#160;&#160;&#160;&#160;&#160;&#160;&#160;&#160;&#160;&#160;&#160;</text>
<polygon fill="none" stroke="#99ccff" points="974.25,-585 974.25,-604.5 1081.5,-604.5 1081.5,-585 974.25,-585"/>
<text text-anchor="start" x="984" y="-591.05" font-family="Courier,monospace" font-size="11.00">picklist(255)</text>
<polygon fill="none" stroke="#99ccff" points="266.25,-565.5 266.25,-585 974.25,-585 974.25,-565.5 266.25,-565.5"/>
<text text-anchor="start" x="269.25" y="-571.55" font-family="Courier,monospace" font-size="11.00"> &#160;&#160;&#160;&#160;&#160;&#160;&#160;&#160;&#160;&#160;&#160;&#160;&#160;&#160;&#160;&#160;&#160;&#160;&#160;&#160;&#160;&#160;&#160;&#160;&#160;&#160;&#160;&#160;&#160;&#160;&#160;&#160;&#160;&#160;&#160;&#160;&#160;&#160;&#160;&#160;TaxPolicyId &#160;&#160;&#160;&#160;&#160;&#160;&#160;&#160;&#160;&#160;&#160;&#160;&#160;&#160;&#160;&#160;&#160;&#160;&#160;&#160;&#160;&#160;&#160;&#160;&#160;&#160;&#160;&#160;&#160;&#160;&#160;&#160;&#160;&#160;&#160;&#160;&#160;&#160;</text>
<polygon fill="none" stroke="#99ccff" points="974.25,-565.5 974.25,-585 1081.5,-585 1081.5,-565.5 974.25,-565.5"/>
<text text-anchor="start" x="984" y="-571.55" font-family="Courier,monospace" font-size="11.00">reference(18)</text>
<polygon fill="none" stroke="#99ccff" points="266.25,-546 266.25,-565.5 974.25,-565.5 974.25,-546 266.25,-546"/>
<text text-anchor="start" x="269.25" y="-552.05" font-family="Courier,monospace" font-size="11.00"> &#160;&#160;&#160;&#160;&#160;&#160;&#160;&#160;&#160;&#160;&#160;&#160;&#160;&#160;&#160;&#160;&#160;&#160;&#160;&#160;&#160;&#160;&#160;&#160;&#160;&#160;&#160;&#160;&#160;&#160;&#160;&#160;&#160;&#160;&#160;&#160;&#160;&#160;&#160;&#160;BillingPolicyId &#160;&#160;&#160;&#160;&#160;&#160;&#160;&#160;&#160;&#160;&#160;&#160;&#160;&#160;&#160;&#160;&#160;&#160;&#160;&#160;&#160;&#160;&#160;&#160;&#160;&#160;&#160;&#160;&#160;&#160;&#160;&#160;&#160;&#160;&#160;&#160;&#160;&#160;</text>
<polygon fill="none" stroke="#99ccff" points="974.25,-546 974.25,-565.5 1081.5,-565.5 1081.5,-546 974.25,-546"/>
<text text-anchor="start" x="984" y="-552.05" font-family="Courier,monospace" font-size="11.00">reference(18)</text>
<polygon fill="none" stroke="#99ccff" points="266.25,-526.5 266.25,-546 974.25,-546 974.25,-526.5 266.25,-526.5"/>
<text text-anchor="start" x="269.25" y="-532.55" font-family="Courier,monospace" font-size="11.00"> &#160;&#160;&#160;&#160;&#160;&#160;&#160;&#160;&#160;&#160;&#160;&#160;&#160;&#160;&#160;&#160;&#160;&#160;&#160;&#160;&#160;&#160;&#160;&#160;&#160;&#160;&#160;&#160;&#160;&#160;&#160;&#160;&#160;&#160;&#160;&#160;&#160;&#160;&#160;&#160;RecordTypeId &#160;&#160;&#160;&#160;&#160;&#160;&#160;&#160;&#160;&#160;&#160;&#160;&#160;&#160;&#160;&#160;&#160;&#160;&#160;&#160;&#160;&#160;&#160;&#160;&#160;&#160;&#160;&#160;&#160;&#160;&#160;&#160;&#160;&#160;&#160;&#160;&#160;&#160;</text>
<polygon fill="none" stroke="#99ccff" points="974.25,-526.5 974.25,-546 1081.5,-546 1081.5,-526.5 974.25,-526.5"/>
<text text-anchor="start" x="984" y="-532.55" font-family="Courier,monospace" font-size="11.00">reference(18)</text>
<polygon fill="none" stroke="#99ccff" points="266.25,-507 266.25,-526.5 974.25,-526.5 974.25,-507 266.25,-507"/>
<text text-anchor="start" x="269.25" y="-513.05" font-family="Courier,monospace" font-size="11.00"> &#160;&#160;&#160;&#160;&#160;&#160;&#160;&#160;&#160;&#160;&#160;&#160;&#160;&#160;&#160;&#160;&#160;&#160;&#160;&#160;&#160;&#160;&#160;&#160;&#160;&#160;&#160;&#160;&#160;&#160;&#160;&#160;&#160;&#160;&#160;&#160;&#160;&#160;&#160;&#160;ExternalDataSourceId &#160;&#160;&#160;&#160;&#160;&#160;&#160;&#160;&#160;&#160;&#160;&#160;&#160;&#160;&#160;&#160;&#160;&#160;&#160;&#160;&#160;&#160;&#160;&#160;&#160;&#160;&#160;&#160;&#160;&#160;&#160;&#160;&#160;&#160;&#160;&#160;&#160;&#160;</text>
<polygon fill="none" stroke="#99ccff" points="974.25,-507 974.25,-526.5 1081.5,-526.5 1081.5,-507 974.25,-507"/>
<text text-anchor="start" x="984" y="-513.05" font-family="Courier,monospace" font-size="11.00">reference(18)</text>
<polygon fill="none" stroke="#99ccff" points="266.25,-487.5 266.25,-507 974.25,-507 974.25,-487.5 266.25,-487.5"/>
<text text-anchor="start" x="269.25" y="-493.55" font-family="Courier,monospace" font-size="11.00"> &#160;&#160;&#160;&#160;&#160;&#160;&#160;&#160;&#160;&#160;&#160;&#160;&#160;&#160;&#160;&#160;&#160;&#160;&#160;&#160;&#160;&#160;&#160;&#160;&#160;&#160;&#160;&#160;&#160;&#160;&#160;&#160;&#160;&#160;&#160;&#160;&#160;&#160;&#160;&#160;ExternalId &#160;&#160;&#160;&#160;&#160;&#160;&#160;&#160;&#160;&#160;&#160;&#160;&#160;&#160;&#160;&#160;&#160;&#160;&#160;&#160;&#160;&#160;&#160;&#160;&#160;&#160;&#160;&#160;&#160;&#160;&#160;&#160;&#160;&#160;&#160;&#160;&#160;&#160;</text>
<polygon fill="none" stroke="#99ccff" points="974.25,-487.5 974.25,-507 1081.5,-507 1081.5,-487.5 974.25,-487.5"/>
<text text-anchor="start" x="990.75" y="-493.55" font-family="Courier,monospace" font-size="11.00">string(255)</text>
<polygon fill="none" stroke="#99ccff" points="266.25,-468 266.25,-487.5 974.25,-487.5 974.25,-468 266.25,-468"/>
<text text-anchor="start" x="269.25" y="-474.05" font-family="Courier,monospace" font-size="11.00"> &#160;&#160;&#160;&#160;&#160;&#160;&#160;&#160;&#160;&#160;&#160;&#160;&#160;&#160;&#160;&#160;&#160;&#160;&#160;&#160;&#160;&#160;&#160;&#160;&#160;&#160;&#160;&#160;&#160;&#160;&#160;&#160;&#160;&#160;&#160;&#160;&#160;&#160;&#160;&#160;DisplayUrl &#160;&#160;&#160;&#160;&#160;&#160;&#160;&#160;&#160;&#160;&#160;&#160;&#160;&#160;&#160;&#160;&#160;&#160;&#160;&#160;&#160;&#160;&#160;&#160;&#160;&#160;&#160;&#160;&#160;&#160;&#160;&#160;&#160;&#160;&#160;&#160;&#160;&#160;</text>
<polygon fill="none" stroke="#99ccff" points="974.25,-468 974.25,-487.5 1081.5,-487.5 1081.5,-468 974.25,-468"/>
<text text-anchor="start" x="997.5" y="-474.05" font-family="Courier,monospace" font-size="11.00">url(1000)</text>
<polygon fill="none" stroke="#99ccff" points="266.25,-448.5 266.25,-468 974.25,-468 974.25,-448.5 266.25,-448.5"/>
<text text-anchor="start" x="269.25" y="-454.55" font-family="Courier,monospace" font-size="11.00"> &#160;&#160;&#160;&#160;&#160;&#160;&#160;&#160;&#160;&#160;&#160;&#160;&#160;&#160;&#160;&#160;&#160;&#160;&#160;&#160;&#160;&#160;&#160;&#160;&#160;&#160;&#160;&#160;&#160;&#160;&#160;&#160;&#160;&#160;&#160;&#160;&#160;&#160;&#160;&#160;QuantityUnitOfMeasure &#160;&#160;&#160;&#160;&#160;&#160;&#160;&#160;&#160;&#160;&#160;&#160;&#160;&#160;&#160;&#160;&#160;&#160;&#160;&#160;&#160;&#160;&#160;&#160;&#160;&#160;&#160;&#160;&#160;&#160;&#160;&#160;&#160;&#160;&#160;&#160;&#160;&#160;</text>
<polygon fill="none" stroke="#99ccff" points="974.25,-448.5 974.25,-468 1081.5,-468 1081.5,-448.5 974.25,-448.5"/>
<text text-anchor="start" x="984" y="-454.55" font-family="Courier,monospace" font-size="11.00">picklist(255)</text>
<polygon fill="none" stroke="#99ccff" points="266.25,-429 266.25,-448.5 974.25,-448.5 974.25,-429 266.25,-429"/>
<text text-anchor="start" x="269.25" y="-435.05" font-family="Courier,monospace" font-size="11.00"> &#160;&#160;&#160;&#160;&#160;&#160;&#160;&#160;&#160;&#160;&#160;&#160;&#160;&#160;&#160;&#160;&#160;&#160;&#160;&#160;&#160;&#160;&#160;&#160;&#160;&#160;&#160;&#160;&#160;&#160;&#160;&#160;&#160;&#160;&#160;&#160;&#160;&#160;&#160;&#160;IsDeleted &#160;&#160;&#160;&#160;&#160;&#160;&#160;&#160;&#160;&#160;&#160;&#160;&#160;&#160;&#160;&#160;&#160;&#160;&#160;&#160;&#160;&#160;&#160;&#160;&#160;&#160;&#160;&#160;&#160;&#160;&#160;&#160;&#160;&#160;&#160;&#160;&#160;&#160;</text>
<polygon fill="none" stroke="#99ccff" points="974.25,-429 974.25,-448.5 1081.5,-448.5 1081.5,-429 974.25,-429"/>
<text text-anchor="start" x="1004.25" y="-435.05" font-family="Courier,monospace" font-size="11.00">boolean</text>
<polygon fill="none" stroke="#99ccff" points="266.25,-409.5 266.25,-429 974.25,-429 974.25,-409.5 266.25,-409.5"/>
<text text-anchor="start" x="269.25" y="-415.55" font-family="Courier,monospace" font-size="11.00"> &#160;&#160;&#160;&#160;&#160;&#160;&#160;&#160;&#160;&#160;&#160;&#160;&#160;&#160;&#160;&#160;&#160;&#160;&#160;&#160;&#160;&#160;&#160;&#160;&#160;&#160;&#160;&#160;&#160;&#160;&#160;&#160;&#160;&#160;&#160;&#160;&#160;&#160;&#160;&#160;IsArchived &#160;&#160;&#160;&#160;&#160;&#160;&#160;&#160;&#160;&#160;&#160;&#160;&#160;&#160;&#160;&#160;&#160;&#160;&#160;&#160;&#160;&#160;&#160;&#160;&#160;&#160;&#160;&#160;&#160;&#160;&#160;&#160;&#160;&#160;&#160;&#160;&#160;&#160;</text>
<polygon fill="none" stroke="#99ccff" points="974.25,-409.5 974.25,-429 1081.5,-429 1081.5,-409.5 974.25,-409.5"/>
<text text-anchor="start" x="1004.25" y="-415.55" font-family="Courier,monospace" font-size="11.00">boolean</text>
<polygon fill="none" stroke="#99ccff" points="266.25,-390 266.25,-409.5 974.25,-409.5 974.25,-390 266.25,-390"/>
<text text-anchor="start" x="269.25" y="-396.05" font-family="Courier,monospace" font-size="11.00"> &#160;&#160;&#160;&#160;&#160;&#160;&#160;&#160;&#160;&#160;&#160;&#160;&#160;&#160;&#160;&#160;&#160;&#160;&#160;&#160;&#160;&#160;&#160;&#160;&#160;&#160;&#160;&#160;&#160;&#160;&#160;&#160;&#160;&#160;&#160;&#160;&#160;&#160;&#160;&#160;LastViewedDate &#160;&#160;&#160;&#160;&#160;&#160;&#160;&#160;&#160;&#160;&#160;&#160;&#160;&#160;&#160;&#160;&#160;&#160;&#160;&#160;&#160;&#160;&#160;&#160;&#160;&#160;&#160;&#160;&#160;&#160;&#160;&#160;&#160;&#160;&#160;&#160;&#160;&#160;</text>
<polygon fill="none" stroke="#99ccff" points="974.25,-390 974.25,-409.5 1081.5,-409.5 1081.5,-390 974.25,-390"/>
<text text-anchor="start" x="1000.88" y="-396.05" font-family="Courier,monospace" font-size="11.00">datetime</text>
<polygon fill="none" stroke="#99ccff" points="266.25,-370.5 266.25,-390 974.25,-390 974.25,-370.5 266.25,-370.5"/>
<text text-anchor="start" x="269.25" y="-376.55" font-family="Courier,monospace" font-size="11.00"> &#160;&#160;&#160;&#160;&#160;&#160;&#160;&#160;&#160;&#160;&#160;&#160;&#160;&#160;&#160;&#160;&#160;&#160;&#160;&#160;&#160;&#160;&#160;&#160;&#160;&#160;&#160;&#160;&#160;&#160;&#160;&#160;&#160;&#160;&#160;&#160;&#160;&#160;&#160;&#160;LastReferencedDate &#160;&#160;&#160;&#160;&#160;&#160;&#160;&#160;&#160;&#160;&#160;&#160;&#160;&#160;&#160;&#160;&#160;&#160;&#160;&#160;&#160;&#160;&#160;&#160;&#160;&#160;&#160;&#160;&#160;&#160;&#160;&#160;&#160;&#160;&#160;&#160;&#160;&#160;</text>
<polygon fill="none" stroke="#99ccff" points="974.25,-370.5 974.25,-390 1081.5,-390 1081.5,-370.5 974.25,-370.5"/>
<text text-anchor="start" x="1000.88" y="-376.55" font-family="Courier,monospace" font-size="11.00">datetime</text>
<polygon fill="none" stroke="#99ccff" points="266.25,-351 266.25,-370.5 974.25,-370.5 974.25,-351 266.25,-351"/>
<text text-anchor="start" x="269.25" y="-357.05" font-family="Courier,monospace" font-size="11.00"> &#160;&#160;&#160;&#160;&#160;&#160;&#160;&#160;&#160;&#160;&#160;&#160;&#160;&#160;&#160;&#160;&#160;&#160;&#160;&#160;&#160;&#160;&#160;&#160;&#160;&#160;&#160;&#160;&#160;&#160;&#160;&#160;&#160;&#160;&#160;&#160;&#160;&#160;&#160;&#160;StockKeepingUnit &#160;&#160;&#160;&#160;&#160;&#160;&#160;&#160;&#160;&#160;&#160;&#160;&#160;&#160;&#160;&#160;&#160;&#160;&#160;&#160;&#160;&#160;&#160;&#160;&#160;&#160;&#160;&#160;&#160;&#160;&#160;&#160;&#160;&#160;&#160;&#160;&#160;&#160;</text>
<polygon fill="none" stroke="#99ccff" points="974.25,-351 974.25,-370.5 1081.5,-370.5 1081.5,-351 974.25,-351"/>
<text text-anchor="start" x="990.75" y="-357.05" font-family="Courier,monospace" font-size="11.00">string(180)</text>
<polygon fill="none" stroke="#99ccff" points="266.25,-331.5 266.25,-351 974.25,-351 974.25,-331.5 266.25,-331.5"/>
<text text-anchor="start" x="269.25" y="-337.55" font-family="Courier,monospace" font-size="11.00"> &#160;&#160;&#160;&#160;&#160;&#160;&#160;&#160;&#160;&#160;&#160;&#160;&#160;&#160;&#160;&#160;&#160;&#160;&#160;&#160;&#160;&#160;&#160;&#160;&#160;&#160;&#160;&#160;&#160;&#160;&#160;&#160;&#160;&#160;&#160;&#160;&#160;&#160;&#160;&#160;Type &#160;&#160;&#160;&#160;&#160;&#160;&#160;&#160;&#160;&#160;&#160;&#160;&#160;&#160;&#160;&#160;&#160;&#160;&#160;&#160;&#160;&#160;&#160;&#160;&#160;&#160;&#160;&#160;&#160;&#160;&#160;&#160;&#160;&#160;&#160;&#160;&#160;&#160;</text>
<polygon fill="none" stroke="#99ccff" points="974.25,-331.5 974.25,-351 1081.5,-351 1081.5,-331.5 974.25,-331.5"/>
<text text-anchor="start" x="987.38" y="-337.55" font-family="Courier,monospace" font-size="11.00">picklist(40)</text>
<polygon fill="none" stroke="#99ccff" points="266.25,-312 266.25,-331.5 974.25,-331.5 974.25,-312 266.25,-312"/>
<text text-anchor="start" x="269.25" y="-318.05" font-family="Courier,monospace" font-size="11.00"> &#160;&#160;&#160;&#160;&#160;&#160;&#160;&#160;&#160;&#160;&#160;&#160;&#160;&#160;&#160;&#160;&#160;&#160;&#160;&#160;&#160;&#160;&#160;&#160;&#160;&#160;&#160;&#160;&#160;&#160;&#160;&#160;&#160;&#160;&#160;&#160;&#160;&#160;&#160;&#160;AvailabilityDate &#160;&#160;&#160;&#160;&#160;&#160;&#160;&#160;&#160;&#160;&#160;&#160;&#160;&#160;&#160;&#160;&#160;&#160;&#160;&#160;&#160;&#160;&#160;&#160;&#160;&#160;&#160;&#160;&#160;&#160;&#160;&#160;&#160;&#160;&#160;&#160;&#160;&#160;</text>
<polygon fill="none" stroke="#99ccff" points="974.25,-312 974.25,-331.5 1081.5,-331.5 1081.5,-312 974.25,-312"/>
<text text-anchor="start" x="1000.88" y="-318.05" font-family="Courier,monospace" font-size="11.00">datetime</text>
<polygon fill="none" stroke="#99ccff" points="266.25,-292.5 266.25,-312 974.25,-312 974.25,-292.5 266.25,-292.5"/>
<text text-anchor="start" x="269.25" y="-298.55" font-family="Courier,monospace" font-size="11.00"> &#160;&#160;&#160;&#160;&#160;&#160;&#160;&#160;&#160;&#160;&#160;&#160;&#160;&#160;&#160;&#160;&#160;&#160;&#160;&#160;&#160;&#160;&#160;&#160;&#160;&#160;&#160;&#160;&#160;&#160;&#160;&#160;&#160;&#160;&#160;&#160;&#160;&#160;&#160;&#160;DiscontinuedDate &#160;&#160;&#160;&#160;&#160;&#160;&#160;&#160;&#160;&#160;&#160;&#160;&#160;&#160;&#160;&#160;&#160;&#160;&#160;&#160;&#160;&#160;&#160;&#160;&#160;&#160;&#160;&#160;&#160;&#160;&#160;&#160;&#160;&#160;&#160;&#160;&#160;&#160;</text>
<polygon fill="none" stroke="#99ccff" points="974.25,-292.5 974.25,-312 1081.5,-312 1081.5,-292.5 974.25,-292.5"/>
<text text-anchor="start" x="1000.88" y="-298.55" font-family="Courier,monospace" font-size="11.00">datetime</text>
<polygon fill="none" stroke="#99ccff" points="266.25,-273 266.25,-292.5 974.25,-292.5 974.25,-273 266.25,-273"/>
<text text-anchor="start" x="269.25" y="-279.05" font-family="Courier,monospace" font-size="11.00"> &#160;&#160;&#160;&#160;&#160;&#160;&#160;&#160;&#160;&#160;&#160;&#160;&#160;&#160;&#160;&#160;&#160;&#160;&#160;&#160;&#160;&#160;&#160;&#160;&#160;&#160;&#160;&#160;&#160;&#160;&#160;&#160;&#160;&#160;&#160;&#160;&#160;&#160;&#160;&#160;BasedOnId &#160;&#160;&#160;&#160;&#160;&#160;&#160;&#160;&#160;&#160;&#160;&#160;&#160;&#160;&#160;&#160;&#160;&#160;&#160;&#160;&#160;&#160;&#160;&#160;&#160;&#160;&#160;&#160;&#160;&#160;&#160;&#160;&#160;&#160;&#160;&#160;&#160;&#160;</text>
<polygon fill="none" stroke="#99ccff" points="974.25,-273 974.25,-292.5 1081.5,-292.5 1081.5,-273 974.25,-273"/>
<text text-anchor="start" x="984" y="-279.05" font-family="Courier,monospace" font-size="11.00">reference(18)</text>
<polygon fill="none" stroke="#99ccff" points="266.25,-253.5 266.25,-273 974.25,-273 974.25,-253.5 266.25,-253.5"/>
<text text-anchor="start" x="269.25" y="-259.55" font-family="Courier,monospace" font-size="11.00"> &#160;&#160;&#160;&#160;&#160;&#160;&#160;&#160;&#160;&#160;&#160;&#160;&#160;&#160;&#160;&#160;&#160;&#160;&#160;&#160;&#160;&#160;&#160;&#160;&#160;&#160;&#160;&#160;&#160;&#160;&#160;&#160;&#160;&#160;&#160;&#160;&#160;&#160;&#160;&#160;EndOfLifeDate &#160;&#160;&#160;&#160;&#160;&#160;&#160;&#160;&#160;&#160;&#160;&#160;&#160;&#160;&#160;&#160;&#160;&#160;&#160;&#160;&#160;&#160;&#160;&#160;&#160;&#160;&#160;&#160;&#160;&#160;&#160;&#160;&#160;&#160;&#160;&#160;&#160;&#160;</text>
<polygon fill="none" stroke="#99ccff" points="974.25,-253.5 974.25,-273 1081.5,-273 1081.5,-253.5 974.25,-253.5"/>
<text text-anchor="start" x="1000.88" y="-259.55" font-family="Courier,monospace" font-size="11.00">datetime</text>
<polygon fill="none" stroke="#99ccff" points="266.25,-234 266.25,-253.5 974.25,-253.5 974.25,-234 266.25,-234"/>
<text text-anchor="start" x="269.25" y="-240.05" font-family="Courier,monospace" font-size="11.00"> &#160;&#160;&#160;&#160;&#160;&#160;&#160;&#160;&#160;&#160;&#160;&#160;&#160;&#160;&#160;&#160;&#160;&#160;&#160;&#160;&#160;&#160;&#160;&#160;&#160;&#160;&#160;&#160;&#160;&#160;&#160;&#160;&#160;&#160;&#160;&#160;&#160;&#160;&#160;&#160;HelpText &#160;&#160;&#160;&#160;&#160;&#160;&#160;&#160;&#160;&#160;&#160;&#160;&#160;&#160;&#160;&#160;&#160;&#160;&#160;&#160;&#160;&#160;&#160;&#160;&#160;&#160;&#160;&#160;&#160;&#160;&#160;&#160;&#160;&#160;&#160;&#160;&#160;&#160;</text>
<polygon fill="none" stroke="#99ccff" points="974.25,-234 974.25,-253.5 1081.5,-253.5 1081.5,-234 974.25,-234"/>
<text text-anchor="start" x="977.25" y="-240.05" font-family="Courier,monospace" font-size="11.00">textarea(32768)</text>
<polygon fill="none" stroke="#99ccff" points="266.25,-214.5 266.25,-234 974.25,-234 974.25,-214.5 266.25,-214.5"/>
<text text-anchor="start" x="269.25" y="-220.55" font-family="Courier,monospace" font-size="11.00"> &#160;&#160;&#160;&#160;&#160;&#160;&#160;&#160;&#160;&#160;&#160;&#160;&#160;&#160;&#160;&#160;&#160;&#160;&#160;&#160;&#160;&#160;&#160;&#160;&#160;&#160;&#160;&#160;&#160;&#160;&#160;&#160;&#160;&#160;&#160;&#160;&#160;&#160;&#160;&#160;IsAssetizable &#160;&#160;&#160;&#160;&#160;&#160;&#160;&#160;&#160;&#160;&#160;&#160;&#160;&#160;&#160;&#160;&#160;&#160;&#160;&#160;&#160;&#160;&#160;&#160;&#160;&#160;&#160;&#160;&#160;&#160;&#160;&#160;&#160;&#160;&#160;&#160;&#160;&#160;</text>
<polygon fill="none" stroke="#99ccff" points="974.25,-214.5 974.25,-234 1081.5,-234 1081.5,-214.5 974.25,-214.5"/>
<text text-anchor="start" x="1004.25" y="-220.55" font-family="Courier,monospace" font-size="11.00">boolean</text>
<polygon fill="none" stroke="#99ccff" points="266.25,-195 266.25,-214.5 974.25,-214.5 974.25,-195 266.25,-195"/>
<text text-anchor="start" x="269.25" y="-201.05" font-family="Courier,monospace" font-size="11.00"> &#160;&#160;&#160;&#160;&#160;&#160;&#160;&#160;&#160;&#160;&#160;&#160;&#160;&#160;&#160;&#160;&#160;&#160;&#160;&#160;&#160;&#160;&#160;&#160;&#160;&#160;&#160;&#160;&#160;&#160;&#160;&#160;&#160;&#160;&#160;&#160;&#160;&#160;&#160;&#160;ConfigureDuringSale &#160;&#160;&#160;&#160;&#160;&#160;&#160;&#160;&#160;&#160;&#160;&#160;&#160;&#160;&#160;&#160;&#160;&#160;&#160;&#160;&#160;&#160;&#160;&#160;&#160;&#160;&#160;&#160;&#160;&#160;&#160;&#160;&#160;&#160;&#160;&#160;&#160;&#160;</text>
<polygon fill="none" stroke="#99ccff" points="974.25,-195 974.25,-214.5 1081.5,-214.5 1081.5,-195 974.25,-195"/>
<text text-anchor="start" x="987.38" y="-201.05" font-family="Courier,monospace" font-size="11.00">picklist(40)</text>
<polygon fill="none" stroke="#99ccff" points="266.25,-175.5 266.25,-195 974.25,-195 974.25,-175.5 266.25,-175.5"/>
<text text-anchor="start" x="269.25" y="-181.55" font-family="Courier,monospace" font-size="11.00"> &#160;&#160;&#160;&#160;&#160;&#160;&#160;&#160;&#160;&#160;&#160;&#160;&#160;&#160;&#160;&#160;&#160;&#160;&#160;&#160;&#160;&#160;&#160;&#160;&#160;&#160;&#160;&#160;&#160;&#160;&#160;&#160;&#160;&#160;&#160;&#160;&#160;&#160;&#160;&#160;IsSoldOnlyWithOtherProds &#160;&#160;&#160;&#160;&#160;&#160;&#160;&#160;&#160;&#160;&#160;&#160;&#160;&#160;&#160;&#160;&#160;&#160;&#160;&#160;&#160;&#160;&#160;&#160;&#160;&#160;&#160;&#160;&#160;&#160;&#160;&#160;&#160;&#160;&#160;&#160;&#160;&#160;</text>
<polygon fill="none" stroke="#99ccff" points="974.25,-175.5 974.25,-195 1081.5,-195 1081.5,-175.5 974.25,-175.5"/>
<text text-anchor="start" x="1004.25" y="-181.55" font-family="Courier,monospace" font-size="11.00">boolean</text>
<polygon fill="none" stroke="#99ccff" points="266.25,-156 266.25,-175.5 974.25,-175.5 974.25,-156 266.25,-156"/>
<text text-anchor="start" x="269.25" y="-162.05" font-family="Courier,monospace" font-size="11.00"> &#160;&#160;&#160;&#160;&#160;&#160;&#160;&#160;&#160;&#160;&#160;&#160;&#160;&#160;&#160;&#160;&#160;&#160;&#160;&#160;&#160;&#160;&#160;&#160;&#160;&#160;&#160;&#160;&#160;&#160;&#160;&#160;&#160;&#160;&#160;&#160;&#160;&#160;&#160;&#160;SpecificationType &#160;&#160;&#160;&#160;&#160;&#160;&#160;&#160;&#160;&#160;&#160;&#160;&#160;&#160;&#160;&#160;&#160;&#160;&#160;&#160;&#160;&#160;&#160;&#160;&#160;&#160;&#160;&#160;&#160;&#160;&#160;&#160;&#160;&#160;&#160;&#160;&#160;&#160;</text>
<polygon fill="none" stroke="#99ccff" points="974.25,-156 974.25,-175.5 1081.5,-175.5 1081.5,-156 974.25,-156"/>
<text text-anchor="start" x="990.75" y="-162.05" font-family="Courier,monospace" font-size="11.00">string(255)</text>
<polygon fill="none" stroke="#99ccff" points="266.25,-136.5 266.25,-156 974.25,-156 974.25,-136.5 266.25,-136.5"/>
<text text-anchor="start" x="269.25" y="-142.55" font-family="Courier,monospace" font-size="11.00"> &#160;&#160;&#160;&#160;&#160;&#160;&#160;&#160;&#160;&#160;&#160;&#160;&#160;&#160;&#160;&#160;&#160;&#160;&#160;&#160;&#160;&#160;&#160;&#160;&#160;&#160;&#160;&#160;&#160;&#160;&#160;&#160;&#160;&#160;&#160;&#160;&#160;&#160;&#160;&#160;DecompositionScope &#160;&#160;&#160;&#160;&#160;&#160;&#160;&#160;&#160;&#160;&#160;&#160;&#160;&#160;&#160;&#160;&#160;&#160;&#160;&#160;&#160;&#160;&#160;&#160;&#160;&#160;&#160;&#160;&#160;&#160;&#160;&#160;&#160;&#160;&#160;&#160;&#160;&#160;</text>
<polygon fill="none" stroke="#99ccff" points="974.25,-136.5 974.25,-156 1081.5,-156 1081.5,-136.5 974.25,-136.5"/>
<text text-anchor="start" x="987.38" y="-142.55" font-family="Courier,monospace" font-size="11.00">picklist(40)</text>
<polygon fill="none" stroke="#99ccff" points="266.25,-117 266.25,-136.5 974.25,-136.5 974.25,-117 266.25,-117"/>
<text text-anchor="start" x="269.25" y="-123.05" font-family="Courier,monospace" font-size="11.00"> &#160;&#160;&#160;&#160;&#160;&#160;&#160;&#160;&#160;&#160;&#160;&#160;&#160;&#160;&#160;&#160;&#160;&#160;&#160;&#160;&#160;&#160;&#160;&#160;&#160;&#160;&#160;&#160;&#160;&#160;&#160;&#160;&#160;&#160;&#160;&#160;&#160;&#160;&#160;&#160;FulfillmentQtyCalcMethod &#160;&#160;&#160;&#160;&#160;&#160;&#160;&#160;&#160;&#160;&#160;&#160;&#160;&#160;&#160;&#160;&#160;&#160;&#160;&#160;&#160;&#160;&#160;&#160;&#160;&#160;&#160;&#160;&#160;&#160;&#160;&#160;&#160;&#160;&#160;&#160;&#160;&#160;</text>
<polygon fill="none" stroke="#99ccff" points="974.25,-117 974.25,-136.5 1081.5,-136.5 1081.5,-117 974.25,-117"/>
<text text-anchor="start" x="987.38" y="-123.05" font-family="Courier,monospace" font-size="11.00">picklist(40)</text>
<polygon fill="none" stroke="#99ccff" points="266.25,-97.5 266.25,-117 974.25,-117 974.25,-97.5 266.25,-97.5"/>
<text text-anchor="start" x="269.25" y="-103.55" font-family="Courier,monospace" font-size="11.00"> &#160;&#160;&#160;&#160;&#160;&#160;&#160;&#160;&#160;&#160;&#160;&#160;&#160;&#160;&#160;&#160;&#160;&#160;&#160;&#160;&#160;&#160;&#160;&#160;&#160;&#160;&#160;&#160;&#160;&#160;&#160;&#160;&#160;&#160;&#160;&#160;&#160;&#160;&#160;&#160;CanRamp &#160;&#160;&#160;&#160;&#160;&#160;&#160;&#160;&#160;&#160;&#160;&#160;&#160;&#160;&#160;&#160;&#160;&#160;&#160;&#160;&#160;&#160;&#160;&#160;&#160;&#160;&#160;&#160;&#160;&#160;&#160;&#160;&#160;&#160;&#160;&#160;&#160;&#160;</text>
<polygon fill="none" stroke="#99ccff" points="974.25,-97.5 974.25,-117 1081.5,-117 1081.5,-97.5 974.25,-97.5"/>
<text text-anchor="start" x="1004.25" y="-103.55" font-family="Courier,monospace" font-size="11.00">boolean</text>
<polygon fill="none" stroke="#99ccff" points="266.25,-78 266.25,-97.5 974.25,-97.5 974.25,-78 266.25,-78"/>
<text text-anchor="start" x="269.25" y="-84.05" font-family="Courier,monospace" font-size="11.00"> &#160;&#160;&#160;&#160;&#160;&#160;&#160;&#160;&#160;&#160;&#160;&#160;&#160;&#160;&#160;&#160;&#160;&#160;&#160;&#160;&#160;&#160;&#160;&#160;&#160;&#160;&#160;&#160;&#160;&#160;&#160;&#160;&#160;&#160;&#160;&#160;&#160;&#160;&#160;&#160;UsageModelType &#160;&#160;&#160;&#160;&#160;&#160;&#160;&#160;&#160;&#160;&#160;&#160;&#160;&#160;&#160;&#160;&#160;&#160;&#160;&#160;&#160;&#160;&#160;&#160;&#160;&#160;&#160;&#160;&#160;&#160;&#160;&#160;&#160;&#160;&#160;&#160;&#160;&#160;</text>
<polygon fill="none" stroke="#99ccff" points="974.25,-78 974.25,-97.5 1081.5,-97.5 1081.5,-78 974.25,-78"/>
<text text-anchor="start" x="987.38" y="-84.05" font-family="Courier,monospace" font-size="11.00">picklist(40)</text>
<polygon fill="none" stroke="#99ccff" points="266.25,-58.5 266.25,-78 974.25,-78 974.25,-58.5 266.25,-58.5"/>
<text text-anchor="start" x="269.25" y="-64.55" font-family="Courier,monospace" font-size="11.00"> &#160;&#160;&#160;&#160;&#160;&#160;&#160;&#160;&#160;&#160;&#160;&#160;&#160;&#160;&#160;&#160;&#160;&#160;&#160;&#160;&#160;&#160;&#160;&#160;&#160;&#160;&#160;&#160;&#160;&#160;&#160;&#160;&#160;&#160;&#160;&#160;&#160;&#160;&#160;&#160;UnitOfMeasureId &#160;&#160;&#160;&#160;&#160;&#160;&#160;&#160;&#160;&#160;&#160;&#160;&#160;&#160;&#160;&#160;&#160;&#160;&#160;&#160;&#160;&#160;&#160;&#160;&#160;&#160;&#160;&#160;&#160;&#160;&#160;&#160;&#160;&#160;&#160;&#160;&#160;&#160;</text>
<polygon fill="none" stroke="#99ccff" points="974.25,-58.5 974.25,-78 1081.5,-78 1081.5,-58.5 974.25,-58.5"/>
<text text-anchor="start" x="984" y="-64.55" font-family="Courier,monospace" font-size="11.00">reference(18)</text>
<polygon fill="none" stroke="#99ccff" points="266.25,-39 266.25,-58.5 974.25,-58.5 974.25,-39 266.25,-39"/>
<text text-anchor="start" x="269.25" y="-45.05" font-family="Courier,monospace" font-size="11.00"> &#160;&#160;&#160;&#160;&#160;&#160;&#160;&#160;&#160;&#160;&#160;&#160;&#160;&#160;&#160;&#160;&#160;&#160;&#160;&#160;&#160;&#160;&#160;&#160;&#160;&#160;&#160;&#160;&#160;&#160;&#160;&#160;&#160;&#160;&#160;&#160;&#160;&#160;&#160;&#160;CustomDecompositionScope &#160;&#160;&#160;&#160;&#160;&#160;&#160;&#160;&#160;&#160;&#160;&#160;&#160;&#160;&#160;&#160;&#160;&#160;&#160;&#160;&#160;&#160;&#160;&#160;&#160;&#160;&#160;&#160;&#160;&#160;&#160;&#160;&#160;&#160;&#160;&#160;&#160;&#160;</text>
<polygon fill="none" stroke="#99ccff" points="974.25,-39 974.25,-58.5 1081.5,-58.5 1081.5,-39 974.25,-39"/>
<text text-anchor="start" x="990.75" y="-45.05" font-family="Courier,monospace" font-size="11.00">string(255)</text>
<polygon fill="none" stroke="#99ccff" points="266.25,-19.5 266.25,-39 974.25,-39 974.25,-19.5 266.25,-19.5"/>
<text text-anchor="start" x="269.25" y="-25.55" font-family="Courier,monospace" font-size="11.00"> &#160;&#160;&#160;&#160;&#160;&#160;&#160;&#160;&#160;&#160;&#160;&#160;&#160;&#160;&#160;&#160;&#160;&#160;&#160;&#160;&#160;&#160;&#160;&#160;&#160;&#160;&#160;&#160;&#160;&#160;&#160;&#160;&#160;&#160;&#160;&#160;&#160;&#160;&#160;&#160;Based_On_Class_Name__c &#160;&#160;&#160;&#160;&#160;&#160;&#160;&#160;&#160;&#160;&#160;&#160;&#160;&#160;&#160;&#160;&#160;&#160;&#160;&#160;&#160;&#160;&#160;&#160;&#160;&#160;&#160;&#160;&#160;&#160;&#160;&#160;&#160;&#160;&#160;&#160;&#160;&#160;</text>
<polygon fill="none" stroke="#99ccff" points="974.25,-19.5 974.25,-39 1081.5,-39 1081.5,-19.5 974.25,-19.5"/>
<text text-anchor="start" x="987.38" y="-25.55" font-family="Courier,monospace" font-size="11.00">string(1300)</text>
<polygon fill="none" stroke="#99ccff" points="265.25,-18.5 265.25,-742 1082.5,-742 1082.5,-18.5 265.25,-18.5"/>
</a>
</g>
</g>
<!-- User -->
<g id="node2" class="node">
<title>User</title>
<text text-anchor="middle" x="78.88" y="-649.55" font-family="Courier,monospace" font-size="11.00">User</text>
</g>
<!-- Product2&#45;&gt;User -->
<g id="edge1" class="edge">
<title>Product2:w&#45;&gt;User:e</title>
<path fill="none" stroke="#ff99cc" d="M249.44,-614.68C195.57,-617.52 137.89,-633.82 105.61,-644.3"/>
<polygon fill="#ff99cc" stroke="#ff99cc" points="256.92,-614.48 265.01,-617.86 261.25,-614.36 264.58,-614.27 264.58,-614.27 264.58,-614.27 261.25,-614.36 264.82,-610.66 256.92,-614.48"/>
<ellipse fill="none" stroke="#ff99cc" cx="252" cy="-614.61" rx="3.2" ry="3.2"/>
<text text-anchor="middle" x="211.5" y="-627.41" font-family="Monaco" font-size="9.00">LastModifiedBy</text>
</g>
<!-- TaxPolicy -->
<g id="node3" class="node">
<title>TaxPolicy</title>
<text text-anchor="middle" x="78.88" y="-600.55" font-family="Courier,monospace" font-size="11.00">TaxPolicy</text>
</g>
<!-- Product2&#45;&gt;TaxPolicy -->
<g id="edge2" class="edge">
<title>Product2:w&#45;&gt;TaxPolicy:e</title>
<path fill="none" stroke="#ff99cc" d="M249.59,-575.57C201.92,-577.45 150.78,-587.28 117.24,-594.91"/>
<polygon fill="#ff99cc" stroke="#ff99cc" points="256.92,-575.42 264.99,-578.86 261.25,-575.33 264.58,-575.26 264.58,-575.26 264.58,-575.26 261.25,-575.33 264.84,-571.66 256.92,-575.42"/>
<ellipse fill="none" stroke="#ff99cc" cx="252" cy="-575.52" rx="3.2" ry="3.2"/>
<text text-anchor="middle" x="211.5" y="-585.73" font-family="Monaco" font-size="9.00">TaxPolicy</text>
</g>
<!-- BillingPolicy -->
<g id="node4" class="node">
<title>BillingPolicy</title>
<text text-anchor="middle" x="78.88" y="-551.55" font-family="Courier,monospace" font-size="11.00">BillingPolicy</text>
</g>
<!-- Product2&#45;&gt;BillingPolicy -->
<g id="edge3" class="edge">
<title>Product2:w&#45;&gt;BillingPolicy:e</title>
<path fill="none" stroke="#ff99cc" d="M249.56,-555.74C208.15,-555.72 163.66,-555.58 130.62,-555.46"/>
<polygon fill="#ff99cc" stroke="#ff99cc" points="256.92,-555.75 264.91,-559.35 261.25,-555.75 264.58,-555.75 264.58,-555.75 264.58,-555.75 261.25,-555.75 264.92,-552.15 256.92,-555.75"/>
<ellipse fill="none" stroke="#ff99cc" cx="252" cy="-555.75" rx="3.2" ry="3.2"/>
<text text-anchor="middle" x="211.5" y="-558.44" font-family="Monaco" font-size="9.00">BillingPolicy</text>
</g>
<!-- RecordType -->
<g id="node5" class="node">
<title>RecordType</title>
<text text-anchor="middle" x="78.88" y="-502.55" font-family="Courier,monospace" font-size="11.00">RecordType</text>
</g>
<!-- Product2&#45;&gt;RecordType -->
<g id="edge4" class="edge">
<title>Product2:w&#45;&gt;RecordType:e</title>
<path fill="none" stroke="#ff99cc" d="M251.24,-529.19C250.37,-528.74 249.38,-528.34 248.25,-528 205.74,-515.31 155.02,-510.02 120.44,-507.82"/>
<polygon fill="#ff99cc" stroke="#ff99cc" points="257.81,-532.5 263.33,-539.31 261.68,-534.45 264.65,-535.95 264.65,-535.95 264.65,-535.95 261.68,-534.45 266.57,-532.88 257.81,-532.5"/>
<ellipse fill="none" stroke="#ff99cc" cx="253.41" cy="-530.29" rx="3.2" ry="3.2"/>
<text text-anchor="middle" x="211.5" y="-530.7" font-family="Monaco" font-size="9.00">RecordType</text>
</g>
<!-- ExternalDataSource -->
<g id="node6" class="node">
<title>ExternalDataSource</title>
<text text-anchor="middle" x="78.88" y="-453.55" font-family="Courier,monospace" font-size="11.00">ExternalDataSource</text>
</g>
<!-- Product2&#45;&gt;ExternalDataSource -->
<g id="edge5" class="edge">
<title>Product2:w&#45;&gt;ExternalDataSource:e</title>
<path fill="none" stroke="#ff99cc" d="M255.5,-504.57C254.56,-499.39 253.4,-493.75 248.25,-490.25 218.81,-470.24 180.17,-461.72 147.33,-458.32"/>
<polygon fill="#ff99cc" stroke="#ff99cc" points="260.04,-510.24 262.23,-518.74 262.75,-513.63 264.83,-516.23 264.83,-516.23 264.83,-516.23 262.75,-513.63 267.85,-514.24 260.04,-510.24"/>
<ellipse fill="none" stroke="#ff99cc" cx="256.97" cy="-506.4" rx="3.2" ry="3.2"/>
</g>
<!-- ProductClassification -->
<g id="node7" class="node">
<title>ProductClassification</title>
<text text-anchor="middle" x="78.88" y="-279.55" font-family="Courier,monospace" font-size="11.00">ProductClassification</text>
</g>
<!-- Product2&#45;&gt;ProductClassification -->
<g id="edge6" class="edge">
<title>Product2:w&#45;&gt;ProductClassification:e</title>
<path fill="none" stroke="#ff99cc" d="M249.69,-282.76C218.64,-282.78 185.85,-282.86 157.44,-282.95"/>
<polygon fill="#ff99cc" stroke="#ff99cc" points="256.92,-282.75 264.92,-286.35 261.25,-282.75 264.58,-282.75 264.58,-282.75 264.58,-282.75 261.25,-282.75 264.91,-279.15 256.92,-282.75"/>
<ellipse fill="none" stroke="#ff99cc" cx="252" cy="-282.75" rx="3.2" ry="3.2"/>
<text text-anchor="middle" x="211.5" y="-285.58" font-family="Monaco" font-size="9.00">BasedOn</text>
</g>
<!-- UnitOfMeasure -->
<g id="node8" class="node">
<title>UnitOfMeasure</title>
<text text-anchor="middle" x="78.88" y="-64.55" font-family="Courier,monospace" font-size="11.00">UnitOfMeasure</text>
</g>
<!-- Product2&#45;&gt;UnitOfMeasure -->
<g id="edge7" class="edge">
<title>Product2:w&#45;&gt;UnitOfMeasure:e</title>
<path fill="none" stroke="#ff99cc" d="M249.56,-68.25C208.15,-68.25 163.66,-68.25 130.62,-68.25"/>
<polygon fill="#ff99cc" stroke="#ff99cc" points="256.92,-68.25 264.92,-71.85 261.25,-68.25 264.58,-68.25 264.58,-68.25 264.58,-68.25 261.25,-68.25 264.92,-64.65 256.92,-68.25"/>
<ellipse fill="none" stroke="#ff99cc" cx="252" cy="-68.25" rx="3.2" ry="3.2"/>
<text text-anchor="middle" x="211.5" y="-70.95" font-family="Monaco" font-size="9.00">UnitOfMeasure</text>
</g>
</g>
</svg>
