<?xml version="1.0" encoding="UTF-8" standalone="no"?>
<!DOCTYPE svg PUBLIC "-//W3C//DTD SVG 1.1//EN"
 "http://www.w3.org/Graphics/SVG/1.1/DTD/svg11.dtd">
<!-- Generated by graphviz version 12.2.1 (20241206.2353)
 -->
<!-- Title: Salesforce+ ERD Pages: 1 -->
<svg width="1262pt" height="416pt"
 viewBox="0.00 0.00 1262.25 415.75" xmlns="http://www.w3.org/2000/svg" xmlns:xlink="http://www.w3.org/1999/xlink">
<g id="graph0" class="graph" transform="scale(1 1) rotate(0) translate(4 411.75)">
<title>Salesforce+ ERD</title>
<polygon fill="#efeffd" stroke="none" points="-4,4 -4,-411.75 1258.25,-411.75 1258.25,4 -4,4"/>
<text text-anchor="middle" x="1206.88" y="-5.95" font-family="Courier,monospace" font-size="9.00">Salesforce ERD </text>
<!-- ProductDecompEnrichmentRule -->
<g id="node1" class="node">
<title>ProductDecompEnrichmentRule</title>
<g id="a_node1"><a xlink:href="#" xlink:title=" ProductDecompEnrichmentRule ">
<polygon fill="#ffeeff" stroke="none" points="396.5,-35.25 396.5,-407.75 1254.25,-407.75 1254.25,-35.25 396.5,-35.25"/>
<polygon fill="lightblue" stroke="none" points="397.5,-387.25 397.5,-406.75 1253.25,-406.75 1253.25,-387.25 397.5,-387.25"/>
<polygon fill="none" stroke="#99ccff" points="397.5,-387.25 397.5,-406.75 1253.25,-406.75 1253.25,-387.25 397.5,-387.25"/>
<text text-anchor="start" x="734.25" y="-394.3" font-family="Courier,monospace" font-weight="bold" font-size="11.00">ProductDecompEnrichmentRule</text>
<polygon fill="#99ccff" stroke="none" points="397.5,-367.75 397.5,-387.25 1159.5,-387.25 1159.5,-367.75 397.5,-367.75"/>
<polygon fill="none" stroke="#99ccff" points="397.5,-367.75 397.5,-387.25 1159.5,-387.25 1159.5,-367.75 397.5,-367.75"/>
<text text-anchor="start" x="400.5" y="-374.8" font-family="Courier,monospace" font-size="11.00"> &#160;&#160;&#160;&#160;&#160;&#160;&#160;&#160;&#160;&#160;&#160;&#160;&#160;&#160;&#160;&#160;&#160;&#160;&#160;&#160;&#160;&#160;&#160;&#160;&#160;&#160;&#160;&#160;&#160;&#160;&#160;&#160;&#160;&#160;&#160;&#160;&#160;&#160;&#160;&#160;&#160;&#160;</text>
<text text-anchor="start" x="690.75" y="-374.8" font-family="Courier,monospace" font-weight="bold" font-size="11.00">Id</text>
<text text-anchor="start" x="704.25" y="-374.8" font-family="Courier,monospace" font-size="11.00"> &#160;&#160;&#160;&#160;&#160;&#160;&#160;&#160;&#160;&#160;&#160;&#160;&#160;&#160;&#160;&#160;&#160;&#160;&#160;&#160;&#160;&#160;&#160;&#160;&#160;&#160;&#160;&#160;&#160;&#160;&#160;&#160;&#160;&#160;&#160;&#160;&#160;&#160;&#160;</text>
<polygon fill="none" stroke="#99ccff" points="1159.5,-367.75 1159.5,-387.25 1253.25,-387.25 1253.25,-367.75 1159.5,-367.75"/>
<text text-anchor="start" x="1186.12" y="-373.8" font-family="Courier,monospace" font-size="11.00">id(18)</text>
<polygon fill="none" stroke="#99ccff" points="397.5,-348.25 397.5,-367.75 1159.5,-367.75 1159.5,-348.25 397.5,-348.25"/>
<text text-anchor="start" x="400.5" y="-354.3" font-family="Courier,monospace" font-size="11.00"> &#160;&#160;&#160;&#160;&#160;&#160;&#160;&#160;&#160;&#160;&#160;&#160;&#160;&#160;&#160;&#160;&#160;&#160;&#160;&#160;&#160;&#160;&#160;&#160;&#160;&#160;&#160;&#160;&#160;&#160;&#160;&#160;&#160;&#160;&#160;&#160;&#160;&#160;&#160;&#160;IsDeleted &#160;&#160;&#160;&#160;&#160;&#160;&#160;&#160;&#160;&#160;&#160;&#160;&#160;&#160;&#160;&#160;&#160;&#160;&#160;&#160;&#160;&#160;&#160;&#160;&#160;&#160;&#160;&#160;&#160;&#160;&#160;&#160;&#160;&#160;&#160;&#160;&#160;&#160;</text>
<polygon fill="none" stroke="#99ccff" points="1159.5,-348.25 1159.5,-367.75 1253.25,-367.75 1253.25,-348.25 1159.5,-348.25"/>
<text text-anchor="start" x="1182.75" y="-354.3" font-family="Courier,monospace" font-size="11.00">boolean</text>
<polygon fill="none" stroke="#99ccff" points="397.5,-328.75 397.5,-348.25 1159.5,-348.25 1159.5,-328.75 397.5,-328.75"/>
<text text-anchor="start" x="400.5" y="-334.8" font-family="Courier,monospace" font-size="11.00"> &#160;&#160;&#160;&#160;&#160;&#160;&#160;&#160;&#160;&#160;&#160;&#160;&#160;&#160;&#160;&#160;&#160;&#160;&#160;&#160;&#160;&#160;&#160;&#160;&#160;&#160;&#160;&#160;&#160;&#160;&#160;&#160;&#160;&#160;&#160;&#160;&#160;&#160;&#160;&#160;Name &#160;&#160;&#160;&#160;&#160;&#160;&#160;&#160;&#160;&#160;&#160;&#160;&#160;&#160;&#160;&#160;&#160;&#160;&#160;&#160;&#160;&#160;&#160;&#160;&#160;&#160;&#160;&#160;&#160;&#160;&#160;&#160;&#160;&#160;&#160;&#160;&#160;&#160;</text>
<polygon fill="none" stroke="#99ccff" points="1159.5,-328.75 1159.5,-348.25 1253.25,-348.25 1253.25,-328.75 1159.5,-328.75"/>
<text text-anchor="start" x="1169.25" y="-334.8" font-family="Courier,monospace" font-size="11.00">string(255)</text>
<polygon fill="none" stroke="#99ccff" points="397.5,-309.25 397.5,-328.75 1159.5,-328.75 1159.5,-309.25 397.5,-309.25"/>
<text text-anchor="start" x="400.5" y="-315.3" font-family="Courier,monospace" font-size="11.00"> &#160;&#160;&#160;&#160;&#160;&#160;&#160;&#160;&#160;&#160;&#160;&#160;&#160;&#160;&#160;&#160;&#160;&#160;&#160;&#160;&#160;&#160;&#160;&#160;&#160;&#160;&#160;&#160;&#160;&#160;&#160;&#160;&#160;&#160;&#160;&#160;&#160;&#160;&#160;&#160;LastModifiedById &#160;&#160;&#160;&#160;&#160;&#160;&#160;&#160;&#160;&#160;&#160;&#160;&#160;&#160;&#160;&#160;&#160;&#160;&#160;&#160;&#160;&#160;&#160;&#160;&#160;&#160;&#160;&#160;&#160;&#160;&#160;&#160;&#160;&#160;&#160;&#160;&#160;&#160;</text>
<polygon fill="none" stroke="#99ccff" points="1159.5,-309.25 1159.5,-328.75 1253.25,-328.75 1253.25,-309.25 1159.5,-309.25"/>
<text text-anchor="start" x="1162.5" y="-315.3" font-family="Courier,monospace" font-size="11.00">reference(18)</text>
<polygon fill="none" stroke="#99ccff" points="397.5,-289.75 397.5,-309.25 1159.5,-309.25 1159.5,-289.75 397.5,-289.75"/>
<text text-anchor="start" x="400.5" y="-295.8" font-family="Courier,monospace" font-size="11.00"> &#160;&#160;&#160;&#160;&#160;&#160;&#160;&#160;&#160;&#160;&#160;&#160;&#160;&#160;&#160;&#160;&#160;&#160;&#160;&#160;&#160;&#160;&#160;&#160;&#160;&#160;&#160;&#160;&#160;&#160;&#160;&#160;&#160;&#160;&#160;&#160;&#160;&#160;&#160;&#160;LastViewedDate &#160;&#160;&#160;&#160;&#160;&#160;&#160;&#160;&#160;&#160;&#160;&#160;&#160;&#160;&#160;&#160;&#160;&#160;&#160;&#160;&#160;&#160;&#160;&#160;&#160;&#160;&#160;&#160;&#160;&#160;&#160;&#160;&#160;&#160;&#160;&#160;&#160;&#160;</text>
<polygon fill="none" stroke="#99ccff" points="1159.5,-289.75 1159.5,-309.25 1253.25,-309.25 1253.25,-289.75 1159.5,-289.75"/>
<text text-anchor="start" x="1179.38" y="-295.8" font-family="Courier,monospace" font-size="11.00">datetime</text>
<polygon fill="none" stroke="#99ccff" points="397.5,-270.25 397.5,-289.75 1159.5,-289.75 1159.5,-270.25 397.5,-270.25"/>
<text text-anchor="start" x="400.5" y="-276.3" font-family="Courier,monospace" font-size="11.00"> &#160;&#160;&#160;&#160;&#160;&#160;&#160;&#160;&#160;&#160;&#160;&#160;&#160;&#160;&#160;&#160;&#160;&#160;&#160;&#160;&#160;&#160;&#160;&#160;&#160;&#160;&#160;&#160;&#160;&#160;&#160;&#160;&#160;&#160;&#160;&#160;&#160;&#160;&#160;&#160;LastReferencedDate &#160;&#160;&#160;&#160;&#160;&#160;&#160;&#160;&#160;&#160;&#160;&#160;&#160;&#160;&#160;&#160;&#160;&#160;&#160;&#160;&#160;&#160;&#160;&#160;&#160;&#160;&#160;&#160;&#160;&#160;&#160;&#160;&#160;&#160;&#160;&#160;&#160;&#160;</text>
<polygon fill="none" stroke="#99ccff" points="1159.5,-270.25 1159.5,-289.75 1253.25,-289.75 1253.25,-270.25 1159.5,-270.25"/>
<text text-anchor="start" x="1179.38" y="-276.3" font-family="Courier,monospace" font-size="11.00">datetime</text>
<polygon fill="none" stroke="#99ccff" points="397.5,-250.75 397.5,-270.25 1159.5,-270.25 1159.5,-250.75 397.5,-250.75"/>
<text text-anchor="start" x="400.5" y="-256.8" font-family="Courier,monospace" font-size="11.00"> &#160;&#160;&#160;&#160;&#160;&#160;&#160;&#160;&#160;&#160;&#160;&#160;&#160;&#160;&#160;&#160;&#160;&#160;&#160;&#160;&#160;&#160;&#160;&#160;&#160;&#160;&#160;&#160;&#160;&#160;&#160;&#160;&#160;&#160;&#160;&#160;&#160;&#160;&#160;&#160;DecompositionRuleId &#160;&#160;&#160;&#160;&#160;&#160;&#160;&#160;&#160;&#160;&#160;&#160;&#160;&#160;&#160;&#160;&#160;&#160;&#160;&#160;&#160;&#160;&#160;&#160;&#160;&#160;&#160;&#160;&#160;&#160;&#160;&#160;&#160;&#160;&#160;&#160;&#160;&#160;</text>
<polygon fill="none" stroke="#99ccff" points="1159.5,-250.75 1159.5,-270.25 1253.25,-270.25 1253.25,-250.75 1159.5,-250.75"/>
<text text-anchor="start" x="1162.5" y="-256.8" font-family="Courier,monospace" font-size="11.00">reference(18)</text>
<polygon fill="none" stroke="#99ccff" points="397.5,-231.25 397.5,-250.75 1159.5,-250.75 1159.5,-231.25 397.5,-231.25"/>
<text text-anchor="start" x="400.5" y="-237.3" font-family="Courier,monospace" font-size="11.00"> &#160;&#160;&#160;&#160;&#160;&#160;&#160;&#160;&#160;&#160;&#160;&#160;&#160;&#160;&#160;&#160;&#160;&#160;&#160;&#160;&#160;&#160;&#160;&#160;&#160;&#160;&#160;&#160;&#160;&#160;&#160;&#160;&#160;&#160;&#160;&#160;&#160;&#160;&#160;&#160;DestinationType &#160;&#160;&#160;&#160;&#160;&#160;&#160;&#160;&#160;&#160;&#160;&#160;&#160;&#160;&#160;&#160;&#160;&#160;&#160;&#160;&#160;&#160;&#160;&#160;&#160;&#160;&#160;&#160;&#160;&#160;&#160;&#160;&#160;&#160;&#160;&#160;&#160;&#160;</text>
<polygon fill="none" stroke="#99ccff" points="1159.5,-231.25 1159.5,-250.75 1253.25,-250.75 1253.25,-231.25 1159.5,-231.25"/>
<text text-anchor="start" x="1162.5" y="-237.3" font-family="Courier,monospace" font-size="11.00">picklist(255)</text>
<polygon fill="none" stroke="#99ccff" points="397.5,-211.75 397.5,-231.25 1159.5,-231.25 1159.5,-211.75 397.5,-211.75"/>
<text text-anchor="start" x="400.5" y="-217.8" font-family="Courier,monospace" font-size="11.00"> &#160;&#160;&#160;&#160;&#160;&#160;&#160;&#160;&#160;&#160;&#160;&#160;&#160;&#160;&#160;&#160;&#160;&#160;&#160;&#160;&#160;&#160;&#160;&#160;&#160;&#160;&#160;&#160;&#160;&#160;&#160;&#160;&#160;&#160;&#160;&#160;&#160;&#160;&#160;&#160;DestinationApiName &#160;&#160;&#160;&#160;&#160;&#160;&#160;&#160;&#160;&#160;&#160;&#160;&#160;&#160;&#160;&#160;&#160;&#160;&#160;&#160;&#160;&#160;&#160;&#160;&#160;&#160;&#160;&#160;&#160;&#160;&#160;&#160;&#160;&#160;&#160;&#160;&#160;&#160;</text>
<polygon fill="none" stroke="#99ccff" points="1159.5,-211.75 1159.5,-231.25 1253.25,-231.25 1253.25,-211.75 1159.5,-211.75"/>
<text text-anchor="start" x="1169.25" y="-217.8" font-family="Courier,monospace" font-size="11.00">string(255)</text>
<polygon fill="none" stroke="#99ccff" points="397.5,-192.25 397.5,-211.75 1159.5,-211.75 1159.5,-192.25 397.5,-192.25"/>
<text text-anchor="start" x="400.5" y="-198.3" font-family="Courier,monospace" font-size="11.00"> &#160;&#160;&#160;&#160;&#160;&#160;&#160;&#160;&#160;&#160;&#160;&#160;&#160;&#160;&#160;&#160;&#160;&#160;&#160;&#160;&#160;&#160;&#160;&#160;&#160;&#160;&#160;&#160;&#160;&#160;&#160;&#160;&#160;&#160;&#160;&#160;&#160;&#160;&#160;&#160;SourceType &#160;&#160;&#160;&#160;&#160;&#160;&#160;&#160;&#160;&#160;&#160;&#160;&#160;&#160;&#160;&#160;&#160;&#160;&#160;&#160;&#160;&#160;&#160;&#160;&#160;&#160;&#160;&#160;&#160;&#160;&#160;&#160;&#160;&#160;&#160;&#160;&#160;&#160;</text>
<polygon fill="none" stroke="#99ccff" points="1159.5,-192.25 1159.5,-211.75 1253.25,-211.75 1253.25,-192.25 1159.5,-192.25"/>
<text text-anchor="start" x="1162.5" y="-198.3" font-family="Courier,monospace" font-size="11.00">picklist(255)</text>
<polygon fill="none" stroke="#99ccff" points="397.5,-172.75 397.5,-192.25 1159.5,-192.25 1159.5,-172.75 397.5,-172.75"/>
<text text-anchor="start" x="400.5" y="-178.8" font-family="Courier,monospace" font-size="11.00"> &#160;&#160;&#160;&#160;&#160;&#160;&#160;&#160;&#160;&#160;&#160;&#160;&#160;&#160;&#160;&#160;&#160;&#160;&#160;&#160;&#160;&#160;&#160;&#160;&#160;&#160;&#160;&#160;&#160;&#160;&#160;&#160;&#160;&#160;&#160;&#160;&#160;&#160;&#160;&#160;SourceApiName &#160;&#160;&#160;&#160;&#160;&#160;&#160;&#160;&#160;&#160;&#160;&#160;&#160;&#160;&#160;&#160;&#160;&#160;&#160;&#160;&#160;&#160;&#160;&#160;&#160;&#160;&#160;&#160;&#160;&#160;&#160;&#160;&#160;&#160;&#160;&#160;&#160;&#160;</text>
<polygon fill="none" stroke="#99ccff" points="1159.5,-172.75 1159.5,-192.25 1253.25,-192.25 1253.25,-172.75 1159.5,-172.75"/>
<text text-anchor="start" x="1169.25" y="-178.8" font-family="Courier,monospace" font-size="11.00">string(255)</text>
<polygon fill="none" stroke="#99ccff" points="397.5,-153.25 397.5,-172.75 1159.5,-172.75 1159.5,-153.25 397.5,-153.25"/>
<text text-anchor="start" x="400.5" y="-159.3" font-family="Courier,monospace" font-size="11.00"> &#160;&#160;&#160;&#160;&#160;&#160;&#160;&#160;&#160;&#160;&#160;&#160;&#160;&#160;&#160;&#160;&#160;&#160;&#160;&#160;&#160;&#160;&#160;&#160;&#160;&#160;&#160;&#160;&#160;&#160;&#160;&#160;&#160;&#160;&#160;&#160;&#160;&#160;&#160;&#160;CalculationMethod &#160;&#160;&#160;&#160;&#160;&#160;&#160;&#160;&#160;&#160;&#160;&#160;&#160;&#160;&#160;&#160;&#160;&#160;&#160;&#160;&#160;&#160;&#160;&#160;&#160;&#160;&#160;&#160;&#160;&#160;&#160;&#160;&#160;&#160;&#160;&#160;&#160;&#160;</text>
<polygon fill="none" stroke="#99ccff" points="1159.5,-153.25 1159.5,-172.75 1253.25,-172.75 1253.25,-153.25 1159.5,-153.25"/>
<text text-anchor="start" x="1162.5" y="-159.3" font-family="Courier,monospace" font-size="11.00">picklist(255)</text>
<polygon fill="none" stroke="#99ccff" points="397.5,-133.75 397.5,-153.25 1159.5,-153.25 1159.5,-133.75 397.5,-133.75"/>
<text text-anchor="start" x="400.5" y="-139.8" font-family="Courier,monospace" font-size="11.00"> &#160;&#160;&#160;&#160;&#160;&#160;&#160;&#160;&#160;&#160;&#160;&#160;&#160;&#160;&#160;&#160;&#160;&#160;&#160;&#160;&#160;&#160;&#160;&#160;&#160;&#160;&#160;&#160;&#160;&#160;&#160;&#160;&#160;&#160;&#160;&#160;&#160;&#160;&#160;&#160;CalculationDefinitionId &#160;&#160;&#160;&#160;&#160;&#160;&#160;&#160;&#160;&#160;&#160;&#160;&#160;&#160;&#160;&#160;&#160;&#160;&#160;&#160;&#160;&#160;&#160;&#160;&#160;&#160;&#160;&#160;&#160;&#160;&#160;&#160;&#160;&#160;&#160;&#160;&#160;&#160;</text>
<polygon fill="none" stroke="#99ccff" points="1159.5,-133.75 1159.5,-153.25 1253.25,-153.25 1253.25,-133.75 1159.5,-133.75"/>
<text text-anchor="start" x="1162.5" y="-139.8" font-family="Courier,monospace" font-size="11.00">reference(18)</text>
<polygon fill="none" stroke="#99ccff" points="397.5,-114.25 397.5,-133.75 1159.5,-133.75 1159.5,-114.25 397.5,-114.25"/>
<text text-anchor="start" x="400.5" y="-120.3" font-family="Courier,monospace" font-size="11.00"> &#160;&#160;&#160;&#160;&#160;&#160;&#160;&#160;&#160;&#160;&#160;&#160;&#160;&#160;&#160;&#160;&#160;&#160;&#160;&#160;&#160;&#160;&#160;&#160;&#160;&#160;&#160;&#160;&#160;&#160;&#160;&#160;&#160;&#160;&#160;&#160;&#160;&#160;&#160;&#160;SourceContextTag &#160;&#160;&#160;&#160;&#160;&#160;&#160;&#160;&#160;&#160;&#160;&#160;&#160;&#160;&#160;&#160;&#160;&#160;&#160;&#160;&#160;&#160;&#160;&#160;&#160;&#160;&#160;&#160;&#160;&#160;&#160;&#160;&#160;&#160;&#160;&#160;&#160;&#160;</text>
<polygon fill="none" stroke="#99ccff" points="1159.5,-114.25 1159.5,-133.75 1253.25,-133.75 1253.25,-114.25 1159.5,-114.25"/>
<text text-anchor="start" x="1169.25" y="-120.3" font-family="Courier,monospace" font-size="11.00">string(255)</text>
<polygon fill="none" stroke="#99ccff" points="397.5,-94.75 397.5,-114.25 1159.5,-114.25 1159.5,-94.75 397.5,-94.75"/>
<text text-anchor="start" x="400.5" y="-100.8" font-family="Courier,monospace" font-size="11.00"> &#160;&#160;&#160;&#160;&#160;&#160;&#160;&#160;&#160;&#160;&#160;&#160;&#160;&#160;&#160;&#160;&#160;&#160;&#160;&#160;&#160;&#160;&#160;&#160;&#160;&#160;&#160;&#160;&#160;&#160;&#160;&#160;&#160;&#160;&#160;&#160;&#160;&#160;&#160;&#160;DestinationContextTag &#160;&#160;&#160;&#160;&#160;&#160;&#160;&#160;&#160;&#160;&#160;&#160;&#160;&#160;&#160;&#160;&#160;&#160;&#160;&#160;&#160;&#160;&#160;&#160;&#160;&#160;&#160;&#160;&#160;&#160;&#160;&#160;&#160;&#160;&#160;&#160;&#160;&#160;</text>
<polygon fill="none" stroke="#99ccff" points="1159.5,-94.75 1159.5,-114.25 1253.25,-114.25 1253.25,-94.75 1159.5,-94.75"/>
<text text-anchor="start" x="1169.25" y="-100.8" font-family="Courier,monospace" font-size="11.00">string(255)</text>
<polygon fill="none" stroke="#99ccff" points="397.5,-75.25 397.5,-94.75 1159.5,-94.75 1159.5,-75.25 397.5,-75.25"/>
<text text-anchor="start" x="400.5" y="-81.3" font-family="Courier,monospace" font-size="11.00"> &#160;&#160;&#160;&#160;&#160;&#160;&#160;&#160;&#160;&#160;&#160;&#160;&#160;&#160;&#160;&#160;&#160;&#160;&#160;&#160;&#160;&#160;&#160;&#160;&#160;&#160;&#160;&#160;&#160;&#160;&#160;&#160;&#160;&#160;&#160;&#160;&#160;&#160;&#160;&#160;SourceAttributeDefinitionId &#160;&#160;&#160;&#160;&#160;&#160;&#160;&#160;&#160;&#160;&#160;&#160;&#160;&#160;&#160;&#160;&#160;&#160;&#160;&#160;&#160;&#160;&#160;&#160;&#160;&#160;&#160;&#160;&#160;&#160;&#160;&#160;&#160;&#160;&#160;&#160;&#160;&#160;</text>
<polygon fill="none" stroke="#99ccff" points="1159.5,-75.25 1159.5,-94.75 1253.25,-94.75 1253.25,-75.25 1159.5,-75.25"/>
<text text-anchor="start" x="1162.5" y="-81.3" font-family="Courier,monospace" font-size="11.00">reference(18)</text>
<polygon fill="none" stroke="#99ccff" points="397.5,-55.75 397.5,-75.25 1159.5,-75.25 1159.5,-55.75 397.5,-55.75"/>
<text text-anchor="start" x="400.5" y="-61.8" font-family="Courier,monospace" font-size="11.00"> &#160;&#160;&#160;&#160;&#160;&#160;&#160;&#160;&#160;&#160;&#160;&#160;&#160;&#160;&#160;&#160;&#160;&#160;&#160;&#160;&#160;&#160;&#160;&#160;&#160;&#160;&#160;&#160;&#160;&#160;&#160;&#160;&#160;&#160;&#160;&#160;&#160;&#160;&#160;&#160;DestinationAttributeDefinitionId &#160;&#160;&#160;&#160;&#160;&#160;&#160;&#160;&#160;&#160;&#160;&#160;&#160;&#160;&#160;&#160;&#160;&#160;&#160;&#160;&#160;&#160;&#160;&#160;&#160;&#160;&#160;&#160;&#160;&#160;&#160;&#160;&#160;&#160;&#160;&#160;&#160;&#160;</text>
<polygon fill="none" stroke="#99ccff" points="1159.5,-55.75 1159.5,-75.25 1253.25,-75.25 1253.25,-55.75 1159.5,-55.75"/>
<text text-anchor="start" x="1162.5" y="-61.8" font-family="Courier,monospace" font-size="11.00">reference(18)</text>
<polygon fill="none" stroke="#99ccff" points="397.5,-36.25 397.5,-55.75 1159.5,-55.75 1159.5,-36.25 397.5,-36.25"/>
<text text-anchor="start" x="400.5" y="-42.3" font-family="Courier,monospace" font-size="11.00"> &#160;&#160;&#160;&#160;&#160;&#160;&#160;&#160;&#160;&#160;&#160;&#160;&#160;&#160;&#160;&#160;&#160;&#160;&#160;&#160;&#160;&#160;&#160;&#160;&#160;&#160;&#160;&#160;&#160;&#160;&#160;&#160;&#160;&#160;&#160;&#160;&#160;&#160;&#160;&#160;ListMappingGroupId &#160;&#160;&#160;&#160;&#160;&#160;&#160;&#160;&#160;&#160;&#160;&#160;&#160;&#160;&#160;&#160;&#160;&#160;&#160;&#160;&#160;&#160;&#160;&#160;&#160;&#160;&#160;&#160;&#160;&#160;&#160;&#160;&#160;&#160;&#160;&#160;&#160;&#160;</text>
<polygon fill="none" stroke="#99ccff" points="1159.5,-36.25 1159.5,-55.75 1253.25,-55.75 1253.25,-36.25 1159.5,-36.25"/>
<text text-anchor="start" x="1162.5" y="-42.3" font-family="Courier,monospace" font-size="11.00">reference(18)</text>
<polygon fill="none" stroke="#99ccff" points="396.5,-35.25 396.5,-407.75 1254.25,-407.75 1254.25,-35.25 396.5,-35.25"/>
</a>
</g>
</g>
<!-- User -->
<g id="node2" class="node">
<title>User</title>
<text text-anchor="middle" x="102.5" y="-314.8" font-family="Courier,monospace" font-size="11.00">User</text>
</g>
<!-- ProductDecompEnrichmentRule&#45;&gt;User -->
<g id="edge1" class="edge">
<title>ProductDecompEnrichmentRule:w&#45;&gt;User:e</title>
<path fill="none" stroke="#ff99cc" d="M380.74,-319C285.62,-318.97 177.74,-318.71 129.37,-318.57"/>
<polygon fill="#ff99cc" stroke="#ff99cc" points="388.17,-319 396.16,-322.6 392.5,-319 395.83,-319 395.83,-319 395.83,-319 392.5,-319 396.17,-315.4 388.17,-319"/>
<ellipse fill="none" stroke="#ff99cc" cx="383.25" cy="-319" rx="3.2" ry="3.2"/>
<text text-anchor="middle" x="300.75" y="-321.69" font-family="Monaco" font-size="9.00">LastModifiedBy</text>
</g>
<!-- ProductFulfillmentDecompRule -->
<g id="node3" class="node">
<title>ProductFulfillmentDecompRule</title>
<text text-anchor="middle" x="102.5" y="-256.8" font-family="Courier,monospace" font-size="11.00">ProductFulfillmentDecompRule</text>
</g>
<!-- ProductDecompEnrichmentRule&#45;&gt;ProductFulfillmentDecompRule -->
<g id="edge2" class="edge">
<title>ProductDecompEnrichmentRule:w&#45;&gt;ProductFulfillmentDecompRule:e</title>
<path fill="none" stroke="#ff99cc" d="M380.68,-260.5C321.16,-260.5 256.65,-260.5 204.86,-260.5"/>
<polygon fill="#ff99cc" stroke="#ff99cc" points="388.17,-260.5 396.17,-264.1 392.5,-260.5 395.83,-260.5 395.83,-260.5 395.83,-260.5 392.5,-260.5 396.17,-256.9 388.17,-260.5"/>
<ellipse fill="none" stroke="#ff99cc" cx="383.25" cy="-260.5" rx="3.2" ry="3.2"/>
<text text-anchor="middle" x="300.75" y="-263.2" font-family="Monaco" font-size="9.00">DecompositionRule</text>
</g>
<!-- DecisionMatrixDefinition -->
<g id="node4" class="node">
<title>DecisionMatrixDefinition</title>
<text text-anchor="middle" x="102.5" y="-186.8" font-family="Courier,monospace" font-size="11.00">DecisionMatrixDefinition</text>
</g>
<!-- ProductDecompEnrichmentRule&#45;&gt;DecisionMatrixDefinition -->
<g id="edge3" class="edge">
<title>ProductDecompEnrichmentRule:w&#45;&gt;DecisionMatrixDefinition:e</title>
<path fill="none" stroke="#ff99cc" d="M384,-152.69C382.82,-153.78 381.39,-154.77 379.5,-155.5 319.39,-178.84 246.92,-187.36 191.32,-190.16"/>
<polygon fill="#ff99cc" stroke="#ff99cc" points="389.78,-148.44 398.36,-146.6 393.28,-145.87 395.96,-143.9 395.96,-143.9 395.96,-143.9 393.28,-145.87 394.1,-140.8 389.78,-148.44"/>
<ellipse fill="none" stroke="#ff99cc" cx="385.82" cy="-151.35" rx="3.2" ry="3.2"/>
<text text-anchor="middle" x="300.75" y="-190.51" font-family="Monaco" font-size="9.00">CalculationDefinition</text>
</g>
<!-- ExpressionSet -->
<g id="node5" class="node">
<title>ExpressionSet</title>
<text text-anchor="middle" x="102.5" y="-137.8" font-family="Courier,monospace" font-size="11.00">ExpressionSet</text>
</g>
<!-- ProductDecompEnrichmentRule&#45;&gt;ExpressionSet -->
<g id="edge4" class="edge">
<title>ProductDecompEnrichmentRule:w&#45;&gt;ExpressionSet:e</title>
<path fill="none" stroke="#ff99cc" d="M380.86,-141.36C380.43,-141.32 379.98,-141.28 379.5,-141.25 309.65,-136.65 292,-141.18 222,-141.25 199.78,-141.27 175.22,-141.32 154.25,-141.37"/>
<polygon fill="#ff99cc" stroke="#ff99cc" points="388.24,-142.37 395.68,-147.02 392.54,-142.96 395.84,-143.41 395.84,-143.41 395.84,-143.41 392.54,-142.96 396.66,-139.89 388.24,-142.37"/>
<ellipse fill="none" stroke="#ff99cc" cx="383.37" cy="-141.7" rx="3.2" ry="3.2"/>
<text text-anchor="middle" x="300.75" y="-143.95" font-family="Monaco" font-size="9.00">CalculationDefinition</text>
</g>
<!-- AttributeDefinition -->
<g id="node6" class="node">
<title>AttributeDefinition</title>
<text text-anchor="middle" x="102.5" y="-84.8" font-family="Courier,monospace" font-size="11.00">AttributeDefinition</text>
</g>
<!-- ProductDecompEnrichmentRule&#45;&gt;AttributeDefinition -->
<g id="edge5" class="edge">
<title>ProductDecompEnrichmentRule:w&#45;&gt;AttributeDefinition:e</title>
<path fill="none" stroke="#ff99cc" d="M380.81,-85.02C308.96,-85.16 229.82,-86.25 174.55,-87.18"/>
<polygon fill="#ff99cc" stroke="#ff99cc" points="388.17,-85.01 396.17,-88.6 392.5,-85 395.83,-85 395.83,-85 395.83,-85 392.5,-85 396.16,-81.4 388.17,-85.01"/>
<ellipse fill="none" stroke="#ff99cc" cx="383.25" cy="-85.01" rx="3.2" ry="3.2"/>
<text text-anchor="middle" x="300.75" y="-89.14" font-family="Monaco" font-size="9.00">SourceAttributeDefinition</text>
</g>
<!-- ProductDecompEnrichmentRule&#45;&gt;AttributeDefinition -->
<g id="edge6" class="edge">
<title>ProductDecompEnrichmentRule:w&#45;&gt;AttributeDefinition:e</title>
<path fill="none" stroke="#ff99cc" d="M380.95,-65.49C315.86,-65.38 293.86,-64.86 222,-71.25 206.57,-72.62 190.09,-74.66 174.47,-76.85"/>
<polygon fill="#ff99cc" stroke="#ff99cc" points="388.17,-65.49 396.16,-69.1 392.5,-65.5 395.83,-65.5 395.83,-65.5 395.83,-65.5 392.5,-65.5 396.17,-61.9 388.17,-65.49"/>
<ellipse fill="none" stroke="#ff99cc" cx="383.25" cy="-65.49" rx="3.2" ry="3.2"/>
<text text-anchor="middle" x="300.75" y="-73.95" font-family="Monaco" font-size="9.00">DestinationAttributeDefinition</text>
</g>
<!-- ValTfrmGrp -->
<g id="node7" class="node">
<title>ValTfrmGrp</title>
<text text-anchor="middle" x="102.5" y="-32.8" font-family="Courier,monospace" font-size="11.00">ValTfrmGrp</text>
</g>
<!-- ProductDecompEnrichmentRule&#45;&gt;ValTfrmGrp -->
<g id="edge7" class="edge">
<title>ProductDecompEnrichmentRule:w&#45;&gt;ValTfrmGrp:e</title>
<path fill="none" stroke="#ff99cc" d="M380.74,-45.96C294.12,-45.48 196.98,-41.27 143.77,-38.63"/>
<polygon fill="#ff99cc" stroke="#ff99cc" points="388.17,-45.98 396.16,-49.6 392.5,-45.99 395.83,-46 395.83,-46 395.83,-46 392.5,-45.99 396.18,-42.4 388.17,-45.98"/>
<ellipse fill="none" stroke="#ff99cc" cx="383.25" cy="-45.96" rx="3.2" ry="3.2"/>
<text text-anchor="middle" x="300.75" y="-48.6" font-family="Monaco" font-size="9.00">ListMappingGroup</text>
</g>
</g>
</svg>
