<?xml version="1.0" encoding="UTF-8" standalone="no"?>
<!DOCTYPE svg PUBLIC "-//W3C//DTD SVG 1.1//EN"
 "http://www.w3.org/Graphics/SVG/1.1/DTD/svg11.dtd">
<!-- Generated by graphviz version 12.2.1 (20241206.2353)
 -->
<!-- Title: Salesforce+ ERD Pages: 1 -->
<svg width="1007pt" height="275pt"
 viewBox="0.00 0.00 1007.00 275.25" xmlns="http://www.w3.org/2000/svg" xmlns:xlink="http://www.w3.org/1999/xlink">
<g id="graph0" class="graph" transform="scale(1 1) rotate(0) translate(4 271.25)">
<title>Salesforce+ ERD</title>
<polygon fill="#efeffd" stroke="none" points="-4,4 -4,-271.25 1003,-271.25 1003,4 -4,4"/>
<text text-anchor="middle" x="951.62" y="-5.95" font-family="Courier,monospace" font-size="9.00">Salesforce ERD </text>
<!-- ProductClassification -->
<g id="node1" class="node">
<title>ProductClassification</title>
<g id="a_node1"><a xlink:href="#" xlink:title=" ProductClassification ">
<polygon fill="#ffeeff" stroke="none" points="161.5,-18.5 161.5,-235 999,-235 999,-18.5 161.5,-18.5"/>
<polygon fill="lightblue" stroke="none" points="162.5,-214.5 162.5,-234 998,-234 998,-214.5 162.5,-214.5"/>
<polygon fill="none" stroke="#99ccff" points="162.5,-214.5 162.5,-234 998,-234 998,-214.5 162.5,-214.5"/>
<text text-anchor="start" x="509.38" y="-221.55" font-family="Courier,monospace" font-weight="bold" font-size="11.00">ProductClassification</text>
<polygon fill="#99ccff" stroke="none" points="162.5,-195 162.5,-214.5 904.25,-214.5 904.25,-195 162.5,-195"/>
<polygon fill="none" stroke="#99ccff" points="162.5,-195 162.5,-214.5 904.25,-214.5 904.25,-195 162.5,-195"/>
<text text-anchor="start" x="165.5" y="-202.05" font-family="Courier,monospace" font-size="11.00"> &#160;&#160;&#160;&#160;&#160;&#160;&#160;&#160;&#160;&#160;&#160;&#160;&#160;&#160;&#160;&#160;&#160;&#160;&#160;&#160;&#160;&#160;&#160;&#160;&#160;&#160;&#160;&#160;&#160;&#160;&#160;&#160;&#160;&#160;&#160;&#160;&#160;&#160;&#160;&#160;&#160;&#160;</text>
<text text-anchor="start" x="455.75" y="-202.05" font-family="Courier,monospace" font-weight="bold" font-size="11.00">Id</text>
<text text-anchor="start" x="469.25" y="-202.05" font-family="Courier,monospace" font-size="11.00"> &#160;&#160;&#160;&#160;&#160;&#160;&#160;&#160;&#160;&#160;&#160;&#160;&#160;&#160;&#160;&#160;&#160;&#160;&#160;&#160;&#160;&#160;&#160;&#160;&#160;&#160;&#160;&#160;&#160;&#160;&#160;&#160;&#160;&#160;&#160;&#160;&#160;&#160;&#160;</text>
<polygon fill="none" stroke="#99ccff" points="904.25,-195 904.25,-214.5 998,-214.5 998,-195 904.25,-195"/>
<text text-anchor="start" x="930.88" y="-201.05" font-family="Courier,monospace" font-size="11.00">id(18)</text>
<polygon fill="none" stroke="#99ccff" points="162.5,-175.5 162.5,-195 904.25,-195 904.25,-175.5 162.5,-175.5"/>
<text text-anchor="start" x="165.5" y="-181.55" font-family="Courier,monospace" font-size="11.00"> &#160;&#160;&#160;&#160;&#160;&#160;&#160;&#160;&#160;&#160;&#160;&#160;&#160;&#160;&#160;&#160;&#160;&#160;&#160;&#160;&#160;&#160;&#160;&#160;&#160;&#160;&#160;&#160;&#160;&#160;&#160;&#160;&#160;&#160;&#160;&#160;&#160;&#160;&#160;&#160;OwnerId &#160;&#160;&#160;&#160;&#160;&#160;&#160;&#160;&#160;&#160;&#160;&#160;&#160;&#160;&#160;&#160;&#160;&#160;&#160;&#160;&#160;&#160;&#160;&#160;&#160;&#160;&#160;&#160;&#160;&#160;&#160;&#160;&#160;&#160;&#160;&#160;&#160;&#160;</text>
<polygon fill="none" stroke="#99ccff" points="904.25,-175.5 904.25,-195 998,-195 998,-175.5 904.25,-175.5"/>
<text text-anchor="start" x="907.25" y="-181.55" font-family="Courier,monospace" font-size="11.00">reference(18)</text>
<polygon fill="none" stroke="#99ccff" points="162.5,-156 162.5,-175.5 904.25,-175.5 904.25,-156 162.5,-156"/>
<text text-anchor="start" x="165.5" y="-162.05" font-family="Courier,monospace" font-size="11.00"> &#160;&#160;&#160;&#160;&#160;&#160;&#160;&#160;&#160;&#160;&#160;&#160;&#160;&#160;&#160;&#160;&#160;&#160;&#160;&#160;&#160;&#160;&#160;&#160;&#160;&#160;&#160;&#160;&#160;&#160;&#160;&#160;&#160;&#160;&#160;&#160;&#160;&#160;&#160;&#160;IsDeleted &#160;&#160;&#160;&#160;&#160;&#160;&#160;&#160;&#160;&#160;&#160;&#160;&#160;&#160;&#160;&#160;&#160;&#160;&#160;&#160;&#160;&#160;&#160;&#160;&#160;&#160;&#160;&#160;&#160;&#160;&#160;&#160;&#160;&#160;&#160;&#160;&#160;&#160;</text>
<polygon fill="none" stroke="#99ccff" points="904.25,-156 904.25,-175.5 998,-175.5 998,-156 904.25,-156"/>
<text text-anchor="start" x="927.5" y="-162.05" font-family="Courier,monospace" font-size="11.00">boolean</text>
<polygon fill="none" stroke="#99ccff" points="162.5,-136.5 162.5,-156 904.25,-156 904.25,-136.5 162.5,-136.5"/>
<text text-anchor="start" x="165.5" y="-142.55" font-family="Courier,monospace" font-size="11.00"> &#160;&#160;&#160;&#160;&#160;&#160;&#160;&#160;&#160;&#160;&#160;&#160;&#160;&#160;&#160;&#160;&#160;&#160;&#160;&#160;&#160;&#160;&#160;&#160;&#160;&#160;&#160;&#160;&#160;&#160;&#160;&#160;&#160;&#160;&#160;&#160;&#160;&#160;&#160;&#160;Name &#160;&#160;&#160;&#160;&#160;&#160;&#160;&#160;&#160;&#160;&#160;&#160;&#160;&#160;&#160;&#160;&#160;&#160;&#160;&#160;&#160;&#160;&#160;&#160;&#160;&#160;&#160;&#160;&#160;&#160;&#160;&#160;&#160;&#160;&#160;&#160;&#160;&#160;</text>
<polygon fill="none" stroke="#99ccff" points="904.25,-136.5 904.25,-156 998,-156 998,-136.5 904.25,-136.5"/>
<text text-anchor="start" x="917.38" y="-142.55" font-family="Courier,monospace" font-size="11.00">string(80)</text>
<polygon fill="none" stroke="#99ccff" points="162.5,-117 162.5,-136.5 904.25,-136.5 904.25,-117 162.5,-117"/>
<text text-anchor="start" x="165.5" y="-123.05" font-family="Courier,monospace" font-size="11.00"> &#160;&#160;&#160;&#160;&#160;&#160;&#160;&#160;&#160;&#160;&#160;&#160;&#160;&#160;&#160;&#160;&#160;&#160;&#160;&#160;&#160;&#160;&#160;&#160;&#160;&#160;&#160;&#160;&#160;&#160;&#160;&#160;&#160;&#160;&#160;&#160;&#160;&#160;&#160;&#160;LastModifiedById &#160;&#160;&#160;&#160;&#160;&#160;&#160;&#160;&#160;&#160;&#160;&#160;&#160;&#160;&#160;&#160;&#160;&#160;&#160;&#160;&#160;&#160;&#160;&#160;&#160;&#160;&#160;&#160;&#160;&#160;&#160;&#160;&#160;&#160;&#160;&#160;&#160;&#160;</text>
<polygon fill="none" stroke="#99ccff" points="904.25,-117 904.25,-136.5 998,-136.5 998,-117 904.25,-117"/>
<text text-anchor="start" x="907.25" y="-123.05" font-family="Courier,monospace" font-size="11.00">reference(18)</text>
<polygon fill="none" stroke="#99ccff" points="162.5,-97.5 162.5,-117 904.25,-117 904.25,-97.5 162.5,-97.5"/>
<text text-anchor="start" x="165.5" y="-103.55" font-family="Courier,monospace" font-size="11.00"> &#160;&#160;&#160;&#160;&#160;&#160;&#160;&#160;&#160;&#160;&#160;&#160;&#160;&#160;&#160;&#160;&#160;&#160;&#160;&#160;&#160;&#160;&#160;&#160;&#160;&#160;&#160;&#160;&#160;&#160;&#160;&#160;&#160;&#160;&#160;&#160;&#160;&#160;&#160;&#160;LastViewedDate &#160;&#160;&#160;&#160;&#160;&#160;&#160;&#160;&#160;&#160;&#160;&#160;&#160;&#160;&#160;&#160;&#160;&#160;&#160;&#160;&#160;&#160;&#160;&#160;&#160;&#160;&#160;&#160;&#160;&#160;&#160;&#160;&#160;&#160;&#160;&#160;&#160;&#160;</text>
<polygon fill="none" stroke="#99ccff" points="904.25,-97.5 904.25,-117 998,-117 998,-97.5 904.25,-97.5"/>
<text text-anchor="start" x="924.12" y="-103.55" font-family="Courier,monospace" font-size="11.00">datetime</text>
<polygon fill="none" stroke="#99ccff" points="162.5,-78 162.5,-97.5 904.25,-97.5 904.25,-78 162.5,-78"/>
<text text-anchor="start" x="165.5" y="-84.05" font-family="Courier,monospace" font-size="11.00"> &#160;&#160;&#160;&#160;&#160;&#160;&#160;&#160;&#160;&#160;&#160;&#160;&#160;&#160;&#160;&#160;&#160;&#160;&#160;&#160;&#160;&#160;&#160;&#160;&#160;&#160;&#160;&#160;&#160;&#160;&#160;&#160;&#160;&#160;&#160;&#160;&#160;&#160;&#160;&#160;LastReferencedDate &#160;&#160;&#160;&#160;&#160;&#160;&#160;&#160;&#160;&#160;&#160;&#160;&#160;&#160;&#160;&#160;&#160;&#160;&#160;&#160;&#160;&#160;&#160;&#160;&#160;&#160;&#160;&#160;&#160;&#160;&#160;&#160;&#160;&#160;&#160;&#160;&#160;&#160;</text>
<polygon fill="none" stroke="#99ccff" points="904.25,-78 904.25,-97.5 998,-97.5 998,-78 904.25,-78"/>
<text text-anchor="start" x="924.12" y="-84.05" font-family="Courier,monospace" font-size="11.00">datetime</text>
<polygon fill="none" stroke="#99ccff" points="162.5,-58.5 162.5,-78 904.25,-78 904.25,-58.5 162.5,-58.5"/>
<text text-anchor="start" x="165.5" y="-64.55" font-family="Courier,monospace" font-size="11.00"> &#160;&#160;&#160;&#160;&#160;&#160;&#160;&#160;&#160;&#160;&#160;&#160;&#160;&#160;&#160;&#160;&#160;&#160;&#160;&#160;&#160;&#160;&#160;&#160;&#160;&#160;&#160;&#160;&#160;&#160;&#160;&#160;&#160;&#160;&#160;&#160;&#160;&#160;&#160;&#160;Code &#160;&#160;&#160;&#160;&#160;&#160;&#160;&#160;&#160;&#160;&#160;&#160;&#160;&#160;&#160;&#160;&#160;&#160;&#160;&#160;&#160;&#160;&#160;&#160;&#160;&#160;&#160;&#160;&#160;&#160;&#160;&#160;&#160;&#160;&#160;&#160;&#160;&#160;</text>
<polygon fill="none" stroke="#99ccff" points="904.25,-58.5 904.25,-78 998,-78 998,-58.5 904.25,-58.5"/>
<text text-anchor="start" x="917.38" y="-64.55" font-family="Courier,monospace" font-size="11.00">string(80)</text>
<polygon fill="none" stroke="#99ccff" points="162.5,-39 162.5,-58.5 904.25,-58.5 904.25,-39 162.5,-39"/>
<text text-anchor="start" x="165.5" y="-45.05" font-family="Courier,monospace" font-size="11.00"> &#160;&#160;&#160;&#160;&#160;&#160;&#160;&#160;&#160;&#160;&#160;&#160;&#160;&#160;&#160;&#160;&#160;&#160;&#160;&#160;&#160;&#160;&#160;&#160;&#160;&#160;&#160;&#160;&#160;&#160;&#160;&#160;&#160;&#160;&#160;&#160;&#160;&#160;&#160;&#160;Status &#160;&#160;&#160;&#160;&#160;&#160;&#160;&#160;&#160;&#160;&#160;&#160;&#160;&#160;&#160;&#160;&#160;&#160;&#160;&#160;&#160;&#160;&#160;&#160;&#160;&#160;&#160;&#160;&#160;&#160;&#160;&#160;&#160;&#160;&#160;&#160;&#160;&#160;</text>
<polygon fill="none" stroke="#99ccff" points="904.25,-39 904.25,-58.5 998,-58.5 998,-39 904.25,-39"/>
<text text-anchor="start" x="907.25" y="-45.05" font-family="Courier,monospace" font-size="11.00">picklist(255)</text>
<polygon fill="none" stroke="#99ccff" points="162.5,-19.5 162.5,-39 904.25,-39 904.25,-19.5 162.5,-19.5"/>
<text text-anchor="start" x="165.5" y="-25.55" font-family="Courier,monospace" font-size="11.00"> &#160;&#160;&#160;&#160;&#160;&#160;&#160;&#160;&#160;&#160;&#160;&#160;&#160;&#160;&#160;&#160;&#160;&#160;&#160;&#160;&#160;&#160;&#160;&#160;&#160;&#160;&#160;&#160;&#160;&#160;&#160;&#160;&#160;&#160;&#160;&#160;&#160;&#160;&#160;&#160;ParentProductClassificationId &#160;&#160;&#160;&#160;&#160;&#160;&#160;&#160;&#160;&#160;&#160;&#160;&#160;&#160;&#160;&#160;&#160;&#160;&#160;&#160;&#160;&#160;&#160;&#160;&#160;&#160;&#160;&#160;&#160;&#160;&#160;&#160;&#160;&#160;&#160;&#160;&#160;&#160;</text>
<polygon fill="none" stroke="#99ccff" points="904.25,-19.5 904.25,-39 998,-39 998,-19.5 904.25,-19.5"/>
<text text-anchor="start" x="907.25" y="-25.55" font-family="Courier,monospace" font-size="11.00">reference(18)</text>
<polygon fill="none" stroke="#99ccff" points="161.5,-18.5 161.5,-235 999,-235 999,-18.5 161.5,-18.5"/>
</a>
</g>
</g>
<!-- ProductClassification&#45;&gt;ProductClassification -->
<g id="edge4" class="edge">
<title>ProductClassification:w&#45;&gt;ProductClassification:e</title>
<path fill="none" stroke="#3e7ab7" d="M147.96,-35.2C45.28,-84.66 65.39,-248 533.38,-248 1022.38,-248 1022.38,-239.33 904.25,-204.75"/>
<polygon fill="#3e7ab7" stroke="#3e7ab7" points="154.79,-32.41 163.55,-32.71 158.8,-30.76 161.88,-29.5 161.88,-29.5 161.88,-29.5 158.8,-30.76 160.83,-26.04 154.79,-32.41"/>
<ellipse fill="none" stroke="#3e7ab7" cx="150.23" cy="-34.27" rx="3.2" ry="3.2"/>
<text text-anchor="middle" x="580.25" y="-250.85" font-family="Arial" font-size="12.00">ParentProductClassification</text>
</g>
<!-- Group -->
<g id="node2" class="node">
<title>Group</title>
<text text-anchor="middle" x="27" y="-181.05" font-family="Courier,monospace" font-size="11.00">Group</text>
</g>
<!-- ProductClassification&#45;&gt;Group -->
<g id="edge1" class="edge">
<title>ProductClassification:w&#45;&gt;Group:e</title>
<path fill="none" stroke="#ff99cc" d="M145.82,-185.24C112.37,-185.2 76.79,-185.03 53.59,-184.9"/>
<polygon fill="#ff99cc" stroke="#ff99cc" points="153.17,-185.24 161.16,-188.85 157.5,-185.25 160.83,-185.25 160.83,-185.25 160.83,-185.25 157.5,-185.25 161.17,-181.65 153.17,-185.24"/>
<ellipse fill="none" stroke="#ff99cc" cx="148.25" cy="-185.24" rx="3.2" ry="3.2"/>
<text text-anchor="middle" x="107.75" y="-187.94" font-family="Monaco" font-size="9.00">Owner</text>
</g>
<!-- User -->
<g id="node3" class="node">
<title>User</title>
<text text-anchor="middle" x="27" y="-128.05" font-family="Courier,monospace" font-size="11.00">User</text>
</g>
<!-- ProductClassification&#45;&gt;User -->
<g id="edge2" class="edge">
<title>ProductClassification:w&#45;&gt;User:e</title>
<path fill="none" stroke="#ff99cc" d="M151.72,-172.84C150.86,-167.36 149.84,-161.3 144.5,-157.5 137.16,-152.27 85.98,-142.25 53.94,-136.37"/>
<polygon fill="#ff99cc" stroke="#ff99cc" points="156.34,-178.7 158.47,-187.22 159.02,-182.11 161.09,-184.72 161.09,-184.72 161.09,-184.72 159.02,-182.11 164.12,-182.76 156.34,-178.7"/>
<ellipse fill="none" stroke="#ff99cc" cx="153.3" cy="-174.84" rx="3.2" ry="3.2"/>
<text text-anchor="middle" x="107.75" y="-160.2" font-family="Monaco" font-size="9.00">Owner</text>
</g>
<!-- ProductClassification&#45;&gt;User -->
<g id="edge3" class="edge">
<title>ProductClassification:w&#45;&gt;User:e</title>
<path fill="none" stroke="#ff99cc" d="M145.86,-125.56C145.42,-125.54 144.97,-125.52 144.5,-125.5 111.86,-124.3 103.58,-123.14 71,-125.5 65.43,-125.9 59.49,-126.59 53.86,-127.38"/>
<polygon fill="#ff99cc" stroke="#ff99cc" points="153.19,-126.12 160.89,-130.31 157.51,-126.45 160.83,-126.7 160.83,-126.7 160.83,-126.7 157.51,-126.45 161.44,-123.13 153.19,-126.12"/>
<ellipse fill="none" stroke="#ff99cc" cx="148.29" cy="-125.74" rx="3.2" ry="3.2"/>
<text text-anchor="middle" x="107.75" y="-128.2" font-family="Monaco" font-size="9.00">LastModifiedBy</text>
</g>
</g>
</svg>
