<?xml version="1.0" encoding="UTF-8" standalone="no"?>
<!DOCTYPE svg PUBLIC "-//W3C//DTD SVG 1.1//EN"
 "http://www.w3.org/Graphics/SVG/1.1/DTD/svg11.dtd">
<!-- Generated by graphviz version 12.2.1 (20241206.2353)
 -->
<!-- Title: Salesforce+ ERD Pages: 1 -->
<svg width="1220pt" height="224pt"
 viewBox="0.00 0.00 1219.50 223.50" xmlns="http://www.w3.org/2000/svg" xmlns:xlink="http://www.w3.org/1999/xlink">
<g id="graph0" class="graph" transform="scale(1 1) rotate(0) translate(4 219.5)">
<title>Salesforce+ ERD</title>
<polygon fill="#efeffd" stroke="none" points="-4,4 -4,-219.5 1215.5,-219.5 1215.5,4 -4,4"/>
<text text-anchor="middle" x="1164.12" y="-5.95" font-family="Courier,monospace" font-size="9.00">Salesforce ERD </text>
<!-- ProdtDecompEnrchVarMap -->
<g id="node1" class="node">
<title>ProdtDecompEnrchVarMap</title>
<g id="a_node1"><a xlink:href="#" xlink:title=" ProdtDecompEnrchVarMap ">
<polygon fill="#ffeeff" stroke="none" points="374,-18.5 374,-215.5 1211.5,-215.5 1211.5,-18.5 374,-18.5"/>
<polygon fill="lightblue" stroke="none" points="375,-195 375,-214.5 1210.5,-214.5 1210.5,-195 375,-195"/>
<polygon fill="none" stroke="#99ccff" points="375,-195 375,-214.5 1210.5,-214.5 1210.5,-195 375,-195"/>
<text text-anchor="start" x="718.5" y="-202.05" font-family="Courier,monospace" font-weight="bold" font-size="11.00">ProdtDecompEnrchVarMap</text>
<polygon fill="#99ccff" stroke="none" points="375,-175.5 375,-195 1116.75,-195 1116.75,-175.5 375,-175.5"/>
<polygon fill="none" stroke="#99ccff" points="375,-175.5 375,-195 1116.75,-195 1116.75,-175.5 375,-175.5"/>
<text text-anchor="start" x="378" y="-182.55" font-family="Courier,monospace" font-size="11.00"> &#160;&#160;&#160;&#160;&#160;&#160;&#160;&#160;&#160;&#160;&#160;&#160;&#160;&#160;&#160;&#160;&#160;&#160;&#160;&#160;&#160;&#160;&#160;&#160;&#160;&#160;&#160;&#160;&#160;&#160;&#160;&#160;&#160;&#160;&#160;&#160;&#160;&#160;&#160;&#160;&#160;&#160;</text>
<text text-anchor="start" x="668.25" y="-182.55" font-family="Courier,monospace" font-weight="bold" font-size="11.00">Id</text>
<text text-anchor="start" x="681.75" y="-182.55" font-family="Courier,monospace" font-size="11.00"> &#160;&#160;&#160;&#160;&#160;&#160;&#160;&#160;&#160;&#160;&#160;&#160;&#160;&#160;&#160;&#160;&#160;&#160;&#160;&#160;&#160;&#160;&#160;&#160;&#160;&#160;&#160;&#160;&#160;&#160;&#160;&#160;&#160;&#160;&#160;&#160;&#160;&#160;&#160;</text>
<polygon fill="none" stroke="#99ccff" points="1116.75,-175.5 1116.75,-195 1210.5,-195 1210.5,-175.5 1116.75,-175.5"/>
<text text-anchor="start" x="1143.38" y="-181.55" font-family="Courier,monospace" font-size="11.00">id(18)</text>
<polygon fill="none" stroke="#99ccff" points="375,-156 375,-175.5 1116.75,-175.5 1116.75,-156 375,-156"/>
<text text-anchor="start" x="378" y="-162.05" font-family="Courier,monospace" font-size="11.00"> &#160;&#160;&#160;&#160;&#160;&#160;&#160;&#160;&#160;&#160;&#160;&#160;&#160;&#160;&#160;&#160;&#160;&#160;&#160;&#160;&#160;&#160;&#160;&#160;&#160;&#160;&#160;&#160;&#160;&#160;&#160;&#160;&#160;&#160;&#160;&#160;&#160;&#160;&#160;&#160;IsDeleted &#160;&#160;&#160;&#160;&#160;&#160;&#160;&#160;&#160;&#160;&#160;&#160;&#160;&#160;&#160;&#160;&#160;&#160;&#160;&#160;&#160;&#160;&#160;&#160;&#160;&#160;&#160;&#160;&#160;&#160;&#160;&#160;&#160;&#160;&#160;&#160;&#160;&#160;</text>
<polygon fill="none" stroke="#99ccff" points="1116.75,-156 1116.75,-175.5 1210.5,-175.5 1210.5,-156 1116.75,-156"/>
<text text-anchor="start" x="1140" y="-162.05" font-family="Courier,monospace" font-size="11.00">boolean</text>
<polygon fill="none" stroke="#99ccff" points="375,-136.5 375,-156 1116.75,-156 1116.75,-136.5 375,-136.5"/>
<text text-anchor="start" x="378" y="-142.55" font-family="Courier,monospace" font-size="11.00"> &#160;&#160;&#160;&#160;&#160;&#160;&#160;&#160;&#160;&#160;&#160;&#160;&#160;&#160;&#160;&#160;&#160;&#160;&#160;&#160;&#160;&#160;&#160;&#160;&#160;&#160;&#160;&#160;&#160;&#160;&#160;&#160;&#160;&#160;&#160;&#160;&#160;&#160;&#160;&#160;Name &#160;&#160;&#160;&#160;&#160;&#160;&#160;&#160;&#160;&#160;&#160;&#160;&#160;&#160;&#160;&#160;&#160;&#160;&#160;&#160;&#160;&#160;&#160;&#160;&#160;&#160;&#160;&#160;&#160;&#160;&#160;&#160;&#160;&#160;&#160;&#160;&#160;&#160;</text>
<polygon fill="none" stroke="#99ccff" points="1116.75,-136.5 1116.75,-156 1210.5,-156 1210.5,-136.5 1116.75,-136.5"/>
<text text-anchor="start" x="1126.5" y="-142.55" font-family="Courier,monospace" font-size="11.00">string(255)</text>
<polygon fill="none" stroke="#99ccff" points="375,-117 375,-136.5 1116.75,-136.5 1116.75,-117 375,-117"/>
<text text-anchor="start" x="378" y="-123.05" font-family="Courier,monospace" font-size="11.00"> &#160;&#160;&#160;&#160;&#160;&#160;&#160;&#160;&#160;&#160;&#160;&#160;&#160;&#160;&#160;&#160;&#160;&#160;&#160;&#160;&#160;&#160;&#160;&#160;&#160;&#160;&#160;&#160;&#160;&#160;&#160;&#160;&#160;&#160;&#160;&#160;&#160;&#160;&#160;&#160;LastModifiedById &#160;&#160;&#160;&#160;&#160;&#160;&#160;&#160;&#160;&#160;&#160;&#160;&#160;&#160;&#160;&#160;&#160;&#160;&#160;&#160;&#160;&#160;&#160;&#160;&#160;&#160;&#160;&#160;&#160;&#160;&#160;&#160;&#160;&#160;&#160;&#160;&#160;&#160;</text>
<polygon fill="none" stroke="#99ccff" points="1116.75,-117 1116.75,-136.5 1210.5,-136.5 1210.5,-117 1116.75,-117"/>
<text text-anchor="start" x="1119.75" y="-123.05" font-family="Courier,monospace" font-size="11.00">reference(18)</text>
<polygon fill="none" stroke="#99ccff" points="375,-97.5 375,-117 1116.75,-117 1116.75,-97.5 375,-97.5"/>
<text text-anchor="start" x="378" y="-103.55" font-family="Courier,monospace" font-size="11.00"> &#160;&#160;&#160;&#160;&#160;&#160;&#160;&#160;&#160;&#160;&#160;&#160;&#160;&#160;&#160;&#160;&#160;&#160;&#160;&#160;&#160;&#160;&#160;&#160;&#160;&#160;&#160;&#160;&#160;&#160;&#160;&#160;&#160;&#160;&#160;&#160;&#160;&#160;&#160;&#160;ProductDecompEnrichmentRuleId &#160;&#160;&#160;&#160;&#160;&#160;&#160;&#160;&#160;&#160;&#160;&#160;&#160;&#160;&#160;&#160;&#160;&#160;&#160;&#160;&#160;&#160;&#160;&#160;&#160;&#160;&#160;&#160;&#160;&#160;&#160;&#160;&#160;&#160;&#160;&#160;&#160;&#160;</text>
<polygon fill="none" stroke="#99ccff" points="1116.75,-97.5 1116.75,-117 1210.5,-117 1210.5,-97.5 1116.75,-97.5"/>
<text text-anchor="start" x="1119.75" y="-103.55" font-family="Courier,monospace" font-size="11.00">reference(18)</text>
<polygon fill="none" stroke="#99ccff" points="375,-78 375,-97.5 1116.75,-97.5 1116.75,-78 375,-78"/>
<text text-anchor="start" x="378" y="-84.05" font-family="Courier,monospace" font-size="11.00"> &#160;&#160;&#160;&#160;&#160;&#160;&#160;&#160;&#160;&#160;&#160;&#160;&#160;&#160;&#160;&#160;&#160;&#160;&#160;&#160;&#160;&#160;&#160;&#160;&#160;&#160;&#160;&#160;&#160;&#160;&#160;&#160;&#160;&#160;&#160;&#160;&#160;&#160;&#160;&#160;ExpressionSetVarName &#160;&#160;&#160;&#160;&#160;&#160;&#160;&#160;&#160;&#160;&#160;&#160;&#160;&#160;&#160;&#160;&#160;&#160;&#160;&#160;&#160;&#160;&#160;&#160;&#160;&#160;&#160;&#160;&#160;&#160;&#160;&#160;&#160;&#160;&#160;&#160;&#160;&#160;</text>
<polygon fill="none" stroke="#99ccff" points="1116.75,-78 1116.75,-97.5 1210.5,-97.5 1210.5,-78 1116.75,-78"/>
<text text-anchor="start" x="1126.5" y="-84.05" font-family="Courier,monospace" font-size="11.00">string(255)</text>
<polygon fill="none" stroke="#99ccff" points="375,-58.5 375,-78 1116.75,-78 1116.75,-58.5 375,-58.5"/>
<text text-anchor="start" x="378" y="-64.55" font-family="Courier,monospace" font-size="11.00"> &#160;&#160;&#160;&#160;&#160;&#160;&#160;&#160;&#160;&#160;&#160;&#160;&#160;&#160;&#160;&#160;&#160;&#160;&#160;&#160;&#160;&#160;&#160;&#160;&#160;&#160;&#160;&#160;&#160;&#160;&#160;&#160;&#160;&#160;&#160;&#160;&#160;&#160;&#160;&#160;FieldContextTagName &#160;&#160;&#160;&#160;&#160;&#160;&#160;&#160;&#160;&#160;&#160;&#160;&#160;&#160;&#160;&#160;&#160;&#160;&#160;&#160;&#160;&#160;&#160;&#160;&#160;&#160;&#160;&#160;&#160;&#160;&#160;&#160;&#160;&#160;&#160;&#160;&#160;&#160;</text>
<polygon fill="none" stroke="#99ccff" points="1116.75,-58.5 1116.75,-78 1210.5,-78 1210.5,-58.5 1116.75,-58.5"/>
<text text-anchor="start" x="1126.5" y="-64.55" font-family="Courier,monospace" font-size="11.00">string(255)</text>
<polygon fill="none" stroke="#99ccff" points="375,-39 375,-58.5 1116.75,-58.5 1116.75,-39 375,-39"/>
<text text-anchor="start" x="378" y="-45.05" font-family="Courier,monospace" font-size="11.00"> &#160;&#160;&#160;&#160;&#160;&#160;&#160;&#160;&#160;&#160;&#160;&#160;&#160;&#160;&#160;&#160;&#160;&#160;&#160;&#160;&#160;&#160;&#160;&#160;&#160;&#160;&#160;&#160;&#160;&#160;&#160;&#160;&#160;&#160;&#160;&#160;&#160;&#160;&#160;&#160;AttributeDefinitionId &#160;&#160;&#160;&#160;&#160;&#160;&#160;&#160;&#160;&#160;&#160;&#160;&#160;&#160;&#160;&#160;&#160;&#160;&#160;&#160;&#160;&#160;&#160;&#160;&#160;&#160;&#160;&#160;&#160;&#160;&#160;&#160;&#160;&#160;&#160;&#160;&#160;&#160;</text>
<polygon fill="none" stroke="#99ccff" points="1116.75,-39 1116.75,-58.5 1210.5,-58.5 1210.5,-39 1116.75,-39"/>
<text text-anchor="start" x="1119.75" y="-45.05" font-family="Courier,monospace" font-size="11.00">reference(18)</text>
<polygon fill="none" stroke="#99ccff" points="375,-19.5 375,-39 1116.75,-39 1116.75,-19.5 375,-19.5"/>
<text text-anchor="start" x="378" y="-25.55" font-family="Courier,monospace" font-size="11.00"> &#160;&#160;&#160;&#160;&#160;&#160;&#160;&#160;&#160;&#160;&#160;&#160;&#160;&#160;&#160;&#160;&#160;&#160;&#160;&#160;&#160;&#160;&#160;&#160;&#160;&#160;&#160;&#160;&#160;&#160;&#160;&#160;&#160;&#160;&#160;&#160;&#160;&#160;&#160;&#160;VariableType &#160;&#160;&#160;&#160;&#160;&#160;&#160;&#160;&#160;&#160;&#160;&#160;&#160;&#160;&#160;&#160;&#160;&#160;&#160;&#160;&#160;&#160;&#160;&#160;&#160;&#160;&#160;&#160;&#160;&#160;&#160;&#160;&#160;&#160;&#160;&#160;&#160;&#160;</text>
<polygon fill="none" stroke="#99ccff" points="1116.75,-19.5 1116.75,-39 1210.5,-39 1210.5,-19.5 1116.75,-19.5"/>
<text text-anchor="start" x="1119.75" y="-25.55" font-family="Courier,monospace" font-size="11.00">picklist(255)</text>
<polygon fill="none" stroke="#99ccff" points="374,-18.5 374,-215.5 1211.5,-215.5 1211.5,-18.5 374,-18.5"/>
</a>
</g>
</g>
<!-- User -->
<g id="node2" class="node">
<title>User</title>
<text text-anchor="middle" x="99.12" y="-148.3" font-family="Courier,monospace" font-size="11.00">User</text>
</g>
<!-- ProdtDecompEnrchVarMap&#45;&gt;User -->
<g id="edge1" class="edge">
<title>ProdtDecompEnrchVarMap:w&#45;&gt;User:e</title>
<path fill="none" stroke="#ff99cc" d="M358.32,-126.88C270.53,-128.33 171.92,-141.28 126.11,-148"/>
<polygon fill="#ff99cc" stroke="#ff99cc" points="365.67,-126.82 373.7,-130.35 370,-126.78 373.33,-126.76 373.33,-126.76 373.33,-126.76 370,-126.78 373.64,-123.15 365.67,-126.82"/>
<ellipse fill="none" stroke="#ff99cc" cx="360.75" cy="-126.86" rx="3.2" ry="3.2"/>
<text text-anchor="middle" x="286.12" y="-139.07" font-family="Monaco" font-size="9.00">LastModifiedBy</text>
</g>
<!-- ProductDecompEnrichmentRule -->
<g id="node3" class="node">
<title>ProductDecompEnrichmentRule</title>
<text text-anchor="middle" x="99.12" y="-99.3" font-family="Courier,monospace" font-size="11.00">ProductDecompEnrichmentRule</text>
</g>
<!-- ProdtDecompEnrchVarMap&#45;&gt;ProductDecompEnrichmentRule -->
<g id="edge2" class="edge">
<title>ProdtDecompEnrchVarMap:w&#45;&gt;ProductDecompEnrichmentRule:e</title>
<path fill="none" stroke="#ff99cc" d="M358.46,-107.23C304.24,-107.08 245.68,-106.18 198.04,-105.26"/>
<polygon fill="#ff99cc" stroke="#ff99cc" points="365.67,-107.24 373.66,-110.85 370,-107.24 373.33,-107.25 373.33,-107.25 373.33,-107.25 370,-107.24 373.67,-103.65 365.67,-107.24"/>
<ellipse fill="none" stroke="#ff99cc" cx="360.75" cy="-107.23" rx="3.2" ry="3.2"/>
<text text-anchor="middle" x="286.12" y="-109.91" font-family="Monaco" font-size="9.00">ProductDecompEnrichmentRule</text>
</g>
<!-- AttributeDefinition -->
<g id="node4" class="node">
<title>AttributeDefinition</title>
<text text-anchor="middle" x="99.12" y="-45.3" font-family="Courier,monospace" font-size="11.00">AttributeDefinition</text>
</g>
<!-- ProdtDecompEnrchVarMap&#45;&gt;AttributeDefinition -->
<g id="edge3" class="edge">
<title>ProdtDecompEnrchVarMap:w&#45;&gt;AttributeDefinition:e</title>
<path fill="none" stroke="#ff99cc" d="M358.5,-48.75C293.5,-48.76 222.25,-48.84 171.06,-48.9"/>
<polygon fill="#ff99cc" stroke="#ff99cc" points="365.67,-48.75 373.67,-52.35 370,-48.75 373.33,-48.75 373.33,-48.75 373.33,-48.75 370,-48.75 373.67,-45.15 365.67,-48.75"/>
<ellipse fill="none" stroke="#ff99cc" cx="360.75" cy="-48.75" rx="3.2" ry="3.2"/>
<text text-anchor="middle" x="286.12" y="-51.55" font-family="Monaco" font-size="9.00">AttributeDefinition</text>
</g>
</g>
</svg>
