<?xml version="1.0" encoding="UTF-8" standalone="no"?>
<!DOCTYPE svg PUBLIC "-//W3C//DTD SVG 1.1//EN"
 "http://www.w3.org/Graphics/SVG/1.1/DTD/svg11.dtd">
<!-- Generated by graphviz version 12.2.1 (20241206.2353)
 -->
<!-- Title: Salesforce+ ERD Pages: 1 -->
<svg width="1049pt" height="392pt"
 viewBox="0.00 0.00 1048.50 392.25" xmlns="http://www.w3.org/2000/svg" xmlns:xlink="http://www.w3.org/1999/xlink">
<g id="graph0" class="graph" transform="scale(1 1) rotate(0) translate(4 388.25)">
<title>Salesforce+ ERD</title>
<polygon fill="#efeffd" stroke="none" points="-4,4 -4,-388.25 1044.5,-388.25 1044.5,4 -4,4"/>
<text text-anchor="middle" x="993.12" y="-5.95" font-family="Courier,monospace" font-size="9.00">Salesforce ERD </text>
<!-- SalesTransactionFulfillReq -->
<g id="node1" class="node">
<title>SalesTransactionFulfillReq</title>
<g id="a_node1"><a xlink:href="#" xlink:title=" SalesTransactionFulfillReq ">
<polygon fill="#ffeeff" stroke="none" points="230,-18.5 230,-352 1040.5,-352 1040.5,-18.5 230,-18.5"/>
<polygon fill="lightblue" stroke="none" points="231,-331.5 231,-351 1039.5,-351 1039.5,-331.5 231,-331.5"/>
<polygon fill="none" stroke="#99ccff" points="231,-331.5 231,-351 1039.5,-351 1039.5,-331.5 231,-331.5"/>
<text text-anchor="start" x="547.5" y="-338.55" font-family="Courier,monospace" font-weight="bold" font-size="11.00">SalesTransactionFulfillReq</text>
<polygon fill="#99ccff" stroke="none" points="231,-312 231,-331.5 945.75,-331.5 945.75,-312 231,-312"/>
<polygon fill="none" stroke="#99ccff" points="231,-312 231,-331.5 945.75,-331.5 945.75,-312 231,-312"/>
<text text-anchor="start" x="234" y="-319.05" font-family="Courier,monospace" font-size="11.00"> &#160;&#160;&#160;&#160;&#160;&#160;&#160;&#160;&#160;&#160;&#160;&#160;&#160;&#160;&#160;&#160;&#160;&#160;&#160;&#160;&#160;&#160;&#160;&#160;&#160;&#160;&#160;&#160;&#160;&#160;&#160;&#160;&#160;&#160;&#160;&#160;&#160;&#160;&#160;&#160;&#160;&#160;</text>
<text text-anchor="start" x="524.25" y="-319.05" font-family="Courier,monospace" font-weight="bold" font-size="11.00">Id</text>
<text text-anchor="start" x="537.75" y="-319.05" font-family="Courier,monospace" font-size="11.00"> &#160;&#160;&#160;&#160;&#160;&#160;&#160;&#160;&#160;&#160;&#160;&#160;&#160;&#160;&#160;&#160;&#160;&#160;&#160;&#160;&#160;&#160;&#160;&#160;&#160;&#160;&#160;&#160;&#160;&#160;&#160;&#160;&#160;&#160;&#160;&#160;&#160;&#160;&#160;</text>
<polygon fill="none" stroke="#99ccff" points="945.75,-312 945.75,-331.5 1039.5,-331.5 1039.5,-312 945.75,-312"/>
<text text-anchor="start" x="972.38" y="-318.05" font-family="Courier,monospace" font-size="11.00">id(18)</text>
<polygon fill="none" stroke="#99ccff" points="231,-292.5 231,-312 945.75,-312 945.75,-292.5 231,-292.5"/>
<text text-anchor="start" x="234" y="-298.55" font-family="Courier,monospace" font-size="11.00"> &#160;&#160;&#160;&#160;&#160;&#160;&#160;&#160;&#160;&#160;&#160;&#160;&#160;&#160;&#160;&#160;&#160;&#160;&#160;&#160;&#160;&#160;&#160;&#160;&#160;&#160;&#160;&#160;&#160;&#160;&#160;&#160;&#160;&#160;&#160;&#160;&#160;&#160;&#160;&#160;OwnerId &#160;&#160;&#160;&#160;&#160;&#160;&#160;&#160;&#160;&#160;&#160;&#160;&#160;&#160;&#160;&#160;&#160;&#160;&#160;&#160;&#160;&#160;&#160;&#160;&#160;&#160;&#160;&#160;&#160;&#160;&#160;&#160;&#160;&#160;&#160;&#160;&#160;&#160;</text>
<polygon fill="none" stroke="#99ccff" points="945.75,-292.5 945.75,-312 1039.5,-312 1039.5,-292.5 945.75,-292.5"/>
<text text-anchor="start" x="948.75" y="-298.55" font-family="Courier,monospace" font-size="11.00">reference(18)</text>
<polygon fill="none" stroke="#99ccff" points="231,-273 231,-292.5 945.75,-292.5 945.75,-273 231,-273"/>
<text text-anchor="start" x="234" y="-279.05" font-family="Courier,monospace" font-size="11.00"> &#160;&#160;&#160;&#160;&#160;&#160;&#160;&#160;&#160;&#160;&#160;&#160;&#160;&#160;&#160;&#160;&#160;&#160;&#160;&#160;&#160;&#160;&#160;&#160;&#160;&#160;&#160;&#160;&#160;&#160;&#160;&#160;&#160;&#160;&#160;&#160;&#160;&#160;&#160;&#160;IsDeleted &#160;&#160;&#160;&#160;&#160;&#160;&#160;&#160;&#160;&#160;&#160;&#160;&#160;&#160;&#160;&#160;&#160;&#160;&#160;&#160;&#160;&#160;&#160;&#160;&#160;&#160;&#160;&#160;&#160;&#160;&#160;&#160;&#160;&#160;&#160;&#160;&#160;&#160;</text>
<polygon fill="none" stroke="#99ccff" points="945.75,-273 945.75,-292.5 1039.5,-292.5 1039.5,-273 945.75,-273"/>
<text text-anchor="start" x="969" y="-279.05" font-family="Courier,monospace" font-size="11.00">boolean</text>
<polygon fill="none" stroke="#99ccff" points="231,-253.5 231,-273 945.75,-273 945.75,-253.5 231,-253.5"/>
<text text-anchor="start" x="234" y="-259.55" font-family="Courier,monospace" font-size="11.00"> &#160;&#160;&#160;&#160;&#160;&#160;&#160;&#160;&#160;&#160;&#160;&#160;&#160;&#160;&#160;&#160;&#160;&#160;&#160;&#160;&#160;&#160;&#160;&#160;&#160;&#160;&#160;&#160;&#160;&#160;&#160;&#160;&#160;&#160;&#160;&#160;&#160;&#160;&#160;&#160;Name &#160;&#160;&#160;&#160;&#160;&#160;&#160;&#160;&#160;&#160;&#160;&#160;&#160;&#160;&#160;&#160;&#160;&#160;&#160;&#160;&#160;&#160;&#160;&#160;&#160;&#160;&#160;&#160;&#160;&#160;&#160;&#160;&#160;&#160;&#160;&#160;&#160;&#160;</text>
<polygon fill="none" stroke="#99ccff" points="945.75,-253.5 945.75,-273 1039.5,-273 1039.5,-253.5 945.75,-253.5"/>
<text text-anchor="start" x="955.5" y="-259.55" font-family="Courier,monospace" font-size="11.00">string(255)</text>
<polygon fill="none" stroke="#99ccff" points="231,-234 231,-253.5 945.75,-253.5 945.75,-234 231,-234"/>
<text text-anchor="start" x="234" y="-240.05" font-family="Courier,monospace" font-size="11.00"> &#160;&#160;&#160;&#160;&#160;&#160;&#160;&#160;&#160;&#160;&#160;&#160;&#160;&#160;&#160;&#160;&#160;&#160;&#160;&#160;&#160;&#160;&#160;&#160;&#160;&#160;&#160;&#160;&#160;&#160;&#160;&#160;&#160;&#160;&#160;&#160;&#160;&#160;&#160;&#160;LastModifiedById &#160;&#160;&#160;&#160;&#160;&#160;&#160;&#160;&#160;&#160;&#160;&#160;&#160;&#160;&#160;&#160;&#160;&#160;&#160;&#160;&#160;&#160;&#160;&#160;&#160;&#160;&#160;&#160;&#160;&#160;&#160;&#160;&#160;&#160;&#160;&#160;&#160;&#160;</text>
<polygon fill="none" stroke="#99ccff" points="945.75,-234 945.75,-253.5 1039.5,-253.5 1039.5,-234 945.75,-234"/>
<text text-anchor="start" x="948.75" y="-240.05" font-family="Courier,monospace" font-size="11.00">reference(18)</text>
<polygon fill="none" stroke="#99ccff" points="231,-214.5 231,-234 945.75,-234 945.75,-214.5 231,-214.5"/>
<text text-anchor="start" x="234" y="-220.55" font-family="Courier,monospace" font-size="11.00"> &#160;&#160;&#160;&#160;&#160;&#160;&#160;&#160;&#160;&#160;&#160;&#160;&#160;&#160;&#160;&#160;&#160;&#160;&#160;&#160;&#160;&#160;&#160;&#160;&#160;&#160;&#160;&#160;&#160;&#160;&#160;&#160;&#160;&#160;&#160;&#160;&#160;&#160;&#160;&#160;Status &#160;&#160;&#160;&#160;&#160;&#160;&#160;&#160;&#160;&#160;&#160;&#160;&#160;&#160;&#160;&#160;&#160;&#160;&#160;&#160;&#160;&#160;&#160;&#160;&#160;&#160;&#160;&#160;&#160;&#160;&#160;&#160;&#160;&#160;&#160;&#160;&#160;&#160;</text>
<polygon fill="none" stroke="#99ccff" points="945.75,-214.5 945.75,-234 1039.5,-234 1039.5,-214.5 945.75,-214.5"/>
<text text-anchor="start" x="948.75" y="-220.55" font-family="Courier,monospace" font-size="11.00">picklist(255)</text>
<polygon fill="none" stroke="#99ccff" points="231,-195 231,-214.5 945.75,-214.5 945.75,-195 231,-195"/>
<text text-anchor="start" x="234" y="-201.05" font-family="Courier,monospace" font-size="11.00"> &#160;&#160;&#160;&#160;&#160;&#160;&#160;&#160;&#160;&#160;&#160;&#160;&#160;&#160;&#160;&#160;&#160;&#160;&#160;&#160;&#160;&#160;&#160;&#160;&#160;&#160;&#160;&#160;&#160;&#160;&#160;&#160;&#160;&#160;&#160;&#160;&#160;&#160;&#160;&#160;SalesTransactionType &#160;&#160;&#160;&#160;&#160;&#160;&#160;&#160;&#160;&#160;&#160;&#160;&#160;&#160;&#160;&#160;&#160;&#160;&#160;&#160;&#160;&#160;&#160;&#160;&#160;&#160;&#160;&#160;&#160;&#160;&#160;&#160;&#160;&#160;&#160;&#160;&#160;&#160;</text>
<polygon fill="none" stroke="#99ccff" points="945.75,-195 945.75,-214.5 1039.5,-214.5 1039.5,-195 945.75,-195"/>
<text text-anchor="start" x="948.75" y="-201.05" font-family="Courier,monospace" font-size="11.00">picklist(255)</text>
<polygon fill="none" stroke="#99ccff" points="231,-175.5 231,-195 945.75,-195 945.75,-175.5 231,-175.5"/>
<text text-anchor="start" x="234" y="-181.55" font-family="Courier,monospace" font-size="11.00"> &#160;&#160;&#160;&#160;&#160;&#160;&#160;&#160;&#160;&#160;&#160;&#160;&#160;&#160;&#160;&#160;&#160;&#160;&#160;&#160;&#160;&#160;&#160;&#160;&#160;&#160;&#160;&#160;&#160;&#160;&#160;&#160;&#160;&#160;&#160;&#160;&#160;&#160;&#160;&#160;ReferenceObjectId &#160;&#160;&#160;&#160;&#160;&#160;&#160;&#160;&#160;&#160;&#160;&#160;&#160;&#160;&#160;&#160;&#160;&#160;&#160;&#160;&#160;&#160;&#160;&#160;&#160;&#160;&#160;&#160;&#160;&#160;&#160;&#160;&#160;&#160;&#160;&#160;&#160;&#160;</text>
<polygon fill="none" stroke="#99ccff" points="945.75,-175.5 945.75,-195 1039.5,-195 1039.5,-175.5 945.75,-175.5"/>
<text text-anchor="start" x="948.75" y="-181.55" font-family="Courier,monospace" font-size="11.00">reference(18)</text>
<polygon fill="none" stroke="#99ccff" points="231,-156 231,-175.5 945.75,-175.5 945.75,-156 231,-156"/>
<text text-anchor="start" x="234" y="-162.05" font-family="Courier,monospace" font-size="11.00"> &#160;&#160;&#160;&#160;&#160;&#160;&#160;&#160;&#160;&#160;&#160;&#160;&#160;&#160;&#160;&#160;&#160;&#160;&#160;&#160;&#160;&#160;&#160;&#160;&#160;&#160;&#160;&#160;&#160;&#160;&#160;&#160;&#160;&#160;&#160;&#160;&#160;&#160;&#160;&#160;PlanCompositionStatus &#160;&#160;&#160;&#160;&#160;&#160;&#160;&#160;&#160;&#160;&#160;&#160;&#160;&#160;&#160;&#160;&#160;&#160;&#160;&#160;&#160;&#160;&#160;&#160;&#160;&#160;&#160;&#160;&#160;&#160;&#160;&#160;&#160;&#160;&#160;&#160;&#160;&#160;</text>
<polygon fill="none" stroke="#99ccff" points="945.75,-156 945.75,-175.5 1039.5,-175.5 1039.5,-156 945.75,-156"/>
<text text-anchor="start" x="948.75" y="-162.05" font-family="Courier,monospace" font-size="11.00">picklist(255)</text>
<polygon fill="none" stroke="#99ccff" points="231,-136.5 231,-156 945.75,-156 945.75,-136.5 231,-136.5"/>
<text text-anchor="start" x="234" y="-142.55" font-family="Courier,monospace" font-size="11.00"> &#160;&#160;&#160;&#160;&#160;&#160;&#160;&#160;&#160;&#160;&#160;&#160;&#160;&#160;&#160;&#160;&#160;&#160;&#160;&#160;&#160;&#160;&#160;&#160;&#160;&#160;&#160;&#160;&#160;&#160;&#160;&#160;&#160;&#160;&#160;&#160;&#160;&#160;&#160;&#160;AssetizationStatus &#160;&#160;&#160;&#160;&#160;&#160;&#160;&#160;&#160;&#160;&#160;&#160;&#160;&#160;&#160;&#160;&#160;&#160;&#160;&#160;&#160;&#160;&#160;&#160;&#160;&#160;&#160;&#160;&#160;&#160;&#160;&#160;&#160;&#160;&#160;&#160;&#160;&#160;</text>
<polygon fill="none" stroke="#99ccff" points="945.75,-136.5 945.75,-156 1039.5,-156 1039.5,-136.5 945.75,-136.5"/>
<text text-anchor="start" x="948.75" y="-142.55" font-family="Courier,monospace" font-size="11.00">picklist(255)</text>
<polygon fill="none" stroke="#99ccff" points="231,-117 231,-136.5 945.75,-136.5 945.75,-117 231,-117"/>
<text text-anchor="start" x="234" y="-123.05" font-family="Courier,monospace" font-size="11.00"> &#160;&#160;&#160;&#160;&#160;&#160;&#160;&#160;&#160;&#160;&#160;&#160;&#160;&#160;&#160;&#160;&#160;&#160;&#160;&#160;&#160;&#160;&#160;&#160;&#160;&#160;&#160;&#160;&#160;&#160;&#160;&#160;&#160;&#160;&#160;&#160;&#160;&#160;&#160;&#160;DecompositionStatus &#160;&#160;&#160;&#160;&#160;&#160;&#160;&#160;&#160;&#160;&#160;&#160;&#160;&#160;&#160;&#160;&#160;&#160;&#160;&#160;&#160;&#160;&#160;&#160;&#160;&#160;&#160;&#160;&#160;&#160;&#160;&#160;&#160;&#160;&#160;&#160;&#160;&#160;</text>
<polygon fill="none" stroke="#99ccff" points="945.75,-117 945.75,-136.5 1039.5,-136.5 1039.5,-117 945.75,-117"/>
<text text-anchor="start" x="948.75" y="-123.05" font-family="Courier,monospace" font-size="11.00">picklist(255)</text>
<polygon fill="none" stroke="#99ccff" points="231,-97.5 231,-117 945.75,-117 945.75,-97.5 231,-97.5"/>
<text text-anchor="start" x="234" y="-103.55" font-family="Courier,monospace" font-size="11.00"> &#160;&#160;&#160;&#160;&#160;&#160;&#160;&#160;&#160;&#160;&#160;&#160;&#160;&#160;&#160;&#160;&#160;&#160;&#160;&#160;&#160;&#160;&#160;&#160;&#160;&#160;&#160;&#160;&#160;&#160;&#160;&#160;&#160;&#160;&#160;&#160;&#160;&#160;&#160;&#160;PlanId &#160;&#160;&#160;&#160;&#160;&#160;&#160;&#160;&#160;&#160;&#160;&#160;&#160;&#160;&#160;&#160;&#160;&#160;&#160;&#160;&#160;&#160;&#160;&#160;&#160;&#160;&#160;&#160;&#160;&#160;&#160;&#160;&#160;&#160;&#160;&#160;&#160;&#160;</text>
<polygon fill="none" stroke="#99ccff" points="945.75,-97.5 945.75,-117 1039.5,-117 1039.5,-97.5 945.75,-97.5"/>
<text text-anchor="start" x="948.75" y="-103.55" font-family="Courier,monospace" font-size="11.00">reference(18)</text>
<polygon fill="none" stroke="#99ccff" points="231,-78 231,-97.5 945.75,-97.5 945.75,-78 231,-78"/>
<text text-anchor="start" x="234" y="-84.05" font-family="Courier,monospace" font-size="11.00"> &#160;&#160;&#160;&#160;&#160;&#160;&#160;&#160;&#160;&#160;&#160;&#160;&#160;&#160;&#160;&#160;&#160;&#160;&#160;&#160;&#160;&#160;&#160;&#160;&#160;&#160;&#160;&#160;&#160;&#160;&#160;&#160;&#160;&#160;&#160;&#160;&#160;&#160;&#160;&#160;PreviousRequestId &#160;&#160;&#160;&#160;&#160;&#160;&#160;&#160;&#160;&#160;&#160;&#160;&#160;&#160;&#160;&#160;&#160;&#160;&#160;&#160;&#160;&#160;&#160;&#160;&#160;&#160;&#160;&#160;&#160;&#160;&#160;&#160;&#160;&#160;&#160;&#160;&#160;&#160;</text>
<polygon fill="none" stroke="#99ccff" points="945.75,-78 945.75,-97.5 1039.5,-97.5 1039.5,-78 945.75,-78"/>
<text text-anchor="start" x="948.75" y="-84.05" font-family="Courier,monospace" font-size="11.00">reference(18)</text>
<polygon fill="none" stroke="#99ccff" points="231,-58.5 231,-78 945.75,-78 945.75,-58.5 231,-58.5"/>
<text text-anchor="start" x="234" y="-64.55" font-family="Courier,monospace" font-size="11.00"> &#160;&#160;&#160;&#160;&#160;&#160;&#160;&#160;&#160;&#160;&#160;&#160;&#160;&#160;&#160;&#160;&#160;&#160;&#160;&#160;&#160;&#160;&#160;&#160;&#160;&#160;&#160;&#160;&#160;&#160;&#160;&#160;&#160;&#160;&#160;&#160;&#160;&#160;&#160;&#160;PlanExecutionStatus &#160;&#160;&#160;&#160;&#160;&#160;&#160;&#160;&#160;&#160;&#160;&#160;&#160;&#160;&#160;&#160;&#160;&#160;&#160;&#160;&#160;&#160;&#160;&#160;&#160;&#160;&#160;&#160;&#160;&#160;&#160;&#160;&#160;&#160;&#160;&#160;&#160;&#160;</text>
<polygon fill="none" stroke="#99ccff" points="945.75,-58.5 945.75,-78 1039.5,-78 1039.5,-58.5 945.75,-58.5"/>
<text text-anchor="start" x="958.88" y="-64.55" font-family="Courier,monospace" font-size="11.00">string(40)</text>
<polygon fill="none" stroke="#99ccff" points="231,-39 231,-58.5 945.75,-58.5 945.75,-39 231,-39"/>
<text text-anchor="start" x="234" y="-45.05" font-family="Courier,monospace" font-size="11.00"> &#160;&#160;&#160;&#160;&#160;&#160;&#160;&#160;&#160;&#160;&#160;&#160;&#160;&#160;&#160;&#160;&#160;&#160;&#160;&#160;&#160;&#160;&#160;&#160;&#160;&#160;&#160;&#160;&#160;&#160;&#160;&#160;&#160;&#160;&#160;&#160;&#160;&#160;&#160;&#160;OrchestrationGroupKey &#160;&#160;&#160;&#160;&#160;&#160;&#160;&#160;&#160;&#160;&#160;&#160;&#160;&#160;&#160;&#160;&#160;&#160;&#160;&#160;&#160;&#160;&#160;&#160;&#160;&#160;&#160;&#160;&#160;&#160;&#160;&#160;&#160;&#160;&#160;&#160;&#160;&#160;</text>
<polygon fill="none" stroke="#99ccff" points="945.75,-39 945.75,-58.5 1039.5,-58.5 1039.5,-39 945.75,-39"/>
<text text-anchor="start" x="958.88" y="-45.05" font-family="Courier,monospace" font-size="11.00">string(40)</text>
<polygon fill="none" stroke="#99ccff" points="231,-19.5 231,-39 945.75,-39 945.75,-19.5 231,-19.5"/>
<text text-anchor="start" x="234" y="-25.55" font-family="Courier,monospace" font-size="11.00"> &#160;&#160;&#160;&#160;&#160;&#160;&#160;&#160;&#160;&#160;&#160;&#160;&#160;&#160;&#160;&#160;&#160;&#160;&#160;&#160;&#160;&#160;&#160;&#160;&#160;&#160;&#160;&#160;&#160;&#160;&#160;&#160;&#160;&#160;&#160;&#160;&#160;&#160;&#160;&#160;ReferenceObjectIdentifier &#160;&#160;&#160;&#160;&#160;&#160;&#160;&#160;&#160;&#160;&#160;&#160;&#160;&#160;&#160;&#160;&#160;&#160;&#160;&#160;&#160;&#160;&#160;&#160;&#160;&#160;&#160;&#160;&#160;&#160;&#160;&#160;&#160;&#160;&#160;&#160;&#160;&#160;</text>
<polygon fill="none" stroke="#99ccff" points="945.75,-19.5 945.75,-39 1039.5,-39 1039.5,-19.5 945.75,-19.5"/>
<text text-anchor="start" x="958.88" y="-25.55" font-family="Courier,monospace" font-size="11.00">string(18)</text>
<polygon fill="none" stroke="#99ccff" points="230,-18.5 230,-352 1040.5,-352 1040.5,-18.5 230,-18.5"/>
</a>
</g>
</g>
<!-- SalesTransactionFulfillReq&#45;&gt;SalesTransactionFulfillReq -->
<g id="edge7" class="edge">
<title>SalesTransactionFulfillReq:w&#45;&gt;SalesTransactionFulfillReq:e</title>
<path fill="none" stroke="#3e7ab7" d="M217.72,-95.68C116.35,-164.72 134.52,-365 588.38,-365 1061.16,-365 1061.16,-356.33 945.75,-321.75"/>
<polygon fill="#3e7ab7" stroke="#3e7ab7" points="223.84,-92.02 232.56,-91.01 227.57,-89.8 230.43,-88.09 230.43,-88.09 230.43,-88.09 227.57,-89.8 228.87,-84.83 223.84,-92.02"/>
<ellipse fill="none" stroke="#3e7ab7" cx="219.62" cy="-94.54" rx="3.2" ry="3.2"/>
<text text-anchor="middle" x="635.25" y="-367.85" font-family="Arial" font-size="12.00">PreviousRequest</text>
</g>
<!-- Group -->
<g id="node2" class="node">
<title>Group</title>
<text text-anchor="middle" x="58.62" y="-299.55" font-family="Courier,monospace" font-size="11.00">Group</text>
</g>
<!-- SalesTransactionFulfillReq&#45;&gt;Group -->
<g id="edge1" class="edge">
<title>SalesTransactionFulfillReq:w&#45;&gt;Group:e</title>
<path fill="none" stroke="#ff99cc" d="M214.18,-302.26C166.95,-302.34 115.62,-302.74 85.6,-303"/>
<polygon fill="#ff99cc" stroke="#ff99cc" points="221.67,-302.26 229.67,-305.85 226,-302.25 229.33,-302.25 229.33,-302.25 229.33,-302.25 226,-302.25 229.66,-298.65 221.67,-302.26"/>
<ellipse fill="none" stroke="#ff99cc" cx="216.75" cy="-302.26" rx="3.2" ry="3.2"/>
<text text-anchor="middle" x="173.62" y="-305.3" font-family="Monaco" font-size="9.00">Owner</text>
</g>
<!-- User -->
<g id="node3" class="node">
<title>User</title>
<text text-anchor="middle" x="58.62" y="-250.55" font-family="Courier,monospace" font-size="11.00">User</text>
</g>
<!-- SalesTransactionFulfillReq&#45;&gt;User -->
<g id="edge2" class="edge">
<title>SalesTransactionFulfillReq:w&#45;&gt;User:e</title>
<path fill="none" stroke="#ff99cc" d="M220.29,-289.78C219.36,-284.71 218.12,-279.27 213,-276 192.38,-262.82 123.56,-257.39 85.49,-255.35"/>
<polygon fill="#ff99cc" stroke="#ff99cc" points="224.88,-295.68 226.95,-304.2 227.54,-299.09 229.59,-301.72 229.59,-301.72 229.59,-301.72 227.54,-299.09 232.63,-299.77 224.88,-295.68"/>
<ellipse fill="none" stroke="#ff99cc" cx="221.86" cy="-291.79" rx="3.2" ry="3.2"/>
<text text-anchor="middle" x="173.62" y="-278.7" font-family="Monaco" font-size="9.00">Owner</text>
</g>
<!-- SalesTransactionFulfillReq&#45;&gt;User -->
<g id="edge3" class="edge">
<title>SalesTransactionFulfillReq:w&#45;&gt;User:e</title>
<path fill="none" stroke="#ff99cc" d="M214.17,-243.67C183.91,-243.38 170.91,-242.5 134.25,-245 117.97,-246.11 99.8,-248.34 85.46,-250.34"/>
<polygon fill="#ff99cc" stroke="#ff99cc" points="221.67,-243.71 229.65,-247.35 226,-243.73 229.33,-243.75 229.33,-243.75 229.33,-243.75 226,-243.73 229.68,-240.15 221.67,-243.71"/>
<ellipse fill="none" stroke="#ff99cc" cx="216.75" cy="-243.69" rx="3.2" ry="3.2"/>
<text text-anchor="middle" x="173.62" y="-247.7" font-family="Monaco" font-size="9.00">LastModifiedBy</text>
</g>
<!-- Order -->
<g id="node4" class="node">
<title>Order</title>
<text text-anchor="middle" x="58.62" y="-201.55" font-family="Courier,monospace" font-size="11.00">Order</text>
</g>
<!-- SalesTransactionFulfillReq&#45;&gt;Order -->
<g id="edge4" class="edge">
<title>SalesTransactionFulfillReq:w&#45;&gt;Order:e</title>
<path fill="none" stroke="#ff99cc" d="M214.39,-185.51C166.85,-187.04 115.47,-194.97 85.49,-200.31"/>
<polygon fill="#ff99cc" stroke="#ff99cc" points="221.67,-185.39 229.73,-188.86 226,-185.32 229.33,-185.26 229.33,-185.26 229.33,-185.26 226,-185.32 229.61,-181.66 221.67,-185.39"/>
<ellipse fill="none" stroke="#ff99cc" cx="216.75" cy="-185.47" rx="3.2" ry="3.2"/>
<text text-anchor="middle" x="173.62" y="-194.99" font-family="Monaco" font-size="9.00">ReferenceObject</text>
</g>
<!-- Quote -->
<g id="node5" class="node">
<title>Quote</title>
<text text-anchor="middle" x="58.62" y="-152.55" font-family="Courier,monospace" font-size="11.00">Quote</text>
</g>
<!-- SalesTransactionFulfillReq&#45;&gt;Quote -->
<g id="edge5" class="edge">
<title>SalesTransactionFulfillReq:w&#45;&gt;Quote:e</title>
<path fill="none" stroke="#ff99cc" d="M218.11,-174.83C216.86,-173.32 215.27,-171.95 213,-171 170.93,-153.38 116.87,-152.68 85.45,-154.19"/>
<polygon fill="#ff99cc" stroke="#ff99cc" points="223.73,-179.76 227.38,-187.74 226.99,-182.61 229.5,-184.81 229.5,-184.81 229.5,-184.81 226.99,-182.61 232.12,-182.32 223.73,-179.76"/>
<ellipse fill="none" stroke="#ff99cc" cx="220.03" cy="-176.52" rx="3.2" ry="3.2"/>
<text text-anchor="middle" x="173.62" y="-173.7" font-family="Monaco" font-size="9.00">ReferenceObject</text>
</g>
<!-- FulfillmentPlan -->
<g id="node6" class="node">
<title>FulfillmentPlan</title>
<text text-anchor="middle" x="58.62" y="-103.55" font-family="Courier,monospace" font-size="11.00">FulfillmentPlan</text>
</g>
<!-- SalesTransactionFulfillReq&#45;&gt;FulfillmentPlan -->
<g id="edge6" class="edge">
<title>SalesTransactionFulfillReq:w&#45;&gt;FulfillmentPlan:e</title>
<path fill="none" stroke="#ff99cc" d="M214.37,-107.25C181.06,-107.25 145.7,-107.25 117.19,-107.25"/>
<polygon fill="#ff99cc" stroke="#ff99cc" points="221.67,-107.25 229.67,-110.85 226,-107.25 229.33,-107.25 229.33,-107.25 229.33,-107.25 226,-107.25 229.67,-103.65 221.67,-107.25"/>
<ellipse fill="none" stroke="#ff99cc" cx="216.75" cy="-107.25" rx="3.2" ry="3.2"/>
<text text-anchor="middle" x="173.62" y="-109.95" font-family="Monaco" font-size="9.00">Plan</text>
</g>
</g>
</svg>
