<?xml version="1.0" encoding="UTF-8" standalone="no"?>
<!DOCTYPE svg PUBLIC "-//W3C//DTD SVG 1.1//EN"
 "http://www.w3.org/Graphics/SVG/1.1/DTD/svg11.dtd">
<!-- Generated by graphviz version 12.2.1 (20241206.2353)
 -->
<!-- Title: Salesforce+ ERD Pages: 1 -->
<svg width="973pt" height="282pt"
 viewBox="0.00 0.00 973.25 282.00" xmlns="http://www.w3.org/2000/svg" xmlns:xlink="http://www.w3.org/1999/xlink">
<g id="graph0" class="graph" transform="scale(1 1) rotate(0) translate(4 278)">
<title>Salesforce+ ERD</title>
<polygon fill="#efeffd" stroke="none" points="-4,4 -4,-278 969.25,-278 969.25,4 -4,4"/>
<text text-anchor="middle" x="917.88" y="-5.95" font-family="Courier,monospace" font-size="9.00">Salesforce ERD </text>
<!-- ValTfrmGrp -->
<g id="node1" class="node">
<title>ValTfrmGrp</title>
<g id="a_node1"><a xlink:href="#" xlink:title=" ValTfrmGrp ">
<polygon fill="#ffeeff" stroke="none" points="161.5,-18.5 161.5,-274 965.25,-274 965.25,-18.5 161.5,-18.5"/>
<polygon fill="lightblue" stroke="none" points="162.5,-253.5 162.5,-273 964.25,-273 964.25,-253.5 162.5,-253.5"/>
<polygon fill="none" stroke="#99ccff" points="162.5,-253.5 162.5,-273 964.25,-273 964.25,-253.5 162.5,-253.5"/>
<text text-anchor="start" x="529.62" y="-260.55" font-family="Courier,monospace" font-weight="bold" font-size="11.00">ValTfrmGrp</text>
<polygon fill="#99ccff" stroke="none" points="162.5,-234 162.5,-253.5 870.5,-253.5 870.5,-234 162.5,-234"/>
<polygon fill="none" stroke="#99ccff" points="162.5,-234 162.5,-253.5 870.5,-253.5 870.5,-234 162.5,-234"/>
<text text-anchor="start" x="165.5" y="-241.05" font-family="Courier,monospace" font-size="11.00"> &#160;&#160;&#160;&#160;&#160;&#160;&#160;&#160;&#160;&#160;&#160;&#160;&#160;&#160;&#160;&#160;&#160;&#160;&#160;&#160;&#160;&#160;&#160;&#160;&#160;&#160;&#160;&#160;&#160;&#160;&#160;&#160;&#160;&#160;&#160;&#160;&#160;&#160;&#160;&#160;&#160;&#160;</text>
<text text-anchor="start" x="455.75" y="-241.05" font-family="Courier,monospace" font-weight="bold" font-size="11.00">Id</text>
<text text-anchor="start" x="469.25" y="-241.05" font-family="Courier,monospace" font-size="11.00"> &#160;&#160;&#160;&#160;&#160;&#160;&#160;&#160;&#160;&#160;&#160;&#160;&#160;&#160;&#160;&#160;&#160;&#160;&#160;&#160;&#160;&#160;&#160;&#160;&#160;&#160;&#160;&#160;&#160;&#160;&#160;&#160;&#160;&#160;&#160;&#160;&#160;&#160;&#160;</text>
<polygon fill="none" stroke="#99ccff" points="870.5,-234 870.5,-253.5 964.25,-253.5 964.25,-234 870.5,-234"/>
<text text-anchor="start" x="897.12" y="-240.05" font-family="Courier,monospace" font-size="11.00">id(18)</text>
<polygon fill="none" stroke="#99ccff" points="162.5,-214.5 162.5,-234 870.5,-234 870.5,-214.5 162.5,-214.5"/>
<text text-anchor="start" x="165.5" y="-220.55" font-family="Courier,monospace" font-size="11.00"> &#160;&#160;&#160;&#160;&#160;&#160;&#160;&#160;&#160;&#160;&#160;&#160;&#160;&#160;&#160;&#160;&#160;&#160;&#160;&#160;&#160;&#160;&#160;&#160;&#160;&#160;&#160;&#160;&#160;&#160;&#160;&#160;&#160;&#160;&#160;&#160;&#160;&#160;&#160;&#160;OwnerId &#160;&#160;&#160;&#160;&#160;&#160;&#160;&#160;&#160;&#160;&#160;&#160;&#160;&#160;&#160;&#160;&#160;&#160;&#160;&#160;&#160;&#160;&#160;&#160;&#160;&#160;&#160;&#160;&#160;&#160;&#160;&#160;&#160;&#160;&#160;&#160;&#160;&#160;</text>
<polygon fill="none" stroke="#99ccff" points="870.5,-214.5 870.5,-234 964.25,-234 964.25,-214.5 870.5,-214.5"/>
<text text-anchor="start" x="873.5" y="-220.55" font-family="Courier,monospace" font-size="11.00">reference(18)</text>
<polygon fill="none" stroke="#99ccff" points="162.5,-195 162.5,-214.5 870.5,-214.5 870.5,-195 162.5,-195"/>
<text text-anchor="start" x="165.5" y="-201.05" font-family="Courier,monospace" font-size="11.00"> &#160;&#160;&#160;&#160;&#160;&#160;&#160;&#160;&#160;&#160;&#160;&#160;&#160;&#160;&#160;&#160;&#160;&#160;&#160;&#160;&#160;&#160;&#160;&#160;&#160;&#160;&#160;&#160;&#160;&#160;&#160;&#160;&#160;&#160;&#160;&#160;&#160;&#160;&#160;&#160;IsDeleted &#160;&#160;&#160;&#160;&#160;&#160;&#160;&#160;&#160;&#160;&#160;&#160;&#160;&#160;&#160;&#160;&#160;&#160;&#160;&#160;&#160;&#160;&#160;&#160;&#160;&#160;&#160;&#160;&#160;&#160;&#160;&#160;&#160;&#160;&#160;&#160;&#160;&#160;</text>
<polygon fill="none" stroke="#99ccff" points="870.5,-195 870.5,-214.5 964.25,-214.5 964.25,-195 870.5,-195"/>
<text text-anchor="start" x="893.75" y="-201.05" font-family="Courier,monospace" font-size="11.00">boolean</text>
<polygon fill="none" stroke="#99ccff" points="162.5,-175.5 162.5,-195 870.5,-195 870.5,-175.5 162.5,-175.5"/>
<text text-anchor="start" x="165.5" y="-181.55" font-family="Courier,monospace" font-size="11.00"> &#160;&#160;&#160;&#160;&#160;&#160;&#160;&#160;&#160;&#160;&#160;&#160;&#160;&#160;&#160;&#160;&#160;&#160;&#160;&#160;&#160;&#160;&#160;&#160;&#160;&#160;&#160;&#160;&#160;&#160;&#160;&#160;&#160;&#160;&#160;&#160;&#160;&#160;&#160;&#160;Name &#160;&#160;&#160;&#160;&#160;&#160;&#160;&#160;&#160;&#160;&#160;&#160;&#160;&#160;&#160;&#160;&#160;&#160;&#160;&#160;&#160;&#160;&#160;&#160;&#160;&#160;&#160;&#160;&#160;&#160;&#160;&#160;&#160;&#160;&#160;&#160;&#160;&#160;</text>
<polygon fill="none" stroke="#99ccff" points="870.5,-175.5 870.5,-195 964.25,-195 964.25,-175.5 870.5,-175.5"/>
<text text-anchor="start" x="880.25" y="-181.55" font-family="Courier,monospace" font-size="11.00">string(255)</text>
<polygon fill="none" stroke="#99ccff" points="162.5,-156 162.5,-175.5 870.5,-175.5 870.5,-156 162.5,-156"/>
<text text-anchor="start" x="165.5" y="-162.05" font-family="Courier,monospace" font-size="11.00"> &#160;&#160;&#160;&#160;&#160;&#160;&#160;&#160;&#160;&#160;&#160;&#160;&#160;&#160;&#160;&#160;&#160;&#160;&#160;&#160;&#160;&#160;&#160;&#160;&#160;&#160;&#160;&#160;&#160;&#160;&#160;&#160;&#160;&#160;&#160;&#160;&#160;&#160;&#160;&#160;LastModifiedById &#160;&#160;&#160;&#160;&#160;&#160;&#160;&#160;&#160;&#160;&#160;&#160;&#160;&#160;&#160;&#160;&#160;&#160;&#160;&#160;&#160;&#160;&#160;&#160;&#160;&#160;&#160;&#160;&#160;&#160;&#160;&#160;&#160;&#160;&#160;&#160;&#160;&#160;</text>
<polygon fill="none" stroke="#99ccff" points="870.5,-156 870.5,-175.5 964.25,-175.5 964.25,-156 870.5,-156"/>
<text text-anchor="start" x="873.5" y="-162.05" font-family="Courier,monospace" font-size="11.00">reference(18)</text>
<polygon fill="none" stroke="#99ccff" points="162.5,-136.5 162.5,-156 870.5,-156 870.5,-136.5 162.5,-136.5"/>
<text text-anchor="start" x="165.5" y="-142.55" font-family="Courier,monospace" font-size="11.00"> &#160;&#160;&#160;&#160;&#160;&#160;&#160;&#160;&#160;&#160;&#160;&#160;&#160;&#160;&#160;&#160;&#160;&#160;&#160;&#160;&#160;&#160;&#160;&#160;&#160;&#160;&#160;&#160;&#160;&#160;&#160;&#160;&#160;&#160;&#160;&#160;&#160;&#160;&#160;&#160;LastViewedDate &#160;&#160;&#160;&#160;&#160;&#160;&#160;&#160;&#160;&#160;&#160;&#160;&#160;&#160;&#160;&#160;&#160;&#160;&#160;&#160;&#160;&#160;&#160;&#160;&#160;&#160;&#160;&#160;&#160;&#160;&#160;&#160;&#160;&#160;&#160;&#160;&#160;&#160;</text>
<polygon fill="none" stroke="#99ccff" points="870.5,-136.5 870.5,-156 964.25,-156 964.25,-136.5 870.5,-136.5"/>
<text text-anchor="start" x="890.38" y="-142.55" font-family="Courier,monospace" font-size="11.00">datetime</text>
<polygon fill="none" stroke="#99ccff" points="162.5,-117 162.5,-136.5 870.5,-136.5 870.5,-117 162.5,-117"/>
<text text-anchor="start" x="165.5" y="-123.05" font-family="Courier,monospace" font-size="11.00"> &#160;&#160;&#160;&#160;&#160;&#160;&#160;&#160;&#160;&#160;&#160;&#160;&#160;&#160;&#160;&#160;&#160;&#160;&#160;&#160;&#160;&#160;&#160;&#160;&#160;&#160;&#160;&#160;&#160;&#160;&#160;&#160;&#160;&#160;&#160;&#160;&#160;&#160;&#160;&#160;LastReferencedDate &#160;&#160;&#160;&#160;&#160;&#160;&#160;&#160;&#160;&#160;&#160;&#160;&#160;&#160;&#160;&#160;&#160;&#160;&#160;&#160;&#160;&#160;&#160;&#160;&#160;&#160;&#160;&#160;&#160;&#160;&#160;&#160;&#160;&#160;&#160;&#160;&#160;&#160;</text>
<polygon fill="none" stroke="#99ccff" points="870.5,-117 870.5,-136.5 964.25,-136.5 964.25,-117 870.5,-117"/>
<text text-anchor="start" x="890.38" y="-123.05" font-family="Courier,monospace" font-size="11.00">datetime</text>
<polygon fill="none" stroke="#99ccff" points="162.5,-97.5 162.5,-117 870.5,-117 870.5,-97.5 162.5,-97.5"/>
<text text-anchor="start" x="165.5" y="-103.55" font-family="Courier,monospace" font-size="11.00"> &#160;&#160;&#160;&#160;&#160;&#160;&#160;&#160;&#160;&#160;&#160;&#160;&#160;&#160;&#160;&#160;&#160;&#160;&#160;&#160;&#160;&#160;&#160;&#160;&#160;&#160;&#160;&#160;&#160;&#160;&#160;&#160;&#160;&#160;&#160;&#160;&#160;&#160;&#160;&#160;SourcePrimitiveType &#160;&#160;&#160;&#160;&#160;&#160;&#160;&#160;&#160;&#160;&#160;&#160;&#160;&#160;&#160;&#160;&#160;&#160;&#160;&#160;&#160;&#160;&#160;&#160;&#160;&#160;&#160;&#160;&#160;&#160;&#160;&#160;&#160;&#160;&#160;&#160;&#160;&#160;</text>
<polygon fill="none" stroke="#99ccff" points="870.5,-97.5 870.5,-117 964.25,-117 964.25,-97.5 870.5,-97.5"/>
<text text-anchor="start" x="873.5" y="-103.55" font-family="Courier,monospace" font-size="11.00">picklist(255)</text>
<polygon fill="none" stroke="#99ccff" points="162.5,-78 162.5,-97.5 870.5,-97.5 870.5,-78 162.5,-78"/>
<text text-anchor="start" x="165.5" y="-84.05" font-family="Courier,monospace" font-size="11.00"> &#160;&#160;&#160;&#160;&#160;&#160;&#160;&#160;&#160;&#160;&#160;&#160;&#160;&#160;&#160;&#160;&#160;&#160;&#160;&#160;&#160;&#160;&#160;&#160;&#160;&#160;&#160;&#160;&#160;&#160;&#160;&#160;&#160;&#160;&#160;&#160;&#160;&#160;&#160;&#160;IsSourceEnumerated &#160;&#160;&#160;&#160;&#160;&#160;&#160;&#160;&#160;&#160;&#160;&#160;&#160;&#160;&#160;&#160;&#160;&#160;&#160;&#160;&#160;&#160;&#160;&#160;&#160;&#160;&#160;&#160;&#160;&#160;&#160;&#160;&#160;&#160;&#160;&#160;&#160;&#160;</text>
<polygon fill="none" stroke="#99ccff" points="870.5,-78 870.5,-97.5 964.25,-97.5 964.25,-78 870.5,-78"/>
<text text-anchor="start" x="893.75" y="-84.05" font-family="Courier,monospace" font-size="11.00">boolean</text>
<polygon fill="none" stroke="#99ccff" points="162.5,-58.5 162.5,-78 870.5,-78 870.5,-58.5 162.5,-58.5"/>
<text text-anchor="start" x="165.5" y="-64.55" font-family="Courier,monospace" font-size="11.00"> &#160;&#160;&#160;&#160;&#160;&#160;&#160;&#160;&#160;&#160;&#160;&#160;&#160;&#160;&#160;&#160;&#160;&#160;&#160;&#160;&#160;&#160;&#160;&#160;&#160;&#160;&#160;&#160;&#160;&#160;&#160;&#160;&#160;&#160;&#160;&#160;&#160;&#160;&#160;&#160;DestinationPrimitiveType &#160;&#160;&#160;&#160;&#160;&#160;&#160;&#160;&#160;&#160;&#160;&#160;&#160;&#160;&#160;&#160;&#160;&#160;&#160;&#160;&#160;&#160;&#160;&#160;&#160;&#160;&#160;&#160;&#160;&#160;&#160;&#160;&#160;&#160;&#160;&#160;&#160;&#160;</text>
<polygon fill="none" stroke="#99ccff" points="870.5,-58.5 870.5,-78 964.25,-78 964.25,-58.5 870.5,-58.5"/>
<text text-anchor="start" x="873.5" y="-64.55" font-family="Courier,monospace" font-size="11.00">picklist(255)</text>
<polygon fill="none" stroke="#99ccff" points="162.5,-39 162.5,-58.5 870.5,-58.5 870.5,-39 162.5,-39"/>
<text text-anchor="start" x="165.5" y="-45.05" font-family="Courier,monospace" font-size="11.00"> &#160;&#160;&#160;&#160;&#160;&#160;&#160;&#160;&#160;&#160;&#160;&#160;&#160;&#160;&#160;&#160;&#160;&#160;&#160;&#160;&#160;&#160;&#160;&#160;&#160;&#160;&#160;&#160;&#160;&#160;&#160;&#160;&#160;&#160;&#160;&#160;&#160;&#160;&#160;&#160;IsDestinationEnumerated &#160;&#160;&#160;&#160;&#160;&#160;&#160;&#160;&#160;&#160;&#160;&#160;&#160;&#160;&#160;&#160;&#160;&#160;&#160;&#160;&#160;&#160;&#160;&#160;&#160;&#160;&#160;&#160;&#160;&#160;&#160;&#160;&#160;&#160;&#160;&#160;&#160;&#160;</text>
<polygon fill="none" stroke="#99ccff" points="870.5,-39 870.5,-58.5 964.25,-58.5 964.25,-39 870.5,-39"/>
<text text-anchor="start" x="893.75" y="-45.05" font-family="Courier,monospace" font-size="11.00">boolean</text>
<polygon fill="none" stroke="#99ccff" points="162.5,-19.5 162.5,-39 870.5,-39 870.5,-19.5 162.5,-19.5"/>
<text text-anchor="start" x="165.5" y="-25.55" font-family="Courier,monospace" font-size="11.00"> &#160;&#160;&#160;&#160;&#160;&#160;&#160;&#160;&#160;&#160;&#160;&#160;&#160;&#160;&#160;&#160;&#160;&#160;&#160;&#160;&#160;&#160;&#160;&#160;&#160;&#160;&#160;&#160;&#160;&#160;&#160;&#160;&#160;&#160;&#160;&#160;&#160;&#160;&#160;&#160;UsageType &#160;&#160;&#160;&#160;&#160;&#160;&#160;&#160;&#160;&#160;&#160;&#160;&#160;&#160;&#160;&#160;&#160;&#160;&#160;&#160;&#160;&#160;&#160;&#160;&#160;&#160;&#160;&#160;&#160;&#160;&#160;&#160;&#160;&#160;&#160;&#160;&#160;&#160;</text>
<polygon fill="none" stroke="#99ccff" points="870.5,-19.5 870.5,-39 964.25,-39 964.25,-19.5 870.5,-19.5"/>
<text text-anchor="start" x="873.5" y="-25.55" font-family="Courier,monospace" font-size="11.00">picklist(255)</text>
<polygon fill="none" stroke="#99ccff" points="161.5,-18.5 161.5,-274 965.25,-274 965.25,-18.5 161.5,-18.5"/>
</a>
</g>
</g>
<!-- Group -->
<g id="node2" class="node">
<title>Group</title>
<text text-anchor="middle" x="27" y="-220.55" font-family="Courier,monospace" font-size="11.00">Group</text>
</g>
<!-- ValTfrmGrp&#45;&gt;Group -->
<g id="edge1" class="edge">
<title>ValTfrmGrp:w&#45;&gt;Group:e</title>
<path fill="none" stroke="#ff99cc" d="M145.82,-224.25C112.37,-224.25 76.79,-224.25 53.59,-224.25"/>
<polygon fill="#ff99cc" stroke="#ff99cc" points="153.17,-224.25 161.17,-227.85 157.5,-224.25 160.83,-224.25 160.83,-224.25 160.83,-224.25 157.5,-224.25 161.17,-220.65 153.17,-224.25"/>
<ellipse fill="none" stroke="#ff99cc" cx="148.25" cy="-224.25" rx="3.2" ry="3.2"/>
<text text-anchor="middle" x="107.75" y="-226.95" font-family="Monaco" font-size="9.00">Owner</text>
</g>
<!-- User -->
<g id="node3" class="node">
<title>User</title>
<text text-anchor="middle" x="27" y="-167.55" font-family="Courier,monospace" font-size="11.00">User</text>
</g>
<!-- ValTfrmGrp&#45;&gt;User -->
<g id="edge2" class="edge">
<title>ValTfrmGrp:w&#45;&gt;User:e</title>
<path fill="none" stroke="#ff99cc" d="M151.74,-212.06C150.84,-206.68 149.78,-200.73 144.5,-197 137.14,-191.8 85.97,-181.77 53.94,-175.88"/>
<polygon fill="#ff99cc" stroke="#ff99cc" points="156.29,-217.75 158.48,-226.24 159,-221.13 161.08,-223.73 161.08,-223.73 161.08,-223.73 159,-221.13 164.1,-221.74 156.29,-217.75"/>
<ellipse fill="none" stroke="#ff99cc" cx="153.21" cy="-213.91" rx="3.2" ry="3.2"/>
<text text-anchor="middle" x="107.75" y="-199.7" font-family="Monaco" font-size="9.00">Owner</text>
</g>
<!-- ValTfrmGrp&#45;&gt;User -->
<g id="edge3" class="edge">
<title>ValTfrmGrp:w&#45;&gt;User:e</title>
<path fill="none" stroke="#ff99cc" d="M145.85,-165.04C145.42,-165.02 144.97,-165.01 144.5,-165 111.84,-164.28 103.58,-162.64 71,-165 65.43,-165.4 59.49,-166.09 53.86,-166.88"/>
<polygon fill="#ff99cc" stroke="#ff99cc" points="153.17,-165.37 161,-169.33 157.5,-165.57 160.83,-165.72 160.83,-165.72 160.83,-165.72 157.5,-165.57 161.33,-162.14 153.17,-165.37"/>
<ellipse fill="none" stroke="#ff99cc" cx="148.26" cy="-165.15" rx="3.2" ry="3.2"/>
<text text-anchor="middle" x="107.75" y="-167.7" font-family="Monaco" font-size="9.00">LastModifiedBy</text>
</g>
</g>
</svg>
