<?xml version="1.0" encoding="UTF-8" standalone="no"?>
<!DOCTYPE svg PUBLIC "-//W3C//DTD SVG 1.1//EN"
 "http://www.w3.org/Graphics/SVG/1.1/DTD/svg11.dtd">
<!-- Generated by graphviz version 12.2.1 (20241206.2353)
 -->
<!-- Title: Salesforce+ ERD Pages: 1 -->
<svg width="1090pt" height="380pt"
 viewBox="0.00 0.00 1089.75 379.50" xmlns="http://www.w3.org/2000/svg" xmlns:xlink="http://www.w3.org/1999/xlink">
<g id="graph0" class="graph" transform="scale(1 1) rotate(0) translate(4 375.5)">
<title>Salesforce+ ERD</title>
<polygon fill="#efeffd" stroke="none" points="-4,4 -4,-375.5 1085.75,-375.5 1085.75,4 -4,4"/>
<text text-anchor="middle" x="1034.38" y="-5.95" font-family="Courier,monospace" font-size="9.00">Salesforce ERD </text>
<!-- ValTfrm -->
<g id="node1" class="node">
<title>ValTfrm</title>
<g id="a_node1"><a xlink:href="#" xlink:title=" ValTfrm ">
<polygon fill="#ffeeff" stroke="none" points="298.25,-18.5 298.25,-371.5 1081.75,-371.5 1081.75,-18.5 298.25,-18.5"/>
<polygon fill="lightblue" stroke="none" points="299.25,-351 299.25,-370.5 1080.75,-370.5 1080.75,-351 299.25,-351"/>
<polygon fill="none" stroke="#99ccff" points="299.25,-351 299.25,-370.5 1080.75,-370.5 1080.75,-351 299.25,-351"/>
<text text-anchor="start" x="666.38" y="-358.05" font-family="Courier,monospace" font-weight="bold" font-size="11.00">ValTfrm</text>
<polygon fill="#99ccff" stroke="none" points="299.25,-331.5 299.25,-351 987,-351 987,-331.5 299.25,-331.5"/>
<polygon fill="none" stroke="#99ccff" points="299.25,-331.5 299.25,-351 987,-351 987,-331.5 299.25,-331.5"/>
<text text-anchor="start" x="302.25" y="-338.55" font-family="Courier,monospace" font-size="11.00"> &#160;&#160;&#160;&#160;&#160;&#160;&#160;&#160;&#160;&#160;&#160;&#160;&#160;&#160;&#160;&#160;&#160;&#160;&#160;&#160;&#160;&#160;&#160;&#160;&#160;&#160;&#160;&#160;&#160;&#160;&#160;&#160;&#160;&#160;&#160;&#160;&#160;&#160;&#160;&#160;&#160;&#160;</text>
<text text-anchor="start" x="592.5" y="-338.55" font-family="Courier,monospace" font-weight="bold" font-size="11.00">Id</text>
<text text-anchor="start" x="606" y="-338.55" font-family="Courier,monospace" font-size="11.00"> &#160;&#160;&#160;&#160;&#160;&#160;&#160;&#160;&#160;&#160;&#160;&#160;&#160;&#160;&#160;&#160;&#160;&#160;&#160;&#160;&#160;&#160;&#160;&#160;&#160;&#160;&#160;&#160;&#160;&#160;&#160;&#160;&#160;&#160;&#160;&#160;&#160;&#160;&#160;</text>
<polygon fill="none" stroke="#99ccff" points="987,-331.5 987,-351 1080.75,-351 1080.75,-331.5 987,-331.5"/>
<text text-anchor="start" x="1013.62" y="-337.55" font-family="Courier,monospace" font-size="11.00">id(18)</text>
<polygon fill="none" stroke="#99ccff" points="299.25,-312 299.25,-331.5 987,-331.5 987,-312 299.25,-312"/>
<text text-anchor="start" x="302.25" y="-318.05" font-family="Courier,monospace" font-size="11.00"> &#160;&#160;&#160;&#160;&#160;&#160;&#160;&#160;&#160;&#160;&#160;&#160;&#160;&#160;&#160;&#160;&#160;&#160;&#160;&#160;&#160;&#160;&#160;&#160;&#160;&#160;&#160;&#160;&#160;&#160;&#160;&#160;&#160;&#160;&#160;&#160;&#160;&#160;&#160;&#160;IsDeleted &#160;&#160;&#160;&#160;&#160;&#160;&#160;&#160;&#160;&#160;&#160;&#160;&#160;&#160;&#160;&#160;&#160;&#160;&#160;&#160;&#160;&#160;&#160;&#160;&#160;&#160;&#160;&#160;&#160;&#160;&#160;&#160;&#160;&#160;&#160;&#160;&#160;&#160;</text>
<polygon fill="none" stroke="#99ccff" points="987,-312 987,-331.5 1080.75,-331.5 1080.75,-312 987,-312"/>
<text text-anchor="start" x="1010.25" y="-318.05" font-family="Courier,monospace" font-size="11.00">boolean</text>
<polygon fill="none" stroke="#99ccff" points="299.25,-292.5 299.25,-312 987,-312 987,-292.5 299.25,-292.5"/>
<text text-anchor="start" x="302.25" y="-298.55" font-family="Courier,monospace" font-size="11.00"> &#160;&#160;&#160;&#160;&#160;&#160;&#160;&#160;&#160;&#160;&#160;&#160;&#160;&#160;&#160;&#160;&#160;&#160;&#160;&#160;&#160;&#160;&#160;&#160;&#160;&#160;&#160;&#160;&#160;&#160;&#160;&#160;&#160;&#160;&#160;&#160;&#160;&#160;&#160;&#160;Name &#160;&#160;&#160;&#160;&#160;&#160;&#160;&#160;&#160;&#160;&#160;&#160;&#160;&#160;&#160;&#160;&#160;&#160;&#160;&#160;&#160;&#160;&#160;&#160;&#160;&#160;&#160;&#160;&#160;&#160;&#160;&#160;&#160;&#160;&#160;&#160;&#160;&#160;</text>
<polygon fill="none" stroke="#99ccff" points="987,-292.5 987,-312 1080.75,-312 1080.75,-292.5 987,-292.5"/>
<text text-anchor="start" x="996.75" y="-298.55" font-family="Courier,monospace" font-size="11.00">string(255)</text>
<polygon fill="none" stroke="#99ccff" points="299.25,-273 299.25,-292.5 987,-292.5 987,-273 299.25,-273"/>
<text text-anchor="start" x="302.25" y="-279.05" font-family="Courier,monospace" font-size="11.00"> &#160;&#160;&#160;&#160;&#160;&#160;&#160;&#160;&#160;&#160;&#160;&#160;&#160;&#160;&#160;&#160;&#160;&#160;&#160;&#160;&#160;&#160;&#160;&#160;&#160;&#160;&#160;&#160;&#160;&#160;&#160;&#160;&#160;&#160;&#160;&#160;&#160;&#160;&#160;&#160;LastModifiedById &#160;&#160;&#160;&#160;&#160;&#160;&#160;&#160;&#160;&#160;&#160;&#160;&#160;&#160;&#160;&#160;&#160;&#160;&#160;&#160;&#160;&#160;&#160;&#160;&#160;&#160;&#160;&#160;&#160;&#160;&#160;&#160;&#160;&#160;&#160;&#160;&#160;&#160;</text>
<polygon fill="none" stroke="#99ccff" points="987,-273 987,-292.5 1080.75,-292.5 1080.75,-273 987,-273"/>
<text text-anchor="start" x="990" y="-279.05" font-family="Courier,monospace" font-size="11.00">reference(18)</text>
<polygon fill="none" stroke="#99ccff" points="299.25,-253.5 299.25,-273 987,-273 987,-253.5 299.25,-253.5"/>
<text text-anchor="start" x="302.25" y="-259.55" font-family="Courier,monospace" font-size="11.00"> &#160;&#160;&#160;&#160;&#160;&#160;&#160;&#160;&#160;&#160;&#160;&#160;&#160;&#160;&#160;&#160;&#160;&#160;&#160;&#160;&#160;&#160;&#160;&#160;&#160;&#160;&#160;&#160;&#160;&#160;&#160;&#160;&#160;&#160;&#160;&#160;&#160;&#160;&#160;&#160;ValueTransformGroupId &#160;&#160;&#160;&#160;&#160;&#160;&#160;&#160;&#160;&#160;&#160;&#160;&#160;&#160;&#160;&#160;&#160;&#160;&#160;&#160;&#160;&#160;&#160;&#160;&#160;&#160;&#160;&#160;&#160;&#160;&#160;&#160;&#160;&#160;&#160;&#160;&#160;&#160;</text>
<polygon fill="none" stroke="#99ccff" points="987,-253.5 987,-273 1080.75,-273 1080.75,-253.5 987,-253.5"/>
<text text-anchor="start" x="990" y="-259.55" font-family="Courier,monospace" font-size="11.00">reference(18)</text>
<polygon fill="none" stroke="#99ccff" points="299.25,-234 299.25,-253.5 987,-253.5 987,-234 299.25,-234"/>
<text text-anchor="start" x="302.25" y="-240.05" font-family="Courier,monospace" font-size="11.00"> &#160;&#160;&#160;&#160;&#160;&#160;&#160;&#160;&#160;&#160;&#160;&#160;&#160;&#160;&#160;&#160;&#160;&#160;&#160;&#160;&#160;&#160;&#160;&#160;&#160;&#160;&#160;&#160;&#160;&#160;&#160;&#160;&#160;&#160;&#160;&#160;&#160;&#160;&#160;&#160;InputString &#160;&#160;&#160;&#160;&#160;&#160;&#160;&#160;&#160;&#160;&#160;&#160;&#160;&#160;&#160;&#160;&#160;&#160;&#160;&#160;&#160;&#160;&#160;&#160;&#160;&#160;&#160;&#160;&#160;&#160;&#160;&#160;&#160;&#160;&#160;&#160;&#160;&#160;</text>
<polygon fill="none" stroke="#99ccff" points="987,-234 987,-253.5 1080.75,-253.5 1080.75,-234 987,-234"/>
<text text-anchor="start" x="996.75" y="-240.05" font-family="Courier,monospace" font-size="11.00">string(255)</text>
<polygon fill="none" stroke="#99ccff" points="299.25,-214.5 299.25,-234 987,-234 987,-214.5 299.25,-214.5"/>
<text text-anchor="start" x="302.25" y="-220.55" font-family="Courier,monospace" font-size="11.00"> &#160;&#160;&#160;&#160;&#160;&#160;&#160;&#160;&#160;&#160;&#160;&#160;&#160;&#160;&#160;&#160;&#160;&#160;&#160;&#160;&#160;&#160;&#160;&#160;&#160;&#160;&#160;&#160;&#160;&#160;&#160;&#160;&#160;&#160;&#160;&#160;&#160;&#160;&#160;&#160;InputNumber &#160;&#160;&#160;&#160;&#160;&#160;&#160;&#160;&#160;&#160;&#160;&#160;&#160;&#160;&#160;&#160;&#160;&#160;&#160;&#160;&#160;&#160;&#160;&#160;&#160;&#160;&#160;&#160;&#160;&#160;&#160;&#160;&#160;&#160;&#160;&#160;&#160;&#160;</text>
<polygon fill="none" stroke="#99ccff" points="987,-214.5 987,-234 1080.75,-234 1080.75,-214.5 987,-214.5"/>
<text text-anchor="start" x="1013.62" y="-220.55" font-family="Courier,monospace" font-size="11.00">double</text>
<polygon fill="none" stroke="#99ccff" points="299.25,-195 299.25,-214.5 987,-214.5 987,-195 299.25,-195"/>
<text text-anchor="start" x="302.25" y="-201.05" font-family="Courier,monospace" font-size="11.00"> &#160;&#160;&#160;&#160;&#160;&#160;&#160;&#160;&#160;&#160;&#160;&#160;&#160;&#160;&#160;&#160;&#160;&#160;&#160;&#160;&#160;&#160;&#160;&#160;&#160;&#160;&#160;&#160;&#160;&#160;&#160;&#160;&#160;&#160;&#160;&#160;&#160;&#160;&#160;&#160;InputDate &#160;&#160;&#160;&#160;&#160;&#160;&#160;&#160;&#160;&#160;&#160;&#160;&#160;&#160;&#160;&#160;&#160;&#160;&#160;&#160;&#160;&#160;&#160;&#160;&#160;&#160;&#160;&#160;&#160;&#160;&#160;&#160;&#160;&#160;&#160;&#160;&#160;&#160;</text>
<polygon fill="none" stroke="#99ccff" points="987,-195 987,-214.5 1080.75,-214.5 1080.75,-195 987,-195"/>
<text text-anchor="start" x="1020.38" y="-201.05" font-family="Courier,monospace" font-size="11.00">date</text>
<polygon fill="none" stroke="#99ccff" points="299.25,-175.5 299.25,-195 987,-195 987,-175.5 299.25,-175.5"/>
<text text-anchor="start" x="302.25" y="-181.55" font-family="Courier,monospace" font-size="11.00"> &#160;&#160;&#160;&#160;&#160;&#160;&#160;&#160;&#160;&#160;&#160;&#160;&#160;&#160;&#160;&#160;&#160;&#160;&#160;&#160;&#160;&#160;&#160;&#160;&#160;&#160;&#160;&#160;&#160;&#160;&#160;&#160;&#160;&#160;&#160;&#160;&#160;&#160;&#160;&#160;InputDatetime &#160;&#160;&#160;&#160;&#160;&#160;&#160;&#160;&#160;&#160;&#160;&#160;&#160;&#160;&#160;&#160;&#160;&#160;&#160;&#160;&#160;&#160;&#160;&#160;&#160;&#160;&#160;&#160;&#160;&#160;&#160;&#160;&#160;&#160;&#160;&#160;&#160;&#160;</text>
<polygon fill="none" stroke="#99ccff" points="987,-175.5 987,-195 1080.75,-195 1080.75,-175.5 987,-175.5"/>
<text text-anchor="start" x="1006.88" y="-181.55" font-family="Courier,monospace" font-size="11.00">datetime</text>
<polygon fill="none" stroke="#99ccff" points="299.25,-156 299.25,-175.5 987,-175.5 987,-156 299.25,-156"/>
<text text-anchor="start" x="302.25" y="-162.05" font-family="Courier,monospace" font-size="11.00"> &#160;&#160;&#160;&#160;&#160;&#160;&#160;&#160;&#160;&#160;&#160;&#160;&#160;&#160;&#160;&#160;&#160;&#160;&#160;&#160;&#160;&#160;&#160;&#160;&#160;&#160;&#160;&#160;&#160;&#160;&#160;&#160;&#160;&#160;&#160;&#160;&#160;&#160;&#160;&#160;IsInputBoolean &#160;&#160;&#160;&#160;&#160;&#160;&#160;&#160;&#160;&#160;&#160;&#160;&#160;&#160;&#160;&#160;&#160;&#160;&#160;&#160;&#160;&#160;&#160;&#160;&#160;&#160;&#160;&#160;&#160;&#160;&#160;&#160;&#160;&#160;&#160;&#160;&#160;&#160;</text>
<polygon fill="none" stroke="#99ccff" points="987,-156 987,-175.5 1080.75,-175.5 1080.75,-156 987,-156"/>
<text text-anchor="start" x="1010.25" y="-162.05" font-family="Courier,monospace" font-size="11.00">boolean</text>
<polygon fill="none" stroke="#99ccff" points="299.25,-136.5 299.25,-156 987,-156 987,-136.5 299.25,-136.5"/>
<text text-anchor="start" x="302.25" y="-142.55" font-family="Courier,monospace" font-size="11.00"> &#160;&#160;&#160;&#160;&#160;&#160;&#160;&#160;&#160;&#160;&#160;&#160;&#160;&#160;&#160;&#160;&#160;&#160;&#160;&#160;&#160;&#160;&#160;&#160;&#160;&#160;&#160;&#160;&#160;&#160;&#160;&#160;&#160;&#160;&#160;&#160;&#160;&#160;&#160;&#160;InputPicklistValueId &#160;&#160;&#160;&#160;&#160;&#160;&#160;&#160;&#160;&#160;&#160;&#160;&#160;&#160;&#160;&#160;&#160;&#160;&#160;&#160;&#160;&#160;&#160;&#160;&#160;&#160;&#160;&#160;&#160;&#160;&#160;&#160;&#160;&#160;&#160;&#160;&#160;&#160;</text>
<polygon fill="none" stroke="#99ccff" points="987,-136.5 987,-156 1080.75,-156 1080.75,-136.5 987,-136.5"/>
<text text-anchor="start" x="990" y="-142.55" font-family="Courier,monospace" font-size="11.00">reference(18)</text>
<polygon fill="none" stroke="#99ccff" points="299.25,-117 299.25,-136.5 987,-136.5 987,-117 299.25,-117"/>
<text text-anchor="start" x="302.25" y="-123.05" font-family="Courier,monospace" font-size="11.00"> &#160;&#160;&#160;&#160;&#160;&#160;&#160;&#160;&#160;&#160;&#160;&#160;&#160;&#160;&#160;&#160;&#160;&#160;&#160;&#160;&#160;&#160;&#160;&#160;&#160;&#160;&#160;&#160;&#160;&#160;&#160;&#160;&#160;&#160;&#160;&#160;&#160;&#160;&#160;&#160;OutputString &#160;&#160;&#160;&#160;&#160;&#160;&#160;&#160;&#160;&#160;&#160;&#160;&#160;&#160;&#160;&#160;&#160;&#160;&#160;&#160;&#160;&#160;&#160;&#160;&#160;&#160;&#160;&#160;&#160;&#160;&#160;&#160;&#160;&#160;&#160;&#160;&#160;&#160;</text>
<polygon fill="none" stroke="#99ccff" points="987,-117 987,-136.5 1080.75,-136.5 1080.75,-117 987,-117"/>
<text text-anchor="start" x="996.75" y="-123.05" font-family="Courier,monospace" font-size="11.00">string(255)</text>
<polygon fill="none" stroke="#99ccff" points="299.25,-97.5 299.25,-117 987,-117 987,-97.5 299.25,-97.5"/>
<text text-anchor="start" x="302.25" y="-103.55" font-family="Courier,monospace" font-size="11.00"> &#160;&#160;&#160;&#160;&#160;&#160;&#160;&#160;&#160;&#160;&#160;&#160;&#160;&#160;&#160;&#160;&#160;&#160;&#160;&#160;&#160;&#160;&#160;&#160;&#160;&#160;&#160;&#160;&#160;&#160;&#160;&#160;&#160;&#160;&#160;&#160;&#160;&#160;&#160;&#160;OutputNumber &#160;&#160;&#160;&#160;&#160;&#160;&#160;&#160;&#160;&#160;&#160;&#160;&#160;&#160;&#160;&#160;&#160;&#160;&#160;&#160;&#160;&#160;&#160;&#160;&#160;&#160;&#160;&#160;&#160;&#160;&#160;&#160;&#160;&#160;&#160;&#160;&#160;&#160;</text>
<polygon fill="none" stroke="#99ccff" points="987,-97.5 987,-117 1080.75,-117 1080.75,-97.5 987,-97.5"/>
<text text-anchor="start" x="1013.62" y="-103.55" font-family="Courier,monospace" font-size="11.00">double</text>
<polygon fill="none" stroke="#99ccff" points="299.25,-78 299.25,-97.5 987,-97.5 987,-78 299.25,-78"/>
<text text-anchor="start" x="302.25" y="-84.05" font-family="Courier,monospace" font-size="11.00"> &#160;&#160;&#160;&#160;&#160;&#160;&#160;&#160;&#160;&#160;&#160;&#160;&#160;&#160;&#160;&#160;&#160;&#160;&#160;&#160;&#160;&#160;&#160;&#160;&#160;&#160;&#160;&#160;&#160;&#160;&#160;&#160;&#160;&#160;&#160;&#160;&#160;&#160;&#160;&#160;OutputDate &#160;&#160;&#160;&#160;&#160;&#160;&#160;&#160;&#160;&#160;&#160;&#160;&#160;&#160;&#160;&#160;&#160;&#160;&#160;&#160;&#160;&#160;&#160;&#160;&#160;&#160;&#160;&#160;&#160;&#160;&#160;&#160;&#160;&#160;&#160;&#160;&#160;&#160;</text>
<polygon fill="none" stroke="#99ccff" points="987,-78 987,-97.5 1080.75,-97.5 1080.75,-78 987,-78"/>
<text text-anchor="start" x="1020.38" y="-84.05" font-family="Courier,monospace" font-size="11.00">date</text>
<polygon fill="none" stroke="#99ccff" points="299.25,-58.5 299.25,-78 987,-78 987,-58.5 299.25,-58.5"/>
<text text-anchor="start" x="302.25" y="-64.55" font-family="Courier,monospace" font-size="11.00"> &#160;&#160;&#160;&#160;&#160;&#160;&#160;&#160;&#160;&#160;&#160;&#160;&#160;&#160;&#160;&#160;&#160;&#160;&#160;&#160;&#160;&#160;&#160;&#160;&#160;&#160;&#160;&#160;&#160;&#160;&#160;&#160;&#160;&#160;&#160;&#160;&#160;&#160;&#160;&#160;OutputDatetime &#160;&#160;&#160;&#160;&#160;&#160;&#160;&#160;&#160;&#160;&#160;&#160;&#160;&#160;&#160;&#160;&#160;&#160;&#160;&#160;&#160;&#160;&#160;&#160;&#160;&#160;&#160;&#160;&#160;&#160;&#160;&#160;&#160;&#160;&#160;&#160;&#160;&#160;</text>
<polygon fill="none" stroke="#99ccff" points="987,-58.5 987,-78 1080.75,-78 1080.75,-58.5 987,-58.5"/>
<text text-anchor="start" x="1006.88" y="-64.55" font-family="Courier,monospace" font-size="11.00">datetime</text>
<polygon fill="none" stroke="#99ccff" points="299.25,-39 299.25,-58.5 987,-58.5 987,-39 299.25,-39"/>
<text text-anchor="start" x="302.25" y="-45.05" font-family="Courier,monospace" font-size="11.00"> &#160;&#160;&#160;&#160;&#160;&#160;&#160;&#160;&#160;&#160;&#160;&#160;&#160;&#160;&#160;&#160;&#160;&#160;&#160;&#160;&#160;&#160;&#160;&#160;&#160;&#160;&#160;&#160;&#160;&#160;&#160;&#160;&#160;&#160;&#160;&#160;&#160;&#160;&#160;&#160;IsOutputBoolean &#160;&#160;&#160;&#160;&#160;&#160;&#160;&#160;&#160;&#160;&#160;&#160;&#160;&#160;&#160;&#160;&#160;&#160;&#160;&#160;&#160;&#160;&#160;&#160;&#160;&#160;&#160;&#160;&#160;&#160;&#160;&#160;&#160;&#160;&#160;&#160;&#160;&#160;</text>
<polygon fill="none" stroke="#99ccff" points="987,-39 987,-58.5 1080.75,-58.5 1080.75,-39 987,-39"/>
<text text-anchor="start" x="1010.25" y="-45.05" font-family="Courier,monospace" font-size="11.00">boolean</text>
<polygon fill="none" stroke="#99ccff" points="299.25,-19.5 299.25,-39 987,-39 987,-19.5 299.25,-19.5"/>
<text text-anchor="start" x="302.25" y="-25.55" font-family="Courier,monospace" font-size="11.00"> &#160;&#160;&#160;&#160;&#160;&#160;&#160;&#160;&#160;&#160;&#160;&#160;&#160;&#160;&#160;&#160;&#160;&#160;&#160;&#160;&#160;&#160;&#160;&#160;&#160;&#160;&#160;&#160;&#160;&#160;&#160;&#160;&#160;&#160;&#160;&#160;&#160;&#160;&#160;&#160;OutputPicklistValueId &#160;&#160;&#160;&#160;&#160;&#160;&#160;&#160;&#160;&#160;&#160;&#160;&#160;&#160;&#160;&#160;&#160;&#160;&#160;&#160;&#160;&#160;&#160;&#160;&#160;&#160;&#160;&#160;&#160;&#160;&#160;&#160;&#160;&#160;&#160;&#160;&#160;&#160;</text>
<polygon fill="none" stroke="#99ccff" points="987,-19.5 987,-39 1080.75,-39 1080.75,-19.5 987,-19.5"/>
<text text-anchor="start" x="990" y="-25.55" font-family="Courier,monospace" font-size="11.00">reference(18)</text>
<polygon fill="none" stroke="#99ccff" points="298.25,-18.5 298.25,-371.5 1081.75,-371.5 1081.75,-18.5 298.25,-18.5"/>
</a>
</g>
</g>
<!-- User -->
<g id="node2" class="node">
<title>User</title>
<text text-anchor="middle" x="82.25" y="-293.3" font-family="Courier,monospace" font-size="11.00">User</text>
</g>
<!-- ValTfrm&#45;&gt;User -->
<g id="edge1" class="edge">
<title>ValTfrm:w&#45;&gt;User:e</title>
<path fill="none" stroke="#ff99cc" d="M282.42,-282.87C217.77,-283.84 146.27,-290.35 109.03,-294.18"/>
<polygon fill="#ff99cc" stroke="#ff99cc" points="289.92,-282.81 297.94,-286.35 294.25,-282.78 297.58,-282.76 297.58,-282.76 297.58,-282.76 294.25,-282.78 297.89,-279.15 289.92,-282.81"/>
<ellipse fill="none" stroke="#ff99cc" cx="285" cy="-282.85" rx="3.2" ry="3.2"/>
<text text-anchor="middle" x="231.38" y="-290.06" font-family="Monaco" font-size="9.00">LastModifiedBy</text>
</g>
<!-- ValTfrmGrp -->
<g id="node3" class="node">
<title>ValTfrmGrp</title>
<text text-anchor="middle" x="82.25" y="-244.3" font-family="Courier,monospace" font-size="11.00">ValTfrmGrp</text>
</g>
<!-- ValTfrm&#45;&gt;ValTfrmGrp -->
<g id="edge2" class="edge">
<title>ValTfrm:w&#45;&gt;ValTfrmGrp:e</title>
<path fill="none" stroke="#ff99cc" d="M282.7,-263.12C225.61,-262.22 163.15,-256.69 123.61,-252.58"/>
<polygon fill="#ff99cc" stroke="#ff99cc" points="289.92,-263.18 297.89,-266.85 294.25,-263.22 297.58,-263.24 297.58,-263.24 297.58,-263.24 294.25,-263.22 297.94,-259.65 289.92,-263.18"/>
<ellipse fill="none" stroke="#ff99cc" cx="285" cy="-263.14" rx="3.2" ry="3.2"/>
<text text-anchor="middle" x="231.38" y="-265.79" font-family="Monaco" font-size="9.00">ValueTransformGroup</text>
</g>
<!-- AttributePicklistValue -->
<g id="node4" class="node">
<title>AttributePicklistValue</title>
<text text-anchor="middle" x="82.25" y="-85.3" font-family="Courier,monospace" font-size="11.00">AttributePicklistValue</text>
</g>
<!-- ValTfrm&#45;&gt;AttributePicklistValue -->
<g id="edge3" class="edge">
<title>ValTfrm:w&#45;&gt;AttributePicklistValue:e</title>
<path fill="none" stroke="#ff99cc" d="M282.51,-145.79C224.89,-142.51 163.9,-122.34 124.8,-106.96"/>
<polygon fill="#ff99cc" stroke="#ff99cc" points="289.92,-146.01 297.81,-149.84 294.25,-146.13 297.58,-146.23 297.58,-146.23 297.58,-146.23 294.25,-146.13 298.02,-142.64 289.92,-146.01"/>
<ellipse fill="none" stroke="#ff99cc" cx="285" cy="-145.86" rx="3.2" ry="3.2"/>
<text text-anchor="middle" x="231.38" y="-148.36" font-family="Monaco" font-size="9.00">InputPicklistValue</text>
</g>
<!-- ValTfrm&#45;&gt;AttributePicklistValue -->
<g id="edge4" class="edge">
<title>ValTfrm:w&#45;&gt;AttributePicklistValue:e</title>
<path fill="none" stroke="#ff99cc" d="M282.59,-29.72C223.82,-33.18 161.72,-54.92 122.76,-71.07"/>
<polygon fill="#ff99cc" stroke="#ff99cc" points="289.92,-29.5 298.02,-32.86 294.25,-29.37 297.58,-29.27 297.58,-29.27 297.58,-29.27 294.25,-29.37 297.81,-25.66 289.92,-29.5"/>
<ellipse fill="none" stroke="#ff99cc" cx="285" cy="-29.65" rx="3.2" ry="3.2"/>
<text text-anchor="middle" x="231.38" y="-51.28" font-family="Monaco" font-size="9.00">OutputPicklistValue</text>
</g>
</g>
</svg>
