<?xml version="1.0" encoding="UTF-8" standalone="no"?>
<!DOCTYPE svg PUBLIC "-//W3C//DTD SVG 1.1//EN"
 "http://www.w3.org/Graphics/SVG/1.1/DTD/svg11.dtd">
<!-- Generated by graphviz version 12.2.1 (20241206.2353)
 -->
<!-- Title: Salesforce+ ERD Pages: 1 -->
<svg width="1153pt" height="280pt"
 viewBox="0.00 0.00 1152.75 280.00" xmlns="http://www.w3.org/2000/svg" xmlns:xlink="http://www.w3.org/1999/xlink">
<g id="graph0" class="graph" transform="scale(1 1) rotate(0) translate(4 276)">
<title>Salesforce+ ERD</title>
<polygon fill="#efeffd" stroke="none" points="-4,4 -4,-276 1148.75,-276 1148.75,4 -4,4"/>
<text text-anchor="middle" x="1097.38" y="-5.95" font-family="Courier,monospace" font-size="9.00">Salesforce ERD </text>
<!-- AttrPicklistExcludedValue -->
<g id="node1" class="node">
<title>AttrPicklistExcludedValue</title>
<g id="a_node1"><a xlink:href="#" xlink:title=" AttrPicklistExcludedValue ">
<polygon fill="#ffeeff" stroke="none" points="341,-75 341,-272 1144.75,-272 1144.75,-75 341,-75"/>
<polygon fill="lightblue" stroke="none" points="342,-251.5 342,-271 1143.75,-271 1143.75,-251.5 342,-251.5"/>
<polygon fill="none" stroke="#99ccff" points="342,-251.5 342,-271 1143.75,-271 1143.75,-251.5 342,-251.5"/>
<text text-anchor="start" x="658.5" y="-258.55" font-family="Courier,monospace" font-weight="bold" font-size="11.00">AttrPicklistExcludedValue</text>
<polygon fill="#99ccff" stroke="none" points="342,-232 342,-251.5 1050,-251.5 1050,-232 342,-232"/>
<polygon fill="none" stroke="#99ccff" points="342,-232 342,-251.5 1050,-251.5 1050,-232 342,-232"/>
<text text-anchor="start" x="345" y="-239.05" font-family="Courier,monospace" font-size="11.00"> &#160;&#160;&#160;&#160;&#160;&#160;&#160;&#160;&#160;&#160;&#160;&#160;&#160;&#160;&#160;&#160;&#160;&#160;&#160;&#160;&#160;&#160;&#160;&#160;&#160;&#160;&#160;&#160;&#160;&#160;&#160;&#160;&#160;&#160;&#160;&#160;&#160;&#160;&#160;&#160;&#160;&#160;</text>
<text text-anchor="start" x="635.25" y="-239.05" font-family="Courier,monospace" font-weight="bold" font-size="11.00">Id</text>
<text text-anchor="start" x="648.75" y="-239.05" font-family="Courier,monospace" font-size="11.00"> &#160;&#160;&#160;&#160;&#160;&#160;&#160;&#160;&#160;&#160;&#160;&#160;&#160;&#160;&#160;&#160;&#160;&#160;&#160;&#160;&#160;&#160;&#160;&#160;&#160;&#160;&#160;&#160;&#160;&#160;&#160;&#160;&#160;&#160;&#160;&#160;&#160;&#160;&#160;</text>
<polygon fill="none" stroke="#99ccff" points="1050,-232 1050,-251.5 1143.75,-251.5 1143.75,-232 1050,-232"/>
<text text-anchor="start" x="1076.62" y="-238.05" font-family="Courier,monospace" font-size="11.00">id(18)</text>
<polygon fill="none" stroke="#99ccff" points="342,-212.5 342,-232 1050,-232 1050,-212.5 342,-212.5"/>
<text text-anchor="start" x="345" y="-218.55" font-family="Courier,monospace" font-size="11.00"> &#160;&#160;&#160;&#160;&#160;&#160;&#160;&#160;&#160;&#160;&#160;&#160;&#160;&#160;&#160;&#160;&#160;&#160;&#160;&#160;&#160;&#160;&#160;&#160;&#160;&#160;&#160;&#160;&#160;&#160;&#160;&#160;&#160;&#160;&#160;&#160;&#160;&#160;&#160;&#160;OwnerId &#160;&#160;&#160;&#160;&#160;&#160;&#160;&#160;&#160;&#160;&#160;&#160;&#160;&#160;&#160;&#160;&#160;&#160;&#160;&#160;&#160;&#160;&#160;&#160;&#160;&#160;&#160;&#160;&#160;&#160;&#160;&#160;&#160;&#160;&#160;&#160;&#160;&#160;</text>
<polygon fill="none" stroke="#99ccff" points="1050,-212.5 1050,-232 1143.75,-232 1143.75,-212.5 1050,-212.5"/>
<text text-anchor="start" x="1053" y="-218.55" font-family="Courier,monospace" font-size="11.00">reference(18)</text>
<polygon fill="none" stroke="#99ccff" points="342,-193 342,-212.5 1050,-212.5 1050,-193 342,-193"/>
<text text-anchor="start" x="345" y="-199.05" font-family="Courier,monospace" font-size="11.00"> &#160;&#160;&#160;&#160;&#160;&#160;&#160;&#160;&#160;&#160;&#160;&#160;&#160;&#160;&#160;&#160;&#160;&#160;&#160;&#160;&#160;&#160;&#160;&#160;&#160;&#160;&#160;&#160;&#160;&#160;&#160;&#160;&#160;&#160;&#160;&#160;&#160;&#160;&#160;&#160;IsDeleted &#160;&#160;&#160;&#160;&#160;&#160;&#160;&#160;&#160;&#160;&#160;&#160;&#160;&#160;&#160;&#160;&#160;&#160;&#160;&#160;&#160;&#160;&#160;&#160;&#160;&#160;&#160;&#160;&#160;&#160;&#160;&#160;&#160;&#160;&#160;&#160;&#160;&#160;</text>
<polygon fill="none" stroke="#99ccff" points="1050,-193 1050,-212.5 1143.75,-212.5 1143.75,-193 1050,-193"/>
<text text-anchor="start" x="1073.25" y="-199.05" font-family="Courier,monospace" font-size="11.00">boolean</text>
<polygon fill="none" stroke="#99ccff" points="342,-173.5 342,-193 1050,-193 1050,-173.5 342,-173.5"/>
<text text-anchor="start" x="345" y="-179.55" font-family="Courier,monospace" font-size="11.00"> &#160;&#160;&#160;&#160;&#160;&#160;&#160;&#160;&#160;&#160;&#160;&#160;&#160;&#160;&#160;&#160;&#160;&#160;&#160;&#160;&#160;&#160;&#160;&#160;&#160;&#160;&#160;&#160;&#160;&#160;&#160;&#160;&#160;&#160;&#160;&#160;&#160;&#160;&#160;&#160;Name &#160;&#160;&#160;&#160;&#160;&#160;&#160;&#160;&#160;&#160;&#160;&#160;&#160;&#160;&#160;&#160;&#160;&#160;&#160;&#160;&#160;&#160;&#160;&#160;&#160;&#160;&#160;&#160;&#160;&#160;&#160;&#160;&#160;&#160;&#160;&#160;&#160;&#160;</text>
<polygon fill="none" stroke="#99ccff" points="1050,-173.5 1050,-193 1143.75,-193 1143.75,-173.5 1050,-173.5"/>
<text text-anchor="start" x="1059.75" y="-179.55" font-family="Courier,monospace" font-size="11.00">string(255)</text>
<polygon fill="none" stroke="#99ccff" points="342,-154 342,-173.5 1050,-173.5 1050,-154 342,-154"/>
<text text-anchor="start" x="345" y="-160.05" font-family="Courier,monospace" font-size="11.00"> &#160;&#160;&#160;&#160;&#160;&#160;&#160;&#160;&#160;&#160;&#160;&#160;&#160;&#160;&#160;&#160;&#160;&#160;&#160;&#160;&#160;&#160;&#160;&#160;&#160;&#160;&#160;&#160;&#160;&#160;&#160;&#160;&#160;&#160;&#160;&#160;&#160;&#160;&#160;&#160;LastModifiedById &#160;&#160;&#160;&#160;&#160;&#160;&#160;&#160;&#160;&#160;&#160;&#160;&#160;&#160;&#160;&#160;&#160;&#160;&#160;&#160;&#160;&#160;&#160;&#160;&#160;&#160;&#160;&#160;&#160;&#160;&#160;&#160;&#160;&#160;&#160;&#160;&#160;&#160;</text>
<polygon fill="none" stroke="#99ccff" points="1050,-154 1050,-173.5 1143.75,-173.5 1143.75,-154 1050,-154"/>
<text text-anchor="start" x="1053" y="-160.05" font-family="Courier,monospace" font-size="11.00">reference(18)</text>
<polygon fill="none" stroke="#99ccff" points="342,-134.5 342,-154 1050,-154 1050,-134.5 342,-134.5"/>
<text text-anchor="start" x="345" y="-140.55" font-family="Courier,monospace" font-size="11.00"> &#160;&#160;&#160;&#160;&#160;&#160;&#160;&#160;&#160;&#160;&#160;&#160;&#160;&#160;&#160;&#160;&#160;&#160;&#160;&#160;&#160;&#160;&#160;&#160;&#160;&#160;&#160;&#160;&#160;&#160;&#160;&#160;&#160;&#160;&#160;&#160;&#160;&#160;&#160;&#160;LastViewedDate &#160;&#160;&#160;&#160;&#160;&#160;&#160;&#160;&#160;&#160;&#160;&#160;&#160;&#160;&#160;&#160;&#160;&#160;&#160;&#160;&#160;&#160;&#160;&#160;&#160;&#160;&#160;&#160;&#160;&#160;&#160;&#160;&#160;&#160;&#160;&#160;&#160;&#160;</text>
<polygon fill="none" stroke="#99ccff" points="1050,-134.5 1050,-154 1143.75,-154 1143.75,-134.5 1050,-134.5"/>
<text text-anchor="start" x="1069.88" y="-140.55" font-family="Courier,monospace" font-size="11.00">datetime</text>
<polygon fill="none" stroke="#99ccff" points="342,-115 342,-134.5 1050,-134.5 1050,-115 342,-115"/>
<text text-anchor="start" x="345" y="-121.05" font-family="Courier,monospace" font-size="11.00"> &#160;&#160;&#160;&#160;&#160;&#160;&#160;&#160;&#160;&#160;&#160;&#160;&#160;&#160;&#160;&#160;&#160;&#160;&#160;&#160;&#160;&#160;&#160;&#160;&#160;&#160;&#160;&#160;&#160;&#160;&#160;&#160;&#160;&#160;&#160;&#160;&#160;&#160;&#160;&#160;LastReferencedDate &#160;&#160;&#160;&#160;&#160;&#160;&#160;&#160;&#160;&#160;&#160;&#160;&#160;&#160;&#160;&#160;&#160;&#160;&#160;&#160;&#160;&#160;&#160;&#160;&#160;&#160;&#160;&#160;&#160;&#160;&#160;&#160;&#160;&#160;&#160;&#160;&#160;&#160;</text>
<polygon fill="none" stroke="#99ccff" points="1050,-115 1050,-134.5 1143.75,-134.5 1143.75,-115 1050,-115"/>
<text text-anchor="start" x="1069.88" y="-121.05" font-family="Courier,monospace" font-size="11.00">datetime</text>
<polygon fill="none" stroke="#99ccff" points="342,-95.5 342,-115 1050,-115 1050,-95.5 342,-95.5"/>
<text text-anchor="start" x="345" y="-101.55" font-family="Courier,monospace" font-size="11.00"> &#160;&#160;&#160;&#160;&#160;&#160;&#160;&#160;&#160;&#160;&#160;&#160;&#160;&#160;&#160;&#160;&#160;&#160;&#160;&#160;&#160;&#160;&#160;&#160;&#160;&#160;&#160;&#160;&#160;&#160;&#160;&#160;&#160;&#160;&#160;&#160;&#160;&#160;&#160;&#160;AttributePicklistValueId &#160;&#160;&#160;&#160;&#160;&#160;&#160;&#160;&#160;&#160;&#160;&#160;&#160;&#160;&#160;&#160;&#160;&#160;&#160;&#160;&#160;&#160;&#160;&#160;&#160;&#160;&#160;&#160;&#160;&#160;&#160;&#160;&#160;&#160;&#160;&#160;&#160;&#160;</text>
<polygon fill="none" stroke="#99ccff" points="1050,-95.5 1050,-115 1143.75,-115 1143.75,-95.5 1050,-95.5"/>
<text text-anchor="start" x="1053" y="-101.55" font-family="Courier,monospace" font-size="11.00">reference(18)</text>
<polygon fill="none" stroke="#99ccff" points="342,-76 342,-95.5 1050,-95.5 1050,-76 342,-76"/>
<text text-anchor="start" x="345" y="-82.05" font-family="Courier,monospace" font-size="11.00"> &#160;&#160;&#160;&#160;&#160;&#160;&#160;&#160;&#160;&#160;&#160;&#160;&#160;&#160;&#160;&#160;&#160;&#160;&#160;&#160;&#160;&#160;&#160;&#160;&#160;&#160;&#160;&#160;&#160;&#160;&#160;&#160;&#160;&#160;&#160;&#160;&#160;&#160;&#160;&#160;AttributeId &#160;&#160;&#160;&#160;&#160;&#160;&#160;&#160;&#160;&#160;&#160;&#160;&#160;&#160;&#160;&#160;&#160;&#160;&#160;&#160;&#160;&#160;&#160;&#160;&#160;&#160;&#160;&#160;&#160;&#160;&#160;&#160;&#160;&#160;&#160;&#160;&#160;&#160;</text>
<polygon fill="none" stroke="#99ccff" points="1050,-76 1050,-95.5 1143.75,-95.5 1143.75,-76 1050,-76"/>
<text text-anchor="start" x="1053" y="-82.05" font-family="Courier,monospace" font-size="11.00">reference(18)</text>
<polygon fill="none" stroke="#99ccff" points="341,-75 341,-272 1144.75,-272 1144.75,-75 341,-75"/>
</a>
</g>
</g>
<!-- Group -->
<g id="node2" class="node">
<title>Group</title>
<text text-anchor="middle" x="95.75" y="-228.8" font-family="Courier,monospace" font-size="11.00">Group</text>
</g>
<!-- AttrPicklistExcludedValue&#45;&gt;Group -->
<g id="edge1" class="edge">
<title>AttrPicklistExcludedValue:w&#45;&gt;Group:e</title>
<path fill="none" stroke="#ff99cc" d="M325.41,-222.32C249.26,-222.95 164.02,-227.97 122.41,-230.71"/>
<polygon fill="#ff99cc" stroke="#ff99cc" points="332.67,-222.29 340.68,-225.85 337,-222.27 340.33,-222.25 340.33,-222.25 340.33,-222.25 337,-222.27 340.65,-218.65 332.67,-222.29"/>
<ellipse fill="none" stroke="#ff99cc" cx="327.75" cy="-222.31" rx="3.2" ry="3.2"/>
<text text-anchor="middle" x="266.25" y="-228.27" font-family="Monaco" font-size="9.00">Owner</text>
</g>
<!-- User -->
<g id="node3" class="node">
<title>User</title>
<text text-anchor="middle" x="95.75" y="-179.8" font-family="Courier,monospace" font-size="11.00">User</text>
</g>
<!-- AttrPicklistExcludedValue&#45;&gt;User -->
<g id="edge2" class="edge">
<title>AttrPicklistExcludedValue:w&#45;&gt;User:e</title>
<path fill="none" stroke="#ff99cc" d="M330.07,-211.21C328.77,-208.87 327.02,-206.67 324,-205.25 288.87,-188.69 174.32,-184.74 122.56,-183.8"/>
<polygon fill="#ff99cc" stroke="#ff99cc" points="335.14,-216.33 338.21,-224.54 338.19,-219.41 340.53,-221.77 340.53,-221.77 340.53,-221.77 338.19,-219.41 343.32,-219.48 335.14,-216.33"/>
<ellipse fill="none" stroke="#ff99cc" cx="331.68" cy="-212.83" rx="3.2" ry="3.2"/>
<text text-anchor="middle" x="266.25" y="-207.95" font-family="Monaco" font-size="9.00">Owner</text>
</g>
<!-- AttrPicklistExcludedValue&#45;&gt;User -->
<g id="edge3" class="edge">
<title>AttrPicklistExcludedValue:w&#45;&gt;User:e</title>
<path fill="none" stroke="#ff99cc" d="M325.42,-163.88C249.33,-165.1 164.41,-174.71 122.72,-180.01"/>
<polygon fill="#ff99cc" stroke="#ff99cc" points="332.67,-163.82 340.7,-167.35 337,-163.78 340.33,-163.76 340.33,-163.76 340.33,-163.76 337,-163.78 340.64,-160.15 332.67,-163.82"/>
<ellipse fill="none" stroke="#ff99cc" cx="327.75" cy="-163.86" rx="3.2" ry="3.2"/>
<text text-anchor="middle" x="266.25" y="-172.84" font-family="Monaco" font-size="9.00">LastModifiedBy</text>
</g>
<!-- AttributePicklistValue -->
<g id="node4" class="node">
<title>AttributePicklistValue</title>
<text text-anchor="middle" x="95.75" y="-130.8" font-family="Courier,monospace" font-size="11.00">AttributePicklistValue</text>
</g>
<!-- AttrPicklistExcludedValue&#45;&gt;AttributePicklistValue -->
<g id="edge4" class="edge">
<title>AttrPicklistExcludedValue:w&#45;&gt;AttributePicklistValue:e</title>
<path fill="none" stroke="#ff99cc" d="M325.47,-105.44C275.01,-106.62 220.83,-113.25 177.88,-119.88"/>
<polygon fill="#ff99cc" stroke="#ff99cc" points="332.67,-105.35 340.71,-108.85 337,-105.3 340.33,-105.26 340.33,-105.26 340.33,-105.26 337,-105.3 340.62,-101.65 332.67,-105.35"/>
<ellipse fill="none" stroke="#ff99cc" cx="327.75" cy="-105.41" rx="3.2" ry="3.2"/>
<text text-anchor="middle" x="266.25" y="-117.41" font-family="Monaco" font-size="9.00">AttributePicklistValue</text>
</g>
<!-- ProductAttributeDefinition -->
<g id="node5" class="node">
<title>ProductAttributeDefinition</title>
<text text-anchor="middle" x="95.75" y="-81.8" font-family="Courier,monospace" font-size="11.00">ProductAttributeDefinition</text>
</g>
<!-- AttrPicklistExcludedValue&#45;&gt;ProductAttributeDefinition -->
<g id="edge5" class="edge">
<title>AttrPicklistExcludedValue:w&#45;&gt;ProductAttributeDefinition:e</title>
<path fill="none" stroke="#ff99cc" d="M325.2,-85.75C280.1,-85.74 231.8,-85.69 191.28,-85.64"/>
<polygon fill="#ff99cc" stroke="#ff99cc" points="332.67,-85.75 340.67,-89.35 337,-85.75 340.33,-85.75 340.33,-85.75 340.33,-85.75 337,-85.75 340.67,-82.15 332.67,-85.75"/>
<ellipse fill="none" stroke="#ff99cc" cx="327.75" cy="-85.75" rx="3.2" ry="3.2"/>
<text text-anchor="middle" x="266.25" y="-88.45" font-family="Monaco" font-size="9.00">Attribute</text>
</g>
<!-- ProductClassificationAttr -->
<g id="node6" class="node">
<title>ProductClassificationAttr</title>
<text text-anchor="middle" x="95.75" y="-32.8" font-family="Courier,monospace" font-size="11.00">ProductClassificationAttr</text>
</g>
<!-- AttrPicklistExcludedValue&#45;&gt;ProductClassificationAttr -->
<g id="edge6" class="edge">
<title>AttrPicklistExcludedValue:w&#45;&gt;ProductClassificationAttr:e</title>
<path fill="none" stroke="#ff99cc" d="M329.3,-75.55C328.02,-73.88 326.4,-72.35 324,-71.25 281.72,-51.91 230.85,-42.98 187.98,-38.98"/>
<polygon fill="#ff99cc" stroke="#ff99cc" points="334.72,-80.27 338.38,-88.24 337.98,-83.12 340.5,-85.31 340.5,-85.31 340.5,-85.31 337.98,-83.12 343.11,-82.82 334.72,-80.27"/>
<ellipse fill="none" stroke="#ff99cc" cx="331.01" cy="-77.04" rx="3.2" ry="3.2"/>
<text text-anchor="middle" x="266.25" y="-73.95" font-family="Monaco" font-size="9.00">Attribute</text>
</g>
</g>
</svg>
