<?xml version="1.0" encoding="UTF-8" standalone="no"?>
<!DOCTYPE svg PUBLIC "-//W3C//DTD SVG 1.1//EN"
 "http://www.w3.org/Graphics/SVG/1.1/DTD/svg11.dtd">
<!-- Generated by graphviz version 12.2.1 (20241206.2353)
 -->
<!-- Title: Salesforce+ ERD Pages: 1 -->
<svg width="1010pt" height="321pt"
 viewBox="0.00 0.00 1009.50 321.00" xmlns="http://www.w3.org/2000/svg" xmlns:xlink="http://www.w3.org/1999/xlink">
<g id="graph0" class="graph" transform="scale(1 1) rotate(0) translate(4 317)">
<title>Salesforce+ ERD</title>
<polygon fill="#efeffd" stroke="none" points="-4,4 -4,-317 1005.5,-317 1005.5,4 -4,4"/>
<text text-anchor="middle" x="954.12" y="-5.95" font-family="Courier,monospace" font-size="9.00">Salesforce ERD </text>
<!-- AttributePicklistValue -->
<g id="node1" class="node">
<title>AttributePicklistValue</title>
<g id="a_node1"><a xlink:href="#" xlink:title=" AttributePicklistValue ">
<polygon fill="#ffeeff" stroke="none" points="238.25,-18.5 238.25,-313 1001.5,-313 1001.5,-18.5 238.25,-18.5"/>
<polygon fill="lightblue" stroke="none" points="239.25,-292.5 239.25,-312 1000.5,-312 1000.5,-292.5 239.25,-292.5"/>
<polygon fill="none" stroke="#99ccff" points="239.25,-292.5 239.25,-312 1000.5,-312 1000.5,-292.5 239.25,-292.5"/>
<text text-anchor="start" x="545.62" y="-299.55" font-family="Courier,monospace" font-weight="bold" font-size="11.00">AttributePicklistValue</text>
<polygon fill="#99ccff" stroke="none" points="239.25,-273 239.25,-292.5 906.75,-292.5 906.75,-273 239.25,-273"/>
<polygon fill="none" stroke="#99ccff" points="239.25,-273 239.25,-292.5 906.75,-292.5 906.75,-273 239.25,-273"/>
<text text-anchor="start" x="242.25" y="-280.05" font-family="Courier,monospace" font-size="11.00"> &#160;&#160;&#160;&#160;&#160;&#160;&#160;&#160;&#160;&#160;&#160;&#160;&#160;&#160;&#160;&#160;&#160;&#160;&#160;&#160;&#160;&#160;&#160;&#160;&#160;&#160;&#160;&#160;&#160;&#160;&#160;&#160;&#160;&#160;&#160;&#160;&#160;&#160;&#160;&#160;&#160;&#160;</text>
<text text-anchor="start" x="532.5" y="-280.05" font-family="Courier,monospace" font-weight="bold" font-size="11.00">Id</text>
<text text-anchor="start" x="546" y="-280.05" font-family="Courier,monospace" font-size="11.00"> &#160;&#160;&#160;&#160;&#160;&#160;&#160;&#160;&#160;&#160;&#160;&#160;&#160;&#160;&#160;&#160;&#160;&#160;&#160;&#160;&#160;&#160;&#160;&#160;&#160;&#160;&#160;&#160;&#160;&#160;&#160;&#160;&#160;&#160;&#160;&#160;&#160;&#160;&#160;</text>
<polygon fill="none" stroke="#99ccff" points="906.75,-273 906.75,-292.5 1000.5,-292.5 1000.5,-273 906.75,-273"/>
<text text-anchor="start" x="933.38" y="-279.05" font-family="Courier,monospace" font-size="11.00">id(18)</text>
<polygon fill="none" stroke="#99ccff" points="239.25,-253.5 239.25,-273 906.75,-273 906.75,-253.5 239.25,-253.5"/>
<text text-anchor="start" x="242.25" y="-259.55" font-family="Courier,monospace" font-size="11.00"> &#160;&#160;&#160;&#160;&#160;&#160;&#160;&#160;&#160;&#160;&#160;&#160;&#160;&#160;&#160;&#160;&#160;&#160;&#160;&#160;&#160;&#160;&#160;&#160;&#160;&#160;&#160;&#160;&#160;&#160;&#160;&#160;&#160;&#160;&#160;&#160;&#160;&#160;&#160;&#160;IsDeleted &#160;&#160;&#160;&#160;&#160;&#160;&#160;&#160;&#160;&#160;&#160;&#160;&#160;&#160;&#160;&#160;&#160;&#160;&#160;&#160;&#160;&#160;&#160;&#160;&#160;&#160;&#160;&#160;&#160;&#160;&#160;&#160;&#160;&#160;&#160;&#160;&#160;&#160;</text>
<polygon fill="none" stroke="#99ccff" points="906.75,-253.5 906.75,-273 1000.5,-273 1000.5,-253.5 906.75,-253.5"/>
<text text-anchor="start" x="930" y="-259.55" font-family="Courier,monospace" font-size="11.00">boolean</text>
<polygon fill="none" stroke="#99ccff" points="239.25,-234 239.25,-253.5 906.75,-253.5 906.75,-234 239.25,-234"/>
<text text-anchor="start" x="242.25" y="-240.05" font-family="Courier,monospace" font-size="11.00"> &#160;&#160;&#160;&#160;&#160;&#160;&#160;&#160;&#160;&#160;&#160;&#160;&#160;&#160;&#160;&#160;&#160;&#160;&#160;&#160;&#160;&#160;&#160;&#160;&#160;&#160;&#160;&#160;&#160;&#160;&#160;&#160;&#160;&#160;&#160;&#160;&#160;&#160;&#160;&#160;Name &#160;&#160;&#160;&#160;&#160;&#160;&#160;&#160;&#160;&#160;&#160;&#160;&#160;&#160;&#160;&#160;&#160;&#160;&#160;&#160;&#160;&#160;&#160;&#160;&#160;&#160;&#160;&#160;&#160;&#160;&#160;&#160;&#160;&#160;&#160;&#160;&#160;&#160;</text>
<polygon fill="none" stroke="#99ccff" points="906.75,-234 906.75,-253.5 1000.5,-253.5 1000.5,-234 906.75,-234"/>
<text text-anchor="start" x="919.88" y="-240.05" font-family="Courier,monospace" font-size="11.00">string(80)</text>
<polygon fill="none" stroke="#99ccff" points="239.25,-214.5 239.25,-234 906.75,-234 906.75,-214.5 239.25,-214.5"/>
<text text-anchor="start" x="242.25" y="-220.55" font-family="Courier,monospace" font-size="11.00"> &#160;&#160;&#160;&#160;&#160;&#160;&#160;&#160;&#160;&#160;&#160;&#160;&#160;&#160;&#160;&#160;&#160;&#160;&#160;&#160;&#160;&#160;&#160;&#160;&#160;&#160;&#160;&#160;&#160;&#160;&#160;&#160;&#160;&#160;&#160;&#160;&#160;&#160;&#160;&#160;LastModifiedById &#160;&#160;&#160;&#160;&#160;&#160;&#160;&#160;&#160;&#160;&#160;&#160;&#160;&#160;&#160;&#160;&#160;&#160;&#160;&#160;&#160;&#160;&#160;&#160;&#160;&#160;&#160;&#160;&#160;&#160;&#160;&#160;&#160;&#160;&#160;&#160;&#160;&#160;</text>
<polygon fill="none" stroke="#99ccff" points="906.75,-214.5 906.75,-234 1000.5,-234 1000.5,-214.5 906.75,-214.5"/>
<text text-anchor="start" x="909.75" y="-220.55" font-family="Courier,monospace" font-size="11.00">reference(18)</text>
<polygon fill="none" stroke="#99ccff" points="239.25,-195 239.25,-214.5 906.75,-214.5 906.75,-195 239.25,-195"/>
<text text-anchor="start" x="242.25" y="-201.05" font-family="Courier,monospace" font-size="11.00"> &#160;&#160;&#160;&#160;&#160;&#160;&#160;&#160;&#160;&#160;&#160;&#160;&#160;&#160;&#160;&#160;&#160;&#160;&#160;&#160;&#160;&#160;&#160;&#160;&#160;&#160;&#160;&#160;&#160;&#160;&#160;&#160;&#160;&#160;&#160;&#160;&#160;&#160;&#160;&#160;LastViewedDate &#160;&#160;&#160;&#160;&#160;&#160;&#160;&#160;&#160;&#160;&#160;&#160;&#160;&#160;&#160;&#160;&#160;&#160;&#160;&#160;&#160;&#160;&#160;&#160;&#160;&#160;&#160;&#160;&#160;&#160;&#160;&#160;&#160;&#160;&#160;&#160;&#160;&#160;</text>
<polygon fill="none" stroke="#99ccff" points="906.75,-195 906.75,-214.5 1000.5,-214.5 1000.5,-195 906.75,-195"/>
<text text-anchor="start" x="926.62" y="-201.05" font-family="Courier,monospace" font-size="11.00">datetime</text>
<polygon fill="none" stroke="#99ccff" points="239.25,-175.5 239.25,-195 906.75,-195 906.75,-175.5 239.25,-175.5"/>
<text text-anchor="start" x="242.25" y="-181.55" font-family="Courier,monospace" font-size="11.00"> &#160;&#160;&#160;&#160;&#160;&#160;&#160;&#160;&#160;&#160;&#160;&#160;&#160;&#160;&#160;&#160;&#160;&#160;&#160;&#160;&#160;&#160;&#160;&#160;&#160;&#160;&#160;&#160;&#160;&#160;&#160;&#160;&#160;&#160;&#160;&#160;&#160;&#160;&#160;&#160;LastReferencedDate &#160;&#160;&#160;&#160;&#160;&#160;&#160;&#160;&#160;&#160;&#160;&#160;&#160;&#160;&#160;&#160;&#160;&#160;&#160;&#160;&#160;&#160;&#160;&#160;&#160;&#160;&#160;&#160;&#160;&#160;&#160;&#160;&#160;&#160;&#160;&#160;&#160;&#160;</text>
<polygon fill="none" stroke="#99ccff" points="906.75,-175.5 906.75,-195 1000.5,-195 1000.5,-175.5 906.75,-175.5"/>
<text text-anchor="start" x="926.62" y="-181.55" font-family="Courier,monospace" font-size="11.00">datetime</text>
<polygon fill="none" stroke="#99ccff" points="239.25,-156 239.25,-175.5 906.75,-175.5 906.75,-156 239.25,-156"/>
<text text-anchor="start" x="242.25" y="-162.05" font-family="Courier,monospace" font-size="11.00"> &#160;&#160;&#160;&#160;&#160;&#160;&#160;&#160;&#160;&#160;&#160;&#160;&#160;&#160;&#160;&#160;&#160;&#160;&#160;&#160;&#160;&#160;&#160;&#160;&#160;&#160;&#160;&#160;&#160;&#160;&#160;&#160;&#160;&#160;&#160;&#160;&#160;&#160;&#160;&#160;PicklistId &#160;&#160;&#160;&#160;&#160;&#160;&#160;&#160;&#160;&#160;&#160;&#160;&#160;&#160;&#160;&#160;&#160;&#160;&#160;&#160;&#160;&#160;&#160;&#160;&#160;&#160;&#160;&#160;&#160;&#160;&#160;&#160;&#160;&#160;&#160;&#160;&#160;&#160;</text>
<polygon fill="none" stroke="#99ccff" points="906.75,-156 906.75,-175.5 1000.5,-175.5 1000.5,-156 906.75,-156"/>
<text text-anchor="start" x="909.75" y="-162.05" font-family="Courier,monospace" font-size="11.00">reference(18)</text>
<polygon fill="none" stroke="#99ccff" points="239.25,-136.5 239.25,-156 906.75,-156 906.75,-136.5 239.25,-136.5"/>
<text text-anchor="start" x="242.25" y="-142.55" font-family="Courier,monospace" font-size="11.00"> &#160;&#160;&#160;&#160;&#160;&#160;&#160;&#160;&#160;&#160;&#160;&#160;&#160;&#160;&#160;&#160;&#160;&#160;&#160;&#160;&#160;&#160;&#160;&#160;&#160;&#160;&#160;&#160;&#160;&#160;&#160;&#160;&#160;&#160;&#160;&#160;&#160;&#160;&#160;&#160;Abbreviation &#160;&#160;&#160;&#160;&#160;&#160;&#160;&#160;&#160;&#160;&#160;&#160;&#160;&#160;&#160;&#160;&#160;&#160;&#160;&#160;&#160;&#160;&#160;&#160;&#160;&#160;&#160;&#160;&#160;&#160;&#160;&#160;&#160;&#160;&#160;&#160;&#160;&#160;</text>
<polygon fill="none" stroke="#99ccff" points="906.75,-136.5 906.75,-156 1000.5,-156 1000.5,-136.5 906.75,-136.5"/>
<text text-anchor="start" x="916.5" y="-142.55" font-family="Courier,monospace" font-size="11.00">string(255)</text>
<polygon fill="none" stroke="#99ccff" points="239.25,-117 239.25,-136.5 906.75,-136.5 906.75,-117 239.25,-117"/>
<text text-anchor="start" x="242.25" y="-123.05" font-family="Courier,monospace" font-size="11.00"> &#160;&#160;&#160;&#160;&#160;&#160;&#160;&#160;&#160;&#160;&#160;&#160;&#160;&#160;&#160;&#160;&#160;&#160;&#160;&#160;&#160;&#160;&#160;&#160;&#160;&#160;&#160;&#160;&#160;&#160;&#160;&#160;&#160;&#160;&#160;&#160;&#160;&#160;&#160;&#160;Status &#160;&#160;&#160;&#160;&#160;&#160;&#160;&#160;&#160;&#160;&#160;&#160;&#160;&#160;&#160;&#160;&#160;&#160;&#160;&#160;&#160;&#160;&#160;&#160;&#160;&#160;&#160;&#160;&#160;&#160;&#160;&#160;&#160;&#160;&#160;&#160;&#160;&#160;</text>
<polygon fill="none" stroke="#99ccff" points="906.75,-117 906.75,-136.5 1000.5,-136.5 1000.5,-117 906.75,-117"/>
<text text-anchor="start" x="909.75" y="-123.05" font-family="Courier,monospace" font-size="11.00">picklist(255)</text>
<polygon fill="none" stroke="#99ccff" points="239.25,-97.5 239.25,-117 906.75,-117 906.75,-97.5 239.25,-97.5"/>
<text text-anchor="start" x="242.25" y="-103.55" font-family="Courier,monospace" font-size="11.00"> &#160;&#160;&#160;&#160;&#160;&#160;&#160;&#160;&#160;&#160;&#160;&#160;&#160;&#160;&#160;&#160;&#160;&#160;&#160;&#160;&#160;&#160;&#160;&#160;&#160;&#160;&#160;&#160;&#160;&#160;&#160;&#160;&#160;&#160;&#160;&#160;&#160;&#160;&#160;&#160;Code &#160;&#160;&#160;&#160;&#160;&#160;&#160;&#160;&#160;&#160;&#160;&#160;&#160;&#160;&#160;&#160;&#160;&#160;&#160;&#160;&#160;&#160;&#160;&#160;&#160;&#160;&#160;&#160;&#160;&#160;&#160;&#160;&#160;&#160;&#160;&#160;&#160;&#160;</text>
<polygon fill="none" stroke="#99ccff" points="906.75,-97.5 906.75,-117 1000.5,-117 1000.5,-97.5 906.75,-97.5"/>
<text text-anchor="start" x="919.88" y="-103.55" font-family="Courier,monospace" font-size="11.00">string(80)</text>
<polygon fill="none" stroke="#99ccff" points="239.25,-78 239.25,-97.5 906.75,-97.5 906.75,-78 239.25,-78"/>
<text text-anchor="start" x="242.25" y="-84.05" font-family="Courier,monospace" font-size="11.00"> &#160;&#160;&#160;&#160;&#160;&#160;&#160;&#160;&#160;&#160;&#160;&#160;&#160;&#160;&#160;&#160;&#160;&#160;&#160;&#160;&#160;&#160;&#160;&#160;&#160;&#160;&#160;&#160;&#160;&#160;&#160;&#160;&#160;&#160;&#160;&#160;&#160;&#160;&#160;&#160;DisplayValue &#160;&#160;&#160;&#160;&#160;&#160;&#160;&#160;&#160;&#160;&#160;&#160;&#160;&#160;&#160;&#160;&#160;&#160;&#160;&#160;&#160;&#160;&#160;&#160;&#160;&#160;&#160;&#160;&#160;&#160;&#160;&#160;&#160;&#160;&#160;&#160;&#160;&#160;</text>
<polygon fill="none" stroke="#99ccff" points="906.75,-78 906.75,-97.5 1000.5,-97.5 1000.5,-78 906.75,-78"/>
<text text-anchor="start" x="916.5" y="-84.05" font-family="Courier,monospace" font-size="11.00">string(255)</text>
<polygon fill="none" stroke="#99ccff" points="239.25,-58.5 239.25,-78 906.75,-78 906.75,-58.5 239.25,-58.5"/>
<text text-anchor="start" x="242.25" y="-64.55" font-family="Courier,monospace" font-size="11.00"> &#160;&#160;&#160;&#160;&#160;&#160;&#160;&#160;&#160;&#160;&#160;&#160;&#160;&#160;&#160;&#160;&#160;&#160;&#160;&#160;&#160;&#160;&#160;&#160;&#160;&#160;&#160;&#160;&#160;&#160;&#160;&#160;&#160;&#160;&#160;&#160;&#160;&#160;&#160;&#160;IsDefault &#160;&#160;&#160;&#160;&#160;&#160;&#160;&#160;&#160;&#160;&#160;&#160;&#160;&#160;&#160;&#160;&#160;&#160;&#160;&#160;&#160;&#160;&#160;&#160;&#160;&#160;&#160;&#160;&#160;&#160;&#160;&#160;&#160;&#160;&#160;&#160;&#160;&#160;</text>
<polygon fill="none" stroke="#99ccff" points="906.75,-58.5 906.75,-78 1000.5,-78 1000.5,-58.5 906.75,-58.5"/>
<text text-anchor="start" x="930" y="-64.55" font-family="Courier,monospace" font-size="11.00">boolean</text>
<polygon fill="none" stroke="#99ccff" points="239.25,-39 239.25,-58.5 906.75,-58.5 906.75,-39 239.25,-39"/>
<text text-anchor="start" x="242.25" y="-45.05" font-family="Courier,monospace" font-size="11.00"> &#160;&#160;&#160;&#160;&#160;&#160;&#160;&#160;&#160;&#160;&#160;&#160;&#160;&#160;&#160;&#160;&#160;&#160;&#160;&#160;&#160;&#160;&#160;&#160;&#160;&#160;&#160;&#160;&#160;&#160;&#160;&#160;&#160;&#160;&#160;&#160;&#160;&#160;&#160;&#160;Sequence &#160;&#160;&#160;&#160;&#160;&#160;&#160;&#160;&#160;&#160;&#160;&#160;&#160;&#160;&#160;&#160;&#160;&#160;&#160;&#160;&#160;&#160;&#160;&#160;&#160;&#160;&#160;&#160;&#160;&#160;&#160;&#160;&#160;&#160;&#160;&#160;&#160;&#160;</text>
<polygon fill="none" stroke="#99ccff" points="906.75,-39 906.75,-58.5 1000.5,-58.5 1000.5,-39 906.75,-39"/>
<text text-anchor="start" x="933.38" y="-45.05" font-family="Courier,monospace" font-size="11.00">double</text>
<polygon fill="none" stroke="#99ccff" points="239.25,-19.5 239.25,-39 906.75,-39 906.75,-19.5 239.25,-19.5"/>
<text text-anchor="start" x="242.25" y="-25.55" font-family="Courier,monospace" font-size="11.00"> &#160;&#160;&#160;&#160;&#160;&#160;&#160;&#160;&#160;&#160;&#160;&#160;&#160;&#160;&#160;&#160;&#160;&#160;&#160;&#160;&#160;&#160;&#160;&#160;&#160;&#160;&#160;&#160;&#160;&#160;&#160;&#160;&#160;&#160;&#160;&#160;&#160;&#160;&#160;&#160;Value &#160;&#160;&#160;&#160;&#160;&#160;&#160;&#160;&#160;&#160;&#160;&#160;&#160;&#160;&#160;&#160;&#160;&#160;&#160;&#160;&#160;&#160;&#160;&#160;&#160;&#160;&#160;&#160;&#160;&#160;&#160;&#160;&#160;&#160;&#160;&#160;&#160;&#160;</text>
<polygon fill="none" stroke="#99ccff" points="906.75,-19.5 906.75,-39 1000.5,-39 1000.5,-19.5 906.75,-19.5"/>
<text text-anchor="start" x="916.5" y="-25.55" font-family="Courier,monospace" font-size="11.00">string(255)</text>
<polygon fill="none" stroke="#99ccff" points="238.25,-18.5 238.25,-313 1001.5,-313 1001.5,-18.5 238.25,-18.5"/>
</a>
</g>
</g>
<!-- User -->
<g id="node2" class="node">
<title>User</title>
<text text-anchor="middle" x="65.38" y="-220.05" font-family="Courier,monospace" font-size="11.00">User</text>
</g>
<!-- AttributePicklistValue&#45;&gt;User -->
<g id="edge1" class="edge">
<title>AttributePicklistValue:w&#45;&gt;User:e</title>
<path fill="none" stroke="#ff99cc" d="M222.55,-224.24C174.68,-224.21 122.58,-224.01 92.29,-223.87"/>
<polygon fill="#ff99cc" stroke="#ff99cc" points="229.92,-224.25 237.91,-227.85 234.25,-224.25 237.58,-224.25 237.58,-224.25 237.58,-224.25 234.25,-224.25 237.92,-220.65 229.92,-224.25"/>
<ellipse fill="none" stroke="#ff99cc" cx="225" cy="-224.24" rx="3.2" ry="3.2"/>
<text text-anchor="middle" x="184.5" y="-226.94" font-family="Monaco" font-size="9.00">LastModifiedBy</text>
</g>
<!-- AttributePicklist -->
<g id="node3" class="node">
<title>AttributePicklist</title>
<text text-anchor="middle" x="65.38" y="-162.05" font-family="Courier,monospace" font-size="11.00">AttributePicklist</text>
</g>
<!-- AttributePicklistValue&#45;&gt;AttributePicklist -->
<g id="edge2" class="edge">
<title>AttributePicklistValue:w&#45;&gt;AttributePicklist:e</title>
<path fill="none" stroke="#ff99cc" d="M222.56,-165.75C191.24,-165.75 158.1,-165.75 130.45,-165.75"/>
<polygon fill="#ff99cc" stroke="#ff99cc" points="229.92,-165.75 237.92,-169.35 234.25,-165.75 237.58,-165.75 237.58,-165.75 237.58,-165.75 234.25,-165.75 237.92,-162.15 229.92,-165.75"/>
<ellipse fill="none" stroke="#ff99cc" cx="225" cy="-165.75" rx="3.2" ry="3.2"/>
<text text-anchor="middle" x="184.5" y="-168.45" font-family="Monaco" font-size="9.00">Picklist</text>
</g>
</g>
</svg>
