<?xml version="1.0" encoding="UTF-8" standalone="no"?>
<!DOCTYPE svg PUBLIC "-//W3C//DTD SVG 1.1//EN"
 "http://www.w3.org/Graphics/SVG/1.1/DTD/svg11.dtd">
<!-- Generated by graphviz version 12.2.1 (20241206.2353)
 -->
<!-- Title: Salesforce+ ERD Pages: 1 -->
<svg width="1050pt" height="438pt"
 viewBox="0.00 0.00 1050.00 438.00" xmlns="http://www.w3.org/2000/svg" xmlns:xlink="http://www.w3.org/1999/xlink">
<g id="graph0" class="graph" transform="scale(1 1) rotate(0) translate(4 434)">
<title>Salesforce+ ERD</title>
<polygon fill="#efeffd" stroke="none" points="-4,4 -4,-434 1046,-434 1046,4 -4,4"/>
<text text-anchor="middle" x="994.62" y="-5.95" font-family="Courier,monospace" font-size="9.00">Salesforce ERD </text>
<!-- AttributeDefinition -->
<g id="node1" class="node">
<title>AttributeDefinition</title>
<g id="a_node1"><a xlink:href="#" xlink:title=" AttributeDefinition ">
<polygon fill="#ffeeff" stroke="none" points="238.25,-18.5 238.25,-430 1042,-430 1042,-18.5 238.25,-18.5"/>
<polygon fill="lightblue" stroke="none" points="239.25,-409.5 239.25,-429 1041,-429 1041,-409.5 239.25,-409.5"/>
<polygon fill="none" stroke="#99ccff" points="239.25,-409.5 239.25,-429 1041,-429 1041,-409.5 239.25,-409.5"/>
<text text-anchor="start" x="576" y="-416.55" font-family="Courier,monospace" font-weight="bold" font-size="11.00">AttributeDefinition</text>
<polygon fill="#99ccff" stroke="none" points="239.25,-390 239.25,-409.5 933.75,-409.5 933.75,-390 239.25,-390"/>
<polygon fill="none" stroke="#99ccff" points="239.25,-390 239.25,-409.5 933.75,-409.5 933.75,-390 239.25,-390"/>
<text text-anchor="start" x="242.25" y="-397.05" font-family="Courier,monospace" font-size="11.00"> &#160;&#160;&#160;&#160;&#160;&#160;&#160;&#160;&#160;&#160;&#160;&#160;&#160;&#160;&#160;&#160;&#160;&#160;&#160;&#160;&#160;&#160;&#160;&#160;&#160;&#160;&#160;&#160;&#160;&#160;&#160;&#160;&#160;&#160;&#160;&#160;&#160;&#160;&#160;&#160;&#160;&#160;</text>
<text text-anchor="start" x="532.5" y="-397.05" font-family="Courier,monospace" font-weight="bold" font-size="11.00">Id</text>
<text text-anchor="start" x="546" y="-397.05" font-family="Courier,monospace" font-size="11.00"> &#160;&#160;&#160;&#160;&#160;&#160;&#160;&#160;&#160;&#160;&#160;&#160;&#160;&#160;&#160;&#160;&#160;&#160;&#160;&#160;&#160;&#160;&#160;&#160;&#160;&#160;&#160;&#160;&#160;&#160;&#160;&#160;&#160;&#160;&#160;&#160;&#160;&#160;&#160;</text>
<polygon fill="none" stroke="#99ccff" points="933.75,-390 933.75,-409.5 1041,-409.5 1041,-390 933.75,-390"/>
<text text-anchor="start" x="967.12" y="-396.05" font-family="Courier,monospace" font-size="11.00">id(18)</text>
<polygon fill="none" stroke="#99ccff" points="239.25,-370.5 239.25,-390 933.75,-390 933.75,-370.5 239.25,-370.5"/>
<text text-anchor="start" x="242.25" y="-376.55" font-family="Courier,monospace" font-size="11.00"> &#160;&#160;&#160;&#160;&#160;&#160;&#160;&#160;&#160;&#160;&#160;&#160;&#160;&#160;&#160;&#160;&#160;&#160;&#160;&#160;&#160;&#160;&#160;&#160;&#160;&#160;&#160;&#160;&#160;&#160;&#160;&#160;&#160;&#160;&#160;&#160;&#160;&#160;&#160;&#160;OwnerId &#160;&#160;&#160;&#160;&#160;&#160;&#160;&#160;&#160;&#160;&#160;&#160;&#160;&#160;&#160;&#160;&#160;&#160;&#160;&#160;&#160;&#160;&#160;&#160;&#160;&#160;&#160;&#160;&#160;&#160;&#160;&#160;&#160;&#160;&#160;&#160;&#160;&#160;</text>
<polygon fill="none" stroke="#99ccff" points="933.75,-370.5 933.75,-390 1041,-390 1041,-370.5 933.75,-370.5"/>
<text text-anchor="start" x="943.5" y="-376.55" font-family="Courier,monospace" font-size="11.00">reference(18)</text>
<polygon fill="none" stroke="#99ccff" points="239.25,-351 239.25,-370.5 933.75,-370.5 933.75,-351 239.25,-351"/>
<text text-anchor="start" x="242.25" y="-357.05" font-family="Courier,monospace" font-size="11.00"> &#160;&#160;&#160;&#160;&#160;&#160;&#160;&#160;&#160;&#160;&#160;&#160;&#160;&#160;&#160;&#160;&#160;&#160;&#160;&#160;&#160;&#160;&#160;&#160;&#160;&#160;&#160;&#160;&#160;&#160;&#160;&#160;&#160;&#160;&#160;&#160;&#160;&#160;&#160;&#160;IsDeleted &#160;&#160;&#160;&#160;&#160;&#160;&#160;&#160;&#160;&#160;&#160;&#160;&#160;&#160;&#160;&#160;&#160;&#160;&#160;&#160;&#160;&#160;&#160;&#160;&#160;&#160;&#160;&#160;&#160;&#160;&#160;&#160;&#160;&#160;&#160;&#160;&#160;&#160;</text>
<polygon fill="none" stroke="#99ccff" points="933.75,-351 933.75,-370.5 1041,-370.5 1041,-351 933.75,-351"/>
<text text-anchor="start" x="963.75" y="-357.05" font-family="Courier,monospace" font-size="11.00">boolean</text>
<polygon fill="none" stroke="#99ccff" points="239.25,-331.5 239.25,-351 933.75,-351 933.75,-331.5 239.25,-331.5"/>
<text text-anchor="start" x="242.25" y="-337.55" font-family="Courier,monospace" font-size="11.00"> &#160;&#160;&#160;&#160;&#160;&#160;&#160;&#160;&#160;&#160;&#160;&#160;&#160;&#160;&#160;&#160;&#160;&#160;&#160;&#160;&#160;&#160;&#160;&#160;&#160;&#160;&#160;&#160;&#160;&#160;&#160;&#160;&#160;&#160;&#160;&#160;&#160;&#160;&#160;&#160;Name &#160;&#160;&#160;&#160;&#160;&#160;&#160;&#160;&#160;&#160;&#160;&#160;&#160;&#160;&#160;&#160;&#160;&#160;&#160;&#160;&#160;&#160;&#160;&#160;&#160;&#160;&#160;&#160;&#160;&#160;&#160;&#160;&#160;&#160;&#160;&#160;&#160;&#160;</text>
<polygon fill="none" stroke="#99ccff" points="933.75,-331.5 933.75,-351 1041,-351 1041,-331.5 933.75,-331.5"/>
<text text-anchor="start" x="950.25" y="-337.55" font-family="Courier,monospace" font-size="11.00">string(255)</text>
<polygon fill="none" stroke="#99ccff" points="239.25,-312 239.25,-331.5 933.75,-331.5 933.75,-312 239.25,-312"/>
<text text-anchor="start" x="242.25" y="-318.05" font-family="Courier,monospace" font-size="11.00"> &#160;&#160;&#160;&#160;&#160;&#160;&#160;&#160;&#160;&#160;&#160;&#160;&#160;&#160;&#160;&#160;&#160;&#160;&#160;&#160;&#160;&#160;&#160;&#160;&#160;&#160;&#160;&#160;&#160;&#160;&#160;&#160;&#160;&#160;&#160;&#160;&#160;&#160;&#160;&#160;LastModifiedById &#160;&#160;&#160;&#160;&#160;&#160;&#160;&#160;&#160;&#160;&#160;&#160;&#160;&#160;&#160;&#160;&#160;&#160;&#160;&#160;&#160;&#160;&#160;&#160;&#160;&#160;&#160;&#160;&#160;&#160;&#160;&#160;&#160;&#160;&#160;&#160;&#160;&#160;</text>
<polygon fill="none" stroke="#99ccff" points="933.75,-312 933.75,-331.5 1041,-331.5 1041,-312 933.75,-312"/>
<text text-anchor="start" x="943.5" y="-318.05" font-family="Courier,monospace" font-size="11.00">reference(18)</text>
<polygon fill="none" stroke="#99ccff" points="239.25,-292.5 239.25,-312 933.75,-312 933.75,-292.5 239.25,-292.5"/>
<text text-anchor="start" x="242.25" y="-298.55" font-family="Courier,monospace" font-size="11.00"> &#160;&#160;&#160;&#160;&#160;&#160;&#160;&#160;&#160;&#160;&#160;&#160;&#160;&#160;&#160;&#160;&#160;&#160;&#160;&#160;&#160;&#160;&#160;&#160;&#160;&#160;&#160;&#160;&#160;&#160;&#160;&#160;&#160;&#160;&#160;&#160;&#160;&#160;&#160;&#160;LastViewedDate &#160;&#160;&#160;&#160;&#160;&#160;&#160;&#160;&#160;&#160;&#160;&#160;&#160;&#160;&#160;&#160;&#160;&#160;&#160;&#160;&#160;&#160;&#160;&#160;&#160;&#160;&#160;&#160;&#160;&#160;&#160;&#160;&#160;&#160;&#160;&#160;&#160;&#160;</text>
<polygon fill="none" stroke="#99ccff" points="933.75,-292.5 933.75,-312 1041,-312 1041,-292.5 933.75,-292.5"/>
<text text-anchor="start" x="960.38" y="-298.55" font-family="Courier,monospace" font-size="11.00">datetime</text>
<polygon fill="none" stroke="#99ccff" points="239.25,-273 239.25,-292.5 933.75,-292.5 933.75,-273 239.25,-273"/>
<text text-anchor="start" x="242.25" y="-279.05" font-family="Courier,monospace" font-size="11.00"> &#160;&#160;&#160;&#160;&#160;&#160;&#160;&#160;&#160;&#160;&#160;&#160;&#160;&#160;&#160;&#160;&#160;&#160;&#160;&#160;&#160;&#160;&#160;&#160;&#160;&#160;&#160;&#160;&#160;&#160;&#160;&#160;&#160;&#160;&#160;&#160;&#160;&#160;&#160;&#160;LastReferencedDate &#160;&#160;&#160;&#160;&#160;&#160;&#160;&#160;&#160;&#160;&#160;&#160;&#160;&#160;&#160;&#160;&#160;&#160;&#160;&#160;&#160;&#160;&#160;&#160;&#160;&#160;&#160;&#160;&#160;&#160;&#160;&#160;&#160;&#160;&#160;&#160;&#160;&#160;</text>
<polygon fill="none" stroke="#99ccff" points="933.75,-273 933.75,-292.5 1041,-292.5 1041,-273 933.75,-273"/>
<text text-anchor="start" x="960.38" y="-279.05" font-family="Courier,monospace" font-size="11.00">datetime</text>
<polygon fill="none" stroke="#99ccff" points="239.25,-253.5 239.25,-273 933.75,-273 933.75,-253.5 239.25,-253.5"/>
<text text-anchor="start" x="242.25" y="-259.55" font-family="Courier,monospace" font-size="11.00"> &#160;&#160;&#160;&#160;&#160;&#160;&#160;&#160;&#160;&#160;&#160;&#160;&#160;&#160;&#160;&#160;&#160;&#160;&#160;&#160;&#160;&#160;&#160;&#160;&#160;&#160;&#160;&#160;&#160;&#160;&#160;&#160;&#160;&#160;&#160;&#160;&#160;&#160;&#160;&#160;UnitOfMeasureId &#160;&#160;&#160;&#160;&#160;&#160;&#160;&#160;&#160;&#160;&#160;&#160;&#160;&#160;&#160;&#160;&#160;&#160;&#160;&#160;&#160;&#160;&#160;&#160;&#160;&#160;&#160;&#160;&#160;&#160;&#160;&#160;&#160;&#160;&#160;&#160;&#160;&#160;</text>
<polygon fill="none" stroke="#99ccff" points="933.75,-253.5 933.75,-273 1041,-273 1041,-253.5 933.75,-253.5"/>
<text text-anchor="start" x="943.5" y="-259.55" font-family="Courier,monospace" font-size="11.00">reference(18)</text>
<polygon fill="none" stroke="#99ccff" points="239.25,-234 239.25,-253.5 933.75,-253.5 933.75,-234 239.25,-234"/>
<text text-anchor="start" x="242.25" y="-240.05" font-family="Courier,monospace" font-size="11.00"> &#160;&#160;&#160;&#160;&#160;&#160;&#160;&#160;&#160;&#160;&#160;&#160;&#160;&#160;&#160;&#160;&#160;&#160;&#160;&#160;&#160;&#160;&#160;&#160;&#160;&#160;&#160;&#160;&#160;&#160;&#160;&#160;&#160;&#160;&#160;&#160;&#160;&#160;&#160;&#160;Label &#160;&#160;&#160;&#160;&#160;&#160;&#160;&#160;&#160;&#160;&#160;&#160;&#160;&#160;&#160;&#160;&#160;&#160;&#160;&#160;&#160;&#160;&#160;&#160;&#160;&#160;&#160;&#160;&#160;&#160;&#160;&#160;&#160;&#160;&#160;&#160;&#160;&#160;</text>
<polygon fill="none" stroke="#99ccff" points="933.75,-234 933.75,-253.5 1041,-253.5 1041,-234 933.75,-234"/>
<text text-anchor="start" x="950.25" y="-240.05" font-family="Courier,monospace" font-size="11.00">string(255)</text>
<polygon fill="none" stroke="#99ccff" points="239.25,-214.5 239.25,-234 933.75,-234 933.75,-214.5 239.25,-214.5"/>
<text text-anchor="start" x="242.25" y="-220.55" font-family="Courier,monospace" font-size="11.00"> &#160;&#160;&#160;&#160;&#160;&#160;&#160;&#160;&#160;&#160;&#160;&#160;&#160;&#160;&#160;&#160;&#160;&#160;&#160;&#160;&#160;&#160;&#160;&#160;&#160;&#160;&#160;&#160;&#160;&#160;&#160;&#160;&#160;&#160;&#160;&#160;&#160;&#160;&#160;&#160;Description &#160;&#160;&#160;&#160;&#160;&#160;&#160;&#160;&#160;&#160;&#160;&#160;&#160;&#160;&#160;&#160;&#160;&#160;&#160;&#160;&#160;&#160;&#160;&#160;&#160;&#160;&#160;&#160;&#160;&#160;&#160;&#160;&#160;&#160;&#160;&#160;&#160;&#160;</text>
<polygon fill="none" stroke="#99ccff" points="933.75,-214.5 933.75,-234 1041,-234 1041,-214.5 933.75,-214.5"/>
<text text-anchor="start" x="936.75" y="-220.55" font-family="Courier,monospace" font-size="11.00">textarea(32000)</text>
<polygon fill="none" stroke="#99ccff" points="239.25,-195 239.25,-214.5 933.75,-214.5 933.75,-195 239.25,-195"/>
<text text-anchor="start" x="242.25" y="-201.05" font-family="Courier,monospace" font-size="11.00"> &#160;&#160;&#160;&#160;&#160;&#160;&#160;&#160;&#160;&#160;&#160;&#160;&#160;&#160;&#160;&#160;&#160;&#160;&#160;&#160;&#160;&#160;&#160;&#160;&#160;&#160;&#160;&#160;&#160;&#160;&#160;&#160;&#160;&#160;&#160;&#160;&#160;&#160;&#160;&#160;DataType &#160;&#160;&#160;&#160;&#160;&#160;&#160;&#160;&#160;&#160;&#160;&#160;&#160;&#160;&#160;&#160;&#160;&#160;&#160;&#160;&#160;&#160;&#160;&#160;&#160;&#160;&#160;&#160;&#160;&#160;&#160;&#160;&#160;&#160;&#160;&#160;&#160;&#160;</text>
<polygon fill="none" stroke="#99ccff" points="933.75,-195 933.75,-214.5 1041,-214.5 1041,-195 933.75,-195"/>
<text text-anchor="start" x="943.5" y="-201.05" font-family="Courier,monospace" font-size="11.00">picklist(255)</text>
<polygon fill="none" stroke="#99ccff" points="239.25,-175.5 239.25,-195 933.75,-195 933.75,-175.5 239.25,-175.5"/>
<text text-anchor="start" x="242.25" y="-181.55" font-family="Courier,monospace" font-size="11.00"> &#160;&#160;&#160;&#160;&#160;&#160;&#160;&#160;&#160;&#160;&#160;&#160;&#160;&#160;&#160;&#160;&#160;&#160;&#160;&#160;&#160;&#160;&#160;&#160;&#160;&#160;&#160;&#160;&#160;&#160;&#160;&#160;&#160;&#160;&#160;&#160;&#160;&#160;&#160;&#160;IsActive &#160;&#160;&#160;&#160;&#160;&#160;&#160;&#160;&#160;&#160;&#160;&#160;&#160;&#160;&#160;&#160;&#160;&#160;&#160;&#160;&#160;&#160;&#160;&#160;&#160;&#160;&#160;&#160;&#160;&#160;&#160;&#160;&#160;&#160;&#160;&#160;&#160;&#160;</text>
<polygon fill="none" stroke="#99ccff" points="933.75,-175.5 933.75,-195 1041,-195 1041,-175.5 933.75,-175.5"/>
<text text-anchor="start" x="963.75" y="-181.55" font-family="Courier,monospace" font-size="11.00">boolean</text>
<polygon fill="none" stroke="#99ccff" points="239.25,-156 239.25,-175.5 933.75,-175.5 933.75,-156 239.25,-156"/>
<text text-anchor="start" x="242.25" y="-162.05" font-family="Courier,monospace" font-size="11.00"> &#160;&#160;&#160;&#160;&#160;&#160;&#160;&#160;&#160;&#160;&#160;&#160;&#160;&#160;&#160;&#160;&#160;&#160;&#160;&#160;&#160;&#160;&#160;&#160;&#160;&#160;&#160;&#160;&#160;&#160;&#160;&#160;&#160;&#160;&#160;&#160;&#160;&#160;&#160;&#160;IsRequired &#160;&#160;&#160;&#160;&#160;&#160;&#160;&#160;&#160;&#160;&#160;&#160;&#160;&#160;&#160;&#160;&#160;&#160;&#160;&#160;&#160;&#160;&#160;&#160;&#160;&#160;&#160;&#160;&#160;&#160;&#160;&#160;&#160;&#160;&#160;&#160;&#160;&#160;</text>
<polygon fill="none" stroke="#99ccff" points="933.75,-156 933.75,-175.5 1041,-175.5 1041,-156 933.75,-156"/>
<text text-anchor="start" x="963.75" y="-162.05" font-family="Courier,monospace" font-size="11.00">boolean</text>
<polygon fill="none" stroke="#99ccff" points="239.25,-136.5 239.25,-156 933.75,-156 933.75,-136.5 239.25,-136.5"/>
<text text-anchor="start" x="242.25" y="-142.55" font-family="Courier,monospace" font-size="11.00"> &#160;&#160;&#160;&#160;&#160;&#160;&#160;&#160;&#160;&#160;&#160;&#160;&#160;&#160;&#160;&#160;&#160;&#160;&#160;&#160;&#160;&#160;&#160;&#160;&#160;&#160;&#160;&#160;&#160;&#160;&#160;&#160;&#160;&#160;&#160;&#160;&#160;&#160;&#160;&#160;DefaultValue &#160;&#160;&#160;&#160;&#160;&#160;&#160;&#160;&#160;&#160;&#160;&#160;&#160;&#160;&#160;&#160;&#160;&#160;&#160;&#160;&#160;&#160;&#160;&#160;&#160;&#160;&#160;&#160;&#160;&#160;&#160;&#160;&#160;&#160;&#160;&#160;&#160;&#160;</text>
<polygon fill="none" stroke="#99ccff" points="933.75,-136.5 933.75,-156 1041,-156 1041,-136.5 933.75,-136.5"/>
<text text-anchor="start" x="950.25" y="-142.55" font-family="Courier,monospace" font-size="11.00">string(255)</text>
<polygon fill="none" stroke="#99ccff" points="239.25,-117 239.25,-136.5 933.75,-136.5 933.75,-117 239.25,-117"/>
<text text-anchor="start" x="242.25" y="-123.05" font-family="Courier,monospace" font-size="11.00"> &#160;&#160;&#160;&#160;&#160;&#160;&#160;&#160;&#160;&#160;&#160;&#160;&#160;&#160;&#160;&#160;&#160;&#160;&#160;&#160;&#160;&#160;&#160;&#160;&#160;&#160;&#160;&#160;&#160;&#160;&#160;&#160;&#160;&#160;&#160;&#160;&#160;&#160;&#160;&#160;SourceSystemIdentifier &#160;&#160;&#160;&#160;&#160;&#160;&#160;&#160;&#160;&#160;&#160;&#160;&#160;&#160;&#160;&#160;&#160;&#160;&#160;&#160;&#160;&#160;&#160;&#160;&#160;&#160;&#160;&#160;&#160;&#160;&#160;&#160;&#160;&#160;&#160;&#160;&#160;&#160;</text>
<polygon fill="none" stroke="#99ccff" points="933.75,-117 933.75,-136.5 1041,-136.5 1041,-117 933.75,-117"/>
<text text-anchor="start" x="950.25" y="-123.05" font-family="Courier,monospace" font-size="11.00">string(255)</text>
<polygon fill="none" stroke="#99ccff" points="239.25,-97.5 239.25,-117 933.75,-117 933.75,-97.5 239.25,-97.5"/>
<text text-anchor="start" x="242.25" y="-103.55" font-family="Courier,monospace" font-size="11.00"> &#160;&#160;&#160;&#160;&#160;&#160;&#160;&#160;&#160;&#160;&#160;&#160;&#160;&#160;&#160;&#160;&#160;&#160;&#160;&#160;&#160;&#160;&#160;&#160;&#160;&#160;&#160;&#160;&#160;&#160;&#160;&#160;&#160;&#160;&#160;&#160;&#160;&#160;&#160;&#160;ValueDescription &#160;&#160;&#160;&#160;&#160;&#160;&#160;&#160;&#160;&#160;&#160;&#160;&#160;&#160;&#160;&#160;&#160;&#160;&#160;&#160;&#160;&#160;&#160;&#160;&#160;&#160;&#160;&#160;&#160;&#160;&#160;&#160;&#160;&#160;&#160;&#160;&#160;&#160;</text>
<polygon fill="none" stroke="#99ccff" points="933.75,-97.5 933.75,-117 1041,-117 1041,-97.5 933.75,-97.5"/>
<text text-anchor="start" x="936.75" y="-103.55" font-family="Courier,monospace" font-size="11.00">textarea(32000)</text>
<polygon fill="none" stroke="#99ccff" points="239.25,-78 239.25,-97.5 933.75,-97.5 933.75,-78 239.25,-78"/>
<text text-anchor="start" x="242.25" y="-84.05" font-family="Courier,monospace" font-size="11.00"> &#160;&#160;&#160;&#160;&#160;&#160;&#160;&#160;&#160;&#160;&#160;&#160;&#160;&#160;&#160;&#160;&#160;&#160;&#160;&#160;&#160;&#160;&#160;&#160;&#160;&#160;&#160;&#160;&#160;&#160;&#160;&#160;&#160;&#160;&#160;&#160;&#160;&#160;&#160;&#160;PicklistId &#160;&#160;&#160;&#160;&#160;&#160;&#160;&#160;&#160;&#160;&#160;&#160;&#160;&#160;&#160;&#160;&#160;&#160;&#160;&#160;&#160;&#160;&#160;&#160;&#160;&#160;&#160;&#160;&#160;&#160;&#160;&#160;&#160;&#160;&#160;&#160;&#160;&#160;</text>
<polygon fill="none" stroke="#99ccff" points="933.75,-78 933.75,-97.5 1041,-97.5 1041,-78 933.75,-78"/>
<text text-anchor="start" x="943.5" y="-84.05" font-family="Courier,monospace" font-size="11.00">reference(18)</text>
<polygon fill="none" stroke="#99ccff" points="239.25,-58.5 239.25,-78 933.75,-78 933.75,-58.5 239.25,-58.5"/>
<text text-anchor="start" x="242.25" y="-64.55" font-family="Courier,monospace" font-size="11.00"> &#160;&#160;&#160;&#160;&#160;&#160;&#160;&#160;&#160;&#160;&#160;&#160;&#160;&#160;&#160;&#160;&#160;&#160;&#160;&#160;&#160;&#160;&#160;&#160;&#160;&#160;&#160;&#160;&#160;&#160;&#160;&#160;&#160;&#160;&#160;&#160;&#160;&#160;&#160;&#160;DefaultHelpText &#160;&#160;&#160;&#160;&#160;&#160;&#160;&#160;&#160;&#160;&#160;&#160;&#160;&#160;&#160;&#160;&#160;&#160;&#160;&#160;&#160;&#160;&#160;&#160;&#160;&#160;&#160;&#160;&#160;&#160;&#160;&#160;&#160;&#160;&#160;&#160;&#160;&#160;</text>
<polygon fill="none" stroke="#99ccff" points="933.75,-58.5 933.75,-78 1041,-78 1041,-58.5 933.75,-58.5"/>
<text text-anchor="start" x="936.75" y="-64.55" font-family="Courier,monospace" font-size="11.00">textarea(32000)</text>
<polygon fill="none" stroke="#99ccff" points="239.25,-39 239.25,-58.5 933.75,-58.5 933.75,-39 239.25,-39"/>
<text text-anchor="start" x="242.25" y="-45.05" font-family="Courier,monospace" font-size="11.00"> &#160;&#160;&#160;&#160;&#160;&#160;&#160;&#160;&#160;&#160;&#160;&#160;&#160;&#160;&#160;&#160;&#160;&#160;&#160;&#160;&#160;&#160;&#160;&#160;&#160;&#160;&#160;&#160;&#160;&#160;&#160;&#160;&#160;&#160;&#160;&#160;&#160;&#160;&#160;&#160;Code &#160;&#160;&#160;&#160;&#160;&#160;&#160;&#160;&#160;&#160;&#160;&#160;&#160;&#160;&#160;&#160;&#160;&#160;&#160;&#160;&#160;&#160;&#160;&#160;&#160;&#160;&#160;&#160;&#160;&#160;&#160;&#160;&#160;&#160;&#160;&#160;&#160;&#160;</text>
<polygon fill="none" stroke="#99ccff" points="933.75,-39 933.75,-58.5 1041,-58.5 1041,-39 933.75,-39"/>
<text text-anchor="start" x="953.62" y="-45.05" font-family="Courier,monospace" font-size="11.00">string(80)</text>
<polygon fill="none" stroke="#99ccff" points="239.25,-19.5 239.25,-39 933.75,-39 933.75,-19.5 239.25,-19.5"/>
<text text-anchor="start" x="242.25" y="-25.55" font-family="Courier,monospace" font-size="11.00"> &#160;&#160;&#160;&#160;&#160;&#160;&#160;&#160;&#160;&#160;&#160;&#160;&#160;&#160;&#160;&#160;&#160;&#160;&#160;&#160;&#160;&#160;&#160;&#160;&#160;&#160;&#160;&#160;&#160;&#160;&#160;&#160;&#160;&#160;&#160;&#160;&#160;&#160;&#160;&#160;DeveloperName &#160;&#160;&#160;&#160;&#160;&#160;&#160;&#160;&#160;&#160;&#160;&#160;&#160;&#160;&#160;&#160;&#160;&#160;&#160;&#160;&#160;&#160;&#160;&#160;&#160;&#160;&#160;&#160;&#160;&#160;&#160;&#160;&#160;&#160;&#160;&#160;&#160;&#160;</text>
<polygon fill="none" stroke="#99ccff" points="933.75,-19.5 933.75,-39 1041,-39 1041,-19.5 933.75,-19.5"/>
<text text-anchor="start" x="953.62" y="-25.55" font-family="Courier,monospace" font-size="11.00">string(80)</text>
<polygon fill="none" stroke="#99ccff" points="238.25,-18.5 238.25,-430 1042,-430 1042,-18.5 238.25,-18.5"/>
</a>
</g>
</g>
<!-- Group -->
<g id="node2" class="node">
<title>Group</title>
<text text-anchor="middle" x="65.38" y="-376.55" font-family="Courier,monospace" font-size="11.00">Group</text>
</g>
<!-- AttributeDefinition&#45;&gt;Group -->
<g id="edge1" class="edge">
<title>AttributeDefinition:w&#45;&gt;Group:e</title>
<path fill="none" stroke="#ff99cc" d="M222.55,-380.25C174.68,-380.25 122.58,-380.25 92.29,-380.25"/>
<polygon fill="#ff99cc" stroke="#ff99cc" points="229.92,-380.25 237.92,-383.85 234.25,-380.25 237.58,-380.25 237.58,-380.25 237.58,-380.25 234.25,-380.25 237.92,-376.65 229.92,-380.25"/>
<ellipse fill="none" stroke="#ff99cc" cx="225" cy="-380.25" rx="3.2" ry="3.2"/>
<text text-anchor="middle" x="184.5" y="-382.95" font-family="Monaco" font-size="9.00">Owner</text>
</g>
<!-- User -->
<g id="node3" class="node">
<title>User</title>
<text text-anchor="middle" x="65.38" y="-323.55" font-family="Courier,monospace" font-size="11.00">User</text>
</g>
<!-- AttributeDefinition&#45;&gt;User -->
<g id="edge2" class="edge">
<title>AttributeDefinition:w&#45;&gt;User:e</title>
<path fill="none" stroke="#ff99cc" d="M228.58,-367.94C227.69,-362.52 226.63,-356.59 221.25,-353 200.57,-339.19 130.66,-331.98 92.23,-328.98"/>
<polygon fill="#ff99cc" stroke="#ff99cc" points="233.1,-373.7 235.21,-382.21 235.78,-377.1 237.84,-379.72 237.84,-379.72 237.84,-379.72 235.78,-377.1 240.87,-377.76 233.1,-373.7"/>
<ellipse fill="none" stroke="#ff99cc" cx="230.06" cy="-369.83" rx="3.2" ry="3.2"/>
<text text-anchor="middle" x="184.5" y="-355.7" font-family="Monaco" font-size="9.00">Owner</text>
</g>
<!-- AttributeDefinition&#45;&gt;User -->
<g id="edge3" class="edge">
<title>AttributeDefinition:w&#45;&gt;User:e</title>
<path fill="none" stroke="#ff99cc" d="M222.6,-321.04C222.17,-321.02 221.72,-321.01 221.25,-321 188.59,-320.28 180.39,-319.75 147.75,-321 129.2,-321.71 108.33,-323.33 92.37,-324.74"/>
<polygon fill="#ff99cc" stroke="#ff99cc" points="229.92,-321.37 237.75,-325.33 234.25,-321.57 237.58,-321.72 237.58,-321.72 237.58,-321.72 234.25,-321.57 238.08,-318.14 229.92,-321.37"/>
<ellipse fill="none" stroke="#ff99cc" cx="225.01" cy="-321.15" rx="3.2" ry="3.2"/>
<text text-anchor="middle" x="184.5" y="-323.7" font-family="Monaco" font-size="9.00">LastModifiedBy</text>
</g>
<!-- UnitOfMeasure -->
<g id="node4" class="node">
<title>UnitOfMeasure</title>
<text text-anchor="middle" x="65.38" y="-259.55" font-family="Courier,monospace" font-size="11.00">UnitOfMeasure</text>
</g>
<!-- AttributeDefinition&#45;&gt;UnitOfMeasure -->
<g id="edge4" class="edge">
<title>AttributeDefinition:w&#45;&gt;UnitOfMeasure:e</title>
<path fill="none" stroke="#ff99cc" d="M222.76,-263.25C186.17,-263.25 147.08,-263.25 117.14,-263.25"/>
<polygon fill="#ff99cc" stroke="#ff99cc" points="229.92,-263.25 237.92,-266.85 234.25,-263.25 237.58,-263.25 237.58,-263.25 237.58,-263.25 234.25,-263.25 237.92,-259.65 229.92,-263.25"/>
<ellipse fill="none" stroke="#ff99cc" cx="225" cy="-263.25" rx="3.2" ry="3.2"/>
<text text-anchor="middle" x="184.5" y="-265.95" font-family="Monaco" font-size="9.00">UnitOfMeasure</text>
</g>
<!-- AttributePicklist -->
<g id="node5" class="node">
<title>AttributePicklist</title>
<text text-anchor="middle" x="65.38" y="-84.55" font-family="Courier,monospace" font-size="11.00">AttributePicklist</text>
</g>
<!-- AttributeDefinition&#45;&gt;AttributePicklist -->
<g id="edge5" class="edge">
<title>AttributeDefinition:w&#45;&gt;AttributePicklist:e</title>
<path fill="none" stroke="#ff99cc" d="M222.56,-87.76C191.24,-87.78 158.1,-87.88 130.45,-87.98"/>
<polygon fill="#ff99cc" stroke="#ff99cc" points="229.92,-87.75 237.92,-91.35 234.25,-87.75 237.58,-87.75 237.58,-87.75 237.58,-87.75 234.25,-87.75 237.91,-84.15 229.92,-87.75"/>
<ellipse fill="none" stroke="#ff99cc" cx="225" cy="-87.76" rx="3.2" ry="3.2"/>
<text text-anchor="middle" x="184.5" y="-90.61" font-family="Monaco" font-size="9.00">Picklist</text>
</g>
</g>
</svg>
