<?xml version="1.0" encoding="UTF-8" standalone="no"?>
<!DOCTYPE svg PUBLIC "-//W3C//DTD SVG 1.1//EN"
 "http://www.w3.org/Graphics/SVG/1.1/DTD/svg11.dtd">
<!-- Generated by graphviz version 12.2.1 (20241206.2353)
 -->
<!-- Title: Salesforce+ ERD Pages: 1 -->
<svg width="1070pt" height="254pt"
 viewBox="0.00 0.00 1069.50 254.00" xmlns="http://www.w3.org/2000/svg" xmlns:xlink="http://www.w3.org/1999/xlink">
<g id="graph0" class="graph" transform="scale(1 1) rotate(0) translate(4 250)">
<title>Salesforce+ ERD</title>
<polygon fill="#efeffd" stroke="none" points="-4,4 -4,-250 1065.5,-250 1065.5,4 -4,4"/>
<text text-anchor="middle" x="1014.12" y="-5.95" font-family="Courier,monospace" font-size="9.00">Salesforce ERD </text>
<!-- AttributeCategoryAttribute -->
<g id="node1" class="node">
<title>AttributeCategoryAttribute</title>
<g id="a_node1"><a xlink:href="#" xlink:title=" AttributeCategoryAttribute ">
<polygon fill="#ffeeff" stroke="none" points="278,-49 278,-246 1061.5,-246 1061.5,-49 278,-49"/>
<polygon fill="lightblue" stroke="none" points="279,-225.5 279,-245 1060.5,-245 1060.5,-225.5 279,-225.5"/>
<polygon fill="none" stroke="#99ccff" points="279,-225.5 279,-245 1060.5,-245 1060.5,-225.5 279,-225.5"/>
<text text-anchor="start" x="582" y="-232.55" font-family="Courier,monospace" font-weight="bold" font-size="11.00">AttributeCategoryAttribute</text>
<polygon fill="#99ccff" stroke="none" points="279,-206 279,-225.5 966.75,-225.5 966.75,-206 279,-206"/>
<polygon fill="none" stroke="#99ccff" points="279,-206 279,-225.5 966.75,-225.5 966.75,-206 279,-206"/>
<text text-anchor="start" x="282" y="-213.05" font-family="Courier,monospace" font-size="11.00"> &#160;&#160;&#160;&#160;&#160;&#160;&#160;&#160;&#160;&#160;&#160;&#160;&#160;&#160;&#160;&#160;&#160;&#160;&#160;&#160;&#160;&#160;&#160;&#160;&#160;&#160;&#160;&#160;&#160;&#160;&#160;&#160;&#160;&#160;&#160;&#160;&#160;&#160;&#160;&#160;&#160;&#160;</text>
<text text-anchor="start" x="572.25" y="-213.05" font-family="Courier,monospace" font-weight="bold" font-size="11.00">Id</text>
<text text-anchor="start" x="585.75" y="-213.05" font-family="Courier,monospace" font-size="11.00"> &#160;&#160;&#160;&#160;&#160;&#160;&#160;&#160;&#160;&#160;&#160;&#160;&#160;&#160;&#160;&#160;&#160;&#160;&#160;&#160;&#160;&#160;&#160;&#160;&#160;&#160;&#160;&#160;&#160;&#160;&#160;&#160;&#160;&#160;&#160;&#160;&#160;&#160;&#160;</text>
<polygon fill="none" stroke="#99ccff" points="966.75,-206 966.75,-225.5 1060.5,-225.5 1060.5,-206 966.75,-206"/>
<text text-anchor="start" x="993.38" y="-212.05" font-family="Courier,monospace" font-size="11.00">id(18)</text>
<polygon fill="none" stroke="#99ccff" points="279,-186.5 279,-206 966.75,-206 966.75,-186.5 279,-186.5"/>
<text text-anchor="start" x="282" y="-192.55" font-family="Courier,monospace" font-size="11.00"> &#160;&#160;&#160;&#160;&#160;&#160;&#160;&#160;&#160;&#160;&#160;&#160;&#160;&#160;&#160;&#160;&#160;&#160;&#160;&#160;&#160;&#160;&#160;&#160;&#160;&#160;&#160;&#160;&#160;&#160;&#160;&#160;&#160;&#160;&#160;&#160;&#160;&#160;&#160;&#160;OwnerId &#160;&#160;&#160;&#160;&#160;&#160;&#160;&#160;&#160;&#160;&#160;&#160;&#160;&#160;&#160;&#160;&#160;&#160;&#160;&#160;&#160;&#160;&#160;&#160;&#160;&#160;&#160;&#160;&#160;&#160;&#160;&#160;&#160;&#160;&#160;&#160;&#160;&#160;</text>
<polygon fill="none" stroke="#99ccff" points="966.75,-186.5 966.75,-206 1060.5,-206 1060.5,-186.5 966.75,-186.5"/>
<text text-anchor="start" x="969.75" y="-192.55" font-family="Courier,monospace" font-size="11.00">reference(18)</text>
<polygon fill="none" stroke="#99ccff" points="279,-167 279,-186.5 966.75,-186.5 966.75,-167 279,-167"/>
<text text-anchor="start" x="282" y="-173.05" font-family="Courier,monospace" font-size="11.00"> &#160;&#160;&#160;&#160;&#160;&#160;&#160;&#160;&#160;&#160;&#160;&#160;&#160;&#160;&#160;&#160;&#160;&#160;&#160;&#160;&#160;&#160;&#160;&#160;&#160;&#160;&#160;&#160;&#160;&#160;&#160;&#160;&#160;&#160;&#160;&#160;&#160;&#160;&#160;&#160;IsDeleted &#160;&#160;&#160;&#160;&#160;&#160;&#160;&#160;&#160;&#160;&#160;&#160;&#160;&#160;&#160;&#160;&#160;&#160;&#160;&#160;&#160;&#160;&#160;&#160;&#160;&#160;&#160;&#160;&#160;&#160;&#160;&#160;&#160;&#160;&#160;&#160;&#160;&#160;</text>
<polygon fill="none" stroke="#99ccff" points="966.75,-167 966.75,-186.5 1060.5,-186.5 1060.5,-167 966.75,-167"/>
<text text-anchor="start" x="990" y="-173.05" font-family="Courier,monospace" font-size="11.00">boolean</text>
<polygon fill="none" stroke="#99ccff" points="279,-147.5 279,-167 966.75,-167 966.75,-147.5 279,-147.5"/>
<text text-anchor="start" x="282" y="-153.55" font-family="Courier,monospace" font-size="11.00"> &#160;&#160;&#160;&#160;&#160;&#160;&#160;&#160;&#160;&#160;&#160;&#160;&#160;&#160;&#160;&#160;&#160;&#160;&#160;&#160;&#160;&#160;&#160;&#160;&#160;&#160;&#160;&#160;&#160;&#160;&#160;&#160;&#160;&#160;&#160;&#160;&#160;&#160;&#160;&#160;Name &#160;&#160;&#160;&#160;&#160;&#160;&#160;&#160;&#160;&#160;&#160;&#160;&#160;&#160;&#160;&#160;&#160;&#160;&#160;&#160;&#160;&#160;&#160;&#160;&#160;&#160;&#160;&#160;&#160;&#160;&#160;&#160;&#160;&#160;&#160;&#160;&#160;&#160;</text>
<polygon fill="none" stroke="#99ccff" points="966.75,-147.5 966.75,-167 1060.5,-167 1060.5,-147.5 966.75,-147.5"/>
<text text-anchor="start" x="976.5" y="-153.55" font-family="Courier,monospace" font-size="11.00">string(255)</text>
<polygon fill="none" stroke="#99ccff" points="279,-128 279,-147.5 966.75,-147.5 966.75,-128 279,-128"/>
<text text-anchor="start" x="282" y="-134.05" font-family="Courier,monospace" font-size="11.00"> &#160;&#160;&#160;&#160;&#160;&#160;&#160;&#160;&#160;&#160;&#160;&#160;&#160;&#160;&#160;&#160;&#160;&#160;&#160;&#160;&#160;&#160;&#160;&#160;&#160;&#160;&#160;&#160;&#160;&#160;&#160;&#160;&#160;&#160;&#160;&#160;&#160;&#160;&#160;&#160;LastModifiedById &#160;&#160;&#160;&#160;&#160;&#160;&#160;&#160;&#160;&#160;&#160;&#160;&#160;&#160;&#160;&#160;&#160;&#160;&#160;&#160;&#160;&#160;&#160;&#160;&#160;&#160;&#160;&#160;&#160;&#160;&#160;&#160;&#160;&#160;&#160;&#160;&#160;&#160;</text>
<polygon fill="none" stroke="#99ccff" points="966.75,-128 966.75,-147.5 1060.5,-147.5 1060.5,-128 966.75,-128"/>
<text text-anchor="start" x="969.75" y="-134.05" font-family="Courier,monospace" font-size="11.00">reference(18)</text>
<polygon fill="none" stroke="#99ccff" points="279,-108.5 279,-128 966.75,-128 966.75,-108.5 279,-108.5"/>
<text text-anchor="start" x="282" y="-114.55" font-family="Courier,monospace" font-size="11.00"> &#160;&#160;&#160;&#160;&#160;&#160;&#160;&#160;&#160;&#160;&#160;&#160;&#160;&#160;&#160;&#160;&#160;&#160;&#160;&#160;&#160;&#160;&#160;&#160;&#160;&#160;&#160;&#160;&#160;&#160;&#160;&#160;&#160;&#160;&#160;&#160;&#160;&#160;&#160;&#160;LastViewedDate &#160;&#160;&#160;&#160;&#160;&#160;&#160;&#160;&#160;&#160;&#160;&#160;&#160;&#160;&#160;&#160;&#160;&#160;&#160;&#160;&#160;&#160;&#160;&#160;&#160;&#160;&#160;&#160;&#160;&#160;&#160;&#160;&#160;&#160;&#160;&#160;&#160;&#160;</text>
<polygon fill="none" stroke="#99ccff" points="966.75,-108.5 966.75,-128 1060.5,-128 1060.5,-108.5 966.75,-108.5"/>
<text text-anchor="start" x="986.62" y="-114.55" font-family="Courier,monospace" font-size="11.00">datetime</text>
<polygon fill="none" stroke="#99ccff" points="279,-89 279,-108.5 966.75,-108.5 966.75,-89 279,-89"/>
<text text-anchor="start" x="282" y="-95.05" font-family="Courier,monospace" font-size="11.00"> &#160;&#160;&#160;&#160;&#160;&#160;&#160;&#160;&#160;&#160;&#160;&#160;&#160;&#160;&#160;&#160;&#160;&#160;&#160;&#160;&#160;&#160;&#160;&#160;&#160;&#160;&#160;&#160;&#160;&#160;&#160;&#160;&#160;&#160;&#160;&#160;&#160;&#160;&#160;&#160;LastReferencedDate &#160;&#160;&#160;&#160;&#160;&#160;&#160;&#160;&#160;&#160;&#160;&#160;&#160;&#160;&#160;&#160;&#160;&#160;&#160;&#160;&#160;&#160;&#160;&#160;&#160;&#160;&#160;&#160;&#160;&#160;&#160;&#160;&#160;&#160;&#160;&#160;&#160;&#160;</text>
<polygon fill="none" stroke="#99ccff" points="966.75,-89 966.75,-108.5 1060.5,-108.5 1060.5,-89 966.75,-89"/>
<text text-anchor="start" x="986.62" y="-95.05" font-family="Courier,monospace" font-size="11.00">datetime</text>
<polygon fill="none" stroke="#99ccff" points="279,-69.5 279,-89 966.75,-89 966.75,-69.5 279,-69.5"/>
<text text-anchor="start" x="282" y="-75.55" font-family="Courier,monospace" font-size="11.00"> &#160;&#160;&#160;&#160;&#160;&#160;&#160;&#160;&#160;&#160;&#160;&#160;&#160;&#160;&#160;&#160;&#160;&#160;&#160;&#160;&#160;&#160;&#160;&#160;&#160;&#160;&#160;&#160;&#160;&#160;&#160;&#160;&#160;&#160;&#160;&#160;&#160;&#160;&#160;&#160;AttributeCategoryId &#160;&#160;&#160;&#160;&#160;&#160;&#160;&#160;&#160;&#160;&#160;&#160;&#160;&#160;&#160;&#160;&#160;&#160;&#160;&#160;&#160;&#160;&#160;&#160;&#160;&#160;&#160;&#160;&#160;&#160;&#160;&#160;&#160;&#160;&#160;&#160;&#160;&#160;</text>
<polygon fill="none" stroke="#99ccff" points="966.75,-69.5 966.75,-89 1060.5,-89 1060.5,-69.5 966.75,-69.5"/>
<text text-anchor="start" x="969.75" y="-75.55" font-family="Courier,monospace" font-size="11.00">reference(18)</text>
<polygon fill="none" stroke="#99ccff" points="279,-50 279,-69.5 966.75,-69.5 966.75,-50 279,-50"/>
<text text-anchor="start" x="282" y="-56.05" font-family="Courier,monospace" font-size="11.00"> &#160;&#160;&#160;&#160;&#160;&#160;&#160;&#160;&#160;&#160;&#160;&#160;&#160;&#160;&#160;&#160;&#160;&#160;&#160;&#160;&#160;&#160;&#160;&#160;&#160;&#160;&#160;&#160;&#160;&#160;&#160;&#160;&#160;&#160;&#160;&#160;&#160;&#160;&#160;&#160;AttributeDefinitionId &#160;&#160;&#160;&#160;&#160;&#160;&#160;&#160;&#160;&#160;&#160;&#160;&#160;&#160;&#160;&#160;&#160;&#160;&#160;&#160;&#160;&#160;&#160;&#160;&#160;&#160;&#160;&#160;&#160;&#160;&#160;&#160;&#160;&#160;&#160;&#160;&#160;&#160;</text>
<polygon fill="none" stroke="#99ccff" points="966.75,-50 966.75,-69.5 1060.5,-69.5 1060.5,-50 966.75,-50"/>
<text text-anchor="start" x="969.75" y="-56.05" font-family="Courier,monospace" font-size="11.00">reference(18)</text>
<polygon fill="none" stroke="#99ccff" points="278,-49 278,-246 1061.5,-246 1061.5,-49 278,-49"/>
</a>
</g>
</g>
<!-- Group -->
<g id="node2" class="node">
<title>Group</title>
<text text-anchor="middle" x="72.12" y="-192.8" font-family="Courier,monospace" font-size="11.00">Group</text>
</g>
<!-- AttributeCategoryAttribute&#45;&gt;Group -->
<g id="edge1" class="edge">
<title>AttributeCategoryAttribute:w&#45;&gt;Group:e</title>
<path fill="none" stroke="#ff99cc" d="M262.34,-196.25C201.72,-196.27 134.75,-196.38 99,-196.45"/>
<polygon fill="#ff99cc" stroke="#ff99cc" points="269.67,-196.25 277.67,-199.85 274,-196.25 277.33,-196.25 277.33,-196.25 277.33,-196.25 274,-196.25 277.66,-192.65 269.67,-196.25"/>
<ellipse fill="none" stroke="#ff99cc" cx="264.75" cy="-196.25" rx="3.2" ry="3.2"/>
<text text-anchor="middle" x="211.12" y="-199.05" font-family="Monaco" font-size="9.00">Owner</text>
</g>
<!-- User -->
<g id="node3" class="node">
<title>User</title>
<text text-anchor="middle" x="72.12" y="-139.8" font-family="Courier,monospace" font-size="11.00">User</text>
</g>
<!-- AttributeCategoryAttribute&#45;&gt;User -->
<g id="edge2" class="edge">
<title>AttributeCategoryAttribute:w&#45;&gt;User:e</title>
<path fill="none" stroke="#ff99cc" d="M268.33,-183.7C267.45,-178.4 266.31,-172.67 261,-169.25 247.61,-160.62 147.13,-150.33 98.86,-145.81"/>
<polygon fill="#ff99cc" stroke="#ff99cc" points="272.91,-189.65 274.94,-198.18 275.56,-193.08 277.59,-195.72 277.59,-195.72 277.59,-195.72 275.56,-193.08 280.65,-193.79 272.91,-189.65"/>
<ellipse fill="none" stroke="#ff99cc" cx="269.91" cy="-185.75" rx="3.2" ry="3.2"/>
<text text-anchor="middle" x="211.12" y="-171.95" font-family="Monaco" font-size="9.00">Owner</text>
</g>
<!-- AttributeCategoryAttribute&#45;&gt;User -->
<g id="edge3" class="edge">
<title>AttributeCategoryAttribute:w&#45;&gt;User:e</title>
<path fill="none" stroke="#ff99cc" d="M262.27,-137.71C222.8,-137.53 207.44,-136.78 161.25,-138.25 140.26,-138.92 116.5,-140.38 98.94,-141.59"/>
<polygon fill="#ff99cc" stroke="#ff99cc" points="269.67,-137.73 277.66,-141.35 274,-137.74 277.33,-137.75 277.33,-137.75 277.33,-137.75 274,-137.74 277.67,-134.15 269.67,-137.73"/>
<ellipse fill="none" stroke="#ff99cc" cx="264.75" cy="-137.72" rx="3.2" ry="3.2"/>
<text text-anchor="middle" x="211.12" y="-140.95" font-family="Monaco" font-size="9.00">LastModifiedBy</text>
</g>
<!-- AttributeCategory -->
<g id="node4" class="node">
<title>AttributeCategory</title>
<text text-anchor="middle" x="72.12" y="-81.8" font-family="Courier,monospace" font-size="11.00">AttributeCategory</text>
</g>
<!-- AttributeCategoryAttribute&#45;&gt;AttributeCategory -->
<g id="edge4" class="edge">
<title>AttributeCategoryAttribute:w&#45;&gt;AttributeCategory:e</title>
<path fill="none" stroke="#ff99cc" d="M262.34,-79.31C219.36,-79.62 173.21,-81.1 137.24,-82.54"/>
<polygon fill="#ff99cc" stroke="#ff99cc" points="269.67,-79.28 277.68,-82.85 274,-79.26 277.33,-79.25 277.33,-79.25 277.33,-79.25 274,-79.26 277.65,-75.65 269.67,-79.28"/>
<ellipse fill="none" stroke="#ff99cc" cx="264.75" cy="-79.3" rx="3.2" ry="3.2"/>
<text text-anchor="middle" x="211.12" y="-84.33" font-family="Monaco" font-size="9.00">AttributeCategory</text>
</g>
<!-- AttributeDefinition -->
<g id="node5" class="node">
<title>AttributeDefinition</title>
<text text-anchor="middle" x="72.12" y="-32.8" font-family="Courier,monospace" font-size="11.00">AttributeDefinition</text>
</g>
<!-- AttributeCategoryAttribute&#45;&gt;AttributeDefinition -->
<g id="edge5" class="edge">
<title>AttributeCategoryAttribute:w&#45;&gt;AttributeDefinition:e</title>
<path fill="none" stroke="#ff99cc" d="M262.35,-59.54C221.89,-58.47 178.83,-53.55 144.01,-48.53"/>
<polygon fill="#ff99cc" stroke="#ff99cc" points="269.67,-59.64 277.62,-63.35 274,-59.7 277.33,-59.74 277.33,-59.74 277.33,-59.74 274,-59.7 277.71,-56.15 269.67,-59.64"/>
<ellipse fill="none" stroke="#ff99cc" cx="264.75" cy="-59.57" rx="3.2" ry="3.2"/>
<text text-anchor="middle" x="211.12" y="-62.03" font-family="Monaco" font-size="9.00">AttributeDefinition</text>
</g>
</g>
</svg>
