<?xml version="1.0" encoding="UTF-8" standalone="no"?>
<!DOCTYPE svg PUBLIC "-//W3C//DTD SVG 1.1//EN"
 "http://www.w3.org/Graphics/SVG/1.1/DTD/svg11.dtd">
<!-- Generated by graphviz version 12.2.1 (20241206.2353)
 -->
<!-- Title: Salesforce+ ERD Pages: 1 -->
<svg width="973pt" height="204pt"
 viewBox="0.00 0.00 973.25 204.00" xmlns="http://www.w3.org/2000/svg" xmlns:xlink="http://www.w3.org/1999/xlink">
<g id="graph0" class="graph" transform="scale(1 1) rotate(0) translate(4 200)">
<title>Salesforce+ ERD</title>
<polygon fill="#efeffd" stroke="none" points="-4,4 -4,-200 969.25,-200 969.25,4 -4,4"/>
<text text-anchor="middle" x="917.88" y="-5.95" font-family="Courier,monospace" font-size="9.00">Salesforce ERD </text>
<!-- ProductRelationshipType -->
<g id="node1" class="node">
<title>ProductRelationshipType</title>
<g id="a_node1"><a xlink:href="#" xlink:title=" ProductRelationshipType ">
<polygon fill="#ffeeff" stroke="none" points="161.5,-18.5 161.5,-196 965.25,-196 965.25,-18.5 161.5,-18.5"/>
<polygon fill="lightblue" stroke="none" points="162.5,-175.5 162.5,-195 964.25,-195 964.25,-175.5 162.5,-175.5"/>
<polygon fill="none" stroke="#99ccff" points="162.5,-175.5 162.5,-195 964.25,-195 964.25,-175.5 162.5,-175.5"/>
<text text-anchor="start" x="485.75" y="-182.55" font-family="Courier,monospace" font-weight="bold" font-size="11.00">ProductRelationshipType</text>
<polygon fill="#99ccff" stroke="none" points="162.5,-156 162.5,-175.5 870.5,-175.5 870.5,-156 162.5,-156"/>
<polygon fill="none" stroke="#99ccff" points="162.5,-156 162.5,-175.5 870.5,-175.5 870.5,-156 162.5,-156"/>
<text text-anchor="start" x="165.5" y="-163.05" font-family="Courier,monospace" font-size="11.00"> &#160;&#160;&#160;&#160;&#160;&#160;&#160;&#160;&#160;&#160;&#160;&#160;&#160;&#160;&#160;&#160;&#160;&#160;&#160;&#160;&#160;&#160;&#160;&#160;&#160;&#160;&#160;&#160;&#160;&#160;&#160;&#160;&#160;&#160;&#160;&#160;&#160;&#160;&#160;&#160;&#160;&#160;</text>
<text text-anchor="start" x="455.75" y="-163.05" font-family="Courier,monospace" font-weight="bold" font-size="11.00">Id</text>
<text text-anchor="start" x="469.25" y="-163.05" font-family="Courier,monospace" font-size="11.00"> &#160;&#160;&#160;&#160;&#160;&#160;&#160;&#160;&#160;&#160;&#160;&#160;&#160;&#160;&#160;&#160;&#160;&#160;&#160;&#160;&#160;&#160;&#160;&#160;&#160;&#160;&#160;&#160;&#160;&#160;&#160;&#160;&#160;&#160;&#160;&#160;&#160;&#160;&#160;</text>
<polygon fill="none" stroke="#99ccff" points="870.5,-156 870.5,-175.5 964.25,-175.5 964.25,-156 870.5,-156"/>
<text text-anchor="start" x="897.12" y="-162.05" font-family="Courier,monospace" font-size="11.00">id(18)</text>
<polygon fill="none" stroke="#99ccff" points="162.5,-136.5 162.5,-156 870.5,-156 870.5,-136.5 162.5,-136.5"/>
<text text-anchor="start" x="165.5" y="-142.55" font-family="Courier,monospace" font-size="11.00"> &#160;&#160;&#160;&#160;&#160;&#160;&#160;&#160;&#160;&#160;&#160;&#160;&#160;&#160;&#160;&#160;&#160;&#160;&#160;&#160;&#160;&#160;&#160;&#160;&#160;&#160;&#160;&#160;&#160;&#160;&#160;&#160;&#160;&#160;&#160;&#160;&#160;&#160;&#160;&#160;IsDeleted &#160;&#160;&#160;&#160;&#160;&#160;&#160;&#160;&#160;&#160;&#160;&#160;&#160;&#160;&#160;&#160;&#160;&#160;&#160;&#160;&#160;&#160;&#160;&#160;&#160;&#160;&#160;&#160;&#160;&#160;&#160;&#160;&#160;&#160;&#160;&#160;&#160;&#160;</text>
<polygon fill="none" stroke="#99ccff" points="870.5,-136.5 870.5,-156 964.25,-156 964.25,-136.5 870.5,-136.5"/>
<text text-anchor="start" x="893.75" y="-142.55" font-family="Courier,monospace" font-size="11.00">boolean</text>
<polygon fill="none" stroke="#99ccff" points="162.5,-117 162.5,-136.5 870.5,-136.5 870.5,-117 162.5,-117"/>
<text text-anchor="start" x="165.5" y="-123.05" font-family="Courier,monospace" font-size="11.00"> &#160;&#160;&#160;&#160;&#160;&#160;&#160;&#160;&#160;&#160;&#160;&#160;&#160;&#160;&#160;&#160;&#160;&#160;&#160;&#160;&#160;&#160;&#160;&#160;&#160;&#160;&#160;&#160;&#160;&#160;&#160;&#160;&#160;&#160;&#160;&#160;&#160;&#160;&#160;&#160;Name &#160;&#160;&#160;&#160;&#160;&#160;&#160;&#160;&#160;&#160;&#160;&#160;&#160;&#160;&#160;&#160;&#160;&#160;&#160;&#160;&#160;&#160;&#160;&#160;&#160;&#160;&#160;&#160;&#160;&#160;&#160;&#160;&#160;&#160;&#160;&#160;&#160;&#160;</text>
<polygon fill="none" stroke="#99ccff" points="870.5,-117 870.5,-136.5 964.25,-136.5 964.25,-117 870.5,-117"/>
<text text-anchor="start" x="880.25" y="-123.05" font-family="Courier,monospace" font-size="11.00">string(255)</text>
<polygon fill="none" stroke="#99ccff" points="162.5,-97.5 162.5,-117 870.5,-117 870.5,-97.5 162.5,-97.5"/>
<text text-anchor="start" x="165.5" y="-103.55" font-family="Courier,monospace" font-size="11.00"> &#160;&#160;&#160;&#160;&#160;&#160;&#160;&#160;&#160;&#160;&#160;&#160;&#160;&#160;&#160;&#160;&#160;&#160;&#160;&#160;&#160;&#160;&#160;&#160;&#160;&#160;&#160;&#160;&#160;&#160;&#160;&#160;&#160;&#160;&#160;&#160;&#160;&#160;&#160;&#160;LastModifiedById &#160;&#160;&#160;&#160;&#160;&#160;&#160;&#160;&#160;&#160;&#160;&#160;&#160;&#160;&#160;&#160;&#160;&#160;&#160;&#160;&#160;&#160;&#160;&#160;&#160;&#160;&#160;&#160;&#160;&#160;&#160;&#160;&#160;&#160;&#160;&#160;&#160;&#160;</text>
<polygon fill="none" stroke="#99ccff" points="870.5,-97.5 870.5,-117 964.25,-117 964.25,-97.5 870.5,-97.5"/>
<text text-anchor="start" x="873.5" y="-103.55" font-family="Courier,monospace" font-size="11.00">reference(18)</text>
<polygon fill="none" stroke="#99ccff" points="162.5,-78 162.5,-97.5 870.5,-97.5 870.5,-78 162.5,-78"/>
<text text-anchor="start" x="165.5" y="-84.05" font-family="Courier,monospace" font-size="11.00"> &#160;&#160;&#160;&#160;&#160;&#160;&#160;&#160;&#160;&#160;&#160;&#160;&#160;&#160;&#160;&#160;&#160;&#160;&#160;&#160;&#160;&#160;&#160;&#160;&#160;&#160;&#160;&#160;&#160;&#160;&#160;&#160;&#160;&#160;&#160;&#160;&#160;&#160;&#160;&#160;LastViewedDate &#160;&#160;&#160;&#160;&#160;&#160;&#160;&#160;&#160;&#160;&#160;&#160;&#160;&#160;&#160;&#160;&#160;&#160;&#160;&#160;&#160;&#160;&#160;&#160;&#160;&#160;&#160;&#160;&#160;&#160;&#160;&#160;&#160;&#160;&#160;&#160;&#160;&#160;</text>
<polygon fill="none" stroke="#99ccff" points="870.5,-78 870.5,-97.5 964.25,-97.5 964.25,-78 870.5,-78"/>
<text text-anchor="start" x="890.38" y="-84.05" font-family="Courier,monospace" font-size="11.00">datetime</text>
<polygon fill="none" stroke="#99ccff" points="162.5,-58.5 162.5,-78 870.5,-78 870.5,-58.5 162.5,-58.5"/>
<text text-anchor="start" x="165.5" y="-64.55" font-family="Courier,monospace" font-size="11.00"> &#160;&#160;&#160;&#160;&#160;&#160;&#160;&#160;&#160;&#160;&#160;&#160;&#160;&#160;&#160;&#160;&#160;&#160;&#160;&#160;&#160;&#160;&#160;&#160;&#160;&#160;&#160;&#160;&#160;&#160;&#160;&#160;&#160;&#160;&#160;&#160;&#160;&#160;&#160;&#160;LastReferencedDate &#160;&#160;&#160;&#160;&#160;&#160;&#160;&#160;&#160;&#160;&#160;&#160;&#160;&#160;&#160;&#160;&#160;&#160;&#160;&#160;&#160;&#160;&#160;&#160;&#160;&#160;&#160;&#160;&#160;&#160;&#160;&#160;&#160;&#160;&#160;&#160;&#160;&#160;</text>
<polygon fill="none" stroke="#99ccff" points="870.5,-58.5 870.5,-78 964.25,-78 964.25,-58.5 870.5,-58.5"/>
<text text-anchor="start" x="890.38" y="-64.55" font-family="Courier,monospace" font-size="11.00">datetime</text>
<polygon fill="none" stroke="#99ccff" points="162.5,-39 162.5,-58.5 870.5,-58.5 870.5,-39 162.5,-39"/>
<text text-anchor="start" x="165.5" y="-45.05" font-family="Courier,monospace" font-size="11.00"> &#160;&#160;&#160;&#160;&#160;&#160;&#160;&#160;&#160;&#160;&#160;&#160;&#160;&#160;&#160;&#160;&#160;&#160;&#160;&#160;&#160;&#160;&#160;&#160;&#160;&#160;&#160;&#160;&#160;&#160;&#160;&#160;&#160;&#160;&#160;&#160;&#160;&#160;&#160;&#160;MainProductRoleCat &#160;&#160;&#160;&#160;&#160;&#160;&#160;&#160;&#160;&#160;&#160;&#160;&#160;&#160;&#160;&#160;&#160;&#160;&#160;&#160;&#160;&#160;&#160;&#160;&#160;&#160;&#160;&#160;&#160;&#160;&#160;&#160;&#160;&#160;&#160;&#160;&#160;&#160;</text>
<polygon fill="none" stroke="#99ccff" points="870.5,-39 870.5,-58.5 964.25,-58.5 964.25,-39 870.5,-39"/>
<text text-anchor="start" x="873.5" y="-45.05" font-family="Courier,monospace" font-size="11.00">picklist(255)</text>
<polygon fill="none" stroke="#99ccff" points="162.5,-19.5 162.5,-39 870.5,-39 870.5,-19.5 162.5,-19.5"/>
<text text-anchor="start" x="165.5" y="-25.55" font-family="Courier,monospace" font-size="11.00"> &#160;&#160;&#160;&#160;&#160;&#160;&#160;&#160;&#160;&#160;&#160;&#160;&#160;&#160;&#160;&#160;&#160;&#160;&#160;&#160;&#160;&#160;&#160;&#160;&#160;&#160;&#160;&#160;&#160;&#160;&#160;&#160;&#160;&#160;&#160;&#160;&#160;&#160;&#160;&#160;AssociatedProductRoleCat &#160;&#160;&#160;&#160;&#160;&#160;&#160;&#160;&#160;&#160;&#160;&#160;&#160;&#160;&#160;&#160;&#160;&#160;&#160;&#160;&#160;&#160;&#160;&#160;&#160;&#160;&#160;&#160;&#160;&#160;&#160;&#160;&#160;&#160;&#160;&#160;&#160;&#160;</text>
<polygon fill="none" stroke="#99ccff" points="870.5,-19.5 870.5,-39 964.25,-39 964.25,-19.5 870.5,-19.5"/>
<text text-anchor="start" x="873.5" y="-25.55" font-family="Courier,monospace" font-size="11.00">picklist(255)</text>
<polygon fill="none" stroke="#99ccff" points="161.5,-18.5 161.5,-196 965.25,-196 965.25,-18.5 161.5,-18.5"/>
</a>
</g>
</g>
<!-- User -->
<g id="node2" class="node">
<title>User</title>
<text text-anchor="middle" x="27" y="-103.55" font-family="Courier,monospace" font-size="11.00">User</text>
</g>
<!-- ProductRelationshipType&#45;&gt;User -->
<g id="edge1" class="edge">
<title>ProductRelationshipType:w&#45;&gt;User:e</title>
<path fill="none" stroke="#ff99cc" d="M145.82,-107.25C112.37,-107.25 76.79,-107.25 53.59,-107.25"/>
<polygon fill="#ff99cc" stroke="#ff99cc" points="153.17,-107.25 161.17,-110.85 157.5,-107.25 160.83,-107.25 160.83,-107.25 160.83,-107.25 157.5,-107.25 161.17,-103.65 153.17,-107.25"/>
<ellipse fill="none" stroke="#ff99cc" cx="148.25" cy="-107.25" rx="3.2" ry="3.2"/>
<text text-anchor="middle" x="107.75" y="-109.95" font-family="Monaco" font-size="9.00">LastModifiedBy</text>
</g>
</g>
</svg>
