<?xml version="1.0" encoding="UTF-8" standalone="no"?>
<!DOCTYPE svg PUBLIC "-//W3C//DTD SVG 1.1//EN"
 "http://www.w3.org/Graphics/SVG/1.1/DTD/svg11.dtd">
<!-- Generated by graphviz version 12.2.1 (20241206.2353)
 -->
<!-- Title: Salesforce+ ERD Pages: 1 -->
<svg width="996pt" height="282pt"
 viewBox="0.00 0.00 996.00 282.00" xmlns="http://www.w3.org/2000/svg" xmlns:xlink="http://www.w3.org/1999/xlink">
<g id="graph0" class="graph" transform="scale(1 1) rotate(0) translate(4 278)">
<title>Salesforce+ ERD</title>
<polygon fill="#efeffd" stroke="none" points="-4,4 -4,-278 992,-278 992,4 -4,4"/>
<text text-anchor="middle" x="940.62" y="-5.95" font-family="Courier,monospace" font-size="9.00">Salesforce ERD </text>
<!-- ProductCategoryDisqual -->
<g id="node1" class="node">
<title>ProductCategoryDisqual</title>
<g id="a_node1"><a xlink:href="#" xlink:title=" ProductCategoryDisqual ">
<polygon fill="#ffeeff" stroke="none" points="224.75,-18.5 224.75,-274 988,-274 988,-18.5 224.75,-18.5"/>
<polygon fill="lightblue" stroke="none" points="225.75,-253.5 225.75,-273 987,-273 987,-253.5 225.75,-253.5"/>
<polygon fill="none" stroke="#99ccff" points="225.75,-253.5 225.75,-273 987,-273 987,-253.5 225.75,-253.5"/>
<text text-anchor="start" x="532.12" y="-260.55" font-family="Courier,monospace" font-weight="bold" font-size="11.00">ProductCategoryDisqual</text>
<polygon fill="#99ccff" stroke="none" points="225.75,-234 225.75,-253.5 893.25,-253.5 893.25,-234 225.75,-234"/>
<polygon fill="none" stroke="#99ccff" points="225.75,-234 225.75,-253.5 893.25,-253.5 893.25,-234 225.75,-234"/>
<text text-anchor="start" x="228.75" y="-241.05" font-family="Courier,monospace" font-size="11.00"> &#160;&#160;&#160;&#160;&#160;&#160;&#160;&#160;&#160;&#160;&#160;&#160;&#160;&#160;&#160;&#160;&#160;&#160;&#160;&#160;&#160;&#160;&#160;&#160;&#160;&#160;&#160;&#160;&#160;&#160;&#160;&#160;&#160;&#160;&#160;&#160;&#160;&#160;&#160;&#160;&#160;&#160;</text>
<text text-anchor="start" x="519" y="-241.05" font-family="Courier,monospace" font-weight="bold" font-size="11.00">Id</text>
<text text-anchor="start" x="532.5" y="-241.05" font-family="Courier,monospace" font-size="11.00"> &#160;&#160;&#160;&#160;&#160;&#160;&#160;&#160;&#160;&#160;&#160;&#160;&#160;&#160;&#160;&#160;&#160;&#160;&#160;&#160;&#160;&#160;&#160;&#160;&#160;&#160;&#160;&#160;&#160;&#160;&#160;&#160;&#160;&#160;&#160;&#160;&#160;&#160;&#160;</text>
<polygon fill="none" stroke="#99ccff" points="893.25,-234 893.25,-253.5 987,-253.5 987,-234 893.25,-234"/>
<text text-anchor="start" x="919.88" y="-240.05" font-family="Courier,monospace" font-size="11.00">id(18)</text>
<polygon fill="none" stroke="#99ccff" points="225.75,-214.5 225.75,-234 893.25,-234 893.25,-214.5 225.75,-214.5"/>
<text text-anchor="start" x="228.75" y="-220.55" font-family="Courier,monospace" font-size="11.00"> &#160;&#160;&#160;&#160;&#160;&#160;&#160;&#160;&#160;&#160;&#160;&#160;&#160;&#160;&#160;&#160;&#160;&#160;&#160;&#160;&#160;&#160;&#160;&#160;&#160;&#160;&#160;&#160;&#160;&#160;&#160;&#160;&#160;&#160;&#160;&#160;&#160;&#160;&#160;&#160;OwnerId &#160;&#160;&#160;&#160;&#160;&#160;&#160;&#160;&#160;&#160;&#160;&#160;&#160;&#160;&#160;&#160;&#160;&#160;&#160;&#160;&#160;&#160;&#160;&#160;&#160;&#160;&#160;&#160;&#160;&#160;&#160;&#160;&#160;&#160;&#160;&#160;&#160;&#160;</text>
<polygon fill="none" stroke="#99ccff" points="893.25,-214.5 893.25,-234 987,-234 987,-214.5 893.25,-214.5"/>
<text text-anchor="start" x="896.25" y="-220.55" font-family="Courier,monospace" font-size="11.00">reference(18)</text>
<polygon fill="none" stroke="#99ccff" points="225.75,-195 225.75,-214.5 893.25,-214.5 893.25,-195 225.75,-195"/>
<text text-anchor="start" x="228.75" y="-201.05" font-family="Courier,monospace" font-size="11.00"> &#160;&#160;&#160;&#160;&#160;&#160;&#160;&#160;&#160;&#160;&#160;&#160;&#160;&#160;&#160;&#160;&#160;&#160;&#160;&#160;&#160;&#160;&#160;&#160;&#160;&#160;&#160;&#160;&#160;&#160;&#160;&#160;&#160;&#160;&#160;&#160;&#160;&#160;&#160;&#160;IsDeleted &#160;&#160;&#160;&#160;&#160;&#160;&#160;&#160;&#160;&#160;&#160;&#160;&#160;&#160;&#160;&#160;&#160;&#160;&#160;&#160;&#160;&#160;&#160;&#160;&#160;&#160;&#160;&#160;&#160;&#160;&#160;&#160;&#160;&#160;&#160;&#160;&#160;&#160;</text>
<polygon fill="none" stroke="#99ccff" points="893.25,-195 893.25,-214.5 987,-214.5 987,-195 893.25,-195"/>
<text text-anchor="start" x="916.5" y="-201.05" font-family="Courier,monospace" font-size="11.00">boolean</text>
<polygon fill="none" stroke="#99ccff" points="225.75,-175.5 225.75,-195 893.25,-195 893.25,-175.5 225.75,-175.5"/>
<text text-anchor="start" x="228.75" y="-181.55" font-family="Courier,monospace" font-size="11.00"> &#160;&#160;&#160;&#160;&#160;&#160;&#160;&#160;&#160;&#160;&#160;&#160;&#160;&#160;&#160;&#160;&#160;&#160;&#160;&#160;&#160;&#160;&#160;&#160;&#160;&#160;&#160;&#160;&#160;&#160;&#160;&#160;&#160;&#160;&#160;&#160;&#160;&#160;&#160;&#160;Name &#160;&#160;&#160;&#160;&#160;&#160;&#160;&#160;&#160;&#160;&#160;&#160;&#160;&#160;&#160;&#160;&#160;&#160;&#160;&#160;&#160;&#160;&#160;&#160;&#160;&#160;&#160;&#160;&#160;&#160;&#160;&#160;&#160;&#160;&#160;&#160;&#160;&#160;</text>
<polygon fill="none" stroke="#99ccff" points="893.25,-175.5 893.25,-195 987,-195 987,-175.5 893.25,-175.5"/>
<text text-anchor="start" x="903" y="-181.55" font-family="Courier,monospace" font-size="11.00">string(255)</text>
<polygon fill="none" stroke="#99ccff" points="225.75,-156 225.75,-175.5 893.25,-175.5 893.25,-156 225.75,-156"/>
<text text-anchor="start" x="228.75" y="-162.05" font-family="Courier,monospace" font-size="11.00"> &#160;&#160;&#160;&#160;&#160;&#160;&#160;&#160;&#160;&#160;&#160;&#160;&#160;&#160;&#160;&#160;&#160;&#160;&#160;&#160;&#160;&#160;&#160;&#160;&#160;&#160;&#160;&#160;&#160;&#160;&#160;&#160;&#160;&#160;&#160;&#160;&#160;&#160;&#160;&#160;LastModifiedById &#160;&#160;&#160;&#160;&#160;&#160;&#160;&#160;&#160;&#160;&#160;&#160;&#160;&#160;&#160;&#160;&#160;&#160;&#160;&#160;&#160;&#160;&#160;&#160;&#160;&#160;&#160;&#160;&#160;&#160;&#160;&#160;&#160;&#160;&#160;&#160;&#160;&#160;</text>
<polygon fill="none" stroke="#99ccff" points="893.25,-156 893.25,-175.5 987,-175.5 987,-156 893.25,-156"/>
<text text-anchor="start" x="896.25" y="-162.05" font-family="Courier,monospace" font-size="11.00">reference(18)</text>
<polygon fill="none" stroke="#99ccff" points="225.75,-136.5 225.75,-156 893.25,-156 893.25,-136.5 225.75,-136.5"/>
<text text-anchor="start" x="228.75" y="-142.55" font-family="Courier,monospace" font-size="11.00"> &#160;&#160;&#160;&#160;&#160;&#160;&#160;&#160;&#160;&#160;&#160;&#160;&#160;&#160;&#160;&#160;&#160;&#160;&#160;&#160;&#160;&#160;&#160;&#160;&#160;&#160;&#160;&#160;&#160;&#160;&#160;&#160;&#160;&#160;&#160;&#160;&#160;&#160;&#160;&#160;LastViewedDate &#160;&#160;&#160;&#160;&#160;&#160;&#160;&#160;&#160;&#160;&#160;&#160;&#160;&#160;&#160;&#160;&#160;&#160;&#160;&#160;&#160;&#160;&#160;&#160;&#160;&#160;&#160;&#160;&#160;&#160;&#160;&#160;&#160;&#160;&#160;&#160;&#160;&#160;</text>
<polygon fill="none" stroke="#99ccff" points="893.25,-136.5 893.25,-156 987,-156 987,-136.5 893.25,-136.5"/>
<text text-anchor="start" x="913.12" y="-142.55" font-family="Courier,monospace" font-size="11.00">datetime</text>
<polygon fill="none" stroke="#99ccff" points="225.75,-117 225.75,-136.5 893.25,-136.5 893.25,-117 225.75,-117"/>
<text text-anchor="start" x="228.75" y="-123.05" font-family="Courier,monospace" font-size="11.00"> &#160;&#160;&#160;&#160;&#160;&#160;&#160;&#160;&#160;&#160;&#160;&#160;&#160;&#160;&#160;&#160;&#160;&#160;&#160;&#160;&#160;&#160;&#160;&#160;&#160;&#160;&#160;&#160;&#160;&#160;&#160;&#160;&#160;&#160;&#160;&#160;&#160;&#160;&#160;&#160;LastReferencedDate &#160;&#160;&#160;&#160;&#160;&#160;&#160;&#160;&#160;&#160;&#160;&#160;&#160;&#160;&#160;&#160;&#160;&#160;&#160;&#160;&#160;&#160;&#160;&#160;&#160;&#160;&#160;&#160;&#160;&#160;&#160;&#160;&#160;&#160;&#160;&#160;&#160;&#160;</text>
<polygon fill="none" stroke="#99ccff" points="893.25,-117 893.25,-136.5 987,-136.5 987,-117 893.25,-117"/>
<text text-anchor="start" x="913.12" y="-123.05" font-family="Courier,monospace" font-size="11.00">datetime</text>
<polygon fill="none" stroke="#99ccff" points="225.75,-97.5 225.75,-117 893.25,-117 893.25,-97.5 225.75,-97.5"/>
<text text-anchor="start" x="228.75" y="-103.55" font-family="Courier,monospace" font-size="11.00"> &#160;&#160;&#160;&#160;&#160;&#160;&#160;&#160;&#160;&#160;&#160;&#160;&#160;&#160;&#160;&#160;&#160;&#160;&#160;&#160;&#160;&#160;&#160;&#160;&#160;&#160;&#160;&#160;&#160;&#160;&#160;&#160;&#160;&#160;&#160;&#160;&#160;&#160;&#160;&#160;IsDisqualified &#160;&#160;&#160;&#160;&#160;&#160;&#160;&#160;&#160;&#160;&#160;&#160;&#160;&#160;&#160;&#160;&#160;&#160;&#160;&#160;&#160;&#160;&#160;&#160;&#160;&#160;&#160;&#160;&#160;&#160;&#160;&#160;&#160;&#160;&#160;&#160;&#160;&#160;</text>
<polygon fill="none" stroke="#99ccff" points="893.25,-97.5 893.25,-117 987,-117 987,-97.5 893.25,-97.5"/>
<text text-anchor="start" x="916.5" y="-103.55" font-family="Courier,monospace" font-size="11.00">boolean</text>
<polygon fill="none" stroke="#99ccff" points="225.75,-78 225.75,-97.5 893.25,-97.5 893.25,-78 225.75,-78"/>
<text text-anchor="start" x="228.75" y="-84.05" font-family="Courier,monospace" font-size="11.00"> &#160;&#160;&#160;&#160;&#160;&#160;&#160;&#160;&#160;&#160;&#160;&#160;&#160;&#160;&#160;&#160;&#160;&#160;&#160;&#160;&#160;&#160;&#160;&#160;&#160;&#160;&#160;&#160;&#160;&#160;&#160;&#160;&#160;&#160;&#160;&#160;&#160;&#160;&#160;&#160;EffectiveToDate &#160;&#160;&#160;&#160;&#160;&#160;&#160;&#160;&#160;&#160;&#160;&#160;&#160;&#160;&#160;&#160;&#160;&#160;&#160;&#160;&#160;&#160;&#160;&#160;&#160;&#160;&#160;&#160;&#160;&#160;&#160;&#160;&#160;&#160;&#160;&#160;&#160;&#160;</text>
<polygon fill="none" stroke="#99ccff" points="893.25,-78 893.25,-97.5 987,-97.5 987,-78 893.25,-78"/>
<text text-anchor="start" x="926.62" y="-84.05" font-family="Courier,monospace" font-size="11.00">date</text>
<polygon fill="none" stroke="#99ccff" points="225.75,-58.5 225.75,-78 893.25,-78 893.25,-58.5 225.75,-58.5"/>
<text text-anchor="start" x="228.75" y="-64.55" font-family="Courier,monospace" font-size="11.00"> &#160;&#160;&#160;&#160;&#160;&#160;&#160;&#160;&#160;&#160;&#160;&#160;&#160;&#160;&#160;&#160;&#160;&#160;&#160;&#160;&#160;&#160;&#160;&#160;&#160;&#160;&#160;&#160;&#160;&#160;&#160;&#160;&#160;&#160;&#160;&#160;&#160;&#160;&#160;&#160;EffectiveFromDate &#160;&#160;&#160;&#160;&#160;&#160;&#160;&#160;&#160;&#160;&#160;&#160;&#160;&#160;&#160;&#160;&#160;&#160;&#160;&#160;&#160;&#160;&#160;&#160;&#160;&#160;&#160;&#160;&#160;&#160;&#160;&#160;&#160;&#160;&#160;&#160;&#160;&#160;</text>
<polygon fill="none" stroke="#99ccff" points="893.25,-58.5 893.25,-78 987,-78 987,-58.5 893.25,-58.5"/>
<text text-anchor="start" x="926.62" y="-64.55" font-family="Courier,monospace" font-size="11.00">date</text>
<polygon fill="none" stroke="#99ccff" points="225.75,-39 225.75,-58.5 893.25,-58.5 893.25,-39 225.75,-39"/>
<text text-anchor="start" x="228.75" y="-45.05" font-family="Courier,monospace" font-size="11.00"> &#160;&#160;&#160;&#160;&#160;&#160;&#160;&#160;&#160;&#160;&#160;&#160;&#160;&#160;&#160;&#160;&#160;&#160;&#160;&#160;&#160;&#160;&#160;&#160;&#160;&#160;&#160;&#160;&#160;&#160;&#160;&#160;&#160;&#160;&#160;&#160;&#160;&#160;&#160;&#160;CategoryId &#160;&#160;&#160;&#160;&#160;&#160;&#160;&#160;&#160;&#160;&#160;&#160;&#160;&#160;&#160;&#160;&#160;&#160;&#160;&#160;&#160;&#160;&#160;&#160;&#160;&#160;&#160;&#160;&#160;&#160;&#160;&#160;&#160;&#160;&#160;&#160;&#160;&#160;</text>
<polygon fill="none" stroke="#99ccff" points="893.25,-39 893.25,-58.5 987,-58.5 987,-39 893.25,-39"/>
<text text-anchor="start" x="896.25" y="-45.05" font-family="Courier,monospace" font-size="11.00">reference(18)</text>
<polygon fill="none" stroke="#99ccff" points="225.75,-19.5 225.75,-39 893.25,-39 893.25,-19.5 225.75,-19.5"/>
<text text-anchor="start" x="228.75" y="-25.55" font-family="Courier,monospace" font-size="11.00"> &#160;&#160;&#160;&#160;&#160;&#160;&#160;&#160;&#160;&#160;&#160;&#160;&#160;&#160;&#160;&#160;&#160;&#160;&#160;&#160;&#160;&#160;&#160;&#160;&#160;&#160;&#160;&#160;&#160;&#160;&#160;&#160;&#160;&#160;&#160;&#160;&#160;&#160;&#160;&#160;Reason &#160;&#160;&#160;&#160;&#160;&#160;&#160;&#160;&#160;&#160;&#160;&#160;&#160;&#160;&#160;&#160;&#160;&#160;&#160;&#160;&#160;&#160;&#160;&#160;&#160;&#160;&#160;&#160;&#160;&#160;&#160;&#160;&#160;&#160;&#160;&#160;&#160;&#160;</text>
<polygon fill="none" stroke="#99ccff" points="893.25,-19.5 893.25,-39 987,-39 987,-19.5 893.25,-19.5"/>
<text text-anchor="start" x="903" y="-25.55" font-family="Courier,monospace" font-size="11.00">string(255)</text>
<polygon fill="none" stroke="#99ccff" points="224.75,-18.5 224.75,-274 988,-274 988,-18.5 224.75,-18.5"/>
</a>
</g>
</g>
<!-- Group -->
<g id="node2" class="node">
<title>Group</title>
<text text-anchor="middle" x="58.62" y="-220.55" font-family="Courier,monospace" font-size="11.00">Group</text>
</g>
<!-- ProductCategoryDisqual&#45;&gt;Group -->
<g id="edge1" class="edge">
<title>ProductCategoryDisqual:w&#45;&gt;Group:e</title>
<path fill="none" stroke="#ff99cc" d="M208.91,-224.25C163.57,-224.25 114.43,-224.25 85.37,-224.25"/>
<polygon fill="#ff99cc" stroke="#ff99cc" points="216.42,-224.25 224.42,-227.85 220.75,-224.25 224.08,-224.25 224.08,-224.25 224.08,-224.25 220.75,-224.25 224.42,-220.65 216.42,-224.25"/>
<ellipse fill="none" stroke="#ff99cc" cx="211.5" cy="-224.25" rx="3.2" ry="3.2"/>
<text text-anchor="middle" x="171" y="-226.95" font-family="Monaco" font-size="9.00">Owner</text>
</g>
<!-- User -->
<g id="node3" class="node">
<title>User</title>
<text text-anchor="middle" x="58.62" y="-167.55" font-family="Courier,monospace" font-size="11.00">User</text>
</g>
<!-- ProductCategoryDisqual&#45;&gt;User -->
<g id="edge2" class="edge">
<title>ProductCategoryDisqual:w&#45;&gt;User:e</title>
<path fill="none" stroke="#ff99cc" d="M215.06,-211.96C214.18,-206.55 213.12,-200.61 207.75,-197 188.21,-183.84 122.59,-176.44 85.58,-173.22"/>
<polygon fill="#ff99cc" stroke="#ff99cc" points="219.59,-217.7 221.72,-226.22 222.27,-221.11 224.34,-223.72 224.34,-223.72 224.34,-223.72 222.27,-221.11 227.37,-221.76 219.59,-217.7"/>
<ellipse fill="none" stroke="#ff99cc" cx="216.55" cy="-213.84" rx="3.2" ry="3.2"/>
<text text-anchor="middle" x="171" y="-199.7" font-family="Monaco" font-size="9.00">Owner</text>
</g>
<!-- ProductCategoryDisqual&#45;&gt;User -->
<g id="edge3" class="edge">
<title>ProductCategoryDisqual:w&#45;&gt;User:e</title>
<path fill="none" stroke="#ff99cc" d="M209.1,-165.04C208.67,-165.02 208.22,-165.01 207.75,-165 175.09,-164.28 166.89,-163.64 134.25,-165 118.01,-165.68 99.84,-167.18 85.49,-168.55"/>
<polygon fill="#ff99cc" stroke="#ff99cc" points="216.42,-165.37 224.25,-169.33 220.75,-165.57 224.08,-165.72 224.08,-165.72 224.08,-165.72 220.75,-165.57 224.58,-162.14 216.42,-165.37"/>
<ellipse fill="none" stroke="#ff99cc" cx="211.51" cy="-165.15" rx="3.2" ry="3.2"/>
<text text-anchor="middle" x="171" y="-167.7" font-family="Monaco" font-size="9.00">LastModifiedBy</text>
</g>
<!-- ProductCategory -->
<g id="node4" class="node">
<title>ProductCategory</title>
<text text-anchor="middle" x="58.62" y="-45.55" font-family="Courier,monospace" font-size="11.00">ProductCategory</text>
</g>
<!-- ProductCategoryDisqual&#45;&gt;ProductCategory -->
<g id="edge4" class="edge">
<title>ProductCategoryDisqual:w&#45;&gt;ProductCategory:e</title>
<path fill="none" stroke="#ff99cc" d="M208.98,-48.76C177.47,-48.78 144.12,-48.89 116.94,-48.99"/>
<polygon fill="#ff99cc" stroke="#ff99cc" points="216.42,-48.75 224.42,-52.35 220.75,-48.75 224.08,-48.75 224.08,-48.75 224.08,-48.75 220.75,-48.75 224.41,-45.15 216.42,-48.75"/>
<ellipse fill="none" stroke="#ff99cc" cx="211.5" cy="-48.76" rx="3.2" ry="3.2"/>
<text text-anchor="middle" x="171" y="-51.63" font-family="Monaco" font-size="9.00">Category</text>
</g>
</g>
</svg>
