<?xml version="1.0" encoding="UTF-8" standalone="no"?>
<!DOCTYPE svg PUBLIC "-//W3C//DTD SVG 1.1//EN"
 "http://www.w3.org/Graphics/SVG/1.1/DTD/svg11.dtd">
<!-- Generated by graphviz version 12.2.1 (20241206.2353)
 -->
<!-- Title: Salesforce+ ERD Pages: 1 -->
<svg width="989pt" height="334pt"
 viewBox="0.00 0.00 989.25 333.75" xmlns="http://www.w3.org/2000/svg" xmlns:xlink="http://www.w3.org/1999/xlink">
<g id="graph0" class="graph" transform="scale(1 1) rotate(0) translate(4 329.75)">
<title>Salesforce+ ERD</title>
<polygon fill="#efeffd" stroke="none" points="-4,4 -4,-329.75 985.25,-329.75 985.25,4 -4,4"/>
<text text-anchor="middle" x="933.88" y="-5.95" font-family="Courier,monospace" font-size="9.00">Salesforce ERD </text>
<!-- ProductCategory -->
<g id="node1" class="node">
<title>ProductCategory</title>
<g id="a_node1"><a xlink:href="#" xlink:title=" ProductCategory ">
<polygon fill="#ffeeff" stroke="none" points="218,-18.5 218,-293.5 981.25,-293.5 981.25,-18.5 218,-18.5"/>
<polygon fill="lightblue" stroke="none" points="219,-273 219,-292.5 980.25,-292.5 980.25,-273 219,-273"/>
<polygon fill="none" stroke="#99ccff" points="219,-273 219,-292.5 980.25,-292.5 980.25,-273 219,-273"/>
<text text-anchor="start" x="549" y="-280.05" font-family="Courier,monospace" font-weight="bold" font-size="11.00">ProductCategory</text>
<polygon fill="#99ccff" stroke="none" points="219,-253.5 219,-273 886.5,-273 886.5,-253.5 219,-253.5"/>
<polygon fill="none" stroke="#99ccff" points="219,-253.5 219,-273 886.5,-273 886.5,-253.5 219,-253.5"/>
<text text-anchor="start" x="222" y="-260.55" font-family="Courier,monospace" font-size="11.00"> &#160;&#160;&#160;&#160;&#160;&#160;&#160;&#160;&#160;&#160;&#160;&#160;&#160;&#160;&#160;&#160;&#160;&#160;&#160;&#160;&#160;&#160;&#160;&#160;&#160;&#160;&#160;&#160;&#160;&#160;&#160;&#160;&#160;&#160;&#160;&#160;&#160;&#160;&#160;&#160;&#160;&#160;</text>
<text text-anchor="start" x="512.25" y="-260.55" font-family="Courier,monospace" font-weight="bold" font-size="11.00">Id</text>
<text text-anchor="start" x="525.75" y="-260.55" font-family="Courier,monospace" font-size="11.00"> &#160;&#160;&#160;&#160;&#160;&#160;&#160;&#160;&#160;&#160;&#160;&#160;&#160;&#160;&#160;&#160;&#160;&#160;&#160;&#160;&#160;&#160;&#160;&#160;&#160;&#160;&#160;&#160;&#160;&#160;&#160;&#160;&#160;&#160;&#160;&#160;&#160;&#160;&#160;</text>
<polygon fill="none" stroke="#99ccff" points="886.5,-253.5 886.5,-273 980.25,-273 980.25,-253.5 886.5,-253.5"/>
<text text-anchor="start" x="913.12" y="-259.55" font-family="Courier,monospace" font-size="11.00">id(18)</text>
<polygon fill="none" stroke="#99ccff" points="219,-234 219,-253.5 886.5,-253.5 886.5,-234 219,-234"/>
<text text-anchor="start" x="222" y="-240.05" font-family="Courier,monospace" font-size="11.00"> &#160;&#160;&#160;&#160;&#160;&#160;&#160;&#160;&#160;&#160;&#160;&#160;&#160;&#160;&#160;&#160;&#160;&#160;&#160;&#160;&#160;&#160;&#160;&#160;&#160;&#160;&#160;&#160;&#160;&#160;&#160;&#160;&#160;&#160;&#160;&#160;&#160;&#160;&#160;&#160;IsDeleted &#160;&#160;&#160;&#160;&#160;&#160;&#160;&#160;&#160;&#160;&#160;&#160;&#160;&#160;&#160;&#160;&#160;&#160;&#160;&#160;&#160;&#160;&#160;&#160;&#160;&#160;&#160;&#160;&#160;&#160;&#160;&#160;&#160;&#160;&#160;&#160;&#160;&#160;</text>
<polygon fill="none" stroke="#99ccff" points="886.5,-234 886.5,-253.5 980.25,-253.5 980.25,-234 886.5,-234"/>
<text text-anchor="start" x="909.75" y="-240.05" font-family="Courier,monospace" font-size="11.00">boolean</text>
<polygon fill="none" stroke="#99ccff" points="219,-214.5 219,-234 886.5,-234 886.5,-214.5 219,-214.5"/>
<text text-anchor="start" x="222" y="-220.55" font-family="Courier,monospace" font-size="11.00"> &#160;&#160;&#160;&#160;&#160;&#160;&#160;&#160;&#160;&#160;&#160;&#160;&#160;&#160;&#160;&#160;&#160;&#160;&#160;&#160;&#160;&#160;&#160;&#160;&#160;&#160;&#160;&#160;&#160;&#160;&#160;&#160;&#160;&#160;&#160;&#160;&#160;&#160;&#160;&#160;Name &#160;&#160;&#160;&#160;&#160;&#160;&#160;&#160;&#160;&#160;&#160;&#160;&#160;&#160;&#160;&#160;&#160;&#160;&#160;&#160;&#160;&#160;&#160;&#160;&#160;&#160;&#160;&#160;&#160;&#160;&#160;&#160;&#160;&#160;&#160;&#160;&#160;&#160;</text>
<polygon fill="none" stroke="#99ccff" points="886.5,-214.5 886.5,-234 980.25,-234 980.25,-214.5 886.5,-214.5"/>
<text text-anchor="start" x="896.25" y="-220.55" font-family="Courier,monospace" font-size="11.00">string(200)</text>
<polygon fill="none" stroke="#99ccff" points="219,-195 219,-214.5 886.5,-214.5 886.5,-195 219,-195"/>
<text text-anchor="start" x="222" y="-201.05" font-family="Courier,monospace" font-size="11.00"> &#160;&#160;&#160;&#160;&#160;&#160;&#160;&#160;&#160;&#160;&#160;&#160;&#160;&#160;&#160;&#160;&#160;&#160;&#160;&#160;&#160;&#160;&#160;&#160;&#160;&#160;&#160;&#160;&#160;&#160;&#160;&#160;&#160;&#160;&#160;&#160;&#160;&#160;&#160;&#160;LastModifiedById &#160;&#160;&#160;&#160;&#160;&#160;&#160;&#160;&#160;&#160;&#160;&#160;&#160;&#160;&#160;&#160;&#160;&#160;&#160;&#160;&#160;&#160;&#160;&#160;&#160;&#160;&#160;&#160;&#160;&#160;&#160;&#160;&#160;&#160;&#160;&#160;&#160;&#160;</text>
<polygon fill="none" stroke="#99ccff" points="886.5,-195 886.5,-214.5 980.25,-214.5 980.25,-195 886.5,-195"/>
<text text-anchor="start" x="889.5" y="-201.05" font-family="Courier,monospace" font-size="11.00">reference(18)</text>
<polygon fill="none" stroke="#99ccff" points="219,-175.5 219,-195 886.5,-195 886.5,-175.5 219,-175.5"/>
<text text-anchor="start" x="222" y="-181.55" font-family="Courier,monospace" font-size="11.00"> &#160;&#160;&#160;&#160;&#160;&#160;&#160;&#160;&#160;&#160;&#160;&#160;&#160;&#160;&#160;&#160;&#160;&#160;&#160;&#160;&#160;&#160;&#160;&#160;&#160;&#160;&#160;&#160;&#160;&#160;&#160;&#160;&#160;&#160;&#160;&#160;&#160;&#160;&#160;&#160;LastViewedDate &#160;&#160;&#160;&#160;&#160;&#160;&#160;&#160;&#160;&#160;&#160;&#160;&#160;&#160;&#160;&#160;&#160;&#160;&#160;&#160;&#160;&#160;&#160;&#160;&#160;&#160;&#160;&#160;&#160;&#160;&#160;&#160;&#160;&#160;&#160;&#160;&#160;&#160;</text>
<polygon fill="none" stroke="#99ccff" points="886.5,-175.5 886.5,-195 980.25,-195 980.25,-175.5 886.5,-175.5"/>
<text text-anchor="start" x="906.38" y="-181.55" font-family="Courier,monospace" font-size="11.00">datetime</text>
<polygon fill="none" stroke="#99ccff" points="219,-156 219,-175.5 886.5,-175.5 886.5,-156 219,-156"/>
<text text-anchor="start" x="222" y="-162.05" font-family="Courier,monospace" font-size="11.00"> &#160;&#160;&#160;&#160;&#160;&#160;&#160;&#160;&#160;&#160;&#160;&#160;&#160;&#160;&#160;&#160;&#160;&#160;&#160;&#160;&#160;&#160;&#160;&#160;&#160;&#160;&#160;&#160;&#160;&#160;&#160;&#160;&#160;&#160;&#160;&#160;&#160;&#160;&#160;&#160;LastReferencedDate &#160;&#160;&#160;&#160;&#160;&#160;&#160;&#160;&#160;&#160;&#160;&#160;&#160;&#160;&#160;&#160;&#160;&#160;&#160;&#160;&#160;&#160;&#160;&#160;&#160;&#160;&#160;&#160;&#160;&#160;&#160;&#160;&#160;&#160;&#160;&#160;&#160;&#160;</text>
<polygon fill="none" stroke="#99ccff" points="886.5,-156 886.5,-175.5 980.25,-175.5 980.25,-156 886.5,-156"/>
<text text-anchor="start" x="906.38" y="-162.05" font-family="Courier,monospace" font-size="11.00">datetime</text>
<polygon fill="none" stroke="#99ccff" points="219,-136.5 219,-156 886.5,-156 886.5,-136.5 219,-136.5"/>
<text text-anchor="start" x="222" y="-142.55" font-family="Courier,monospace" font-size="11.00"> &#160;&#160;&#160;&#160;&#160;&#160;&#160;&#160;&#160;&#160;&#160;&#160;&#160;&#160;&#160;&#160;&#160;&#160;&#160;&#160;&#160;&#160;&#160;&#160;&#160;&#160;&#160;&#160;&#160;&#160;&#160;&#160;&#160;&#160;&#160;&#160;&#160;&#160;&#160;&#160;CatalogId &#160;&#160;&#160;&#160;&#160;&#160;&#160;&#160;&#160;&#160;&#160;&#160;&#160;&#160;&#160;&#160;&#160;&#160;&#160;&#160;&#160;&#160;&#160;&#160;&#160;&#160;&#160;&#160;&#160;&#160;&#160;&#160;&#160;&#160;&#160;&#160;&#160;&#160;</text>
<polygon fill="none" stroke="#99ccff" points="886.5,-136.5 886.5,-156 980.25,-156 980.25,-136.5 886.5,-136.5"/>
<text text-anchor="start" x="889.5" y="-142.55" font-family="Courier,monospace" font-size="11.00">reference(18)</text>
<polygon fill="none" stroke="#99ccff" points="219,-117 219,-136.5 886.5,-136.5 886.5,-117 219,-117"/>
<text text-anchor="start" x="222" y="-123.05" font-family="Courier,monospace" font-size="11.00"> &#160;&#160;&#160;&#160;&#160;&#160;&#160;&#160;&#160;&#160;&#160;&#160;&#160;&#160;&#160;&#160;&#160;&#160;&#160;&#160;&#160;&#160;&#160;&#160;&#160;&#160;&#160;&#160;&#160;&#160;&#160;&#160;&#160;&#160;&#160;&#160;&#160;&#160;&#160;&#160;ParentCategoryId &#160;&#160;&#160;&#160;&#160;&#160;&#160;&#160;&#160;&#160;&#160;&#160;&#160;&#160;&#160;&#160;&#160;&#160;&#160;&#160;&#160;&#160;&#160;&#160;&#160;&#160;&#160;&#160;&#160;&#160;&#160;&#160;&#160;&#160;&#160;&#160;&#160;&#160;</text>
<polygon fill="none" stroke="#99ccff" points="886.5,-117 886.5,-136.5 980.25,-136.5 980.25,-117 886.5,-117"/>
<text text-anchor="start" x="889.5" y="-123.05" font-family="Courier,monospace" font-size="11.00">reference(18)</text>
<polygon fill="none" stroke="#99ccff" points="219,-97.5 219,-117 886.5,-117 886.5,-97.5 219,-97.5"/>
<text text-anchor="start" x="222" y="-103.55" font-family="Courier,monospace" font-size="11.00"> &#160;&#160;&#160;&#160;&#160;&#160;&#160;&#160;&#160;&#160;&#160;&#160;&#160;&#160;&#160;&#160;&#160;&#160;&#160;&#160;&#160;&#160;&#160;&#160;&#160;&#160;&#160;&#160;&#160;&#160;&#160;&#160;&#160;&#160;&#160;&#160;&#160;&#160;&#160;&#160;Description &#160;&#160;&#160;&#160;&#160;&#160;&#160;&#160;&#160;&#160;&#160;&#160;&#160;&#160;&#160;&#160;&#160;&#160;&#160;&#160;&#160;&#160;&#160;&#160;&#160;&#160;&#160;&#160;&#160;&#160;&#160;&#160;&#160;&#160;&#160;&#160;&#160;&#160;</text>
<polygon fill="none" stroke="#99ccff" points="886.5,-97.5 886.5,-117 980.25,-117 980.25,-97.5 886.5,-97.5"/>
<text text-anchor="start" x="889.5" y="-103.55" font-family="Courier,monospace" font-size="11.00">textarea(255)</text>
<polygon fill="none" stroke="#99ccff" points="219,-78 219,-97.5 886.5,-97.5 886.5,-78 219,-78"/>
<text text-anchor="start" x="222" y="-84.05" font-family="Courier,monospace" font-size="11.00"> &#160;&#160;&#160;&#160;&#160;&#160;&#160;&#160;&#160;&#160;&#160;&#160;&#160;&#160;&#160;&#160;&#160;&#160;&#160;&#160;&#160;&#160;&#160;&#160;&#160;&#160;&#160;&#160;&#160;&#160;&#160;&#160;&#160;&#160;&#160;&#160;&#160;&#160;&#160;&#160;NumberOfProducts &#160;&#160;&#160;&#160;&#160;&#160;&#160;&#160;&#160;&#160;&#160;&#160;&#160;&#160;&#160;&#160;&#160;&#160;&#160;&#160;&#160;&#160;&#160;&#160;&#160;&#160;&#160;&#160;&#160;&#160;&#160;&#160;&#160;&#160;&#160;&#160;&#160;&#160;</text>
<polygon fill="none" stroke="#99ccff" points="886.5,-78 886.5,-97.5 980.25,-97.5 980.25,-78 886.5,-78"/>
<text text-anchor="start" x="923.25" y="-84.05" font-family="Courier,monospace" font-size="11.00">int</text>
<polygon fill="none" stroke="#99ccff" points="219,-58.5 219,-78 886.5,-78 886.5,-58.5 219,-58.5"/>
<text text-anchor="start" x="222" y="-64.55" font-family="Courier,monospace" font-size="11.00"> &#160;&#160;&#160;&#160;&#160;&#160;&#160;&#160;&#160;&#160;&#160;&#160;&#160;&#160;&#160;&#160;&#160;&#160;&#160;&#160;&#160;&#160;&#160;&#160;&#160;&#160;&#160;&#160;&#160;&#160;&#160;&#160;&#160;&#160;&#160;&#160;&#160;&#160;&#160;&#160;SortOrder &#160;&#160;&#160;&#160;&#160;&#160;&#160;&#160;&#160;&#160;&#160;&#160;&#160;&#160;&#160;&#160;&#160;&#160;&#160;&#160;&#160;&#160;&#160;&#160;&#160;&#160;&#160;&#160;&#160;&#160;&#160;&#160;&#160;&#160;&#160;&#160;&#160;&#160;</text>
<polygon fill="none" stroke="#99ccff" points="886.5,-58.5 886.5,-78 980.25,-78 980.25,-58.5 886.5,-58.5"/>
<text text-anchor="start" x="923.25" y="-64.55" font-family="Courier,monospace" font-size="11.00">int</text>
<polygon fill="none" stroke="#99ccff" points="219,-39 219,-58.5 886.5,-58.5 886.5,-39 219,-39"/>
<text text-anchor="start" x="222" y="-45.05" font-family="Courier,monospace" font-size="11.00"> &#160;&#160;&#160;&#160;&#160;&#160;&#160;&#160;&#160;&#160;&#160;&#160;&#160;&#160;&#160;&#160;&#160;&#160;&#160;&#160;&#160;&#160;&#160;&#160;&#160;&#160;&#160;&#160;&#160;&#160;&#160;&#160;&#160;&#160;&#160;&#160;&#160;&#160;&#160;&#160;IsNavigational &#160;&#160;&#160;&#160;&#160;&#160;&#160;&#160;&#160;&#160;&#160;&#160;&#160;&#160;&#160;&#160;&#160;&#160;&#160;&#160;&#160;&#160;&#160;&#160;&#160;&#160;&#160;&#160;&#160;&#160;&#160;&#160;&#160;&#160;&#160;&#160;&#160;&#160;</text>
<polygon fill="none" stroke="#99ccff" points="886.5,-39 886.5,-58.5 980.25,-58.5 980.25,-39 886.5,-39"/>
<text text-anchor="start" x="909.75" y="-45.05" font-family="Courier,monospace" font-size="11.00">boolean</text>
<polygon fill="none" stroke="#99ccff" points="219,-19.5 219,-39 886.5,-39 886.5,-19.5 219,-19.5"/>
<text text-anchor="start" x="222" y="-25.55" font-family="Courier,monospace" font-size="11.00"> &#160;&#160;&#160;&#160;&#160;&#160;&#160;&#160;&#160;&#160;&#160;&#160;&#160;&#160;&#160;&#160;&#160;&#160;&#160;&#160;&#160;&#160;&#160;&#160;&#160;&#160;&#160;&#160;&#160;&#160;&#160;&#160;&#160;&#160;&#160;&#160;&#160;&#160;&#160;&#160;Code &#160;&#160;&#160;&#160;&#160;&#160;&#160;&#160;&#160;&#160;&#160;&#160;&#160;&#160;&#160;&#160;&#160;&#160;&#160;&#160;&#160;&#160;&#160;&#160;&#160;&#160;&#160;&#160;&#160;&#160;&#160;&#160;&#160;&#160;&#160;&#160;&#160;&#160;</text>
<polygon fill="none" stroke="#99ccff" points="886.5,-19.5 886.5,-39 980.25,-39 980.25,-19.5 886.5,-19.5"/>
<text text-anchor="start" x="896.25" y="-25.55" font-family="Courier,monospace" font-size="11.00">string(255)</text>
<polygon fill="none" stroke="#99ccff" points="218,-18.5 218,-293.5 981.25,-293.5 981.25,-18.5 218,-18.5"/>
</a>
</g>
</g>
<!-- ProductCategory&#45;&gt;ProductCategory -->
<g id="edge3" class="edge">
<title>ProductCategory:w&#45;&gt;ProductCategory:e</title>
<path fill="none" stroke="#3e7ab7" d="M205.02,-133.97C111.05,-188.3 130.04,-306.5 552.75,-306.5 995.34,-306.5 995.34,-297.83 886.5,-263.25"/>
<polygon fill="#3e7ab7" stroke="#3e7ab7" points="211.6,-130.58 220.36,-130.1 215.45,-128.59 218.41,-127.06 218.41,-127.06 218.41,-127.06 215.45,-128.59 217.05,-123.71 211.6,-130.58"/>
<ellipse fill="none" stroke="#3e7ab7" cx="207.23" cy="-132.83" rx="3.2" ry="3.2"/>
<text text-anchor="middle" x="599.62" y="-309.35" font-family="Arial" font-size="12.00">ParentCategory</text>
</g>
<!-- User -->
<g id="node2" class="node">
<title>User</title>
<text text-anchor="middle" x="55.25" y="-200.3" font-family="Courier,monospace" font-size="11.00">User</text>
</g>
<!-- ProductCategory&#45;&gt;User -->
<g id="edge1" class="edge">
<title>ProductCategory:w&#45;&gt;User:e</title>
<path fill="none" stroke="#ff99cc" d="M202.29,-204.74C158.22,-204.68 110.51,-204.39 82.02,-204.19"/>
<polygon fill="#ff99cc" stroke="#ff99cc" points="209.67,-204.74 217.66,-208.35 214,-204.75 217.33,-204.75 217.33,-204.75 217.33,-204.75 214,-204.75 217.67,-201.15 209.67,-204.74"/>
<ellipse fill="none" stroke="#ff99cc" cx="204.75" cy="-204.74" rx="3.2" ry="3.2"/>
<text text-anchor="middle" x="164.25" y="-207.44" font-family="Monaco" font-size="9.00">LastModifiedBy</text>
</g>
<!-- ProductCatalog -->
<g id="node3" class="node">
<title>ProductCatalog</title>
<text text-anchor="middle" x="55.25" y="-143.3" font-family="Courier,monospace" font-size="11.00">ProductCatalog</text>
</g>
<!-- ProductCategory&#45;&gt;ProductCatalog -->
<g id="edge2" class="edge">
<title>ProductCategory:w&#45;&gt;ProductCatalog:e</title>
<path fill="none" stroke="#ff99cc" d="M202.17,-146.26C170.55,-146.3 137.07,-146.46 110.17,-146.62"/>
<polygon fill="#ff99cc" stroke="#ff99cc" points="209.67,-146.26 217.67,-149.85 214,-146.25 217.33,-146.25 217.33,-146.25 217.33,-146.25 214,-146.25 217.66,-142.65 209.67,-146.26"/>
<ellipse fill="none" stroke="#ff99cc" cx="204.75" cy="-146.26" rx="3.2" ry="3.2"/>
<text text-anchor="middle" x="164.25" y="-149.21" font-family="Monaco" font-size="9.00">Catalog</text>
</g>
</g>
</svg>
