<?xml version="1.0" encoding="UTF-8" standalone="no"?>
<!DOCTYPE svg PUBLIC "-//W3C//DTD SVG 1.1//EN"
 "http://www.w3.org/Graphics/SVG/1.1/DTD/svg11.dtd">
<!-- Generated by graphviz version 12.2.1 (20241206.2353)
 -->
<!-- Title: Salesforce+ ERD Pages: 1 -->
<svg width="962pt" height="353pt"
 viewBox="0.00 0.00 962.25 353.25" xmlns="http://www.w3.org/2000/svg" xmlns:xlink="http://www.w3.org/1999/xlink">
<g id="graph0" class="graph" transform="scale(1 1) rotate(0) translate(4 349.25)">
<title>Salesforce+ ERD</title>
<polygon fill="#efeffd" stroke="none" points="-4,4 -4,-349.25 958.25,-349.25 958.25,4 -4,4"/>
<text text-anchor="middle" x="906.88" y="-5.95" font-family="Courier,monospace" font-size="9.00">Salesforce ERD </text>
<!-- ProductComponentGroup -->
<g id="node1" class="node">
<title>ProductComponentGroup</title>
<g id="a_node1"><a xlink:href="#" xlink:title=" ProductComponentGroup ">
<polygon fill="#ffeeff" stroke="none" points="177.5,-18.5 177.5,-313 954.25,-313 954.25,-18.5 177.5,-18.5"/>
<polygon fill="lightblue" stroke="none" points="178.5,-292.5 178.5,-312 953.25,-312 953.25,-292.5 178.5,-292.5"/>
<polygon fill="none" stroke="#99ccff" points="178.5,-292.5 178.5,-312 953.25,-312 953.25,-292.5 178.5,-292.5"/>
<text text-anchor="start" x="495" y="-299.55" font-family="Courier,monospace" font-weight="bold" font-size="11.00">ProductComponentGroup</text>
<polygon fill="#99ccff" stroke="none" points="178.5,-273 178.5,-292.5 852.75,-292.5 852.75,-273 178.5,-273"/>
<polygon fill="none" stroke="#99ccff" points="178.5,-273 178.5,-292.5 852.75,-292.5 852.75,-273 178.5,-273"/>
<text text-anchor="start" x="181.5" y="-280.05" font-family="Courier,monospace" font-size="11.00"> &#160;&#160;&#160;&#160;&#160;&#160;&#160;&#160;&#160;&#160;&#160;&#160;&#160;&#160;&#160;&#160;&#160;&#160;&#160;&#160;&#160;&#160;&#160;&#160;&#160;&#160;&#160;&#160;&#160;&#160;&#160;&#160;&#160;&#160;&#160;&#160;&#160;&#160;&#160;&#160;&#160;&#160;</text>
<text text-anchor="start" x="471.75" y="-280.05" font-family="Courier,monospace" font-weight="bold" font-size="11.00">Id</text>
<text text-anchor="start" x="485.25" y="-280.05" font-family="Courier,monospace" font-size="11.00"> &#160;&#160;&#160;&#160;&#160;&#160;&#160;&#160;&#160;&#160;&#160;&#160;&#160;&#160;&#160;&#160;&#160;&#160;&#160;&#160;&#160;&#160;&#160;&#160;&#160;&#160;&#160;&#160;&#160;&#160;&#160;&#160;&#160;&#160;&#160;&#160;&#160;&#160;&#160;</text>
<polygon fill="none" stroke="#99ccff" points="852.75,-273 852.75,-292.5 953.25,-292.5 953.25,-273 852.75,-273"/>
<text text-anchor="start" x="882.75" y="-279.05" font-family="Courier,monospace" font-size="11.00">id(18)</text>
<polygon fill="none" stroke="#99ccff" points="178.5,-253.5 178.5,-273 852.75,-273 852.75,-253.5 178.5,-253.5"/>
<text text-anchor="start" x="181.5" y="-259.55" font-family="Courier,monospace" font-size="11.00"> &#160;&#160;&#160;&#160;&#160;&#160;&#160;&#160;&#160;&#160;&#160;&#160;&#160;&#160;&#160;&#160;&#160;&#160;&#160;&#160;&#160;&#160;&#160;&#160;&#160;&#160;&#160;&#160;&#160;&#160;&#160;&#160;&#160;&#160;&#160;&#160;&#160;&#160;&#160;&#160;OwnerId &#160;&#160;&#160;&#160;&#160;&#160;&#160;&#160;&#160;&#160;&#160;&#160;&#160;&#160;&#160;&#160;&#160;&#160;&#160;&#160;&#160;&#160;&#160;&#160;&#160;&#160;&#160;&#160;&#160;&#160;&#160;&#160;&#160;&#160;&#160;&#160;&#160;&#160;</text>
<polygon fill="none" stroke="#99ccff" points="852.75,-253.5 852.75,-273 953.25,-273 953.25,-253.5 852.75,-253.5"/>
<text text-anchor="start" x="859.12" y="-259.55" font-family="Courier,monospace" font-size="11.00">reference(18)</text>
<polygon fill="none" stroke="#99ccff" points="178.5,-234 178.5,-253.5 852.75,-253.5 852.75,-234 178.5,-234"/>
<text text-anchor="start" x="181.5" y="-240.05" font-family="Courier,monospace" font-size="11.00"> &#160;&#160;&#160;&#160;&#160;&#160;&#160;&#160;&#160;&#160;&#160;&#160;&#160;&#160;&#160;&#160;&#160;&#160;&#160;&#160;&#160;&#160;&#160;&#160;&#160;&#160;&#160;&#160;&#160;&#160;&#160;&#160;&#160;&#160;&#160;&#160;&#160;&#160;&#160;&#160;IsDeleted &#160;&#160;&#160;&#160;&#160;&#160;&#160;&#160;&#160;&#160;&#160;&#160;&#160;&#160;&#160;&#160;&#160;&#160;&#160;&#160;&#160;&#160;&#160;&#160;&#160;&#160;&#160;&#160;&#160;&#160;&#160;&#160;&#160;&#160;&#160;&#160;&#160;&#160;</text>
<polygon fill="none" stroke="#99ccff" points="852.75,-234 852.75,-253.5 953.25,-253.5 953.25,-234 852.75,-234"/>
<text text-anchor="start" x="879.38" y="-240.05" font-family="Courier,monospace" font-size="11.00">boolean</text>
<polygon fill="none" stroke="#99ccff" points="178.5,-214.5 178.5,-234 852.75,-234 852.75,-214.5 178.5,-214.5"/>
<text text-anchor="start" x="181.5" y="-220.55" font-family="Courier,monospace" font-size="11.00"> &#160;&#160;&#160;&#160;&#160;&#160;&#160;&#160;&#160;&#160;&#160;&#160;&#160;&#160;&#160;&#160;&#160;&#160;&#160;&#160;&#160;&#160;&#160;&#160;&#160;&#160;&#160;&#160;&#160;&#160;&#160;&#160;&#160;&#160;&#160;&#160;&#160;&#160;&#160;&#160;Name &#160;&#160;&#160;&#160;&#160;&#160;&#160;&#160;&#160;&#160;&#160;&#160;&#160;&#160;&#160;&#160;&#160;&#160;&#160;&#160;&#160;&#160;&#160;&#160;&#160;&#160;&#160;&#160;&#160;&#160;&#160;&#160;&#160;&#160;&#160;&#160;&#160;&#160;</text>
<polygon fill="none" stroke="#99ccff" points="852.75,-214.5 852.75,-234 953.25,-234 953.25,-214.5 852.75,-214.5"/>
<text text-anchor="start" x="865.88" y="-220.55" font-family="Courier,monospace" font-size="11.00">string(255)</text>
<polygon fill="none" stroke="#99ccff" points="178.5,-195 178.5,-214.5 852.75,-214.5 852.75,-195 178.5,-195"/>
<text text-anchor="start" x="181.5" y="-201.05" font-family="Courier,monospace" font-size="11.00"> &#160;&#160;&#160;&#160;&#160;&#160;&#160;&#160;&#160;&#160;&#160;&#160;&#160;&#160;&#160;&#160;&#160;&#160;&#160;&#160;&#160;&#160;&#160;&#160;&#160;&#160;&#160;&#160;&#160;&#160;&#160;&#160;&#160;&#160;&#160;&#160;&#160;&#160;&#160;&#160;LastModifiedById &#160;&#160;&#160;&#160;&#160;&#160;&#160;&#160;&#160;&#160;&#160;&#160;&#160;&#160;&#160;&#160;&#160;&#160;&#160;&#160;&#160;&#160;&#160;&#160;&#160;&#160;&#160;&#160;&#160;&#160;&#160;&#160;&#160;&#160;&#160;&#160;&#160;&#160;</text>
<polygon fill="none" stroke="#99ccff" points="852.75,-195 852.75,-214.5 953.25,-214.5 953.25,-195 852.75,-195"/>
<text text-anchor="start" x="859.12" y="-201.05" font-family="Courier,monospace" font-size="11.00">reference(18)</text>
<polygon fill="none" stroke="#99ccff" points="178.5,-175.5 178.5,-195 852.75,-195 852.75,-175.5 178.5,-175.5"/>
<text text-anchor="start" x="181.5" y="-181.55" font-family="Courier,monospace" font-size="11.00"> &#160;&#160;&#160;&#160;&#160;&#160;&#160;&#160;&#160;&#160;&#160;&#160;&#160;&#160;&#160;&#160;&#160;&#160;&#160;&#160;&#160;&#160;&#160;&#160;&#160;&#160;&#160;&#160;&#160;&#160;&#160;&#160;&#160;&#160;&#160;&#160;&#160;&#160;&#160;&#160;LastViewedDate &#160;&#160;&#160;&#160;&#160;&#160;&#160;&#160;&#160;&#160;&#160;&#160;&#160;&#160;&#160;&#160;&#160;&#160;&#160;&#160;&#160;&#160;&#160;&#160;&#160;&#160;&#160;&#160;&#160;&#160;&#160;&#160;&#160;&#160;&#160;&#160;&#160;&#160;</text>
<polygon fill="none" stroke="#99ccff" points="852.75,-175.5 852.75,-195 953.25,-195 953.25,-175.5 852.75,-175.5"/>
<text text-anchor="start" x="876" y="-181.55" font-family="Courier,monospace" font-size="11.00">datetime</text>
<polygon fill="none" stroke="#99ccff" points="178.5,-156 178.5,-175.5 852.75,-175.5 852.75,-156 178.5,-156"/>
<text text-anchor="start" x="181.5" y="-162.05" font-family="Courier,monospace" font-size="11.00"> &#160;&#160;&#160;&#160;&#160;&#160;&#160;&#160;&#160;&#160;&#160;&#160;&#160;&#160;&#160;&#160;&#160;&#160;&#160;&#160;&#160;&#160;&#160;&#160;&#160;&#160;&#160;&#160;&#160;&#160;&#160;&#160;&#160;&#160;&#160;&#160;&#160;&#160;&#160;&#160;LastReferencedDate &#160;&#160;&#160;&#160;&#160;&#160;&#160;&#160;&#160;&#160;&#160;&#160;&#160;&#160;&#160;&#160;&#160;&#160;&#160;&#160;&#160;&#160;&#160;&#160;&#160;&#160;&#160;&#160;&#160;&#160;&#160;&#160;&#160;&#160;&#160;&#160;&#160;&#160;</text>
<polygon fill="none" stroke="#99ccff" points="852.75,-156 852.75,-175.5 953.25,-175.5 953.25,-156 852.75,-156"/>
<text text-anchor="start" x="876" y="-162.05" font-family="Courier,monospace" font-size="11.00">datetime</text>
<polygon fill="none" stroke="#99ccff" points="178.5,-136.5 178.5,-156 852.75,-156 852.75,-136.5 178.5,-136.5"/>
<text text-anchor="start" x="181.5" y="-142.55" font-family="Courier,monospace" font-size="11.00"> &#160;&#160;&#160;&#160;&#160;&#160;&#160;&#160;&#160;&#160;&#160;&#160;&#160;&#160;&#160;&#160;&#160;&#160;&#160;&#160;&#160;&#160;&#160;&#160;&#160;&#160;&#160;&#160;&#160;&#160;&#160;&#160;&#160;&#160;&#160;&#160;&#160;&#160;&#160;&#160;ParentProductId &#160;&#160;&#160;&#160;&#160;&#160;&#160;&#160;&#160;&#160;&#160;&#160;&#160;&#160;&#160;&#160;&#160;&#160;&#160;&#160;&#160;&#160;&#160;&#160;&#160;&#160;&#160;&#160;&#160;&#160;&#160;&#160;&#160;&#160;&#160;&#160;&#160;&#160;</text>
<polygon fill="none" stroke="#99ccff" points="852.75,-136.5 852.75,-156 953.25,-156 953.25,-136.5 852.75,-136.5"/>
<text text-anchor="start" x="859.12" y="-142.55" font-family="Courier,monospace" font-size="11.00">reference(18)</text>
<polygon fill="none" stroke="#99ccff" points="178.5,-117 178.5,-136.5 852.75,-136.5 852.75,-117 178.5,-117"/>
<text text-anchor="start" x="181.5" y="-123.05" font-family="Courier,monospace" font-size="11.00"> &#160;&#160;&#160;&#160;&#160;&#160;&#160;&#160;&#160;&#160;&#160;&#160;&#160;&#160;&#160;&#160;&#160;&#160;&#160;&#160;&#160;&#160;&#160;&#160;&#160;&#160;&#160;&#160;&#160;&#160;&#160;&#160;&#160;&#160;&#160;&#160;&#160;&#160;&#160;&#160;ParentGroupId &#160;&#160;&#160;&#160;&#160;&#160;&#160;&#160;&#160;&#160;&#160;&#160;&#160;&#160;&#160;&#160;&#160;&#160;&#160;&#160;&#160;&#160;&#160;&#160;&#160;&#160;&#160;&#160;&#160;&#160;&#160;&#160;&#160;&#160;&#160;&#160;&#160;&#160;</text>
<polygon fill="none" stroke="#99ccff" points="852.75,-117 852.75,-136.5 953.25,-136.5 953.25,-117 852.75,-117"/>
<text text-anchor="start" x="859.12" y="-123.05" font-family="Courier,monospace" font-size="11.00">reference(18)</text>
<polygon fill="none" stroke="#99ccff" points="178.5,-97.5 178.5,-117 852.75,-117 852.75,-97.5 178.5,-97.5"/>
<text text-anchor="start" x="181.5" y="-103.55" font-family="Courier,monospace" font-size="11.00"> &#160;&#160;&#160;&#160;&#160;&#160;&#160;&#160;&#160;&#160;&#160;&#160;&#160;&#160;&#160;&#160;&#160;&#160;&#160;&#160;&#160;&#160;&#160;&#160;&#160;&#160;&#160;&#160;&#160;&#160;&#160;&#160;&#160;&#160;&#160;&#160;&#160;&#160;&#160;&#160;MinBundleComponents &#160;&#160;&#160;&#160;&#160;&#160;&#160;&#160;&#160;&#160;&#160;&#160;&#160;&#160;&#160;&#160;&#160;&#160;&#160;&#160;&#160;&#160;&#160;&#160;&#160;&#160;&#160;&#160;&#160;&#160;&#160;&#160;&#160;&#160;&#160;&#160;&#160;&#160;</text>
<polygon fill="none" stroke="#99ccff" points="852.75,-97.5 852.75,-117 953.25,-117 953.25,-97.5 852.75,-97.5"/>
<text text-anchor="start" x="892.88" y="-103.55" font-family="Courier,monospace" font-size="11.00">int</text>
<polygon fill="none" stroke="#99ccff" points="178.5,-78 178.5,-97.5 852.75,-97.5 852.75,-78 178.5,-78"/>
<text text-anchor="start" x="181.5" y="-84.05" font-family="Courier,monospace" font-size="11.00"> &#160;&#160;&#160;&#160;&#160;&#160;&#160;&#160;&#160;&#160;&#160;&#160;&#160;&#160;&#160;&#160;&#160;&#160;&#160;&#160;&#160;&#160;&#160;&#160;&#160;&#160;&#160;&#160;&#160;&#160;&#160;&#160;&#160;&#160;&#160;&#160;&#160;&#160;&#160;&#160;MaxBundleComponents &#160;&#160;&#160;&#160;&#160;&#160;&#160;&#160;&#160;&#160;&#160;&#160;&#160;&#160;&#160;&#160;&#160;&#160;&#160;&#160;&#160;&#160;&#160;&#160;&#160;&#160;&#160;&#160;&#160;&#160;&#160;&#160;&#160;&#160;&#160;&#160;&#160;&#160;</text>
<polygon fill="none" stroke="#99ccff" points="852.75,-78 852.75,-97.5 953.25,-97.5 953.25,-78 852.75,-78"/>
<text text-anchor="start" x="892.88" y="-84.05" font-family="Courier,monospace" font-size="11.00">int</text>
<polygon fill="none" stroke="#99ccff" points="178.5,-58.5 178.5,-78 852.75,-78 852.75,-58.5 178.5,-58.5"/>
<text text-anchor="start" x="181.5" y="-64.55" font-family="Courier,monospace" font-size="11.00"> &#160;&#160;&#160;&#160;&#160;&#160;&#160;&#160;&#160;&#160;&#160;&#160;&#160;&#160;&#160;&#160;&#160;&#160;&#160;&#160;&#160;&#160;&#160;&#160;&#160;&#160;&#160;&#160;&#160;&#160;&#160;&#160;&#160;&#160;&#160;&#160;&#160;&#160;&#160;&#160;Description &#160;&#160;&#160;&#160;&#160;&#160;&#160;&#160;&#160;&#160;&#160;&#160;&#160;&#160;&#160;&#160;&#160;&#160;&#160;&#160;&#160;&#160;&#160;&#160;&#160;&#160;&#160;&#160;&#160;&#160;&#160;&#160;&#160;&#160;&#160;&#160;&#160;&#160;</text>
<polygon fill="none" stroke="#99ccff" points="852.75,-58.5 852.75,-78 953.25,-78 953.25,-58.5 852.75,-58.5"/>
<text text-anchor="start" x="855.75" y="-64.55" font-family="Courier,monospace" font-size="11.00">textarea(4000)</text>
<polygon fill="none" stroke="#99ccff" points="178.5,-39 178.5,-58.5 852.75,-58.5 852.75,-39 178.5,-39"/>
<text text-anchor="start" x="181.5" y="-45.05" font-family="Courier,monospace" font-size="11.00"> &#160;&#160;&#160;&#160;&#160;&#160;&#160;&#160;&#160;&#160;&#160;&#160;&#160;&#160;&#160;&#160;&#160;&#160;&#160;&#160;&#160;&#160;&#160;&#160;&#160;&#160;&#160;&#160;&#160;&#160;&#160;&#160;&#160;&#160;&#160;&#160;&#160;&#160;&#160;&#160;Sequence &#160;&#160;&#160;&#160;&#160;&#160;&#160;&#160;&#160;&#160;&#160;&#160;&#160;&#160;&#160;&#160;&#160;&#160;&#160;&#160;&#160;&#160;&#160;&#160;&#160;&#160;&#160;&#160;&#160;&#160;&#160;&#160;&#160;&#160;&#160;&#160;&#160;&#160;</text>
<polygon fill="none" stroke="#99ccff" points="852.75,-39 852.75,-58.5 953.25,-58.5 953.25,-39 852.75,-39"/>
<text text-anchor="start" x="892.88" y="-45.05" font-family="Courier,monospace" font-size="11.00">int</text>
<polygon fill="none" stroke="#99ccff" points="178.5,-19.5 178.5,-39 852.75,-39 852.75,-19.5 178.5,-19.5"/>
<text text-anchor="start" x="181.5" y="-25.55" font-family="Courier,monospace" font-size="11.00"> &#160;&#160;&#160;&#160;&#160;&#160;&#160;&#160;&#160;&#160;&#160;&#160;&#160;&#160;&#160;&#160;&#160;&#160;&#160;&#160;&#160;&#160;&#160;&#160;&#160;&#160;&#160;&#160;&#160;&#160;&#160;&#160;&#160;&#160;&#160;&#160;&#160;&#160;&#160;&#160;Code &#160;&#160;&#160;&#160;&#160;&#160;&#160;&#160;&#160;&#160;&#160;&#160;&#160;&#160;&#160;&#160;&#160;&#160;&#160;&#160;&#160;&#160;&#160;&#160;&#160;&#160;&#160;&#160;&#160;&#160;&#160;&#160;&#160;&#160;&#160;&#160;&#160;&#160;</text>
<polygon fill="none" stroke="#99ccff" points="852.75,-19.5 852.75,-39 953.25,-39 953.25,-19.5 852.75,-19.5"/>
<text text-anchor="start" x="865.88" y="-25.55" font-family="Courier,monospace" font-size="11.00">string(255)</text>
<polygon fill="none" stroke="#99ccff" points="177.5,-18.5 177.5,-313 954.25,-313 954.25,-18.5 177.5,-18.5"/>
</a>
</g>
</g>
<!-- ProductComponentGroup&#45;&gt;ProductComponentGroup -->
<g id="edge5" class="edge">
<title>ProductComponentGroup:w&#45;&gt;ProductComponentGroup:e</title>
<path fill="none" stroke="#3e7ab7" d="M164.6,-134.31C68.83,-192.7 87.64,-326 515.62,-326 963.28,-326 963.28,-317.33 852.75,-282.75"/>
<polygon fill="#3e7ab7" stroke="#3e7ab7" points="171.18,-130.73 179.93,-130.07 174.99,-128.66 177.91,-127.07 177.91,-127.07 177.91,-127.07 174.99,-128.66 176.49,-123.75 171.18,-130.73"/>
<ellipse fill="none" stroke="#3e7ab7" cx="166.86" cy="-133.08" rx="3.2" ry="3.2"/>
<text text-anchor="middle" x="565.88" y="-328.85" font-family="Arial" font-size="12.00">ParentGroup</text>
</g>
<!-- Group -->
<g id="node2" class="node">
<title>Group</title>
<text text-anchor="middle" x="35" y="-259.05" font-family="Courier,monospace" font-size="11.00">Group</text>
</g>
<!-- ProductComponentGroup&#45;&gt;Group -->
<g id="edge1" class="edge">
<title>ProductComponentGroup:w&#45;&gt;Group:e</title>
<path fill="none" stroke="#ff99cc" d="M162.09,-263.24C125.65,-263.2 86.64,-263.03 61.82,-262.9"/>
<polygon fill="#ff99cc" stroke="#ff99cc" points="169.17,-263.24 177.16,-266.85 173.5,-263.25 176.83,-263.25 176.83,-263.25 176.83,-263.25 173.5,-263.25 177.17,-259.65 169.17,-263.24"/>
<ellipse fill="none" stroke="#ff99cc" cx="164.25" cy="-263.24" rx="3.2" ry="3.2"/>
<text text-anchor="middle" x="123.75" y="-265.94" font-family="Monaco" font-size="9.00">Owner</text>
</g>
<!-- User -->
<g id="node3" class="node">
<title>User</title>
<text text-anchor="middle" x="35" y="-206.05" font-family="Courier,monospace" font-size="11.00">User</text>
</g>
<!-- ProductComponentGroup&#45;&gt;User -->
<g id="edge2" class="edge">
<title>ProductComponentGroup:w&#45;&gt;User:e</title>
<path fill="none" stroke="#ff99cc" d="M167.75,-250.81C166.89,-245.32 165.86,-239.27 160.5,-235.5 152.51,-229.88 96.05,-219.72 61.97,-213.99"/>
<polygon fill="#ff99cc" stroke="#ff99cc" points="172.36,-256.69 174.46,-265.21 175.03,-260.1 177.09,-262.72 177.09,-262.72 177.09,-262.72 175.03,-260.1 180.13,-260.77 172.36,-256.69"/>
<ellipse fill="none" stroke="#ff99cc" cx="169.32" cy="-252.82" rx="3.2" ry="3.2"/>
<text text-anchor="middle" x="123.75" y="-238.2" font-family="Monaco" font-size="9.00">Owner</text>
</g>
<!-- ProductComponentGroup&#45;&gt;User -->
<g id="edge3" class="edge">
<title>ProductComponentGroup:w&#45;&gt;User:e</title>
<path fill="none" stroke="#ff99cc" d="M161.85,-204.51C161.42,-204.51 160.97,-204.5 160.5,-204.5 127.83,-204.26 119.62,-202.83 87,-204.5 78.82,-204.92 69.94,-205.72 61.91,-206.56"/>
<polygon fill="#ff99cc" stroke="#ff99cc" points="169.17,-204.62 177.11,-208.34 173.5,-204.69 176.83,-204.74 176.83,-204.74 176.83,-204.74 173.5,-204.69 177.22,-201.15 169.17,-204.62"/>
<ellipse fill="none" stroke="#ff99cc" cx="164.25" cy="-204.55" rx="3.2" ry="3.2"/>
<text text-anchor="middle" x="123.75" y="-207.2" font-family="Monaco" font-size="9.00">LastModifiedBy</text>
</g>
<!-- Product2 -->
<g id="node4" class="node">
<title>Product2</title>
<text text-anchor="middle" x="35" y="-143.05" font-family="Courier,monospace" font-size="11.00">Product2</text>
</g>
<!-- ProductComponentGroup&#45;&gt;Product2 -->
<g id="edge4" class="edge">
<title>ProductComponentGroup:w&#45;&gt;Product2:e</title>
<path fill="none" stroke="#ff99cc" d="M161.69,-146.26C129.04,-146.3 94.37,-146.44 69.74,-146.56"/>
<polygon fill="#ff99cc" stroke="#ff99cc" points="169.17,-146.26 177.17,-149.85 173.5,-146.25 176.83,-146.25 176.83,-146.25 176.83,-146.25 173.5,-146.25 177.16,-142.65 169.17,-146.26"/>
<ellipse fill="none" stroke="#ff99cc" cx="164.25" cy="-146.26" rx="3.2" ry="3.2"/>
<text text-anchor="middle" x="123.75" y="-149.17" font-family="Monaco" font-size="9.00">ParentProduct</text>
</g>
</g>
</svg>
