<?xml version="1.0" encoding="UTF-8" standalone="no"?>
<!DOCTYPE svg PUBLIC "-//W3C//DTD SVG 1.1//EN"
 "http://www.w3.org/Graphics/SVG/1.1/DTD/svg11.dtd">
<!-- Generated by graphviz version 12.2.1 (20241206.2353)
 -->
<!-- Title: Salesforce+ ERD Pages: 1 -->
<svg width="1158pt" height="399pt"
 viewBox="0.00 0.00 1158.00 399.00" xmlns="http://www.w3.org/2000/svg" xmlns:xlink="http://www.w3.org/1999/xlink">
<g id="graph0" class="graph" transform="scale(1 1) rotate(0) translate(4 395)">
<title>Salesforce+ ERD</title>
<polygon fill="#efeffd" stroke="none" points="-4,4 -4,-395 1154,-395 1154,4 -4,4"/>
<text text-anchor="middle" x="1102.62" y="-5.95" font-family="Courier,monospace" font-size="9.00">Salesforce ERD </text>
<!-- ProductRelComponentOverride -->
<g id="node1" class="node">
<title>ProductRelComponentOverride</title>
<g id="a_node1"><a xlink:href="#" xlink:title=" ProductRelComponentOverride ">
<polygon fill="#ffeeff" stroke="none" points="326,-18.5 326,-391 1150,-391 1150,-18.5 326,-18.5"/>
<polygon fill="lightblue" stroke="none" points="327,-370.5 327,-390 1149,-390 1149,-370.5 327,-370.5"/>
<polygon fill="none" stroke="#99ccff" points="327,-370.5 327,-390 1149,-390 1149,-370.5 327,-370.5"/>
<text text-anchor="start" x="646.88" y="-377.55" font-family="Courier,monospace" font-weight="bold" font-size="11.00">ProductRelComponentOverride</text>
<polygon fill="#99ccff" stroke="none" points="327,-351 327,-370.5 1055.25,-370.5 1055.25,-351 327,-351"/>
<polygon fill="none" stroke="#99ccff" points="327,-351 327,-370.5 1055.25,-370.5 1055.25,-351 327,-351"/>
<text text-anchor="start" x="330" y="-358.05" font-family="Courier,monospace" font-size="11.00"> &#160;&#160;&#160;&#160;&#160;&#160;&#160;&#160;&#160;&#160;&#160;&#160;&#160;&#160;&#160;&#160;&#160;&#160;&#160;&#160;&#160;&#160;&#160;&#160;&#160;&#160;&#160;&#160;&#160;&#160;&#160;&#160;&#160;&#160;&#160;&#160;&#160;&#160;&#160;&#160;&#160;&#160;</text>
<text text-anchor="start" x="620.25" y="-358.05" font-family="Courier,monospace" font-weight="bold" font-size="11.00">Id</text>
<text text-anchor="start" x="633.75" y="-358.05" font-family="Courier,monospace" font-size="11.00"> &#160;&#160;&#160;&#160;&#160;&#160;&#160;&#160;&#160;&#160;&#160;&#160;&#160;&#160;&#160;&#160;&#160;&#160;&#160;&#160;&#160;&#160;&#160;&#160;&#160;&#160;&#160;&#160;&#160;&#160;&#160;&#160;&#160;&#160;&#160;&#160;&#160;&#160;&#160;</text>
<polygon fill="none" stroke="#99ccff" points="1055.25,-351 1055.25,-370.5 1149,-370.5 1149,-351 1055.25,-351"/>
<text text-anchor="start" x="1081.88" y="-357.05" font-family="Courier,monospace" font-size="11.00">id(18)</text>
<polygon fill="none" stroke="#99ccff" points="327,-331.5 327,-351 1055.25,-351 1055.25,-331.5 327,-331.5"/>
<text text-anchor="start" x="330" y="-337.55" font-family="Courier,monospace" font-size="11.00"> &#160;&#160;&#160;&#160;&#160;&#160;&#160;&#160;&#160;&#160;&#160;&#160;&#160;&#160;&#160;&#160;&#160;&#160;&#160;&#160;&#160;&#160;&#160;&#160;&#160;&#160;&#160;&#160;&#160;&#160;&#160;&#160;&#160;&#160;&#160;&#160;&#160;&#160;&#160;&#160;OwnerId &#160;&#160;&#160;&#160;&#160;&#160;&#160;&#160;&#160;&#160;&#160;&#160;&#160;&#160;&#160;&#160;&#160;&#160;&#160;&#160;&#160;&#160;&#160;&#160;&#160;&#160;&#160;&#160;&#160;&#160;&#160;&#160;&#160;&#160;&#160;&#160;&#160;&#160;</text>
<polygon fill="none" stroke="#99ccff" points="1055.25,-331.5 1055.25,-351 1149,-351 1149,-331.5 1055.25,-331.5"/>
<text text-anchor="start" x="1058.25" y="-337.55" font-family="Courier,monospace" font-size="11.00">reference(18)</text>
<polygon fill="none" stroke="#99ccff" points="327,-312 327,-331.5 1055.25,-331.5 1055.25,-312 327,-312"/>
<text text-anchor="start" x="330" y="-318.05" font-family="Courier,monospace" font-size="11.00"> &#160;&#160;&#160;&#160;&#160;&#160;&#160;&#160;&#160;&#160;&#160;&#160;&#160;&#160;&#160;&#160;&#160;&#160;&#160;&#160;&#160;&#160;&#160;&#160;&#160;&#160;&#160;&#160;&#160;&#160;&#160;&#160;&#160;&#160;&#160;&#160;&#160;&#160;&#160;&#160;IsDeleted &#160;&#160;&#160;&#160;&#160;&#160;&#160;&#160;&#160;&#160;&#160;&#160;&#160;&#160;&#160;&#160;&#160;&#160;&#160;&#160;&#160;&#160;&#160;&#160;&#160;&#160;&#160;&#160;&#160;&#160;&#160;&#160;&#160;&#160;&#160;&#160;&#160;&#160;</text>
<polygon fill="none" stroke="#99ccff" points="1055.25,-312 1055.25,-331.5 1149,-331.5 1149,-312 1055.25,-312"/>
<text text-anchor="start" x="1078.5" y="-318.05" font-family="Courier,monospace" font-size="11.00">boolean</text>
<polygon fill="none" stroke="#99ccff" points="327,-292.5 327,-312 1055.25,-312 1055.25,-292.5 327,-292.5"/>
<text text-anchor="start" x="330" y="-298.55" font-family="Courier,monospace" font-size="11.00"> &#160;&#160;&#160;&#160;&#160;&#160;&#160;&#160;&#160;&#160;&#160;&#160;&#160;&#160;&#160;&#160;&#160;&#160;&#160;&#160;&#160;&#160;&#160;&#160;&#160;&#160;&#160;&#160;&#160;&#160;&#160;&#160;&#160;&#160;&#160;&#160;&#160;&#160;&#160;&#160;Name &#160;&#160;&#160;&#160;&#160;&#160;&#160;&#160;&#160;&#160;&#160;&#160;&#160;&#160;&#160;&#160;&#160;&#160;&#160;&#160;&#160;&#160;&#160;&#160;&#160;&#160;&#160;&#160;&#160;&#160;&#160;&#160;&#160;&#160;&#160;&#160;&#160;&#160;</text>
<polygon fill="none" stroke="#99ccff" points="1055.25,-292.5 1055.25,-312 1149,-312 1149,-292.5 1055.25,-292.5"/>
<text text-anchor="start" x="1065" y="-298.55" font-family="Courier,monospace" font-size="11.00">string(255)</text>
<polygon fill="none" stroke="#99ccff" points="327,-273 327,-292.5 1055.25,-292.5 1055.25,-273 327,-273"/>
<text text-anchor="start" x="330" y="-279.05" font-family="Courier,monospace" font-size="11.00"> &#160;&#160;&#160;&#160;&#160;&#160;&#160;&#160;&#160;&#160;&#160;&#160;&#160;&#160;&#160;&#160;&#160;&#160;&#160;&#160;&#160;&#160;&#160;&#160;&#160;&#160;&#160;&#160;&#160;&#160;&#160;&#160;&#160;&#160;&#160;&#160;&#160;&#160;&#160;&#160;LastModifiedById &#160;&#160;&#160;&#160;&#160;&#160;&#160;&#160;&#160;&#160;&#160;&#160;&#160;&#160;&#160;&#160;&#160;&#160;&#160;&#160;&#160;&#160;&#160;&#160;&#160;&#160;&#160;&#160;&#160;&#160;&#160;&#160;&#160;&#160;&#160;&#160;&#160;&#160;</text>
<polygon fill="none" stroke="#99ccff" points="1055.25,-273 1055.25,-292.5 1149,-292.5 1149,-273 1055.25,-273"/>
<text text-anchor="start" x="1058.25" y="-279.05" font-family="Courier,monospace" font-size="11.00">reference(18)</text>
<polygon fill="none" stroke="#99ccff" points="327,-253.5 327,-273 1055.25,-273 1055.25,-253.5 327,-253.5"/>
<text text-anchor="start" x="330" y="-259.55" font-family="Courier,monospace" font-size="11.00"> &#160;&#160;&#160;&#160;&#160;&#160;&#160;&#160;&#160;&#160;&#160;&#160;&#160;&#160;&#160;&#160;&#160;&#160;&#160;&#160;&#160;&#160;&#160;&#160;&#160;&#160;&#160;&#160;&#160;&#160;&#160;&#160;&#160;&#160;&#160;&#160;&#160;&#160;&#160;&#160;LastViewedDate &#160;&#160;&#160;&#160;&#160;&#160;&#160;&#160;&#160;&#160;&#160;&#160;&#160;&#160;&#160;&#160;&#160;&#160;&#160;&#160;&#160;&#160;&#160;&#160;&#160;&#160;&#160;&#160;&#160;&#160;&#160;&#160;&#160;&#160;&#160;&#160;&#160;&#160;</text>
<polygon fill="none" stroke="#99ccff" points="1055.25,-253.5 1055.25,-273 1149,-273 1149,-253.5 1055.25,-253.5"/>
<text text-anchor="start" x="1075.12" y="-259.55" font-family="Courier,monospace" font-size="11.00">datetime</text>
<polygon fill="none" stroke="#99ccff" points="327,-234 327,-253.5 1055.25,-253.5 1055.25,-234 327,-234"/>
<text text-anchor="start" x="330" y="-240.05" font-family="Courier,monospace" font-size="11.00"> &#160;&#160;&#160;&#160;&#160;&#160;&#160;&#160;&#160;&#160;&#160;&#160;&#160;&#160;&#160;&#160;&#160;&#160;&#160;&#160;&#160;&#160;&#160;&#160;&#160;&#160;&#160;&#160;&#160;&#160;&#160;&#160;&#160;&#160;&#160;&#160;&#160;&#160;&#160;&#160;LastReferencedDate &#160;&#160;&#160;&#160;&#160;&#160;&#160;&#160;&#160;&#160;&#160;&#160;&#160;&#160;&#160;&#160;&#160;&#160;&#160;&#160;&#160;&#160;&#160;&#160;&#160;&#160;&#160;&#160;&#160;&#160;&#160;&#160;&#160;&#160;&#160;&#160;&#160;&#160;</text>
<polygon fill="none" stroke="#99ccff" points="1055.25,-234 1055.25,-253.5 1149,-253.5 1149,-234 1055.25,-234"/>
<text text-anchor="start" x="1075.12" y="-240.05" font-family="Courier,monospace" font-size="11.00">datetime</text>
<polygon fill="none" stroke="#99ccff" points="327,-214.5 327,-234 1055.25,-234 1055.25,-214.5 327,-214.5"/>
<text text-anchor="start" x="330" y="-220.55" font-family="Courier,monospace" font-size="11.00"> &#160;&#160;&#160;&#160;&#160;&#160;&#160;&#160;&#160;&#160;&#160;&#160;&#160;&#160;&#160;&#160;&#160;&#160;&#160;&#160;&#160;&#160;&#160;&#160;&#160;&#160;&#160;&#160;&#160;&#160;&#160;&#160;&#160;&#160;&#160;&#160;&#160;&#160;&#160;&#160;MaxQuantity &#160;&#160;&#160;&#160;&#160;&#160;&#160;&#160;&#160;&#160;&#160;&#160;&#160;&#160;&#160;&#160;&#160;&#160;&#160;&#160;&#160;&#160;&#160;&#160;&#160;&#160;&#160;&#160;&#160;&#160;&#160;&#160;&#160;&#160;&#160;&#160;&#160;&#160;</text>
<polygon fill="none" stroke="#99ccff" points="1055.25,-214.5 1055.25,-234 1149,-234 1149,-214.5 1055.25,-214.5"/>
<text text-anchor="start" x="1081.88" y="-220.55" font-family="Courier,monospace" font-size="11.00">double</text>
<polygon fill="none" stroke="#99ccff" points="327,-195 327,-214.5 1055.25,-214.5 1055.25,-195 327,-195"/>
<text text-anchor="start" x="330" y="-201.05" font-family="Courier,monospace" font-size="11.00"> &#160;&#160;&#160;&#160;&#160;&#160;&#160;&#160;&#160;&#160;&#160;&#160;&#160;&#160;&#160;&#160;&#160;&#160;&#160;&#160;&#160;&#160;&#160;&#160;&#160;&#160;&#160;&#160;&#160;&#160;&#160;&#160;&#160;&#160;&#160;&#160;&#160;&#160;&#160;&#160;MinQuantity &#160;&#160;&#160;&#160;&#160;&#160;&#160;&#160;&#160;&#160;&#160;&#160;&#160;&#160;&#160;&#160;&#160;&#160;&#160;&#160;&#160;&#160;&#160;&#160;&#160;&#160;&#160;&#160;&#160;&#160;&#160;&#160;&#160;&#160;&#160;&#160;&#160;&#160;</text>
<polygon fill="none" stroke="#99ccff" points="1055.25,-195 1055.25,-214.5 1149,-214.5 1149,-195 1055.25,-195"/>
<text text-anchor="start" x="1081.88" y="-201.05" font-family="Courier,monospace" font-size="11.00">double</text>
<polygon fill="none" stroke="#99ccff" points="327,-175.5 327,-195 1055.25,-195 1055.25,-175.5 327,-175.5"/>
<text text-anchor="start" x="330" y="-181.55" font-family="Courier,monospace" font-size="11.00"> &#160;&#160;&#160;&#160;&#160;&#160;&#160;&#160;&#160;&#160;&#160;&#160;&#160;&#160;&#160;&#160;&#160;&#160;&#160;&#160;&#160;&#160;&#160;&#160;&#160;&#160;&#160;&#160;&#160;&#160;&#160;&#160;&#160;&#160;&#160;&#160;&#160;&#160;&#160;&#160;Quantity &#160;&#160;&#160;&#160;&#160;&#160;&#160;&#160;&#160;&#160;&#160;&#160;&#160;&#160;&#160;&#160;&#160;&#160;&#160;&#160;&#160;&#160;&#160;&#160;&#160;&#160;&#160;&#160;&#160;&#160;&#160;&#160;&#160;&#160;&#160;&#160;&#160;&#160;</text>
<polygon fill="none" stroke="#99ccff" points="1055.25,-175.5 1055.25,-195 1149,-195 1149,-175.5 1055.25,-175.5"/>
<text text-anchor="start" x="1081.88" y="-181.55" font-family="Courier,monospace" font-size="11.00">double</text>
<polygon fill="none" stroke="#99ccff" points="327,-156 327,-175.5 1055.25,-175.5 1055.25,-156 327,-156"/>
<text text-anchor="start" x="330" y="-162.05" font-family="Courier,monospace" font-size="11.00"> &#160;&#160;&#160;&#160;&#160;&#160;&#160;&#160;&#160;&#160;&#160;&#160;&#160;&#160;&#160;&#160;&#160;&#160;&#160;&#160;&#160;&#160;&#160;&#160;&#160;&#160;&#160;&#160;&#160;&#160;&#160;&#160;&#160;&#160;&#160;&#160;&#160;&#160;&#160;&#160;IsExcluded &#160;&#160;&#160;&#160;&#160;&#160;&#160;&#160;&#160;&#160;&#160;&#160;&#160;&#160;&#160;&#160;&#160;&#160;&#160;&#160;&#160;&#160;&#160;&#160;&#160;&#160;&#160;&#160;&#160;&#160;&#160;&#160;&#160;&#160;&#160;&#160;&#160;&#160;</text>
<polygon fill="none" stroke="#99ccff" points="1055.25,-156 1055.25,-175.5 1149,-175.5 1149,-156 1055.25,-156"/>
<text text-anchor="start" x="1078.5" y="-162.05" font-family="Courier,monospace" font-size="11.00">boolean</text>
<polygon fill="none" stroke="#99ccff" points="327,-136.5 327,-156 1055.25,-156 1055.25,-136.5 327,-136.5"/>
<text text-anchor="start" x="330" y="-142.55" font-family="Courier,monospace" font-size="11.00"> &#160;&#160;&#160;&#160;&#160;&#160;&#160;&#160;&#160;&#160;&#160;&#160;&#160;&#160;&#160;&#160;&#160;&#160;&#160;&#160;&#160;&#160;&#160;&#160;&#160;&#160;&#160;&#160;&#160;&#160;&#160;&#160;&#160;&#160;&#160;&#160;&#160;&#160;&#160;&#160;ProductRelatedComponentId &#160;&#160;&#160;&#160;&#160;&#160;&#160;&#160;&#160;&#160;&#160;&#160;&#160;&#160;&#160;&#160;&#160;&#160;&#160;&#160;&#160;&#160;&#160;&#160;&#160;&#160;&#160;&#160;&#160;&#160;&#160;&#160;&#160;&#160;&#160;&#160;&#160;&#160;</text>
<polygon fill="none" stroke="#99ccff" points="1055.25,-136.5 1055.25,-156 1149,-156 1149,-136.5 1055.25,-136.5"/>
<text text-anchor="start" x="1058.25" y="-142.55" font-family="Courier,monospace" font-size="11.00">reference(18)</text>
<polygon fill="none" stroke="#99ccff" points="327,-117 327,-136.5 1055.25,-136.5 1055.25,-117 327,-117"/>
<text text-anchor="start" x="330" y="-123.05" font-family="Courier,monospace" font-size="11.00"> &#160;&#160;&#160;&#160;&#160;&#160;&#160;&#160;&#160;&#160;&#160;&#160;&#160;&#160;&#160;&#160;&#160;&#160;&#160;&#160;&#160;&#160;&#160;&#160;&#160;&#160;&#160;&#160;&#160;&#160;&#160;&#160;&#160;&#160;&#160;&#160;&#160;&#160;&#160;&#160;OverrideContextId &#160;&#160;&#160;&#160;&#160;&#160;&#160;&#160;&#160;&#160;&#160;&#160;&#160;&#160;&#160;&#160;&#160;&#160;&#160;&#160;&#160;&#160;&#160;&#160;&#160;&#160;&#160;&#160;&#160;&#160;&#160;&#160;&#160;&#160;&#160;&#160;&#160;&#160;</text>
<polygon fill="none" stroke="#99ccff" points="1055.25,-117 1055.25,-136.5 1149,-136.5 1149,-117 1055.25,-117"/>
<text text-anchor="start" x="1058.25" y="-123.05" font-family="Courier,monospace" font-size="11.00">reference(18)</text>
<polygon fill="none" stroke="#99ccff" points="327,-97.5 327,-117 1055.25,-117 1055.25,-97.5 327,-97.5"/>
<text text-anchor="start" x="330" y="-103.55" font-family="Courier,monospace" font-size="11.00"> &#160;&#160;&#160;&#160;&#160;&#160;&#160;&#160;&#160;&#160;&#160;&#160;&#160;&#160;&#160;&#160;&#160;&#160;&#160;&#160;&#160;&#160;&#160;&#160;&#160;&#160;&#160;&#160;&#160;&#160;&#160;&#160;&#160;&#160;&#160;&#160;&#160;&#160;&#160;&#160;IsComponentRequired &#160;&#160;&#160;&#160;&#160;&#160;&#160;&#160;&#160;&#160;&#160;&#160;&#160;&#160;&#160;&#160;&#160;&#160;&#160;&#160;&#160;&#160;&#160;&#160;&#160;&#160;&#160;&#160;&#160;&#160;&#160;&#160;&#160;&#160;&#160;&#160;&#160;&#160;</text>
<polygon fill="none" stroke="#99ccff" points="1055.25,-97.5 1055.25,-117 1149,-117 1149,-97.5 1055.25,-97.5"/>
<text text-anchor="start" x="1078.5" y="-103.55" font-family="Courier,monospace" font-size="11.00">boolean</text>
<polygon fill="none" stroke="#99ccff" points="327,-78 327,-97.5 1055.25,-97.5 1055.25,-78 327,-78"/>
<text text-anchor="start" x="330" y="-84.05" font-family="Courier,monospace" font-size="11.00"> &#160;&#160;&#160;&#160;&#160;&#160;&#160;&#160;&#160;&#160;&#160;&#160;&#160;&#160;&#160;&#160;&#160;&#160;&#160;&#160;&#160;&#160;&#160;&#160;&#160;&#160;&#160;&#160;&#160;&#160;&#160;&#160;&#160;&#160;&#160;&#160;&#160;&#160;&#160;&#160;IsQuantityEditable &#160;&#160;&#160;&#160;&#160;&#160;&#160;&#160;&#160;&#160;&#160;&#160;&#160;&#160;&#160;&#160;&#160;&#160;&#160;&#160;&#160;&#160;&#160;&#160;&#160;&#160;&#160;&#160;&#160;&#160;&#160;&#160;&#160;&#160;&#160;&#160;&#160;&#160;</text>
<polygon fill="none" stroke="#99ccff" points="1055.25,-78 1055.25,-97.5 1149,-97.5 1149,-78 1055.25,-78"/>
<text text-anchor="start" x="1078.5" y="-84.05" font-family="Courier,monospace" font-size="11.00">boolean</text>
<polygon fill="none" stroke="#99ccff" points="327,-58.5 327,-78 1055.25,-78 1055.25,-58.5 327,-58.5"/>
<text text-anchor="start" x="330" y="-64.55" font-family="Courier,monospace" font-size="11.00"> &#160;&#160;&#160;&#160;&#160;&#160;&#160;&#160;&#160;&#160;&#160;&#160;&#160;&#160;&#160;&#160;&#160;&#160;&#160;&#160;&#160;&#160;&#160;&#160;&#160;&#160;&#160;&#160;&#160;&#160;&#160;&#160;&#160;&#160;&#160;&#160;&#160;&#160;&#160;&#160;IsDefaultComponent &#160;&#160;&#160;&#160;&#160;&#160;&#160;&#160;&#160;&#160;&#160;&#160;&#160;&#160;&#160;&#160;&#160;&#160;&#160;&#160;&#160;&#160;&#160;&#160;&#160;&#160;&#160;&#160;&#160;&#160;&#160;&#160;&#160;&#160;&#160;&#160;&#160;&#160;</text>
<polygon fill="none" stroke="#99ccff" points="1055.25,-58.5 1055.25,-78 1149,-78 1149,-58.5 1055.25,-58.5"/>
<text text-anchor="start" x="1078.5" y="-64.55" font-family="Courier,monospace" font-size="11.00">boolean</text>
<polygon fill="none" stroke="#99ccff" points="327,-39 327,-58.5 1055.25,-58.5 1055.25,-39 327,-39"/>
<text text-anchor="start" x="330" y="-45.05" font-family="Courier,monospace" font-size="11.00"> &#160;&#160;&#160;&#160;&#160;&#160;&#160;&#160;&#160;&#160;&#160;&#160;&#160;&#160;&#160;&#160;&#160;&#160;&#160;&#160;&#160;&#160;&#160;&#160;&#160;&#160;&#160;&#160;&#160;&#160;&#160;&#160;&#160;&#160;&#160;&#160;&#160;&#160;&#160;&#160;DoesBundlePriceIncludeChild &#160;&#160;&#160;&#160;&#160;&#160;&#160;&#160;&#160;&#160;&#160;&#160;&#160;&#160;&#160;&#160;&#160;&#160;&#160;&#160;&#160;&#160;&#160;&#160;&#160;&#160;&#160;&#160;&#160;&#160;&#160;&#160;&#160;&#160;&#160;&#160;&#160;&#160;</text>
<polygon fill="none" stroke="#99ccff" points="1055.25,-39 1055.25,-58.5 1149,-58.5 1149,-39 1055.25,-39"/>
<text text-anchor="start" x="1078.5" y="-45.05" font-family="Courier,monospace" font-size="11.00">boolean</text>
<polygon fill="none" stroke="#99ccff" points="327,-19.5 327,-39 1055.25,-39 1055.25,-19.5 327,-19.5"/>
<text text-anchor="start" x="330" y="-25.55" font-family="Courier,monospace" font-size="11.00"> &#160;&#160;&#160;&#160;&#160;&#160;&#160;&#160;&#160;&#160;&#160;&#160;&#160;&#160;&#160;&#160;&#160;&#160;&#160;&#160;&#160;&#160;&#160;&#160;&#160;&#160;&#160;&#160;&#160;&#160;&#160;&#160;&#160;&#160;&#160;&#160;&#160;&#160;&#160;&#160;QuantityScaleMethod &#160;&#160;&#160;&#160;&#160;&#160;&#160;&#160;&#160;&#160;&#160;&#160;&#160;&#160;&#160;&#160;&#160;&#160;&#160;&#160;&#160;&#160;&#160;&#160;&#160;&#160;&#160;&#160;&#160;&#160;&#160;&#160;&#160;&#160;&#160;&#160;&#160;&#160;</text>
<polygon fill="none" stroke="#99ccff" points="1055.25,-19.5 1055.25,-39 1149,-39 1149,-19.5 1055.25,-19.5"/>
<text text-anchor="start" x="1058.25" y="-25.55" font-family="Courier,monospace" font-size="11.00">picklist(255)</text>
<polygon fill="none" stroke="#99ccff" points="326,-18.5 326,-391 1150,-391 1150,-18.5 326,-18.5"/>
</a>
</g>
</g>
<!-- Group -->
<g id="node2" class="node">
<title>Group</title>
<text text-anchor="middle" x="85.62" y="-337.05" font-family="Courier,monospace" font-size="11.00">Group</text>
</g>
<!-- ProductRelComponentOverride&#45;&gt;Group -->
<g id="edge1" class="edge">
<title>ProductRelComponentOverride:w&#45;&gt;Group:e</title>
<path fill="none" stroke="#ff99cc" d="M310.35,-341.25C236.29,-341.22 153.47,-340.97 112.48,-340.84"/>
<polygon fill="#ff99cc" stroke="#ff99cc" points="317.67,-341.25 325.66,-344.85 322,-341.25 325.33,-341.25 325.33,-341.25 325.33,-341.25 322,-341.25 325.67,-337.65 317.67,-341.25"/>
<ellipse fill="none" stroke="#ff99cc" cx="312.75" cy="-341.25" rx="3.2" ry="3.2"/>
<text text-anchor="middle" x="248.62" y="-343.94" font-family="Monaco" font-size="9.00">Owner</text>
</g>
<!-- User -->
<g id="node3" class="node">
<title>User</title>
<text text-anchor="middle" x="85.62" y="-284.05" font-family="Courier,monospace" font-size="11.00">User</text>
</g>
<!-- ProductRelComponentOverride&#45;&gt;User -->
<g id="edge2" class="edge">
<title>ProductRelComponentOverride:w&#45;&gt;User:e</title>
<path fill="none" stroke="#ff99cc" d="M316.43,-328.88C315.6,-323.26 314.62,-317.09 309,-313.5 292.7,-303.1 167.37,-293.31 112.37,-289.46"/>
<polygon fill="#ff99cc" stroke="#ff99cc" points="320.9,-334.66 322.95,-343.19 323.55,-338.09 325.59,-340.72 325.59,-340.72 325.59,-340.72 323.55,-338.09 328.64,-338.78 320.9,-334.66"/>
<ellipse fill="none" stroke="#ff99cc" cx="317.89" cy="-330.77" rx="3.2" ry="3.2"/>
<text text-anchor="middle" x="248.62" y="-316.2" font-family="Monaco" font-size="9.00">Owner</text>
</g>
<!-- ProductRelComponentOverride&#45;&gt;User -->
<g id="edge3" class="edge">
<title>ProductRelComponentOverride:w&#45;&gt;User:e</title>
<path fill="none" stroke="#ff99cc" d="M310.36,-281.56C309.92,-281.54 309.47,-281.52 309,-281.5 255.37,-279.53 241.89,-279.85 188.25,-281.5 162.45,-282.29 133.03,-284.21 112.5,-285.72"/>
<polygon fill="#ff99cc" stroke="#ff99cc" points="317.69,-282.12 325.39,-286.31 322.01,-282.45 325.33,-282.7 325.33,-282.7 325.33,-282.7 322.01,-282.45 325.94,-279.13 317.69,-282.12"/>
<ellipse fill="none" stroke="#ff99cc" cx="312.79" cy="-281.74" rx="3.2" ry="3.2"/>
<text text-anchor="middle" x="248.62" y="-284.2" font-family="Monaco" font-size="9.00">LastModifiedBy</text>
</g>
<!-- ProductRelatedComponent -->
<g id="node4" class="node">
<title>ProductRelatedComponent</title>
<text text-anchor="middle" x="85.62" y="-158.05" font-family="Courier,monospace" font-size="11.00">ProductRelatedComponent</text>
</g>
<!-- ProductRelComponentOverride&#45;&gt;ProductRelatedComponent -->
<g id="edge4" class="edge">
<title>ProductRelComponentOverride:w&#45;&gt;ProductRelatedComponent:e</title>
<path fill="none" stroke="#ff99cc" d="M310.44,-146.35C263.1,-146.97 212.25,-150.24 171.01,-153.61"/>
<polygon fill="#ff99cc" stroke="#ff99cc" points="317.67,-146.31 325.69,-149.85 322,-146.28 325.33,-146.25 325.33,-146.25 325.33,-146.25 322,-146.28 325.64,-142.65 317.67,-146.31"/>
<ellipse fill="none" stroke="#ff99cc" cx="312.75" cy="-146.34" rx="3.2" ry="3.2"/>
<text text-anchor="middle" x="248.62" y="-154.86" font-family="Monaco" font-size="9.00">ProductRelatedComponent</text>
</g>
<!-- Product2 -->
<g id="node5" class="node">
<title>Product2</title>
<text text-anchor="middle" x="85.62" y="-109.05" font-family="Courier,monospace" font-size="11.00">Product2</text>
</g>
<!-- ProductRelComponentOverride&#45;&gt;Product2 -->
<g id="edge5" class="edge">
<title>ProductRelComponentOverride:w&#45;&gt;Product2:e</title>
<path fill="none" stroke="#ff99cc" d="M310.33,-126.65C240.63,-125.83 163.32,-119.8 120.28,-115.96"/>
<polygon fill="#ff99cc" stroke="#ff99cc" points="317.67,-126.7 325.64,-130.35 322,-126.73 325.33,-126.75 325.33,-126.75 325.33,-126.75 322,-126.73 325.69,-123.15 317.67,-126.7"/>
<ellipse fill="none" stroke="#ff99cc" cx="312.75" cy="-126.67" rx="3.2" ry="3.2"/>
<text text-anchor="middle" x="248.62" y="-129.3" font-family="Monaco" font-size="9.00">OverrideContext</text>
</g>
</g>
</svg>
