<?xml version="1.0" encoding="UTF-8" standalone="no"?>
<!DOCTYPE svg PUBLIC "-//W3C//DTD SVG 1.1//EN"
 "http://www.w3.org/Graphics/SVG/1.1/DTD/svg11.dtd">
<!-- Generated by graphviz version 12.2.1 (20241206.2353)
 -->
<!-- Title: Salesforce+ ERD Pages: 1 -->
<svg width="949pt" height="302pt"
 viewBox="0.00 0.00 948.75 301.50" xmlns="http://www.w3.org/2000/svg" xmlns:xlink="http://www.w3.org/1999/xlink">
<g id="graph0" class="graph" transform="scale(1 1) rotate(0) translate(4 297.5)">
<title>Salesforce+ ERD</title>
<polygon fill="#efeffd" stroke="none" points="-4,4 -4,-297.5 944.75,-297.5 944.75,4 -4,4"/>
<text text-anchor="middle" x="893.38" y="-5.95" font-family="Courier,monospace" font-size="9.00">Salesforce ERD </text>
<!-- ProductQualification -->
<g id="node1" class="node">
<title>ProductQualification</title>
<g id="a_node1"><a xlink:href="#" xlink:title=" ProductQualification ">
<polygon fill="#ffeeff" stroke="none" points="177.5,-18.5 177.5,-293.5 940.75,-293.5 940.75,-18.5 177.5,-18.5"/>
<polygon fill="lightblue" stroke="none" points="178.5,-273 178.5,-292.5 939.75,-292.5 939.75,-273 178.5,-273"/>
<polygon fill="none" stroke="#99ccff" points="178.5,-273 178.5,-292.5 939.75,-292.5 939.75,-273 178.5,-273"/>
<text text-anchor="start" x="491.62" y="-280.05" font-family="Courier,monospace" font-weight="bold" font-size="11.00">ProductQualification</text>
<polygon fill="#99ccff" stroke="none" points="178.5,-253.5 178.5,-273 846,-273 846,-253.5 178.5,-253.5"/>
<polygon fill="none" stroke="#99ccff" points="178.5,-253.5 178.5,-273 846,-273 846,-253.5 178.5,-253.5"/>
<text text-anchor="start" x="181.5" y="-260.55" font-family="Courier,monospace" font-size="11.00"> &#160;&#160;&#160;&#160;&#160;&#160;&#160;&#160;&#160;&#160;&#160;&#160;&#160;&#160;&#160;&#160;&#160;&#160;&#160;&#160;&#160;&#160;&#160;&#160;&#160;&#160;&#160;&#160;&#160;&#160;&#160;&#160;&#160;&#160;&#160;&#160;&#160;&#160;&#160;&#160;&#160;&#160;</text>
<text text-anchor="start" x="471.75" y="-260.55" font-family="Courier,monospace" font-weight="bold" font-size="11.00">Id</text>
<text text-anchor="start" x="485.25" y="-260.55" font-family="Courier,monospace" font-size="11.00"> &#160;&#160;&#160;&#160;&#160;&#160;&#160;&#160;&#160;&#160;&#160;&#160;&#160;&#160;&#160;&#160;&#160;&#160;&#160;&#160;&#160;&#160;&#160;&#160;&#160;&#160;&#160;&#160;&#160;&#160;&#160;&#160;&#160;&#160;&#160;&#160;&#160;&#160;&#160;</text>
<polygon fill="none" stroke="#99ccff" points="846,-253.5 846,-273 939.75,-273 939.75,-253.5 846,-253.5"/>
<text text-anchor="start" x="872.62" y="-259.55" font-family="Courier,monospace" font-size="11.00">id(18)</text>
<polygon fill="none" stroke="#99ccff" points="178.5,-234 178.5,-253.5 846,-253.5 846,-234 178.5,-234"/>
<text text-anchor="start" x="181.5" y="-240.05" font-family="Courier,monospace" font-size="11.00"> &#160;&#160;&#160;&#160;&#160;&#160;&#160;&#160;&#160;&#160;&#160;&#160;&#160;&#160;&#160;&#160;&#160;&#160;&#160;&#160;&#160;&#160;&#160;&#160;&#160;&#160;&#160;&#160;&#160;&#160;&#160;&#160;&#160;&#160;&#160;&#160;&#160;&#160;&#160;&#160;OwnerId &#160;&#160;&#160;&#160;&#160;&#160;&#160;&#160;&#160;&#160;&#160;&#160;&#160;&#160;&#160;&#160;&#160;&#160;&#160;&#160;&#160;&#160;&#160;&#160;&#160;&#160;&#160;&#160;&#160;&#160;&#160;&#160;&#160;&#160;&#160;&#160;&#160;&#160;</text>
<polygon fill="none" stroke="#99ccff" points="846,-234 846,-253.5 939.75,-253.5 939.75,-234 846,-234"/>
<text text-anchor="start" x="849" y="-240.05" font-family="Courier,monospace" font-size="11.00">reference(18)</text>
<polygon fill="none" stroke="#99ccff" points="178.5,-214.5 178.5,-234 846,-234 846,-214.5 178.5,-214.5"/>
<text text-anchor="start" x="181.5" y="-220.55" font-family="Courier,monospace" font-size="11.00"> &#160;&#160;&#160;&#160;&#160;&#160;&#160;&#160;&#160;&#160;&#160;&#160;&#160;&#160;&#160;&#160;&#160;&#160;&#160;&#160;&#160;&#160;&#160;&#160;&#160;&#160;&#160;&#160;&#160;&#160;&#160;&#160;&#160;&#160;&#160;&#160;&#160;&#160;&#160;&#160;IsDeleted &#160;&#160;&#160;&#160;&#160;&#160;&#160;&#160;&#160;&#160;&#160;&#160;&#160;&#160;&#160;&#160;&#160;&#160;&#160;&#160;&#160;&#160;&#160;&#160;&#160;&#160;&#160;&#160;&#160;&#160;&#160;&#160;&#160;&#160;&#160;&#160;&#160;&#160;</text>
<polygon fill="none" stroke="#99ccff" points="846,-214.5 846,-234 939.75,-234 939.75,-214.5 846,-214.5"/>
<text text-anchor="start" x="869.25" y="-220.55" font-family="Courier,monospace" font-size="11.00">boolean</text>
<polygon fill="none" stroke="#99ccff" points="178.5,-195 178.5,-214.5 846,-214.5 846,-195 178.5,-195"/>
<text text-anchor="start" x="181.5" y="-201.05" font-family="Courier,monospace" font-size="11.00"> &#160;&#160;&#160;&#160;&#160;&#160;&#160;&#160;&#160;&#160;&#160;&#160;&#160;&#160;&#160;&#160;&#160;&#160;&#160;&#160;&#160;&#160;&#160;&#160;&#160;&#160;&#160;&#160;&#160;&#160;&#160;&#160;&#160;&#160;&#160;&#160;&#160;&#160;&#160;&#160;Name &#160;&#160;&#160;&#160;&#160;&#160;&#160;&#160;&#160;&#160;&#160;&#160;&#160;&#160;&#160;&#160;&#160;&#160;&#160;&#160;&#160;&#160;&#160;&#160;&#160;&#160;&#160;&#160;&#160;&#160;&#160;&#160;&#160;&#160;&#160;&#160;&#160;&#160;</text>
<polygon fill="none" stroke="#99ccff" points="846,-195 846,-214.5 939.75,-214.5 939.75,-195 846,-195"/>
<text text-anchor="start" x="855.75" y="-201.05" font-family="Courier,monospace" font-size="11.00">string(255)</text>
<polygon fill="none" stroke="#99ccff" points="178.5,-175.5 178.5,-195 846,-195 846,-175.5 178.5,-175.5"/>
<text text-anchor="start" x="181.5" y="-181.55" font-family="Courier,monospace" font-size="11.00"> &#160;&#160;&#160;&#160;&#160;&#160;&#160;&#160;&#160;&#160;&#160;&#160;&#160;&#160;&#160;&#160;&#160;&#160;&#160;&#160;&#160;&#160;&#160;&#160;&#160;&#160;&#160;&#160;&#160;&#160;&#160;&#160;&#160;&#160;&#160;&#160;&#160;&#160;&#160;&#160;LastModifiedById &#160;&#160;&#160;&#160;&#160;&#160;&#160;&#160;&#160;&#160;&#160;&#160;&#160;&#160;&#160;&#160;&#160;&#160;&#160;&#160;&#160;&#160;&#160;&#160;&#160;&#160;&#160;&#160;&#160;&#160;&#160;&#160;&#160;&#160;&#160;&#160;&#160;&#160;</text>
<polygon fill="none" stroke="#99ccff" points="846,-175.5 846,-195 939.75,-195 939.75,-175.5 846,-175.5"/>
<text text-anchor="start" x="849" y="-181.55" font-family="Courier,monospace" font-size="11.00">reference(18)</text>
<polygon fill="none" stroke="#99ccff" points="178.5,-156 178.5,-175.5 846,-175.5 846,-156 178.5,-156"/>
<text text-anchor="start" x="181.5" y="-162.05" font-family="Courier,monospace" font-size="11.00"> &#160;&#160;&#160;&#160;&#160;&#160;&#160;&#160;&#160;&#160;&#160;&#160;&#160;&#160;&#160;&#160;&#160;&#160;&#160;&#160;&#160;&#160;&#160;&#160;&#160;&#160;&#160;&#160;&#160;&#160;&#160;&#160;&#160;&#160;&#160;&#160;&#160;&#160;&#160;&#160;LastViewedDate &#160;&#160;&#160;&#160;&#160;&#160;&#160;&#160;&#160;&#160;&#160;&#160;&#160;&#160;&#160;&#160;&#160;&#160;&#160;&#160;&#160;&#160;&#160;&#160;&#160;&#160;&#160;&#160;&#160;&#160;&#160;&#160;&#160;&#160;&#160;&#160;&#160;&#160;</text>
<polygon fill="none" stroke="#99ccff" points="846,-156 846,-175.5 939.75,-175.5 939.75,-156 846,-156"/>
<text text-anchor="start" x="865.88" y="-162.05" font-family="Courier,monospace" font-size="11.00">datetime</text>
<polygon fill="none" stroke="#99ccff" points="178.5,-136.5 178.5,-156 846,-156 846,-136.5 178.5,-136.5"/>
<text text-anchor="start" x="181.5" y="-142.55" font-family="Courier,monospace" font-size="11.00"> &#160;&#160;&#160;&#160;&#160;&#160;&#160;&#160;&#160;&#160;&#160;&#160;&#160;&#160;&#160;&#160;&#160;&#160;&#160;&#160;&#160;&#160;&#160;&#160;&#160;&#160;&#160;&#160;&#160;&#160;&#160;&#160;&#160;&#160;&#160;&#160;&#160;&#160;&#160;&#160;LastReferencedDate &#160;&#160;&#160;&#160;&#160;&#160;&#160;&#160;&#160;&#160;&#160;&#160;&#160;&#160;&#160;&#160;&#160;&#160;&#160;&#160;&#160;&#160;&#160;&#160;&#160;&#160;&#160;&#160;&#160;&#160;&#160;&#160;&#160;&#160;&#160;&#160;&#160;&#160;</text>
<polygon fill="none" stroke="#99ccff" points="846,-136.5 846,-156 939.75,-156 939.75,-136.5 846,-136.5"/>
<text text-anchor="start" x="865.88" y="-142.55" font-family="Courier,monospace" font-size="11.00">datetime</text>
<polygon fill="none" stroke="#99ccff" points="178.5,-117 178.5,-136.5 846,-136.5 846,-117 178.5,-117"/>
<text text-anchor="start" x="181.5" y="-123.05" font-family="Courier,monospace" font-size="11.00"> &#160;&#160;&#160;&#160;&#160;&#160;&#160;&#160;&#160;&#160;&#160;&#160;&#160;&#160;&#160;&#160;&#160;&#160;&#160;&#160;&#160;&#160;&#160;&#160;&#160;&#160;&#160;&#160;&#160;&#160;&#160;&#160;&#160;&#160;&#160;&#160;&#160;&#160;&#160;&#160;IsQualified &#160;&#160;&#160;&#160;&#160;&#160;&#160;&#160;&#160;&#160;&#160;&#160;&#160;&#160;&#160;&#160;&#160;&#160;&#160;&#160;&#160;&#160;&#160;&#160;&#160;&#160;&#160;&#160;&#160;&#160;&#160;&#160;&#160;&#160;&#160;&#160;&#160;&#160;</text>
<polygon fill="none" stroke="#99ccff" points="846,-117 846,-136.5 939.75,-136.5 939.75,-117 846,-117"/>
<text text-anchor="start" x="869.25" y="-123.05" font-family="Courier,monospace" font-size="11.00">boolean</text>
<polygon fill="none" stroke="#99ccff" points="178.5,-97.5 178.5,-117 846,-117 846,-97.5 178.5,-97.5"/>
<text text-anchor="start" x="181.5" y="-103.55" font-family="Courier,monospace" font-size="11.00"> &#160;&#160;&#160;&#160;&#160;&#160;&#160;&#160;&#160;&#160;&#160;&#160;&#160;&#160;&#160;&#160;&#160;&#160;&#160;&#160;&#160;&#160;&#160;&#160;&#160;&#160;&#160;&#160;&#160;&#160;&#160;&#160;&#160;&#160;&#160;&#160;&#160;&#160;&#160;&#160;EffectiveToDate &#160;&#160;&#160;&#160;&#160;&#160;&#160;&#160;&#160;&#160;&#160;&#160;&#160;&#160;&#160;&#160;&#160;&#160;&#160;&#160;&#160;&#160;&#160;&#160;&#160;&#160;&#160;&#160;&#160;&#160;&#160;&#160;&#160;&#160;&#160;&#160;&#160;&#160;</text>
<polygon fill="none" stroke="#99ccff" points="846,-97.5 846,-117 939.75,-117 939.75,-97.5 846,-97.5"/>
<text text-anchor="start" x="879.38" y="-103.55" font-family="Courier,monospace" font-size="11.00">date</text>
<polygon fill="none" stroke="#99ccff" points="178.5,-78 178.5,-97.5 846,-97.5 846,-78 178.5,-78"/>
<text text-anchor="start" x="181.5" y="-84.05" font-family="Courier,monospace" font-size="11.00"> &#160;&#160;&#160;&#160;&#160;&#160;&#160;&#160;&#160;&#160;&#160;&#160;&#160;&#160;&#160;&#160;&#160;&#160;&#160;&#160;&#160;&#160;&#160;&#160;&#160;&#160;&#160;&#160;&#160;&#160;&#160;&#160;&#160;&#160;&#160;&#160;&#160;&#160;&#160;&#160;EffectiveFromDate &#160;&#160;&#160;&#160;&#160;&#160;&#160;&#160;&#160;&#160;&#160;&#160;&#160;&#160;&#160;&#160;&#160;&#160;&#160;&#160;&#160;&#160;&#160;&#160;&#160;&#160;&#160;&#160;&#160;&#160;&#160;&#160;&#160;&#160;&#160;&#160;&#160;&#160;</text>
<polygon fill="none" stroke="#99ccff" points="846,-78 846,-97.5 939.75,-97.5 939.75,-78 846,-78"/>
<text text-anchor="start" x="879.38" y="-84.05" font-family="Courier,monospace" font-size="11.00">date</text>
<polygon fill="none" stroke="#99ccff" points="178.5,-58.5 178.5,-78 846,-78 846,-58.5 178.5,-58.5"/>
<text text-anchor="start" x="181.5" y="-64.55" font-family="Courier,monospace" font-size="11.00"> &#160;&#160;&#160;&#160;&#160;&#160;&#160;&#160;&#160;&#160;&#160;&#160;&#160;&#160;&#160;&#160;&#160;&#160;&#160;&#160;&#160;&#160;&#160;&#160;&#160;&#160;&#160;&#160;&#160;&#160;&#160;&#160;&#160;&#160;&#160;&#160;&#160;&#160;&#160;&#160;ProductId &#160;&#160;&#160;&#160;&#160;&#160;&#160;&#160;&#160;&#160;&#160;&#160;&#160;&#160;&#160;&#160;&#160;&#160;&#160;&#160;&#160;&#160;&#160;&#160;&#160;&#160;&#160;&#160;&#160;&#160;&#160;&#160;&#160;&#160;&#160;&#160;&#160;&#160;</text>
<polygon fill="none" stroke="#99ccff" points="846,-58.5 846,-78 939.75,-78 939.75,-58.5 846,-58.5"/>
<text text-anchor="start" x="849" y="-64.55" font-family="Courier,monospace" font-size="11.00">reference(18)</text>
<polygon fill="none" stroke="#99ccff" points="178.5,-39 178.5,-58.5 846,-58.5 846,-39 178.5,-39"/>
<text text-anchor="start" x="181.5" y="-45.05" font-family="Courier,monospace" font-size="11.00"> &#160;&#160;&#160;&#160;&#160;&#160;&#160;&#160;&#160;&#160;&#160;&#160;&#160;&#160;&#160;&#160;&#160;&#160;&#160;&#160;&#160;&#160;&#160;&#160;&#160;&#160;&#160;&#160;&#160;&#160;&#160;&#160;&#160;&#160;&#160;&#160;&#160;&#160;&#160;&#160;RootProductId &#160;&#160;&#160;&#160;&#160;&#160;&#160;&#160;&#160;&#160;&#160;&#160;&#160;&#160;&#160;&#160;&#160;&#160;&#160;&#160;&#160;&#160;&#160;&#160;&#160;&#160;&#160;&#160;&#160;&#160;&#160;&#160;&#160;&#160;&#160;&#160;&#160;&#160;</text>
<polygon fill="none" stroke="#99ccff" points="846,-39 846,-58.5 939.75,-58.5 939.75,-39 846,-39"/>
<text text-anchor="start" x="849" y="-45.05" font-family="Courier,monospace" font-size="11.00">reference(18)</text>
<polygon fill="none" stroke="#99ccff" points="178.5,-19.5 178.5,-39 846,-39 846,-19.5 178.5,-19.5"/>
<text text-anchor="start" x="181.5" y="-25.55" font-family="Courier,monospace" font-size="11.00"> &#160;&#160;&#160;&#160;&#160;&#160;&#160;&#160;&#160;&#160;&#160;&#160;&#160;&#160;&#160;&#160;&#160;&#160;&#160;&#160;&#160;&#160;&#160;&#160;&#160;&#160;&#160;&#160;&#160;&#160;&#160;&#160;&#160;&#160;&#160;&#160;&#160;&#160;&#160;&#160;ParentProductId &#160;&#160;&#160;&#160;&#160;&#160;&#160;&#160;&#160;&#160;&#160;&#160;&#160;&#160;&#160;&#160;&#160;&#160;&#160;&#160;&#160;&#160;&#160;&#160;&#160;&#160;&#160;&#160;&#160;&#160;&#160;&#160;&#160;&#160;&#160;&#160;&#160;&#160;</text>
<polygon fill="none" stroke="#99ccff" points="846,-19.5 846,-39 939.75,-39 939.75,-19.5 846,-19.5"/>
<text text-anchor="start" x="849" y="-25.55" font-family="Courier,monospace" font-size="11.00">reference(18)</text>
<polygon fill="none" stroke="#99ccff" points="177.5,-18.5 177.5,-293.5 940.75,-293.5 940.75,-18.5 177.5,-18.5"/>
</a>
</g>
</g>
<!-- Group -->
<g id="node2" class="node">
<title>Group</title>
<text text-anchor="middle" x="35" y="-239.3" font-family="Courier,monospace" font-size="11.00">Group</text>
</g>
<!-- ProductQualification&#45;&gt;Group -->
<g id="edge1" class="edge">
<title>ProductQualification:w&#45;&gt;Group:e</title>
<path fill="none" stroke="#ff99cc" d="M162.09,-243.74C125.65,-243.67 86.64,-243.41 61.82,-243.22"/>
<polygon fill="#ff99cc" stroke="#ff99cc" points="169.17,-243.74 177.16,-247.35 173.5,-243.75 176.83,-243.75 176.83,-243.75 176.83,-243.75 173.5,-243.75 177.17,-240.15 169.17,-243.74"/>
<ellipse fill="none" stroke="#ff99cc" cx="164.25" cy="-243.74" rx="3.2" ry="3.2"/>
<text text-anchor="middle" x="123.75" y="-246.43" font-family="Monaco" font-size="9.00">Owner</text>
</g>
<!-- User -->
<g id="node3" class="node">
<title>User</title>
<text text-anchor="middle" x="35" y="-186.3" font-family="Courier,monospace" font-size="11.00">User</text>
</g>
<!-- ProductQualification&#45;&gt;User -->
<g id="edge2" class="edge">
<title>ProductQualification:w&#45;&gt;User:e</title>
<path fill="none" stroke="#ff99cc" d="M167.78,-231.49C166.93,-225.87 165.98,-219.62 160.5,-215.75 152.52,-210.12 96.06,-199.96 61.97,-194.23"/>
<polygon fill="#ff99cc" stroke="#ff99cc" points="172.32,-237.22 174.47,-245.72 175.02,-240.61 177.08,-243.23 177.08,-243.23 177.08,-243.23 175.02,-240.61 180.11,-241.25 172.32,-237.22"/>
<ellipse fill="none" stroke="#ff99cc" cx="169.27" cy="-233.36" rx="3.2" ry="3.2"/>
<text text-anchor="middle" x="123.75" y="-218.45" font-family="Monaco" font-size="9.00">Owner</text>
</g>
<!-- ProductQualification&#45;&gt;User -->
<g id="edge3" class="edge">
<title>ProductQualification:w&#45;&gt;User:e</title>
<path fill="none" stroke="#ff99cc" d="M161.85,-184.77C161.42,-184.76 160.97,-184.76 160.5,-184.75 127.84,-184.27 119.62,-183.08 87,-184.75 78.82,-185.17 69.94,-185.97 61.91,-186.81"/>
<polygon fill="#ff99cc" stroke="#ff99cc" points="169.17,-185 177.06,-188.84 173.5,-185.13 176.83,-185.23 176.83,-185.23 176.83,-185.23 173.5,-185.13 177.28,-181.64 169.17,-185"/>
<ellipse fill="none" stroke="#ff99cc" cx="164.25" cy="-184.85" rx="3.2" ry="3.2"/>
<text text-anchor="middle" x="123.75" y="-187.45" font-family="Monaco" font-size="9.00">LastModifiedBy</text>
</g>
<!-- Product2 -->
<g id="node4" class="node">
<title>Product2</title>
<text text-anchor="middle" x="35" y="-45.3" font-family="Courier,monospace" font-size="11.00">Product2</text>
</g>
<!-- ProductQualification&#45;&gt;Product2 -->
<g id="edge4" class="edge">
<title>ProductQualification:w&#45;&gt;Product2:e</title>
<path fill="none" stroke="#ff99cc" d="M161.71,-68.17C133.56,-67.85 121.1,-66.35 87,-61 81.43,-60.13 75.56,-58.97 69.88,-57.72"/>
<polygon fill="#ff99cc" stroke="#ff99cc" points="169.17,-68.21 177.15,-71.85 173.5,-68.23 176.83,-68.25 176.83,-68.25 176.83,-68.25 173.5,-68.23 177.18,-64.65 169.17,-68.21"/>
<ellipse fill="none" stroke="#ff99cc" cx="164.25" cy="-68.19" rx="3.2" ry="3.2"/>
<text text-anchor="middle" x="123.75" y="-70.86" font-family="Monaco" font-size="9.00">Product</text>
</g>
<!-- ProductQualification&#45;&gt;Product2 -->
<g id="edge5" class="edge">
<title>ProductQualification:w&#45;&gt;Product2:e</title>
<path fill="none" stroke="#ff99cc" d="M161.85,-47.8C161.42,-47.78 160.97,-47.76 160.5,-47.75 127.85,-46.79 119.66,-47.35 87,-47.75 81.42,-47.82 75.5,-47.93 69.74,-48.06"/>
<polygon fill="#ff99cc" stroke="#ff99cc" points="169.18,-48.24 176.95,-52.32 173.51,-48.51 176.83,-48.71 176.83,-48.71 176.83,-48.71 173.51,-48.51 177.38,-45.14 169.18,-48.24"/>
<ellipse fill="none" stroke="#ff99cc" cx="164.27" cy="-47.94" rx="3.2" ry="3.2"/>
<text text-anchor="middle" x="123.75" y="-50.45" font-family="Monaco" font-size="9.00">RootProduct</text>
</g>
<!-- ProductQualification&#45;&gt;Product2 -->
<g id="edge6" class="edge">
<title>ProductQualification:w&#45;&gt;Product2:e</title>
<path fill="none" stroke="#ff99cc" d="M161.73,-29.08C133.58,-28.47 120.92,-26.8 87,-32.75 81.42,-33.73 75.6,-35.16 69.97,-36.78"/>
<polygon fill="#ff99cc" stroke="#ff99cc" points="169.17,-29.16 177.13,-32.85 173.5,-29.21 176.83,-29.24 176.83,-29.24 176.83,-29.24 173.5,-29.21 177.21,-25.65 169.17,-29.16"/>
<ellipse fill="none" stroke="#ff99cc" cx="164.25" cy="-29.1" rx="3.2" ry="3.2"/>
<text text-anchor="middle" x="123.75" y="-35.45" font-family="Monaco" font-size="9.00">ParentProduct</text>
</g>
</g>
</svg>
