<?xml version="1.0" encoding="UTF-8" standalone="no"?>
<!DOCTYPE svg PUBLIC "-//W3C//DTD SVG 1.1//EN"
 "http://www.w3.org/Graphics/SVG/1.1/DTD/svg11.dtd">
<!-- Generated by graphviz version 12.2.1 (20241206.2353)
 -->
<!-- Title: Salesforce+ ERD Pages: 1 -->
<svg width="1107pt" height="282pt"
 viewBox="0.00 0.00 1107.00 282.00" xmlns="http://www.w3.org/2000/svg" xmlns:xlink="http://www.w3.org/1999/xlink">
<g id="graph0" class="graph" transform="scale(1 1) rotate(0) translate(4 278)">
<title>Salesforce+ ERD</title>
<polygon fill="#efeffd" stroke="none" points="-4,4 -4,-278 1103,-278 1103,4 -4,4"/>
<text text-anchor="middle" x="1051.62" y="-5.95" font-family="Courier,monospace" font-size="9.00">Salesforce ERD </text>
<!-- ProductComponentGrpOverride -->
<g id="node1" class="node">
<title>ProductComponentGrpOverride</title>
<g id="a_node1"><a xlink:href="#" xlink:title=" ProductComponentGrpOverride ">
<polygon fill="#ffeeff" stroke="none" points="302,-18.5 302,-274 1099,-274 1099,-18.5 302,-18.5"/>
<polygon fill="lightblue" stroke="none" points="303,-253.5 303,-273 1098,-273 1098,-253.5 303,-253.5"/>
<polygon fill="none" stroke="#99ccff" points="303,-253.5 303,-273 1098,-273 1098,-253.5 303,-253.5"/>
<text text-anchor="start" x="609.38" y="-260.55" font-family="Courier,monospace" font-weight="bold" font-size="11.00">ProductComponentGrpOverride</text>
<polygon fill="#99ccff" stroke="none" points="303,-234 303,-253.5 1004.25,-253.5 1004.25,-234 303,-234"/>
<polygon fill="none" stroke="#99ccff" points="303,-234 303,-253.5 1004.25,-253.5 1004.25,-234 303,-234"/>
<text text-anchor="start" x="306" y="-241.05" font-family="Courier,monospace" font-size="11.00"> &#160;&#160;&#160;&#160;&#160;&#160;&#160;&#160;&#160;&#160;&#160;&#160;&#160;&#160;&#160;&#160;&#160;&#160;&#160;&#160;&#160;&#160;&#160;&#160;&#160;&#160;&#160;&#160;&#160;&#160;&#160;&#160;&#160;&#160;&#160;&#160;&#160;&#160;&#160;&#160;&#160;&#160;</text>
<text text-anchor="start" x="596.25" y="-241.05" font-family="Courier,monospace" font-weight="bold" font-size="11.00">Id</text>
<text text-anchor="start" x="609.75" y="-241.05" font-family="Courier,monospace" font-size="11.00"> &#160;&#160;&#160;&#160;&#160;&#160;&#160;&#160;&#160;&#160;&#160;&#160;&#160;&#160;&#160;&#160;&#160;&#160;&#160;&#160;&#160;&#160;&#160;&#160;&#160;&#160;&#160;&#160;&#160;&#160;&#160;&#160;&#160;&#160;&#160;&#160;&#160;&#160;&#160;</text>
<polygon fill="none" stroke="#99ccff" points="1004.25,-234 1004.25,-253.5 1098,-253.5 1098,-234 1004.25,-234"/>
<text text-anchor="start" x="1030.88" y="-240.05" font-family="Courier,monospace" font-size="11.00">id(18)</text>
<polygon fill="none" stroke="#99ccff" points="303,-214.5 303,-234 1004.25,-234 1004.25,-214.5 303,-214.5"/>
<text text-anchor="start" x="306" y="-220.55" font-family="Courier,monospace" font-size="11.00"> &#160;&#160;&#160;&#160;&#160;&#160;&#160;&#160;&#160;&#160;&#160;&#160;&#160;&#160;&#160;&#160;&#160;&#160;&#160;&#160;&#160;&#160;&#160;&#160;&#160;&#160;&#160;&#160;&#160;&#160;&#160;&#160;&#160;&#160;&#160;&#160;&#160;&#160;&#160;&#160;OwnerId &#160;&#160;&#160;&#160;&#160;&#160;&#160;&#160;&#160;&#160;&#160;&#160;&#160;&#160;&#160;&#160;&#160;&#160;&#160;&#160;&#160;&#160;&#160;&#160;&#160;&#160;&#160;&#160;&#160;&#160;&#160;&#160;&#160;&#160;&#160;&#160;&#160;&#160;</text>
<polygon fill="none" stroke="#99ccff" points="1004.25,-214.5 1004.25,-234 1098,-234 1098,-214.5 1004.25,-214.5"/>
<text text-anchor="start" x="1007.25" y="-220.55" font-family="Courier,monospace" font-size="11.00">reference(18)</text>
<polygon fill="none" stroke="#99ccff" points="303,-195 303,-214.5 1004.25,-214.5 1004.25,-195 303,-195"/>
<text text-anchor="start" x="306" y="-201.05" font-family="Courier,monospace" font-size="11.00"> &#160;&#160;&#160;&#160;&#160;&#160;&#160;&#160;&#160;&#160;&#160;&#160;&#160;&#160;&#160;&#160;&#160;&#160;&#160;&#160;&#160;&#160;&#160;&#160;&#160;&#160;&#160;&#160;&#160;&#160;&#160;&#160;&#160;&#160;&#160;&#160;&#160;&#160;&#160;&#160;IsDeleted &#160;&#160;&#160;&#160;&#160;&#160;&#160;&#160;&#160;&#160;&#160;&#160;&#160;&#160;&#160;&#160;&#160;&#160;&#160;&#160;&#160;&#160;&#160;&#160;&#160;&#160;&#160;&#160;&#160;&#160;&#160;&#160;&#160;&#160;&#160;&#160;&#160;&#160;</text>
<polygon fill="none" stroke="#99ccff" points="1004.25,-195 1004.25,-214.5 1098,-214.5 1098,-195 1004.25,-195"/>
<text text-anchor="start" x="1027.5" y="-201.05" font-family="Courier,monospace" font-size="11.00">boolean</text>
<polygon fill="none" stroke="#99ccff" points="303,-175.5 303,-195 1004.25,-195 1004.25,-175.5 303,-175.5"/>
<text text-anchor="start" x="306" y="-181.55" font-family="Courier,monospace" font-size="11.00"> &#160;&#160;&#160;&#160;&#160;&#160;&#160;&#160;&#160;&#160;&#160;&#160;&#160;&#160;&#160;&#160;&#160;&#160;&#160;&#160;&#160;&#160;&#160;&#160;&#160;&#160;&#160;&#160;&#160;&#160;&#160;&#160;&#160;&#160;&#160;&#160;&#160;&#160;&#160;&#160;Name &#160;&#160;&#160;&#160;&#160;&#160;&#160;&#160;&#160;&#160;&#160;&#160;&#160;&#160;&#160;&#160;&#160;&#160;&#160;&#160;&#160;&#160;&#160;&#160;&#160;&#160;&#160;&#160;&#160;&#160;&#160;&#160;&#160;&#160;&#160;&#160;&#160;&#160;</text>
<polygon fill="none" stroke="#99ccff" points="1004.25,-175.5 1004.25,-195 1098,-195 1098,-175.5 1004.25,-175.5"/>
<text text-anchor="start" x="1014" y="-181.55" font-family="Courier,monospace" font-size="11.00">string(255)</text>
<polygon fill="none" stroke="#99ccff" points="303,-156 303,-175.5 1004.25,-175.5 1004.25,-156 303,-156"/>
<text text-anchor="start" x="306" y="-162.05" font-family="Courier,monospace" font-size="11.00"> &#160;&#160;&#160;&#160;&#160;&#160;&#160;&#160;&#160;&#160;&#160;&#160;&#160;&#160;&#160;&#160;&#160;&#160;&#160;&#160;&#160;&#160;&#160;&#160;&#160;&#160;&#160;&#160;&#160;&#160;&#160;&#160;&#160;&#160;&#160;&#160;&#160;&#160;&#160;&#160;LastModifiedById &#160;&#160;&#160;&#160;&#160;&#160;&#160;&#160;&#160;&#160;&#160;&#160;&#160;&#160;&#160;&#160;&#160;&#160;&#160;&#160;&#160;&#160;&#160;&#160;&#160;&#160;&#160;&#160;&#160;&#160;&#160;&#160;&#160;&#160;&#160;&#160;&#160;&#160;</text>
<polygon fill="none" stroke="#99ccff" points="1004.25,-156 1004.25,-175.5 1098,-175.5 1098,-156 1004.25,-156"/>
<text text-anchor="start" x="1007.25" y="-162.05" font-family="Courier,monospace" font-size="11.00">reference(18)</text>
<polygon fill="none" stroke="#99ccff" points="303,-136.5 303,-156 1004.25,-156 1004.25,-136.5 303,-136.5"/>
<text text-anchor="start" x="306" y="-142.55" font-family="Courier,monospace" font-size="11.00"> &#160;&#160;&#160;&#160;&#160;&#160;&#160;&#160;&#160;&#160;&#160;&#160;&#160;&#160;&#160;&#160;&#160;&#160;&#160;&#160;&#160;&#160;&#160;&#160;&#160;&#160;&#160;&#160;&#160;&#160;&#160;&#160;&#160;&#160;&#160;&#160;&#160;&#160;&#160;&#160;LastViewedDate &#160;&#160;&#160;&#160;&#160;&#160;&#160;&#160;&#160;&#160;&#160;&#160;&#160;&#160;&#160;&#160;&#160;&#160;&#160;&#160;&#160;&#160;&#160;&#160;&#160;&#160;&#160;&#160;&#160;&#160;&#160;&#160;&#160;&#160;&#160;&#160;&#160;&#160;</text>
<polygon fill="none" stroke="#99ccff" points="1004.25,-136.5 1004.25,-156 1098,-156 1098,-136.5 1004.25,-136.5"/>
<text text-anchor="start" x="1024.12" y="-142.55" font-family="Courier,monospace" font-size="11.00">datetime</text>
<polygon fill="none" stroke="#99ccff" points="303,-117 303,-136.5 1004.25,-136.5 1004.25,-117 303,-117"/>
<text text-anchor="start" x="306" y="-123.05" font-family="Courier,monospace" font-size="11.00"> &#160;&#160;&#160;&#160;&#160;&#160;&#160;&#160;&#160;&#160;&#160;&#160;&#160;&#160;&#160;&#160;&#160;&#160;&#160;&#160;&#160;&#160;&#160;&#160;&#160;&#160;&#160;&#160;&#160;&#160;&#160;&#160;&#160;&#160;&#160;&#160;&#160;&#160;&#160;&#160;LastReferencedDate &#160;&#160;&#160;&#160;&#160;&#160;&#160;&#160;&#160;&#160;&#160;&#160;&#160;&#160;&#160;&#160;&#160;&#160;&#160;&#160;&#160;&#160;&#160;&#160;&#160;&#160;&#160;&#160;&#160;&#160;&#160;&#160;&#160;&#160;&#160;&#160;&#160;&#160;</text>
<polygon fill="none" stroke="#99ccff" points="1004.25,-117 1004.25,-136.5 1098,-136.5 1098,-117 1004.25,-117"/>
<text text-anchor="start" x="1024.12" y="-123.05" font-family="Courier,monospace" font-size="11.00">datetime</text>
<polygon fill="none" stroke="#99ccff" points="303,-97.5 303,-117 1004.25,-117 1004.25,-97.5 303,-97.5"/>
<text text-anchor="start" x="306" y="-103.55" font-family="Courier,monospace" font-size="11.00"> &#160;&#160;&#160;&#160;&#160;&#160;&#160;&#160;&#160;&#160;&#160;&#160;&#160;&#160;&#160;&#160;&#160;&#160;&#160;&#160;&#160;&#160;&#160;&#160;&#160;&#160;&#160;&#160;&#160;&#160;&#160;&#160;&#160;&#160;&#160;&#160;&#160;&#160;&#160;&#160;OverrideContextId &#160;&#160;&#160;&#160;&#160;&#160;&#160;&#160;&#160;&#160;&#160;&#160;&#160;&#160;&#160;&#160;&#160;&#160;&#160;&#160;&#160;&#160;&#160;&#160;&#160;&#160;&#160;&#160;&#160;&#160;&#160;&#160;&#160;&#160;&#160;&#160;&#160;&#160;</text>
<polygon fill="none" stroke="#99ccff" points="1004.25,-97.5 1004.25,-117 1098,-117 1098,-97.5 1004.25,-97.5"/>
<text text-anchor="start" x="1007.25" y="-103.55" font-family="Courier,monospace" font-size="11.00">reference(18)</text>
<polygon fill="none" stroke="#99ccff" points="303,-78 303,-97.5 1004.25,-97.5 1004.25,-78 303,-78"/>
<text text-anchor="start" x="306" y="-84.05" font-family="Courier,monospace" font-size="11.00"> &#160;&#160;&#160;&#160;&#160;&#160;&#160;&#160;&#160;&#160;&#160;&#160;&#160;&#160;&#160;&#160;&#160;&#160;&#160;&#160;&#160;&#160;&#160;&#160;&#160;&#160;&#160;&#160;&#160;&#160;&#160;&#160;&#160;&#160;&#160;&#160;&#160;&#160;&#160;&#160;ProductComponentGroupId &#160;&#160;&#160;&#160;&#160;&#160;&#160;&#160;&#160;&#160;&#160;&#160;&#160;&#160;&#160;&#160;&#160;&#160;&#160;&#160;&#160;&#160;&#160;&#160;&#160;&#160;&#160;&#160;&#160;&#160;&#160;&#160;&#160;&#160;&#160;&#160;&#160;&#160;</text>
<polygon fill="none" stroke="#99ccff" points="1004.25,-78 1004.25,-97.5 1098,-97.5 1098,-78 1004.25,-78"/>
<text text-anchor="start" x="1007.25" y="-84.05" font-family="Courier,monospace" font-size="11.00">reference(18)</text>
<polygon fill="none" stroke="#99ccff" points="303,-58.5 303,-78 1004.25,-78 1004.25,-58.5 303,-58.5"/>
<text text-anchor="start" x="306" y="-64.55" font-family="Courier,monospace" font-size="11.00"> &#160;&#160;&#160;&#160;&#160;&#160;&#160;&#160;&#160;&#160;&#160;&#160;&#160;&#160;&#160;&#160;&#160;&#160;&#160;&#160;&#160;&#160;&#160;&#160;&#160;&#160;&#160;&#160;&#160;&#160;&#160;&#160;&#160;&#160;&#160;&#160;&#160;&#160;&#160;&#160;IsExcluded &#160;&#160;&#160;&#160;&#160;&#160;&#160;&#160;&#160;&#160;&#160;&#160;&#160;&#160;&#160;&#160;&#160;&#160;&#160;&#160;&#160;&#160;&#160;&#160;&#160;&#160;&#160;&#160;&#160;&#160;&#160;&#160;&#160;&#160;&#160;&#160;&#160;&#160;</text>
<polygon fill="none" stroke="#99ccff" points="1004.25,-58.5 1004.25,-78 1098,-78 1098,-58.5 1004.25,-58.5"/>
<text text-anchor="start" x="1027.5" y="-64.55" font-family="Courier,monospace" font-size="11.00">boolean</text>
<polygon fill="none" stroke="#99ccff" points="303,-39 303,-58.5 1004.25,-58.5 1004.25,-39 303,-39"/>
<text text-anchor="start" x="306" y="-45.05" font-family="Courier,monospace" font-size="11.00"> &#160;&#160;&#160;&#160;&#160;&#160;&#160;&#160;&#160;&#160;&#160;&#160;&#160;&#160;&#160;&#160;&#160;&#160;&#160;&#160;&#160;&#160;&#160;&#160;&#160;&#160;&#160;&#160;&#160;&#160;&#160;&#160;&#160;&#160;&#160;&#160;&#160;&#160;&#160;&#160;MinBundleComponents &#160;&#160;&#160;&#160;&#160;&#160;&#160;&#160;&#160;&#160;&#160;&#160;&#160;&#160;&#160;&#160;&#160;&#160;&#160;&#160;&#160;&#160;&#160;&#160;&#160;&#160;&#160;&#160;&#160;&#160;&#160;&#160;&#160;&#160;&#160;&#160;&#160;&#160;</text>
<polygon fill="none" stroke="#99ccff" points="1004.25,-39 1004.25,-58.5 1098,-58.5 1098,-39 1004.25,-39"/>
<text text-anchor="start" x="1041" y="-45.05" font-family="Courier,monospace" font-size="11.00">int</text>
<polygon fill="none" stroke="#99ccff" points="303,-19.5 303,-39 1004.25,-39 1004.25,-19.5 303,-19.5"/>
<text text-anchor="start" x="306" y="-25.55" font-family="Courier,monospace" font-size="11.00"> &#160;&#160;&#160;&#160;&#160;&#160;&#160;&#160;&#160;&#160;&#160;&#160;&#160;&#160;&#160;&#160;&#160;&#160;&#160;&#160;&#160;&#160;&#160;&#160;&#160;&#160;&#160;&#160;&#160;&#160;&#160;&#160;&#160;&#160;&#160;&#160;&#160;&#160;&#160;&#160;MaxBundleComponents &#160;&#160;&#160;&#160;&#160;&#160;&#160;&#160;&#160;&#160;&#160;&#160;&#160;&#160;&#160;&#160;&#160;&#160;&#160;&#160;&#160;&#160;&#160;&#160;&#160;&#160;&#160;&#160;&#160;&#160;&#160;&#160;&#160;&#160;&#160;&#160;&#160;&#160;</text>
<polygon fill="none" stroke="#99ccff" points="1004.25,-19.5 1004.25,-39 1098,-39 1098,-19.5 1004.25,-19.5"/>
<text text-anchor="start" x="1041" y="-25.55" font-family="Courier,monospace" font-size="11.00">int</text>
<polygon fill="none" stroke="#99ccff" points="302,-18.5 302,-274 1099,-274 1099,-18.5 302,-18.5"/>
</a>
</g>
</g>
<!-- Group -->
<g id="node2" class="node">
<title>Group</title>
<text text-anchor="middle" x="78.88" y="-220.55" font-family="Courier,monospace" font-size="11.00">Group</text>
</g>
<!-- ProductComponentGrpOverride&#45;&gt;Group -->
<g id="edge1" class="edge">
<title>ProductComponentGrpOverride:w&#45;&gt;Group:e</title>
<path fill="none" stroke="#ff99cc" d="M286.44,-224.25C219.17,-224.25 144.34,-224.25 105.86,-224.25"/>
<polygon fill="#ff99cc" stroke="#ff99cc" points="293.67,-224.25 301.67,-227.85 298,-224.25 301.33,-224.25 301.33,-224.25 301.33,-224.25 298,-224.25 301.67,-220.65 293.67,-224.25"/>
<ellipse fill="none" stroke="#ff99cc" cx="288.75" cy="-224.25" rx="3.2" ry="3.2"/>
<text text-anchor="middle" x="229.88" y="-226.95" font-family="Monaco" font-size="9.00">Owner</text>
</g>
<!-- User -->
<g id="node3" class="node">
<title>User</title>
<text text-anchor="middle" x="78.88" y="-167.55" font-family="Courier,monospace" font-size="11.00">User</text>
</g>
<!-- ProductComponentGrpOverride&#45;&gt;User -->
<g id="edge2" class="edge">
<title>ProductComponentGrpOverride:w&#45;&gt;User:e</title>
<path fill="none" stroke="#ff99cc" d="M292.39,-211.84C291.52,-206.41 290.45,-200.48 285,-197 270.15,-187.5 157.24,-177.41 105.56,-173.24"/>
<polygon fill="#ff99cc" stroke="#ff99cc" points="296.9,-217.66 298.95,-226.19 299.55,-221.09 301.59,-223.72 301.59,-223.72 301.59,-223.72 299.55,-221.09 304.64,-221.78 296.9,-217.66"/>
<ellipse fill="none" stroke="#ff99cc" cx="293.88" cy="-213.77" rx="3.2" ry="3.2"/>
<text text-anchor="middle" x="229.88" y="-199.7" font-family="Monaco" font-size="9.00">Owner</text>
</g>
<!-- ProductComponentGrpOverride&#45;&gt;User -->
<g id="edge3" class="edge">
<title>ProductComponentGrpOverride:w&#45;&gt;User:e</title>
<path fill="none" stroke="#ff99cc" d="M286.35,-165.04C285.92,-165.02 285.47,-165.01 285,-165 236.01,-163.92 223.72,-163.39 174.75,-165 151.32,-165.77 124.69,-167.61 105.62,-169.09"/>
<polygon fill="#ff99cc" stroke="#ff99cc" points="293.67,-165.37 301.5,-169.33 298,-165.57 301.33,-165.72 301.33,-165.72 301.33,-165.72 298,-165.57 301.83,-162.14 293.67,-165.37"/>
<ellipse fill="none" stroke="#ff99cc" cx="288.76" cy="-165.15" rx="3.2" ry="3.2"/>
<text text-anchor="middle" x="229.88" y="-167.7" font-family="Monaco" font-size="9.00">LastModifiedBy</text>
</g>
<!-- Product2 -->
<g id="node4" class="node">
<title>Product2</title>
<text text-anchor="middle" x="78.88" y="-109.55" font-family="Courier,monospace" font-size="11.00">Product2</text>
</g>
<!-- ProductComponentGrpOverride&#45;&gt;Product2 -->
<g id="edge4" class="edge">
<title>ProductComponentGrpOverride:w&#45;&gt;Product2:e</title>
<path fill="none" stroke="#ff99cc" d="M286.17,-107.3C223.29,-107.67 153.88,-110.13 113.74,-111.77"/>
<polygon fill="#ff99cc" stroke="#ff99cc" points="293.67,-107.28 301.68,-110.85 298,-107.26 301.33,-107.25 301.33,-107.25 301.33,-107.25 298,-107.26 301.65,-103.65 293.67,-107.28"/>
<ellipse fill="none" stroke="#ff99cc" cx="288.75" cy="-107.29" rx="3.2" ry="3.2"/>
<text text-anchor="middle" x="229.88" y="-112.24" font-family="Monaco" font-size="9.00">OverrideContext</text>
</g>
<!-- ProductComponentGroup -->
<g id="node5" class="node">
<title>ProductComponentGroup</title>
<text text-anchor="middle" x="78.88" y="-60.55" font-family="Courier,monospace" font-size="11.00">ProductComponentGroup</text>
</g>
<!-- ProductComponentGrpOverride&#45;&gt;ProductComponentGroup -->
<g id="edge5" class="edge">
<title>ProductComponentGrpOverride:w&#45;&gt;ProductComponentGroup:e</title>
<path fill="none" stroke="#ff99cc" d="M286.3,-87.57C242.4,-86.56 195.51,-81.6 157.53,-76.52"/>
<polygon fill="#ff99cc" stroke="#ff99cc" points="293.67,-87.65 301.62,-91.35 298,-87.7 301.33,-87.74 301.33,-87.74 301.33,-87.74 298,-87.7 301.71,-84.15 293.67,-87.65"/>
<ellipse fill="none" stroke="#ff99cc" cx="288.75" cy="-87.59" rx="3.2" ry="3.2"/>
<text text-anchor="middle" x="229.88" y="-90.21" font-family="Monaco" font-size="9.00">ProductComponentGroup</text>
</g>
</g>
</svg>
