<?xml version="1.0" encoding="UTF-8" standalone="no"?>
<!DOCTYPE svg PUBLIC "-//W3C//DTD SVG 1.1//EN"
 "http://www.w3.org/Graphics/SVG/1.1/DTD/svg11.dtd">
<!-- Generated by graphviz version 12.2.1 (20241206.2353)
 -->
<!-- Title: Salesforce+ ERD Pages: 1 -->
<svg width="1181pt" height="536pt"
 viewBox="0.00 0.00 1180.50 535.50" xmlns="http://www.w3.org/2000/svg" xmlns:xlink="http://www.w3.org/1999/xlink">
<g id="graph0" class="graph" transform="scale(1 1) rotate(0) translate(4 531.5)">
<title>Salesforce+ ERD</title>
<polygon fill="#efeffd" stroke="none" points="-4,4 -4,-531.5 1176.5,-531.5 1176.5,4 -4,4"/>
<text text-anchor="middle" x="1125.12" y="-5.95" font-family="Courier,monospace" font-size="9.00">Salesforce ERD </text>
<!-- ProductRelatedComponent -->
<g id="node1" class="node">
<title>ProductRelatedComponent</title>
<g id="a_node1"><a xlink:href="#" xlink:title=" ProductRelatedComponent ">
<polygon fill="#ffeeff" stroke="none" points="341.75,-18.5 341.75,-527.5 1172.5,-527.5 1172.5,-18.5 341.75,-18.5"/>
<polygon fill="lightblue" stroke="none" points="342.75,-507 342.75,-526.5 1171.5,-526.5 1171.5,-507 342.75,-507"/>
<polygon fill="none" stroke="#99ccff" points="342.75,-507 342.75,-526.5 1171.5,-526.5 1171.5,-507 342.75,-507"/>
<text text-anchor="start" x="679.5" y="-514.05" font-family="Courier,monospace" font-weight="bold" font-size="11.00">ProductRelatedComponent</text>
<polygon fill="#99ccff" stroke="none" points="342.75,-487.5 342.75,-507 1077.75,-507 1077.75,-487.5 342.75,-487.5"/>
<polygon fill="none" stroke="#99ccff" points="342.75,-487.5 342.75,-507 1077.75,-507 1077.75,-487.5 342.75,-487.5"/>
<text text-anchor="start" x="345.75" y="-494.55" font-family="Courier,monospace" font-size="11.00"> &#160;&#160;&#160;&#160;&#160;&#160;&#160;&#160;&#160;&#160;&#160;&#160;&#160;&#160;&#160;&#160;&#160;&#160;&#160;&#160;&#160;&#160;&#160;&#160;&#160;&#160;&#160;&#160;&#160;&#160;&#160;&#160;&#160;&#160;&#160;&#160;&#160;&#160;&#160;&#160;&#160;&#160;</text>
<text text-anchor="start" x="636" y="-494.55" font-family="Courier,monospace" font-weight="bold" font-size="11.00">Id</text>
<text text-anchor="start" x="649.5" y="-494.55" font-family="Courier,monospace" font-size="11.00"> &#160;&#160;&#160;&#160;&#160;&#160;&#160;&#160;&#160;&#160;&#160;&#160;&#160;&#160;&#160;&#160;&#160;&#160;&#160;&#160;&#160;&#160;&#160;&#160;&#160;&#160;&#160;&#160;&#160;&#160;&#160;&#160;&#160;&#160;&#160;&#160;&#160;&#160;&#160;</text>
<polygon fill="none" stroke="#99ccff" points="1077.75,-487.5 1077.75,-507 1171.5,-507 1171.5,-487.5 1077.75,-487.5"/>
<text text-anchor="start" x="1104.38" y="-493.55" font-family="Courier,monospace" font-size="11.00">id(18)</text>
<polygon fill="none" stroke="#99ccff" points="342.75,-468 342.75,-487.5 1077.75,-487.5 1077.75,-468 342.75,-468"/>
<text text-anchor="start" x="345.75" y="-474.05" font-family="Courier,monospace" font-size="11.00"> &#160;&#160;&#160;&#160;&#160;&#160;&#160;&#160;&#160;&#160;&#160;&#160;&#160;&#160;&#160;&#160;&#160;&#160;&#160;&#160;&#160;&#160;&#160;&#160;&#160;&#160;&#160;&#160;&#160;&#160;&#160;&#160;&#160;&#160;&#160;&#160;&#160;&#160;&#160;&#160;IsDeleted &#160;&#160;&#160;&#160;&#160;&#160;&#160;&#160;&#160;&#160;&#160;&#160;&#160;&#160;&#160;&#160;&#160;&#160;&#160;&#160;&#160;&#160;&#160;&#160;&#160;&#160;&#160;&#160;&#160;&#160;&#160;&#160;&#160;&#160;&#160;&#160;&#160;&#160;</text>
<polygon fill="none" stroke="#99ccff" points="1077.75,-468 1077.75,-487.5 1171.5,-487.5 1171.5,-468 1077.75,-468"/>
<text text-anchor="start" x="1101" y="-474.05" font-family="Courier,monospace" font-size="11.00">boolean</text>
<polygon fill="none" stroke="#99ccff" points="342.75,-448.5 342.75,-468 1077.75,-468 1077.75,-448.5 342.75,-448.5"/>
<text text-anchor="start" x="345.75" y="-454.55" font-family="Courier,monospace" font-size="11.00"> &#160;&#160;&#160;&#160;&#160;&#160;&#160;&#160;&#160;&#160;&#160;&#160;&#160;&#160;&#160;&#160;&#160;&#160;&#160;&#160;&#160;&#160;&#160;&#160;&#160;&#160;&#160;&#160;&#160;&#160;&#160;&#160;&#160;&#160;&#160;&#160;&#160;&#160;&#160;&#160;Name &#160;&#160;&#160;&#160;&#160;&#160;&#160;&#160;&#160;&#160;&#160;&#160;&#160;&#160;&#160;&#160;&#160;&#160;&#160;&#160;&#160;&#160;&#160;&#160;&#160;&#160;&#160;&#160;&#160;&#160;&#160;&#160;&#160;&#160;&#160;&#160;&#160;&#160;</text>
<polygon fill="none" stroke="#99ccff" points="1077.75,-448.5 1077.75,-468 1171.5,-468 1171.5,-448.5 1077.75,-448.5"/>
<text text-anchor="start" x="1087.5" y="-454.55" font-family="Courier,monospace" font-size="11.00">string(255)</text>
<polygon fill="none" stroke="#99ccff" points="342.75,-429 342.75,-448.5 1077.75,-448.5 1077.75,-429 342.75,-429"/>
<text text-anchor="start" x="345.75" y="-435.05" font-family="Courier,monospace" font-size="11.00"> &#160;&#160;&#160;&#160;&#160;&#160;&#160;&#160;&#160;&#160;&#160;&#160;&#160;&#160;&#160;&#160;&#160;&#160;&#160;&#160;&#160;&#160;&#160;&#160;&#160;&#160;&#160;&#160;&#160;&#160;&#160;&#160;&#160;&#160;&#160;&#160;&#160;&#160;&#160;&#160;LastModifiedById &#160;&#160;&#160;&#160;&#160;&#160;&#160;&#160;&#160;&#160;&#160;&#160;&#160;&#160;&#160;&#160;&#160;&#160;&#160;&#160;&#160;&#160;&#160;&#160;&#160;&#160;&#160;&#160;&#160;&#160;&#160;&#160;&#160;&#160;&#160;&#160;&#160;&#160;</text>
<polygon fill="none" stroke="#99ccff" points="1077.75,-429 1077.75,-448.5 1171.5,-448.5 1171.5,-429 1077.75,-429"/>
<text text-anchor="start" x="1080.75" y="-435.05" font-family="Courier,monospace" font-size="11.00">reference(18)</text>
<polygon fill="none" stroke="#99ccff" points="342.75,-409.5 342.75,-429 1077.75,-429 1077.75,-409.5 342.75,-409.5"/>
<text text-anchor="start" x="345.75" y="-415.55" font-family="Courier,monospace" font-size="11.00"> &#160;&#160;&#160;&#160;&#160;&#160;&#160;&#160;&#160;&#160;&#160;&#160;&#160;&#160;&#160;&#160;&#160;&#160;&#160;&#160;&#160;&#160;&#160;&#160;&#160;&#160;&#160;&#160;&#160;&#160;&#160;&#160;&#160;&#160;&#160;&#160;&#160;&#160;&#160;&#160;LastViewedDate &#160;&#160;&#160;&#160;&#160;&#160;&#160;&#160;&#160;&#160;&#160;&#160;&#160;&#160;&#160;&#160;&#160;&#160;&#160;&#160;&#160;&#160;&#160;&#160;&#160;&#160;&#160;&#160;&#160;&#160;&#160;&#160;&#160;&#160;&#160;&#160;&#160;&#160;</text>
<polygon fill="none" stroke="#99ccff" points="1077.75,-409.5 1077.75,-429 1171.5,-429 1171.5,-409.5 1077.75,-409.5"/>
<text text-anchor="start" x="1097.62" y="-415.55" font-family="Courier,monospace" font-size="11.00">datetime</text>
<polygon fill="none" stroke="#99ccff" points="342.75,-390 342.75,-409.5 1077.75,-409.5 1077.75,-390 342.75,-390"/>
<text text-anchor="start" x="345.75" y="-396.05" font-family="Courier,monospace" font-size="11.00"> &#160;&#160;&#160;&#160;&#160;&#160;&#160;&#160;&#160;&#160;&#160;&#160;&#160;&#160;&#160;&#160;&#160;&#160;&#160;&#160;&#160;&#160;&#160;&#160;&#160;&#160;&#160;&#160;&#160;&#160;&#160;&#160;&#160;&#160;&#160;&#160;&#160;&#160;&#160;&#160;LastReferencedDate &#160;&#160;&#160;&#160;&#160;&#160;&#160;&#160;&#160;&#160;&#160;&#160;&#160;&#160;&#160;&#160;&#160;&#160;&#160;&#160;&#160;&#160;&#160;&#160;&#160;&#160;&#160;&#160;&#160;&#160;&#160;&#160;&#160;&#160;&#160;&#160;&#160;&#160;</text>
<polygon fill="none" stroke="#99ccff" points="1077.75,-390 1077.75,-409.5 1171.5,-409.5 1171.5,-390 1077.75,-390"/>
<text text-anchor="start" x="1097.62" y="-396.05" font-family="Courier,monospace" font-size="11.00">datetime</text>
<polygon fill="none" stroke="#99ccff" points="342.75,-370.5 342.75,-390 1077.75,-390 1077.75,-370.5 342.75,-370.5"/>
<text text-anchor="start" x="345.75" y="-376.55" font-family="Courier,monospace" font-size="11.00"> &#160;&#160;&#160;&#160;&#160;&#160;&#160;&#160;&#160;&#160;&#160;&#160;&#160;&#160;&#160;&#160;&#160;&#160;&#160;&#160;&#160;&#160;&#160;&#160;&#160;&#160;&#160;&#160;&#160;&#160;&#160;&#160;&#160;&#160;&#160;&#160;&#160;&#160;&#160;&#160;ChildProductId &#160;&#160;&#160;&#160;&#160;&#160;&#160;&#160;&#160;&#160;&#160;&#160;&#160;&#160;&#160;&#160;&#160;&#160;&#160;&#160;&#160;&#160;&#160;&#160;&#160;&#160;&#160;&#160;&#160;&#160;&#160;&#160;&#160;&#160;&#160;&#160;&#160;&#160;</text>
<polygon fill="none" stroke="#99ccff" points="1077.75,-370.5 1077.75,-390 1171.5,-390 1171.5,-370.5 1077.75,-370.5"/>
<text text-anchor="start" x="1080.75" y="-376.55" font-family="Courier,monospace" font-size="11.00">reference(18)</text>
<polygon fill="none" stroke="#99ccff" points="342.75,-351 342.75,-370.5 1077.75,-370.5 1077.75,-351 342.75,-351"/>
<text text-anchor="start" x="345.75" y="-357.05" font-family="Courier,monospace" font-size="11.00"> &#160;&#160;&#160;&#160;&#160;&#160;&#160;&#160;&#160;&#160;&#160;&#160;&#160;&#160;&#160;&#160;&#160;&#160;&#160;&#160;&#160;&#160;&#160;&#160;&#160;&#160;&#160;&#160;&#160;&#160;&#160;&#160;&#160;&#160;&#160;&#160;&#160;&#160;&#160;&#160;ChildProductClassificationId &#160;&#160;&#160;&#160;&#160;&#160;&#160;&#160;&#160;&#160;&#160;&#160;&#160;&#160;&#160;&#160;&#160;&#160;&#160;&#160;&#160;&#160;&#160;&#160;&#160;&#160;&#160;&#160;&#160;&#160;&#160;&#160;&#160;&#160;&#160;&#160;&#160;&#160;</text>
<polygon fill="none" stroke="#99ccff" points="1077.75,-351 1077.75,-370.5 1171.5,-370.5 1171.5,-351 1077.75,-351"/>
<text text-anchor="start" x="1080.75" y="-357.05" font-family="Courier,monospace" font-size="11.00">reference(18)</text>
<polygon fill="none" stroke="#99ccff" points="342.75,-331.5 342.75,-351 1077.75,-351 1077.75,-331.5 342.75,-331.5"/>
<text text-anchor="start" x="345.75" y="-337.55" font-family="Courier,monospace" font-size="11.00"> &#160;&#160;&#160;&#160;&#160;&#160;&#160;&#160;&#160;&#160;&#160;&#160;&#160;&#160;&#160;&#160;&#160;&#160;&#160;&#160;&#160;&#160;&#160;&#160;&#160;&#160;&#160;&#160;&#160;&#160;&#160;&#160;&#160;&#160;&#160;&#160;&#160;&#160;&#160;&#160;ParentProductId &#160;&#160;&#160;&#160;&#160;&#160;&#160;&#160;&#160;&#160;&#160;&#160;&#160;&#160;&#160;&#160;&#160;&#160;&#160;&#160;&#160;&#160;&#160;&#160;&#160;&#160;&#160;&#160;&#160;&#160;&#160;&#160;&#160;&#160;&#160;&#160;&#160;&#160;</text>
<polygon fill="none" stroke="#99ccff" points="1077.75,-331.5 1077.75,-351 1171.5,-351 1171.5,-331.5 1077.75,-331.5"/>
<text text-anchor="start" x="1080.75" y="-337.55" font-family="Courier,monospace" font-size="11.00">reference(18)</text>
<polygon fill="none" stroke="#99ccff" points="342.75,-312 342.75,-331.5 1077.75,-331.5 1077.75,-312 342.75,-312"/>
<text text-anchor="start" x="345.75" y="-318.05" font-family="Courier,monospace" font-size="11.00"> &#160;&#160;&#160;&#160;&#160;&#160;&#160;&#160;&#160;&#160;&#160;&#160;&#160;&#160;&#160;&#160;&#160;&#160;&#160;&#160;&#160;&#160;&#160;&#160;&#160;&#160;&#160;&#160;&#160;&#160;&#160;&#160;&#160;&#160;&#160;&#160;&#160;&#160;&#160;&#160;Quantity &#160;&#160;&#160;&#160;&#160;&#160;&#160;&#160;&#160;&#160;&#160;&#160;&#160;&#160;&#160;&#160;&#160;&#160;&#160;&#160;&#160;&#160;&#160;&#160;&#160;&#160;&#160;&#160;&#160;&#160;&#160;&#160;&#160;&#160;&#160;&#160;&#160;&#160;</text>
<polygon fill="none" stroke="#99ccff" points="1077.75,-312 1077.75,-331.5 1171.5,-331.5 1171.5,-312 1077.75,-312"/>
<text text-anchor="start" x="1104.38" y="-318.05" font-family="Courier,monospace" font-size="11.00">double</text>
<polygon fill="none" stroke="#99ccff" points="342.75,-292.5 342.75,-312 1077.75,-312 1077.75,-292.5 342.75,-292.5"/>
<text text-anchor="start" x="345.75" y="-298.55" font-family="Courier,monospace" font-size="11.00"> &#160;&#160;&#160;&#160;&#160;&#160;&#160;&#160;&#160;&#160;&#160;&#160;&#160;&#160;&#160;&#160;&#160;&#160;&#160;&#160;&#160;&#160;&#160;&#160;&#160;&#160;&#160;&#160;&#160;&#160;&#160;&#160;&#160;&#160;&#160;&#160;&#160;&#160;&#160;&#160;ParentSellingModelId &#160;&#160;&#160;&#160;&#160;&#160;&#160;&#160;&#160;&#160;&#160;&#160;&#160;&#160;&#160;&#160;&#160;&#160;&#160;&#160;&#160;&#160;&#160;&#160;&#160;&#160;&#160;&#160;&#160;&#160;&#160;&#160;&#160;&#160;&#160;&#160;&#160;&#160;</text>
<polygon fill="none" stroke="#99ccff" points="1077.75,-292.5 1077.75,-312 1171.5,-312 1171.5,-292.5 1077.75,-292.5"/>
<text text-anchor="start" x="1080.75" y="-298.55" font-family="Courier,monospace" font-size="11.00">reference(18)</text>
<polygon fill="none" stroke="#99ccff" points="342.75,-273 342.75,-292.5 1077.75,-292.5 1077.75,-273 342.75,-273"/>
<text text-anchor="start" x="345.75" y="-279.05" font-family="Courier,monospace" font-size="11.00"> &#160;&#160;&#160;&#160;&#160;&#160;&#160;&#160;&#160;&#160;&#160;&#160;&#160;&#160;&#160;&#160;&#160;&#160;&#160;&#160;&#160;&#160;&#160;&#160;&#160;&#160;&#160;&#160;&#160;&#160;&#160;&#160;&#160;&#160;&#160;&#160;&#160;&#160;&#160;&#160;ChildSellingModelId &#160;&#160;&#160;&#160;&#160;&#160;&#160;&#160;&#160;&#160;&#160;&#160;&#160;&#160;&#160;&#160;&#160;&#160;&#160;&#160;&#160;&#160;&#160;&#160;&#160;&#160;&#160;&#160;&#160;&#160;&#160;&#160;&#160;&#160;&#160;&#160;&#160;&#160;</text>
<polygon fill="none" stroke="#99ccff" points="1077.75,-273 1077.75,-292.5 1171.5,-292.5 1171.5,-273 1077.75,-273"/>
<text text-anchor="start" x="1080.75" y="-279.05" font-family="Courier,monospace" font-size="11.00">reference(18)</text>
<polygon fill="none" stroke="#99ccff" points="342.75,-253.5 342.75,-273 1077.75,-273 1077.75,-253.5 342.75,-253.5"/>
<text text-anchor="start" x="345.75" y="-259.55" font-family="Courier,monospace" font-size="11.00"> &#160;&#160;&#160;&#160;&#160;&#160;&#160;&#160;&#160;&#160;&#160;&#160;&#160;&#160;&#160;&#160;&#160;&#160;&#160;&#160;&#160;&#160;&#160;&#160;&#160;&#160;&#160;&#160;&#160;&#160;&#160;&#160;&#160;&#160;&#160;&#160;&#160;&#160;&#160;&#160;Sequence &#160;&#160;&#160;&#160;&#160;&#160;&#160;&#160;&#160;&#160;&#160;&#160;&#160;&#160;&#160;&#160;&#160;&#160;&#160;&#160;&#160;&#160;&#160;&#160;&#160;&#160;&#160;&#160;&#160;&#160;&#160;&#160;&#160;&#160;&#160;&#160;&#160;&#160;</text>
<polygon fill="none" stroke="#99ccff" points="1077.75,-253.5 1077.75,-273 1171.5,-273 1171.5,-253.5 1077.75,-253.5"/>
<text text-anchor="start" x="1114.5" y="-259.55" font-family="Courier,monospace" font-size="11.00">int</text>
<polygon fill="none" stroke="#99ccff" points="342.75,-234 342.75,-253.5 1077.75,-253.5 1077.75,-234 342.75,-234"/>
<text text-anchor="start" x="345.75" y="-240.05" font-family="Courier,monospace" font-size="11.00"> &#160;&#160;&#160;&#160;&#160;&#160;&#160;&#160;&#160;&#160;&#160;&#160;&#160;&#160;&#160;&#160;&#160;&#160;&#160;&#160;&#160;&#160;&#160;&#160;&#160;&#160;&#160;&#160;&#160;&#160;&#160;&#160;&#160;&#160;&#160;&#160;&#160;&#160;&#160;&#160;DoesBundlePriceIncludeChild &#160;&#160;&#160;&#160;&#160;&#160;&#160;&#160;&#160;&#160;&#160;&#160;&#160;&#160;&#160;&#160;&#160;&#160;&#160;&#160;&#160;&#160;&#160;&#160;&#160;&#160;&#160;&#160;&#160;&#160;&#160;&#160;&#160;&#160;&#160;&#160;&#160;&#160;</text>
<polygon fill="none" stroke="#99ccff" points="1077.75,-234 1077.75,-253.5 1171.5,-253.5 1171.5,-234 1077.75,-234"/>
<text text-anchor="start" x="1101" y="-240.05" font-family="Courier,monospace" font-size="11.00">boolean</text>
<polygon fill="none" stroke="#99ccff" points="342.75,-214.5 342.75,-234 1077.75,-234 1077.75,-214.5 342.75,-214.5"/>
<text text-anchor="start" x="345.75" y="-220.55" font-family="Courier,monospace" font-size="11.00"> &#160;&#160;&#160;&#160;&#160;&#160;&#160;&#160;&#160;&#160;&#160;&#160;&#160;&#160;&#160;&#160;&#160;&#160;&#160;&#160;&#160;&#160;&#160;&#160;&#160;&#160;&#160;&#160;&#160;&#160;&#160;&#160;&#160;&#160;&#160;&#160;&#160;&#160;&#160;&#160;QuantityScaleMethod &#160;&#160;&#160;&#160;&#160;&#160;&#160;&#160;&#160;&#160;&#160;&#160;&#160;&#160;&#160;&#160;&#160;&#160;&#160;&#160;&#160;&#160;&#160;&#160;&#160;&#160;&#160;&#160;&#160;&#160;&#160;&#160;&#160;&#160;&#160;&#160;&#160;&#160;</text>
<polygon fill="none" stroke="#99ccff" points="1077.75,-214.5 1077.75,-234 1171.5,-234 1171.5,-214.5 1077.75,-214.5"/>
<text text-anchor="start" x="1080.75" y="-220.55" font-family="Courier,monospace" font-size="11.00">picklist(255)</text>
<polygon fill="none" stroke="#99ccff" points="342.75,-195 342.75,-214.5 1077.75,-214.5 1077.75,-195 342.75,-195"/>
<text text-anchor="start" x="345.75" y="-201.05" font-family="Courier,monospace" font-size="11.00"> &#160;&#160;&#160;&#160;&#160;&#160;&#160;&#160;&#160;&#160;&#160;&#160;&#160;&#160;&#160;&#160;&#160;&#160;&#160;&#160;&#160;&#160;&#160;&#160;&#160;&#160;&#160;&#160;&#160;&#160;&#160;&#160;&#160;&#160;&#160;&#160;&#160;&#160;&#160;&#160;MaxQuantity &#160;&#160;&#160;&#160;&#160;&#160;&#160;&#160;&#160;&#160;&#160;&#160;&#160;&#160;&#160;&#160;&#160;&#160;&#160;&#160;&#160;&#160;&#160;&#160;&#160;&#160;&#160;&#160;&#160;&#160;&#160;&#160;&#160;&#160;&#160;&#160;&#160;&#160;</text>
<polygon fill="none" stroke="#99ccff" points="1077.75,-195 1077.75,-214.5 1171.5,-214.5 1171.5,-195 1077.75,-195"/>
<text text-anchor="start" x="1104.38" y="-201.05" font-family="Courier,monospace" font-size="11.00">double</text>
<polygon fill="none" stroke="#99ccff" points="342.75,-175.5 342.75,-195 1077.75,-195 1077.75,-175.5 342.75,-175.5"/>
<text text-anchor="start" x="345.75" y="-181.55" font-family="Courier,monospace" font-size="11.00"> &#160;&#160;&#160;&#160;&#160;&#160;&#160;&#160;&#160;&#160;&#160;&#160;&#160;&#160;&#160;&#160;&#160;&#160;&#160;&#160;&#160;&#160;&#160;&#160;&#160;&#160;&#160;&#160;&#160;&#160;&#160;&#160;&#160;&#160;&#160;&#160;&#160;&#160;&#160;&#160;MinQuantity &#160;&#160;&#160;&#160;&#160;&#160;&#160;&#160;&#160;&#160;&#160;&#160;&#160;&#160;&#160;&#160;&#160;&#160;&#160;&#160;&#160;&#160;&#160;&#160;&#160;&#160;&#160;&#160;&#160;&#160;&#160;&#160;&#160;&#160;&#160;&#160;&#160;&#160;</text>
<polygon fill="none" stroke="#99ccff" points="1077.75,-175.5 1077.75,-195 1171.5,-195 1171.5,-175.5 1077.75,-175.5"/>
<text text-anchor="start" x="1104.38" y="-181.55" font-family="Courier,monospace" font-size="11.00">double</text>
<polygon fill="none" stroke="#99ccff" points="342.75,-156 342.75,-175.5 1077.75,-175.5 1077.75,-156 342.75,-156"/>
<text text-anchor="start" x="345.75" y="-162.05" font-family="Courier,monospace" font-size="11.00"> &#160;&#160;&#160;&#160;&#160;&#160;&#160;&#160;&#160;&#160;&#160;&#160;&#160;&#160;&#160;&#160;&#160;&#160;&#160;&#160;&#160;&#160;&#160;&#160;&#160;&#160;&#160;&#160;&#160;&#160;&#160;&#160;&#160;&#160;&#160;&#160;&#160;&#160;&#160;&#160;ProductComponentGroupId &#160;&#160;&#160;&#160;&#160;&#160;&#160;&#160;&#160;&#160;&#160;&#160;&#160;&#160;&#160;&#160;&#160;&#160;&#160;&#160;&#160;&#160;&#160;&#160;&#160;&#160;&#160;&#160;&#160;&#160;&#160;&#160;&#160;&#160;&#160;&#160;&#160;&#160;</text>
<polygon fill="none" stroke="#99ccff" points="1077.75,-156 1077.75,-175.5 1171.5,-175.5 1171.5,-156 1077.75,-156"/>
<text text-anchor="start" x="1080.75" y="-162.05" font-family="Courier,monospace" font-size="11.00">reference(18)</text>
<polygon fill="none" stroke="#99ccff" points="342.75,-136.5 342.75,-156 1077.75,-156 1077.75,-136.5 342.75,-136.5"/>
<text text-anchor="start" x="345.75" y="-142.55" font-family="Courier,monospace" font-size="11.00"> &#160;&#160;&#160;&#160;&#160;&#160;&#160;&#160;&#160;&#160;&#160;&#160;&#160;&#160;&#160;&#160;&#160;&#160;&#160;&#160;&#160;&#160;&#160;&#160;&#160;&#160;&#160;&#160;&#160;&#160;&#160;&#160;&#160;&#160;&#160;&#160;&#160;&#160;&#160;&#160;IsComponentRequired &#160;&#160;&#160;&#160;&#160;&#160;&#160;&#160;&#160;&#160;&#160;&#160;&#160;&#160;&#160;&#160;&#160;&#160;&#160;&#160;&#160;&#160;&#160;&#160;&#160;&#160;&#160;&#160;&#160;&#160;&#160;&#160;&#160;&#160;&#160;&#160;&#160;&#160;</text>
<polygon fill="none" stroke="#99ccff" points="1077.75,-136.5 1077.75,-156 1171.5,-156 1171.5,-136.5 1077.75,-136.5"/>
<text text-anchor="start" x="1101" y="-142.55" font-family="Courier,monospace" font-size="11.00">boolean</text>
<polygon fill="none" stroke="#99ccff" points="342.75,-117 342.75,-136.5 1077.75,-136.5 1077.75,-117 342.75,-117"/>
<text text-anchor="start" x="345.75" y="-123.05" font-family="Courier,monospace" font-size="11.00"> &#160;&#160;&#160;&#160;&#160;&#160;&#160;&#160;&#160;&#160;&#160;&#160;&#160;&#160;&#160;&#160;&#160;&#160;&#160;&#160;&#160;&#160;&#160;&#160;&#160;&#160;&#160;&#160;&#160;&#160;&#160;&#160;&#160;&#160;&#160;&#160;&#160;&#160;&#160;&#160;IsQuantityEditable &#160;&#160;&#160;&#160;&#160;&#160;&#160;&#160;&#160;&#160;&#160;&#160;&#160;&#160;&#160;&#160;&#160;&#160;&#160;&#160;&#160;&#160;&#160;&#160;&#160;&#160;&#160;&#160;&#160;&#160;&#160;&#160;&#160;&#160;&#160;&#160;&#160;&#160;</text>
<polygon fill="none" stroke="#99ccff" points="1077.75,-117 1077.75,-136.5 1171.5,-136.5 1171.5,-117 1077.75,-117"/>
<text text-anchor="start" x="1101" y="-123.05" font-family="Courier,monospace" font-size="11.00">boolean</text>
<polygon fill="none" stroke="#99ccff" points="342.75,-97.5 342.75,-117 1077.75,-117 1077.75,-97.5 342.75,-97.5"/>
<text text-anchor="start" x="345.75" y="-103.55" font-family="Courier,monospace" font-size="11.00"> &#160;&#160;&#160;&#160;&#160;&#160;&#160;&#160;&#160;&#160;&#160;&#160;&#160;&#160;&#160;&#160;&#160;&#160;&#160;&#160;&#160;&#160;&#160;&#160;&#160;&#160;&#160;&#160;&#160;&#160;&#160;&#160;&#160;&#160;&#160;&#160;&#160;&#160;&#160;&#160;IsDefaultComponent &#160;&#160;&#160;&#160;&#160;&#160;&#160;&#160;&#160;&#160;&#160;&#160;&#160;&#160;&#160;&#160;&#160;&#160;&#160;&#160;&#160;&#160;&#160;&#160;&#160;&#160;&#160;&#160;&#160;&#160;&#160;&#160;&#160;&#160;&#160;&#160;&#160;&#160;</text>
<polygon fill="none" stroke="#99ccff" points="1077.75,-97.5 1077.75,-117 1171.5,-117 1171.5,-97.5 1077.75,-97.5"/>
<text text-anchor="start" x="1101" y="-103.55" font-family="Courier,monospace" font-size="11.00">boolean</text>
<polygon fill="none" stroke="#99ccff" points="342.75,-78 342.75,-97.5 1077.75,-97.5 1077.75,-78 342.75,-78"/>
<text text-anchor="start" x="345.75" y="-84.05" font-family="Courier,monospace" font-size="11.00"> &#160;&#160;&#160;&#160;&#160;&#160;&#160;&#160;&#160;&#160;&#160;&#160;&#160;&#160;&#160;&#160;&#160;&#160;&#160;&#160;&#160;&#160;&#160;&#160;&#160;&#160;&#160;&#160;&#160;&#160;&#160;&#160;&#160;&#160;&#160;&#160;&#160;&#160;&#160;&#160;ProductRelationshipTypeId &#160;&#160;&#160;&#160;&#160;&#160;&#160;&#160;&#160;&#160;&#160;&#160;&#160;&#160;&#160;&#160;&#160;&#160;&#160;&#160;&#160;&#160;&#160;&#160;&#160;&#160;&#160;&#160;&#160;&#160;&#160;&#160;&#160;&#160;&#160;&#160;&#160;&#160;</text>
<polygon fill="none" stroke="#99ccff" points="1077.75,-78 1077.75,-97.5 1171.5,-97.5 1171.5,-78 1077.75,-78"/>
<text text-anchor="start" x="1080.75" y="-84.05" font-family="Courier,monospace" font-size="11.00">reference(18)</text>
<polygon fill="none" stroke="#99ccff" points="342.75,-58.5 342.75,-78 1077.75,-78 1077.75,-58.5 342.75,-58.5"/>
<text text-anchor="start" x="345.75" y="-64.55" font-family="Courier,monospace" font-size="11.00"> &#160;&#160;&#160;&#160;&#160;&#160;&#160;&#160;&#160;&#160;&#160;&#160;&#160;&#160;&#160;&#160;&#160;&#160;&#160;&#160;&#160;&#160;&#160;&#160;&#160;&#160;&#160;&#160;&#160;&#160;&#160;&#160;&#160;&#160;&#160;&#160;&#160;&#160;&#160;&#160;ParentProductRole &#160;&#160;&#160;&#160;&#160;&#160;&#160;&#160;&#160;&#160;&#160;&#160;&#160;&#160;&#160;&#160;&#160;&#160;&#160;&#160;&#160;&#160;&#160;&#160;&#160;&#160;&#160;&#160;&#160;&#160;&#160;&#160;&#160;&#160;&#160;&#160;&#160;&#160;</text>
<polygon fill="none" stroke="#99ccff" points="1077.75,-58.5 1077.75,-78 1171.5,-78 1171.5,-58.5 1077.75,-58.5"/>
<text text-anchor="start" x="1080.75" y="-64.55" font-family="Courier,monospace" font-size="11.00">picklist(255)</text>
<polygon fill="none" stroke="#99ccff" points="342.75,-39 342.75,-58.5 1077.75,-58.5 1077.75,-39 342.75,-39"/>
<text text-anchor="start" x="345.75" y="-45.05" font-family="Courier,monospace" font-size="11.00"> &#160;&#160;&#160;&#160;&#160;&#160;&#160;&#160;&#160;&#160;&#160;&#160;&#160;&#160;&#160;&#160;&#160;&#160;&#160;&#160;&#160;&#160;&#160;&#160;&#160;&#160;&#160;&#160;&#160;&#160;&#160;&#160;&#160;&#160;&#160;&#160;&#160;&#160;&#160;&#160;ChildProductRole &#160;&#160;&#160;&#160;&#160;&#160;&#160;&#160;&#160;&#160;&#160;&#160;&#160;&#160;&#160;&#160;&#160;&#160;&#160;&#160;&#160;&#160;&#160;&#160;&#160;&#160;&#160;&#160;&#160;&#160;&#160;&#160;&#160;&#160;&#160;&#160;&#160;&#160;</text>
<polygon fill="none" stroke="#99ccff" points="1077.75,-39 1077.75,-58.5 1171.5,-58.5 1171.5,-39 1077.75,-39"/>
<text text-anchor="start" x="1080.75" y="-45.05" font-family="Courier,monospace" font-size="11.00">picklist(255)</text>
<polygon fill="none" stroke="#99ccff" points="342.75,-19.5 342.75,-39 1077.75,-39 1077.75,-19.5 342.75,-19.5"/>
<text text-anchor="start" x="345.75" y="-25.55" font-family="Courier,monospace" font-size="11.00"> &#160;&#160;&#160;&#160;&#160;&#160;&#160;&#160;&#160;&#160;&#160;&#160;&#160;&#160;&#160;&#160;&#160;&#160;&#160;&#160;&#160;&#160;&#160;&#160;&#160;&#160;&#160;&#160;&#160;&#160;&#160;&#160;&#160;&#160;&#160;&#160;&#160;&#160;&#160;&#160;QuoteVisibility &#160;&#160;&#160;&#160;&#160;&#160;&#160;&#160;&#160;&#160;&#160;&#160;&#160;&#160;&#160;&#160;&#160;&#160;&#160;&#160;&#160;&#160;&#160;&#160;&#160;&#160;&#160;&#160;&#160;&#160;&#160;&#160;&#160;&#160;&#160;&#160;&#160;&#160;</text>
<polygon fill="none" stroke="#99ccff" points="1077.75,-19.5 1077.75,-39 1171.5,-39 1171.5,-19.5 1077.75,-19.5"/>
<text text-anchor="start" x="1080.75" y="-25.55" font-family="Courier,monospace" font-size="11.00">picklist(255)</text>
<polygon fill="none" stroke="#99ccff" points="341.75,-18.5 341.75,-527.5 1172.5,-527.5 1172.5,-18.5 341.75,-18.5"/>
</a>
</g>
</g>
<!-- User -->
<g id="node2" class="node">
<title>User</title>
<text text-anchor="middle" x="85.62" y="-434.3" font-family="Courier,monospace" font-size="11.00">User</text>
</g>
<!-- ProductRelatedComponent&#45;&gt;User -->
<g id="edge1" class="edge">
<title>ProductRelatedComponent:w&#45;&gt;User:e</title>
<path fill="none" stroke="#ff99cc" d="M326.1,-438.75C245.78,-438.7 155.52,-438.33 112.34,-438.13"/>
<polygon fill="#ff99cc" stroke="#ff99cc" points="333.42,-438.75 341.41,-442.35 337.75,-438.75 341.08,-438.75 341.08,-438.75 341.08,-438.75 337.75,-438.75 341.42,-435.15 333.42,-438.75"/>
<ellipse fill="none" stroke="#ff99cc" cx="328.5" cy="-438.75" rx="3.2" ry="3.2"/>
<text text-anchor="middle" x="256.5" y="-441.44" font-family="Monaco" font-size="9.00">LastModifiedBy</text>
</g>
<!-- Product2 -->
<g id="node3" class="node">
<title>Product2</title>
<text text-anchor="middle" x="85.62" y="-324.3" font-family="Courier,monospace" font-size="11.00">Product2</text>
</g>
<!-- ProductRelatedComponent&#45;&gt;Product2 -->
<g id="edge2" class="edge">
<title>ProductRelatedComponent:w&#45;&gt;Product2:e</title>
<path fill="none" stroke="#ff99cc" d="M326.16,-380.62C269.41,-383.34 244.92,-399.18 188.25,-372 178.03,-367.1 180.83,-359.06 171.25,-353 155.97,-343.34 136.8,-337.27 120.57,-333.54"/>
<polygon fill="#ff99cc" stroke="#ff99cc" points="333.42,-380.45 341.5,-383.86 337.75,-380.35 341.08,-380.27 341.08,-380.27 341.08,-380.27 337.75,-380.35 341.33,-376.66 333.42,-380.45"/>
<ellipse fill="none" stroke="#ff99cc" cx="328.5" cy="-380.57" rx="3.2" ry="3.2"/>
<text text-anchor="middle" x="256.5" y="-390.37" font-family="Monaco" font-size="9.00">ChildProduct</text>
</g>
<!-- ProductRelatedComponent&#45;&gt;Product2 -->
<g id="edge4" class="edge">
<title>ProductRelatedComponent:w&#45;&gt;Product2:e</title>
<path fill="none" stroke="#ff99cc" d="M327.79,-333.84C326.9,-333.41 325.9,-333.03 324.75,-332.75 253.69,-315.23 167.06,-319.66 120.36,-324.07"/>
<polygon fill="#ff99cc" stroke="#ff99cc" points="334.39,-337.34 339.77,-344.27 338.22,-339.37 341.16,-340.94 341.16,-340.94 341.16,-340.94 338.22,-339.37 343.14,-337.91 334.39,-337.34"/>
<ellipse fill="none" stroke="#ff99cc" cx="330.04" cy="-335.04" rx="3.2" ry="3.2"/>
<text text-anchor="middle" x="256.5" y="-335.45" font-family="Monaco" font-size="9.00">ParentProduct</text>
</g>
<!-- ProductClassification -->
<g id="node4" class="node">
<title>ProductClassification</title>
<text text-anchor="middle" x="85.62" y="-373.3" font-family="Courier,monospace" font-size="11.00">ProductClassification</text>
</g>
<!-- ProductRelatedComponent&#45;&gt;ProductClassification -->
<g id="edge3" class="edge">
<title>ProductRelatedComponent:w&#45;&gt;ProductClassification:e</title>
<path fill="none" stroke="#ff99cc" d="M326.11,-358.85C325.68,-358.81 325.22,-358.78 324.75,-358.75 264.19,-355.2 248.68,-353.37 188.25,-358.75 180.48,-359.44 172.42,-360.43 164.39,-361.58"/>
<polygon fill="#ff99cc" stroke="#ff99cc" points="333.48,-359.74 340.98,-364.28 337.78,-360.27 341.09,-360.67 341.09,-360.67 341.09,-360.67 337.78,-360.27 341.85,-357.14 333.48,-359.74"/>
<ellipse fill="none" stroke="#ff99cc" cx="328.59" cy="-359.15" rx="3.2" ry="3.2"/>
<text text-anchor="middle" x="256.5" y="-361.45" font-family="Monaco" font-size="9.00">ChildProductClassification</text>
</g>
<!-- ProductSellingModel -->
<g id="node5" class="node">
<title>ProductSellingModel</title>
<text text-anchor="middle" x="85.62" y="-273.3" font-family="Courier,monospace" font-size="11.00">ProductSellingModel</text>
</g>
<!-- ProductRelatedComponent&#45;&gt;ProductSellingModel -->
<g id="edge5" class="edge">
<title>ProductRelatedComponent:w&#45;&gt;ProductSellingModel:e</title>
<path fill="none" stroke="#ff99cc" d="M326.24,-302.1C267.87,-301.01 204.54,-294.11 157.65,-287.82"/>
<polygon fill="#ff99cc" stroke="#ff99cc" points="333.42,-302.17 341.38,-305.85 337.75,-302.21 341.08,-302.24 341.08,-302.24 341.08,-302.24 337.75,-302.21 341.45,-298.65 333.42,-302.17"/>
<ellipse fill="none" stroke="#ff99cc" cx="328.5" cy="-302.12" rx="3.2" ry="3.2"/>
<text text-anchor="middle" x="256.5" y="-304.69" font-family="Monaco" font-size="9.00">ParentSellingModel</text>
</g>
<!-- ProductRelatedComponent&#45;&gt;ProductSellingModel -->
<g id="edge6" class="edge">
<title>ProductRelatedComponent:w&#45;&gt;ProductSellingModel:e</title>
<path fill="none" stroke="#ff99cc" d="M326.78,-278.14C326.15,-277.99 325.48,-277.86 324.75,-277.75 269.01,-269.63 205.15,-269.94 157.6,-272.01"/>
<polygon fill="#ff99cc" stroke="#ff99cc" points="333.79,-280.29 340.37,-286.09 337.93,-281.57 341.11,-282.55 341.11,-282.55 341.11,-282.55 337.93,-281.57 342.49,-279.21 333.79,-280.29"/>
<ellipse fill="none" stroke="#ff99cc" cx="329.09" cy="-278.85" rx="3.2" ry="3.2"/>
<text text-anchor="middle" x="256.5" y="-280.45" font-family="Monaco" font-size="9.00">ChildSellingModel</text>
</g>
<!-- ProductComponentGroup -->
<g id="node6" class="node">
<title>ProductComponentGroup</title>
<text text-anchor="middle" x="85.62" y="-162.3" font-family="Courier,monospace" font-size="11.00">ProductComponentGroup</text>
</g>
<!-- ProductRelatedComponent&#45;&gt;ProductComponentGroup -->
<g id="edge7" class="edge">
<title>ProductRelatedComponent:w&#45;&gt;ProductComponentGroup:e</title>
<path fill="none" stroke="#ff99cc" d="M326.23,-165.75C270.72,-165.76 210.43,-165.82 164.22,-165.88"/>
<polygon fill="#ff99cc" stroke="#ff99cc" points="333.42,-165.75 341.42,-169.35 337.75,-165.75 341.08,-165.75 341.08,-165.75 341.08,-165.75 337.75,-165.75 341.42,-162.15 333.42,-165.75"/>
<ellipse fill="none" stroke="#ff99cc" cx="328.5" cy="-165.75" rx="3.2" ry="3.2"/>
<text text-anchor="middle" x="256.5" y="-168.55" font-family="Monaco" font-size="9.00">ProductComponentGroup</text>
</g>
<!-- ProductRelationshipType -->
<g id="node7" class="node">
<title>ProductRelationshipType</title>
<text text-anchor="middle" x="85.62" y="-84.3" font-family="Courier,monospace" font-size="11.00">ProductRelationshipType</text>
</g>
<!-- ProductRelatedComponent&#45;&gt;ProductRelationshipType -->
<g id="edge8" class="edge">
<title>ProductRelatedComponent:w&#45;&gt;ProductRelationshipType:e</title>
<path fill="none" stroke="#ff99cc" d="M325.91,-87.75C273.19,-87.76 216.21,-87.82 171.09,-87.88"/>
<polygon fill="#ff99cc" stroke="#ff99cc" points="333.42,-87.75 341.42,-91.35 337.75,-87.75 341.08,-87.75 341.08,-87.75 341.08,-87.75 337.75,-87.75 341.42,-84.15 333.42,-87.75"/>
<ellipse fill="none" stroke="#ff99cc" cx="328.5" cy="-87.75" rx="3.2" ry="3.2"/>
<text text-anchor="middle" x="256.5" y="-90.55" font-family="Monaco" font-size="9.00">ProductRelationshipType</text>
</g>
</g>
</svg>
