<?xml version="1.0" encoding="UTF-8" standalone="no"?>
<!DOCTYPE svg PUBLIC "-//W3C//DTD SVG 1.1//EN"
 "http://www.w3.org/Graphics/SVG/1.1/DTD/svg11.dtd">
<!-- Generated by graphviz version 12.2.1 (20241206.2353)
 -->
<!-- Title: Salesforce+ ERD Pages: 1 -->
<svg width="996pt" height="270pt"
 viewBox="0.00 0.00 996.00 269.50" xmlns="http://www.w3.org/2000/svg" xmlns:xlink="http://www.w3.org/1999/xlink">
<g id="graph0" class="graph" transform="scale(1 1) rotate(0) translate(4 265.5)">
<title>Salesforce+ ERD</title>
<polygon fill="#efeffd" stroke="none" points="-4,4 -4,-265.5 992,-265.5 992,4 -4,4"/>
<text text-anchor="middle" x="940.62" y="-5.95" font-family="Courier,monospace" font-size="9.00">Salesforce ERD </text>
<!-- ProductCategoryQualification -->
<g id="node1" class="node">
<title>ProductCategoryQualification</title>
<g id="a_node1"><a xlink:href="#" xlink:title=" ProductCategoryQualification ">
<polygon fill="#ffeeff" stroke="none" points="224.75,-25.5 224.75,-261.5 988,-261.5 988,-25.5 224.75,-25.5"/>
<polygon fill="lightblue" stroke="none" points="225.75,-241 225.75,-260.5 987,-260.5 987,-241 225.75,-241"/>
<polygon fill="none" stroke="#99ccff" points="225.75,-241 225.75,-260.5 987,-260.5 987,-241 225.75,-241"/>
<text text-anchor="start" x="511.88" y="-248.05" font-family="Courier,monospace" font-weight="bold" font-size="11.00">ProductCategoryQualification</text>
<polygon fill="#99ccff" stroke="none" points="225.75,-221.5 225.75,-241 893.25,-241 893.25,-221.5 225.75,-221.5"/>
<polygon fill="none" stroke="#99ccff" points="225.75,-221.5 225.75,-241 893.25,-241 893.25,-221.5 225.75,-221.5"/>
<text text-anchor="start" x="228.75" y="-228.55" font-family="Courier,monospace" font-size="11.00"> &#160;&#160;&#160;&#160;&#160;&#160;&#160;&#160;&#160;&#160;&#160;&#160;&#160;&#160;&#160;&#160;&#160;&#160;&#160;&#160;&#160;&#160;&#160;&#160;&#160;&#160;&#160;&#160;&#160;&#160;&#160;&#160;&#160;&#160;&#160;&#160;&#160;&#160;&#160;&#160;&#160;&#160;</text>
<text text-anchor="start" x="519" y="-228.55" font-family="Courier,monospace" font-weight="bold" font-size="11.00">Id</text>
<text text-anchor="start" x="532.5" y="-228.55" font-family="Courier,monospace" font-size="11.00"> &#160;&#160;&#160;&#160;&#160;&#160;&#160;&#160;&#160;&#160;&#160;&#160;&#160;&#160;&#160;&#160;&#160;&#160;&#160;&#160;&#160;&#160;&#160;&#160;&#160;&#160;&#160;&#160;&#160;&#160;&#160;&#160;&#160;&#160;&#160;&#160;&#160;&#160;&#160;</text>
<polygon fill="none" stroke="#99ccff" points="893.25,-221.5 893.25,-241 987,-241 987,-221.5 893.25,-221.5"/>
<text text-anchor="start" x="919.88" y="-227.55" font-family="Courier,monospace" font-size="11.00">id(18)</text>
<polygon fill="none" stroke="#99ccff" points="225.75,-202 225.75,-221.5 893.25,-221.5 893.25,-202 225.75,-202"/>
<text text-anchor="start" x="228.75" y="-208.05" font-family="Courier,monospace" font-size="11.00"> &#160;&#160;&#160;&#160;&#160;&#160;&#160;&#160;&#160;&#160;&#160;&#160;&#160;&#160;&#160;&#160;&#160;&#160;&#160;&#160;&#160;&#160;&#160;&#160;&#160;&#160;&#160;&#160;&#160;&#160;&#160;&#160;&#160;&#160;&#160;&#160;&#160;&#160;&#160;&#160;OwnerId &#160;&#160;&#160;&#160;&#160;&#160;&#160;&#160;&#160;&#160;&#160;&#160;&#160;&#160;&#160;&#160;&#160;&#160;&#160;&#160;&#160;&#160;&#160;&#160;&#160;&#160;&#160;&#160;&#160;&#160;&#160;&#160;&#160;&#160;&#160;&#160;&#160;&#160;</text>
<polygon fill="none" stroke="#99ccff" points="893.25,-202 893.25,-221.5 987,-221.5 987,-202 893.25,-202"/>
<text text-anchor="start" x="896.25" y="-208.05" font-family="Courier,monospace" font-size="11.00">reference(18)</text>
<polygon fill="none" stroke="#99ccff" points="225.75,-182.5 225.75,-202 893.25,-202 893.25,-182.5 225.75,-182.5"/>
<text text-anchor="start" x="228.75" y="-188.55" font-family="Courier,monospace" font-size="11.00"> &#160;&#160;&#160;&#160;&#160;&#160;&#160;&#160;&#160;&#160;&#160;&#160;&#160;&#160;&#160;&#160;&#160;&#160;&#160;&#160;&#160;&#160;&#160;&#160;&#160;&#160;&#160;&#160;&#160;&#160;&#160;&#160;&#160;&#160;&#160;&#160;&#160;&#160;&#160;&#160;IsDeleted &#160;&#160;&#160;&#160;&#160;&#160;&#160;&#160;&#160;&#160;&#160;&#160;&#160;&#160;&#160;&#160;&#160;&#160;&#160;&#160;&#160;&#160;&#160;&#160;&#160;&#160;&#160;&#160;&#160;&#160;&#160;&#160;&#160;&#160;&#160;&#160;&#160;&#160;</text>
<polygon fill="none" stroke="#99ccff" points="893.25,-182.5 893.25,-202 987,-202 987,-182.5 893.25,-182.5"/>
<text text-anchor="start" x="916.5" y="-188.55" font-family="Courier,monospace" font-size="11.00">boolean</text>
<polygon fill="none" stroke="#99ccff" points="225.75,-163 225.75,-182.5 893.25,-182.5 893.25,-163 225.75,-163"/>
<text text-anchor="start" x="228.75" y="-169.05" font-family="Courier,monospace" font-size="11.00"> &#160;&#160;&#160;&#160;&#160;&#160;&#160;&#160;&#160;&#160;&#160;&#160;&#160;&#160;&#160;&#160;&#160;&#160;&#160;&#160;&#160;&#160;&#160;&#160;&#160;&#160;&#160;&#160;&#160;&#160;&#160;&#160;&#160;&#160;&#160;&#160;&#160;&#160;&#160;&#160;Name &#160;&#160;&#160;&#160;&#160;&#160;&#160;&#160;&#160;&#160;&#160;&#160;&#160;&#160;&#160;&#160;&#160;&#160;&#160;&#160;&#160;&#160;&#160;&#160;&#160;&#160;&#160;&#160;&#160;&#160;&#160;&#160;&#160;&#160;&#160;&#160;&#160;&#160;</text>
<polygon fill="none" stroke="#99ccff" points="893.25,-163 893.25,-182.5 987,-182.5 987,-163 893.25,-163"/>
<text text-anchor="start" x="903" y="-169.05" font-family="Courier,monospace" font-size="11.00">string(255)</text>
<polygon fill="none" stroke="#99ccff" points="225.75,-143.5 225.75,-163 893.25,-163 893.25,-143.5 225.75,-143.5"/>
<text text-anchor="start" x="228.75" y="-149.55" font-family="Courier,monospace" font-size="11.00"> &#160;&#160;&#160;&#160;&#160;&#160;&#160;&#160;&#160;&#160;&#160;&#160;&#160;&#160;&#160;&#160;&#160;&#160;&#160;&#160;&#160;&#160;&#160;&#160;&#160;&#160;&#160;&#160;&#160;&#160;&#160;&#160;&#160;&#160;&#160;&#160;&#160;&#160;&#160;&#160;LastModifiedById &#160;&#160;&#160;&#160;&#160;&#160;&#160;&#160;&#160;&#160;&#160;&#160;&#160;&#160;&#160;&#160;&#160;&#160;&#160;&#160;&#160;&#160;&#160;&#160;&#160;&#160;&#160;&#160;&#160;&#160;&#160;&#160;&#160;&#160;&#160;&#160;&#160;&#160;</text>
<polygon fill="none" stroke="#99ccff" points="893.25,-143.5 893.25,-163 987,-163 987,-143.5 893.25,-143.5"/>
<text text-anchor="start" x="896.25" y="-149.55" font-family="Courier,monospace" font-size="11.00">reference(18)</text>
<polygon fill="none" stroke="#99ccff" points="225.75,-124 225.75,-143.5 893.25,-143.5 893.25,-124 225.75,-124"/>
<text text-anchor="start" x="228.75" y="-130.05" font-family="Courier,monospace" font-size="11.00"> &#160;&#160;&#160;&#160;&#160;&#160;&#160;&#160;&#160;&#160;&#160;&#160;&#160;&#160;&#160;&#160;&#160;&#160;&#160;&#160;&#160;&#160;&#160;&#160;&#160;&#160;&#160;&#160;&#160;&#160;&#160;&#160;&#160;&#160;&#160;&#160;&#160;&#160;&#160;&#160;LastViewedDate &#160;&#160;&#160;&#160;&#160;&#160;&#160;&#160;&#160;&#160;&#160;&#160;&#160;&#160;&#160;&#160;&#160;&#160;&#160;&#160;&#160;&#160;&#160;&#160;&#160;&#160;&#160;&#160;&#160;&#160;&#160;&#160;&#160;&#160;&#160;&#160;&#160;&#160;</text>
<polygon fill="none" stroke="#99ccff" points="893.25,-124 893.25,-143.5 987,-143.5 987,-124 893.25,-124"/>
<text text-anchor="start" x="913.12" y="-130.05" font-family="Courier,monospace" font-size="11.00">datetime</text>
<polygon fill="none" stroke="#99ccff" points="225.75,-104.5 225.75,-124 893.25,-124 893.25,-104.5 225.75,-104.5"/>
<text text-anchor="start" x="228.75" y="-110.55" font-family="Courier,monospace" font-size="11.00"> &#160;&#160;&#160;&#160;&#160;&#160;&#160;&#160;&#160;&#160;&#160;&#160;&#160;&#160;&#160;&#160;&#160;&#160;&#160;&#160;&#160;&#160;&#160;&#160;&#160;&#160;&#160;&#160;&#160;&#160;&#160;&#160;&#160;&#160;&#160;&#160;&#160;&#160;&#160;&#160;LastReferencedDate &#160;&#160;&#160;&#160;&#160;&#160;&#160;&#160;&#160;&#160;&#160;&#160;&#160;&#160;&#160;&#160;&#160;&#160;&#160;&#160;&#160;&#160;&#160;&#160;&#160;&#160;&#160;&#160;&#160;&#160;&#160;&#160;&#160;&#160;&#160;&#160;&#160;&#160;</text>
<polygon fill="none" stroke="#99ccff" points="893.25,-104.5 893.25,-124 987,-124 987,-104.5 893.25,-104.5"/>
<text text-anchor="start" x="913.12" y="-110.55" font-family="Courier,monospace" font-size="11.00">datetime</text>
<polygon fill="none" stroke="#99ccff" points="225.75,-85 225.75,-104.5 893.25,-104.5 893.25,-85 225.75,-85"/>
<text text-anchor="start" x="228.75" y="-91.05" font-family="Courier,monospace" font-size="11.00"> &#160;&#160;&#160;&#160;&#160;&#160;&#160;&#160;&#160;&#160;&#160;&#160;&#160;&#160;&#160;&#160;&#160;&#160;&#160;&#160;&#160;&#160;&#160;&#160;&#160;&#160;&#160;&#160;&#160;&#160;&#160;&#160;&#160;&#160;&#160;&#160;&#160;&#160;&#160;&#160;IsQualified &#160;&#160;&#160;&#160;&#160;&#160;&#160;&#160;&#160;&#160;&#160;&#160;&#160;&#160;&#160;&#160;&#160;&#160;&#160;&#160;&#160;&#160;&#160;&#160;&#160;&#160;&#160;&#160;&#160;&#160;&#160;&#160;&#160;&#160;&#160;&#160;&#160;&#160;</text>
<polygon fill="none" stroke="#99ccff" points="893.25,-85 893.25,-104.5 987,-104.5 987,-85 893.25,-85"/>
<text text-anchor="start" x="916.5" y="-91.05" font-family="Courier,monospace" font-size="11.00">boolean</text>
<polygon fill="none" stroke="#99ccff" points="225.75,-65.5 225.75,-85 893.25,-85 893.25,-65.5 225.75,-65.5"/>
<text text-anchor="start" x="228.75" y="-71.55" font-family="Courier,monospace" font-size="11.00"> &#160;&#160;&#160;&#160;&#160;&#160;&#160;&#160;&#160;&#160;&#160;&#160;&#160;&#160;&#160;&#160;&#160;&#160;&#160;&#160;&#160;&#160;&#160;&#160;&#160;&#160;&#160;&#160;&#160;&#160;&#160;&#160;&#160;&#160;&#160;&#160;&#160;&#160;&#160;&#160;EffectiveToDate &#160;&#160;&#160;&#160;&#160;&#160;&#160;&#160;&#160;&#160;&#160;&#160;&#160;&#160;&#160;&#160;&#160;&#160;&#160;&#160;&#160;&#160;&#160;&#160;&#160;&#160;&#160;&#160;&#160;&#160;&#160;&#160;&#160;&#160;&#160;&#160;&#160;&#160;</text>
<polygon fill="none" stroke="#99ccff" points="893.25,-65.5 893.25,-85 987,-85 987,-65.5 893.25,-65.5"/>
<text text-anchor="start" x="926.62" y="-71.55" font-family="Courier,monospace" font-size="11.00">date</text>
<polygon fill="none" stroke="#99ccff" points="225.75,-46 225.75,-65.5 893.25,-65.5 893.25,-46 225.75,-46"/>
<text text-anchor="start" x="228.75" y="-52.05" font-family="Courier,monospace" font-size="11.00"> &#160;&#160;&#160;&#160;&#160;&#160;&#160;&#160;&#160;&#160;&#160;&#160;&#160;&#160;&#160;&#160;&#160;&#160;&#160;&#160;&#160;&#160;&#160;&#160;&#160;&#160;&#160;&#160;&#160;&#160;&#160;&#160;&#160;&#160;&#160;&#160;&#160;&#160;&#160;&#160;EffectiveFromDate &#160;&#160;&#160;&#160;&#160;&#160;&#160;&#160;&#160;&#160;&#160;&#160;&#160;&#160;&#160;&#160;&#160;&#160;&#160;&#160;&#160;&#160;&#160;&#160;&#160;&#160;&#160;&#160;&#160;&#160;&#160;&#160;&#160;&#160;&#160;&#160;&#160;&#160;</text>
<polygon fill="none" stroke="#99ccff" points="893.25,-46 893.25,-65.5 987,-65.5 987,-46 893.25,-46"/>
<text text-anchor="start" x="926.62" y="-52.05" font-family="Courier,monospace" font-size="11.00">date</text>
<polygon fill="none" stroke="#99ccff" points="225.75,-26.5 225.75,-46 893.25,-46 893.25,-26.5 225.75,-26.5"/>
<text text-anchor="start" x="228.75" y="-32.55" font-family="Courier,monospace" font-size="11.00"> &#160;&#160;&#160;&#160;&#160;&#160;&#160;&#160;&#160;&#160;&#160;&#160;&#160;&#160;&#160;&#160;&#160;&#160;&#160;&#160;&#160;&#160;&#160;&#160;&#160;&#160;&#160;&#160;&#160;&#160;&#160;&#160;&#160;&#160;&#160;&#160;&#160;&#160;&#160;&#160;CategoryId &#160;&#160;&#160;&#160;&#160;&#160;&#160;&#160;&#160;&#160;&#160;&#160;&#160;&#160;&#160;&#160;&#160;&#160;&#160;&#160;&#160;&#160;&#160;&#160;&#160;&#160;&#160;&#160;&#160;&#160;&#160;&#160;&#160;&#160;&#160;&#160;&#160;&#160;</text>
<polygon fill="none" stroke="#99ccff" points="893.25,-26.5 893.25,-46 987,-46 987,-26.5 893.25,-26.5"/>
<text text-anchor="start" x="896.25" y="-32.55" font-family="Courier,monospace" font-size="11.00">reference(18)</text>
<polygon fill="none" stroke="#99ccff" points="224.75,-25.5 224.75,-261.5 988,-261.5 988,-25.5 224.75,-25.5"/>
</a>
</g>
</g>
<!-- Group -->
<g id="node2" class="node">
<title>Group</title>
<text text-anchor="middle" x="58.62" y="-207.8" font-family="Courier,monospace" font-size="11.00">Group</text>
</g>
<!-- ProductCategoryQualification&#45;&gt;Group -->
<g id="edge1" class="edge">
<title>ProductCategoryQualification:w&#45;&gt;Group:e</title>
<path fill="none" stroke="#ff99cc" d="M208.91,-211.75C163.57,-211.73 114.43,-211.63 85.37,-211.56"/>
<polygon fill="#ff99cc" stroke="#ff99cc" points="216.42,-211.75 224.41,-215.35 220.75,-211.75 224.08,-211.75 224.08,-211.75 224.08,-211.75 220.75,-211.75 224.42,-208.15 216.42,-211.75"/>
<ellipse fill="none" stroke="#ff99cc" cx="211.5" cy="-211.75" rx="3.2" ry="3.2"/>
<text text-anchor="middle" x="171" y="-214.45" font-family="Monaco" font-size="9.00">Owner</text>
</g>
<!-- User -->
<g id="node3" class="node">
<title>User</title>
<text text-anchor="middle" x="58.62" y="-154.8" font-family="Courier,monospace" font-size="11.00">User</text>
</g>
<!-- ProductCategoryQualification&#45;&gt;User -->
<g id="edge2" class="edge">
<title>ProductCategoryQualification:w&#45;&gt;User:e</title>
<path fill="none" stroke="#ff99cc" d="M215.06,-199.34C214.19,-193.89 213.14,-187.9 207.75,-184.25 188.24,-171.05 122.6,-163.66 85.59,-160.45"/>
<polygon fill="#ff99cc" stroke="#ff99cc" points="219.62,-205.18 221.71,-213.7 222.29,-208.6 224.34,-211.22 224.34,-211.22 224.34,-211.22 222.29,-208.6 227.38,-209.27 219.62,-205.18"/>
<ellipse fill="none" stroke="#ff99cc" cx="216.59" cy="-201.31" rx="3.2" ry="3.2"/>
<text text-anchor="middle" x="171" y="-186.95" font-family="Monaco" font-size="9.00">Owner</text>
</g>
<!-- ProductCategoryQualification&#45;&gt;User -->
<g id="edge3" class="edge">
<title>ProductCategoryQualification:w&#45;&gt;User:e</title>
<path fill="none" stroke="#ff99cc" d="M209.1,-152.3C208.67,-152.28 208.22,-152.26 207.75,-152.25 175.1,-151.29 166.89,-150.89 134.25,-152.25 118.01,-152.93 99.84,-154.43 85.49,-155.8"/>
<polygon fill="#ff99cc" stroke="#ff99cc" points="216.43,-152.74 224.2,-156.82 220.76,-153.01 224.08,-153.21 224.08,-153.21 224.08,-153.21 220.76,-153.01 224.63,-149.64 216.43,-152.74"/>
<ellipse fill="none" stroke="#ff99cc" cx="211.52" cy="-152.44" rx="3.2" ry="3.2"/>
<text text-anchor="middle" x="171" y="-154.95" font-family="Monaco" font-size="9.00">LastModifiedBy</text>
</g>
<!-- ProductCategory -->
<g id="node4" class="node">
<title>ProductCategory</title>
<text text-anchor="middle" x="58.62" y="-32.8" font-family="Courier,monospace" font-size="11.00">ProductCategory</text>
</g>
<!-- ProductCategoryQualification&#45;&gt;ProductCategory -->
<g id="edge4" class="edge">
<title>ProductCategoryQualification:w&#45;&gt;ProductCategory:e</title>
<path fill="none" stroke="#ff99cc" d="M208.98,-36.25C177.47,-36.27 144.12,-36.32 116.94,-36.37"/>
<polygon fill="#ff99cc" stroke="#ff99cc" points="216.42,-36.25 224.42,-39.85 220.75,-36.25 224.08,-36.25 224.08,-36.25 224.08,-36.25 220.75,-36.25 224.41,-32.65 216.42,-36.25"/>
<ellipse fill="none" stroke="#ff99cc" cx="211.5" cy="-36.25" rx="3.2" ry="3.2"/>
<text text-anchor="middle" x="171" y="-39.04" font-family="Monaco" font-size="9.00">Category</text>
</g>
</g>
</svg>
