<?xml version="1.0" encoding="UTF-8" standalone="no"?>
<!DOCTYPE svg PUBLIC "-//W3C//DTD SVG 1.1//EN"
 "http://www.w3.org/Graphics/SVG/1.1/DTD/svg11.dtd">
<!-- Generated by graphviz version 12.2.1 (20241206.2353)
 -->
<!-- Title: Salesforce+ ERD Pages: 1 -->
<svg width="933pt" height="204pt"
 viewBox="0.00 0.00 932.75 204.00" xmlns="http://www.w3.org/2000/svg" xmlns:xlink="http://www.w3.org/1999/xlink">
<g id="graph0" class="graph" transform="scale(1 1) rotate(0) translate(4 200)">
<title>Salesforce+ ERD</title>
<polygon fill="#efeffd" stroke="none" points="-4,4 -4,-200 928.75,-200 928.75,4 -4,4"/>
<text text-anchor="middle" x="877.38" y="-5.95" font-family="Courier,monospace" font-size="9.00">Salesforce ERD </text>
<!-- ProductSpecificationType -->
<g id="node1" class="node">
<title>ProductSpecificationType</title>
<g id="a_node1"><a xlink:href="#" xlink:title=" ProductSpecificationType ">
<polygon fill="#ffeeff" stroke="none" points="161.5,-18.5 161.5,-196 924.75,-196 924.75,-18.5 161.5,-18.5"/>
<polygon fill="lightblue" stroke="none" points="162.5,-175.5 162.5,-195 923.75,-195 923.75,-175.5 162.5,-175.5"/>
<polygon fill="none" stroke="#99ccff" points="162.5,-175.5 162.5,-195 923.75,-195 923.75,-175.5 162.5,-175.5"/>
<text text-anchor="start" x="462.12" y="-182.55" font-family="Courier,monospace" font-weight="bold" font-size="11.00">ProductSpecificationType</text>
<polygon fill="#99ccff" stroke="none" points="162.5,-156 162.5,-175.5 816.5,-175.5 816.5,-156 162.5,-156"/>
<polygon fill="none" stroke="#99ccff" points="162.5,-156 162.5,-175.5 816.5,-175.5 816.5,-156 162.5,-156"/>
<text text-anchor="start" x="165.5" y="-163.05" font-family="Courier,monospace" font-size="11.00"> &#160;&#160;&#160;&#160;&#160;&#160;&#160;&#160;&#160;&#160;&#160;&#160;&#160;&#160;&#160;&#160;&#160;&#160;&#160;&#160;&#160;&#160;&#160;&#160;&#160;&#160;&#160;&#160;&#160;&#160;&#160;&#160;&#160;&#160;&#160;&#160;&#160;&#160;&#160;&#160;&#160;&#160;</text>
<text text-anchor="start" x="455.75" y="-163.05" font-family="Courier,monospace" font-weight="bold" font-size="11.00">Id</text>
<text text-anchor="start" x="469.25" y="-163.05" font-family="Courier,monospace" font-size="11.00"> &#160;&#160;&#160;&#160;&#160;&#160;&#160;&#160;&#160;&#160;&#160;&#160;&#160;&#160;&#160;&#160;&#160;&#160;&#160;&#160;&#160;&#160;&#160;&#160;&#160;&#160;&#160;&#160;&#160;&#160;&#160;&#160;&#160;&#160;&#160;&#160;&#160;&#160;&#160;</text>
<polygon fill="none" stroke="#99ccff" points="816.5,-156 816.5,-175.5 923.75,-175.5 923.75,-156 816.5,-156"/>
<text text-anchor="start" x="849.88" y="-162.05" font-family="Courier,monospace" font-size="11.00">id(18)</text>
<polygon fill="none" stroke="#99ccff" points="162.5,-136.5 162.5,-156 816.5,-156 816.5,-136.5 162.5,-136.5"/>
<text text-anchor="start" x="165.5" y="-142.55" font-family="Courier,monospace" font-size="11.00"> &#160;&#160;&#160;&#160;&#160;&#160;&#160;&#160;&#160;&#160;&#160;&#160;&#160;&#160;&#160;&#160;&#160;&#160;&#160;&#160;&#160;&#160;&#160;&#160;&#160;&#160;&#160;&#160;&#160;&#160;&#160;&#160;&#160;&#160;&#160;&#160;&#160;&#160;&#160;&#160;IsDeleted &#160;&#160;&#160;&#160;&#160;&#160;&#160;&#160;&#160;&#160;&#160;&#160;&#160;&#160;&#160;&#160;&#160;&#160;&#160;&#160;&#160;&#160;&#160;&#160;&#160;&#160;&#160;&#160;&#160;&#160;&#160;&#160;&#160;&#160;&#160;&#160;&#160;&#160;</text>
<polygon fill="none" stroke="#99ccff" points="816.5,-136.5 816.5,-156 923.75,-156 923.75,-136.5 816.5,-136.5"/>
<text text-anchor="start" x="846.5" y="-142.55" font-family="Courier,monospace" font-size="11.00">boolean</text>
<polygon fill="none" stroke="#99ccff" points="162.5,-117 162.5,-136.5 816.5,-136.5 816.5,-117 162.5,-117"/>
<text text-anchor="start" x="165.5" y="-123.05" font-family="Courier,monospace" font-size="11.00"> &#160;&#160;&#160;&#160;&#160;&#160;&#160;&#160;&#160;&#160;&#160;&#160;&#160;&#160;&#160;&#160;&#160;&#160;&#160;&#160;&#160;&#160;&#160;&#160;&#160;&#160;&#160;&#160;&#160;&#160;&#160;&#160;&#160;&#160;&#160;&#160;&#160;&#160;&#160;&#160;DeveloperName &#160;&#160;&#160;&#160;&#160;&#160;&#160;&#160;&#160;&#160;&#160;&#160;&#160;&#160;&#160;&#160;&#160;&#160;&#160;&#160;&#160;&#160;&#160;&#160;&#160;&#160;&#160;&#160;&#160;&#160;&#160;&#160;&#160;&#160;&#160;&#160;&#160;&#160;</text>
<polygon fill="none" stroke="#99ccff" points="816.5,-117 816.5,-136.5 923.75,-136.5 923.75,-117 816.5,-117"/>
<text text-anchor="start" x="836.38" y="-123.05" font-family="Courier,monospace" font-size="11.00">string(80)</text>
<polygon fill="none" stroke="#99ccff" points="162.5,-97.5 162.5,-117 816.5,-117 816.5,-97.5 162.5,-97.5"/>
<text text-anchor="start" x="165.5" y="-103.55" font-family="Courier,monospace" font-size="11.00"> &#160;&#160;&#160;&#160;&#160;&#160;&#160;&#160;&#160;&#160;&#160;&#160;&#160;&#160;&#160;&#160;&#160;&#160;&#160;&#160;&#160;&#160;&#160;&#160;&#160;&#160;&#160;&#160;&#160;&#160;&#160;&#160;&#160;&#160;&#160;&#160;&#160;&#160;&#160;&#160;Language &#160;&#160;&#160;&#160;&#160;&#160;&#160;&#160;&#160;&#160;&#160;&#160;&#160;&#160;&#160;&#160;&#160;&#160;&#160;&#160;&#160;&#160;&#160;&#160;&#160;&#160;&#160;&#160;&#160;&#160;&#160;&#160;&#160;&#160;&#160;&#160;&#160;&#160;</text>
<polygon fill="none" stroke="#99ccff" points="816.5,-97.5 816.5,-117 923.75,-117 923.75,-97.5 816.5,-97.5"/>
<text text-anchor="start" x="829.62" y="-103.55" font-family="Courier,monospace" font-size="11.00">picklist(40)</text>
<polygon fill="none" stroke="#99ccff" points="162.5,-78 162.5,-97.5 816.5,-97.5 816.5,-78 162.5,-78"/>
<text text-anchor="start" x="165.5" y="-84.05" font-family="Courier,monospace" font-size="11.00"> &#160;&#160;&#160;&#160;&#160;&#160;&#160;&#160;&#160;&#160;&#160;&#160;&#160;&#160;&#160;&#160;&#160;&#160;&#160;&#160;&#160;&#160;&#160;&#160;&#160;&#160;&#160;&#160;&#160;&#160;&#160;&#160;&#160;&#160;&#160;&#160;&#160;&#160;&#160;&#160;MasterLabel &#160;&#160;&#160;&#160;&#160;&#160;&#160;&#160;&#160;&#160;&#160;&#160;&#160;&#160;&#160;&#160;&#160;&#160;&#160;&#160;&#160;&#160;&#160;&#160;&#160;&#160;&#160;&#160;&#160;&#160;&#160;&#160;&#160;&#160;&#160;&#160;&#160;&#160;</text>
<polygon fill="none" stroke="#99ccff" points="816.5,-78 816.5,-97.5 923.75,-97.5 923.75,-78 816.5,-78"/>
<text text-anchor="start" x="836.38" y="-84.05" font-family="Courier,monospace" font-size="11.00">string(80)</text>
<polygon fill="none" stroke="#99ccff" points="162.5,-58.5 162.5,-78 816.5,-78 816.5,-58.5 162.5,-58.5"/>
<text text-anchor="start" x="165.5" y="-64.55" font-family="Courier,monospace" font-size="11.00"> &#160;&#160;&#160;&#160;&#160;&#160;&#160;&#160;&#160;&#160;&#160;&#160;&#160;&#160;&#160;&#160;&#160;&#160;&#160;&#160;&#160;&#160;&#160;&#160;&#160;&#160;&#160;&#160;&#160;&#160;&#160;&#160;&#160;&#160;&#160;&#160;&#160;&#160;&#160;&#160;NamespacePrefix &#160;&#160;&#160;&#160;&#160;&#160;&#160;&#160;&#160;&#160;&#160;&#160;&#160;&#160;&#160;&#160;&#160;&#160;&#160;&#160;&#160;&#160;&#160;&#160;&#160;&#160;&#160;&#160;&#160;&#160;&#160;&#160;&#160;&#160;&#160;&#160;&#160;&#160;</text>
<polygon fill="none" stroke="#99ccff" points="816.5,-58.5 816.5,-78 923.75,-78 923.75,-58.5 816.5,-58.5"/>
<text text-anchor="start" x="836.38" y="-64.55" font-family="Courier,monospace" font-size="11.00">string(15)</text>
<polygon fill="none" stroke="#99ccff" points="162.5,-39 162.5,-58.5 816.5,-58.5 816.5,-39 162.5,-39"/>
<text text-anchor="start" x="165.5" y="-45.05" font-family="Courier,monospace" font-size="11.00"> &#160;&#160;&#160;&#160;&#160;&#160;&#160;&#160;&#160;&#160;&#160;&#160;&#160;&#160;&#160;&#160;&#160;&#160;&#160;&#160;&#160;&#160;&#160;&#160;&#160;&#160;&#160;&#160;&#160;&#160;&#160;&#160;&#160;&#160;&#160;&#160;&#160;&#160;&#160;&#160;LastModifiedById &#160;&#160;&#160;&#160;&#160;&#160;&#160;&#160;&#160;&#160;&#160;&#160;&#160;&#160;&#160;&#160;&#160;&#160;&#160;&#160;&#160;&#160;&#160;&#160;&#160;&#160;&#160;&#160;&#160;&#160;&#160;&#160;&#160;&#160;&#160;&#160;&#160;&#160;</text>
<polygon fill="none" stroke="#99ccff" points="816.5,-39 816.5,-58.5 923.75,-58.5 923.75,-39 816.5,-39"/>
<text text-anchor="start" x="826.25" y="-45.05" font-family="Courier,monospace" font-size="11.00">reference(18)</text>
<polygon fill="none" stroke="#99ccff" points="162.5,-19.5 162.5,-39 816.5,-39 816.5,-19.5 162.5,-19.5"/>
<text text-anchor="start" x="165.5" y="-25.55" font-family="Courier,monospace" font-size="11.00"> &#160;&#160;&#160;&#160;&#160;&#160;&#160;&#160;&#160;&#160;&#160;&#160;&#160;&#160;&#160;&#160;&#160;&#160;&#160;&#160;&#160;&#160;&#160;&#160;&#160;&#160;&#160;&#160;&#160;&#160;&#160;&#160;&#160;&#160;&#160;&#160;&#160;&#160;&#160;&#160;Description &#160;&#160;&#160;&#160;&#160;&#160;&#160;&#160;&#160;&#160;&#160;&#160;&#160;&#160;&#160;&#160;&#160;&#160;&#160;&#160;&#160;&#160;&#160;&#160;&#160;&#160;&#160;&#160;&#160;&#160;&#160;&#160;&#160;&#160;&#160;&#160;&#160;&#160;</text>
<polygon fill="none" stroke="#99ccff" points="816.5,-19.5 816.5,-39 923.75,-39 923.75,-19.5 816.5,-19.5"/>
<text text-anchor="start" x="819.5" y="-25.55" font-family="Courier,monospace" font-size="11.00">textarea(32000)</text>
<polygon fill="none" stroke="#99ccff" points="161.5,-18.5 161.5,-196 924.75,-196 924.75,-18.5 161.5,-18.5"/>
</a>
</g>
</g>
<!-- User -->
<g id="node2" class="node">
<title>User</title>
<text text-anchor="middle" x="27" y="-45.55" font-family="Courier,monospace" font-size="11.00">User</text>
</g>
<!-- ProductSpecificationType&#45;&gt;User -->
<g id="edge1" class="edge">
<title>ProductSpecificationType:w&#45;&gt;User:e</title>
<path fill="none" stroke="#ff99cc" d="M145.82,-48.76C112.37,-48.8 76.79,-48.97 53.59,-49.1"/>
<polygon fill="#ff99cc" stroke="#ff99cc" points="153.17,-48.76 161.17,-52.35 157.5,-48.75 160.83,-48.75 160.83,-48.75 160.83,-48.75 157.5,-48.75 161.16,-45.15 153.17,-48.76"/>
<ellipse fill="none" stroke="#ff99cc" cx="148.25" cy="-48.76" rx="3.2" ry="3.2"/>
<text text-anchor="middle" x="107.75" y="-51.7" font-family="Monaco" font-size="9.00">LastModifiedBy</text>
</g>
</g>
</svg>
