<?xml version="1.0" encoding="UTF-8" standalone="no"?>
<!DOCTYPE svg PUBLIC "-//W3C//DTD SVG 1.1//EN"
 "http://www.w3.org/Graphics/SVG/1.1/DTD/svg11.dtd">
<!-- Generated by graphviz version 12.2.1 (20241206.2353)
 -->
<!-- Title: Salesforce+ ERD Pages: 1 -->
<svg width="933pt" height="224pt"
 viewBox="0.00 0.00 932.75 223.50" xmlns="http://www.w3.org/2000/svg" xmlns:xlink="http://www.w3.org/1999/xlink">
<g id="graph0" class="graph" transform="scale(1 1) rotate(0) translate(4 219.5)">
<title>Salesforce+ ERD</title>
<polygon fill="#efeffd" stroke="none" points="-4,4 -4,-219.5 928.75,-219.5 928.75,4 -4,4"/>
<text text-anchor="middle" x="877.38" y="-5.95" font-family="Courier,monospace" font-size="9.00">Salesforce ERD </text>
<!-- ProductClassification -->
<g id="node1" class="node">
<title>ProductClassification</title>
<g id="a_node1"><a xlink:href="#" xlink:title=" ProductClassification ">
<polygon fill="#ffeeff" stroke="none" points="161.5,-18.5 161.5,-215.5 924.75,-215.5 924.75,-18.5 161.5,-18.5"/>
<polygon fill="lightblue" stroke="none" points="162.5,-195 162.5,-214.5 923.75,-214.5 923.75,-195 162.5,-195"/>
<polygon fill="none" stroke="#99ccff" points="162.5,-195 162.5,-214.5 923.75,-214.5 923.75,-195 162.5,-195"/>
<text text-anchor="start" x="472.25" y="-202.05" font-family="Courier,monospace" font-weight="bold" font-size="11.00">ProductClassification</text>
<polygon fill="#99ccff" stroke="none" points="162.5,-175.5 162.5,-195 830,-195 830,-175.5 162.5,-175.5"/>
<polygon fill="none" stroke="#99ccff" points="162.5,-175.5 162.5,-195 830,-195 830,-175.5 162.5,-175.5"/>
<text text-anchor="start" x="165.5" y="-182.55" font-family="Courier,monospace" font-size="11.00"> &#160;&#160;&#160;&#160;&#160;&#160;&#160;&#160;&#160;&#160;&#160;&#160;&#160;&#160;&#160;&#160;&#160;&#160;&#160;&#160;&#160;&#160;&#160;&#160;&#160;&#160;&#160;&#160;&#160;&#160;&#160;&#160;&#160;&#160;&#160;&#160;&#160;&#160;&#160;&#160;&#160;&#160;</text>
<text text-anchor="start" x="455.75" y="-182.55" font-family="Courier,monospace" font-weight="bold" font-size="11.00">Id</text>
<text text-anchor="start" x="469.25" y="-182.55" font-family="Courier,monospace" font-size="11.00"> &#160;&#160;&#160;&#160;&#160;&#160;&#160;&#160;&#160;&#160;&#160;&#160;&#160;&#160;&#160;&#160;&#160;&#160;&#160;&#160;&#160;&#160;&#160;&#160;&#160;&#160;&#160;&#160;&#160;&#160;&#160;&#160;&#160;&#160;&#160;&#160;&#160;&#160;&#160;</text>
<polygon fill="none" stroke="#99ccff" points="830,-175.5 830,-195 923.75,-195 923.75,-175.5 830,-175.5"/>
<text text-anchor="start" x="856.62" y="-181.55" font-family="Courier,monospace" font-size="11.00">id(18)</text>
<polygon fill="none" stroke="#99ccff" points="162.5,-156 162.5,-175.5 830,-175.5 830,-156 162.5,-156"/>
<text text-anchor="start" x="165.5" y="-162.05" font-family="Courier,monospace" font-size="11.00"> &#160;&#160;&#160;&#160;&#160;&#160;&#160;&#160;&#160;&#160;&#160;&#160;&#160;&#160;&#160;&#160;&#160;&#160;&#160;&#160;&#160;&#160;&#160;&#160;&#160;&#160;&#160;&#160;&#160;&#160;&#160;&#160;&#160;&#160;&#160;&#160;&#160;&#160;&#160;&#160;OwnerId &#160;&#160;&#160;&#160;&#160;&#160;&#160;&#160;&#160;&#160;&#160;&#160;&#160;&#160;&#160;&#160;&#160;&#160;&#160;&#160;&#160;&#160;&#160;&#160;&#160;&#160;&#160;&#160;&#160;&#160;&#160;&#160;&#160;&#160;&#160;&#160;&#160;&#160;</text>
<polygon fill="none" stroke="#99ccff" points="830,-156 830,-175.5 923.75,-175.5 923.75,-156 830,-156"/>
<text text-anchor="start" x="833" y="-162.05" font-family="Courier,monospace" font-size="11.00">reference(18)</text>
<polygon fill="none" stroke="#99ccff" points="162.5,-136.5 162.5,-156 830,-156 830,-136.5 162.5,-136.5"/>
<text text-anchor="start" x="165.5" y="-142.55" font-family="Courier,monospace" font-size="11.00"> &#160;&#160;&#160;&#160;&#160;&#160;&#160;&#160;&#160;&#160;&#160;&#160;&#160;&#160;&#160;&#160;&#160;&#160;&#160;&#160;&#160;&#160;&#160;&#160;&#160;&#160;&#160;&#160;&#160;&#160;&#160;&#160;&#160;&#160;&#160;&#160;&#160;&#160;&#160;&#160;IsDeleted &#160;&#160;&#160;&#160;&#160;&#160;&#160;&#160;&#160;&#160;&#160;&#160;&#160;&#160;&#160;&#160;&#160;&#160;&#160;&#160;&#160;&#160;&#160;&#160;&#160;&#160;&#160;&#160;&#160;&#160;&#160;&#160;&#160;&#160;&#160;&#160;&#160;&#160;</text>
<polygon fill="none" stroke="#99ccff" points="830,-136.5 830,-156 923.75,-156 923.75,-136.5 830,-136.5"/>
<text text-anchor="start" x="853.25" y="-142.55" font-family="Courier,monospace" font-size="11.00">boolean</text>
<polygon fill="none" stroke="#99ccff" points="162.5,-117 162.5,-136.5 830,-136.5 830,-117 162.5,-117"/>
<text text-anchor="start" x="165.5" y="-123.05" font-family="Courier,monospace" font-size="11.00"> &#160;&#160;&#160;&#160;&#160;&#160;&#160;&#160;&#160;&#160;&#160;&#160;&#160;&#160;&#160;&#160;&#160;&#160;&#160;&#160;&#160;&#160;&#160;&#160;&#160;&#160;&#160;&#160;&#160;&#160;&#160;&#160;&#160;&#160;&#160;&#160;&#160;&#160;&#160;&#160;Name &#160;&#160;&#160;&#160;&#160;&#160;&#160;&#160;&#160;&#160;&#160;&#160;&#160;&#160;&#160;&#160;&#160;&#160;&#160;&#160;&#160;&#160;&#160;&#160;&#160;&#160;&#160;&#160;&#160;&#160;&#160;&#160;&#160;&#160;&#160;&#160;&#160;&#160;</text>
<polygon fill="none" stroke="#99ccff" points="830,-117 830,-136.5 923.75,-136.5 923.75,-117 830,-117"/>
<text text-anchor="start" x="843.12" y="-123.05" font-family="Courier,monospace" font-size="11.00">string(80)</text>
<polygon fill="none" stroke="#99ccff" points="162.5,-97.5 162.5,-117 830,-117 830,-97.5 162.5,-97.5"/>
<text text-anchor="start" x="165.5" y="-103.55" font-family="Courier,monospace" font-size="11.00"> &#160;&#160;&#160;&#160;&#160;&#160;&#160;&#160;&#160;&#160;&#160;&#160;&#160;&#160;&#160;&#160;&#160;&#160;&#160;&#160;&#160;&#160;&#160;&#160;&#160;&#160;&#160;&#160;&#160;&#160;&#160;&#160;&#160;&#160;&#160;&#160;&#160;&#160;&#160;&#160;LastModifiedById &#160;&#160;&#160;&#160;&#160;&#160;&#160;&#160;&#160;&#160;&#160;&#160;&#160;&#160;&#160;&#160;&#160;&#160;&#160;&#160;&#160;&#160;&#160;&#160;&#160;&#160;&#160;&#160;&#160;&#160;&#160;&#160;&#160;&#160;&#160;&#160;&#160;&#160;</text>
<polygon fill="none" stroke="#99ccff" points="830,-97.5 830,-117 923.75,-117 923.75,-97.5 830,-97.5"/>
<text text-anchor="start" x="833" y="-103.55" font-family="Courier,monospace" font-size="11.00">reference(18)</text>
<polygon fill="none" stroke="#99ccff" points="162.5,-78 162.5,-97.5 830,-97.5 830,-78 162.5,-78"/>
<text text-anchor="start" x="165.5" y="-84.05" font-family="Courier,monospace" font-size="11.00"> &#160;&#160;&#160;&#160;&#160;&#160;&#160;&#160;&#160;&#160;&#160;&#160;&#160;&#160;&#160;&#160;&#160;&#160;&#160;&#160;&#160;&#160;&#160;&#160;&#160;&#160;&#160;&#160;&#160;&#160;&#160;&#160;&#160;&#160;&#160;&#160;&#160;&#160;&#160;&#160;LastViewedDate &#160;&#160;&#160;&#160;&#160;&#160;&#160;&#160;&#160;&#160;&#160;&#160;&#160;&#160;&#160;&#160;&#160;&#160;&#160;&#160;&#160;&#160;&#160;&#160;&#160;&#160;&#160;&#160;&#160;&#160;&#160;&#160;&#160;&#160;&#160;&#160;&#160;&#160;</text>
<polygon fill="none" stroke="#99ccff" points="830,-78 830,-97.5 923.75,-97.5 923.75,-78 830,-78"/>
<text text-anchor="start" x="849.88" y="-84.05" font-family="Courier,monospace" font-size="11.00">datetime</text>
<polygon fill="none" stroke="#99ccff" points="162.5,-58.5 162.5,-78 830,-78 830,-58.5 162.5,-58.5"/>
<text text-anchor="start" x="165.5" y="-64.55" font-family="Courier,monospace" font-size="11.00"> &#160;&#160;&#160;&#160;&#160;&#160;&#160;&#160;&#160;&#160;&#160;&#160;&#160;&#160;&#160;&#160;&#160;&#160;&#160;&#160;&#160;&#160;&#160;&#160;&#160;&#160;&#160;&#160;&#160;&#160;&#160;&#160;&#160;&#160;&#160;&#160;&#160;&#160;&#160;&#160;LastReferencedDate &#160;&#160;&#160;&#160;&#160;&#160;&#160;&#160;&#160;&#160;&#160;&#160;&#160;&#160;&#160;&#160;&#160;&#160;&#160;&#160;&#160;&#160;&#160;&#160;&#160;&#160;&#160;&#160;&#160;&#160;&#160;&#160;&#160;&#160;&#160;&#160;&#160;&#160;</text>
<polygon fill="none" stroke="#99ccff" points="830,-58.5 830,-78 923.75,-78 923.75,-58.5 830,-58.5"/>
<text text-anchor="start" x="849.88" y="-64.55" font-family="Courier,monospace" font-size="11.00">datetime</text>
<polygon fill="none" stroke="#99ccff" points="162.5,-39 162.5,-58.5 830,-58.5 830,-39 162.5,-39"/>
<text text-anchor="start" x="165.5" y="-45.05" font-family="Courier,monospace" font-size="11.00"> &#160;&#160;&#160;&#160;&#160;&#160;&#160;&#160;&#160;&#160;&#160;&#160;&#160;&#160;&#160;&#160;&#160;&#160;&#160;&#160;&#160;&#160;&#160;&#160;&#160;&#160;&#160;&#160;&#160;&#160;&#160;&#160;&#160;&#160;&#160;&#160;&#160;&#160;&#160;&#160;Code &#160;&#160;&#160;&#160;&#160;&#160;&#160;&#160;&#160;&#160;&#160;&#160;&#160;&#160;&#160;&#160;&#160;&#160;&#160;&#160;&#160;&#160;&#160;&#160;&#160;&#160;&#160;&#160;&#160;&#160;&#160;&#160;&#160;&#160;&#160;&#160;&#160;&#160;</text>
<polygon fill="none" stroke="#99ccff" points="830,-39 830,-58.5 923.75,-58.5 923.75,-39 830,-39"/>
<text text-anchor="start" x="843.12" y="-45.05" font-family="Courier,monospace" font-size="11.00">string(80)</text>
<polygon fill="none" stroke="#99ccff" points="162.5,-19.5 162.5,-39 830,-39 830,-19.5 162.5,-19.5"/>
<text text-anchor="start" x="165.5" y="-25.55" font-family="Courier,monospace" font-size="11.00"> &#160;&#160;&#160;&#160;&#160;&#160;&#160;&#160;&#160;&#160;&#160;&#160;&#160;&#160;&#160;&#160;&#160;&#160;&#160;&#160;&#160;&#160;&#160;&#160;&#160;&#160;&#160;&#160;&#160;&#160;&#160;&#160;&#160;&#160;&#160;&#160;&#160;&#160;&#160;&#160;Status &#160;&#160;&#160;&#160;&#160;&#160;&#160;&#160;&#160;&#160;&#160;&#160;&#160;&#160;&#160;&#160;&#160;&#160;&#160;&#160;&#160;&#160;&#160;&#160;&#160;&#160;&#160;&#160;&#160;&#160;&#160;&#160;&#160;&#160;&#160;&#160;&#160;&#160;</text>
<polygon fill="none" stroke="#99ccff" points="830,-19.5 830,-39 923.75,-39 923.75,-19.5 830,-19.5"/>
<text text-anchor="start" x="833" y="-25.55" font-family="Courier,monospace" font-size="11.00">picklist(255)</text>
<polygon fill="none" stroke="#99ccff" points="161.5,-18.5 161.5,-215.5 924.75,-215.5 924.75,-18.5 161.5,-18.5"/>
</a>
</g>
</g>
<!-- Group -->
<g id="node2" class="node">
<title>Group</title>
<text text-anchor="middle" x="27" y="-162.3" font-family="Courier,monospace" font-size="11.00">Group</text>
</g>
<!-- ProductClassification&#45;&gt;Group -->
<g id="edge1" class="edge">
<title>ProductClassification:w&#45;&gt;Group:e</title>
<path fill="none" stroke="#ff99cc" d="M145.82,-165.76C112.37,-165.78 76.79,-165.86 53.59,-165.92"/>
<polygon fill="#ff99cc" stroke="#ff99cc" points="153.17,-165.75 161.17,-169.35 157.5,-165.75 160.83,-165.75 160.83,-165.75 160.83,-165.75 157.5,-165.75 161.16,-162.15 153.17,-165.75"/>
<ellipse fill="none" stroke="#ff99cc" cx="148.25" cy="-165.75" rx="3.2" ry="3.2"/>
<text text-anchor="middle" x="107.75" y="-168.57" font-family="Monaco" font-size="9.00">Owner</text>
</g>
<!-- User -->
<g id="node3" class="node">
<title>User</title>
<text text-anchor="middle" x="27" y="-109.3" font-family="Courier,monospace" font-size="11.00">User</text>
</g>
<!-- ProductClassification&#45;&gt;User -->
<g id="edge2" class="edge">
<title>ProductClassification:w&#45;&gt;User:e</title>
<path fill="none" stroke="#ff99cc" d="M151.7,-153.4C150.79,-148.14 149.66,-142.38 144.5,-138.75 137.13,-133.56 85.96,-123.53 53.93,-117.64"/>
<polygon fill="#ff99cc" stroke="#ff99cc" points="156.32,-159.22 158.47,-167.73 159.01,-162.62 161.08,-165.23 161.08,-165.23 161.08,-165.23 159.01,-162.62 164.11,-163.25 156.32,-159.22"/>
<ellipse fill="none" stroke="#ff99cc" cx="153.26" cy="-155.37" rx="3.2" ry="3.2"/>
<text text-anchor="middle" x="107.75" y="-141.45" font-family="Monaco" font-size="9.00">Owner</text>
</g>
<!-- ProductClassification&#45;&gt;User -->
<g id="edge3" class="edge">
<title>ProductClassification:w&#45;&gt;User:e</title>
<path fill="none" stroke="#ff99cc" d="M145.85,-106.77C145.42,-106.76 144.97,-106.76 144.5,-106.75 111.84,-106.27 103.58,-104.39 71,-106.75 65.43,-107.15 59.49,-107.84 53.86,-108.63"/>
<polygon fill="#ff99cc" stroke="#ff99cc" points="153.17,-107 161.06,-110.84 157.5,-107.13 160.83,-107.23 160.83,-107.23 160.83,-107.23 157.5,-107.13 161.28,-103.64 153.17,-107"/>
<ellipse fill="none" stroke="#ff99cc" cx="148.25" cy="-106.85" rx="3.2" ry="3.2"/>
<text text-anchor="middle" x="107.75" y="-109.45" font-family="Monaco" font-size="9.00">LastModifiedBy</text>
</g>
</g>
</svg>
