<?xml version="1.0" encoding="UTF-8" standalone="no"?>
<!DOCTYPE svg PUBLIC "-//W3C//DTD SVG 1.1//EN"
 "http://www.w3.org/Graphics/SVG/1.1/DTD/svg11.dtd">
<!-- Generated by graphviz version 12.2.1 (20241206.2353)
 -->
<!-- Title: Salesforce+ ERD Pages: 1 -->
<svg width="1296pt" height="665pt"
 viewBox="0.00 0.00 1296.00 665.25" xmlns="http://www.w3.org/2000/svg" xmlns:xlink="http://www.w3.org/1999/xlink">
<g id="graph0" class="graph" transform="scale(1 1) rotate(0) translate(4 661.25)">
<title>Salesforce+ ERD</title>
<polygon fill="#efeffd" stroke="none" points="-4,4 -4,-661.25 1292,-661.25 1292,4 -4,4"/>
<text text-anchor="middle" x="1240.62" y="-5.95" font-family="Courier,monospace" font-size="9.00">Salesforce ERD </text>
<!-- ProductAttributeDefinition -->
<g id="node1" class="node">
<title>ProductAttributeDefinition</title>
<g id="a_node1"><a xlink:href="#" xlink:title=" ProductAttributeDefinition ">
<polygon fill="#ffeeff" stroke="none" points="376.25,-18.5 376.25,-625 1288,-625 1288,-18.5 376.25,-18.5"/>
<polygon fill="lightblue" stroke="none" points="377.25,-604.5 377.25,-624 1287,-624 1287,-604.5 377.25,-604.5"/>
<polygon fill="none" stroke="#99ccff" points="377.25,-604.5 377.25,-624 1287,-624 1287,-604.5 377.25,-604.5"/>
<text text-anchor="start" x="744.38" y="-611.55" font-family="Courier,monospace" font-weight="bold" font-size="11.00">ProductAttributeDefinition</text>
<polygon fill="#99ccff" stroke="none" points="377.25,-585 377.25,-604.5 1179.75,-604.5 1179.75,-585 377.25,-585"/>
<polygon fill="none" stroke="#99ccff" points="377.25,-585 377.25,-604.5 1179.75,-604.5 1179.75,-585 377.25,-585"/>
<text text-anchor="start" x="380.25" y="-592.05" font-family="Courier,monospace" font-size="11.00"> &#160;&#160;&#160;&#160;&#160;&#160;&#160;&#160;&#160;&#160;&#160;&#160;&#160;&#160;&#160;&#160;&#160;&#160;&#160;&#160;&#160;&#160;&#160;&#160;&#160;&#160;&#160;&#160;&#160;&#160;&#160;&#160;&#160;&#160;&#160;&#160;&#160;&#160;&#160;&#160;&#160;&#160;</text>
<text text-anchor="start" x="670.5" y="-592.05" font-family="Courier,monospace" font-weight="bold" font-size="11.00">Id</text>
<text text-anchor="start" x="684" y="-592.05" font-family="Courier,monospace" font-size="11.00"> &#160;&#160;&#160;&#160;&#160;&#160;&#160;&#160;&#160;&#160;&#160;&#160;&#160;&#160;&#160;&#160;&#160;&#160;&#160;&#160;&#160;&#160;&#160;&#160;&#160;&#160;&#160;&#160;&#160;&#160;&#160;&#160;&#160;&#160;&#160;&#160;&#160;&#160;&#160;</text>
<polygon fill="none" stroke="#99ccff" points="1179.75,-585 1179.75,-604.5 1287,-604.5 1287,-585 1179.75,-585"/>
<text text-anchor="start" x="1213.12" y="-591.05" font-family="Courier,monospace" font-size="11.00">id(18)</text>
<polygon fill="none" stroke="#99ccff" points="377.25,-565.5 377.25,-585 1179.75,-585 1179.75,-565.5 377.25,-565.5"/>
<text text-anchor="start" x="380.25" y="-571.55" font-family="Courier,monospace" font-size="11.00"> &#160;&#160;&#160;&#160;&#160;&#160;&#160;&#160;&#160;&#160;&#160;&#160;&#160;&#160;&#160;&#160;&#160;&#160;&#160;&#160;&#160;&#160;&#160;&#160;&#160;&#160;&#160;&#160;&#160;&#160;&#160;&#160;&#160;&#160;&#160;&#160;&#160;&#160;&#160;&#160;OwnerId &#160;&#160;&#160;&#160;&#160;&#160;&#160;&#160;&#160;&#160;&#160;&#160;&#160;&#160;&#160;&#160;&#160;&#160;&#160;&#160;&#160;&#160;&#160;&#160;&#160;&#160;&#160;&#160;&#160;&#160;&#160;&#160;&#160;&#160;&#160;&#160;&#160;&#160;</text>
<polygon fill="none" stroke="#99ccff" points="1179.75,-565.5 1179.75,-585 1287,-585 1287,-565.5 1179.75,-565.5"/>
<text text-anchor="start" x="1189.5" y="-571.55" font-family="Courier,monospace" font-size="11.00">reference(18)</text>
<polygon fill="none" stroke="#99ccff" points="377.25,-546 377.25,-565.5 1179.75,-565.5 1179.75,-546 377.25,-546"/>
<text text-anchor="start" x="380.25" y="-552.05" font-family="Courier,monospace" font-size="11.00"> &#160;&#160;&#160;&#160;&#160;&#160;&#160;&#160;&#160;&#160;&#160;&#160;&#160;&#160;&#160;&#160;&#160;&#160;&#160;&#160;&#160;&#160;&#160;&#160;&#160;&#160;&#160;&#160;&#160;&#160;&#160;&#160;&#160;&#160;&#160;&#160;&#160;&#160;&#160;&#160;IsDeleted &#160;&#160;&#160;&#160;&#160;&#160;&#160;&#160;&#160;&#160;&#160;&#160;&#160;&#160;&#160;&#160;&#160;&#160;&#160;&#160;&#160;&#160;&#160;&#160;&#160;&#160;&#160;&#160;&#160;&#160;&#160;&#160;&#160;&#160;&#160;&#160;&#160;&#160;</text>
<polygon fill="none" stroke="#99ccff" points="1179.75,-546 1179.75,-565.5 1287,-565.5 1287,-546 1179.75,-546"/>
<text text-anchor="start" x="1209.75" y="-552.05" font-family="Courier,monospace" font-size="11.00">boolean</text>
<polygon fill="none" stroke="#99ccff" points="377.25,-526.5 377.25,-546 1179.75,-546 1179.75,-526.5 377.25,-526.5"/>
<text text-anchor="start" x="380.25" y="-532.55" font-family="Courier,monospace" font-size="11.00"> &#160;&#160;&#160;&#160;&#160;&#160;&#160;&#160;&#160;&#160;&#160;&#160;&#160;&#160;&#160;&#160;&#160;&#160;&#160;&#160;&#160;&#160;&#160;&#160;&#160;&#160;&#160;&#160;&#160;&#160;&#160;&#160;&#160;&#160;&#160;&#160;&#160;&#160;&#160;&#160;Name &#160;&#160;&#160;&#160;&#160;&#160;&#160;&#160;&#160;&#160;&#160;&#160;&#160;&#160;&#160;&#160;&#160;&#160;&#160;&#160;&#160;&#160;&#160;&#160;&#160;&#160;&#160;&#160;&#160;&#160;&#160;&#160;&#160;&#160;&#160;&#160;&#160;&#160;</text>
<polygon fill="none" stroke="#99ccff" points="1179.75,-526.5 1179.75,-546 1287,-546 1287,-526.5 1179.75,-526.5"/>
<text text-anchor="start" x="1196.25" y="-532.55" font-family="Courier,monospace" font-size="11.00">string(255)</text>
<polygon fill="none" stroke="#99ccff" points="377.25,-507 377.25,-526.5 1179.75,-526.5 1179.75,-507 377.25,-507"/>
<text text-anchor="start" x="380.25" y="-513.05" font-family="Courier,monospace" font-size="11.00"> &#160;&#160;&#160;&#160;&#160;&#160;&#160;&#160;&#160;&#160;&#160;&#160;&#160;&#160;&#160;&#160;&#160;&#160;&#160;&#160;&#160;&#160;&#160;&#160;&#160;&#160;&#160;&#160;&#160;&#160;&#160;&#160;&#160;&#160;&#160;&#160;&#160;&#160;&#160;&#160;LastModifiedById &#160;&#160;&#160;&#160;&#160;&#160;&#160;&#160;&#160;&#160;&#160;&#160;&#160;&#160;&#160;&#160;&#160;&#160;&#160;&#160;&#160;&#160;&#160;&#160;&#160;&#160;&#160;&#160;&#160;&#160;&#160;&#160;&#160;&#160;&#160;&#160;&#160;&#160;</text>
<polygon fill="none" stroke="#99ccff" points="1179.75,-507 1179.75,-526.5 1287,-526.5 1287,-507 1179.75,-507"/>
<text text-anchor="start" x="1189.5" y="-513.05" font-family="Courier,monospace" font-size="11.00">reference(18)</text>
<polygon fill="none" stroke="#99ccff" points="377.25,-487.5 377.25,-507 1179.75,-507 1179.75,-487.5 377.25,-487.5"/>
<text text-anchor="start" x="380.25" y="-493.55" font-family="Courier,monospace" font-size="11.00"> &#160;&#160;&#160;&#160;&#160;&#160;&#160;&#160;&#160;&#160;&#160;&#160;&#160;&#160;&#160;&#160;&#160;&#160;&#160;&#160;&#160;&#160;&#160;&#160;&#160;&#160;&#160;&#160;&#160;&#160;&#160;&#160;&#160;&#160;&#160;&#160;&#160;&#160;&#160;&#160;LastViewedDate &#160;&#160;&#160;&#160;&#160;&#160;&#160;&#160;&#160;&#160;&#160;&#160;&#160;&#160;&#160;&#160;&#160;&#160;&#160;&#160;&#160;&#160;&#160;&#160;&#160;&#160;&#160;&#160;&#160;&#160;&#160;&#160;&#160;&#160;&#160;&#160;&#160;&#160;</text>
<polygon fill="none" stroke="#99ccff" points="1179.75,-487.5 1179.75,-507 1287,-507 1287,-487.5 1179.75,-487.5"/>
<text text-anchor="start" x="1206.38" y="-493.55" font-family="Courier,monospace" font-size="11.00">datetime</text>
<polygon fill="none" stroke="#99ccff" points="377.25,-468 377.25,-487.5 1179.75,-487.5 1179.75,-468 377.25,-468"/>
<text text-anchor="start" x="380.25" y="-474.05" font-family="Courier,monospace" font-size="11.00"> &#160;&#160;&#160;&#160;&#160;&#160;&#160;&#160;&#160;&#160;&#160;&#160;&#160;&#160;&#160;&#160;&#160;&#160;&#160;&#160;&#160;&#160;&#160;&#160;&#160;&#160;&#160;&#160;&#160;&#160;&#160;&#160;&#160;&#160;&#160;&#160;&#160;&#160;&#160;&#160;LastReferencedDate &#160;&#160;&#160;&#160;&#160;&#160;&#160;&#160;&#160;&#160;&#160;&#160;&#160;&#160;&#160;&#160;&#160;&#160;&#160;&#160;&#160;&#160;&#160;&#160;&#160;&#160;&#160;&#160;&#160;&#160;&#160;&#160;&#160;&#160;&#160;&#160;&#160;&#160;</text>
<polygon fill="none" stroke="#99ccff" points="1179.75,-468 1179.75,-487.5 1287,-487.5 1287,-468 1179.75,-468"/>
<text text-anchor="start" x="1206.38" y="-474.05" font-family="Courier,monospace" font-size="11.00">datetime</text>
<polygon fill="none" stroke="#99ccff" points="377.25,-448.5 377.25,-468 1179.75,-468 1179.75,-448.5 377.25,-448.5"/>
<text text-anchor="start" x="380.25" y="-454.55" font-family="Courier,monospace" font-size="11.00"> &#160;&#160;&#160;&#160;&#160;&#160;&#160;&#160;&#160;&#160;&#160;&#160;&#160;&#160;&#160;&#160;&#160;&#160;&#160;&#160;&#160;&#160;&#160;&#160;&#160;&#160;&#160;&#160;&#160;&#160;&#160;&#160;&#160;&#160;&#160;&#160;&#160;&#160;&#160;&#160;AttributeNameOverride &#160;&#160;&#160;&#160;&#160;&#160;&#160;&#160;&#160;&#160;&#160;&#160;&#160;&#160;&#160;&#160;&#160;&#160;&#160;&#160;&#160;&#160;&#160;&#160;&#160;&#160;&#160;&#160;&#160;&#160;&#160;&#160;&#160;&#160;&#160;&#160;&#160;&#160;</text>
<polygon fill="none" stroke="#99ccff" points="1179.75,-448.5 1179.75,-468 1287,-468 1287,-448.5 1179.75,-448.5"/>
<text text-anchor="start" x="1196.25" y="-454.55" font-family="Courier,monospace" font-size="11.00">string(255)</text>
<polygon fill="none" stroke="#99ccff" points="377.25,-429 377.25,-448.5 1179.75,-448.5 1179.75,-429 377.25,-429"/>
<text text-anchor="start" x="380.25" y="-435.05" font-family="Courier,monospace" font-size="11.00"> &#160;&#160;&#160;&#160;&#160;&#160;&#160;&#160;&#160;&#160;&#160;&#160;&#160;&#160;&#160;&#160;&#160;&#160;&#160;&#160;&#160;&#160;&#160;&#160;&#160;&#160;&#160;&#160;&#160;&#160;&#160;&#160;&#160;&#160;&#160;&#160;&#160;&#160;&#160;&#160;DefaultValue &#160;&#160;&#160;&#160;&#160;&#160;&#160;&#160;&#160;&#160;&#160;&#160;&#160;&#160;&#160;&#160;&#160;&#160;&#160;&#160;&#160;&#160;&#160;&#160;&#160;&#160;&#160;&#160;&#160;&#160;&#160;&#160;&#160;&#160;&#160;&#160;&#160;&#160;</text>
<polygon fill="none" stroke="#99ccff" points="1179.75,-429 1179.75,-448.5 1287,-448.5 1287,-429 1179.75,-429"/>
<text text-anchor="start" x="1196.25" y="-435.05" font-family="Courier,monospace" font-size="11.00">string(255)</text>
<polygon fill="none" stroke="#99ccff" points="377.25,-409.5 377.25,-429 1179.75,-429 1179.75,-409.5 377.25,-409.5"/>
<text text-anchor="start" x="380.25" y="-415.55" font-family="Courier,monospace" font-size="11.00"> &#160;&#160;&#160;&#160;&#160;&#160;&#160;&#160;&#160;&#160;&#160;&#160;&#160;&#160;&#160;&#160;&#160;&#160;&#160;&#160;&#160;&#160;&#160;&#160;&#160;&#160;&#160;&#160;&#160;&#160;&#160;&#160;&#160;&#160;&#160;&#160;&#160;&#160;&#160;&#160;ValueDescription &#160;&#160;&#160;&#160;&#160;&#160;&#160;&#160;&#160;&#160;&#160;&#160;&#160;&#160;&#160;&#160;&#160;&#160;&#160;&#160;&#160;&#160;&#160;&#160;&#160;&#160;&#160;&#160;&#160;&#160;&#160;&#160;&#160;&#160;&#160;&#160;&#160;&#160;</text>
<polygon fill="none" stroke="#99ccff" points="1179.75,-409.5 1179.75,-429 1287,-429 1287,-409.5 1179.75,-409.5"/>
<text text-anchor="start" x="1182.75" y="-415.55" font-family="Courier,monospace" font-size="11.00">textarea(32000)</text>
<polygon fill="none" stroke="#99ccff" points="377.25,-390 377.25,-409.5 1179.75,-409.5 1179.75,-390 377.25,-390"/>
<text text-anchor="start" x="380.25" y="-396.05" font-family="Courier,monospace" font-size="11.00"> &#160;&#160;&#160;&#160;&#160;&#160;&#160;&#160;&#160;&#160;&#160;&#160;&#160;&#160;&#160;&#160;&#160;&#160;&#160;&#160;&#160;&#160;&#160;&#160;&#160;&#160;&#160;&#160;&#160;&#160;&#160;&#160;&#160;&#160;&#160;&#160;&#160;&#160;&#160;&#160;Description &#160;&#160;&#160;&#160;&#160;&#160;&#160;&#160;&#160;&#160;&#160;&#160;&#160;&#160;&#160;&#160;&#160;&#160;&#160;&#160;&#160;&#160;&#160;&#160;&#160;&#160;&#160;&#160;&#160;&#160;&#160;&#160;&#160;&#160;&#160;&#160;&#160;&#160;</text>
<polygon fill="none" stroke="#99ccff" points="1179.75,-390 1179.75,-409.5 1287,-409.5 1287,-390 1179.75,-390"/>
<text text-anchor="start" x="1182.75" y="-396.05" font-family="Courier,monospace" font-size="11.00">textarea(32000)</text>
<polygon fill="none" stroke="#99ccff" points="377.25,-370.5 377.25,-390 1179.75,-390 1179.75,-370.5 377.25,-370.5"/>
<text text-anchor="start" x="380.25" y="-376.55" font-family="Courier,monospace" font-size="11.00"> &#160;&#160;&#160;&#160;&#160;&#160;&#160;&#160;&#160;&#160;&#160;&#160;&#160;&#160;&#160;&#160;&#160;&#160;&#160;&#160;&#160;&#160;&#160;&#160;&#160;&#160;&#160;&#160;&#160;&#160;&#160;&#160;&#160;&#160;&#160;&#160;&#160;&#160;&#160;&#160;HelpText &#160;&#160;&#160;&#160;&#160;&#160;&#160;&#160;&#160;&#160;&#160;&#160;&#160;&#160;&#160;&#160;&#160;&#160;&#160;&#160;&#160;&#160;&#160;&#160;&#160;&#160;&#160;&#160;&#160;&#160;&#160;&#160;&#160;&#160;&#160;&#160;&#160;&#160;</text>
<polygon fill="none" stroke="#99ccff" points="1179.75,-370.5 1179.75,-390 1287,-390 1287,-370.5 1179.75,-370.5"/>
<text text-anchor="start" x="1182.75" y="-376.55" font-family="Courier,monospace" font-size="11.00">textarea(32000)</text>
<polygon fill="none" stroke="#99ccff" points="377.25,-351 377.25,-370.5 1179.75,-370.5 1179.75,-351 377.25,-351"/>
<text text-anchor="start" x="380.25" y="-357.05" font-family="Courier,monospace" font-size="11.00"> &#160;&#160;&#160;&#160;&#160;&#160;&#160;&#160;&#160;&#160;&#160;&#160;&#160;&#160;&#160;&#160;&#160;&#160;&#160;&#160;&#160;&#160;&#160;&#160;&#160;&#160;&#160;&#160;&#160;&#160;&#160;&#160;&#160;&#160;&#160;&#160;&#160;&#160;&#160;&#160;IsHidden &#160;&#160;&#160;&#160;&#160;&#160;&#160;&#160;&#160;&#160;&#160;&#160;&#160;&#160;&#160;&#160;&#160;&#160;&#160;&#160;&#160;&#160;&#160;&#160;&#160;&#160;&#160;&#160;&#160;&#160;&#160;&#160;&#160;&#160;&#160;&#160;&#160;&#160;</text>
<polygon fill="none" stroke="#99ccff" points="1179.75,-351 1179.75,-370.5 1287,-370.5 1287,-351 1179.75,-351"/>
<text text-anchor="start" x="1209.75" y="-357.05" font-family="Courier,monospace" font-size="11.00">boolean</text>
<polygon fill="none" stroke="#99ccff" points="377.25,-331.5 377.25,-351 1179.75,-351 1179.75,-331.5 377.25,-331.5"/>
<text text-anchor="start" x="380.25" y="-337.55" font-family="Courier,monospace" font-size="11.00"> &#160;&#160;&#160;&#160;&#160;&#160;&#160;&#160;&#160;&#160;&#160;&#160;&#160;&#160;&#160;&#160;&#160;&#160;&#160;&#160;&#160;&#160;&#160;&#160;&#160;&#160;&#160;&#160;&#160;&#160;&#160;&#160;&#160;&#160;&#160;&#160;&#160;&#160;&#160;&#160;IsReadOnly &#160;&#160;&#160;&#160;&#160;&#160;&#160;&#160;&#160;&#160;&#160;&#160;&#160;&#160;&#160;&#160;&#160;&#160;&#160;&#160;&#160;&#160;&#160;&#160;&#160;&#160;&#160;&#160;&#160;&#160;&#160;&#160;&#160;&#160;&#160;&#160;&#160;&#160;</text>
<polygon fill="none" stroke="#99ccff" points="1179.75,-331.5 1179.75,-351 1287,-351 1287,-331.5 1179.75,-331.5"/>
<text text-anchor="start" x="1209.75" y="-337.55" font-family="Courier,monospace" font-size="11.00">boolean</text>
<polygon fill="none" stroke="#99ccff" points="377.25,-312 377.25,-331.5 1179.75,-331.5 1179.75,-312 377.25,-312"/>
<text text-anchor="start" x="380.25" y="-318.05" font-family="Courier,monospace" font-size="11.00"> &#160;&#160;&#160;&#160;&#160;&#160;&#160;&#160;&#160;&#160;&#160;&#160;&#160;&#160;&#160;&#160;&#160;&#160;&#160;&#160;&#160;&#160;&#160;&#160;&#160;&#160;&#160;&#160;&#160;&#160;&#160;&#160;&#160;&#160;&#160;&#160;&#160;&#160;&#160;&#160;IsRequired &#160;&#160;&#160;&#160;&#160;&#160;&#160;&#160;&#160;&#160;&#160;&#160;&#160;&#160;&#160;&#160;&#160;&#160;&#160;&#160;&#160;&#160;&#160;&#160;&#160;&#160;&#160;&#160;&#160;&#160;&#160;&#160;&#160;&#160;&#160;&#160;&#160;&#160;</text>
<polygon fill="none" stroke="#99ccff" points="1179.75,-312 1179.75,-331.5 1287,-331.5 1287,-312 1179.75,-312"/>
<text text-anchor="start" x="1209.75" y="-318.05" font-family="Courier,monospace" font-size="11.00">boolean</text>
<polygon fill="none" stroke="#99ccff" points="377.25,-292.5 377.25,-312 1179.75,-312 1179.75,-292.5 377.25,-292.5"/>
<text text-anchor="start" x="380.25" y="-298.55" font-family="Courier,monospace" font-size="11.00"> &#160;&#160;&#160;&#160;&#160;&#160;&#160;&#160;&#160;&#160;&#160;&#160;&#160;&#160;&#160;&#160;&#160;&#160;&#160;&#160;&#160;&#160;&#160;&#160;&#160;&#160;&#160;&#160;&#160;&#160;&#160;&#160;&#160;&#160;&#160;&#160;&#160;&#160;&#160;&#160;Product2Id &#160;&#160;&#160;&#160;&#160;&#160;&#160;&#160;&#160;&#160;&#160;&#160;&#160;&#160;&#160;&#160;&#160;&#160;&#160;&#160;&#160;&#160;&#160;&#160;&#160;&#160;&#160;&#160;&#160;&#160;&#160;&#160;&#160;&#160;&#160;&#160;&#160;&#160;</text>
<polygon fill="none" stroke="#99ccff" points="1179.75,-292.5 1179.75,-312 1287,-312 1287,-292.5 1179.75,-292.5"/>
<text text-anchor="start" x="1189.5" y="-298.55" font-family="Courier,monospace" font-size="11.00">reference(18)</text>
<polygon fill="none" stroke="#99ccff" points="377.25,-273 377.25,-292.5 1179.75,-292.5 1179.75,-273 377.25,-273"/>
<text text-anchor="start" x="380.25" y="-279.05" font-family="Courier,monospace" font-size="11.00"> &#160;&#160;&#160;&#160;&#160;&#160;&#160;&#160;&#160;&#160;&#160;&#160;&#160;&#160;&#160;&#160;&#160;&#160;&#160;&#160;&#160;&#160;&#160;&#160;&#160;&#160;&#160;&#160;&#160;&#160;&#160;&#160;&#160;&#160;&#160;&#160;&#160;&#160;&#160;&#160;AttributeDefinitionId &#160;&#160;&#160;&#160;&#160;&#160;&#160;&#160;&#160;&#160;&#160;&#160;&#160;&#160;&#160;&#160;&#160;&#160;&#160;&#160;&#160;&#160;&#160;&#160;&#160;&#160;&#160;&#160;&#160;&#160;&#160;&#160;&#160;&#160;&#160;&#160;&#160;&#160;</text>
<polygon fill="none" stroke="#99ccff" points="1179.75,-273 1179.75,-292.5 1287,-292.5 1287,-273 1179.75,-273"/>
<text text-anchor="start" x="1189.5" y="-279.05" font-family="Courier,monospace" font-size="11.00">reference(18)</text>
<polygon fill="none" stroke="#99ccff" points="377.25,-253.5 377.25,-273 1179.75,-273 1179.75,-253.5 377.25,-253.5"/>
<text text-anchor="start" x="380.25" y="-259.55" font-family="Courier,monospace" font-size="11.00"> &#160;&#160;&#160;&#160;&#160;&#160;&#160;&#160;&#160;&#160;&#160;&#160;&#160;&#160;&#160;&#160;&#160;&#160;&#160;&#160;&#160;&#160;&#160;&#160;&#160;&#160;&#160;&#160;&#160;&#160;&#160;&#160;&#160;&#160;&#160;&#160;&#160;&#160;&#160;&#160;Status &#160;&#160;&#160;&#160;&#160;&#160;&#160;&#160;&#160;&#160;&#160;&#160;&#160;&#160;&#160;&#160;&#160;&#160;&#160;&#160;&#160;&#160;&#160;&#160;&#160;&#160;&#160;&#160;&#160;&#160;&#160;&#160;&#160;&#160;&#160;&#160;&#160;&#160;</text>
<polygon fill="none" stroke="#99ccff" points="1179.75,-253.5 1179.75,-273 1287,-273 1287,-253.5 1179.75,-253.5"/>
<text text-anchor="start" x="1189.5" y="-259.55" font-family="Courier,monospace" font-size="11.00">picklist(255)</text>
<polygon fill="none" stroke="#99ccff" points="377.25,-234 377.25,-253.5 1179.75,-253.5 1179.75,-234 377.25,-234"/>
<text text-anchor="start" x="380.25" y="-240.05" font-family="Courier,monospace" font-size="11.00"> &#160;&#160;&#160;&#160;&#160;&#160;&#160;&#160;&#160;&#160;&#160;&#160;&#160;&#160;&#160;&#160;&#160;&#160;&#160;&#160;&#160;&#160;&#160;&#160;&#160;&#160;&#160;&#160;&#160;&#160;&#160;&#160;&#160;&#160;&#160;&#160;&#160;&#160;&#160;&#160;OverrideContextId &#160;&#160;&#160;&#160;&#160;&#160;&#160;&#160;&#160;&#160;&#160;&#160;&#160;&#160;&#160;&#160;&#160;&#160;&#160;&#160;&#160;&#160;&#160;&#160;&#160;&#160;&#160;&#160;&#160;&#160;&#160;&#160;&#160;&#160;&#160;&#160;&#160;&#160;</text>
<polygon fill="none" stroke="#99ccff" points="1179.75,-234 1179.75,-253.5 1287,-253.5 1287,-234 1179.75,-234"/>
<text text-anchor="start" x="1189.5" y="-240.05" font-family="Courier,monospace" font-size="11.00">reference(18)</text>
<polygon fill="none" stroke="#99ccff" points="377.25,-214.5 377.25,-234 1179.75,-234 1179.75,-214.5 377.25,-214.5"/>
<text text-anchor="start" x="380.25" y="-220.55" font-family="Courier,monospace" font-size="11.00"> &#160;&#160;&#160;&#160;&#160;&#160;&#160;&#160;&#160;&#160;&#160;&#160;&#160;&#160;&#160;&#160;&#160;&#160;&#160;&#160;&#160;&#160;&#160;&#160;&#160;&#160;&#160;&#160;&#160;&#160;&#160;&#160;&#160;&#160;&#160;&#160;&#160;&#160;&#160;&#160;OverriddenProductAttributeDefinitionId &#160;&#160;&#160;&#160;&#160;&#160;&#160;&#160;&#160;&#160;&#160;&#160;&#160;&#160;&#160;&#160;&#160;&#160;&#160;&#160;&#160;&#160;&#160;&#160;&#160;&#160;&#160;&#160;&#160;&#160;&#160;&#160;&#160;&#160;&#160;&#160;&#160;&#160;</text>
<polygon fill="none" stroke="#99ccff" points="1179.75,-214.5 1179.75,-234 1287,-234 1287,-214.5 1179.75,-214.5"/>
<text text-anchor="start" x="1189.5" y="-220.55" font-family="Courier,monospace" font-size="11.00">reference(18)</text>
<polygon fill="none" stroke="#99ccff" points="377.25,-195 377.25,-214.5 1179.75,-214.5 1179.75,-195 377.25,-195"/>
<text text-anchor="start" x="380.25" y="-201.05" font-family="Courier,monospace" font-size="11.00"> &#160;&#160;&#160;&#160;&#160;&#160;&#160;&#160;&#160;&#160;&#160;&#160;&#160;&#160;&#160;&#160;&#160;&#160;&#160;&#160;&#160;&#160;&#160;&#160;&#160;&#160;&#160;&#160;&#160;&#160;&#160;&#160;&#160;&#160;&#160;&#160;&#160;&#160;&#160;&#160;IsPriceImpacting &#160;&#160;&#160;&#160;&#160;&#160;&#160;&#160;&#160;&#160;&#160;&#160;&#160;&#160;&#160;&#160;&#160;&#160;&#160;&#160;&#160;&#160;&#160;&#160;&#160;&#160;&#160;&#160;&#160;&#160;&#160;&#160;&#160;&#160;&#160;&#160;&#160;&#160;</text>
<polygon fill="none" stroke="#99ccff" points="1179.75,-195 1179.75,-214.5 1287,-214.5 1287,-195 1179.75,-195"/>
<text text-anchor="start" x="1209.75" y="-201.05" font-family="Courier,monospace" font-size="11.00">boolean</text>
<polygon fill="none" stroke="#99ccff" points="377.25,-175.5 377.25,-195 1179.75,-195 1179.75,-175.5 377.25,-175.5"/>
<text text-anchor="start" x="380.25" y="-181.55" font-family="Courier,monospace" font-size="11.00"> &#160;&#160;&#160;&#160;&#160;&#160;&#160;&#160;&#160;&#160;&#160;&#160;&#160;&#160;&#160;&#160;&#160;&#160;&#160;&#160;&#160;&#160;&#160;&#160;&#160;&#160;&#160;&#160;&#160;&#160;&#160;&#160;&#160;&#160;&#160;&#160;&#160;&#160;&#160;&#160;Sequence &#160;&#160;&#160;&#160;&#160;&#160;&#160;&#160;&#160;&#160;&#160;&#160;&#160;&#160;&#160;&#160;&#160;&#160;&#160;&#160;&#160;&#160;&#160;&#160;&#160;&#160;&#160;&#160;&#160;&#160;&#160;&#160;&#160;&#160;&#160;&#160;&#160;&#160;</text>
<polygon fill="none" stroke="#99ccff" points="1179.75,-175.5 1179.75,-195 1287,-195 1287,-175.5 1179.75,-175.5"/>
<text text-anchor="start" x="1223.25" y="-181.55" font-family="Courier,monospace" font-size="11.00">int</text>
<polygon fill="none" stroke="#99ccff" points="377.25,-156 377.25,-175.5 1179.75,-175.5 1179.75,-156 377.25,-156"/>
<text text-anchor="start" x="380.25" y="-162.05" font-family="Courier,monospace" font-size="11.00"> &#160;&#160;&#160;&#160;&#160;&#160;&#160;&#160;&#160;&#160;&#160;&#160;&#160;&#160;&#160;&#160;&#160;&#160;&#160;&#160;&#160;&#160;&#160;&#160;&#160;&#160;&#160;&#160;&#160;&#160;&#160;&#160;&#160;&#160;&#160;&#160;&#160;&#160;&#160;&#160;AttributeCategoryId &#160;&#160;&#160;&#160;&#160;&#160;&#160;&#160;&#160;&#160;&#160;&#160;&#160;&#160;&#160;&#160;&#160;&#160;&#160;&#160;&#160;&#160;&#160;&#160;&#160;&#160;&#160;&#160;&#160;&#160;&#160;&#160;&#160;&#160;&#160;&#160;&#160;&#160;</text>
<polygon fill="none" stroke="#99ccff" points="1179.75,-156 1179.75,-175.5 1287,-175.5 1287,-156 1179.75,-156"/>
<text text-anchor="start" x="1189.5" y="-162.05" font-family="Courier,monospace" font-size="11.00">reference(18)</text>
<polygon fill="none" stroke="#99ccff" points="377.25,-136.5 377.25,-156 1179.75,-156 1179.75,-136.5 377.25,-136.5"/>
<text text-anchor="start" x="380.25" y="-142.55" font-family="Courier,monospace" font-size="11.00"> &#160;&#160;&#160;&#160;&#160;&#160;&#160;&#160;&#160;&#160;&#160;&#160;&#160;&#160;&#160;&#160;&#160;&#160;&#160;&#160;&#160;&#160;&#160;&#160;&#160;&#160;&#160;&#160;&#160;&#160;&#160;&#160;&#160;&#160;&#160;&#160;&#160;&#160;&#160;&#160;ProductClassificationAttributeId &#160;&#160;&#160;&#160;&#160;&#160;&#160;&#160;&#160;&#160;&#160;&#160;&#160;&#160;&#160;&#160;&#160;&#160;&#160;&#160;&#160;&#160;&#160;&#160;&#160;&#160;&#160;&#160;&#160;&#160;&#160;&#160;&#160;&#160;&#160;&#160;&#160;&#160;</text>
<polygon fill="none" stroke="#99ccff" points="1179.75,-136.5 1179.75,-156 1287,-156 1287,-136.5 1179.75,-136.5"/>
<text text-anchor="start" x="1189.5" y="-142.55" font-family="Courier,monospace" font-size="11.00">reference(18)</text>
<polygon fill="none" stroke="#99ccff" points="377.25,-117 377.25,-136.5 1179.75,-136.5 1179.75,-117 377.25,-117"/>
<text text-anchor="start" x="380.25" y="-123.05" font-family="Courier,monospace" font-size="11.00"> &#160;&#160;&#160;&#160;&#160;&#160;&#160;&#160;&#160;&#160;&#160;&#160;&#160;&#160;&#160;&#160;&#160;&#160;&#160;&#160;&#160;&#160;&#160;&#160;&#160;&#160;&#160;&#160;&#160;&#160;&#160;&#160;&#160;&#160;&#160;&#160;&#160;&#160;&#160;&#160;MinimumValue &#160;&#160;&#160;&#160;&#160;&#160;&#160;&#160;&#160;&#160;&#160;&#160;&#160;&#160;&#160;&#160;&#160;&#160;&#160;&#160;&#160;&#160;&#160;&#160;&#160;&#160;&#160;&#160;&#160;&#160;&#160;&#160;&#160;&#160;&#160;&#160;&#160;&#160;</text>
<polygon fill="none" stroke="#99ccff" points="1179.75,-117 1179.75,-136.5 1287,-136.5 1287,-117 1179.75,-117"/>
<text text-anchor="start" x="1196.25" y="-123.05" font-family="Courier,monospace" font-size="11.00">string(255)</text>
<polygon fill="none" stroke="#99ccff" points="377.25,-97.5 377.25,-117 1179.75,-117 1179.75,-97.5 377.25,-97.5"/>
<text text-anchor="start" x="380.25" y="-103.55" font-family="Courier,monospace" font-size="11.00"> &#160;&#160;&#160;&#160;&#160;&#160;&#160;&#160;&#160;&#160;&#160;&#160;&#160;&#160;&#160;&#160;&#160;&#160;&#160;&#160;&#160;&#160;&#160;&#160;&#160;&#160;&#160;&#160;&#160;&#160;&#160;&#160;&#160;&#160;&#160;&#160;&#160;&#160;&#160;&#160;MaximumValue &#160;&#160;&#160;&#160;&#160;&#160;&#160;&#160;&#160;&#160;&#160;&#160;&#160;&#160;&#160;&#160;&#160;&#160;&#160;&#160;&#160;&#160;&#160;&#160;&#160;&#160;&#160;&#160;&#160;&#160;&#160;&#160;&#160;&#160;&#160;&#160;&#160;&#160;</text>
<polygon fill="none" stroke="#99ccff" points="1179.75,-97.5 1179.75,-117 1287,-117 1287,-97.5 1179.75,-97.5"/>
<text text-anchor="start" x="1196.25" y="-103.55" font-family="Courier,monospace" font-size="11.00">string(255)</text>
<polygon fill="none" stroke="#99ccff" points="377.25,-78 377.25,-97.5 1179.75,-97.5 1179.75,-78 377.25,-78"/>
<text text-anchor="start" x="380.25" y="-84.05" font-family="Courier,monospace" font-size="11.00"> &#160;&#160;&#160;&#160;&#160;&#160;&#160;&#160;&#160;&#160;&#160;&#160;&#160;&#160;&#160;&#160;&#160;&#160;&#160;&#160;&#160;&#160;&#160;&#160;&#160;&#160;&#160;&#160;&#160;&#160;&#160;&#160;&#160;&#160;&#160;&#160;&#160;&#160;&#160;&#160;MinimumCharacterCount &#160;&#160;&#160;&#160;&#160;&#160;&#160;&#160;&#160;&#160;&#160;&#160;&#160;&#160;&#160;&#160;&#160;&#160;&#160;&#160;&#160;&#160;&#160;&#160;&#160;&#160;&#160;&#160;&#160;&#160;&#160;&#160;&#160;&#160;&#160;&#160;&#160;&#160;</text>
<polygon fill="none" stroke="#99ccff" points="1179.75,-78 1179.75,-97.5 1287,-97.5 1287,-78 1179.75,-78"/>
<text text-anchor="start" x="1223.25" y="-84.05" font-family="Courier,monospace" font-size="11.00">int</text>
<polygon fill="none" stroke="#99ccff" points="377.25,-58.5 377.25,-78 1179.75,-78 1179.75,-58.5 377.25,-58.5"/>
<text text-anchor="start" x="380.25" y="-64.55" font-family="Courier,monospace" font-size="11.00"> &#160;&#160;&#160;&#160;&#160;&#160;&#160;&#160;&#160;&#160;&#160;&#160;&#160;&#160;&#160;&#160;&#160;&#160;&#160;&#160;&#160;&#160;&#160;&#160;&#160;&#160;&#160;&#160;&#160;&#160;&#160;&#160;&#160;&#160;&#160;&#160;&#160;&#160;&#160;&#160;MaximumCharacterCount &#160;&#160;&#160;&#160;&#160;&#160;&#160;&#160;&#160;&#160;&#160;&#160;&#160;&#160;&#160;&#160;&#160;&#160;&#160;&#160;&#160;&#160;&#160;&#160;&#160;&#160;&#160;&#160;&#160;&#160;&#160;&#160;&#160;&#160;&#160;&#160;&#160;&#160;</text>
<polygon fill="none" stroke="#99ccff" points="1179.75,-58.5 1179.75,-78 1287,-78 1287,-58.5 1179.75,-58.5"/>
<text text-anchor="start" x="1223.25" y="-64.55" font-family="Courier,monospace" font-size="11.00">int</text>
<polygon fill="none" stroke="#99ccff" points="377.25,-39 377.25,-58.5 1179.75,-58.5 1179.75,-39 377.25,-39"/>
<text text-anchor="start" x="380.25" y="-45.05" font-family="Courier,monospace" font-size="11.00"> &#160;&#160;&#160;&#160;&#160;&#160;&#160;&#160;&#160;&#160;&#160;&#160;&#160;&#160;&#160;&#160;&#160;&#160;&#160;&#160;&#160;&#160;&#160;&#160;&#160;&#160;&#160;&#160;&#160;&#160;&#160;&#160;&#160;&#160;&#160;&#160;&#160;&#160;&#160;&#160;DisplayType &#160;&#160;&#160;&#160;&#160;&#160;&#160;&#160;&#160;&#160;&#160;&#160;&#160;&#160;&#160;&#160;&#160;&#160;&#160;&#160;&#160;&#160;&#160;&#160;&#160;&#160;&#160;&#160;&#160;&#160;&#160;&#160;&#160;&#160;&#160;&#160;&#160;&#160;</text>
<polygon fill="none" stroke="#99ccff" points="1179.75,-39 1179.75,-58.5 1287,-58.5 1287,-39 1179.75,-39"/>
<text text-anchor="start" x="1189.5" y="-45.05" font-family="Courier,monospace" font-size="11.00">picklist(255)</text>
<polygon fill="none" stroke="#99ccff" points="377.25,-19.5 377.25,-39 1179.75,-39 1179.75,-19.5 377.25,-19.5"/>
<text text-anchor="start" x="380.25" y="-25.55" font-family="Courier,monospace" font-size="11.00"> &#160;&#160;&#160;&#160;&#160;&#160;&#160;&#160;&#160;&#160;&#160;&#160;&#160;&#160;&#160;&#160;&#160;&#160;&#160;&#160;&#160;&#160;&#160;&#160;&#160;&#160;&#160;&#160;&#160;&#160;&#160;&#160;&#160;&#160;&#160;&#160;&#160;&#160;&#160;&#160;StepValue &#160;&#160;&#160;&#160;&#160;&#160;&#160;&#160;&#160;&#160;&#160;&#160;&#160;&#160;&#160;&#160;&#160;&#160;&#160;&#160;&#160;&#160;&#160;&#160;&#160;&#160;&#160;&#160;&#160;&#160;&#160;&#160;&#160;&#160;&#160;&#160;&#160;&#160;</text>
<polygon fill="none" stroke="#99ccff" points="1179.75,-19.5 1179.75,-39 1287,-39 1287,-19.5 1179.75,-19.5"/>
<text text-anchor="start" x="1196.25" y="-25.55" font-family="Courier,monospace" font-size="11.00">string(255)</text>
<polygon fill="none" stroke="#99ccff" points="376.25,-18.5 376.25,-625 1288,-625 1288,-18.5 376.25,-18.5"/>
</a>
</g>
</g>
<!-- ProductAttributeDefinition&#45;&gt;ProductAttributeDefinition -->
<g id="edge7" class="edge">
<title>ProductAttributeDefinition:w&#45;&gt;ProductAttributeDefinition:e</title>
<path fill="none" stroke="#3e7ab7" d="M365.12,-234.37C239.84,-348.05 255.67,-638 778.5,-638 1317.66,-638 1317.66,-629.33 1179.75,-594.75"/>
<polygon fill="#3e7ab7" stroke="#3e7ab7" points="370.85,-229.59 379.3,-227.23 374.18,-226.81 376.74,-224.68 376.74,-224.68 376.74,-224.68 374.18,-226.81 374.69,-221.7 370.85,-229.59"/>
<ellipse fill="none" stroke="#3e7ab7" cx="367.07" cy="-232.74" rx="3.2" ry="3.2"/>
<text text-anchor="middle" x="832.12" y="-640.85" font-family="Arial" font-size="12.00">OverriddenProductAttributeDefinition</text>
</g>
<!-- Group -->
<g id="node2" class="node">
<title>Group</title>
<text text-anchor="middle" x="92.38" y="-571.05" font-family="Courier,monospace" font-size="11.00">Group</text>
</g>
<!-- ProductAttributeDefinition&#45;&gt;Group -->
<g id="edge1" class="edge">
<title>ProductAttributeDefinition:w&#45;&gt;Group:e</title>
<path fill="none" stroke="#ff99cc" d="M360.55,-575.25C269.33,-575.22 166.1,-574.96 119.12,-574.83"/>
<polygon fill="#ff99cc" stroke="#ff99cc" points="367.92,-575.25 375.91,-578.85 372.25,-575.25 375.58,-575.25 375.58,-575.25 375.58,-575.25 372.25,-575.25 375.92,-571.65 367.92,-575.25"/>
<ellipse fill="none" stroke="#ff99cc" cx="363" cy="-575.25" rx="3.2" ry="3.2"/>
<text text-anchor="middle" x="280.5" y="-577.94" font-family="Monaco" font-size="9.00">Owner</text>
</g>
<!-- User -->
<g id="node3" class="node">
<title>User</title>
<text text-anchor="middle" x="92.38" y="-518.05" font-family="Courier,monospace" font-size="11.00">User</text>
</g>
<!-- ProductAttributeDefinition&#45;&gt;User -->
<g id="edge2" class="edge">
<title>ProductAttributeDefinition:w&#45;&gt;User:e</title>
<path fill="none" stroke="#ff99cc" d="M366.71,-562.83C365.88,-557.21 364.9,-551.03 359.25,-547.5 349.15,-541.18 183.94,-528.42 119.15,-523.62"/>
<polygon fill="#ff99cc" stroke="#ff99cc" points="371.17,-568.64 373.19,-577.18 373.81,-572.08 375.84,-574.72 375.84,-574.72 375.84,-574.72 373.81,-572.08 378.9,-572.79 371.17,-568.64"/>
<ellipse fill="none" stroke="#ff99cc" cx="368.18" cy="-564.74" rx="3.2" ry="3.2"/>
<text text-anchor="middle" x="280.5" y="-550.2" font-family="Monaco" font-size="9.00">Owner</text>
</g>
<!-- ProductAttributeDefinition&#45;&gt;User -->
<g id="edge3" class="edge">
<title>ProductAttributeDefinition:w&#45;&gt;User:e</title>
<path fill="none" stroke="#ff99cc" d="M360.6,-516.51C360.17,-516.51 359.72,-516.5 359.25,-516.5 289.25,-515.99 271.73,-514.81 201.75,-516.5 173.5,-517.18 141.15,-518.87 119.2,-520.15"/>
<polygon fill="#ff99cc" stroke="#ff99cc" points="367.92,-516.62 375.86,-520.34 372.25,-516.69 375.58,-516.74 375.58,-516.74 375.58,-516.74 372.25,-516.69 375.97,-513.15 367.92,-516.62"/>
<ellipse fill="none" stroke="#ff99cc" cx="363" cy="-516.55" rx="3.2" ry="3.2"/>
<text text-anchor="middle" x="280.5" y="-519.2" font-family="Monaco" font-size="9.00">LastModifiedBy</text>
</g>
<!-- Product2 -->
<g id="node4" class="node">
<title>Product2</title>
<text text-anchor="middle" x="92.38" y="-233.05" font-family="Courier,monospace" font-size="11.00">Product2</text>
</g>
<!-- ProductAttributeDefinition&#45;&gt;Product2 -->
<g id="edge4" class="edge">
<title>ProductAttributeDefinition:w&#45;&gt;Product2:e</title>
<path fill="none" stroke="#ff99cc" d="M360.53,-302.72C294.03,-306.7 262.55,-333.64 201.75,-294.75 187.85,-285.86 197.57,-272.14 184.75,-261.75 168.52,-248.6 145.91,-242.34 127.24,-239.38"/>
<polygon fill="#ff99cc" stroke="#ff99cc" points="367.92,-302.5 376.02,-305.86 372.25,-302.37 375.58,-302.27 375.58,-302.27 375.58,-302.27 372.25,-302.37 375.81,-298.66 367.92,-302.5"/>
<ellipse fill="none" stroke="#ff99cc" cx="363" cy="-302.65" rx="3.2" ry="3.2"/>
<text text-anchor="middle" x="280.5" y="-318.2" font-family="Monaco" font-size="9.00">Product2</text>
</g>
<!-- ProductAttributeDefinition&#45;&gt;Product2 -->
<g id="edge6" class="edge">
<title>ProductAttributeDefinition:w&#45;&gt;Product2:e</title>
<path fill="none" stroke="#ff99cc" d="M360.56,-243.72C274.32,-243.34 177.37,-240.06 127.33,-238.13"/>
<polygon fill="#ff99cc" stroke="#ff99cc" points="367.92,-243.73 375.91,-247.35 372.25,-243.74 375.58,-243.75 375.58,-243.75 375.58,-243.75 372.25,-243.74 375.92,-240.15 367.92,-243.73"/>
<ellipse fill="none" stroke="#ff99cc" cx="363" cy="-243.72" rx="3.2" ry="3.2"/>
<text text-anchor="middle" x="280.5" y="-246.38" font-family="Monaco" font-size="9.00">OverrideContext</text>
</g>
<!-- AttributeDefinition -->
<g id="node5" class="node">
<title>AttributeDefinition</title>
<text text-anchor="middle" x="92.38" y="-282.05" font-family="Courier,monospace" font-size="11.00">AttributeDefinition</text>
</g>
<!-- ProductAttributeDefinition&#45;&gt;AttributeDefinition -->
<g id="edge5" class="edge">
<title>ProductAttributeDefinition:w&#45;&gt;AttributeDefinition:e</title>
<path fill="none" stroke="#ff99cc" d="M360.45,-282.77C292.25,-282.89 217.36,-283.8 164.29,-284.58"/>
<polygon fill="#ff99cc" stroke="#ff99cc" points="367.92,-282.76 375.92,-286.35 372.25,-282.75 375.58,-282.75 375.58,-282.75 375.58,-282.75 372.25,-282.75 375.91,-279.15 367.92,-282.76"/>
<ellipse fill="none" stroke="#ff99cc" cx="363" cy="-282.76" rx="3.2" ry="3.2"/>
<text text-anchor="middle" x="280.5" y="-286.68" font-family="Monaco" font-size="9.00">AttributeDefinition</text>
</g>
<!-- AttributeCategory -->
<g id="node6" class="node">
<title>AttributeCategory</title>
<text text-anchor="middle" x="92.38" y="-172.05" font-family="Courier,monospace" font-size="11.00">AttributeCategory</text>
</g>
<!-- ProductAttributeDefinition&#45;&gt;AttributeCategory -->
<g id="edge8" class="edge">
<title>ProductAttributeDefinition:w&#45;&gt;AttributeCategory:e</title>
<path fill="none" stroke="#ff99cc" d="M360.71,-165.8C289.54,-166.23 211.07,-169.51 157.67,-172.18"/>
<polygon fill="#ff99cc" stroke="#ff99cc" points="367.92,-165.78 375.93,-169.35 372.25,-165.76 375.58,-165.75 375.58,-165.75 375.58,-165.75 372.25,-165.76 375.9,-162.15 367.92,-165.78"/>
<ellipse fill="none" stroke="#ff99cc" cx="363" cy="-165.79" rx="3.2" ry="3.2"/>
<text text-anchor="middle" x="280.5" y="-172.55" font-family="Monaco" font-size="9.00">AttributeCategory</text>
</g>
<!-- ProductClassificationAttr -->
<g id="node7" class="node">
<title>ProductClassificationAttr</title>
<text text-anchor="middle" x="92.38" y="-123.05" font-family="Courier,monospace" font-size="11.00">ProductClassificationAttr</text>
</g>
<!-- ProductAttributeDefinition&#45;&gt;ProductClassificationAttr -->
<g id="edge9" class="edge">
<title>ProductAttributeDefinition:w&#45;&gt;ProductClassificationAttr:e</title>
<path fill="none" stroke="#ff99cc" d="M360.71,-146.16C300.69,-145.44 235.6,-140.8 184.67,-136.24"/>
<polygon fill="#ff99cc" stroke="#ff99cc" points="367.92,-146.2 375.89,-149.85 372.25,-146.23 375.58,-146.25 375.58,-146.25 375.58,-146.25 372.25,-146.23 375.94,-142.65 367.92,-146.2"/>
<ellipse fill="none" stroke="#ff99cc" cx="363" cy="-146.17" rx="3.2" ry="3.2"/>
<text text-anchor="middle" x="280.5" y="-148.75" font-family="Monaco" font-size="9.00">ProductClassificationAttribute</text>
</g>
</g>
</svg>
