<?xml version="1.0" encoding="UTF-8" standalone="no"?>
<!DOCTYPE svg PUBLIC "-//W3C//DTD SVG 1.1//EN"
 "http://www.w3.org/Graphics/SVG/1.1/DTD/svg11.dtd">
<!-- Generated by graphviz version 12.2.1 (20241206.2353)
 -->
<!-- Title: Salesforce+ ERD Pages: 1 -->
<svg width="1121pt" height="575pt"
 viewBox="0.00 0.00 1120.50 574.50" xmlns="http://www.w3.org/2000/svg" xmlns:xlink="http://www.w3.org/1999/xlink">
<g id="graph0" class="graph" transform="scale(1 1) rotate(0) translate(4 570.5)">
<title>Salesforce+ ERD</title>
<polygon fill="#efeffd" stroke="none" points="-4,4 -4,-570.5 1116.5,-570.5 1116.5,4 -4,4"/>
<text text-anchor="middle" x="1065.12" y="-5.95" font-family="Courier,monospace" font-size="9.00">Salesforce ERD </text>
<!-- ProductClassificationAttr -->
<g id="node1" class="node">
<title>ProductClassificationAttr</title>
<g id="a_node1"><a xlink:href="#" xlink:title=" ProductClassificationAttr ">
<polygon fill="#ffeeff" stroke="none" points="302,-18.5 302,-566.5 1112.5,-566.5 1112.5,-18.5 302,-18.5"/>
<polygon fill="lightblue" stroke="none" points="303,-546 303,-565.5 1111.5,-565.5 1111.5,-546 303,-546"/>
<polygon fill="none" stroke="#99ccff" points="303,-546 303,-565.5 1111.5,-565.5 1111.5,-546 303,-546"/>
<text text-anchor="start" x="622.88" y="-553.05" font-family="Courier,monospace" font-weight="bold" font-size="11.00">ProductClassificationAttr</text>
<polygon fill="#99ccff" stroke="none" points="303,-526.5 303,-546 1004.25,-546 1004.25,-526.5 303,-526.5"/>
<polygon fill="none" stroke="#99ccff" points="303,-526.5 303,-546 1004.25,-546 1004.25,-526.5 303,-526.5"/>
<text text-anchor="start" x="306" y="-533.55" font-family="Courier,monospace" font-size="11.00"> &#160;&#160;&#160;&#160;&#160;&#160;&#160;&#160;&#160;&#160;&#160;&#160;&#160;&#160;&#160;&#160;&#160;&#160;&#160;&#160;&#160;&#160;&#160;&#160;&#160;&#160;&#160;&#160;&#160;&#160;&#160;&#160;&#160;&#160;&#160;&#160;&#160;&#160;&#160;&#160;&#160;&#160;</text>
<text text-anchor="start" x="596.25" y="-533.55" font-family="Courier,monospace" font-weight="bold" font-size="11.00">Id</text>
<text text-anchor="start" x="609.75" y="-533.55" font-family="Courier,monospace" font-size="11.00"> &#160;&#160;&#160;&#160;&#160;&#160;&#160;&#160;&#160;&#160;&#160;&#160;&#160;&#160;&#160;&#160;&#160;&#160;&#160;&#160;&#160;&#160;&#160;&#160;&#160;&#160;&#160;&#160;&#160;&#160;&#160;&#160;&#160;&#160;&#160;&#160;&#160;&#160;&#160;</text>
<polygon fill="none" stroke="#99ccff" points="1004.25,-526.5 1004.25,-546 1111.5,-546 1111.5,-526.5 1004.25,-526.5"/>
<text text-anchor="start" x="1037.62" y="-532.55" font-family="Courier,monospace" font-size="11.00">id(18)</text>
<polygon fill="none" stroke="#99ccff" points="303,-507 303,-526.5 1004.25,-526.5 1004.25,-507 303,-507"/>
<text text-anchor="start" x="306" y="-513.05" font-family="Courier,monospace" font-size="11.00"> &#160;&#160;&#160;&#160;&#160;&#160;&#160;&#160;&#160;&#160;&#160;&#160;&#160;&#160;&#160;&#160;&#160;&#160;&#160;&#160;&#160;&#160;&#160;&#160;&#160;&#160;&#160;&#160;&#160;&#160;&#160;&#160;&#160;&#160;&#160;&#160;&#160;&#160;&#160;&#160;OwnerId &#160;&#160;&#160;&#160;&#160;&#160;&#160;&#160;&#160;&#160;&#160;&#160;&#160;&#160;&#160;&#160;&#160;&#160;&#160;&#160;&#160;&#160;&#160;&#160;&#160;&#160;&#160;&#160;&#160;&#160;&#160;&#160;&#160;&#160;&#160;&#160;&#160;&#160;</text>
<polygon fill="none" stroke="#99ccff" points="1004.25,-507 1004.25,-526.5 1111.5,-526.5 1111.5,-507 1004.25,-507"/>
<text text-anchor="start" x="1014" y="-513.05" font-family="Courier,monospace" font-size="11.00">reference(18)</text>
<polygon fill="none" stroke="#99ccff" points="303,-487.5 303,-507 1004.25,-507 1004.25,-487.5 303,-487.5"/>
<text text-anchor="start" x="306" y="-493.55" font-family="Courier,monospace" font-size="11.00"> &#160;&#160;&#160;&#160;&#160;&#160;&#160;&#160;&#160;&#160;&#160;&#160;&#160;&#160;&#160;&#160;&#160;&#160;&#160;&#160;&#160;&#160;&#160;&#160;&#160;&#160;&#160;&#160;&#160;&#160;&#160;&#160;&#160;&#160;&#160;&#160;&#160;&#160;&#160;&#160;IsDeleted &#160;&#160;&#160;&#160;&#160;&#160;&#160;&#160;&#160;&#160;&#160;&#160;&#160;&#160;&#160;&#160;&#160;&#160;&#160;&#160;&#160;&#160;&#160;&#160;&#160;&#160;&#160;&#160;&#160;&#160;&#160;&#160;&#160;&#160;&#160;&#160;&#160;&#160;</text>
<polygon fill="none" stroke="#99ccff" points="1004.25,-487.5 1004.25,-507 1111.5,-507 1111.5,-487.5 1004.25,-487.5"/>
<text text-anchor="start" x="1034.25" y="-493.55" font-family="Courier,monospace" font-size="11.00">boolean</text>
<polygon fill="none" stroke="#99ccff" points="303,-468 303,-487.5 1004.25,-487.5 1004.25,-468 303,-468"/>
<text text-anchor="start" x="306" y="-474.05" font-family="Courier,monospace" font-size="11.00"> &#160;&#160;&#160;&#160;&#160;&#160;&#160;&#160;&#160;&#160;&#160;&#160;&#160;&#160;&#160;&#160;&#160;&#160;&#160;&#160;&#160;&#160;&#160;&#160;&#160;&#160;&#160;&#160;&#160;&#160;&#160;&#160;&#160;&#160;&#160;&#160;&#160;&#160;&#160;&#160;Name &#160;&#160;&#160;&#160;&#160;&#160;&#160;&#160;&#160;&#160;&#160;&#160;&#160;&#160;&#160;&#160;&#160;&#160;&#160;&#160;&#160;&#160;&#160;&#160;&#160;&#160;&#160;&#160;&#160;&#160;&#160;&#160;&#160;&#160;&#160;&#160;&#160;&#160;</text>
<polygon fill="none" stroke="#99ccff" points="1004.25,-468 1004.25,-487.5 1111.5,-487.5 1111.5,-468 1004.25,-468"/>
<text text-anchor="start" x="1020.75" y="-474.05" font-family="Courier,monospace" font-size="11.00">string(255)</text>
<polygon fill="none" stroke="#99ccff" points="303,-448.5 303,-468 1004.25,-468 1004.25,-448.5 303,-448.5"/>
<text text-anchor="start" x="306" y="-454.55" font-family="Courier,monospace" font-size="11.00"> &#160;&#160;&#160;&#160;&#160;&#160;&#160;&#160;&#160;&#160;&#160;&#160;&#160;&#160;&#160;&#160;&#160;&#160;&#160;&#160;&#160;&#160;&#160;&#160;&#160;&#160;&#160;&#160;&#160;&#160;&#160;&#160;&#160;&#160;&#160;&#160;&#160;&#160;&#160;&#160;LastModifiedById &#160;&#160;&#160;&#160;&#160;&#160;&#160;&#160;&#160;&#160;&#160;&#160;&#160;&#160;&#160;&#160;&#160;&#160;&#160;&#160;&#160;&#160;&#160;&#160;&#160;&#160;&#160;&#160;&#160;&#160;&#160;&#160;&#160;&#160;&#160;&#160;&#160;&#160;</text>
<polygon fill="none" stroke="#99ccff" points="1004.25,-448.5 1004.25,-468 1111.5,-468 1111.5,-448.5 1004.25,-448.5"/>
<text text-anchor="start" x="1014" y="-454.55" font-family="Courier,monospace" font-size="11.00">reference(18)</text>
<polygon fill="none" stroke="#99ccff" points="303,-429 303,-448.5 1004.25,-448.5 1004.25,-429 303,-429"/>
<text text-anchor="start" x="306" y="-435.05" font-family="Courier,monospace" font-size="11.00"> &#160;&#160;&#160;&#160;&#160;&#160;&#160;&#160;&#160;&#160;&#160;&#160;&#160;&#160;&#160;&#160;&#160;&#160;&#160;&#160;&#160;&#160;&#160;&#160;&#160;&#160;&#160;&#160;&#160;&#160;&#160;&#160;&#160;&#160;&#160;&#160;&#160;&#160;&#160;&#160;LastViewedDate &#160;&#160;&#160;&#160;&#160;&#160;&#160;&#160;&#160;&#160;&#160;&#160;&#160;&#160;&#160;&#160;&#160;&#160;&#160;&#160;&#160;&#160;&#160;&#160;&#160;&#160;&#160;&#160;&#160;&#160;&#160;&#160;&#160;&#160;&#160;&#160;&#160;&#160;</text>
<polygon fill="none" stroke="#99ccff" points="1004.25,-429 1004.25,-448.5 1111.5,-448.5 1111.5,-429 1004.25,-429"/>
<text text-anchor="start" x="1030.88" y="-435.05" font-family="Courier,monospace" font-size="11.00">datetime</text>
<polygon fill="none" stroke="#99ccff" points="303,-409.5 303,-429 1004.25,-429 1004.25,-409.5 303,-409.5"/>
<text text-anchor="start" x="306" y="-415.55" font-family="Courier,monospace" font-size="11.00"> &#160;&#160;&#160;&#160;&#160;&#160;&#160;&#160;&#160;&#160;&#160;&#160;&#160;&#160;&#160;&#160;&#160;&#160;&#160;&#160;&#160;&#160;&#160;&#160;&#160;&#160;&#160;&#160;&#160;&#160;&#160;&#160;&#160;&#160;&#160;&#160;&#160;&#160;&#160;&#160;LastReferencedDate &#160;&#160;&#160;&#160;&#160;&#160;&#160;&#160;&#160;&#160;&#160;&#160;&#160;&#160;&#160;&#160;&#160;&#160;&#160;&#160;&#160;&#160;&#160;&#160;&#160;&#160;&#160;&#160;&#160;&#160;&#160;&#160;&#160;&#160;&#160;&#160;&#160;&#160;</text>
<polygon fill="none" stroke="#99ccff" points="1004.25,-409.5 1004.25,-429 1111.5,-429 1111.5,-409.5 1004.25,-409.5"/>
<text text-anchor="start" x="1030.88" y="-415.55" font-family="Courier,monospace" font-size="11.00">datetime</text>
<polygon fill="none" stroke="#99ccff" points="303,-390 303,-409.5 1004.25,-409.5 1004.25,-390 303,-390"/>
<text text-anchor="start" x="306" y="-396.05" font-family="Courier,monospace" font-size="11.00"> &#160;&#160;&#160;&#160;&#160;&#160;&#160;&#160;&#160;&#160;&#160;&#160;&#160;&#160;&#160;&#160;&#160;&#160;&#160;&#160;&#160;&#160;&#160;&#160;&#160;&#160;&#160;&#160;&#160;&#160;&#160;&#160;&#160;&#160;&#160;&#160;&#160;&#160;&#160;&#160;ProductClassificationId &#160;&#160;&#160;&#160;&#160;&#160;&#160;&#160;&#160;&#160;&#160;&#160;&#160;&#160;&#160;&#160;&#160;&#160;&#160;&#160;&#160;&#160;&#160;&#160;&#160;&#160;&#160;&#160;&#160;&#160;&#160;&#160;&#160;&#160;&#160;&#160;&#160;&#160;</text>
<polygon fill="none" stroke="#99ccff" points="1004.25,-390 1004.25,-409.5 1111.5,-409.5 1111.5,-390 1004.25,-390"/>
<text text-anchor="start" x="1014" y="-396.05" font-family="Courier,monospace" font-size="11.00">reference(18)</text>
<polygon fill="none" stroke="#99ccff" points="303,-370.5 303,-390 1004.25,-390 1004.25,-370.5 303,-370.5"/>
<text text-anchor="start" x="306" y="-376.55" font-family="Courier,monospace" font-size="11.00"> &#160;&#160;&#160;&#160;&#160;&#160;&#160;&#160;&#160;&#160;&#160;&#160;&#160;&#160;&#160;&#160;&#160;&#160;&#160;&#160;&#160;&#160;&#160;&#160;&#160;&#160;&#160;&#160;&#160;&#160;&#160;&#160;&#160;&#160;&#160;&#160;&#160;&#160;&#160;&#160;AttributeDefinitionId &#160;&#160;&#160;&#160;&#160;&#160;&#160;&#160;&#160;&#160;&#160;&#160;&#160;&#160;&#160;&#160;&#160;&#160;&#160;&#160;&#160;&#160;&#160;&#160;&#160;&#160;&#160;&#160;&#160;&#160;&#160;&#160;&#160;&#160;&#160;&#160;&#160;&#160;</text>
<polygon fill="none" stroke="#99ccff" points="1004.25,-370.5 1004.25,-390 1111.5,-390 1111.5,-370.5 1004.25,-370.5"/>
<text text-anchor="start" x="1014" y="-376.55" font-family="Courier,monospace" font-size="11.00">reference(18)</text>
<polygon fill="none" stroke="#99ccff" points="303,-351 303,-370.5 1004.25,-370.5 1004.25,-351 303,-351"/>
<text text-anchor="start" x="306" y="-357.05" font-family="Courier,monospace" font-size="11.00"> &#160;&#160;&#160;&#160;&#160;&#160;&#160;&#160;&#160;&#160;&#160;&#160;&#160;&#160;&#160;&#160;&#160;&#160;&#160;&#160;&#160;&#160;&#160;&#160;&#160;&#160;&#160;&#160;&#160;&#160;&#160;&#160;&#160;&#160;&#160;&#160;&#160;&#160;&#160;&#160;AttributeCategoryId &#160;&#160;&#160;&#160;&#160;&#160;&#160;&#160;&#160;&#160;&#160;&#160;&#160;&#160;&#160;&#160;&#160;&#160;&#160;&#160;&#160;&#160;&#160;&#160;&#160;&#160;&#160;&#160;&#160;&#160;&#160;&#160;&#160;&#160;&#160;&#160;&#160;&#160;</text>
<polygon fill="none" stroke="#99ccff" points="1004.25,-351 1004.25,-370.5 1111.5,-370.5 1111.5,-351 1004.25,-351"/>
<text text-anchor="start" x="1014" y="-357.05" font-family="Courier,monospace" font-size="11.00">reference(18)</text>
<polygon fill="none" stroke="#99ccff" points="303,-331.5 303,-351 1004.25,-351 1004.25,-331.5 303,-331.5"/>
<text text-anchor="start" x="306" y="-337.55" font-family="Courier,monospace" font-size="11.00"> &#160;&#160;&#160;&#160;&#160;&#160;&#160;&#160;&#160;&#160;&#160;&#160;&#160;&#160;&#160;&#160;&#160;&#160;&#160;&#160;&#160;&#160;&#160;&#160;&#160;&#160;&#160;&#160;&#160;&#160;&#160;&#160;&#160;&#160;&#160;&#160;&#160;&#160;&#160;&#160;Description &#160;&#160;&#160;&#160;&#160;&#160;&#160;&#160;&#160;&#160;&#160;&#160;&#160;&#160;&#160;&#160;&#160;&#160;&#160;&#160;&#160;&#160;&#160;&#160;&#160;&#160;&#160;&#160;&#160;&#160;&#160;&#160;&#160;&#160;&#160;&#160;&#160;&#160;</text>
<polygon fill="none" stroke="#99ccff" points="1004.25,-331.5 1004.25,-351 1111.5,-351 1111.5,-331.5 1004.25,-331.5"/>
<text text-anchor="start" x="1007.25" y="-337.55" font-family="Courier,monospace" font-size="11.00">textarea(32000)</text>
<polygon fill="none" stroke="#99ccff" points="303,-312 303,-331.5 1004.25,-331.5 1004.25,-312 303,-312"/>
<text text-anchor="start" x="306" y="-318.05" font-family="Courier,monospace" font-size="11.00"> &#160;&#160;&#160;&#160;&#160;&#160;&#160;&#160;&#160;&#160;&#160;&#160;&#160;&#160;&#160;&#160;&#160;&#160;&#160;&#160;&#160;&#160;&#160;&#160;&#160;&#160;&#160;&#160;&#160;&#160;&#160;&#160;&#160;&#160;&#160;&#160;&#160;&#160;&#160;&#160;ValueDescription &#160;&#160;&#160;&#160;&#160;&#160;&#160;&#160;&#160;&#160;&#160;&#160;&#160;&#160;&#160;&#160;&#160;&#160;&#160;&#160;&#160;&#160;&#160;&#160;&#160;&#160;&#160;&#160;&#160;&#160;&#160;&#160;&#160;&#160;&#160;&#160;&#160;&#160;</text>
<polygon fill="none" stroke="#99ccff" points="1004.25,-312 1004.25,-331.5 1111.5,-331.5 1111.5,-312 1004.25,-312"/>
<text text-anchor="start" x="1007.25" y="-318.05" font-family="Courier,monospace" font-size="11.00">textarea(32000)</text>
<polygon fill="none" stroke="#99ccff" points="303,-292.5 303,-312 1004.25,-312 1004.25,-292.5 303,-292.5"/>
<text text-anchor="start" x="306" y="-298.55" font-family="Courier,monospace" font-size="11.00"> &#160;&#160;&#160;&#160;&#160;&#160;&#160;&#160;&#160;&#160;&#160;&#160;&#160;&#160;&#160;&#160;&#160;&#160;&#160;&#160;&#160;&#160;&#160;&#160;&#160;&#160;&#160;&#160;&#160;&#160;&#160;&#160;&#160;&#160;&#160;&#160;&#160;&#160;&#160;&#160;HelpText &#160;&#160;&#160;&#160;&#160;&#160;&#160;&#160;&#160;&#160;&#160;&#160;&#160;&#160;&#160;&#160;&#160;&#160;&#160;&#160;&#160;&#160;&#160;&#160;&#160;&#160;&#160;&#160;&#160;&#160;&#160;&#160;&#160;&#160;&#160;&#160;&#160;&#160;</text>
<polygon fill="none" stroke="#99ccff" points="1004.25,-292.5 1004.25,-312 1111.5,-312 1111.5,-292.5 1004.25,-292.5"/>
<text text-anchor="start" x="1007.25" y="-298.55" font-family="Courier,monospace" font-size="11.00">textarea(32000)</text>
<polygon fill="none" stroke="#99ccff" points="303,-273 303,-292.5 1004.25,-292.5 1004.25,-273 303,-273"/>
<text text-anchor="start" x="306" y="-279.05" font-family="Courier,monospace" font-size="11.00"> &#160;&#160;&#160;&#160;&#160;&#160;&#160;&#160;&#160;&#160;&#160;&#160;&#160;&#160;&#160;&#160;&#160;&#160;&#160;&#160;&#160;&#160;&#160;&#160;&#160;&#160;&#160;&#160;&#160;&#160;&#160;&#160;&#160;&#160;&#160;&#160;&#160;&#160;&#160;&#160;IsHidden &#160;&#160;&#160;&#160;&#160;&#160;&#160;&#160;&#160;&#160;&#160;&#160;&#160;&#160;&#160;&#160;&#160;&#160;&#160;&#160;&#160;&#160;&#160;&#160;&#160;&#160;&#160;&#160;&#160;&#160;&#160;&#160;&#160;&#160;&#160;&#160;&#160;&#160;</text>
<polygon fill="none" stroke="#99ccff" points="1004.25,-273 1004.25,-292.5 1111.5,-292.5 1111.5,-273 1004.25,-273"/>
<text text-anchor="start" x="1034.25" y="-279.05" font-family="Courier,monospace" font-size="11.00">boolean</text>
<polygon fill="none" stroke="#99ccff" points="303,-253.5 303,-273 1004.25,-273 1004.25,-253.5 303,-253.5"/>
<text text-anchor="start" x="306" y="-259.55" font-family="Courier,monospace" font-size="11.00"> &#160;&#160;&#160;&#160;&#160;&#160;&#160;&#160;&#160;&#160;&#160;&#160;&#160;&#160;&#160;&#160;&#160;&#160;&#160;&#160;&#160;&#160;&#160;&#160;&#160;&#160;&#160;&#160;&#160;&#160;&#160;&#160;&#160;&#160;&#160;&#160;&#160;&#160;&#160;&#160;IsReadOnly &#160;&#160;&#160;&#160;&#160;&#160;&#160;&#160;&#160;&#160;&#160;&#160;&#160;&#160;&#160;&#160;&#160;&#160;&#160;&#160;&#160;&#160;&#160;&#160;&#160;&#160;&#160;&#160;&#160;&#160;&#160;&#160;&#160;&#160;&#160;&#160;&#160;&#160;</text>
<polygon fill="none" stroke="#99ccff" points="1004.25,-253.5 1004.25,-273 1111.5,-273 1111.5,-253.5 1004.25,-253.5"/>
<text text-anchor="start" x="1034.25" y="-259.55" font-family="Courier,monospace" font-size="11.00">boolean</text>
<polygon fill="none" stroke="#99ccff" points="303,-234 303,-253.5 1004.25,-253.5 1004.25,-234 303,-234"/>
<text text-anchor="start" x="306" y="-240.05" font-family="Courier,monospace" font-size="11.00"> &#160;&#160;&#160;&#160;&#160;&#160;&#160;&#160;&#160;&#160;&#160;&#160;&#160;&#160;&#160;&#160;&#160;&#160;&#160;&#160;&#160;&#160;&#160;&#160;&#160;&#160;&#160;&#160;&#160;&#160;&#160;&#160;&#160;&#160;&#160;&#160;&#160;&#160;&#160;&#160;IsRequired &#160;&#160;&#160;&#160;&#160;&#160;&#160;&#160;&#160;&#160;&#160;&#160;&#160;&#160;&#160;&#160;&#160;&#160;&#160;&#160;&#160;&#160;&#160;&#160;&#160;&#160;&#160;&#160;&#160;&#160;&#160;&#160;&#160;&#160;&#160;&#160;&#160;&#160;</text>
<polygon fill="none" stroke="#99ccff" points="1004.25,-234 1004.25,-253.5 1111.5,-253.5 1111.5,-234 1004.25,-234"/>
<text text-anchor="start" x="1034.25" y="-240.05" font-family="Courier,monospace" font-size="11.00">boolean</text>
<polygon fill="none" stroke="#99ccff" points="303,-214.5 303,-234 1004.25,-234 1004.25,-214.5 303,-214.5"/>
<text text-anchor="start" x="306" y="-220.55" font-family="Courier,monospace" font-size="11.00"> &#160;&#160;&#160;&#160;&#160;&#160;&#160;&#160;&#160;&#160;&#160;&#160;&#160;&#160;&#160;&#160;&#160;&#160;&#160;&#160;&#160;&#160;&#160;&#160;&#160;&#160;&#160;&#160;&#160;&#160;&#160;&#160;&#160;&#160;&#160;&#160;&#160;&#160;&#160;&#160;Status &#160;&#160;&#160;&#160;&#160;&#160;&#160;&#160;&#160;&#160;&#160;&#160;&#160;&#160;&#160;&#160;&#160;&#160;&#160;&#160;&#160;&#160;&#160;&#160;&#160;&#160;&#160;&#160;&#160;&#160;&#160;&#160;&#160;&#160;&#160;&#160;&#160;&#160;</text>
<polygon fill="none" stroke="#99ccff" points="1004.25,-214.5 1004.25,-234 1111.5,-234 1111.5,-214.5 1004.25,-214.5"/>
<text text-anchor="start" x="1014" y="-220.55" font-family="Courier,monospace" font-size="11.00">picklist(255)</text>
<polygon fill="none" stroke="#99ccff" points="303,-195 303,-214.5 1004.25,-214.5 1004.25,-195 303,-195"/>
<text text-anchor="start" x="306" y="-201.05" font-family="Courier,monospace" font-size="11.00"> &#160;&#160;&#160;&#160;&#160;&#160;&#160;&#160;&#160;&#160;&#160;&#160;&#160;&#160;&#160;&#160;&#160;&#160;&#160;&#160;&#160;&#160;&#160;&#160;&#160;&#160;&#160;&#160;&#160;&#160;&#160;&#160;&#160;&#160;&#160;&#160;&#160;&#160;&#160;&#160;Sequence &#160;&#160;&#160;&#160;&#160;&#160;&#160;&#160;&#160;&#160;&#160;&#160;&#160;&#160;&#160;&#160;&#160;&#160;&#160;&#160;&#160;&#160;&#160;&#160;&#160;&#160;&#160;&#160;&#160;&#160;&#160;&#160;&#160;&#160;&#160;&#160;&#160;&#160;</text>
<polygon fill="none" stroke="#99ccff" points="1004.25,-195 1004.25,-214.5 1111.5,-214.5 1111.5,-195 1004.25,-195"/>
<text text-anchor="start" x="1047.75" y="-201.05" font-family="Courier,monospace" font-size="11.00">int</text>
<polygon fill="none" stroke="#99ccff" points="303,-175.5 303,-195 1004.25,-195 1004.25,-175.5 303,-175.5"/>
<text text-anchor="start" x="306" y="-181.55" font-family="Courier,monospace" font-size="11.00"> &#160;&#160;&#160;&#160;&#160;&#160;&#160;&#160;&#160;&#160;&#160;&#160;&#160;&#160;&#160;&#160;&#160;&#160;&#160;&#160;&#160;&#160;&#160;&#160;&#160;&#160;&#160;&#160;&#160;&#160;&#160;&#160;&#160;&#160;&#160;&#160;&#160;&#160;&#160;&#160;AttributeNameOverride &#160;&#160;&#160;&#160;&#160;&#160;&#160;&#160;&#160;&#160;&#160;&#160;&#160;&#160;&#160;&#160;&#160;&#160;&#160;&#160;&#160;&#160;&#160;&#160;&#160;&#160;&#160;&#160;&#160;&#160;&#160;&#160;&#160;&#160;&#160;&#160;&#160;&#160;</text>
<polygon fill="none" stroke="#99ccff" points="1004.25,-175.5 1004.25,-195 1111.5,-195 1111.5,-175.5 1004.25,-175.5"/>
<text text-anchor="start" x="1020.75" y="-181.55" font-family="Courier,monospace" font-size="11.00">string(255)</text>
<polygon fill="none" stroke="#99ccff" points="303,-156 303,-175.5 1004.25,-175.5 1004.25,-156 303,-156"/>
<text text-anchor="start" x="306" y="-162.05" font-family="Courier,monospace" font-size="11.00"> &#160;&#160;&#160;&#160;&#160;&#160;&#160;&#160;&#160;&#160;&#160;&#160;&#160;&#160;&#160;&#160;&#160;&#160;&#160;&#160;&#160;&#160;&#160;&#160;&#160;&#160;&#160;&#160;&#160;&#160;&#160;&#160;&#160;&#160;&#160;&#160;&#160;&#160;&#160;&#160;DefaultValue &#160;&#160;&#160;&#160;&#160;&#160;&#160;&#160;&#160;&#160;&#160;&#160;&#160;&#160;&#160;&#160;&#160;&#160;&#160;&#160;&#160;&#160;&#160;&#160;&#160;&#160;&#160;&#160;&#160;&#160;&#160;&#160;&#160;&#160;&#160;&#160;&#160;&#160;</text>
<polygon fill="none" stroke="#99ccff" points="1004.25,-156 1004.25,-175.5 1111.5,-175.5 1111.5,-156 1004.25,-156"/>
<text text-anchor="start" x="1020.75" y="-162.05" font-family="Courier,monospace" font-size="11.00">string(255)</text>
<polygon fill="none" stroke="#99ccff" points="303,-136.5 303,-156 1004.25,-156 1004.25,-136.5 303,-136.5"/>
<text text-anchor="start" x="306" y="-142.55" font-family="Courier,monospace" font-size="11.00"> &#160;&#160;&#160;&#160;&#160;&#160;&#160;&#160;&#160;&#160;&#160;&#160;&#160;&#160;&#160;&#160;&#160;&#160;&#160;&#160;&#160;&#160;&#160;&#160;&#160;&#160;&#160;&#160;&#160;&#160;&#160;&#160;&#160;&#160;&#160;&#160;&#160;&#160;&#160;&#160;DisplayType &#160;&#160;&#160;&#160;&#160;&#160;&#160;&#160;&#160;&#160;&#160;&#160;&#160;&#160;&#160;&#160;&#160;&#160;&#160;&#160;&#160;&#160;&#160;&#160;&#160;&#160;&#160;&#160;&#160;&#160;&#160;&#160;&#160;&#160;&#160;&#160;&#160;&#160;</text>
<polygon fill="none" stroke="#99ccff" points="1004.25,-136.5 1004.25,-156 1111.5,-156 1111.5,-136.5 1004.25,-136.5"/>
<text text-anchor="start" x="1014" y="-142.55" font-family="Courier,monospace" font-size="11.00">picklist(255)</text>
<polygon fill="none" stroke="#99ccff" points="303,-117 303,-136.5 1004.25,-136.5 1004.25,-117 303,-117"/>
<text text-anchor="start" x="306" y="-123.05" font-family="Courier,monospace" font-size="11.00"> &#160;&#160;&#160;&#160;&#160;&#160;&#160;&#160;&#160;&#160;&#160;&#160;&#160;&#160;&#160;&#160;&#160;&#160;&#160;&#160;&#160;&#160;&#160;&#160;&#160;&#160;&#160;&#160;&#160;&#160;&#160;&#160;&#160;&#160;&#160;&#160;&#160;&#160;&#160;&#160;IsPriceImpacting &#160;&#160;&#160;&#160;&#160;&#160;&#160;&#160;&#160;&#160;&#160;&#160;&#160;&#160;&#160;&#160;&#160;&#160;&#160;&#160;&#160;&#160;&#160;&#160;&#160;&#160;&#160;&#160;&#160;&#160;&#160;&#160;&#160;&#160;&#160;&#160;&#160;&#160;</text>
<polygon fill="none" stroke="#99ccff" points="1004.25,-117 1004.25,-136.5 1111.5,-136.5 1111.5,-117 1004.25,-117"/>
<text text-anchor="start" x="1034.25" y="-123.05" font-family="Courier,monospace" font-size="11.00">boolean</text>
<polygon fill="none" stroke="#99ccff" points="303,-97.5 303,-117 1004.25,-117 1004.25,-97.5 303,-97.5"/>
<text text-anchor="start" x="306" y="-103.55" font-family="Courier,monospace" font-size="11.00"> &#160;&#160;&#160;&#160;&#160;&#160;&#160;&#160;&#160;&#160;&#160;&#160;&#160;&#160;&#160;&#160;&#160;&#160;&#160;&#160;&#160;&#160;&#160;&#160;&#160;&#160;&#160;&#160;&#160;&#160;&#160;&#160;&#160;&#160;&#160;&#160;&#160;&#160;&#160;&#160;MinimumValue &#160;&#160;&#160;&#160;&#160;&#160;&#160;&#160;&#160;&#160;&#160;&#160;&#160;&#160;&#160;&#160;&#160;&#160;&#160;&#160;&#160;&#160;&#160;&#160;&#160;&#160;&#160;&#160;&#160;&#160;&#160;&#160;&#160;&#160;&#160;&#160;&#160;&#160;</text>
<polygon fill="none" stroke="#99ccff" points="1004.25,-97.5 1004.25,-117 1111.5,-117 1111.5,-97.5 1004.25,-97.5"/>
<text text-anchor="start" x="1020.75" y="-103.55" font-family="Courier,monospace" font-size="11.00">string(255)</text>
<polygon fill="none" stroke="#99ccff" points="303,-78 303,-97.5 1004.25,-97.5 1004.25,-78 303,-78"/>
<text text-anchor="start" x="306" y="-84.05" font-family="Courier,monospace" font-size="11.00"> &#160;&#160;&#160;&#160;&#160;&#160;&#160;&#160;&#160;&#160;&#160;&#160;&#160;&#160;&#160;&#160;&#160;&#160;&#160;&#160;&#160;&#160;&#160;&#160;&#160;&#160;&#160;&#160;&#160;&#160;&#160;&#160;&#160;&#160;&#160;&#160;&#160;&#160;&#160;&#160;MaximumValue &#160;&#160;&#160;&#160;&#160;&#160;&#160;&#160;&#160;&#160;&#160;&#160;&#160;&#160;&#160;&#160;&#160;&#160;&#160;&#160;&#160;&#160;&#160;&#160;&#160;&#160;&#160;&#160;&#160;&#160;&#160;&#160;&#160;&#160;&#160;&#160;&#160;&#160;</text>
<polygon fill="none" stroke="#99ccff" points="1004.25,-78 1004.25,-97.5 1111.5,-97.5 1111.5,-78 1004.25,-78"/>
<text text-anchor="start" x="1020.75" y="-84.05" font-family="Courier,monospace" font-size="11.00">string(255)</text>
<polygon fill="none" stroke="#99ccff" points="303,-58.5 303,-78 1004.25,-78 1004.25,-58.5 303,-58.5"/>
<text text-anchor="start" x="306" y="-64.55" font-family="Courier,monospace" font-size="11.00"> &#160;&#160;&#160;&#160;&#160;&#160;&#160;&#160;&#160;&#160;&#160;&#160;&#160;&#160;&#160;&#160;&#160;&#160;&#160;&#160;&#160;&#160;&#160;&#160;&#160;&#160;&#160;&#160;&#160;&#160;&#160;&#160;&#160;&#160;&#160;&#160;&#160;&#160;&#160;&#160;MinimumCharacterCount &#160;&#160;&#160;&#160;&#160;&#160;&#160;&#160;&#160;&#160;&#160;&#160;&#160;&#160;&#160;&#160;&#160;&#160;&#160;&#160;&#160;&#160;&#160;&#160;&#160;&#160;&#160;&#160;&#160;&#160;&#160;&#160;&#160;&#160;&#160;&#160;&#160;&#160;</text>
<polygon fill="none" stroke="#99ccff" points="1004.25,-58.5 1004.25,-78 1111.5,-78 1111.5,-58.5 1004.25,-58.5"/>
<text text-anchor="start" x="1047.75" y="-64.55" font-family="Courier,monospace" font-size="11.00">int</text>
<polygon fill="none" stroke="#99ccff" points="303,-39 303,-58.5 1004.25,-58.5 1004.25,-39 303,-39"/>
<text text-anchor="start" x="306" y="-45.05" font-family="Courier,monospace" font-size="11.00"> &#160;&#160;&#160;&#160;&#160;&#160;&#160;&#160;&#160;&#160;&#160;&#160;&#160;&#160;&#160;&#160;&#160;&#160;&#160;&#160;&#160;&#160;&#160;&#160;&#160;&#160;&#160;&#160;&#160;&#160;&#160;&#160;&#160;&#160;&#160;&#160;&#160;&#160;&#160;&#160;MaximumCharacterCount &#160;&#160;&#160;&#160;&#160;&#160;&#160;&#160;&#160;&#160;&#160;&#160;&#160;&#160;&#160;&#160;&#160;&#160;&#160;&#160;&#160;&#160;&#160;&#160;&#160;&#160;&#160;&#160;&#160;&#160;&#160;&#160;&#160;&#160;&#160;&#160;&#160;&#160;</text>
<polygon fill="none" stroke="#99ccff" points="1004.25,-39 1004.25,-58.5 1111.5,-58.5 1111.5,-39 1004.25,-39"/>
<text text-anchor="start" x="1047.75" y="-45.05" font-family="Courier,monospace" font-size="11.00">int</text>
<polygon fill="none" stroke="#99ccff" points="303,-19.5 303,-39 1004.25,-39 1004.25,-19.5 303,-19.5"/>
<text text-anchor="start" x="306" y="-25.55" font-family="Courier,monospace" font-size="11.00"> &#160;&#160;&#160;&#160;&#160;&#160;&#160;&#160;&#160;&#160;&#160;&#160;&#160;&#160;&#160;&#160;&#160;&#160;&#160;&#160;&#160;&#160;&#160;&#160;&#160;&#160;&#160;&#160;&#160;&#160;&#160;&#160;&#160;&#160;&#160;&#160;&#160;&#160;&#160;&#160;StepValue &#160;&#160;&#160;&#160;&#160;&#160;&#160;&#160;&#160;&#160;&#160;&#160;&#160;&#160;&#160;&#160;&#160;&#160;&#160;&#160;&#160;&#160;&#160;&#160;&#160;&#160;&#160;&#160;&#160;&#160;&#160;&#160;&#160;&#160;&#160;&#160;&#160;&#160;</text>
<polygon fill="none" stroke="#99ccff" points="1004.25,-19.5 1004.25,-39 1111.5,-39 1111.5,-19.5 1004.25,-19.5"/>
<text text-anchor="start" x="1020.75" y="-25.55" font-family="Courier,monospace" font-size="11.00">string(255)</text>
<polygon fill="none" stroke="#99ccff" points="302,-18.5 302,-566.5 1112.5,-566.5 1112.5,-18.5 302,-18.5"/>
</a>
</g>
</g>
<!-- Group -->
<g id="node2" class="node">
<title>Group</title>
<text text-anchor="middle" x="78.88" y="-517.8" font-family="Courier,monospace" font-size="11.00">Group</text>
</g>
<!-- ProductClassificationAttr&#45;&gt;Group -->
<g id="edge1" class="edge">
<title>ProductClassificationAttr:w&#45;&gt;Group:e</title>
<path fill="none" stroke="#ff99cc" d="M286.43,-516.79C219.15,-517.1 144.33,-519.3 105.86,-520.58"/>
<polygon fill="#ff99cc" stroke="#ff99cc" points="293.67,-516.77 301.67,-520.35 298,-516.76 301.33,-516.75 301.33,-516.75 301.33,-516.75 298,-516.76 301.66,-513.15 293.67,-516.77"/>
<ellipse fill="none" stroke="#ff99cc" cx="288.75" cy="-516.78" rx="3.2" ry="3.2"/>
<text text-anchor="middle" x="229.88" y="-521.26" font-family="Monaco" font-size="9.00">Owner</text>
</g>
<!-- User -->
<g id="node3" class="node">
<title>User</title>
<text text-anchor="middle" x="78.88" y="-468.8" font-family="Courier,monospace" font-size="11.00">User</text>
</g>
<!-- ProductClassificationAttr&#45;&gt;User -->
<g id="edge2" class="edge">
<title>ProductClassificationAttr:w&#45;&gt;User:e</title>
<path fill="none" stroke="#ff99cc" d="M292.01,-504.55C290.88,-500.62 289.26,-496.66 285,-494.25 269.69,-485.59 157.03,-477.41 105.48,-474.08"/>
<polygon fill="#ff99cc" stroke="#ff99cc" points="296.72,-510.3 299,-518.77 299.47,-513.66 301.58,-516.23 301.58,-516.23 301.58,-516.23 299.47,-513.66 304.57,-514.21 296.72,-510.3"/>
<ellipse fill="none" stroke="#ff99cc" cx="293.6" cy="-506.5" rx="3.2" ry="3.2"/>
<text text-anchor="middle" x="229.88" y="-496.95" font-family="Monaco" font-size="9.00">Owner</text>
</g>
<!-- ProductClassificationAttr&#45;&gt;User -->
<g id="edge3" class="edge">
<title>ProductClassificationAttr:w&#45;&gt;User:e</title>
<path fill="none" stroke="#ff99cc" d="M286.41,-458.36C219.03,-459.3 144.26,-465.91 105.83,-469.75"/>
<polygon fill="#ff99cc" stroke="#ff99cc" points="293.67,-458.31 301.69,-461.85 298,-458.28 301.33,-458.25 301.33,-458.25 301.33,-458.25 298,-458.28 301.64,-454.65 293.67,-458.31"/>
<ellipse fill="none" stroke="#ff99cc" cx="288.75" cy="-458.34" rx="3.2" ry="3.2"/>
<text text-anchor="middle" x="229.88" y="-466.38" font-family="Monaco" font-size="9.00">LastModifiedBy</text>
</g>
<!-- ProductClassification -->
<g id="node4" class="node">
<title>ProductClassification</title>
<text text-anchor="middle" x="78.88" y="-419.8" font-family="Courier,monospace" font-size="11.00">ProductClassification</text>
</g>
<!-- ProductClassificationAttr&#45;&gt;ProductClassification -->
<g id="edge4" class="edge">
<title>ProductClassificationAttr:w&#45;&gt;ProductClassification:e</title>
<path fill="none" stroke="#ff99cc" d="M286.3,-399.94C242.4,-400.95 195.5,-405.96 157.53,-411.1"/>
<polygon fill="#ff99cc" stroke="#ff99cc" points="293.67,-399.85 301.71,-403.35 298,-399.8 301.33,-399.76 301.33,-399.76 301.33,-399.76 298,-399.8 301.62,-396.15 293.67,-399.85"/>
<ellipse fill="none" stroke="#ff99cc" cx="288.75" cy="-399.91" rx="3.2" ry="3.2"/>
<text text-anchor="middle" x="229.88" y="-411.5" font-family="Monaco" font-size="9.00">ProductClassification</text>
</g>
<!-- AttributeDefinition -->
<g id="node5" class="node">
<title>AttributeDefinition</title>
<text text-anchor="middle" x="78.88" y="-370.8" font-family="Courier,monospace" font-size="11.00">AttributeDefinition</text>
</g>
<!-- ProductClassificationAttr&#45;&gt;AttributeDefinition -->
<g id="edge5" class="edge">
<title>ProductClassificationAttr:w&#45;&gt;AttributeDefinition:e</title>
<path fill="none" stroke="#ff99cc" d="M286.42,-380.21C240.03,-379.94 190.06,-378.59 150.89,-377.27"/>
<polygon fill="#ff99cc" stroke="#ff99cc" points="293.67,-380.23 301.66,-383.85 298,-380.24 301.33,-380.25 301.33,-380.25 301.33,-380.25 298,-380.24 301.68,-376.65 293.67,-380.23"/>
<ellipse fill="none" stroke="#ff99cc" cx="288.75" cy="-380.21" rx="3.2" ry="3.2"/>
<text text-anchor="middle" x="229.88" y="-382.89" font-family="Monaco" font-size="9.00">AttributeDefinition</text>
</g>
<!-- AttributeCategory -->
<g id="node6" class="node">
<title>AttributeCategory</title>
<text text-anchor="middle" x="78.88" y="-321.8" font-family="Courier,monospace" font-size="11.00">AttributeCategory</text>
</g>
<!-- ProductClassificationAttr&#45;&gt;AttributeCategory -->
<g id="edge6" class="edge">
<title>ProductClassificationAttr:w&#45;&gt;AttributeCategory:e</title>
<path fill="none" stroke="#ff99cc" d="M289.83,-350.63C288.61,-349.3 287.09,-348.11 285,-347.25 240.26,-328.94 185.66,-323.89 144.04,-323.21"/>
<polygon fill="#ff99cc" stroke="#ff99cc" points="295.59,-355.42 299.44,-363.3 298.92,-358.19 301.49,-360.32 301.49,-360.32 301.49,-360.32 298.92,-358.19 304.04,-357.77 295.59,-355.42"/>
<ellipse fill="none" stroke="#ff99cc" cx="291.81" cy="-352.28" rx="3.2" ry="3.2"/>
<text text-anchor="middle" x="229.88" y="-349.95" font-family="Monaco" font-size="9.00">AttributeCategory</text>
</g>
</g>
</svg>
