<?xml version="1.0" encoding="UTF-8" standalone="no"?>
<!DOCTYPE svg PUBLIC "-//W3C//DTD SVG 1.1//EN"
 "http://www.w3.org/Graphics/SVG/1.1/DTD/svg11.dtd">
<!-- Generated by graphviz version 12.2.1 (20241206.2353)
 -->
<!-- Title: Salesforce+ ERD Pages: 1 -->
<svg width="1070pt" height="271pt"
 viewBox="0.00 0.00 1069.50 270.75" xmlns="http://www.w3.org/2000/svg" xmlns:xlink="http://www.w3.org/1999/xlink">
<g id="graph0" class="graph" transform="scale(1 1) rotate(0) translate(4 266.75)">
<title>Salesforce+ ERD</title>
<polygon fill="#efeffd" stroke="none" points="-4,4 -4,-266.75 1065.5,-266.75 1065.5,4 -4,4"/>
<text text-anchor="middle" x="1014.12" y="-5.95" font-family="Courier,monospace" font-size="9.00">Salesforce ERD </text>
<!-- ProductSellingModelOption -->
<g id="node1" class="node">
<title>ProductSellingModelOption</title>
<g id="a_node1"><a xlink:href="#" xlink:title=" ProductSellingModelOption ">
<polygon fill="#ffeeff" stroke="none" points="278,-46.25 278,-262.75 1061.5,-262.75 1061.5,-46.25 278,-46.25"/>
<polygon fill="lightblue" stroke="none" points="279,-242.25 279,-261.75 1060.5,-261.75 1060.5,-242.25 279,-242.25"/>
<polygon fill="none" stroke="#99ccff" points="279,-242.25 279,-261.75 1060.5,-261.75 1060.5,-242.25 279,-242.25"/>
<text text-anchor="start" x="585.38" y="-249.3" font-family="Courier,monospace" font-weight="bold" font-size="11.00">ProductSellingModelOption</text>
<polygon fill="#99ccff" stroke="none" points="279,-222.75 279,-242.25 966.75,-242.25 966.75,-222.75 279,-222.75"/>
<polygon fill="none" stroke="#99ccff" points="279,-222.75 279,-242.25 966.75,-242.25 966.75,-222.75 279,-222.75"/>
<text text-anchor="start" x="282" y="-229.8" font-family="Courier,monospace" font-size="11.00"> &#160;&#160;&#160;&#160;&#160;&#160;&#160;&#160;&#160;&#160;&#160;&#160;&#160;&#160;&#160;&#160;&#160;&#160;&#160;&#160;&#160;&#160;&#160;&#160;&#160;&#160;&#160;&#160;&#160;&#160;&#160;&#160;&#160;&#160;&#160;&#160;&#160;&#160;&#160;&#160;&#160;&#160;</text>
<text text-anchor="start" x="572.25" y="-229.8" font-family="Courier,monospace" font-weight="bold" font-size="11.00">Id</text>
<text text-anchor="start" x="585.75" y="-229.8" font-family="Courier,monospace" font-size="11.00"> &#160;&#160;&#160;&#160;&#160;&#160;&#160;&#160;&#160;&#160;&#160;&#160;&#160;&#160;&#160;&#160;&#160;&#160;&#160;&#160;&#160;&#160;&#160;&#160;&#160;&#160;&#160;&#160;&#160;&#160;&#160;&#160;&#160;&#160;&#160;&#160;&#160;&#160;&#160;</text>
<polygon fill="none" stroke="#99ccff" points="966.75,-222.75 966.75,-242.25 1060.5,-242.25 1060.5,-222.75 966.75,-222.75"/>
<text text-anchor="start" x="993.38" y="-228.8" font-family="Courier,monospace" font-size="11.00">id(18)</text>
<polygon fill="none" stroke="#99ccff" points="279,-203.25 279,-222.75 966.75,-222.75 966.75,-203.25 279,-203.25"/>
<text text-anchor="start" x="282" y="-209.3" font-family="Courier,monospace" font-size="11.00"> &#160;&#160;&#160;&#160;&#160;&#160;&#160;&#160;&#160;&#160;&#160;&#160;&#160;&#160;&#160;&#160;&#160;&#160;&#160;&#160;&#160;&#160;&#160;&#160;&#160;&#160;&#160;&#160;&#160;&#160;&#160;&#160;&#160;&#160;&#160;&#160;&#160;&#160;&#160;&#160;IsDeleted &#160;&#160;&#160;&#160;&#160;&#160;&#160;&#160;&#160;&#160;&#160;&#160;&#160;&#160;&#160;&#160;&#160;&#160;&#160;&#160;&#160;&#160;&#160;&#160;&#160;&#160;&#160;&#160;&#160;&#160;&#160;&#160;&#160;&#160;&#160;&#160;&#160;&#160;</text>
<polygon fill="none" stroke="#99ccff" points="966.75,-203.25 966.75,-222.75 1060.5,-222.75 1060.5,-203.25 966.75,-203.25"/>
<text text-anchor="start" x="990" y="-209.3" font-family="Courier,monospace" font-size="11.00">boolean</text>
<polygon fill="none" stroke="#99ccff" points="279,-183.75 279,-203.25 966.75,-203.25 966.75,-183.75 279,-183.75"/>
<text text-anchor="start" x="282" y="-189.8" font-family="Courier,monospace" font-size="11.00"> &#160;&#160;&#160;&#160;&#160;&#160;&#160;&#160;&#160;&#160;&#160;&#160;&#160;&#160;&#160;&#160;&#160;&#160;&#160;&#160;&#160;&#160;&#160;&#160;&#160;&#160;&#160;&#160;&#160;&#160;&#160;&#160;&#160;&#160;&#160;&#160;&#160;&#160;&#160;&#160;Name &#160;&#160;&#160;&#160;&#160;&#160;&#160;&#160;&#160;&#160;&#160;&#160;&#160;&#160;&#160;&#160;&#160;&#160;&#160;&#160;&#160;&#160;&#160;&#160;&#160;&#160;&#160;&#160;&#160;&#160;&#160;&#160;&#160;&#160;&#160;&#160;&#160;&#160;</text>
<polygon fill="none" stroke="#99ccff" points="966.75,-183.75 966.75,-203.25 1060.5,-203.25 1060.5,-183.75 966.75,-183.75"/>
<text text-anchor="start" x="976.5" y="-189.8" font-family="Courier,monospace" font-size="11.00">string(255)</text>
<polygon fill="none" stroke="#99ccff" points="279,-164.25 279,-183.75 966.75,-183.75 966.75,-164.25 279,-164.25"/>
<text text-anchor="start" x="282" y="-170.3" font-family="Courier,monospace" font-size="11.00"> &#160;&#160;&#160;&#160;&#160;&#160;&#160;&#160;&#160;&#160;&#160;&#160;&#160;&#160;&#160;&#160;&#160;&#160;&#160;&#160;&#160;&#160;&#160;&#160;&#160;&#160;&#160;&#160;&#160;&#160;&#160;&#160;&#160;&#160;&#160;&#160;&#160;&#160;&#160;&#160;LastModifiedById &#160;&#160;&#160;&#160;&#160;&#160;&#160;&#160;&#160;&#160;&#160;&#160;&#160;&#160;&#160;&#160;&#160;&#160;&#160;&#160;&#160;&#160;&#160;&#160;&#160;&#160;&#160;&#160;&#160;&#160;&#160;&#160;&#160;&#160;&#160;&#160;&#160;&#160;</text>
<polygon fill="none" stroke="#99ccff" points="966.75,-164.25 966.75,-183.75 1060.5,-183.75 1060.5,-164.25 966.75,-164.25"/>
<text text-anchor="start" x="969.75" y="-170.3" font-family="Courier,monospace" font-size="11.00">reference(18)</text>
<polygon fill="none" stroke="#99ccff" points="279,-144.75 279,-164.25 966.75,-164.25 966.75,-144.75 279,-144.75"/>
<text text-anchor="start" x="282" y="-150.8" font-family="Courier,monospace" font-size="11.00"> &#160;&#160;&#160;&#160;&#160;&#160;&#160;&#160;&#160;&#160;&#160;&#160;&#160;&#160;&#160;&#160;&#160;&#160;&#160;&#160;&#160;&#160;&#160;&#160;&#160;&#160;&#160;&#160;&#160;&#160;&#160;&#160;&#160;&#160;&#160;&#160;&#160;&#160;&#160;&#160;LastViewedDate &#160;&#160;&#160;&#160;&#160;&#160;&#160;&#160;&#160;&#160;&#160;&#160;&#160;&#160;&#160;&#160;&#160;&#160;&#160;&#160;&#160;&#160;&#160;&#160;&#160;&#160;&#160;&#160;&#160;&#160;&#160;&#160;&#160;&#160;&#160;&#160;&#160;&#160;</text>
<polygon fill="none" stroke="#99ccff" points="966.75,-144.75 966.75,-164.25 1060.5,-164.25 1060.5,-144.75 966.75,-144.75"/>
<text text-anchor="start" x="986.62" y="-150.8" font-family="Courier,monospace" font-size="11.00">datetime</text>
<polygon fill="none" stroke="#99ccff" points="279,-125.25 279,-144.75 966.75,-144.75 966.75,-125.25 279,-125.25"/>
<text text-anchor="start" x="282" y="-131.3" font-family="Courier,monospace" font-size="11.00"> &#160;&#160;&#160;&#160;&#160;&#160;&#160;&#160;&#160;&#160;&#160;&#160;&#160;&#160;&#160;&#160;&#160;&#160;&#160;&#160;&#160;&#160;&#160;&#160;&#160;&#160;&#160;&#160;&#160;&#160;&#160;&#160;&#160;&#160;&#160;&#160;&#160;&#160;&#160;&#160;LastReferencedDate &#160;&#160;&#160;&#160;&#160;&#160;&#160;&#160;&#160;&#160;&#160;&#160;&#160;&#160;&#160;&#160;&#160;&#160;&#160;&#160;&#160;&#160;&#160;&#160;&#160;&#160;&#160;&#160;&#160;&#160;&#160;&#160;&#160;&#160;&#160;&#160;&#160;&#160;</text>
<polygon fill="none" stroke="#99ccff" points="966.75,-125.25 966.75,-144.75 1060.5,-144.75 1060.5,-125.25 966.75,-125.25"/>
<text text-anchor="start" x="986.62" y="-131.3" font-family="Courier,monospace" font-size="11.00">datetime</text>
<polygon fill="none" stroke="#99ccff" points="279,-105.75 279,-125.25 966.75,-125.25 966.75,-105.75 279,-105.75"/>
<text text-anchor="start" x="282" y="-111.8" font-family="Courier,monospace" font-size="11.00"> &#160;&#160;&#160;&#160;&#160;&#160;&#160;&#160;&#160;&#160;&#160;&#160;&#160;&#160;&#160;&#160;&#160;&#160;&#160;&#160;&#160;&#160;&#160;&#160;&#160;&#160;&#160;&#160;&#160;&#160;&#160;&#160;&#160;&#160;&#160;&#160;&#160;&#160;&#160;&#160;ProductSellingModelId &#160;&#160;&#160;&#160;&#160;&#160;&#160;&#160;&#160;&#160;&#160;&#160;&#160;&#160;&#160;&#160;&#160;&#160;&#160;&#160;&#160;&#160;&#160;&#160;&#160;&#160;&#160;&#160;&#160;&#160;&#160;&#160;&#160;&#160;&#160;&#160;&#160;&#160;</text>
<polygon fill="none" stroke="#99ccff" points="966.75,-105.75 966.75,-125.25 1060.5,-125.25 1060.5,-105.75 966.75,-105.75"/>
<text text-anchor="start" x="969.75" y="-111.8" font-family="Courier,monospace" font-size="11.00">reference(18)</text>
<polygon fill="none" stroke="#99ccff" points="279,-86.25 279,-105.75 966.75,-105.75 966.75,-86.25 279,-86.25"/>
<text text-anchor="start" x="282" y="-92.3" font-family="Courier,monospace" font-size="11.00"> &#160;&#160;&#160;&#160;&#160;&#160;&#160;&#160;&#160;&#160;&#160;&#160;&#160;&#160;&#160;&#160;&#160;&#160;&#160;&#160;&#160;&#160;&#160;&#160;&#160;&#160;&#160;&#160;&#160;&#160;&#160;&#160;&#160;&#160;&#160;&#160;&#160;&#160;&#160;&#160;Product2Id &#160;&#160;&#160;&#160;&#160;&#160;&#160;&#160;&#160;&#160;&#160;&#160;&#160;&#160;&#160;&#160;&#160;&#160;&#160;&#160;&#160;&#160;&#160;&#160;&#160;&#160;&#160;&#160;&#160;&#160;&#160;&#160;&#160;&#160;&#160;&#160;&#160;&#160;</text>
<polygon fill="none" stroke="#99ccff" points="966.75,-86.25 966.75,-105.75 1060.5,-105.75 1060.5,-86.25 966.75,-86.25"/>
<text text-anchor="start" x="969.75" y="-92.3" font-family="Courier,monospace" font-size="11.00">reference(18)</text>
<polygon fill="none" stroke="#99ccff" points="279,-66.75 279,-86.25 966.75,-86.25 966.75,-66.75 279,-66.75"/>
<text text-anchor="start" x="282" y="-72.8" font-family="Courier,monospace" font-size="11.00"> &#160;&#160;&#160;&#160;&#160;&#160;&#160;&#160;&#160;&#160;&#160;&#160;&#160;&#160;&#160;&#160;&#160;&#160;&#160;&#160;&#160;&#160;&#160;&#160;&#160;&#160;&#160;&#160;&#160;&#160;&#160;&#160;&#160;&#160;&#160;&#160;&#160;&#160;&#160;&#160;ProrationPolicyId &#160;&#160;&#160;&#160;&#160;&#160;&#160;&#160;&#160;&#160;&#160;&#160;&#160;&#160;&#160;&#160;&#160;&#160;&#160;&#160;&#160;&#160;&#160;&#160;&#160;&#160;&#160;&#160;&#160;&#160;&#160;&#160;&#160;&#160;&#160;&#160;&#160;&#160;</text>
<polygon fill="none" stroke="#99ccff" points="966.75,-66.75 966.75,-86.25 1060.5,-86.25 1060.5,-66.75 966.75,-66.75"/>
<text text-anchor="start" x="969.75" y="-72.8" font-family="Courier,monospace" font-size="11.00">reference(18)</text>
<polygon fill="none" stroke="#99ccff" points="279,-47.25 279,-66.75 966.75,-66.75 966.75,-47.25 279,-47.25"/>
<text text-anchor="start" x="282" y="-53.3" font-family="Courier,monospace" font-size="11.00"> &#160;&#160;&#160;&#160;&#160;&#160;&#160;&#160;&#160;&#160;&#160;&#160;&#160;&#160;&#160;&#160;&#160;&#160;&#160;&#160;&#160;&#160;&#160;&#160;&#160;&#160;&#160;&#160;&#160;&#160;&#160;&#160;&#160;&#160;&#160;&#160;&#160;&#160;&#160;&#160;IsDefault &#160;&#160;&#160;&#160;&#160;&#160;&#160;&#160;&#160;&#160;&#160;&#160;&#160;&#160;&#160;&#160;&#160;&#160;&#160;&#160;&#160;&#160;&#160;&#160;&#160;&#160;&#160;&#160;&#160;&#160;&#160;&#160;&#160;&#160;&#160;&#160;&#160;&#160;</text>
<polygon fill="none" stroke="#99ccff" points="966.75,-47.25 966.75,-66.75 1060.5,-66.75 1060.5,-47.25 966.75,-47.25"/>
<text text-anchor="start" x="990" y="-53.3" font-family="Courier,monospace" font-size="11.00">boolean</text>
<polygon fill="none" stroke="#99ccff" points="278,-46.25 278,-262.75 1061.5,-262.75 1061.5,-46.25 278,-46.25"/>
</a>
</g>
</g>
<!-- User -->
<g id="node2" class="node">
<title>User</title>
<text text-anchor="middle" x="72.12" y="-179.8" font-family="Courier,monospace" font-size="11.00">User</text>
</g>
<!-- ProductSellingModelOption&#45;&gt;User -->
<g id="edge1" class="edge">
<title>ProductSellingModelOption:w&#45;&gt;User:e</title>
<path fill="none" stroke="#ff99cc" d="M262.33,-174.09C201.66,-174.75 134.71,-178.97 98.98,-181.53"/>
<polygon fill="#ff99cc" stroke="#ff99cc" points="269.67,-174.05 277.69,-177.6 274,-174.02 277.33,-174 277.33,-174 277.33,-174 274,-174.02 277.65,-170.4 269.67,-174.05"/>
<ellipse fill="none" stroke="#ff99cc" cx="264.75" cy="-174.07" rx="3.2" ry="3.2"/>
<text text-anchor="middle" x="211.12" y="-180.32" font-family="Monaco" font-size="9.00">LastModifiedBy</text>
</g>
<!-- ProductSellingModel -->
<g id="node3" class="node">
<title>ProductSellingModel</title>
<text text-anchor="middle" x="72.12" y="-130.8" font-family="Courier,monospace" font-size="11.00">ProductSellingModel</text>
</g>
<!-- ProductSellingModelOption&#45;&gt;ProductSellingModel -->
<g id="edge2" class="edge">
<title>ProductSellingModelOption:w&#45;&gt;ProductSellingModel:e</title>
<path fill="none" stroke="#ff99cc" d="M262.38,-115.67C221.99,-116.55 178.92,-120.56 144.09,-124.67"/>
<polygon fill="#ff99cc" stroke="#ff99cc" points="269.67,-115.59 277.71,-119.1 274,-115.54 277.33,-115.51 277.33,-115.51 277.33,-115.51 274,-115.54 277.63,-111.9 269.67,-115.59"/>
<ellipse fill="none" stroke="#ff99cc" cx="264.75" cy="-115.65" rx="3.2" ry="3.2"/>
<text text-anchor="middle" x="211.12" y="-124.89" font-family="Monaco" font-size="9.00">ProductSellingModel</text>
</g>
<!-- Product2 -->
<g id="node4" class="node">
<title>Product2</title>
<text text-anchor="middle" x="72.12" y="-81.8" font-family="Courier,monospace" font-size="11.00">Product2</text>
</g>
<!-- ProductSellingModelOption&#45;&gt;Product2 -->
<g id="edge3" class="edge">
<title>ProductSellingModelOption:w&#45;&gt;Product2:e</title>
<path fill="none" stroke="#ff99cc" d="M262.24,-95.9C205.78,-95.22 143.9,-91.13 106.81,-88.29"/>
<polygon fill="#ff99cc" stroke="#ff99cc" points="269.67,-95.95 277.64,-99.6 274,-95.98 277.33,-96 277.33,-96 277.33,-96 274,-95.98 277.69,-92.4 269.67,-95.95"/>
<ellipse fill="none" stroke="#ff99cc" cx="264.75" cy="-95.92" rx="3.2" ry="3.2"/>
<text text-anchor="middle" x="211.12" y="-98.51" font-family="Monaco" font-size="9.00">Product2</text>
</g>
<!-- ProrationPolicy -->
<g id="node5" class="node">
<title>ProrationPolicy</title>
<text text-anchor="middle" x="72.12" y="-32.8" font-family="Courier,monospace" font-size="11.00">ProrationPolicy</text>
</g>
<!-- ProductSellingModelOption&#45;&gt;ProrationPolicy -->
<g id="edge4" class="edge">
<title>ProductSellingModelOption:w&#45;&gt;ProrationPolicy:e</title>
<path fill="none" stroke="#ff99cc" d="M262.44,-76.15C216.17,-74.1 167.01,-63.52 130.39,-53.81"/>
<polygon fill="#ff99cc" stroke="#ff99cc" points="269.67,-76.31 277.58,-80.09 274,-76.41 277.33,-76.48 277.33,-76.48 277.33,-76.48 274,-76.41 277.75,-72.89 269.67,-76.31"/>
<ellipse fill="none" stroke="#ff99cc" cx="264.75" cy="-76.2" rx="3.2" ry="3.2"/>
<text text-anchor="middle" x="211.12" y="-78.47" font-family="Monaco" font-size="9.00">ProrationPolicy</text>
</g>
</g>
</svg>
