<?xml version="1.0" encoding="UTF-8" standalone="no"?>
<!DOCTYPE svg PUBLIC "-//W3C//DTD SVG 1.1//EN"
 "http://www.w3.org/Graphics/SVG/1.1/DTD/svg11.dtd">
<!-- Generated by graphviz version 12.2.1 (20241206.2353)
 -->
<!-- Title: Salesforce+ ERD Pages: 1 -->
<svg width="995pt" height="235pt"
 viewBox="0.00 0.00 994.50 235.25" xmlns="http://www.w3.org/2000/svg" xmlns:xlink="http://www.w3.org/1999/xlink">
<g id="graph0" class="graph" transform="scale(1 1) rotate(0) translate(4 231.25)">
<title>Salesforce+ ERD</title>
<polygon fill="#efeffd" stroke="none" points="-4,4 -4,-231.25 990.5,-231.25 990.5,4 -4,4"/>
<text text-anchor="middle" x="939.12" y="-5.95" font-family="Courier,monospace" font-size="9.00">Salesforce ERD </text>
<!-- ProductCategoryProduct -->
<g id="node1" class="node">
<title>ProductCategoryProduct</title>
<g id="a_node1"><a xlink:href="#" xlink:title=" ProductCategoryProduct ">
<polygon fill="#ffeeff" stroke="none" points="230,-49.75 230,-227.25 986.5,-227.25 986.5,-49.75 230,-49.75"/>
<polygon fill="lightblue" stroke="none" points="231,-206.75 231,-226.25 985.5,-226.25 985.5,-206.75 231,-206.75"/>
<polygon fill="none" stroke="#99ccff" points="231,-206.75 231,-226.25 985.5,-226.25 985.5,-206.75 231,-206.75"/>
<text text-anchor="start" x="534" y="-213.8" font-family="Courier,monospace" font-weight="bold" font-size="11.00">ProductCategoryProduct</text>
<polygon fill="#99ccff" stroke="none" points="231,-187.25 231,-206.75 891.75,-206.75 891.75,-187.25 231,-187.25"/>
<polygon fill="none" stroke="#99ccff" points="231,-187.25 231,-206.75 891.75,-206.75 891.75,-187.25 231,-187.25"/>
<text text-anchor="start" x="234" y="-194.3" font-family="Courier,monospace" font-size="11.00"> &#160;&#160;&#160;&#160;&#160;&#160;&#160;&#160;&#160;&#160;&#160;&#160;&#160;&#160;&#160;&#160;&#160;&#160;&#160;&#160;&#160;&#160;&#160;&#160;&#160;&#160;&#160;&#160;&#160;&#160;&#160;&#160;&#160;&#160;&#160;&#160;&#160;&#160;&#160;&#160;&#160;&#160;</text>
<text text-anchor="start" x="524.25" y="-194.3" font-family="Courier,monospace" font-weight="bold" font-size="11.00">Id</text>
<text text-anchor="start" x="537.75" y="-194.3" font-family="Courier,monospace" font-size="11.00"> &#160;&#160;&#160;&#160;&#160;&#160;&#160;&#160;&#160;&#160;&#160;&#160;&#160;&#160;&#160;&#160;&#160;&#160;&#160;&#160;&#160;&#160;&#160;&#160;&#160;&#160;&#160;&#160;&#160;&#160;&#160;&#160;&#160;&#160;&#160;&#160;&#160;&#160;&#160;</text>
<polygon fill="none" stroke="#99ccff" points="891.75,-187.25 891.75,-206.75 985.5,-206.75 985.5,-187.25 891.75,-187.25"/>
<text text-anchor="start" x="918.38" y="-193.3" font-family="Courier,monospace" font-size="11.00">id(18)</text>
<polygon fill="none" stroke="#99ccff" points="231,-167.75 231,-187.25 891.75,-187.25 891.75,-167.75 231,-167.75"/>
<text text-anchor="start" x="234" y="-173.8" font-family="Courier,monospace" font-size="11.00"> &#160;&#160;&#160;&#160;&#160;&#160;&#160;&#160;&#160;&#160;&#160;&#160;&#160;&#160;&#160;&#160;&#160;&#160;&#160;&#160;&#160;&#160;&#160;&#160;&#160;&#160;&#160;&#160;&#160;&#160;&#160;&#160;&#160;&#160;&#160;&#160;&#160;&#160;&#160;&#160;IsDeleted &#160;&#160;&#160;&#160;&#160;&#160;&#160;&#160;&#160;&#160;&#160;&#160;&#160;&#160;&#160;&#160;&#160;&#160;&#160;&#160;&#160;&#160;&#160;&#160;&#160;&#160;&#160;&#160;&#160;&#160;&#160;&#160;&#160;&#160;&#160;&#160;&#160;&#160;</text>
<polygon fill="none" stroke="#99ccff" points="891.75,-167.75 891.75,-187.25 985.5,-187.25 985.5,-167.75 891.75,-167.75"/>
<text text-anchor="start" x="915" y="-173.8" font-family="Courier,monospace" font-size="11.00">boolean</text>
<polygon fill="none" stroke="#99ccff" points="231,-148.25 231,-167.75 891.75,-167.75 891.75,-148.25 231,-148.25"/>
<text text-anchor="start" x="234" y="-154.3" font-family="Courier,monospace" font-size="11.00"> &#160;&#160;&#160;&#160;&#160;&#160;&#160;&#160;&#160;&#160;&#160;&#160;&#160;&#160;&#160;&#160;&#160;&#160;&#160;&#160;&#160;&#160;&#160;&#160;&#160;&#160;&#160;&#160;&#160;&#160;&#160;&#160;&#160;&#160;&#160;&#160;&#160;&#160;&#160;&#160;Name &#160;&#160;&#160;&#160;&#160;&#160;&#160;&#160;&#160;&#160;&#160;&#160;&#160;&#160;&#160;&#160;&#160;&#160;&#160;&#160;&#160;&#160;&#160;&#160;&#160;&#160;&#160;&#160;&#160;&#160;&#160;&#160;&#160;&#160;&#160;&#160;&#160;&#160;</text>
<polygon fill="none" stroke="#99ccff" points="891.75,-148.25 891.75,-167.75 985.5,-167.75 985.5,-148.25 891.75,-148.25"/>
<text text-anchor="start" x="901.5" y="-154.3" font-family="Courier,monospace" font-size="11.00">string(255)</text>
<polygon fill="none" stroke="#99ccff" points="231,-128.75 231,-148.25 891.75,-148.25 891.75,-128.75 231,-128.75"/>
<text text-anchor="start" x="234" y="-134.8" font-family="Courier,monospace" font-size="11.00"> &#160;&#160;&#160;&#160;&#160;&#160;&#160;&#160;&#160;&#160;&#160;&#160;&#160;&#160;&#160;&#160;&#160;&#160;&#160;&#160;&#160;&#160;&#160;&#160;&#160;&#160;&#160;&#160;&#160;&#160;&#160;&#160;&#160;&#160;&#160;&#160;&#160;&#160;&#160;&#160;LastModifiedById &#160;&#160;&#160;&#160;&#160;&#160;&#160;&#160;&#160;&#160;&#160;&#160;&#160;&#160;&#160;&#160;&#160;&#160;&#160;&#160;&#160;&#160;&#160;&#160;&#160;&#160;&#160;&#160;&#160;&#160;&#160;&#160;&#160;&#160;&#160;&#160;&#160;&#160;</text>
<polygon fill="none" stroke="#99ccff" points="891.75,-128.75 891.75,-148.25 985.5,-148.25 985.5,-128.75 891.75,-128.75"/>
<text text-anchor="start" x="894.75" y="-134.8" font-family="Courier,monospace" font-size="11.00">reference(18)</text>
<polygon fill="none" stroke="#99ccff" points="231,-109.25 231,-128.75 891.75,-128.75 891.75,-109.25 231,-109.25"/>
<text text-anchor="start" x="234" y="-115.3" font-family="Courier,monospace" font-size="11.00"> &#160;&#160;&#160;&#160;&#160;&#160;&#160;&#160;&#160;&#160;&#160;&#160;&#160;&#160;&#160;&#160;&#160;&#160;&#160;&#160;&#160;&#160;&#160;&#160;&#160;&#160;&#160;&#160;&#160;&#160;&#160;&#160;&#160;&#160;&#160;&#160;&#160;&#160;&#160;&#160;ProductCategoryId &#160;&#160;&#160;&#160;&#160;&#160;&#160;&#160;&#160;&#160;&#160;&#160;&#160;&#160;&#160;&#160;&#160;&#160;&#160;&#160;&#160;&#160;&#160;&#160;&#160;&#160;&#160;&#160;&#160;&#160;&#160;&#160;&#160;&#160;&#160;&#160;&#160;&#160;</text>
<polygon fill="none" stroke="#99ccff" points="891.75,-109.25 891.75,-128.75 985.5,-128.75 985.5,-109.25 891.75,-109.25"/>
<text text-anchor="start" x="894.75" y="-115.3" font-family="Courier,monospace" font-size="11.00">reference(18)</text>
<polygon fill="none" stroke="#99ccff" points="231,-89.75 231,-109.25 891.75,-109.25 891.75,-89.75 231,-89.75"/>
<text text-anchor="start" x="234" y="-95.8" font-family="Courier,monospace" font-size="11.00"> &#160;&#160;&#160;&#160;&#160;&#160;&#160;&#160;&#160;&#160;&#160;&#160;&#160;&#160;&#160;&#160;&#160;&#160;&#160;&#160;&#160;&#160;&#160;&#160;&#160;&#160;&#160;&#160;&#160;&#160;&#160;&#160;&#160;&#160;&#160;&#160;&#160;&#160;&#160;&#160;ProductId &#160;&#160;&#160;&#160;&#160;&#160;&#160;&#160;&#160;&#160;&#160;&#160;&#160;&#160;&#160;&#160;&#160;&#160;&#160;&#160;&#160;&#160;&#160;&#160;&#160;&#160;&#160;&#160;&#160;&#160;&#160;&#160;&#160;&#160;&#160;&#160;&#160;&#160;</text>
<polygon fill="none" stroke="#99ccff" points="891.75,-89.75 891.75,-109.25 985.5,-109.25 985.5,-89.75 891.75,-89.75"/>
<text text-anchor="start" x="894.75" y="-95.8" font-family="Courier,monospace" font-size="11.00">reference(18)</text>
<polygon fill="none" stroke="#99ccff" points="231,-70.25 231,-89.75 891.75,-89.75 891.75,-70.25 231,-70.25"/>
<text text-anchor="start" x="234" y="-76.3" font-family="Courier,monospace" font-size="11.00"> &#160;&#160;&#160;&#160;&#160;&#160;&#160;&#160;&#160;&#160;&#160;&#160;&#160;&#160;&#160;&#160;&#160;&#160;&#160;&#160;&#160;&#160;&#160;&#160;&#160;&#160;&#160;&#160;&#160;&#160;&#160;&#160;&#160;&#160;&#160;&#160;&#160;&#160;&#160;&#160;CatalogId &#160;&#160;&#160;&#160;&#160;&#160;&#160;&#160;&#160;&#160;&#160;&#160;&#160;&#160;&#160;&#160;&#160;&#160;&#160;&#160;&#160;&#160;&#160;&#160;&#160;&#160;&#160;&#160;&#160;&#160;&#160;&#160;&#160;&#160;&#160;&#160;&#160;&#160;</text>
<polygon fill="none" stroke="#99ccff" points="891.75,-70.25 891.75,-89.75 985.5,-89.75 985.5,-70.25 891.75,-70.25"/>
<text text-anchor="start" x="894.75" y="-76.3" font-family="Courier,monospace" font-size="11.00">reference(18)</text>
<polygon fill="none" stroke="#99ccff" points="231,-50.75 231,-70.25 891.75,-70.25 891.75,-50.75 231,-50.75"/>
<text text-anchor="start" x="234" y="-56.8" font-family="Courier,monospace" font-size="11.00"> &#160;&#160;&#160;&#160;&#160;&#160;&#160;&#160;&#160;&#160;&#160;&#160;&#160;&#160;&#160;&#160;&#160;&#160;&#160;&#160;&#160;&#160;&#160;&#160;&#160;&#160;&#160;&#160;&#160;&#160;&#160;&#160;&#160;&#160;&#160;&#160;&#160;&#160;&#160;&#160;ProductToCategory &#160;&#160;&#160;&#160;&#160;&#160;&#160;&#160;&#160;&#160;&#160;&#160;&#160;&#160;&#160;&#160;&#160;&#160;&#160;&#160;&#160;&#160;&#160;&#160;&#160;&#160;&#160;&#160;&#160;&#160;&#160;&#160;&#160;&#160;&#160;&#160;&#160;&#160;</text>
<polygon fill="none" stroke="#99ccff" points="891.75,-50.75 891.75,-70.25 985.5,-70.25 985.5,-50.75 891.75,-50.75"/>
<text text-anchor="start" x="904.88" y="-56.8" font-family="Courier,monospace" font-size="11.00">string(30)</text>
<polygon fill="none" stroke="#99ccff" points="230,-49.75 230,-227.25 986.5,-227.25 986.5,-49.75 230,-49.75"/>
</a>
</g>
</g>
<!-- User -->
<g id="node2" class="node">
<title>User</title>
<text text-anchor="middle" x="58.62" y="-179.8" font-family="Courier,monospace" font-size="11.00">User</text>
</g>
<!-- ProductCategoryProduct&#45;&gt;User -->
<g id="edge1" class="edge">
<title>ProductCategoryProduct:w&#45;&gt;User:e</title>
<path fill="none" stroke="#ff99cc" d="M214.44,-139.06C166.14,-142.4 115.34,-160.12 85.62,-172.14"/>
<polygon fill="#ff99cc" stroke="#ff99cc" points="221.67,-138.8 229.79,-142.11 226,-138.64 229.33,-138.52 229.33,-138.52 229.33,-138.52 226,-138.64 229.54,-134.91 221.67,-138.8"/>
<ellipse fill="none" stroke="#ff99cc" cx="216.76" cy="-138.97" rx="3.2" ry="3.2"/>
<text text-anchor="middle" x="173.62" y="-157.04" font-family="Monaco" font-size="9.00">LastModifiedBy</text>
</g>
<!-- ProductCategory -->
<g id="node3" class="node">
<title>ProductCategory</title>
<text text-anchor="middle" x="58.62" y="-130.8" font-family="Courier,monospace" font-size="11.00">ProductCategory</text>
</g>
<!-- ProductCategoryProduct&#45;&gt;ProductCategory -->
<g id="edge2" class="edge">
<title>ProductCategoryProduct:w&#45;&gt;ProductCategory:e</title>
<path fill="none" stroke="#ff99cc" d="M214.31,-119.2C180.91,-120.04 145.55,-123.34 117.08,-126.66"/>
<polygon fill="#ff99cc" stroke="#ff99cc" points="221.67,-119.11 229.71,-122.6 226,-119.05 229.33,-119.01 229.33,-119.01 229.33,-119.01 226,-119.05 229.62,-115.4 221.67,-119.11"/>
<ellipse fill="none" stroke="#ff99cc" cx="216.75" cy="-119.17" rx="3.2" ry="3.2"/>
<text text-anchor="middle" x="173.62" y="-127.16" font-family="Monaco" font-size="9.00">ProductCategory</text>
</g>
<!-- Product2 -->
<g id="node4" class="node">
<title>Product2</title>
<text text-anchor="middle" x="58.62" y="-81.8" font-family="Courier,monospace" font-size="11.00">Product2</text>
</g>
<!-- ProductCategoryProduct&#45;&gt;Product2 -->
<g id="edge3" class="edge">
<title>ProductCategoryProduct:w&#45;&gt;Product2:e</title>
<path fill="none" stroke="#ff99cc" d="M214.2,-99.31C170.8,-98.32 124.08,-93.58 93.5,-89.93"/>
<polygon fill="#ff99cc" stroke="#ff99cc" points="221.67,-99.4 229.62,-103.1 226,-99.45 229.33,-99.49 229.33,-99.49 229.33,-99.49 226,-99.45 229.71,-95.9 221.67,-99.4"/>
<ellipse fill="none" stroke="#ff99cc" cx="216.75" cy="-99.34" rx="3.2" ry="3.2"/>
<text text-anchor="middle" x="173.62" y="-101.95" font-family="Monaco" font-size="9.00">Product</text>
</g>
<!-- ProductCatalog -->
<g id="node5" class="node">
<title>ProductCatalog</title>
<text text-anchor="middle" x="58.62" y="-32.8" font-family="Courier,monospace" font-size="11.00">ProductCatalog</text>
</g>
<!-- ProductCategoryProduct&#45;&gt;ProductCatalog -->
<g id="edge4" class="edge">
<title>ProductCategoryProduct:w&#45;&gt;ProductCatalog:e</title>
<path fill="none" stroke="#ff99cc" d="M214.24,-79.45C175.1,-76.79 134.26,-65 104.39,-54.44"/>
<polygon fill="#ff99cc" stroke="#ff99cc" points="221.67,-79.71 229.54,-83.59 226,-79.86 229.33,-79.98 229.33,-79.98 229.33,-79.98 226,-79.86 229.79,-76.39 221.67,-79.71"/>
<ellipse fill="none" stroke="#ff99cc" cx="216.76" cy="-79.54" rx="3.2" ry="3.2"/>
<text text-anchor="middle" x="173.62" y="-81.91" font-family="Monaco" font-size="9.00">Catalog</text>
</g>
</g>
</svg>
