<?xml version="1.0" encoding="UTF-8" standalone="no"?>
<!DOCTYPE svg PUBLIC "-//W3C//DTD SVG 1.1//EN"
 "http://www.w3.org/Graphics/SVG/1.1/DTD/svg11.dtd">
<!-- Generated by graphviz version 12.2.1 (20241206.2353)
 -->
<!-- Title: Salesforce+ ERD Pages: 1 -->
<svg width="1091pt" height="633pt"
 viewBox="0.00 0.00 1090.50 633.00" xmlns="http://www.w3.org/2000/svg" xmlns:xlink="http://www.w3.org/1999/xlink">
<g id="graph0" class="graph" transform="scale(1 1) rotate(0) translate(4 629)">
<title>Salesforce+ ERD</title>
<polygon fill="#efeffd" stroke="none" points="-4,4 -4,-629 1086.5,-629 1086.5,4 -4,4"/>
<text text-anchor="middle" x="1035.12" y="-5.95" font-family="Courier,monospace" font-size="9.00">Salesforce ERD </text>
<!-- Product2 -->
<g id="node1" class="node">
<title>Product2</title>
<g id="a_node1"><a xlink:href="#" xlink:title=" Product2 ">
<polygon fill="#ffeeff" stroke="none" points="265.25,-18.5 265.25,-625 1082.5,-625 1082.5,-18.5 265.25,-18.5"/>
<polygon fill="lightblue" stroke="none" points="266.25,-604.5 266.25,-624 1081.5,-624 1081.5,-604.5 266.25,-604.5"/>
<polygon fill="none" stroke="#99ccff" points="266.25,-604.5 266.25,-624 1081.5,-624 1081.5,-604.5 266.25,-604.5"/>
<text text-anchor="start" x="646.88" y="-611.55" font-family="Courier,monospace" font-weight="bold" font-size="11.00">Product2</text>
<polygon fill="#99ccff" stroke="none" points="266.25,-585 266.25,-604.5 974.25,-604.5 974.25,-585 266.25,-585"/>
<polygon fill="none" stroke="#99ccff" points="266.25,-585 266.25,-604.5 974.25,-604.5 974.25,-585 266.25,-585"/>
<text text-anchor="start" x="269.25" y="-592.05" font-family="Courier,monospace" font-size="11.00"> &#160;&#160;&#160;&#160;&#160;&#160;&#160;&#160;&#160;&#160;&#160;&#160;&#160;&#160;&#160;&#160;&#160;&#160;&#160;&#160;&#160;&#160;&#160;&#160;&#160;&#160;&#160;&#160;&#160;&#160;&#160;&#160;&#160;&#160;&#160;&#160;&#160;&#160;&#160;&#160;&#160;&#160;</text>
<text text-anchor="start" x="559.5" y="-592.05" font-family="Courier,monospace" font-weight="bold" font-size="11.00">Id</text>
<text text-anchor="start" x="573" y="-592.05" font-family="Courier,monospace" font-size="11.00"> &#160;&#160;&#160;&#160;&#160;&#160;&#160;&#160;&#160;&#160;&#160;&#160;&#160;&#160;&#160;&#160;&#160;&#160;&#160;&#160;&#160;&#160;&#160;&#160;&#160;&#160;&#160;&#160;&#160;&#160;&#160;&#160;&#160;&#160;&#160;&#160;&#160;&#160;&#160;</text>
<polygon fill="none" stroke="#99ccff" points="974.25,-585 974.25,-604.5 1081.5,-604.5 1081.5,-585 974.25,-585"/>
<text text-anchor="start" x="1007.62" y="-591.05" font-family="Courier,monospace" font-size="11.00">id(18)</text>
<polygon fill="none" stroke="#99ccff" points="266.25,-565.5 266.25,-585 974.25,-585 974.25,-565.5 266.25,-565.5"/>
<text text-anchor="start" x="269.25" y="-571.55" font-family="Courier,monospace" font-size="11.00"> &#160;&#160;&#160;&#160;&#160;&#160;&#160;&#160;&#160;&#160;&#160;&#160;&#160;&#160;&#160;&#160;&#160;&#160;&#160;&#160;&#160;&#160;&#160;&#160;&#160;&#160;&#160;&#160;&#160;&#160;&#160;&#160;&#160;&#160;&#160;&#160;&#160;&#160;&#160;&#160;Name &#160;&#160;&#160;&#160;&#160;&#160;&#160;&#160;&#160;&#160;&#160;&#160;&#160;&#160;&#160;&#160;&#160;&#160;&#160;&#160;&#160;&#160;&#160;&#160;&#160;&#160;&#160;&#160;&#160;&#160;&#160;&#160;&#160;&#160;&#160;&#160;&#160;&#160;</text>
<polygon fill="none" stroke="#99ccff" points="974.25,-565.5 974.25,-585 1081.5,-585 1081.5,-565.5 974.25,-565.5"/>
<text text-anchor="start" x="990.75" y="-571.55" font-family="Courier,monospace" font-size="11.00">string(255)</text>
<polygon fill="none" stroke="#99ccff" points="266.25,-546 266.25,-565.5 974.25,-565.5 974.25,-546 266.25,-546"/>
<text text-anchor="start" x="269.25" y="-552.05" font-family="Courier,monospace" font-size="11.00"> &#160;&#160;&#160;&#160;&#160;&#160;&#160;&#160;&#160;&#160;&#160;&#160;&#160;&#160;&#160;&#160;&#160;&#160;&#160;&#160;&#160;&#160;&#160;&#160;&#160;&#160;&#160;&#160;&#160;&#160;&#160;&#160;&#160;&#160;&#160;&#160;&#160;&#160;&#160;&#160;ProductCode &#160;&#160;&#160;&#160;&#160;&#160;&#160;&#160;&#160;&#160;&#160;&#160;&#160;&#160;&#160;&#160;&#160;&#160;&#160;&#160;&#160;&#160;&#160;&#160;&#160;&#160;&#160;&#160;&#160;&#160;&#160;&#160;&#160;&#160;&#160;&#160;&#160;&#160;</text>
<polygon fill="none" stroke="#99ccff" points="974.25,-546 974.25,-565.5 1081.5,-565.5 1081.5,-546 974.25,-546"/>
<text text-anchor="start" x="990.75" y="-552.05" font-family="Courier,monospace" font-size="11.00">string(255)</text>
<polygon fill="none" stroke="#99ccff" points="266.25,-526.5 266.25,-546 974.25,-546 974.25,-526.5 266.25,-526.5"/>
<text text-anchor="start" x="269.25" y="-532.55" font-family="Courier,monospace" font-size="11.00"> &#160;&#160;&#160;&#160;&#160;&#160;&#160;&#160;&#160;&#160;&#160;&#160;&#160;&#160;&#160;&#160;&#160;&#160;&#160;&#160;&#160;&#160;&#160;&#160;&#160;&#160;&#160;&#160;&#160;&#160;&#160;&#160;&#160;&#160;&#160;&#160;&#160;&#160;&#160;&#160;Description &#160;&#160;&#160;&#160;&#160;&#160;&#160;&#160;&#160;&#160;&#160;&#160;&#160;&#160;&#160;&#160;&#160;&#160;&#160;&#160;&#160;&#160;&#160;&#160;&#160;&#160;&#160;&#160;&#160;&#160;&#160;&#160;&#160;&#160;&#160;&#160;&#160;&#160;</text>
<polygon fill="none" stroke="#99ccff" points="974.25,-526.5 974.25,-546 1081.5,-546 1081.5,-526.5 974.25,-526.5"/>
<text text-anchor="start" x="980.62" y="-532.55" font-family="Courier,monospace" font-size="11.00">textarea(4000)</text>
<polygon fill="none" stroke="#99ccff" points="266.25,-507 266.25,-526.5 974.25,-526.5 974.25,-507 266.25,-507"/>
<text text-anchor="start" x="269.25" y="-513.05" font-family="Courier,monospace" font-size="11.00"> &#160;&#160;&#160;&#160;&#160;&#160;&#160;&#160;&#160;&#160;&#160;&#160;&#160;&#160;&#160;&#160;&#160;&#160;&#160;&#160;&#160;&#160;&#160;&#160;&#160;&#160;&#160;&#160;&#160;&#160;&#160;&#160;&#160;&#160;&#160;&#160;&#160;&#160;&#160;&#160;IsActive &#160;&#160;&#160;&#160;&#160;&#160;&#160;&#160;&#160;&#160;&#160;&#160;&#160;&#160;&#160;&#160;&#160;&#160;&#160;&#160;&#160;&#160;&#160;&#160;&#160;&#160;&#160;&#160;&#160;&#160;&#160;&#160;&#160;&#160;&#160;&#160;&#160;&#160;</text>
<polygon fill="none" stroke="#99ccff" points="974.25,-507 974.25,-526.5 1081.5,-526.5 1081.5,-507 974.25,-507"/>
<text text-anchor="start" x="1004.25" y="-513.05" font-family="Courier,monospace" font-size="11.00">boolean</text>
<polygon fill="none" stroke="#99ccff" points="266.25,-487.5 266.25,-507 974.25,-507 974.25,-487.5 266.25,-487.5"/>
<text text-anchor="start" x="269.25" y="-493.55" font-family="Courier,monospace" font-size="11.00"> &#160;&#160;&#160;&#160;&#160;&#160;&#160;&#160;&#160;&#160;&#160;&#160;&#160;&#160;&#160;&#160;&#160;&#160;&#160;&#160;&#160;&#160;&#160;&#160;&#160;&#160;&#160;&#160;&#160;&#160;&#160;&#160;&#160;&#160;&#160;&#160;&#160;&#160;&#160;&#160;LastModifiedById &#160;&#160;&#160;&#160;&#160;&#160;&#160;&#160;&#160;&#160;&#160;&#160;&#160;&#160;&#160;&#160;&#160;&#160;&#160;&#160;&#160;&#160;&#160;&#160;&#160;&#160;&#160;&#160;&#160;&#160;&#160;&#160;&#160;&#160;&#160;&#160;&#160;&#160;</text>
<polygon fill="none" stroke="#99ccff" points="974.25,-487.5 974.25,-507 1081.5,-507 1081.5,-487.5 974.25,-487.5"/>
<text text-anchor="start" x="984" y="-493.55" font-family="Courier,monospace" font-size="11.00">reference(18)</text>
<polygon fill="none" stroke="#99ccff" points="266.25,-468 266.25,-487.5 974.25,-487.5 974.25,-468 266.25,-468"/>
<text text-anchor="start" x="269.25" y="-474.05" font-family="Courier,monospace" font-size="11.00"> &#160;&#160;&#160;&#160;&#160;&#160;&#160;&#160;&#160;&#160;&#160;&#160;&#160;&#160;&#160;&#160;&#160;&#160;&#160;&#160;&#160;&#160;&#160;&#160;&#160;&#160;&#160;&#160;&#160;&#160;&#160;&#160;&#160;&#160;&#160;&#160;&#160;&#160;&#160;&#160;Family &#160;&#160;&#160;&#160;&#160;&#160;&#160;&#160;&#160;&#160;&#160;&#160;&#160;&#160;&#160;&#160;&#160;&#160;&#160;&#160;&#160;&#160;&#160;&#160;&#160;&#160;&#160;&#160;&#160;&#160;&#160;&#160;&#160;&#160;&#160;&#160;&#160;&#160;</text>
<polygon fill="none" stroke="#99ccff" points="974.25,-468 974.25,-487.5 1081.5,-487.5 1081.5,-468 974.25,-468"/>
<text text-anchor="start" x="984" y="-474.05" font-family="Courier,monospace" font-size="11.00">picklist(255)</text>
<polygon fill="none" stroke="#99ccff" points="266.25,-448.5 266.25,-468 974.25,-468 974.25,-448.5 266.25,-448.5"/>
<text text-anchor="start" x="269.25" y="-454.55" font-family="Courier,monospace" font-size="11.00"> &#160;&#160;&#160;&#160;&#160;&#160;&#160;&#160;&#160;&#160;&#160;&#160;&#160;&#160;&#160;&#160;&#160;&#160;&#160;&#160;&#160;&#160;&#160;&#160;&#160;&#160;&#160;&#160;&#160;&#160;&#160;&#160;&#160;&#160;&#160;&#160;&#160;&#160;&#160;&#160;RecordTypeId &#160;&#160;&#160;&#160;&#160;&#160;&#160;&#160;&#160;&#160;&#160;&#160;&#160;&#160;&#160;&#160;&#160;&#160;&#160;&#160;&#160;&#160;&#160;&#160;&#160;&#160;&#160;&#160;&#160;&#160;&#160;&#160;&#160;&#160;&#160;&#160;&#160;&#160;</text>
<polygon fill="none" stroke="#99ccff" points="974.25,-448.5 974.25,-468 1081.5,-468 1081.5,-448.5 974.25,-448.5"/>
<text text-anchor="start" x="984" y="-454.55" font-family="Courier,monospace" font-size="11.00">reference(18)</text>
<polygon fill="none" stroke="#99ccff" points="266.25,-429 266.25,-448.5 974.25,-448.5 974.25,-429 266.25,-429"/>
<text text-anchor="start" x="269.25" y="-435.05" font-family="Courier,monospace" font-size="11.00"> &#160;&#160;&#160;&#160;&#160;&#160;&#160;&#160;&#160;&#160;&#160;&#160;&#160;&#160;&#160;&#160;&#160;&#160;&#160;&#160;&#160;&#160;&#160;&#160;&#160;&#160;&#160;&#160;&#160;&#160;&#160;&#160;&#160;&#160;&#160;&#160;&#160;&#160;&#160;&#160;ExternalDataSourceId &#160;&#160;&#160;&#160;&#160;&#160;&#160;&#160;&#160;&#160;&#160;&#160;&#160;&#160;&#160;&#160;&#160;&#160;&#160;&#160;&#160;&#160;&#160;&#160;&#160;&#160;&#160;&#160;&#160;&#160;&#160;&#160;&#160;&#160;&#160;&#160;&#160;&#160;</text>
<polygon fill="none" stroke="#99ccff" points="974.25,-429 974.25,-448.5 1081.5,-448.5 1081.5,-429 974.25,-429"/>
<text text-anchor="start" x="984" y="-435.05" font-family="Courier,monospace" font-size="11.00">reference(18)</text>
<polygon fill="none" stroke="#99ccff" points="266.25,-409.5 266.25,-429 974.25,-429 974.25,-409.5 266.25,-409.5"/>
<text text-anchor="start" x="269.25" y="-415.55" font-family="Courier,monospace" font-size="11.00"> &#160;&#160;&#160;&#160;&#160;&#160;&#160;&#160;&#160;&#160;&#160;&#160;&#160;&#160;&#160;&#160;&#160;&#160;&#160;&#160;&#160;&#160;&#160;&#160;&#160;&#160;&#160;&#160;&#160;&#160;&#160;&#160;&#160;&#160;&#160;&#160;&#160;&#160;&#160;&#160;ExternalId &#160;&#160;&#160;&#160;&#160;&#160;&#160;&#160;&#160;&#160;&#160;&#160;&#160;&#160;&#160;&#160;&#160;&#160;&#160;&#160;&#160;&#160;&#160;&#160;&#160;&#160;&#160;&#160;&#160;&#160;&#160;&#160;&#160;&#160;&#160;&#160;&#160;&#160;</text>
<polygon fill="none" stroke="#99ccff" points="974.25,-409.5 974.25,-429 1081.5,-429 1081.5,-409.5 974.25,-409.5"/>
<text text-anchor="start" x="990.75" y="-415.55" font-family="Courier,monospace" font-size="11.00">string(255)</text>
<polygon fill="none" stroke="#99ccff" points="266.25,-390 266.25,-409.5 974.25,-409.5 974.25,-390 266.25,-390"/>
<text text-anchor="start" x="269.25" y="-396.05" font-family="Courier,monospace" font-size="11.00"> &#160;&#160;&#160;&#160;&#160;&#160;&#160;&#160;&#160;&#160;&#160;&#160;&#160;&#160;&#160;&#160;&#160;&#160;&#160;&#160;&#160;&#160;&#160;&#160;&#160;&#160;&#160;&#160;&#160;&#160;&#160;&#160;&#160;&#160;&#160;&#160;&#160;&#160;&#160;&#160;DisplayUrl &#160;&#160;&#160;&#160;&#160;&#160;&#160;&#160;&#160;&#160;&#160;&#160;&#160;&#160;&#160;&#160;&#160;&#160;&#160;&#160;&#160;&#160;&#160;&#160;&#160;&#160;&#160;&#160;&#160;&#160;&#160;&#160;&#160;&#160;&#160;&#160;&#160;&#160;</text>
<polygon fill="none" stroke="#99ccff" points="974.25,-390 974.25,-409.5 1081.5,-409.5 1081.5,-390 974.25,-390"/>
<text text-anchor="start" x="997.5" y="-396.05" font-family="Courier,monospace" font-size="11.00">url(1000)</text>
<polygon fill="none" stroke="#99ccff" points="266.25,-370.5 266.25,-390 974.25,-390 974.25,-370.5 266.25,-370.5"/>
<text text-anchor="start" x="269.25" y="-376.55" font-family="Courier,monospace" font-size="11.00"> &#160;&#160;&#160;&#160;&#160;&#160;&#160;&#160;&#160;&#160;&#160;&#160;&#160;&#160;&#160;&#160;&#160;&#160;&#160;&#160;&#160;&#160;&#160;&#160;&#160;&#160;&#160;&#160;&#160;&#160;&#160;&#160;&#160;&#160;&#160;&#160;&#160;&#160;&#160;&#160;QuantityUnitOfMeasure &#160;&#160;&#160;&#160;&#160;&#160;&#160;&#160;&#160;&#160;&#160;&#160;&#160;&#160;&#160;&#160;&#160;&#160;&#160;&#160;&#160;&#160;&#160;&#160;&#160;&#160;&#160;&#160;&#160;&#160;&#160;&#160;&#160;&#160;&#160;&#160;&#160;&#160;</text>
<polygon fill="none" stroke="#99ccff" points="974.25,-370.5 974.25,-390 1081.5,-390 1081.5,-370.5 974.25,-370.5"/>
<text text-anchor="start" x="984" y="-376.55" font-family="Courier,monospace" font-size="11.00">picklist(255)</text>
<polygon fill="none" stroke="#99ccff" points="266.25,-351 266.25,-370.5 974.25,-370.5 974.25,-351 266.25,-351"/>
<text text-anchor="start" x="269.25" y="-357.05" font-family="Courier,monospace" font-size="11.00"> &#160;&#160;&#160;&#160;&#160;&#160;&#160;&#160;&#160;&#160;&#160;&#160;&#160;&#160;&#160;&#160;&#160;&#160;&#160;&#160;&#160;&#160;&#160;&#160;&#160;&#160;&#160;&#160;&#160;&#160;&#160;&#160;&#160;&#160;&#160;&#160;&#160;&#160;&#160;&#160;IsDeleted &#160;&#160;&#160;&#160;&#160;&#160;&#160;&#160;&#160;&#160;&#160;&#160;&#160;&#160;&#160;&#160;&#160;&#160;&#160;&#160;&#160;&#160;&#160;&#160;&#160;&#160;&#160;&#160;&#160;&#160;&#160;&#160;&#160;&#160;&#160;&#160;&#160;&#160;</text>
<polygon fill="none" stroke="#99ccff" points="974.25,-351 974.25,-370.5 1081.5,-370.5 1081.5,-351 974.25,-351"/>
<text text-anchor="start" x="1004.25" y="-357.05" font-family="Courier,monospace" font-size="11.00">boolean</text>
<polygon fill="none" stroke="#99ccff" points="266.25,-331.5 266.25,-351 974.25,-351 974.25,-331.5 266.25,-331.5"/>
<text text-anchor="start" x="269.25" y="-337.55" font-family="Courier,monospace" font-size="11.00"> &#160;&#160;&#160;&#160;&#160;&#160;&#160;&#160;&#160;&#160;&#160;&#160;&#160;&#160;&#160;&#160;&#160;&#160;&#160;&#160;&#160;&#160;&#160;&#160;&#160;&#160;&#160;&#160;&#160;&#160;&#160;&#160;&#160;&#160;&#160;&#160;&#160;&#160;&#160;&#160;IsArchived &#160;&#160;&#160;&#160;&#160;&#160;&#160;&#160;&#160;&#160;&#160;&#160;&#160;&#160;&#160;&#160;&#160;&#160;&#160;&#160;&#160;&#160;&#160;&#160;&#160;&#160;&#160;&#160;&#160;&#160;&#160;&#160;&#160;&#160;&#160;&#160;&#160;&#160;</text>
<polygon fill="none" stroke="#99ccff" points="974.25,-331.5 974.25,-351 1081.5,-351 1081.5,-331.5 974.25,-331.5"/>
<text text-anchor="start" x="1004.25" y="-337.55" font-family="Courier,monospace" font-size="11.00">boolean</text>
<polygon fill="none" stroke="#99ccff" points="266.25,-312 266.25,-331.5 974.25,-331.5 974.25,-312 266.25,-312"/>
<text text-anchor="start" x="269.25" y="-318.05" font-family="Courier,monospace" font-size="11.00"> &#160;&#160;&#160;&#160;&#160;&#160;&#160;&#160;&#160;&#160;&#160;&#160;&#160;&#160;&#160;&#160;&#160;&#160;&#160;&#160;&#160;&#160;&#160;&#160;&#160;&#160;&#160;&#160;&#160;&#160;&#160;&#160;&#160;&#160;&#160;&#160;&#160;&#160;&#160;&#160;LastViewedDate &#160;&#160;&#160;&#160;&#160;&#160;&#160;&#160;&#160;&#160;&#160;&#160;&#160;&#160;&#160;&#160;&#160;&#160;&#160;&#160;&#160;&#160;&#160;&#160;&#160;&#160;&#160;&#160;&#160;&#160;&#160;&#160;&#160;&#160;&#160;&#160;&#160;&#160;</text>
<polygon fill="none" stroke="#99ccff" points="974.25,-312 974.25,-331.5 1081.5,-331.5 1081.5,-312 974.25,-312"/>
<text text-anchor="start" x="1000.88" y="-318.05" font-family="Courier,monospace" font-size="11.00">datetime</text>
<polygon fill="none" stroke="#99ccff" points="266.25,-292.5 266.25,-312 974.25,-312 974.25,-292.5 266.25,-292.5"/>
<text text-anchor="start" x="269.25" y="-298.55" font-family="Courier,monospace" font-size="11.00"> &#160;&#160;&#160;&#160;&#160;&#160;&#160;&#160;&#160;&#160;&#160;&#160;&#160;&#160;&#160;&#160;&#160;&#160;&#160;&#160;&#160;&#160;&#160;&#160;&#160;&#160;&#160;&#160;&#160;&#160;&#160;&#160;&#160;&#160;&#160;&#160;&#160;&#160;&#160;&#160;LastReferencedDate &#160;&#160;&#160;&#160;&#160;&#160;&#160;&#160;&#160;&#160;&#160;&#160;&#160;&#160;&#160;&#160;&#160;&#160;&#160;&#160;&#160;&#160;&#160;&#160;&#160;&#160;&#160;&#160;&#160;&#160;&#160;&#160;&#160;&#160;&#160;&#160;&#160;&#160;</text>
<polygon fill="none" stroke="#99ccff" points="974.25,-292.5 974.25,-312 1081.5,-312 1081.5,-292.5 974.25,-292.5"/>
<text text-anchor="start" x="1000.88" y="-298.55" font-family="Courier,monospace" font-size="11.00">datetime</text>
<polygon fill="none" stroke="#99ccff" points="266.25,-273 266.25,-292.5 974.25,-292.5 974.25,-273 266.25,-273"/>
<text text-anchor="start" x="269.25" y="-279.05" font-family="Courier,monospace" font-size="11.00"> &#160;&#160;&#160;&#160;&#160;&#160;&#160;&#160;&#160;&#160;&#160;&#160;&#160;&#160;&#160;&#160;&#160;&#160;&#160;&#160;&#160;&#160;&#160;&#160;&#160;&#160;&#160;&#160;&#160;&#160;&#160;&#160;&#160;&#160;&#160;&#160;&#160;&#160;&#160;&#160;StockKeepingUnit &#160;&#160;&#160;&#160;&#160;&#160;&#160;&#160;&#160;&#160;&#160;&#160;&#160;&#160;&#160;&#160;&#160;&#160;&#160;&#160;&#160;&#160;&#160;&#160;&#160;&#160;&#160;&#160;&#160;&#160;&#160;&#160;&#160;&#160;&#160;&#160;&#160;&#160;</text>
<polygon fill="none" stroke="#99ccff" points="974.25,-273 974.25,-292.5 1081.5,-292.5 1081.5,-273 974.25,-273"/>
<text text-anchor="start" x="990.75" y="-279.05" font-family="Courier,monospace" font-size="11.00">string(180)</text>
<polygon fill="none" stroke="#99ccff" points="266.25,-253.5 266.25,-273 974.25,-273 974.25,-253.5 266.25,-253.5"/>
<text text-anchor="start" x="269.25" y="-259.55" font-family="Courier,monospace" font-size="11.00"> &#160;&#160;&#160;&#160;&#160;&#160;&#160;&#160;&#160;&#160;&#160;&#160;&#160;&#160;&#160;&#160;&#160;&#160;&#160;&#160;&#160;&#160;&#160;&#160;&#160;&#160;&#160;&#160;&#160;&#160;&#160;&#160;&#160;&#160;&#160;&#160;&#160;&#160;&#160;&#160;Type &#160;&#160;&#160;&#160;&#160;&#160;&#160;&#160;&#160;&#160;&#160;&#160;&#160;&#160;&#160;&#160;&#160;&#160;&#160;&#160;&#160;&#160;&#160;&#160;&#160;&#160;&#160;&#160;&#160;&#160;&#160;&#160;&#160;&#160;&#160;&#160;&#160;&#160;</text>
<polygon fill="none" stroke="#99ccff" points="974.25,-253.5 974.25,-273 1081.5,-273 1081.5,-253.5 974.25,-253.5"/>
<text text-anchor="start" x="987.38" y="-259.55" font-family="Courier,monospace" font-size="11.00">picklist(40)</text>
<polygon fill="none" stroke="#99ccff" points="266.25,-234 266.25,-253.5 974.25,-253.5 974.25,-234 266.25,-234"/>
<text text-anchor="start" x="269.25" y="-240.05" font-family="Courier,monospace" font-size="11.00"> &#160;&#160;&#160;&#160;&#160;&#160;&#160;&#160;&#160;&#160;&#160;&#160;&#160;&#160;&#160;&#160;&#160;&#160;&#160;&#160;&#160;&#160;&#160;&#160;&#160;&#160;&#160;&#160;&#160;&#160;&#160;&#160;&#160;&#160;&#160;&#160;&#160;&#160;&#160;&#160;AvailabilityDate &#160;&#160;&#160;&#160;&#160;&#160;&#160;&#160;&#160;&#160;&#160;&#160;&#160;&#160;&#160;&#160;&#160;&#160;&#160;&#160;&#160;&#160;&#160;&#160;&#160;&#160;&#160;&#160;&#160;&#160;&#160;&#160;&#160;&#160;&#160;&#160;&#160;&#160;</text>
<polygon fill="none" stroke="#99ccff" points="974.25,-234 974.25,-253.5 1081.5,-253.5 1081.5,-234 974.25,-234"/>
<text text-anchor="start" x="1000.88" y="-240.05" font-family="Courier,monospace" font-size="11.00">datetime</text>
<polygon fill="none" stroke="#99ccff" points="266.25,-214.5 266.25,-234 974.25,-234 974.25,-214.5 266.25,-214.5"/>
<text text-anchor="start" x="269.25" y="-220.55" font-family="Courier,monospace" font-size="11.00"> &#160;&#160;&#160;&#160;&#160;&#160;&#160;&#160;&#160;&#160;&#160;&#160;&#160;&#160;&#160;&#160;&#160;&#160;&#160;&#160;&#160;&#160;&#160;&#160;&#160;&#160;&#160;&#160;&#160;&#160;&#160;&#160;&#160;&#160;&#160;&#160;&#160;&#160;&#160;&#160;DiscontinuedDate &#160;&#160;&#160;&#160;&#160;&#160;&#160;&#160;&#160;&#160;&#160;&#160;&#160;&#160;&#160;&#160;&#160;&#160;&#160;&#160;&#160;&#160;&#160;&#160;&#160;&#160;&#160;&#160;&#160;&#160;&#160;&#160;&#160;&#160;&#160;&#160;&#160;&#160;</text>
<polygon fill="none" stroke="#99ccff" points="974.25,-214.5 974.25,-234 1081.5,-234 1081.5,-214.5 974.25,-214.5"/>
<text text-anchor="start" x="1000.88" y="-220.55" font-family="Courier,monospace" font-size="11.00">datetime</text>
<polygon fill="none" stroke="#99ccff" points="266.25,-195 266.25,-214.5 974.25,-214.5 974.25,-195 266.25,-195"/>
<text text-anchor="start" x="269.25" y="-201.05" font-family="Courier,monospace" font-size="11.00"> &#160;&#160;&#160;&#160;&#160;&#160;&#160;&#160;&#160;&#160;&#160;&#160;&#160;&#160;&#160;&#160;&#160;&#160;&#160;&#160;&#160;&#160;&#160;&#160;&#160;&#160;&#160;&#160;&#160;&#160;&#160;&#160;&#160;&#160;&#160;&#160;&#160;&#160;&#160;&#160;BasedOnId &#160;&#160;&#160;&#160;&#160;&#160;&#160;&#160;&#160;&#160;&#160;&#160;&#160;&#160;&#160;&#160;&#160;&#160;&#160;&#160;&#160;&#160;&#160;&#160;&#160;&#160;&#160;&#160;&#160;&#160;&#160;&#160;&#160;&#160;&#160;&#160;&#160;&#160;</text>
<polygon fill="none" stroke="#99ccff" points="974.25,-195 974.25,-214.5 1081.5,-214.5 1081.5,-195 974.25,-195"/>
<text text-anchor="start" x="984" y="-201.05" font-family="Courier,monospace" font-size="11.00">reference(18)</text>
<polygon fill="none" stroke="#99ccff" points="266.25,-175.5 266.25,-195 974.25,-195 974.25,-175.5 266.25,-175.5"/>
<text text-anchor="start" x="269.25" y="-181.55" font-family="Courier,monospace" font-size="11.00"> &#160;&#160;&#160;&#160;&#160;&#160;&#160;&#160;&#160;&#160;&#160;&#160;&#160;&#160;&#160;&#160;&#160;&#160;&#160;&#160;&#160;&#160;&#160;&#160;&#160;&#160;&#160;&#160;&#160;&#160;&#160;&#160;&#160;&#160;&#160;&#160;&#160;&#160;&#160;&#160;EndOfLifeDate &#160;&#160;&#160;&#160;&#160;&#160;&#160;&#160;&#160;&#160;&#160;&#160;&#160;&#160;&#160;&#160;&#160;&#160;&#160;&#160;&#160;&#160;&#160;&#160;&#160;&#160;&#160;&#160;&#160;&#160;&#160;&#160;&#160;&#160;&#160;&#160;&#160;&#160;</text>
<polygon fill="none" stroke="#99ccff" points="974.25,-175.5 974.25,-195 1081.5,-195 1081.5,-175.5 974.25,-175.5"/>
<text text-anchor="start" x="1000.88" y="-181.55" font-family="Courier,monospace" font-size="11.00">datetime</text>
<polygon fill="none" stroke="#99ccff" points="266.25,-156 266.25,-175.5 974.25,-175.5 974.25,-156 266.25,-156"/>
<text text-anchor="start" x="269.25" y="-162.05" font-family="Courier,monospace" font-size="11.00"> &#160;&#160;&#160;&#160;&#160;&#160;&#160;&#160;&#160;&#160;&#160;&#160;&#160;&#160;&#160;&#160;&#160;&#160;&#160;&#160;&#160;&#160;&#160;&#160;&#160;&#160;&#160;&#160;&#160;&#160;&#160;&#160;&#160;&#160;&#160;&#160;&#160;&#160;&#160;&#160;HelpText &#160;&#160;&#160;&#160;&#160;&#160;&#160;&#160;&#160;&#160;&#160;&#160;&#160;&#160;&#160;&#160;&#160;&#160;&#160;&#160;&#160;&#160;&#160;&#160;&#160;&#160;&#160;&#160;&#160;&#160;&#160;&#160;&#160;&#160;&#160;&#160;&#160;&#160;</text>
<polygon fill="none" stroke="#99ccff" points="974.25,-156 974.25,-175.5 1081.5,-175.5 1081.5,-156 974.25,-156"/>
<text text-anchor="start" x="977.25" y="-162.05" font-family="Courier,monospace" font-size="11.00">textarea(32768)</text>
<polygon fill="none" stroke="#99ccff" points="266.25,-136.5 266.25,-156 974.25,-156 974.25,-136.5 266.25,-136.5"/>
<text text-anchor="start" x="269.25" y="-142.55" font-family="Courier,monospace" font-size="11.00"> &#160;&#160;&#160;&#160;&#160;&#160;&#160;&#160;&#160;&#160;&#160;&#160;&#160;&#160;&#160;&#160;&#160;&#160;&#160;&#160;&#160;&#160;&#160;&#160;&#160;&#160;&#160;&#160;&#160;&#160;&#160;&#160;&#160;&#160;&#160;&#160;&#160;&#160;&#160;&#160;IsAssetizable &#160;&#160;&#160;&#160;&#160;&#160;&#160;&#160;&#160;&#160;&#160;&#160;&#160;&#160;&#160;&#160;&#160;&#160;&#160;&#160;&#160;&#160;&#160;&#160;&#160;&#160;&#160;&#160;&#160;&#160;&#160;&#160;&#160;&#160;&#160;&#160;&#160;&#160;</text>
<polygon fill="none" stroke="#99ccff" points="974.25,-136.5 974.25,-156 1081.5,-156 1081.5,-136.5 974.25,-136.5"/>
<text text-anchor="start" x="1004.25" y="-142.55" font-family="Courier,monospace" font-size="11.00">boolean</text>
<polygon fill="none" stroke="#99ccff" points="266.25,-117 266.25,-136.5 974.25,-136.5 974.25,-117 266.25,-117"/>
<text text-anchor="start" x="269.25" y="-123.05" font-family="Courier,monospace" font-size="11.00"> &#160;&#160;&#160;&#160;&#160;&#160;&#160;&#160;&#160;&#160;&#160;&#160;&#160;&#160;&#160;&#160;&#160;&#160;&#160;&#160;&#160;&#160;&#160;&#160;&#160;&#160;&#160;&#160;&#160;&#160;&#160;&#160;&#160;&#160;&#160;&#160;&#160;&#160;&#160;&#160;ConfigureDuringSale &#160;&#160;&#160;&#160;&#160;&#160;&#160;&#160;&#160;&#160;&#160;&#160;&#160;&#160;&#160;&#160;&#160;&#160;&#160;&#160;&#160;&#160;&#160;&#160;&#160;&#160;&#160;&#160;&#160;&#160;&#160;&#160;&#160;&#160;&#160;&#160;&#160;&#160;</text>
<polygon fill="none" stroke="#99ccff" points="974.25,-117 974.25,-136.5 1081.5,-136.5 1081.5,-117 974.25,-117"/>
<text text-anchor="start" x="987.38" y="-123.05" font-family="Courier,monospace" font-size="11.00">picklist(40)</text>
<polygon fill="none" stroke="#99ccff" points="266.25,-97.5 266.25,-117 974.25,-117 974.25,-97.5 266.25,-97.5"/>
<text text-anchor="start" x="269.25" y="-103.55" font-family="Courier,monospace" font-size="11.00"> &#160;&#160;&#160;&#160;&#160;&#160;&#160;&#160;&#160;&#160;&#160;&#160;&#160;&#160;&#160;&#160;&#160;&#160;&#160;&#160;&#160;&#160;&#160;&#160;&#160;&#160;&#160;&#160;&#160;&#160;&#160;&#160;&#160;&#160;&#160;&#160;&#160;&#160;&#160;&#160;IsSoldOnlyWithOtherProds &#160;&#160;&#160;&#160;&#160;&#160;&#160;&#160;&#160;&#160;&#160;&#160;&#160;&#160;&#160;&#160;&#160;&#160;&#160;&#160;&#160;&#160;&#160;&#160;&#160;&#160;&#160;&#160;&#160;&#160;&#160;&#160;&#160;&#160;&#160;&#160;&#160;&#160;</text>
<polygon fill="none" stroke="#99ccff" points="974.25,-97.5 974.25,-117 1081.5,-117 1081.5,-97.5 974.25,-97.5"/>
<text text-anchor="start" x="1004.25" y="-103.55" font-family="Courier,monospace" font-size="11.00">boolean</text>
<polygon fill="none" stroke="#99ccff" points="266.25,-78 266.25,-97.5 974.25,-97.5 974.25,-78 266.25,-78"/>
<text text-anchor="start" x="269.25" y="-84.05" font-family="Courier,monospace" font-size="11.00"> &#160;&#160;&#160;&#160;&#160;&#160;&#160;&#160;&#160;&#160;&#160;&#160;&#160;&#160;&#160;&#160;&#160;&#160;&#160;&#160;&#160;&#160;&#160;&#160;&#160;&#160;&#160;&#160;&#160;&#160;&#160;&#160;&#160;&#160;&#160;&#160;&#160;&#160;&#160;&#160;SpecificationType &#160;&#160;&#160;&#160;&#160;&#160;&#160;&#160;&#160;&#160;&#160;&#160;&#160;&#160;&#160;&#160;&#160;&#160;&#160;&#160;&#160;&#160;&#160;&#160;&#160;&#160;&#160;&#160;&#160;&#160;&#160;&#160;&#160;&#160;&#160;&#160;&#160;&#160;</text>
<polygon fill="none" stroke="#99ccff" points="974.25,-78 974.25,-97.5 1081.5,-97.5 1081.5,-78 974.25,-78"/>
<text text-anchor="start" x="990.75" y="-84.05" font-family="Courier,monospace" font-size="11.00">string(255)</text>
<polygon fill="none" stroke="#99ccff" points="266.25,-58.5 266.25,-78 974.25,-78 974.25,-58.5 266.25,-58.5"/>
<text text-anchor="start" x="269.25" y="-64.55" font-family="Courier,monospace" font-size="11.00"> &#160;&#160;&#160;&#160;&#160;&#160;&#160;&#160;&#160;&#160;&#160;&#160;&#160;&#160;&#160;&#160;&#160;&#160;&#160;&#160;&#160;&#160;&#160;&#160;&#160;&#160;&#160;&#160;&#160;&#160;&#160;&#160;&#160;&#160;&#160;&#160;&#160;&#160;&#160;&#160;DecompositionScope &#160;&#160;&#160;&#160;&#160;&#160;&#160;&#160;&#160;&#160;&#160;&#160;&#160;&#160;&#160;&#160;&#160;&#160;&#160;&#160;&#160;&#160;&#160;&#160;&#160;&#160;&#160;&#160;&#160;&#160;&#160;&#160;&#160;&#160;&#160;&#160;&#160;&#160;</text>
<polygon fill="none" stroke="#99ccff" points="974.25,-58.5 974.25,-78 1081.5,-78 1081.5,-58.5 974.25,-58.5"/>
<text text-anchor="start" x="987.38" y="-64.55" font-family="Courier,monospace" font-size="11.00">picklist(40)</text>
<polygon fill="none" stroke="#99ccff" points="266.25,-39 266.25,-58.5 974.25,-58.5 974.25,-39 266.25,-39"/>
<text text-anchor="start" x="269.25" y="-45.05" font-family="Courier,monospace" font-size="11.00"> &#160;&#160;&#160;&#160;&#160;&#160;&#160;&#160;&#160;&#160;&#160;&#160;&#160;&#160;&#160;&#160;&#160;&#160;&#160;&#160;&#160;&#160;&#160;&#160;&#160;&#160;&#160;&#160;&#160;&#160;&#160;&#160;&#160;&#160;&#160;&#160;&#160;&#160;&#160;&#160;FulfillmentQtyCalcMethod &#160;&#160;&#160;&#160;&#160;&#160;&#160;&#160;&#160;&#160;&#160;&#160;&#160;&#160;&#160;&#160;&#160;&#160;&#160;&#160;&#160;&#160;&#160;&#160;&#160;&#160;&#160;&#160;&#160;&#160;&#160;&#160;&#160;&#160;&#160;&#160;&#160;&#160;</text>
<polygon fill="none" stroke="#99ccff" points="974.25,-39 974.25,-58.5 1081.5,-58.5 1081.5,-39 974.25,-39"/>
<text text-anchor="start" x="987.38" y="-45.05" font-family="Courier,monospace" font-size="11.00">picklist(40)</text>
<polygon fill="none" stroke="#99ccff" points="266.25,-19.5 266.25,-39 974.25,-39 974.25,-19.5 266.25,-19.5"/>
<text text-anchor="start" x="269.25" y="-25.55" font-family="Courier,monospace" font-size="11.00"> &#160;&#160;&#160;&#160;&#160;&#160;&#160;&#160;&#160;&#160;&#160;&#160;&#160;&#160;&#160;&#160;&#160;&#160;&#160;&#160;&#160;&#160;&#160;&#160;&#160;&#160;&#160;&#160;&#160;&#160;&#160;&#160;&#160;&#160;&#160;&#160;&#160;&#160;&#160;&#160;UsageModelType &#160;&#160;&#160;&#160;&#160;&#160;&#160;&#160;&#160;&#160;&#160;&#160;&#160;&#160;&#160;&#160;&#160;&#160;&#160;&#160;&#160;&#160;&#160;&#160;&#160;&#160;&#160;&#160;&#160;&#160;&#160;&#160;&#160;&#160;&#160;&#160;&#160;&#160;</text>
<polygon fill="none" stroke="#99ccff" points="974.25,-19.5 974.25,-39 1081.5,-39 1081.5,-19.5 974.25,-19.5"/>
<text text-anchor="start" x="987.38" y="-25.55" font-family="Courier,monospace" font-size="11.00">picklist(40)</text>
<polygon fill="none" stroke="#99ccff" points="265.25,-18.5 265.25,-625 1082.5,-625 1082.5,-18.5 265.25,-18.5"/>
</a>
</g>
</g>
<!-- User -->
<g id="node2" class="node">
<title>User</title>
<text text-anchor="middle" x="78.88" y="-503.05" font-family="Courier,monospace" font-size="11.00">User</text>
</g>
<!-- Product2&#45;&gt;User -->
<g id="edge1" class="edge">
<title>Product2:w&#45;&gt;User:e</title>
<path fill="none" stroke="#ff99cc" d="M249.67,-497.36C196.46,-498.05 138.21,-502.04 105.64,-504.59"/>
<polygon fill="#ff99cc" stroke="#ff99cc" points="256.92,-497.31 264.94,-500.85 261.25,-497.28 264.58,-497.25 264.58,-497.25 264.58,-497.25 261.25,-497.28 264.89,-493.65 256.92,-497.31"/>
<ellipse fill="none" stroke="#ff99cc" cx="252" cy="-497.34" rx="3.2" ry="3.2"/>
<text text-anchor="middle" x="211.5" y="-502.5" font-family="Monaco" font-size="9.00">LastModifiedBy</text>
</g>
<!-- RecordType -->
<g id="node3" class="node">
<title>RecordType</title>
<text text-anchor="middle" x="78.88" y="-454.05" font-family="Courier,monospace" font-size="11.00">RecordType</text>
</g>
<!-- Product2&#45;&gt;RecordType -->
<g id="edge2" class="edge">
<title>Product2:w&#45;&gt;RecordType:e</title>
<path fill="none" stroke="#ff99cc" d="M249.55,-458.24C203.69,-458.21 154.04,-458.05 120.38,-457.92"/>
<polygon fill="#ff99cc" stroke="#ff99cc" points="256.92,-458.25 264.91,-461.85 261.25,-458.25 264.58,-458.25 264.58,-458.25 264.58,-458.25 261.25,-458.25 264.92,-454.65 256.92,-458.25"/>
<ellipse fill="none" stroke="#ff99cc" cx="252" cy="-458.25" rx="3.2" ry="3.2"/>
<text text-anchor="middle" x="211.5" y="-460.94" font-family="Monaco" font-size="9.00">RecordType</text>
</g>
<!-- ExternalDataSource -->
<g id="node4" class="node">
<title>ExternalDataSource</title>
<text text-anchor="middle" x="78.88" y="-405.05" font-family="Courier,monospace" font-size="11.00">ExternalDataSource</text>
</g>
<!-- Product2&#45;&gt;ExternalDataSource -->
<g id="edge3" class="edge">
<title>Product2:w&#45;&gt;ExternalDataSource:e</title>
<path fill="none" stroke="#ff99cc" d="M249.82,-438.43C214.71,-437.02 177.72,-431.14 147.25,-424.98"/>
<polygon fill="#ff99cc" stroke="#ff99cc" points="256.92,-438.58 264.84,-442.34 261.25,-438.67 264.58,-438.74 264.58,-438.74 264.58,-438.74 261.25,-438.67 264.99,-435.14 256.92,-438.58"/>
<ellipse fill="none" stroke="#ff99cc" cx="252" cy="-438.47" rx="3.2" ry="3.2"/>
</g>
<!-- ProductClassification -->
<g id="node5" class="node">
<title>ProductClassification</title>
<text text-anchor="middle" x="78.88" y="-201.05" font-family="Courier,monospace" font-size="11.00">ProductClassification</text>
</g>
<!-- Product2&#45;&gt;ProductClassification -->
<g id="edge4" class="edge">
<title>Product2:w&#45;&gt;ProductClassification:e</title>
<path fill="none" stroke="#ff99cc" d="M249.69,-204.75C218.64,-204.75 185.85,-204.75 157.44,-204.75"/>
<polygon fill="#ff99cc" stroke="#ff99cc" points="256.92,-204.75 264.92,-208.35 261.25,-204.75 264.58,-204.75 264.58,-204.75 264.58,-204.75 261.25,-204.75 264.92,-201.15 256.92,-204.75"/>
<ellipse fill="none" stroke="#ff99cc" cx="252" cy="-204.75" rx="3.2" ry="3.2"/>
<text text-anchor="middle" x="211.5" y="-207.45" font-family="Monaco" font-size="9.00">BasedOn</text>
</g>
</g>
</svg>
