<?xml version="1.0" encoding="UTF-8" standalone="no"?>
<!DOCTYPE svg PUBLIC "-//W3C//DTD SVG 1.1//EN"
 "http://www.w3.org/Graphics/SVG/1.1/DTD/svg11.dtd">
<!-- Generated by graphviz version 12.2.1 (20241206.2353)
 -->
<!-- Title: Salesforce+ ERD Pages: 1 -->
<svg width="956pt" height="321pt"
 viewBox="0.00 0.00 955.50 321.00" xmlns="http://www.w3.org/2000/svg" xmlns:xlink="http://www.w3.org/1999/xlink">
<g id="graph0" class="graph" transform="scale(1 1) rotate(0) translate(4 317)">
<title>Salesforce+ ERD</title>
<polygon fill="#efeffd" stroke="none" points="-4,4 -4,-317 951.5,-317 951.5,4 -4,4"/>
<text text-anchor="middle" x="900.12" y="-5.95" font-family="Courier,monospace" font-size="9.00">Salesforce ERD </text>
<!-- ProductDisqualification -->
<g id="node1" class="node">
<title>ProductDisqualification</title>
<g id="a_node1"><a xlink:href="#" xlink:title=" ProductDisqualification ">
<polygon fill="#ffeeff" stroke="none" points="177.5,-18.5 177.5,-313 947.5,-313 947.5,-18.5 177.5,-18.5"/>
<polygon fill="lightblue" stroke="none" points="178.5,-292.5 178.5,-312 946.5,-312 946.5,-292.5 178.5,-292.5"/>
<polygon fill="none" stroke="#99ccff" points="178.5,-292.5 178.5,-312 946.5,-312 946.5,-292.5 178.5,-292.5"/>
<text text-anchor="start" x="484.88" y="-299.55" font-family="Courier,monospace" font-weight="bold" font-size="11.00">ProductDisqualification</text>
<polygon fill="#99ccff" stroke="none" points="178.5,-273 178.5,-292.5 846,-292.5 846,-273 178.5,-273"/>
<polygon fill="none" stroke="#99ccff" points="178.5,-273 178.5,-292.5 846,-292.5 846,-273 178.5,-273"/>
<text text-anchor="start" x="181.5" y="-280.05" font-family="Courier,monospace" font-size="11.00"> &#160;&#160;&#160;&#160;&#160;&#160;&#160;&#160;&#160;&#160;&#160;&#160;&#160;&#160;&#160;&#160;&#160;&#160;&#160;&#160;&#160;&#160;&#160;&#160;&#160;&#160;&#160;&#160;&#160;&#160;&#160;&#160;&#160;&#160;&#160;&#160;&#160;&#160;&#160;&#160;&#160;&#160;</text>
<text text-anchor="start" x="471.75" y="-280.05" font-family="Courier,monospace" font-weight="bold" font-size="11.00">Id</text>
<text text-anchor="start" x="485.25" y="-280.05" font-family="Courier,monospace" font-size="11.00"> &#160;&#160;&#160;&#160;&#160;&#160;&#160;&#160;&#160;&#160;&#160;&#160;&#160;&#160;&#160;&#160;&#160;&#160;&#160;&#160;&#160;&#160;&#160;&#160;&#160;&#160;&#160;&#160;&#160;&#160;&#160;&#160;&#160;&#160;&#160;&#160;&#160;&#160;&#160;</text>
<polygon fill="none" stroke="#99ccff" points="846,-273 846,-292.5 946.5,-292.5 946.5,-273 846,-273"/>
<text text-anchor="start" x="876" y="-279.05" font-family="Courier,monospace" font-size="11.00">id(18)</text>
<polygon fill="none" stroke="#99ccff" points="178.5,-253.5 178.5,-273 846,-273 846,-253.5 178.5,-253.5"/>
<text text-anchor="start" x="181.5" y="-259.55" font-family="Courier,monospace" font-size="11.00"> &#160;&#160;&#160;&#160;&#160;&#160;&#160;&#160;&#160;&#160;&#160;&#160;&#160;&#160;&#160;&#160;&#160;&#160;&#160;&#160;&#160;&#160;&#160;&#160;&#160;&#160;&#160;&#160;&#160;&#160;&#160;&#160;&#160;&#160;&#160;&#160;&#160;&#160;&#160;&#160;OwnerId &#160;&#160;&#160;&#160;&#160;&#160;&#160;&#160;&#160;&#160;&#160;&#160;&#160;&#160;&#160;&#160;&#160;&#160;&#160;&#160;&#160;&#160;&#160;&#160;&#160;&#160;&#160;&#160;&#160;&#160;&#160;&#160;&#160;&#160;&#160;&#160;&#160;&#160;</text>
<polygon fill="none" stroke="#99ccff" points="846,-253.5 846,-273 946.5,-273 946.5,-253.5 846,-253.5"/>
<text text-anchor="start" x="852.38" y="-259.55" font-family="Courier,monospace" font-size="11.00">reference(18)</text>
<polygon fill="none" stroke="#99ccff" points="178.5,-234 178.5,-253.5 846,-253.5 846,-234 178.5,-234"/>
<text text-anchor="start" x="181.5" y="-240.05" font-family="Courier,monospace" font-size="11.00"> &#160;&#160;&#160;&#160;&#160;&#160;&#160;&#160;&#160;&#160;&#160;&#160;&#160;&#160;&#160;&#160;&#160;&#160;&#160;&#160;&#160;&#160;&#160;&#160;&#160;&#160;&#160;&#160;&#160;&#160;&#160;&#160;&#160;&#160;&#160;&#160;&#160;&#160;&#160;&#160;IsDeleted &#160;&#160;&#160;&#160;&#160;&#160;&#160;&#160;&#160;&#160;&#160;&#160;&#160;&#160;&#160;&#160;&#160;&#160;&#160;&#160;&#160;&#160;&#160;&#160;&#160;&#160;&#160;&#160;&#160;&#160;&#160;&#160;&#160;&#160;&#160;&#160;&#160;&#160;</text>
<polygon fill="none" stroke="#99ccff" points="846,-234 846,-253.5 946.5,-253.5 946.5,-234 846,-234"/>
<text text-anchor="start" x="872.62" y="-240.05" font-family="Courier,monospace" font-size="11.00">boolean</text>
<polygon fill="none" stroke="#99ccff" points="178.5,-214.5 178.5,-234 846,-234 846,-214.5 178.5,-214.5"/>
<text text-anchor="start" x="181.5" y="-220.55" font-family="Courier,monospace" font-size="11.00"> &#160;&#160;&#160;&#160;&#160;&#160;&#160;&#160;&#160;&#160;&#160;&#160;&#160;&#160;&#160;&#160;&#160;&#160;&#160;&#160;&#160;&#160;&#160;&#160;&#160;&#160;&#160;&#160;&#160;&#160;&#160;&#160;&#160;&#160;&#160;&#160;&#160;&#160;&#160;&#160;Name &#160;&#160;&#160;&#160;&#160;&#160;&#160;&#160;&#160;&#160;&#160;&#160;&#160;&#160;&#160;&#160;&#160;&#160;&#160;&#160;&#160;&#160;&#160;&#160;&#160;&#160;&#160;&#160;&#160;&#160;&#160;&#160;&#160;&#160;&#160;&#160;&#160;&#160;</text>
<polygon fill="none" stroke="#99ccff" points="846,-214.5 846,-234 946.5,-234 946.5,-214.5 846,-214.5"/>
<text text-anchor="start" x="859.12" y="-220.55" font-family="Courier,monospace" font-size="11.00">string(255)</text>
<polygon fill="none" stroke="#99ccff" points="178.5,-195 178.5,-214.5 846,-214.5 846,-195 178.5,-195"/>
<text text-anchor="start" x="181.5" y="-201.05" font-family="Courier,monospace" font-size="11.00"> &#160;&#160;&#160;&#160;&#160;&#160;&#160;&#160;&#160;&#160;&#160;&#160;&#160;&#160;&#160;&#160;&#160;&#160;&#160;&#160;&#160;&#160;&#160;&#160;&#160;&#160;&#160;&#160;&#160;&#160;&#160;&#160;&#160;&#160;&#160;&#160;&#160;&#160;&#160;&#160;LastModifiedById &#160;&#160;&#160;&#160;&#160;&#160;&#160;&#160;&#160;&#160;&#160;&#160;&#160;&#160;&#160;&#160;&#160;&#160;&#160;&#160;&#160;&#160;&#160;&#160;&#160;&#160;&#160;&#160;&#160;&#160;&#160;&#160;&#160;&#160;&#160;&#160;&#160;&#160;</text>
<polygon fill="none" stroke="#99ccff" points="846,-195 846,-214.5 946.5,-214.5 946.5,-195 846,-195"/>
<text text-anchor="start" x="852.38" y="-201.05" font-family="Courier,monospace" font-size="11.00">reference(18)</text>
<polygon fill="none" stroke="#99ccff" points="178.5,-175.5 178.5,-195 846,-195 846,-175.5 178.5,-175.5"/>
<text text-anchor="start" x="181.5" y="-181.55" font-family="Courier,monospace" font-size="11.00"> &#160;&#160;&#160;&#160;&#160;&#160;&#160;&#160;&#160;&#160;&#160;&#160;&#160;&#160;&#160;&#160;&#160;&#160;&#160;&#160;&#160;&#160;&#160;&#160;&#160;&#160;&#160;&#160;&#160;&#160;&#160;&#160;&#160;&#160;&#160;&#160;&#160;&#160;&#160;&#160;LastViewedDate &#160;&#160;&#160;&#160;&#160;&#160;&#160;&#160;&#160;&#160;&#160;&#160;&#160;&#160;&#160;&#160;&#160;&#160;&#160;&#160;&#160;&#160;&#160;&#160;&#160;&#160;&#160;&#160;&#160;&#160;&#160;&#160;&#160;&#160;&#160;&#160;&#160;&#160;</text>
<polygon fill="none" stroke="#99ccff" points="846,-175.5 846,-195 946.5,-195 946.5,-175.5 846,-175.5"/>
<text text-anchor="start" x="869.25" y="-181.55" font-family="Courier,monospace" font-size="11.00">datetime</text>
<polygon fill="none" stroke="#99ccff" points="178.5,-156 178.5,-175.5 846,-175.5 846,-156 178.5,-156"/>
<text text-anchor="start" x="181.5" y="-162.05" font-family="Courier,monospace" font-size="11.00"> &#160;&#160;&#160;&#160;&#160;&#160;&#160;&#160;&#160;&#160;&#160;&#160;&#160;&#160;&#160;&#160;&#160;&#160;&#160;&#160;&#160;&#160;&#160;&#160;&#160;&#160;&#160;&#160;&#160;&#160;&#160;&#160;&#160;&#160;&#160;&#160;&#160;&#160;&#160;&#160;LastReferencedDate &#160;&#160;&#160;&#160;&#160;&#160;&#160;&#160;&#160;&#160;&#160;&#160;&#160;&#160;&#160;&#160;&#160;&#160;&#160;&#160;&#160;&#160;&#160;&#160;&#160;&#160;&#160;&#160;&#160;&#160;&#160;&#160;&#160;&#160;&#160;&#160;&#160;&#160;</text>
<polygon fill="none" stroke="#99ccff" points="846,-156 846,-175.5 946.5,-175.5 946.5,-156 846,-156"/>
<text text-anchor="start" x="869.25" y="-162.05" font-family="Courier,monospace" font-size="11.00">datetime</text>
<polygon fill="none" stroke="#99ccff" points="178.5,-136.5 178.5,-156 846,-156 846,-136.5 178.5,-136.5"/>
<text text-anchor="start" x="181.5" y="-142.55" font-family="Courier,monospace" font-size="11.00"> &#160;&#160;&#160;&#160;&#160;&#160;&#160;&#160;&#160;&#160;&#160;&#160;&#160;&#160;&#160;&#160;&#160;&#160;&#160;&#160;&#160;&#160;&#160;&#160;&#160;&#160;&#160;&#160;&#160;&#160;&#160;&#160;&#160;&#160;&#160;&#160;&#160;&#160;&#160;&#160;IsDisqualified &#160;&#160;&#160;&#160;&#160;&#160;&#160;&#160;&#160;&#160;&#160;&#160;&#160;&#160;&#160;&#160;&#160;&#160;&#160;&#160;&#160;&#160;&#160;&#160;&#160;&#160;&#160;&#160;&#160;&#160;&#160;&#160;&#160;&#160;&#160;&#160;&#160;&#160;</text>
<polygon fill="none" stroke="#99ccff" points="846,-136.5 846,-156 946.5,-156 946.5,-136.5 846,-136.5"/>
<text text-anchor="start" x="872.62" y="-142.55" font-family="Courier,monospace" font-size="11.00">boolean</text>
<polygon fill="none" stroke="#99ccff" points="178.5,-117 178.5,-136.5 846,-136.5 846,-117 178.5,-117"/>
<text text-anchor="start" x="181.5" y="-123.05" font-family="Courier,monospace" font-size="11.00"> &#160;&#160;&#160;&#160;&#160;&#160;&#160;&#160;&#160;&#160;&#160;&#160;&#160;&#160;&#160;&#160;&#160;&#160;&#160;&#160;&#160;&#160;&#160;&#160;&#160;&#160;&#160;&#160;&#160;&#160;&#160;&#160;&#160;&#160;&#160;&#160;&#160;&#160;&#160;&#160;EffectiveToDate &#160;&#160;&#160;&#160;&#160;&#160;&#160;&#160;&#160;&#160;&#160;&#160;&#160;&#160;&#160;&#160;&#160;&#160;&#160;&#160;&#160;&#160;&#160;&#160;&#160;&#160;&#160;&#160;&#160;&#160;&#160;&#160;&#160;&#160;&#160;&#160;&#160;&#160;</text>
<polygon fill="none" stroke="#99ccff" points="846,-117 846,-136.5 946.5,-136.5 946.5,-117 846,-117"/>
<text text-anchor="start" x="882.75" y="-123.05" font-family="Courier,monospace" font-size="11.00">date</text>
<polygon fill="none" stroke="#99ccff" points="178.5,-97.5 178.5,-117 846,-117 846,-97.5 178.5,-97.5"/>
<text text-anchor="start" x="181.5" y="-103.55" font-family="Courier,monospace" font-size="11.00"> &#160;&#160;&#160;&#160;&#160;&#160;&#160;&#160;&#160;&#160;&#160;&#160;&#160;&#160;&#160;&#160;&#160;&#160;&#160;&#160;&#160;&#160;&#160;&#160;&#160;&#160;&#160;&#160;&#160;&#160;&#160;&#160;&#160;&#160;&#160;&#160;&#160;&#160;&#160;&#160;EffectiveFromDate &#160;&#160;&#160;&#160;&#160;&#160;&#160;&#160;&#160;&#160;&#160;&#160;&#160;&#160;&#160;&#160;&#160;&#160;&#160;&#160;&#160;&#160;&#160;&#160;&#160;&#160;&#160;&#160;&#160;&#160;&#160;&#160;&#160;&#160;&#160;&#160;&#160;&#160;</text>
<polygon fill="none" stroke="#99ccff" points="846,-97.5 846,-117 946.5,-117 946.5,-97.5 846,-97.5"/>
<text text-anchor="start" x="882.75" y="-103.55" font-family="Courier,monospace" font-size="11.00">date</text>
<polygon fill="none" stroke="#99ccff" points="178.5,-78 178.5,-97.5 846,-97.5 846,-78 178.5,-78"/>
<text text-anchor="start" x="181.5" y="-84.05" font-family="Courier,monospace" font-size="11.00"> &#160;&#160;&#160;&#160;&#160;&#160;&#160;&#160;&#160;&#160;&#160;&#160;&#160;&#160;&#160;&#160;&#160;&#160;&#160;&#160;&#160;&#160;&#160;&#160;&#160;&#160;&#160;&#160;&#160;&#160;&#160;&#160;&#160;&#160;&#160;&#160;&#160;&#160;&#160;&#160;ProductId &#160;&#160;&#160;&#160;&#160;&#160;&#160;&#160;&#160;&#160;&#160;&#160;&#160;&#160;&#160;&#160;&#160;&#160;&#160;&#160;&#160;&#160;&#160;&#160;&#160;&#160;&#160;&#160;&#160;&#160;&#160;&#160;&#160;&#160;&#160;&#160;&#160;&#160;</text>
<polygon fill="none" stroke="#99ccff" points="846,-78 846,-97.5 946.5,-97.5 946.5,-78 846,-78"/>
<text text-anchor="start" x="852.38" y="-84.05" font-family="Courier,monospace" font-size="11.00">reference(18)</text>
<polygon fill="none" stroke="#99ccff" points="178.5,-58.5 178.5,-78 846,-78 846,-58.5 178.5,-58.5"/>
<text text-anchor="start" x="181.5" y="-64.55" font-family="Courier,monospace" font-size="11.00"> &#160;&#160;&#160;&#160;&#160;&#160;&#160;&#160;&#160;&#160;&#160;&#160;&#160;&#160;&#160;&#160;&#160;&#160;&#160;&#160;&#160;&#160;&#160;&#160;&#160;&#160;&#160;&#160;&#160;&#160;&#160;&#160;&#160;&#160;&#160;&#160;&#160;&#160;&#160;&#160;Reason &#160;&#160;&#160;&#160;&#160;&#160;&#160;&#160;&#160;&#160;&#160;&#160;&#160;&#160;&#160;&#160;&#160;&#160;&#160;&#160;&#160;&#160;&#160;&#160;&#160;&#160;&#160;&#160;&#160;&#160;&#160;&#160;&#160;&#160;&#160;&#160;&#160;&#160;</text>
<polygon fill="none" stroke="#99ccff" points="846,-58.5 846,-78 946.5,-78 946.5,-58.5 846,-58.5"/>
<text text-anchor="start" x="849" y="-64.55" font-family="Courier,monospace" font-size="11.00">textarea(3200)</text>
<polygon fill="none" stroke="#99ccff" points="178.5,-39 178.5,-58.5 846,-58.5 846,-39 178.5,-39"/>
<text text-anchor="start" x="181.5" y="-45.05" font-family="Courier,monospace" font-size="11.00"> &#160;&#160;&#160;&#160;&#160;&#160;&#160;&#160;&#160;&#160;&#160;&#160;&#160;&#160;&#160;&#160;&#160;&#160;&#160;&#160;&#160;&#160;&#160;&#160;&#160;&#160;&#160;&#160;&#160;&#160;&#160;&#160;&#160;&#160;&#160;&#160;&#160;&#160;&#160;&#160;RootProductId &#160;&#160;&#160;&#160;&#160;&#160;&#160;&#160;&#160;&#160;&#160;&#160;&#160;&#160;&#160;&#160;&#160;&#160;&#160;&#160;&#160;&#160;&#160;&#160;&#160;&#160;&#160;&#160;&#160;&#160;&#160;&#160;&#160;&#160;&#160;&#160;&#160;&#160;</text>
<polygon fill="none" stroke="#99ccff" points="846,-39 846,-58.5 946.5,-58.5 946.5,-39 846,-39"/>
<text text-anchor="start" x="852.38" y="-45.05" font-family="Courier,monospace" font-size="11.00">reference(18)</text>
<polygon fill="none" stroke="#99ccff" points="178.5,-19.5 178.5,-39 846,-39 846,-19.5 178.5,-19.5"/>
<text text-anchor="start" x="181.5" y="-25.55" font-family="Courier,monospace" font-size="11.00"> &#160;&#160;&#160;&#160;&#160;&#160;&#160;&#160;&#160;&#160;&#160;&#160;&#160;&#160;&#160;&#160;&#160;&#160;&#160;&#160;&#160;&#160;&#160;&#160;&#160;&#160;&#160;&#160;&#160;&#160;&#160;&#160;&#160;&#160;&#160;&#160;&#160;&#160;&#160;&#160;ParentProductId &#160;&#160;&#160;&#160;&#160;&#160;&#160;&#160;&#160;&#160;&#160;&#160;&#160;&#160;&#160;&#160;&#160;&#160;&#160;&#160;&#160;&#160;&#160;&#160;&#160;&#160;&#160;&#160;&#160;&#160;&#160;&#160;&#160;&#160;&#160;&#160;&#160;&#160;</text>
<polygon fill="none" stroke="#99ccff" points="846,-19.5 846,-39 946.5,-39 946.5,-19.5 846,-19.5"/>
<text text-anchor="start" x="852.38" y="-25.55" font-family="Courier,monospace" font-size="11.00">reference(18)</text>
<polygon fill="none" stroke="#99ccff" points="177.5,-18.5 177.5,-313 947.5,-313 947.5,-18.5 177.5,-18.5"/>
</a>
</g>
</g>
<!-- Group -->
<g id="node2" class="node">
<title>Group</title>
<text text-anchor="middle" x="35" y="-259.05" font-family="Courier,monospace" font-size="11.00">Group</text>
</g>
<!-- ProductDisqualification&#45;&gt;Group -->
<g id="edge1" class="edge">
<title>ProductDisqualification:w&#45;&gt;Group:e</title>
<path fill="none" stroke="#ff99cc" d="M162.09,-263.24C125.65,-263.2 86.64,-263.03 61.82,-262.9"/>
<polygon fill="#ff99cc" stroke="#ff99cc" points="169.17,-263.24 177.16,-266.85 173.5,-263.25 176.83,-263.25 176.83,-263.25 176.83,-263.25 173.5,-263.25 177.17,-259.65 169.17,-263.24"/>
<ellipse fill="none" stroke="#ff99cc" cx="164.25" cy="-263.24" rx="3.2" ry="3.2"/>
<text text-anchor="middle" x="123.75" y="-265.94" font-family="Monaco" font-size="9.00">Owner</text>
</g>
<!-- User -->
<g id="node3" class="node">
<title>User</title>
<text text-anchor="middle" x="35" y="-206.05" font-family="Courier,monospace" font-size="11.00">User</text>
</g>
<!-- ProductDisqualification&#45;&gt;User -->
<g id="edge2" class="edge">
<title>ProductDisqualification:w&#45;&gt;User:e</title>
<path fill="none" stroke="#ff99cc" d="M167.75,-250.81C166.89,-245.32 165.86,-239.27 160.5,-235.5 152.51,-229.88 96.05,-219.72 61.97,-213.99"/>
<polygon fill="#ff99cc" stroke="#ff99cc" points="172.36,-256.69 174.46,-265.21 175.03,-260.1 177.09,-262.72 177.09,-262.72 177.09,-262.72 175.03,-260.1 180.13,-260.77 172.36,-256.69"/>
<ellipse fill="none" stroke="#ff99cc" cx="169.32" cy="-252.82" rx="3.2" ry="3.2"/>
<text text-anchor="middle" x="123.75" y="-238.2" font-family="Monaco" font-size="9.00">Owner</text>
</g>
<!-- ProductDisqualification&#45;&gt;User -->
<g id="edge3" class="edge">
<title>ProductDisqualification:w&#45;&gt;User:e</title>
<path fill="none" stroke="#ff99cc" d="M161.85,-204.51C161.42,-204.51 160.97,-204.5 160.5,-204.5 127.83,-204.26 119.62,-202.83 87,-204.5 78.82,-204.92 69.94,-205.72 61.91,-206.56"/>
<polygon fill="#ff99cc" stroke="#ff99cc" points="169.17,-204.62 177.11,-208.34 173.5,-204.69 176.83,-204.74 176.83,-204.74 176.83,-204.74 173.5,-204.69 177.22,-201.15 169.17,-204.62"/>
<ellipse fill="none" stroke="#ff99cc" cx="164.25" cy="-204.55" rx="3.2" ry="3.2"/>
<text text-anchor="middle" x="123.75" y="-207.2" font-family="Monaco" font-size="9.00">LastModifiedBy</text>
</g>
<!-- Product2 -->
<g id="node4" class="node">
<title>Product2</title>
<text text-anchor="middle" x="35" y="-55.05" font-family="Courier,monospace" font-size="11.00">Product2</text>
</g>
<!-- ProductDisqualification&#45;&gt;Product2 -->
<g id="edge4" class="edge">
<title>ProductDisqualification:w&#45;&gt;Product2:e</title>
<path fill="none" stroke="#ff99cc" d="M161.97,-87.23C128.96,-85.09 94.45,-76.8 69.91,-69.71"/>
<polygon fill="#ff99cc" stroke="#ff99cc" points="169.17,-87.47 177.04,-91.34 173.5,-87.62 176.83,-87.73 176.83,-87.73 176.83,-87.73 173.5,-87.62 177.29,-84.14 169.17,-87.47"/>
<ellipse fill="none" stroke="#ff99cc" cx="164.25" cy="-87.3" rx="3.2" ry="3.2"/>
<text text-anchor="middle" x="123.75" y="-89.64" font-family="Monaco" font-size="9.00">Product</text>
</g>
<!-- ProductDisqualification&#45;&gt;Product2 -->
<g id="edge5" class="edge">
<title>ProductDisqualification:w&#45;&gt;Product2:e</title>
<path fill="none" stroke="#ff99cc" d="M161.71,-48.94C129.12,-49.7 94.58,-52.56 69.98,-55"/>
<polygon fill="#ff99cc" stroke="#ff99cc" points="169.17,-48.85 177.21,-52.35 173.5,-48.8 176.83,-48.76 176.83,-48.76 176.83,-48.76 173.5,-48.8 177.12,-45.15 169.17,-48.85"/>
<ellipse fill="none" stroke="#ff99cc" cx="164.25" cy="-48.91" rx="3.2" ry="3.2"/>
<text text-anchor="middle" x="123.75" y="-55.85" font-family="Monaco" font-size="9.00">RootProduct</text>
</g>
<!-- ProductDisqualification&#45;&gt;Product2 -->
<g id="edge6" class="edge">
<title>ProductDisqualification:w&#45;&gt;Product2:e</title>
<path fill="none" stroke="#ff99cc" d="M161.68,-29.01C133.4,-28.18 120.39,-25.94 87,-34.5 81.02,-36.03 74.89,-38.28 69.05,-40.8"/>
<polygon fill="#ff99cc" stroke="#ff99cc" points="169.17,-29.12 177.11,-32.84 173.5,-29.19 176.83,-29.24 176.83,-29.24 176.83,-29.24 173.5,-29.19 177.22,-25.65 169.17,-29.12"/>
<ellipse fill="none" stroke="#ff99cc" cx="164.25" cy="-29.05" rx="3.2" ry="3.2"/>
<text text-anchor="middle" x="123.75" y="-37.2" font-family="Monaco" font-size="9.00">ParentProduct</text>
</g>
</g>
</svg>
